<?xml version="1.0" encoding="UTF-8" standalone="no"?>
<!DOCTYPE svg PUBLIC "-//W3C//DTD SVG 1.1//EN"
 "http://www.w3.org/Graphics/SVG/1.1/DTD/svg11.dtd">
<!-- Generated by graphviz version 2.46.0 (20210118.1747)
 -->
<!-- Title: unix Pages: 1 -->
<svg width="294pt" height="989pt"
 viewBox="0.00 0.00 294.00 989.00" xmlns="http://www.w3.org/2000/svg" xmlns:xlink="http://www.w3.org/1999/xlink">
<g id="graph0" class="graph" transform="scale(1 1) rotate(0) translate(4 985)">
<title>unix</title>
<polygon fill="white" stroke="transparent" points="-4,4 -4,-985 290,-985 290,4 -4,4"/>
<text text-anchor="start" x="8" y="-45.2" font-family="Times New Roman,serif" font-size="16.00">Graph generated on 10/05/2021 17:17:31.</text>
<text text-anchor="start" x="8" y="-27.2" font-family="Times New Roman,serif" font-size="16.00">Checked 2 pages. Time took: 0.34 minutes.</text>
<text text-anchor="middle" x="143" y="-9.2" font-family="Times New Roman,serif" font-size="16.00">Number of pages drawn: 21</text>
<!-- Battle of Salher -->
<g id="node1" class="node">
<title>Battle of Salher</title>
<g id="a_node1"><a xlink:href="https://en.wikipedia.org/wiki/Battle_of_Salher" xlink:title="Battle of Salher">
<ellipse fill="#b0e2ff" stroke="#b0e2ff" cx="71.88" cy="-963" rx="52.88" ry="18"/>
<text text-anchor="middle" x="71.88" y="-959.9" font-family="Times New Roman,serif" font-size="12.00">Battle of Salher</text>
</a>
</g>
</g>
<!-- Maratha Empire -->
<g id="node2" class="node">
<title>Maratha Empire</title>
<g id="a_node2"><a xlink:href="https://en.wikipedia.org/wiki/Maratha_Empire" xlink:title="Maratha Empire">
<ellipse fill="lightskyblue" stroke="lightskyblue" cx="71.88" cy="-891" rx="55.31" ry="18"/>
<text text-anchor="middle" x="71.88" y="-887.9" font-family="Times New Roman,serif" font-size="12.00">Maratha Empire</text>
</a>
</g>
</g>
<!-- Battle of Salher&#45;&gt;Maratha Empire -->
<g id="edge1" class="edge">
<title>Battle of Salher&#45;&gt;Maratha Empire</title>
<path fill="none" stroke="black" d="M71.88,-944.7C71.88,-936.98 71.88,-927.71 71.88,-919.11"/>
<polygon fill="black" stroke="black" points="75.38,-919.1 71.88,-909.1 68.38,-919.1 75.38,-919.1"/>
</g>
<!-- Indian subcontinent -->
<g id="node3" class="node">
<title>Indian subcontinent</title>
<g id="a_node3"><a xlink:href="https://en.wikipedia.org/wiki/Indian_subcontinent" xlink:title="Indian subcontinent">
<ellipse fill="lightskyblue" stroke="lightskyblue" cx="71.88" cy="-819" rx="64.04" ry="18"/>
<text text-anchor="middle" x="71.88" y="-815.9" font-family="Times New Roman,serif" font-size="12.00">Indian subcontinent</text>
</a>
</g>
</g>
<!-- Maratha Empire&#45;&gt;Indian subcontinent -->
<g id="edge2" class="edge">
<title>Maratha Empire&#45;&gt;Indian subcontinent</title>
<path fill="none" stroke="black" d="M71.88,-872.7C71.88,-864.98 71.88,-855.71 71.88,-847.11"/>
<polygon fill="black" stroke="black" points="75.38,-847.1 71.88,-837.1 68.38,-847.1 75.38,-847.1"/>
</g>
<!-- Physical geography -->
<g id="node4" class="node">
<title>Physical geography</title>
<g id="a_node4"><a xlink:href="https://en.wikipedia.org/wiki/Physical_geography" xlink:title="Physical geography">
<ellipse fill="lightskyblue" stroke="lightskyblue" cx="71.88" cy="-747" rx="64.04" ry="18"/>
<text text-anchor="middle" x="71.88" y="-743.9" font-family="Times New Roman,serif" font-size="12.00">Physical geography</text>
</a>
</g>
</g>
<!-- Indian subcontinent&#45;&gt;Physical geography -->
<g id="edge3" class="edge">
<title>Indian subcontinent&#45;&gt;Physical geography</title>
<path fill="none" stroke="black" d="M71.88,-800.7C71.88,-792.98 71.88,-783.71 71.88,-775.11"/>
<polygon fill="black" stroke="black" points="75.38,-775.1 71.88,-765.1 68.38,-775.1 75.38,-775.1"/>
</g>
<!-- Geography -->
<g id="node5" class="node">
<title>Geography</title>
<g id="a_node5"><a xlink:href="https://en.wikipedia.org/wiki/Geography" xlink:title="Geography">
<ellipse fill="lightskyblue" stroke="lightskyblue" cx="71.88" cy="-675" rx="41.49" ry="18"/>
<text text-anchor="middle" x="71.88" y="-671.9" font-family="Times New Roman,serif" font-size="12.00">Geography</text>
</a>
</g>
</g>
<!-- Physical geography&#45;&gt;Geography -->
<g id="edge4" class="edge">
<title>Physical geography&#45;&gt;Geography</title>
<path fill="none" stroke="black" d="M71.88,-728.7C71.88,-720.98 71.88,-711.71 71.88,-703.11"/>
<polygon fill="black" stroke="black" points="75.38,-703.1 71.88,-693.1 68.38,-703.1 75.38,-703.1"/>
</g>
<!-- Science -->
<g id="node6" class="node">
<title>Science</title>
<g id="a_node6"><a xlink:href="https://en.wikipedia.org/wiki/Science" xlink:title="Science">
<ellipse fill="lightskyblue" stroke="lightskyblue" cx="71.88" cy="-603" rx="32.02" ry="18"/>
<text text-anchor="middle" x="71.88" y="-599.9" font-family="Times New Roman,serif" font-size="12.00">Science</text>
</a>
</g>
</g>
<!-- Geography&#45;&gt;Science -->
<g id="edge5" class="edge">
<title>Geography&#45;&gt;Science</title>
<path fill="none" stroke="black" d="M71.88,-656.7C71.88,-648.98 71.88,-639.71 71.88,-631.11"/>
<polygon fill="black" stroke="black" points="75.38,-631.1 71.88,-621.1 68.38,-631.1 75.38,-631.1"/>
</g>
<!-- Scientific method -->
<g id="node7" class="node">
<title>Scientific method</title>
<g id="a_node7"><a xlink:href="https://en.wikipedia.org/wiki/Scientific_method" xlink:title="Scientific method">
<ellipse fill="lightskyblue" stroke="lightskyblue" cx="71.88" cy="-531" rx="57.73" ry="18"/>
<text text-anchor="middle" x="71.88" y="-527.9" font-family="Times New Roman,serif" font-size="12.00">Scientific method</text>
</a>
</g>
</g>
<!-- Science&#45;&gt;Scientific method -->
<g id="edge6" class="edge">
<title>Science&#45;&gt;Scientific method</title>
<path fill="none" stroke="black" d="M71.88,-584.7C71.88,-576.98 71.88,-567.71 71.88,-559.11"/>
<polygon fill="black" stroke="black" points="75.38,-559.1 71.88,-549.1 68.38,-559.1 75.38,-559.1"/>
</g>
<!-- Empirical evidence -->
<g id="node8" class="node">
<title>Empirical evidence</title>
<g id="a_node8"><a xlink:href="https://en.wikipedia.org/wiki/Empirical_evidence" xlink:title="Empirical evidence">
<ellipse fill="lightskyblue" stroke="lightskyblue" cx="80.88" cy="-459" rx="62.35" ry="18"/>
<text text-anchor="middle" x="80.88" y="-455.9" font-family="Times New Roman,serif" font-size="12.00">Empirical evidence</text>
</a>
</g>
</g>
<!-- Scientific method&#45;&gt;Empirical evidence -->
<g id="edge7" class="edge">
<title>Scientific method&#45;&gt;Empirical evidence</title>
<path fill="none" stroke="black" d="M74.11,-512.7C75.1,-504.98 76.29,-495.71 77.4,-487.11"/>
<polygon fill="black" stroke="black" points="80.88,-487.47 78.69,-477.1 73.94,-486.58 80.88,-487.47"/>
</g>
<!-- Information -->
<g id="node9" class="node">
<title>Information</title>
<g id="a_node9"><a xlink:href="https://en.wikipedia.org/wiki/Information" xlink:title="Information">
<ellipse fill="lightskyblue" stroke="lightskyblue" cx="80.88" cy="-387" rx="41.72" ry="18"/>
<text text-anchor="middle" x="80.88" y="-383.9" font-family="Times New Roman,serif" font-size="12.00">Information</text>
</a>
</g>
</g>
<!-- Empirical evidence&#45;&gt;Information -->
<g id="edge8" class="edge">
<title>Empirical evidence&#45;&gt;Information</title>
<path fill="none" stroke="black" d="M80.88,-440.7C80.88,-432.98 80.88,-423.71 80.88,-415.11"/>
<polygon fill="black" stroke="black" points="84.38,-415.1 80.88,-405.1 77.38,-415.1 84.38,-415.1"/>
</g>
<!-- Uncertainty -->
<g id="node10" class="node">
<title>Uncertainty</title>
<g id="a_node10"><a xlink:href="https://en.wikipedia.org/wiki/Uncertainty" xlink:title="Uncertainty">
<ellipse fill="lightskyblue" stroke="lightskyblue" cx="81.88" cy="-315" rx="41.72" ry="18"/>
<text text-anchor="middle" x="81.88" y="-311.9" font-family="Times New Roman,serif" font-size="12.00">Uncertainty</text>
</a>
</g>
</g>
<!-- Information&#45;&gt;Uncertainty -->
<g id="edge9" class="edge">
<title>Information&#45;&gt;Uncertainty</title>
<path fill="none" stroke="black" d="M81.13,-368.7C81.24,-360.98 81.37,-351.71 81.5,-343.11"/>
<polygon fill="black" stroke="black" points="85,-343.15 81.64,-333.1 78,-343.05 85,-343.15"/>
</g>
<!-- Epistemology -->
<g id="node11" class="node">
<title>Epistemology</title>
<g id="a_node11"><a xlink:href="https://en.wikipedia.org/wiki/Epistemology" xlink:title="Epistemology">
<ellipse fill="lightskyblue" stroke="lightskyblue" cx="83.88" cy="-243" rx="47.3" ry="18"/>
<text text-anchor="middle" x="83.88" y="-239.9" font-family="Times New Roman,serif" font-size="12.00">Epistemology</text>
</a>
</g>
</g>
<!-- Uncertainty&#45;&gt;Epistemology -->
<g id="edge10" class="edge">
<title>Uncertainty&#45;&gt;Epistemology</title>
<path fill="none" stroke="black" d="M82.38,-296.7C82.6,-288.98 82.86,-279.71 83.11,-271.11"/>
<polygon fill="black" stroke="black" points="86.61,-271.2 83.4,-261.1 79.61,-271 86.61,-271.2"/>
</g>
<!-- Outline of philosophy -->
<g id="node12" class="node">
<title>Outline of philosophy</title>
<g id="a_node12"><a xlink:href="https://en.wikipedia.org/wiki/Outline_of_philosophy" xlink:title="Outline of philosophy">
<ellipse fill="lightskyblue" stroke="lightskyblue" cx="86.88" cy="-171" rx="69.62" ry="18"/>
<text text-anchor="middle" x="86.88" y="-167.9" font-family="Times New Roman,serif" font-size="12.00">Outline of philosophy</text>
</a>
</g>
</g>
<!-- Epistemology&#45;&gt;Outline of philosophy -->
<g id="edge11" class="edge">
<title>Epistemology&#45;&gt;Outline of philosophy</title>
<path fill="none" stroke="black" d="M84.63,-224.7C84.96,-216.98 85.35,-207.71 85.72,-199.11"/>
<polygon fill="black" stroke="black" points="89.22,-199.25 86.15,-189.1 82.23,-198.95 89.22,-199.25"/>
</g>
<!-- Philosophy -->
<g id="node13" class="node">
<title>Philosophy</title>
<g id="a_node13"><a xlink:href="https://en.wikipedia.org/wiki/Philosophy" xlink:title="Philosophy">
<ellipse fill="lightskyblue" stroke="lightskyblue" cx="143.88" cy="-99" rx="40.76" ry="18"/>
<text text-anchor="middle" x="143.88" y="-95.9" font-family="Times New Roman,serif" font-size="12.00">Philosophy</text>
</a>
</g>
</g>
<!-- Outline of philosophy&#45;&gt;Philosophy -->
<g id="edge12" class="edge">
<title>Outline of philosophy&#45;&gt;Philosophy</title>
<path fill="none" stroke="black" d="M100.68,-153.05C107.72,-144.42 116.39,-133.76 124.12,-124.27"/>
<polygon fill="black" stroke="black" points="127.01,-126.27 130.61,-116.31 121.58,-121.85 127.01,-126.27"/>
</g>
<!-- Sahawit Khumpiam -->
<g id="node14" class="node">
<title>Sahawit Khumpiam</title>
<g id="a_node14"><a xlink:href="https://en.wikipedia.org/wiki/Sahawit_Khumpiam" xlink:title="Sahawit Khumpiam">
<ellipse fill="#b0e2ff" stroke="#b0e2ff" cx="212.88" cy="-603" rx="64.77" ry="18"/>
<text text-anchor="middle" x="212.88" y="-599.9" font-family="Times New Roman,serif" font-size="12.00">Sahawit Khumpiam</text>
</a>
</g>
</g>
<!-- Association football -->
<g id="node15" class="node">
<title>Association football</title>
<g id="a_node15"><a xlink:href="https://en.wikipedia.org/wiki/Association_football" xlink:title="Association football">
<ellipse fill="lightskyblue" stroke="lightskyblue" cx="212.88" cy="-531" rx="65.01" ry="18"/>
<text text-anchor="middle" x="212.88" y="-527.9" font-family="Times New Roman,serif" font-size="12.00">Association football</text>
</a>
</g>
</g>
<!-- Sahawit Khumpiam&#45;&gt;Association football -->
<g id="edge13" class="edge">
<title>Sahawit Khumpiam&#45;&gt;Association football</title>
<path fill="none" stroke="black" d="M212.88,-584.7C212.88,-576.98 212.88,-567.71 212.88,-559.11"/>
<polygon fill="black" stroke="black" points="216.38,-559.1 212.88,-549.1 209.38,-559.1 216.38,-559.1"/>
</g>
<!-- Team sport -->
<g id="node16" class="node">
<title>Team sport</title>
<g id="a_node16"><a xlink:href="https://en.wikipedia.org/wiki/Team_sport" xlink:title="Team sport">
<ellipse fill="lightskyblue" stroke="lightskyblue" cx="207.88" cy="-459" rx="41.72" ry="18"/>
<text text-anchor="middle" x="207.88" y="-455.9" font-family="Times New Roman,serif" font-size="12.00">Team sport</text>
</a>
</g>
</g>
<!-- Association football&#45;&gt;Team sport -->
<g id="edge14" class="edge">
<title>Association football&#45;&gt;Team sport</title>
<path fill="none" stroke="black" d="M211.65,-512.7C211.1,-504.98 210.44,-495.71 209.82,-487.11"/>
<polygon fill="black" stroke="black" points="213.31,-486.83 209.11,-477.1 206.33,-487.33 213.31,-486.83"/>
</g>
<!-- Sport -->
<g id="node17" class="node">
<title>Sport</title>
<g id="a_node17"><a xlink:href="https://en.wikipedia.org/wiki/Sport" xlink:title="Sport">
<ellipse fill="lightskyblue" stroke="lightskyblue" cx="206.88" cy="-387" rx="27" ry="18"/>
<text text-anchor="middle" x="206.88" y="-383.9" font-family="Times New Roman,serif" font-size="12.00">Sport</text>
</a>
</g>
</g>
<!-- Team sport&#45;&gt;Sport -->
<g id="edge15" class="edge">
<title>Team sport&#45;&gt;Sport</title>
<path fill="none" stroke="black" d="M207.64,-440.7C207.53,-432.98 207.39,-423.71 207.27,-415.11"/>
<polygon fill="black" stroke="black" points="210.77,-415.05 207.13,-405.1 203.77,-415.15 210.77,-415.05"/>
</g>
<!-- Competition -->
<g id="node18" class="node">
<title>Competition</title>
<g id="a_node18"><a xlink:href="https://en.wikipedia.org/wiki/Competition" xlink:title="Competition">
<ellipse fill="lightskyblue" stroke="lightskyblue" cx="205.88" cy="-315" rx="44.15" ry="18"/>
<text text-anchor="middle" x="205.88" y="-311.9" font-family="Times New Roman,serif" font-size="12.00">Competition</text>
</a>
</g>
</g>
<!-- Sport&#45;&gt;Competition -->
<g id="edge16" class="edge">
<title>Sport&#45;&gt;Competition</title>
<path fill="none" stroke="black" d="M206.64,-368.7C206.53,-360.98 206.39,-351.71 206.27,-343.11"/>
<polygon fill="black" stroke="black" points="209.77,-343.05 206.13,-333.1 202.77,-343.15 209.77,-343.05"/>
</g>
<!-- Goal -->
<g id="node19" class="node">
<title>Goal</title>
<g id="a_node19"><a xlink:href="https://en.wikipedia.org/wiki/Goal" xlink:title="Goal">
<ellipse fill="lightskyblue" stroke="lightskyblue" cx="202.88" cy="-243" rx="27" ry="18"/>
<text text-anchor="middle" x="202.88" y="-239.9" font-family="Times New Roman,serif" font-size="12.00">Goal</text>
</a>
</g>
</g>
<!-- Competition&#45;&gt;Goal -->
<g id="edge17" class="edge">
<title>Competition&#45;&gt;Goal</title>
<path fill="none" stroke="black" d="M205.14,-296.7C204.81,-288.98 204.41,-279.71 204.05,-271.11"/>
<polygon fill="black" stroke="black" points="207.54,-270.95 203.62,-261.1 200.55,-271.25 207.54,-270.95"/>
</g>
<!-- Idea -->
<g id="node20" class="node">
<title>Idea</title>
<g id="a_node20"><a xlink:href="https://en.wikipedia.org/wiki/Idea" xlink:title="Idea">
<ellipse fill="lightskyblue" stroke="lightskyblue" cx="202.88" cy="-171" rx="27" ry="18"/>
<text text-anchor="middle" x="202.88" y="-167.9" font-family="Times New Roman,serif" font-size="12.00">Idea</text>
</a>
</g>
</g>
<!-- Goal&#45;&gt;Idea -->
<g id="edge18" class="edge">
<title>Goal&#45;&gt;Idea</title>
<path fill="none" stroke="black" d="M202.88,-224.7C202.88,-216.98 202.88,-207.71 202.88,-199.11"/>
<polygon fill="black" stroke="black" points="206.38,-199.1 202.88,-189.1 199.38,-199.1 206.38,-199.1"/>
</g>
<!-- Idea&#45;&gt;Philosophy -->
<g id="edge19" class="edge">
<title>Idea&#45;&gt;Philosophy</title>
<path fill="none" stroke="black" d="M190.08,-154.81C182.49,-145.8 172.69,-134.18 164.07,-123.95"/>
<polygon fill="black" stroke="black" points="166.6,-121.52 157.48,-116.13 161.25,-126.04 166.6,-121.52"/>
</g>
</g>
</svg>
