<?xml version="1.0" encoding="UTF-8" standalone="no"?>
<!DOCTYPE svg PUBLIC "-//W3C//DTD SVG 1.1//EN"
 "http://www.w3.org/Graphics/SVG/1.1/DTD/svg11.dtd">
<!-- Generated by graphviz version 2.46.0 (20210118.1747)
 -->
<!-- Title: unix Pages: 1 -->
<svg width="267pt" height="833pt"
 viewBox="0.00 0.00 267.00 833.00" xmlns="http://www.w3.org/2000/svg" xmlns:xlink="http://www.w3.org/1999/xlink">
<g id="graph0" class="graph" transform="scale(1 1) rotate(0) translate(4 829)">
<title>unix</title>
<polygon fill="white" stroke="transparent" points="-4,4 -4,-829 263,-829 263,4 -4,4"/>
<text text-anchor="start" x="8" y="-37.8" font-family="Times New Roman,serif" font-size="14.00">Graph generated on 08/05/2021 18:36:23.</text>
<text text-anchor="start" x="8" y="-22.8" font-family="Times New Roman,serif" font-size="14.00">Checked 1 pages. Time took: 0.18 minutes.</text>
<text text-anchor="middle" x="129.5" y="-7.8" font-family="Times New Roman,serif" font-size="14.00">Number of pages drawn: 12</text>
<!-- Paul Alexander (British writer) -->
<g id="node1" class="node">
<title>Paul Alexander (British writer)</title>
<g id="a_node1"><a xlink:href="https://en.wikipedia.org/wiki/Paul_Alexander_(British_writer)" xlink:title="Paul Alexander (British writer)">
<ellipse fill="#b0e2ff" stroke="#b0e2ff" cx="130.78" cy="-807" rx="120.48" ry="18"/>
<text text-anchor="middle" x="130.78" y="-803.3" font-family="Times New Roman,serif" font-size="14.00">Paul Alexander (British writer)</text>
</a>
</g>
</g>
<!-- Neighbors from Hell -->
<g id="node2" class="node">
<title>Neighbors from Hell</title>
<g id="a_node2"><a xlink:href="https://en.wikipedia.org/wiki/Neighbors_from_Hell" xlink:title="Neighbors from Hell">
<ellipse fill="lightskyblue" stroke="lightskyblue" cx="130.78" cy="-735" rx="85.29" ry="18"/>
<text text-anchor="middle" x="130.78" y="-731.3" font-family="Times New Roman,serif" font-size="14.00">Neighbors from Hell</text>
</a>
</g>
</g>
<!-- Paul Alexander (British writer)&#45;&gt;Neighbors from Hell -->
<g id="edge1" class="edge">
<title>Paul Alexander (British writer)&#45;&gt;Neighbors from Hell</title>
<path fill="none" stroke="black" d="M130.78,-788.7C130.78,-780.98 130.78,-771.71 130.78,-763.11"/>
<polygon fill="black" stroke="black" points="134.28,-763.1 130.78,-753.1 127.28,-763.1 134.28,-763.1"/>
</g>
<!-- TBS (American TV channel) -->
<g id="node3" class="node">
<title>TBS (American TV channel)</title>
<g id="a_node3"><a xlink:href="https://en.wikipedia.org/wiki/TBS_(American_TV_channel)" xlink:title="TBS (American TV channel)">
<ellipse fill="lightskyblue" stroke="lightskyblue" cx="130.78" cy="-663" rx="115.08" ry="18"/>
<text text-anchor="middle" x="130.78" y="-659.3" font-family="Times New Roman,serif" font-size="14.00">TBS (American TV channel)</text>
</a>
</g>
</g>
<!-- Neighbors from Hell&#45;&gt;TBS (American TV channel) -->
<g id="edge2" class="edge">
<title>Neighbors from Hell&#45;&gt;TBS (American TV channel)</title>
<path fill="none" stroke="black" d="M130.78,-716.7C130.78,-708.98 130.78,-699.71 130.78,-691.11"/>
<polygon fill="black" stroke="black" points="134.28,-691.1 130.78,-681.1 127.28,-691.1 134.28,-691.1"/>
</g>
<!-- Pay television -->
<g id="node4" class="node">
<title>Pay television</title>
<g id="a_node4"><a xlink:href="https://en.wikipedia.org/wiki/Pay_television" xlink:title="Pay television">
<ellipse fill="lightskyblue" stroke="lightskyblue" cx="130.78" cy="-591" rx="60.39" ry="18"/>
<text text-anchor="middle" x="130.78" y="-587.3" font-family="Times New Roman,serif" font-size="14.00">Pay television</text>
</a>
</g>
</g>
<!-- TBS (American TV channel)&#45;&gt;Pay television -->
<g id="edge3" class="edge">
<title>TBS (American TV channel)&#45;&gt;Pay television</title>
<path fill="none" stroke="black" d="M130.78,-644.7C130.78,-636.98 130.78,-627.71 130.78,-619.11"/>
<polygon fill="black" stroke="black" points="134.28,-619.1 130.78,-609.1 127.28,-619.1 134.28,-619.1"/>
</g>
<!-- Subscription business model -->
<g id="node5" class="node">
<title>Subscription business model</title>
<g id="a_node5"><a xlink:href="https://en.wikipedia.org/wiki/Subscription_business_model" xlink:title="Subscription business model">
<ellipse fill="lightskyblue" stroke="lightskyblue" cx="130.78" cy="-519" rx="115.88" ry="18"/>
<text text-anchor="middle" x="130.78" y="-515.3" font-family="Times New Roman,serif" font-size="14.00">Subscription business model</text>
</a>
</g>
</g>
<!-- Pay television&#45;&gt;Subscription business model -->
<g id="edge4" class="edge">
<title>Pay television&#45;&gt;Subscription business model</title>
<path fill="none" stroke="black" d="M130.78,-572.7C130.78,-564.98 130.78,-555.71 130.78,-547.11"/>
<polygon fill="black" stroke="black" points="134.28,-547.1 130.78,-537.1 127.28,-547.1 134.28,-547.1"/>
</g>
<!-- Business model -->
<g id="node6" class="node">
<title>Business model</title>
<g id="a_node6"><a xlink:href="https://en.wikipedia.org/wiki/Business_model" xlink:title="Business model">
<ellipse fill="lightskyblue" stroke="lightskyblue" cx="130.78" cy="-447" rx="67.69" ry="18"/>
<text text-anchor="middle" x="130.78" y="-443.3" font-family="Times New Roman,serif" font-size="14.00">Business model</text>
</a>
</g>
</g>
<!-- Subscription business model&#45;&gt;Business model -->
<g id="edge5" class="edge">
<title>Subscription business model&#45;&gt;Business model</title>
<path fill="none" stroke="black" d="M130.78,-500.7C130.78,-492.98 130.78,-483.71 130.78,-475.11"/>
<polygon fill="black" stroke="black" points="134.28,-475.1 130.78,-465.1 127.28,-475.1 134.28,-475.1"/>
</g>
<!-- Explanation -->
<g id="node7" class="node">
<title>Explanation</title>
<g id="a_node7"><a xlink:href="https://en.wikipedia.org/wiki/Explanation" xlink:title="Explanation">
<ellipse fill="lightskyblue" stroke="lightskyblue" cx="130.78" cy="-375" rx="53.09" ry="18"/>
<text text-anchor="middle" x="130.78" y="-371.3" font-family="Times New Roman,serif" font-size="14.00">Explanation</text>
</a>
</g>
</g>
<!-- Business model&#45;&gt;Explanation -->
<g id="edge6" class="edge">
<title>Business model&#45;&gt;Explanation</title>
<path fill="none" stroke="black" d="M130.78,-428.7C130.78,-420.98 130.78,-411.71 130.78,-403.11"/>
<polygon fill="black" stroke="black" points="134.28,-403.1 130.78,-393.1 127.28,-403.1 134.28,-403.1"/>
</g>
<!-- Statement (logic) -->
<g id="node8" class="node">
<title>Statement (logic)</title>
<g id="a_node8"><a xlink:href="https://en.wikipedia.org/wiki/Statement_(logic)" xlink:title="Statement (logic)">
<ellipse fill="lightskyblue" stroke="lightskyblue" cx="130.78" cy="-303" rx="72.29" ry="18"/>
<text text-anchor="middle" x="130.78" y="-299.3" font-family="Times New Roman,serif" font-size="14.00">Statement (logic)</text>
</a>
</g>
</g>
<!-- Explanation&#45;&gt;Statement (logic) -->
<g id="edge7" class="edge">
<title>Explanation&#45;&gt;Statement (logic)</title>
<path fill="none" stroke="black" d="M130.78,-356.7C130.78,-348.98 130.78,-339.71 130.78,-331.11"/>
<polygon fill="black" stroke="black" points="134.28,-331.1 130.78,-321.1 127.28,-331.1 134.28,-331.1"/>
</g>
<!-- Logic -->
<g id="node9" class="node">
<title>Logic</title>
<g id="a_node9"><a xlink:href="https://en.wikipedia.org/wiki/Logic" xlink:title="Logic">
<ellipse fill="lightskyblue" stroke="lightskyblue" cx="130.78" cy="-231" rx="31.7" ry="18"/>
<text text-anchor="middle" x="130.78" y="-227.3" font-family="Times New Roman,serif" font-size="14.00">Logic</text>
</a>
</g>
</g>
<!-- Statement (logic)&#45;&gt;Logic -->
<g id="edge8" class="edge">
<title>Statement (logic)&#45;&gt;Logic</title>
<path fill="none" stroke="black" d="M130.78,-284.7C130.78,-276.98 130.78,-267.71 130.78,-259.11"/>
<polygon fill="black" stroke="black" points="134.28,-259.1 130.78,-249.1 127.28,-259.1 134.28,-259.1"/>
</g>
<!-- Rule of inference -->
<g id="node10" class="node">
<title>Rule of inference</title>
<g id="a_node10"><a xlink:href="https://en.wikipedia.org/wiki/Rule_of_inference" xlink:title="Rule of inference">
<ellipse fill="lightskyblue" stroke="lightskyblue" cx="80.78" cy="-159" rx="72.59" ry="18"/>
<text text-anchor="middle" x="80.78" y="-155.3" font-family="Times New Roman,serif" font-size="14.00">Rule of inference</text>
</a>
</g>
</g>
<!-- Logic&#45;&gt;Rule of inference -->
<g id="edge9" class="edge">
<title>Logic&#45;&gt;Rule of inference</title>
<path fill="none" stroke="black" d="M119.43,-214.12C113.28,-205.51 105.54,-194.67 98.6,-184.96"/>
<polygon fill="black" stroke="black" points="101.44,-182.9 92.78,-176.8 95.74,-186.97 101.44,-182.9"/>
</g>
<!-- Logical form -->
<g id="node11" class="node">
<title>Logical form</title>
<g id="a_node11"><a xlink:href="https://en.wikipedia.org/wiki/Logical_form" xlink:title="Logical form">
<ellipse fill="lightskyblue" stroke="lightskyblue" cx="130.78" cy="-87" rx="57.69" ry="18"/>
<text text-anchor="middle" x="130.78" y="-83.3" font-family="Times New Roman,serif" font-size="14.00">Logical form</text>
</a>
</g>
</g>
<!-- Rule of inference&#45;&gt;Logical form -->
<g id="edge10" class="edge">
<title>Rule of inference&#45;&gt;Logical form</title>
<path fill="none" stroke="black" d="M92.88,-141.05C98.9,-132.63 106.29,-122.28 112.94,-112.97"/>
<polygon fill="black" stroke="black" points="115.82,-114.96 118.78,-104.79 110.12,-110.89 115.82,-114.96"/>
</g>
<!-- Logical form&#45;&gt;Logic -->
<g id="edge11" class="edge">
<title>Logical form&#45;&gt;Logic</title>
<path fill="none" stroke="black" d="M144.01,-104.56C151.09,-114.5 159.09,-127.75 162.78,-141 167.07,-156.41 167.07,-161.59 162.78,-177 159.95,-187.14 154.6,-197.29 149.08,-205.94"/>
<polygon fill="black" stroke="black" points="146.08,-204.12 143.35,-214.36 151.87,-208.06 146.08,-204.12"/>
</g>
</g>
</svg>
