<?xml version="1.0" encoding="UTF-8" standalone="no"?>
<!DOCTYPE svg PUBLIC "-//W3C//DTD SVG 1.1//EN"
 "http://www.w3.org/Graphics/SVG/1.1/DTD/svg11.dtd">
<!-- Generated by graphviz version 2.46.0 (20210118.1747)
 -->
<!-- Title: unix Pages: 1 -->
<svg width="796pt" height="1150pt"
 viewBox="0.00 0.00 795.79 1150.00" xmlns="http://www.w3.org/2000/svg" xmlns:xlink="http://www.w3.org/1999/xlink">
<g id="graph0" class="graph" transform="scale(1 1) rotate(0) translate(4 1146)">
<title>unix</title>
<polygon fill="white" stroke="transparent" points="-4,4 -4,-1146 791.79,-1146 791.79,4 -4,4"/>
<text text-anchor="start" x="217.89" y="-54" font-family="Times New Roman,serif" font-size="20.00">Graph generated on 08/05/2021 19:45:03.</text>
<text text-anchor="start" x="217.89" y="-32" font-family="Times New Roman,serif" font-size="20.00">Checked 7 pages. Time took: 1.02 minutes.</text>
<text text-anchor="middle" x="393.89" y="-10" font-family="Times New Roman,serif" font-size="20.00">Number of pages drawn: 54</text>
<!-- Russia -->
<g id="node1" class="node">
<title>Russia</title>
<g id="a_node1"><a xlink:href="https://en.wikipedia.org/wiki/Russia" xlink:title="Russia">
<ellipse fill="#b0e2ff" stroke="#b0e2ff" cx="66.29" cy="-1124" rx="35.19" ry="18"/>
<text text-anchor="middle" x="66.29" y="-1120.3" font-family="Times New Roman,serif" font-size="14.00">Russia</text>
</a>
</g>
</g>
<!-- Eastern Europe -->
<g id="node2" class="node">
<title>Eastern Europe</title>
<g id="a_node2"><a xlink:href="https://en.wikipedia.org/wiki/Eastern_Europe" xlink:title="Eastern Europe">
<ellipse fill="lightskyblue" stroke="lightskyblue" cx="66.29" cy="-1052" rx="66.09" ry="18"/>
<text text-anchor="middle" x="66.29" y="-1048.3" font-family="Times New Roman,serif" font-size="14.00">Eastern Europe</text>
</a>
</g>
</g>
<!-- Russia&#45;&gt;Eastern Europe -->
<g id="edge1" class="edge">
<title>Russia&#45;&gt;Eastern Europe</title>
<path fill="none" stroke="black" d="M66.29,-1105.7C66.29,-1097.98 66.29,-1088.71 66.29,-1080.11"/>
<polygon fill="black" stroke="black" points="69.79,-1080.1 66.29,-1070.1 62.79,-1080.1 69.79,-1080.1"/>
</g>
<!-- Europe -->
<g id="node3" class="node">
<title>Europe</title>
<g id="a_node3"><a xlink:href="https://en.wikipedia.org/wiki/Europe" xlink:title="Europe">
<ellipse fill="lightskyblue" stroke="lightskyblue" cx="68.29" cy="-980" rx="37.09" ry="18"/>
<text text-anchor="middle" x="68.29" y="-976.3" font-family="Times New Roman,serif" font-size="14.00">Europe</text>
</a>
</g>
</g>
<!-- Eastern Europe&#45;&gt;Europe -->
<g id="edge2" class="edge">
<title>Eastern Europe&#45;&gt;Europe</title>
<path fill="none" stroke="black" d="M66.79,-1033.7C67.01,-1025.98 67.27,-1016.71 67.52,-1008.11"/>
<polygon fill="black" stroke="black" points="71.02,-1008.2 67.81,-998.1 64.02,-1008 71.02,-1008.2"/>
</g>
<!-- Continent -->
<g id="node4" class="node">
<title>Continent</title>
<g id="a_node4"><a xlink:href="https://en.wikipedia.org/wiki/Continent" xlink:title="Continent">
<ellipse fill="lightskyblue" stroke="lightskyblue" cx="73.29" cy="-908" rx="46.29" ry="18"/>
<text text-anchor="middle" x="73.29" y="-904.3" font-family="Times New Roman,serif" font-size="14.00">Continent</text>
</a>
</g>
</g>
<!-- Europe&#45;&gt;Continent -->
<g id="edge3" class="edge">
<title>Europe&#45;&gt;Continent</title>
<path fill="none" stroke="black" d="M69.53,-961.7C70.08,-953.98 70.74,-944.71 71.36,-936.11"/>
<polygon fill="black" stroke="black" points="74.85,-936.33 72.07,-926.1 67.87,-935.83 74.85,-936.33"/>
</g>
<!-- Landmass -->
<g id="node5" class="node">
<title>Landmass</title>
<g id="a_node5"><a xlink:href="https://en.wikipedia.org/wiki/Landmass" xlink:title="Landmass">
<ellipse fill="lightskyblue" stroke="lightskyblue" cx="90.29" cy="-836" rx="48.19" ry="18"/>
<text text-anchor="middle" x="90.29" y="-832.3" font-family="Times New Roman,serif" font-size="14.00">Landmass</text>
</a>
</g>
</g>
<!-- Continent&#45;&gt;Landmass -->
<g id="edge4" class="edge">
<title>Continent&#45;&gt;Landmass</title>
<path fill="none" stroke="black" d="M77.41,-890.05C79.3,-882.26 81.59,-872.82 83.72,-864.08"/>
<polygon fill="black" stroke="black" points="87.14,-864.82 86.1,-854.28 80.34,-863.17 87.14,-864.82"/>
</g>
<!-- Region -->
<g id="node6" class="node">
<title>Region</title>
<g id="a_node6"><a xlink:href="https://en.wikipedia.org/wiki/Region" xlink:title="Region">
<ellipse fill="lightskyblue" stroke="lightskyblue" cx="95.29" cy="-764" rx="36.29" ry="18"/>
<text text-anchor="middle" x="95.29" y="-760.3" font-family="Times New Roman,serif" font-size="14.00">Region</text>
</a>
</g>
</g>
<!-- Landmass&#45;&gt;Region -->
<g id="edge5" class="edge">
<title>Landmass&#45;&gt;Region</title>
<path fill="none" stroke="black" d="M91.53,-817.7C92.08,-809.98 92.74,-800.71 93.36,-792.11"/>
<polygon fill="black" stroke="black" points="96.85,-792.33 94.07,-782.1 89.87,-791.83 96.85,-792.33"/>
</g>
<!-- Geography -->
<g id="node7" class="node">
<title>Geography</title>
<g id="a_node7"><a xlink:href="https://en.wikipedia.org/wiki/Geography" xlink:title="Geography">
<ellipse fill="lightskyblue" stroke="lightskyblue" cx="105.29" cy="-692" rx="51.19" ry="18"/>
<text text-anchor="middle" x="105.29" y="-688.3" font-family="Times New Roman,serif" font-size="14.00">Geography</text>
</a>
</g>
</g>
<!-- Region&#45;&gt;Geography -->
<g id="edge6" class="edge">
<title>Region&#45;&gt;Geography</title>
<path fill="none" stroke="black" d="M97.77,-745.7C98.87,-737.98 100.19,-728.71 101.42,-720.11"/>
<polygon fill="black" stroke="black" points="104.9,-720.5 102.85,-710.1 97.97,-719.51 104.9,-720.5"/>
</g>
<!-- Science -->
<g id="node8" class="node">
<title>Science</title>
<g id="a_node8"><a xlink:href="https://en.wikipedia.org/wiki/Science" xlink:title="Science">
<ellipse fill="lightskyblue" stroke="lightskyblue" cx="264.29" cy="-620" rx="38.99" ry="18"/>
<text text-anchor="middle" x="264.29" y="-616.3" font-family="Times New Roman,serif" font-size="14.00">Science</text>
</a>
</g>
</g>
<!-- Geography&#45;&gt;Science -->
<g id="edge7" class="edge">
<title>Geography&#45;&gt;Science</title>
<path fill="none" stroke="black" d="M135.95,-677.5C162.19,-665.95 200.01,-649.3 227.8,-637.07"/>
<polygon fill="black" stroke="black" points="229.43,-640.17 237.18,-632.94 226.61,-633.77 229.43,-640.17"/>
</g>
<!-- Scientific method -->
<g id="node9" class="node">
<title>Scientific method</title>
<g id="a_node9"><a xlink:href="https://en.wikipedia.org/wiki/Scientific_method" xlink:title="Scientific method">
<ellipse fill="lightskyblue" stroke="lightskyblue" cx="264.29" cy="-548" rx="74.19" ry="18"/>
<text text-anchor="middle" x="264.29" y="-544.3" font-family="Times New Roman,serif" font-size="14.00">Scientific method</text>
</a>
</g>
</g>
<!-- Science&#45;&gt;Scientific method -->
<g id="edge8" class="edge">
<title>Science&#45;&gt;Scientific method</title>
<path fill="none" stroke="black" d="M264.29,-601.7C264.29,-593.98 264.29,-584.71 264.29,-576.11"/>
<polygon fill="black" stroke="black" points="267.79,-576.1 264.29,-566.1 260.79,-576.1 267.79,-576.1"/>
</g>
<!-- Empirical evidence -->
<g id="node10" class="node">
<title>Empirical evidence</title>
<g id="a_node10"><a xlink:href="https://en.wikipedia.org/wiki/Empirical_evidence" xlink:title="Empirical evidence">
<ellipse fill="lightskyblue" stroke="lightskyblue" cx="318.29" cy="-476" rx="79.09" ry="18"/>
<text text-anchor="middle" x="318.29" y="-472.3" font-family="Times New Roman,serif" font-size="14.00">Empirical evidence</text>
</a>
</g>
</g>
<!-- Scientific method&#45;&gt;Empirical evidence -->
<g id="edge9" class="edge">
<title>Scientific method&#45;&gt;Empirical evidence</title>
<path fill="none" stroke="black" d="M277.37,-530.05C283.87,-521.63 291.85,-511.28 299.03,-501.97"/>
<polygon fill="black" stroke="black" points="302.01,-503.84 305.34,-493.79 296.46,-499.57 302.01,-503.84"/>
</g>
<!-- Information -->
<g id="node11" class="node">
<title>Information</title>
<g id="a_node11"><a xlink:href="https://en.wikipedia.org/wiki/Information" xlink:title="Information">
<ellipse fill="lightskyblue" stroke="lightskyblue" cx="325.29" cy="-404" rx="53.09" ry="18"/>
<text text-anchor="middle" x="325.29" y="-400.3" font-family="Times New Roman,serif" font-size="14.00">Information</text>
</a>
</g>
</g>
<!-- Empirical evidence&#45;&gt;Information -->
<g id="edge10" class="edge">
<title>Empirical evidence&#45;&gt;Information</title>
<path fill="none" stroke="black" d="M320.02,-457.7C320.8,-449.98 321.72,-440.71 322.58,-432.11"/>
<polygon fill="black" stroke="black" points="326.07,-432.4 323.58,-422.1 319.11,-431.71 326.07,-432.4"/>
</g>
<!-- Uncertainty -->
<g id="node12" class="node">
<title>Uncertainty</title>
<g id="a_node12"><a xlink:href="https://en.wikipedia.org/wiki/Uncertainty" xlink:title="Uncertainty">
<ellipse fill="lightskyblue" stroke="lightskyblue" cx="332.29" cy="-332" rx="51.99" ry="18"/>
<text text-anchor="middle" x="332.29" y="-328.3" font-family="Times New Roman,serif" font-size="14.00">Uncertainty</text>
</a>
</g>
</g>
<!-- Information&#45;&gt;Uncertainty -->
<g id="edge11" class="edge">
<title>Information&#45;&gt;Uncertainty</title>
<path fill="none" stroke="black" d="M327.02,-385.7C327.8,-377.98 328.72,-368.71 329.58,-360.11"/>
<polygon fill="black" stroke="black" points="333.07,-360.4 330.58,-350.1 326.11,-359.71 333.07,-360.4"/>
</g>
<!-- Epistemology -->
<g id="node13" class="node">
<title>Epistemology</title>
<g id="a_node13"><a xlink:href="https://en.wikipedia.org/wiki/Epistemology" xlink:title="Epistemology">
<ellipse fill="lightskyblue" stroke="lightskyblue" cx="336.29" cy="-260" rx="60.39" ry="18"/>
<text text-anchor="middle" x="336.29" y="-256.3" font-family="Times New Roman,serif" font-size="14.00">Epistemology</text>
</a>
</g>
</g>
<!-- Uncertainty&#45;&gt;Epistemology -->
<g id="edge12" class="edge">
<title>Uncertainty&#45;&gt;Epistemology</title>
<path fill="none" stroke="black" d="M333.28,-313.7C333.72,-305.98 334.25,-296.71 334.74,-288.11"/>
<polygon fill="black" stroke="black" points="338.24,-288.29 335.32,-278.1 331.25,-287.89 338.24,-288.29"/>
</g>
<!-- Outline of philosophy -->
<g id="node14" class="node">
<title>Outline of philosophy</title>
<g id="a_node14"><a xlink:href="https://en.wikipedia.org/wiki/Outline_of_philosophy" xlink:title="Outline of philosophy">
<ellipse fill="lightskyblue" stroke="lightskyblue" cx="338.29" cy="-188" rx="89.88" ry="18"/>
<text text-anchor="middle" x="338.29" y="-184.3" font-family="Times New Roman,serif" font-size="14.00">Outline of philosophy</text>
</a>
</g>
</g>
<!-- Epistemology&#45;&gt;Outline of philosophy -->
<g id="edge13" class="edge">
<title>Epistemology&#45;&gt;Outline of philosophy</title>
<path fill="none" stroke="black" d="M336.79,-241.7C337.01,-233.98 337.27,-224.71 337.52,-216.11"/>
<polygon fill="black" stroke="black" points="341.02,-216.2 337.81,-206.1 334.02,-216 341.02,-216.2"/>
</g>
<!-- Philosophy -->
<g id="node15" class="node">
<title>Philosophy</title>
<g id="a_node15"><a xlink:href="https://en.wikipedia.org/wiki/Philosophy" xlink:title="Philosophy">
<ellipse fill="lightskyblue" stroke="lightskyblue" cx="405.29" cy="-116" rx="51.99" ry="18"/>
<text text-anchor="middle" x="405.29" y="-112.3" font-family="Times New Roman,serif" font-size="14.00">Philosophy</text>
</a>
</g>
</g>
<!-- Outline of philosophy&#45;&gt;Philosophy -->
<g id="edge14" class="edge">
<title>Outline of philosophy&#45;&gt;Philosophy</title>
<path fill="none" stroke="black" d="M354.51,-170.05C362.95,-161.24 373.39,-150.33 382.62,-140.69"/>
<polygon fill="black" stroke="black" points="385.3,-142.95 389.69,-133.31 380.24,-138.11 385.3,-142.95"/>
</g>
<!-- Space -->
<g id="node16" class="node">
<title>Space</title>
<g id="a_node16"><a xlink:href="https://en.wikipedia.org/wiki/Space" xlink:title="Space">
<ellipse fill="#b0e2ff" stroke="#b0e2ff" cx="213.29" cy="-1124" rx="33.29" ry="18"/>
<text text-anchor="middle" x="213.29" y="-1120.3" font-family="Times New Roman,serif" font-size="14.00">Space</text>
</a>
</g>
</g>
<!-- Physical body -->
<g id="node17" class="node">
<title>Physical body</title>
<g id="a_node17"><a xlink:href="https://en.wikipedia.org/wiki/Physical_body" xlink:title="Physical body">
<ellipse fill="lightskyblue" stroke="lightskyblue" cx="213.29" cy="-1052" rx="62.29" ry="18"/>
<text text-anchor="middle" x="213.29" y="-1048.3" font-family="Times New Roman,serif" font-size="14.00">Physical body</text>
</a>
</g>
</g>
<!-- Space&#45;&gt;Physical body -->
<g id="edge15" class="edge">
<title>Space&#45;&gt;Physical body</title>
<path fill="none" stroke="black" d="M213.29,-1105.7C213.29,-1097.98 213.29,-1088.71 213.29,-1080.11"/>
<polygon fill="black" stroke="black" points="216.79,-1080.1 213.29,-1070.1 209.79,-1080.1 216.79,-1080.1"/>
</g>
<!-- Classical mechanics -->
<g id="node18" class="node">
<title>Classical mechanics</title>
<g id="a_node18"><a xlink:href="https://en.wikipedia.org/wiki/Classical_mechanics" xlink:title="Classical mechanics">
<ellipse fill="lightskyblue" stroke="lightskyblue" cx="210.29" cy="-980" rx="83.39" ry="18"/>
<text text-anchor="middle" x="210.29" y="-976.3" font-family="Times New Roman,serif" font-size="14.00">Classical mechanics</text>
</a>
</g>
</g>
<!-- Physical body&#45;&gt;Classical mechanics -->
<g id="edge16" class="edge">
<title>Physical body&#45;&gt;Classical mechanics</title>
<path fill="none" stroke="black" d="M212.55,-1033.7C212.22,-1025.98 211.82,-1016.71 211.46,-1008.11"/>
<polygon fill="black" stroke="black" points="214.95,-1007.95 211.03,-998.1 207.96,-1008.25 214.95,-1007.95"/>
</g>
<!-- Physical theory -->
<g id="node19" class="node">
<title>Physical theory</title>
<g id="a_node19"><a xlink:href="https://en.wikipedia.org/wiki/Physical_theory" xlink:title="Physical theory">
<ellipse fill="lightskyblue" stroke="lightskyblue" cx="207.29" cy="-908" rx="66.09" ry="18"/>
<text text-anchor="middle" x="207.29" y="-904.3" font-family="Times New Roman,serif" font-size="14.00">Physical theory</text>
</a>
</g>
</g>
<!-- Classical mechanics&#45;&gt;Physical theory -->
<g id="edge17" class="edge">
<title>Classical mechanics&#45;&gt;Physical theory</title>
<path fill="none" stroke="black" d="M209.55,-961.7C209.22,-953.98 208.82,-944.71 208.46,-936.11"/>
<polygon fill="black" stroke="black" points="211.95,-935.95 208.03,-926.1 204.96,-936.25 211.95,-935.95"/>
</g>
<!-- Physics -->
<g id="node20" class="node">
<title>Physics</title>
<g id="a_node20"><a xlink:href="https://en.wikipedia.org/wiki/Physics" xlink:title="Physics">
<ellipse fill="lightskyblue" stroke="lightskyblue" cx="221.29" cy="-836" rx="38.99" ry="18"/>
<text text-anchor="middle" x="221.29" y="-832.3" font-family="Times New Roman,serif" font-size="14.00">Physics</text>
</a>
</g>
</g>
<!-- Physical theory&#45;&gt;Physics -->
<g id="edge18" class="edge">
<title>Physical theory&#45;&gt;Physics</title>
<path fill="none" stroke="black" d="M210.75,-889.7C212.3,-881.98 214.15,-872.71 215.87,-864.11"/>
<polygon fill="black" stroke="black" points="219.34,-864.6 217.87,-854.1 212.48,-863.22 219.34,-864.6"/>
</g>
<!-- Natural science -->
<g id="node21" class="node">
<title>Natural science</title>
<g id="a_node21"><a xlink:href="https://en.wikipedia.org/wiki/Natural_science" xlink:title="Natural science">
<ellipse fill="lightskyblue" stroke="lightskyblue" cx="264.29" cy="-764" rx="65.79" ry="18"/>
<text text-anchor="middle" x="264.29" y="-760.3" font-family="Times New Roman,serif" font-size="14.00">Natural science</text>
</a>
</g>
</g>
<!-- Physics&#45;&gt;Natural science -->
<g id="edge19" class="edge">
<title>Physics&#45;&gt;Natural science</title>
<path fill="none" stroke="black" d="M231.48,-818.41C236.6,-810.08 242.92,-799.8 248.64,-790.49"/>
<polygon fill="black" stroke="black" points="251.63,-792.31 253.88,-781.96 245.66,-788.65 251.63,-792.31"/>
</g>
<!-- Branches of science -->
<g id="node22" class="node">
<title>Branches of science</title>
<g id="a_node22"><a xlink:href="https://en.wikipedia.org/wiki/Branches_of_science" xlink:title="Branches of science">
<ellipse fill="lightskyblue" stroke="lightskyblue" cx="264.29" cy="-692" rx="83.69" ry="18"/>
<text text-anchor="middle" x="264.29" y="-688.3" font-family="Times New Roman,serif" font-size="14.00">Branches of science</text>
</a>
</g>
</g>
<!-- Natural science&#45;&gt;Branches of science -->
<g id="edge20" class="edge">
<title>Natural science&#45;&gt;Branches of science</title>
<path fill="none" stroke="black" d="M264.29,-745.7C264.29,-737.98 264.29,-728.71 264.29,-720.11"/>
<polygon fill="black" stroke="black" points="267.79,-720.1 264.29,-710.1 260.79,-720.1 267.79,-720.1"/>
</g>
<!-- Branches of science&#45;&gt;Science -->
<g id="edge21" class="edge">
<title>Branches of science&#45;&gt;Science</title>
<path fill="none" stroke="black" d="M264.29,-673.7C264.29,-665.98 264.29,-656.71 264.29,-648.11"/>
<polygon fill="black" stroke="black" points="267.79,-648.1 264.29,-638.1 260.79,-648.1 267.79,-648.1"/>
</g>
<!-- Coronavirus -->
<g id="node23" class="node">
<title>Coronavirus</title>
<g id="a_node23"><a xlink:href="https://en.wikipedia.org/wiki/Coronavirus" xlink:title="Coronavirus">
<ellipse fill="#b0e2ff" stroke="#b0e2ff" cx="360.29" cy="-1124" rx="55.79" ry="18"/>
<text text-anchor="middle" x="360.29" y="-1120.3" font-family="Times New Roman,serif" font-size="14.00">Coronavirus</text>
</a>
</g>
</g>
<!-- Orthornavirae -->
<g id="node24" class="node">
<title>Orthornavirae</title>
<g id="a_node24"><a xlink:href="https://en.wikipedia.org/wiki/Orthornavirae" xlink:title="Orthornavirae">
<ellipse fill="lightskyblue" stroke="lightskyblue" cx="360.29" cy="-1052" rx="60.39" ry="18"/>
<text text-anchor="middle" x="360.29" y="-1048.3" font-family="Times New Roman,serif" font-size="14.00">Orthornavirae</text>
</a>
</g>
</g>
<!-- Coronavirus&#45;&gt;Orthornavirae -->
<g id="edge22" class="edge">
<title>Coronavirus&#45;&gt;Orthornavirae</title>
<path fill="none" stroke="black" d="M360.29,-1105.7C360.29,-1097.98 360.29,-1088.71 360.29,-1080.11"/>
<polygon fill="black" stroke="black" points="363.79,-1080.1 360.29,-1070.1 356.79,-1080.1 363.79,-1080.1"/>
</g>
<!-- Virus -->
<g id="node25" class="node">
<title>Virus</title>
<g id="a_node25"><a xlink:href="https://en.wikipedia.org/wiki/Virus" xlink:title="Virus">
<ellipse fill="lightskyblue" stroke="lightskyblue" cx="360.29" cy="-980" rx="30.59" ry="18"/>
<text text-anchor="middle" x="360.29" y="-976.3" font-family="Times New Roman,serif" font-size="14.00">Virus</text>
</a>
</g>
</g>
<!-- Orthornavirae&#45;&gt;Virus -->
<g id="edge23" class="edge">
<title>Orthornavirae&#45;&gt;Virus</title>
<path fill="none" stroke="black" d="M360.29,-1033.7C360.29,-1025.98 360.29,-1016.71 360.29,-1008.11"/>
<polygon fill="black" stroke="black" points="363.79,-1008.1 360.29,-998.1 356.79,-1008.1 363.79,-1008.1"/>
</g>
<!-- Infectious agent -->
<g id="node26" class="node">
<title>Infectious agent</title>
<g id="a_node26"><a xlink:href="https://en.wikipedia.org/wiki/Infectious_agent" xlink:title="Infectious agent">
<ellipse fill="lightskyblue" stroke="lightskyblue" cx="360.29" cy="-908" rx="68.49" ry="18"/>
<text text-anchor="middle" x="360.29" y="-904.3" font-family="Times New Roman,serif" font-size="14.00">Infectious agent</text>
</a>
</g>
</g>
<!-- Virus&#45;&gt;Infectious agent -->
<g id="edge24" class="edge">
<title>Virus&#45;&gt;Infectious agent</title>
<path fill="none" stroke="black" d="M360.29,-961.7C360.29,-953.98 360.29,-944.71 360.29,-936.11"/>
<polygon fill="black" stroke="black" points="363.79,-936.1 360.29,-926.1 356.79,-936.1 363.79,-936.1"/>
</g>
<!-- Biology -->
<g id="node27" class="node">
<title>Biology</title>
<g id="a_node27"><a xlink:href="https://en.wikipedia.org/wiki/Biology" xlink:title="Biology">
<ellipse fill="lightskyblue" stroke="lightskyblue" cx="326.29" cy="-836" rx="38.99" ry="18"/>
<text text-anchor="middle" x="326.29" y="-832.3" font-family="Times New Roman,serif" font-size="14.00">Biology</text>
</a>
</g>
</g>
<!-- Infectious agent&#45;&gt;Biology -->
<g id="edge25" class="edge">
<title>Infectious agent&#45;&gt;Biology</title>
<path fill="none" stroke="black" d="M352.06,-890.05C348.1,-881.89 343.25,-871.91 338.84,-862.82"/>
<polygon fill="black" stroke="black" points="341.97,-861.25 334.45,-853.79 335.67,-864.31 341.97,-861.25"/>
</g>
<!-- Biology&#45;&gt;Natural science -->
<g id="edge26" class="edge">
<title>Biology&#45;&gt;Natural science</title>
<path fill="none" stroke="black" d="M312.23,-819.12C304.44,-810.33 294.61,-799.23 285.88,-789.37"/>
<polygon fill="black" stroke="black" points="288.42,-786.96 279.17,-781.8 283.18,-791.6 288.42,-786.96"/>
</g>
<!-- Real Madrid CF -->
<g id="node28" class="node">
<title>Real Madrid CF</title>
<g id="a_node28"><a xlink:href="https://en.wikipedia.org/wiki/Real_Madrid_CF" xlink:title="Real Madrid CF">
<ellipse fill="#b0e2ff" stroke="#b0e2ff" cx="440.29" cy="-620" rx="69.59" ry="18"/>
<text text-anchor="middle" x="440.29" y="-616.3" font-family="Times New Roman,serif" font-size="14.00">Real Madrid CF</text>
</a>
</g>
</g>
<!-- Association football -->
<g id="node29" class="node">
<title>Association football</title>
<g id="a_node29"><a xlink:href="https://en.wikipedia.org/wiki/Association_football" xlink:title="Association football">
<ellipse fill="lightskyblue" stroke="lightskyblue" cx="440.29" cy="-548" rx="83.69" ry="18"/>
<text text-anchor="middle" x="440.29" y="-544.3" font-family="Times New Roman,serif" font-size="14.00">Association football</text>
</a>
</g>
</g>
<!-- Real Madrid CF&#45;&gt;Association football -->
<g id="edge27" class="edge">
<title>Real Madrid CF&#45;&gt;Association football</title>
<path fill="none" stroke="black" d="M440.29,-601.7C440.29,-593.98 440.29,-584.71 440.29,-576.11"/>
<polygon fill="black" stroke="black" points="443.79,-576.1 440.29,-566.1 436.79,-576.1 443.79,-576.1"/>
</g>
<!-- Team sport -->
<g id="node30" class="node">
<title>Team sport</title>
<g id="a_node30"><a xlink:href="https://en.wikipedia.org/wiki/Team_sport" xlink:title="Team sport">
<ellipse fill="lightskyblue" stroke="lightskyblue" cx="481.29" cy="-476" rx="52.79" ry="18"/>
<text text-anchor="middle" x="481.29" y="-472.3" font-family="Times New Roman,serif" font-size="14.00">Team sport</text>
</a>
</g>
</g>
<!-- Association football&#45;&gt;Team sport -->
<g id="edge28" class="edge">
<title>Association football&#45;&gt;Team sport</title>
<path fill="none" stroke="black" d="M450.22,-530.05C455.05,-521.8 460.97,-511.7 466.34,-502.54"/>
<polygon fill="black" stroke="black" points="469.43,-504.19 471.46,-493.79 463.39,-500.65 469.43,-504.19"/>
</g>
<!-- Sport -->
<g id="node31" class="node">
<title>Sport</title>
<g id="a_node31"><a xlink:href="https://en.wikipedia.org/wiki/Sport" xlink:title="Sport">
<ellipse fill="lightskyblue" stroke="lightskyblue" cx="481.29" cy="-404" rx="31.4" ry="18"/>
<text text-anchor="middle" x="481.29" y="-400.3" font-family="Times New Roman,serif" font-size="14.00">Sport</text>
</a>
</g>
</g>
<!-- Team sport&#45;&gt;Sport -->
<g id="edge29" class="edge">
<title>Team sport&#45;&gt;Sport</title>
<path fill="none" stroke="black" d="M481.29,-457.7C481.29,-449.98 481.29,-440.71 481.29,-432.11"/>
<polygon fill="black" stroke="black" points="484.79,-432.1 481.29,-422.1 477.79,-432.1 484.79,-432.1"/>
</g>
<!-- Competition -->
<g id="node32" class="node">
<title>Competition</title>
<g id="a_node32"><a xlink:href="https://en.wikipedia.org/wiki/Competition" xlink:title="Competition">
<ellipse fill="lightskyblue" stroke="lightskyblue" cx="481.29" cy="-332" rx="55.79" ry="18"/>
<text text-anchor="middle" x="481.29" y="-328.3" font-family="Times New Roman,serif" font-size="14.00">Competition</text>
</a>
</g>
</g>
<!-- Sport&#45;&gt;Competition -->
<g id="edge30" class="edge">
<title>Sport&#45;&gt;Competition</title>
<path fill="none" stroke="black" d="M481.29,-385.7C481.29,-377.98 481.29,-368.71 481.29,-360.11"/>
<polygon fill="black" stroke="black" points="484.79,-360.1 481.29,-350.1 477.79,-360.1 484.79,-360.1"/>
</g>
<!-- Goal -->
<g id="node33" class="node">
<title>Goal</title>
<g id="a_node33"><a xlink:href="https://en.wikipedia.org/wiki/Goal" xlink:title="Goal">
<ellipse fill="lightskyblue" stroke="lightskyblue" cx="481.29" cy="-260" rx="28.7" ry="18"/>
<text text-anchor="middle" x="481.29" y="-256.3" font-family="Times New Roman,serif" font-size="14.00">Goal</text>
</a>
</g>
</g>
<!-- Competition&#45;&gt;Goal -->
<g id="edge31" class="edge">
<title>Competition&#45;&gt;Goal</title>
<path fill="none" stroke="black" d="M481.29,-313.7C481.29,-305.98 481.29,-296.71 481.29,-288.11"/>
<polygon fill="black" stroke="black" points="484.79,-288.1 481.29,-278.1 477.79,-288.1 484.79,-288.1"/>
</g>
<!-- Idea -->
<g id="node34" class="node">
<title>Idea</title>
<g id="a_node34"><a xlink:href="https://en.wikipedia.org/wiki/Idea" xlink:title="Idea">
<ellipse fill="lightskyblue" stroke="lightskyblue" cx="474.29" cy="-188" rx="27" ry="18"/>
<text text-anchor="middle" x="474.29" y="-184.3" font-family="Times New Roman,serif" font-size="14.00">Idea</text>
</a>
</g>
</g>
<!-- Goal&#45;&gt;Idea -->
<g id="edge32" class="edge">
<title>Goal&#45;&gt;Idea</title>
<path fill="none" stroke="black" d="M479.56,-241.7C478.79,-233.98 477.87,-224.71 477.01,-216.11"/>
<polygon fill="black" stroke="black" points="480.48,-215.71 476,-206.1 473.52,-216.4 480.48,-215.71"/>
</g>
<!-- Idea&#45;&gt;Philosophy -->
<g id="edge33" class="edge">
<title>Idea&#45;&gt;Philosophy</title>
<path fill="none" stroke="black" d="M460,-172.5C450.91,-163.28 438.94,-151.14 428.52,-140.56"/>
<polygon fill="black" stroke="black" points="430.77,-137.86 421.26,-133.2 425.79,-142.78 430.77,-137.86"/>
</g>
<!-- Art -->
<g id="node35" class="node">
<title>Art</title>
<g id="a_node35"><a xlink:href="https://en.wikipedia.org/wiki/Art" xlink:title="Art">
<ellipse fill="#b0e2ff" stroke="#b0e2ff" cx="473.29" cy="-908" rx="27" ry="18"/>
<text text-anchor="middle" x="473.29" y="-904.3" font-family="Times New Roman,serif" font-size="14.00">Art</text>
</a>
</g>
</g>
<!-- Human behavior -->
<g id="node36" class="node">
<title>Human behavior</title>
<g id="a_node36"><a xlink:href="https://en.wikipedia.org/wiki/Human_behavior" xlink:title="Human behavior">
<ellipse fill="lightskyblue" stroke="lightskyblue" cx="458.29" cy="-836" rx="70.39" ry="18"/>
<text text-anchor="middle" x="458.29" y="-832.3" font-family="Times New Roman,serif" font-size="14.00">Human behavior</text>
</a>
</g>
</g>
<!-- Art&#45;&gt;Human behavior -->
<g id="edge34" class="edge">
<title>Art&#45;&gt;Human behavior</title>
<path fill="none" stroke="black" d="M469.66,-890.05C467.99,-882.26 465.97,-872.82 464.1,-864.08"/>
<polygon fill="black" stroke="black" points="467.51,-863.32 462,-854.28 460.67,-864.79 467.51,-863.32"/>
</g>
<!-- Energy (psychological) -->
<g id="node37" class="node">
<title>Energy (psychological)</title>
<g id="a_node37"><a xlink:href="https://en.wikipedia.org/wiki/Energy_(psychological)" xlink:title="Energy (psychological)">
<ellipse fill="lightskyblue" stroke="lightskyblue" cx="455.29" cy="-764" rx="94.78" ry="18"/>
<text text-anchor="middle" x="455.29" y="-760.3" font-family="Times New Roman,serif" font-size="14.00">Energy (psychological)</text>
</a>
</g>
</g>
<!-- Human behavior&#45;&gt;Energy (psychological) -->
<g id="edge35" class="edge">
<title>Human behavior&#45;&gt;Energy (psychological)</title>
<path fill="none" stroke="black" d="M457.55,-817.7C457.22,-809.98 456.82,-800.71 456.46,-792.11"/>
<polygon fill="black" stroke="black" points="459.95,-791.95 456.03,-782.1 452.96,-792.25 459.95,-791.95"/>
</g>
<!-- Psychology -->
<g id="node38" class="node">
<title>Psychology</title>
<g id="a_node38"><a xlink:href="https://en.wikipedia.org/wiki/Psychology" xlink:title="Psychology">
<ellipse fill="lightskyblue" stroke="lightskyblue" cx="438.29" cy="-692" rx="53.89" ry="18"/>
<text text-anchor="middle" x="438.29" y="-688.3" font-family="Times New Roman,serif" font-size="14.00">Psychology</text>
</a>
</g>
</g>
<!-- Energy (psychological)&#45;&gt;Psychology -->
<g id="edge36" class="edge">
<title>Energy (psychological)&#45;&gt;Psychology</title>
<path fill="none" stroke="black" d="M451.09,-745.7C449.2,-737.9 446.92,-728.51 444.81,-719.83"/>
<polygon fill="black" stroke="black" points="448.21,-719 442.45,-710.1 441.41,-720.65 448.21,-719"/>
</g>
<!-- Psychology&#45;&gt;Science -->
<g id="edge37" class="edge">
<title>Psychology&#45;&gt;Science</title>
<path fill="none" stroke="black" d="M405.16,-677.67C375.8,-665.86 332.94,-648.62 302.22,-636.26"/>
<polygon fill="black" stroke="black" points="303.29,-632.91 292.7,-632.43 300.67,-639.41 303.29,-632.91"/>
</g>
<!-- LeBron James -->
<g id="node39" class="node">
<title>LeBron James</title>
<g id="a_node39"><a xlink:href="https://en.wikipedia.org/wiki/LeBron_James" xlink:title="LeBron James">
<ellipse fill="#b0e2ff" stroke="#b0e2ff" cx="590.29" cy="-620" rx="62.29" ry="18"/>
<text text-anchor="middle" x="590.29" y="-616.3" font-family="Times New Roman,serif" font-size="14.00">LeBron James</text>
</a>
</g>
</g>
<!-- Basketball -->
<g id="node40" class="node">
<title>Basketball</title>
<g id="a_node40"><a xlink:href="https://en.wikipedia.org/wiki/Basketball" xlink:title="Basketball">
<ellipse fill="lightskyblue" stroke="lightskyblue" cx="590.29" cy="-548" rx="48.19" ry="18"/>
<text text-anchor="middle" x="590.29" y="-544.3" font-family="Times New Roman,serif" font-size="14.00">Basketball</text>
</a>
</g>
</g>
<!-- LeBron James&#45;&gt;Basketball -->
<g id="edge38" class="edge">
<title>LeBron James&#45;&gt;Basketball</title>
<path fill="none" stroke="black" d="M590.29,-601.7C590.29,-593.98 590.29,-584.71 590.29,-576.11"/>
<polygon fill="black" stroke="black" points="593.79,-576.1 590.29,-566.1 586.79,-576.1 593.79,-576.1"/>
</g>
<!-- Basketball&#45;&gt;Team sport -->
<g id="edge39" class="edge">
<title>Basketball&#45;&gt;Team sport</title>
<path fill="none" stroke="black" d="M567.18,-532.15C551.64,-522.18 530.94,-508.88 513.75,-497.84"/>
<polygon fill="black" stroke="black" points="515.44,-494.77 505.13,-492.31 511.65,-500.66 515.44,-494.77"/>
</g>
<!-- Formula One -->
<g id="node41" class="node">
<title>Formula One</title>
<g id="a_node41"><a xlink:href="https://en.wikipedia.org/wiki/Formula_One" xlink:title="Formula One">
<ellipse fill="#b0e2ff" stroke="#b0e2ff" cx="729.29" cy="-620" rx="58.49" ry="18"/>
<text text-anchor="middle" x="729.29" y="-616.3" font-family="Times New Roman,serif" font-size="14.00">Formula One</text>
</a>
</g>
</g>
<!-- Auto racing -->
<g id="node42" class="node">
<title>Auto racing</title>
<g id="a_node42"><a xlink:href="https://en.wikipedia.org/wiki/Auto_racing" xlink:title="Auto racing">
<ellipse fill="lightskyblue" stroke="lightskyblue" cx="719.29" cy="-548" rx="53.09" ry="18"/>
<text text-anchor="middle" x="719.29" y="-544.3" font-family="Times New Roman,serif" font-size="14.00">Auto racing</text>
</a>
</g>
</g>
<!-- Formula One&#45;&gt;Auto racing -->
<g id="edge40" class="edge">
<title>Formula One&#45;&gt;Auto racing</title>
<path fill="none" stroke="black" d="M726.82,-601.7C725.72,-593.98 724.4,-584.71 723.17,-576.11"/>
<polygon fill="black" stroke="black" points="726.62,-575.51 721.74,-566.1 719.69,-576.5 726.62,-575.51"/>
</g>
<!-- Motorsport -->
<g id="node43" class="node">
<title>Motorsport</title>
<g id="a_node43"><a xlink:href="https://en.wikipedia.org/wiki/Motorsport" xlink:title="Motorsport">
<ellipse fill="lightskyblue" stroke="lightskyblue" cx="687.29" cy="-476" rx="52.79" ry="18"/>
<text text-anchor="middle" x="687.29" y="-472.3" font-family="Times New Roman,serif" font-size="14.00">Motorsport</text>
</a>
</g>
</g>
<!-- Auto racing&#45;&gt;Motorsport -->
<g id="edge41" class="edge">
<title>Auto racing&#45;&gt;Motorsport</title>
<path fill="none" stroke="black" d="M711.55,-530.05C707.91,-522.09 703.48,-512.41 699.41,-503.51"/>
<polygon fill="black" stroke="black" points="702.53,-501.91 695.19,-494.28 696.17,-504.83 702.53,-501.91"/>
</g>
<!-- Sports -->
<g id="node44" class="node">
<title>Sports</title>
<g id="a_node44"><a xlink:href="https://en.wikipedia.org/wiki/Sports" xlink:title="Sports">
<ellipse fill="lightskyblue" stroke="lightskyblue" cx="584.29" cy="-404" rx="35.19" ry="18"/>
<text text-anchor="middle" x="584.29" y="-400.3" font-family="Times New Roman,serif" font-size="14.00">Sports</text>
</a>
</g>
</g>
<!-- Motorsport&#45;&gt;Sports -->
<g id="edge42" class="edge">
<title>Motorsport&#45;&gt;Sports</title>
<path fill="none" stroke="black" d="M664.69,-459.64C649.6,-449.38 629.62,-435.8 613.35,-424.75"/>
<polygon fill="black" stroke="black" points="614.99,-421.63 604.75,-418.9 611.05,-427.42 614.99,-421.63"/>
</g>
<!-- Sports&#45;&gt;Competition -->
<g id="edge43" class="edge">
<title>Sports&#45;&gt;Competition</title>
<path fill="none" stroke="black" d="M563.94,-389.17C549.27,-379.19 529.18,-365.54 512.49,-354.2"/>
<polygon fill="black" stroke="black" points="514.35,-351.23 504.11,-348.51 510.41,-357.02 514.35,-351.23"/>
</g>
</g>
</svg>
