<?xml version="1.0" encoding="UTF-8" standalone="no"?>
<!DOCTYPE svg PUBLIC "-//W3C//DTD SVG 1.1//EN"
 "http://www.w3.org/Graphics/SVG/1.1/DTD/svg11.dtd">
<!-- Generated by graphviz version 2.46.0 (20210118.1747)
 -->
<!-- Title: unix Pages: 1 -->
<svg width="267pt" height="473pt"
 viewBox="0.00 0.00 267.00 473.00" xmlns="http://www.w3.org/2000/svg" xmlns:xlink="http://www.w3.org/1999/xlink">
<g id="graph0" class="graph" transform="scale(1 1) rotate(0) translate(4 469)">
<title>unix</title>
<polygon fill="white" stroke="transparent" points="-4,4 -4,-469 263,-469 263,4 -4,4"/>
<text text-anchor="start" x="8" y="-37.8" font-family="Times New Roman,serif" font-size="14.00">Graph generated on 08/05/2021 18:22:16.</text>
<text text-anchor="start" x="8" y="-22.8" font-family="Times New Roman,serif" font-size="14.00">Checked 1 pages. Time took: 0.09 minutes.</text>
<text text-anchor="middle" x="129.5" y="-7.8" font-family="Times New Roman,serif" font-size="14.00">Number of nodes drawn: 6</text>
<!-- Kurt Schneider (cyclist) -->
<g id="node1" class="node">
<title>Kurt Schneider (cyclist)</title>
<g id="a_node1"><a xlink:href="https://en.wikipedia.org/wiki/Kurt_Schneider_(cyclist)" xlink:title="Kurt Schneider (cyclist)">
<ellipse fill="#b0e2ff" stroke="#b0e2ff" cx="129.5" cy="-447" rx="96.68" ry="18"/>
<text text-anchor="middle" x="129.5" y="-443.3" font-family="Times New Roman,serif" font-size="14.00">Kurt Schneider (cyclist)</text>
</a>
</g>
</g>
<!-- Bicycle racing -->
<g id="node2" class="node">
<title>Bicycle racing</title>
<g id="a_node2"><a xlink:href="https://en.wikipedia.org/wiki/Bicycle_racing" xlink:title="Bicycle racing">
<ellipse fill="lightskyblue" stroke="lightskyblue" cx="129.5" cy="-375" rx="61.99" ry="18"/>
<text text-anchor="middle" x="129.5" y="-371.3" font-family="Times New Roman,serif" font-size="14.00">Bicycle racing</text>
</a>
</g>
</g>
<!-- Kurt Schneider (cyclist)&#45;&gt;Bicycle racing -->
<g id="edge1" class="edge">
<title>Kurt Schneider (cyclist)&#45;&gt;Bicycle racing</title>
<path fill="none" stroke="black" d="M129.5,-428.7C129.5,-420.98 129.5,-411.71 129.5,-403.11"/>
<polygon fill="black" stroke="black" points="133,-403.1 129.5,-393.1 126,-403.1 133,-403.1"/>
</g>
<!-- Competition -->
<g id="node3" class="node">
<title>Competition</title>
<g id="a_node3"><a xlink:href="https://en.wikipedia.org/wiki/Competition" xlink:title="Competition">
<ellipse fill="lightskyblue" stroke="lightskyblue" cx="129.5" cy="-303" rx="55.79" ry="18"/>
<text text-anchor="middle" x="129.5" y="-299.3" font-family="Times New Roman,serif" font-size="14.00">Competition</text>
</a>
</g>
</g>
<!-- Bicycle racing&#45;&gt;Competition -->
<g id="edge2" class="edge">
<title>Bicycle racing&#45;&gt;Competition</title>
<path fill="none" stroke="black" d="M129.5,-356.7C129.5,-348.98 129.5,-339.71 129.5,-331.11"/>
<polygon fill="black" stroke="black" points="133,-331.1 129.5,-321.1 126,-331.1 133,-331.1"/>
</g>
<!-- Goal -->
<g id="node4" class="node">
<title>Goal</title>
<g id="a_node4"><a xlink:href="https://en.wikipedia.org/wiki/Goal" xlink:title="Goal">
<ellipse fill="lightskyblue" stroke="lightskyblue" cx="129.5" cy="-231" rx="28.7" ry="18"/>
<text text-anchor="middle" x="129.5" y="-227.3" font-family="Times New Roman,serif" font-size="14.00">Goal</text>
</a>
</g>
</g>
<!-- Competition&#45;&gt;Goal -->
<g id="edge3" class="edge">
<title>Competition&#45;&gt;Goal</title>
<path fill="none" stroke="black" d="M129.5,-284.7C129.5,-276.98 129.5,-267.71 129.5,-259.11"/>
<polygon fill="black" stroke="black" points="133,-259.1 129.5,-249.1 126,-259.1 133,-259.1"/>
</g>
<!-- Idea -->
<g id="node5" class="node">
<title>Idea</title>
<g id="a_node5"><a xlink:href="https://en.wikipedia.org/wiki/Idea" xlink:title="Idea">
<ellipse fill="lightskyblue" stroke="lightskyblue" cx="129.5" cy="-159" rx="27" ry="18"/>
<text text-anchor="middle" x="129.5" y="-155.3" font-family="Times New Roman,serif" font-size="14.00">Idea</text>
</a>
</g>
</g>
<!-- Goal&#45;&gt;Idea -->
<g id="edge4" class="edge">
<title>Goal&#45;&gt;Idea</title>
<path fill="none" stroke="black" d="M129.5,-212.7C129.5,-204.98 129.5,-195.71 129.5,-187.11"/>
<polygon fill="black" stroke="black" points="133,-187.1 129.5,-177.1 126,-187.1 133,-187.1"/>
</g>
<!-- Philosophy -->
<g id="node6" class="node">
<title>Philosophy</title>
<g id="a_node6"><a xlink:href="https://en.wikipedia.org/wiki/Philosophy" xlink:title="Philosophy">
<ellipse fill="lightskyblue" stroke="lightskyblue" cx="129.5" cy="-87" rx="51.99" ry="18"/>
<text text-anchor="middle" x="129.5" y="-83.3" font-family="Times New Roman,serif" font-size="14.00">Philosophy</text>
</a>
</g>
</g>
<!-- Idea&#45;&gt;Philosophy -->
<g id="edge5" class="edge">
<title>Idea&#45;&gt;Philosophy</title>
<path fill="none" stroke="black" d="M129.5,-140.7C129.5,-132.98 129.5,-123.71 129.5,-115.11"/>
<polygon fill="black" stroke="black" points="133,-115.1 129.5,-105.1 126,-115.1 133,-115.1"/>
</g>
</g>
</svg>
