<?xml version="1.0" encoding="UTF-8" standalone="no"?>
<!DOCTYPE svg PUBLIC "-//W3C//DTD SVG 1.1//EN"
 "http://www.w3.org/Graphics/SVG/1.1/DTD/svg11.dtd">
<!-- Generated by graphviz version 2.46.0 (20210118.1747)
 -->
<!-- Title: unix Pages: 1 -->
<svg width="189pt" height="188pt"
 viewBox="0.00 0.00 188.64 188.00" xmlns="http://www.w3.org/2000/svg" xmlns:xlink="http://www.w3.org/1999/xlink">
<g id="graph0" class="graph" transform="scale(1 1) rotate(0) translate(4 184)">
<title>unix</title>
<polygon fill="white" stroke="transparent" points="-4,4 -4,-184 184.64,-184 184.64,4 -4,4"/>
<!-- Logic -->
<g id="node1" class="node">
<title>Logic</title>
<g id="a_node1"><a xlink:href="https://en.wikipedia.org/wiki/Logic" xlink:title="Logic">
<ellipse fill="#b0e2ff" stroke="#b0e2ff" cx="122.79" cy="-162" rx="31.7" ry="18"/>
<text text-anchor="middle" x="122.79" y="-158.3" font-family="Times New Roman,serif" font-size="14.00">Logic</text>
</a>
</g>
</g>
<!-- Rule of inference -->
<g id="node2" class="node">
<title>Rule of inference</title>
<g id="a_node2"><a xlink:href="https://en.wikipedia.org/wiki/Rule_of_inference" xlink:title="Rule of inference">
<ellipse fill="lightskyblue" stroke="lightskyblue" cx="72.79" cy="-90" rx="72.59" ry="18"/>
<text text-anchor="middle" x="72.79" y="-86.3" font-family="Times New Roman,serif" font-size="14.00">Rule of inference</text>
</a>
</g>
</g>
<!-- Logic&#45;&gt;Rule of inference -->
<g id="edge1" class="edge">
<title>Logic&#45;&gt;Rule of inference</title>
<path fill="none" stroke="black" d="M111.45,-145.12C105.3,-136.51 97.56,-125.67 90.62,-115.96"/>
<polygon fill="black" stroke="black" points="93.45,-113.9 84.79,-107.8 87.76,-117.97 93.45,-113.9"/>
</g>
<!-- Logical form -->
<g id="node3" class="node">
<title>Logical form</title>
<g id="a_node3"><a xlink:href="https://en.wikipedia.org/wiki/Logical_form" xlink:title="Logical form">
<ellipse fill="lightskyblue" stroke="lightskyblue" cx="122.79" cy="-18" rx="57.69" ry="18"/>
<text text-anchor="middle" x="122.79" y="-14.3" font-family="Times New Roman,serif" font-size="14.00">Logical form</text>
</a>
</g>
</g>
<!-- Rule of inference&#45;&gt;Logical form -->
<g id="edge2" class="edge">
<title>Rule of inference&#45;&gt;Logical form</title>
<path fill="none" stroke="black" d="M84.9,-72.05C90.92,-63.63 98.31,-53.28 104.96,-43.97"/>
<polygon fill="black" stroke="black" points="107.84,-45.96 110.8,-35.79 102.14,-41.89 107.84,-45.96"/>
</g>
<!-- Logical form&#45;&gt;Logic -->
<g id="edge3" class="edge">
<title>Logical form&#45;&gt;Logic</title>
<path fill="none" stroke="black" d="M136.03,-35.56C143.1,-45.5 151.1,-58.75 154.79,-72 159.09,-87.41 159.09,-92.59 154.79,-108 151.97,-118.14 146.62,-128.29 141.09,-136.94"/>
<polygon fill="black" stroke="black" points="138.09,-135.12 135.36,-145.36 143.88,-139.06 138.09,-135.12"/>
</g>
</g>
</svg>
