<?xml version="1.0" encoding="UTF-8" standalone="no"?>
<!DOCTYPE svg PUBLIC "-//W3C//DTD SVG 1.1//EN"
 "http://www.w3.org/Graphics/SVG/1.1/DTD/svg11.dtd">
<!-- Generated by graphviz version 2.46.0 (20210118.1747)
 -->
<!-- Title: unix Pages: 1 -->
<svg width="358pt" height="1147pt"
 viewBox="0.00 0.00 358.00 1147.00" xmlns="http://www.w3.org/2000/svg" xmlns:xlink="http://www.w3.org/1999/xlink">
<g id="graph0" class="graph" transform="scale(1 1) rotate(0) translate(4 1143)">
<title>unix</title>
<polygon fill="white" stroke="transparent" points="-4,4 -4,-1143 354,-1143 354,4 -4,4"/>
<text text-anchor="middle" x="175" y="-7.8" font-family="Times New Roman,serif" font-size="14.00">Graph generated on 08/05/2021 13:50:54. Checked 1 pages.</text>
<!-- Sugar glider -->
<g id="node1" class="node">
<title>Sugar glider</title>
<g id="a_node1"><a xlink:href="https://en.wikipedia.org/wiki/Sugar_glider" xlink:title="Sugar glider">
<ellipse fill="#a4d3ee" stroke="#a4d3ee" cx="175" cy="-1121" rx="53.89" ry="18"/>
<text text-anchor="middle" x="175" y="-1117.3" font-family="Times New Roman,serif" font-size="14.00">Sugar glider</text>
</a>
</g>
</g>
<!-- Omnivorous -->
<g id="node2" class="node">
<title>Omnivorous</title>
<g id="a_node2"><a xlink:href="https://en.wikipedia.org/wiki/Omnivorous" xlink:title="Omnivorous">
<ellipse fill="lightskyblue" stroke="lightskyblue" cx="175" cy="-1049" rx="55.79" ry="18"/>
<text text-anchor="middle" x="175" y="-1045.3" font-family="Times New Roman,serif" font-size="14.00">Omnivorous</text>
</a>
</g>
</g>
<!-- Sugar glider&#45;&gt;Omnivorous -->
<g id="edge1" class="edge">
<title>Sugar glider&#45;&gt;Omnivorous</title>
<path fill="none" stroke="black" d="M175,-1102.7C175,-1094.98 175,-1085.71 175,-1077.11"/>
<polygon fill="black" stroke="black" points="178.5,-1077.1 175,-1067.1 171.5,-1077.1 178.5,-1077.1"/>
</g>
<!-- Animal -->
<g id="node3" class="node">
<title>Animal</title>
<g id="a_node3"><a xlink:href="https://en.wikipedia.org/wiki/Animal" xlink:title="Animal">
<ellipse fill="lightskyblue" stroke="lightskyblue" cx="175" cy="-977" rx="36.29" ry="18"/>
<text text-anchor="middle" x="175" y="-973.3" font-family="Times New Roman,serif" font-size="14.00">Animal</text>
</a>
</g>
</g>
<!-- Omnivorous&#45;&gt;Animal -->
<g id="edge2" class="edge">
<title>Omnivorous&#45;&gt;Animal</title>
<path fill="none" stroke="black" d="M175,-1030.7C175,-1022.98 175,-1013.71 175,-1005.11"/>
<polygon fill="black" stroke="black" points="178.5,-1005.1 175,-995.1 171.5,-1005.1 178.5,-1005.1"/>
</g>
<!-- Multicellular -->
<g id="node4" class="node">
<title>Multicellular</title>
<g id="a_node4"><a xlink:href="https://en.wikipedia.org/wiki/Multicellular" xlink:title="Multicellular">
<ellipse fill="lightskyblue" stroke="lightskyblue" cx="175" cy="-905" rx="54.69" ry="18"/>
<text text-anchor="middle" x="175" y="-901.3" font-family="Times New Roman,serif" font-size="14.00">Multicellular</text>
</a>
</g>
</g>
<!-- Animal&#45;&gt;Multicellular -->
<g id="edge3" class="edge">
<title>Animal&#45;&gt;Multicellular</title>
<path fill="none" stroke="black" d="M175,-958.7C175,-950.98 175,-941.71 175,-933.11"/>
<polygon fill="black" stroke="black" points="178.5,-933.1 175,-923.1 171.5,-933.1 178.5,-933.1"/>
</g>
<!-- Organism -->
<g id="node5" class="node">
<title>Organism</title>
<g id="a_node5"><a xlink:href="https://en.wikipedia.org/wiki/Organism" xlink:title="Organism">
<ellipse fill="lightskyblue" stroke="lightskyblue" cx="175" cy="-833" rx="46.29" ry="18"/>
<text text-anchor="middle" x="175" y="-829.3" font-family="Times New Roman,serif" font-size="14.00">Organism</text>
</a>
</g>
</g>
<!-- Multicellular&#45;&gt;Organism -->
<g id="edge4" class="edge">
<title>Multicellular&#45;&gt;Organism</title>
<path fill="none" stroke="black" d="M175,-886.7C175,-878.98 175,-869.71 175,-861.11"/>
<polygon fill="black" stroke="black" points="178.5,-861.1 175,-851.1 171.5,-861.1 178.5,-861.1"/>
</g>
<!-- Biology -->
<g id="node6" class="node">
<title>Biology</title>
<g id="a_node6"><a xlink:href="https://en.wikipedia.org/wiki/Biology" xlink:title="Biology">
<ellipse fill="lightskyblue" stroke="lightskyblue" cx="175" cy="-761" rx="38.99" ry="18"/>
<text text-anchor="middle" x="175" y="-757.3" font-family="Times New Roman,serif" font-size="14.00">Biology</text>
</a>
</g>
</g>
<!-- Organism&#45;&gt;Biology -->
<g id="edge5" class="edge">
<title>Organism&#45;&gt;Biology</title>
<path fill="none" stroke="black" d="M175,-814.7C175,-806.98 175,-797.71 175,-789.11"/>
<polygon fill="black" stroke="black" points="178.5,-789.1 175,-779.1 171.5,-789.1 178.5,-789.1"/>
</g>
<!-- Natural science -->
<g id="node7" class="node">
<title>Natural science</title>
<g id="a_node7"><a xlink:href="https://en.wikipedia.org/wiki/Natural_science" xlink:title="Natural science">
<ellipse fill="lightskyblue" stroke="lightskyblue" cx="175" cy="-689" rx="65.79" ry="18"/>
<text text-anchor="middle" x="175" y="-685.3" font-family="Times New Roman,serif" font-size="14.00">Natural science</text>
</a>
</g>
</g>
<!-- Biology&#45;&gt;Natural science -->
<g id="edge6" class="edge">
<title>Biology&#45;&gt;Natural science</title>
<path fill="none" stroke="black" d="M175,-742.7C175,-734.98 175,-725.71 175,-717.11"/>
<polygon fill="black" stroke="black" points="178.5,-717.1 175,-707.1 171.5,-717.1 178.5,-717.1"/>
</g>
<!-- Branches of science -->
<g id="node8" class="node">
<title>Branches of science</title>
<g id="a_node8"><a xlink:href="https://en.wikipedia.org/wiki/Branches_of_science" xlink:title="Branches of science">
<ellipse fill="lightskyblue" stroke="lightskyblue" cx="175" cy="-617" rx="83.69" ry="18"/>
<text text-anchor="middle" x="175" y="-613.3" font-family="Times New Roman,serif" font-size="14.00">Branches of science</text>
</a>
</g>
</g>
<!-- Natural science&#45;&gt;Branches of science -->
<g id="edge7" class="edge">
<title>Natural science&#45;&gt;Branches of science</title>
<path fill="none" stroke="black" d="M175,-670.7C175,-662.98 175,-653.71 175,-645.11"/>
<polygon fill="black" stroke="black" points="178.5,-645.1 175,-635.1 171.5,-645.1 178.5,-645.1"/>
</g>
<!-- Science -->
<g id="node9" class="node">
<title>Science</title>
<g id="a_node9"><a xlink:href="https://en.wikipedia.org/wiki/Science" xlink:title="Science">
<ellipse fill="lightskyblue" stroke="lightskyblue" cx="175" cy="-545" rx="38.99" ry="18"/>
<text text-anchor="middle" x="175" y="-541.3" font-family="Times New Roman,serif" font-size="14.00">Science</text>
</a>
</g>
</g>
<!-- Branches of science&#45;&gt;Science -->
<g id="edge8" class="edge">
<title>Branches of science&#45;&gt;Science</title>
<path fill="none" stroke="black" d="M175,-598.7C175,-590.98 175,-581.71 175,-573.11"/>
<polygon fill="black" stroke="black" points="178.5,-573.1 175,-563.1 171.5,-573.1 178.5,-573.1"/>
</g>
<!-- Scientific method -->
<g id="node10" class="node">
<title>Scientific method</title>
<g id="a_node10"><a xlink:href="https://en.wikipedia.org/wiki/Scientific_method" xlink:title="Scientific method">
<ellipse fill="lightskyblue" stroke="lightskyblue" cx="175" cy="-473" rx="74.19" ry="18"/>
<text text-anchor="middle" x="175" y="-469.3" font-family="Times New Roman,serif" font-size="14.00">Scientific method</text>
</a>
</g>
</g>
<!-- Science&#45;&gt;Scientific method -->
<g id="edge9" class="edge">
<title>Science&#45;&gt;Scientific method</title>
<path fill="none" stroke="black" d="M175,-526.7C175,-518.98 175,-509.71 175,-501.11"/>
<polygon fill="black" stroke="black" points="178.5,-501.1 175,-491.1 171.5,-501.1 178.5,-501.1"/>
</g>
<!-- Empirical evidence -->
<g id="node11" class="node">
<title>Empirical evidence</title>
<g id="a_node11"><a xlink:href="https://en.wikipedia.org/wiki/Empirical_evidence" xlink:title="Empirical evidence">
<ellipse fill="lightskyblue" stroke="lightskyblue" cx="175" cy="-401" rx="79.09" ry="18"/>
<text text-anchor="middle" x="175" y="-397.3" font-family="Times New Roman,serif" font-size="14.00">Empirical evidence</text>
</a>
</g>
</g>
<!-- Scientific method&#45;&gt;Empirical evidence -->
<g id="edge10" class="edge">
<title>Scientific method&#45;&gt;Empirical evidence</title>
<path fill="none" stroke="black" d="M175,-454.7C175,-446.98 175,-437.71 175,-429.11"/>
<polygon fill="black" stroke="black" points="178.5,-429.1 175,-419.1 171.5,-429.1 178.5,-429.1"/>
</g>
<!-- Information -->
<g id="node12" class="node">
<title>Information</title>
<g id="a_node12"><a xlink:href="https://en.wikipedia.org/wiki/Information" xlink:title="Information">
<ellipse fill="lightskyblue" stroke="lightskyblue" cx="175" cy="-329" rx="53.09" ry="18"/>
<text text-anchor="middle" x="175" y="-325.3" font-family="Times New Roman,serif" font-size="14.00">Information</text>
</a>
</g>
</g>
<!-- Empirical evidence&#45;&gt;Information -->
<g id="edge11" class="edge">
<title>Empirical evidence&#45;&gt;Information</title>
<path fill="none" stroke="black" d="M175,-382.7C175,-374.98 175,-365.71 175,-357.11"/>
<polygon fill="black" stroke="black" points="178.5,-357.1 175,-347.1 171.5,-357.1 178.5,-357.1"/>
</g>
<!-- Uncertainty -->
<g id="node13" class="node">
<title>Uncertainty</title>
<g id="a_node13"><a xlink:href="https://en.wikipedia.org/wiki/Uncertainty" xlink:title="Uncertainty">
<ellipse fill="lightskyblue" stroke="lightskyblue" cx="175" cy="-257" rx="51.99" ry="18"/>
<text text-anchor="middle" x="175" y="-253.3" font-family="Times New Roman,serif" font-size="14.00">Uncertainty</text>
</a>
</g>
</g>
<!-- Information&#45;&gt;Uncertainty -->
<g id="edge12" class="edge">
<title>Information&#45;&gt;Uncertainty</title>
<path fill="none" stroke="black" d="M175,-310.7C175,-302.98 175,-293.71 175,-285.11"/>
<polygon fill="black" stroke="black" points="178.5,-285.1 175,-275.1 171.5,-285.1 178.5,-285.1"/>
</g>
<!-- Epistemology -->
<g id="node14" class="node">
<title>Epistemology</title>
<g id="a_node14"><a xlink:href="https://en.wikipedia.org/wiki/Epistemology" xlink:title="Epistemology">
<ellipse fill="lightskyblue" stroke="lightskyblue" cx="175" cy="-185" rx="60.39" ry="18"/>
<text text-anchor="middle" x="175" y="-181.3" font-family="Times New Roman,serif" font-size="14.00">Epistemology</text>
</a>
</g>
</g>
<!-- Uncertainty&#45;&gt;Epistemology -->
<g id="edge13" class="edge">
<title>Uncertainty&#45;&gt;Epistemology</title>
<path fill="none" stroke="black" d="M175,-238.7C175,-230.98 175,-221.71 175,-213.11"/>
<polygon fill="black" stroke="black" points="178.5,-213.1 175,-203.1 171.5,-213.1 178.5,-213.1"/>
</g>
<!-- Outline of philosophy -->
<g id="node15" class="node">
<title>Outline of philosophy</title>
<g id="a_node15"><a xlink:href="https://en.wikipedia.org/wiki/Outline_of_philosophy" xlink:title="Outline of philosophy">
<ellipse fill="lightskyblue" stroke="lightskyblue" cx="175" cy="-113" rx="89.88" ry="18"/>
<text text-anchor="middle" x="175" y="-109.3" font-family="Times New Roman,serif" font-size="14.00">Outline of philosophy</text>
</a>
</g>
</g>
<!-- Epistemology&#45;&gt;Outline of philosophy -->
<g id="edge14" class="edge">
<title>Epistemology&#45;&gt;Outline of philosophy</title>
<path fill="none" stroke="black" d="M175,-166.7C175,-158.98 175,-149.71 175,-141.11"/>
<polygon fill="black" stroke="black" points="178.5,-141.1 175,-131.1 171.5,-141.1 178.5,-141.1"/>
</g>
<!-- Philosophy -->
<g id="node16" class="node">
<title>Philosophy</title>
<g id="a_node16"><a xlink:href="https://en.wikipedia.org/wiki/Philosophy" xlink:title="Philosophy">
<ellipse fill="lightskyblue" stroke="lightskyblue" cx="175" cy="-41" rx="51.99" ry="18"/>
<text text-anchor="middle" x="175" y="-37.3" font-family="Times New Roman,serif" font-size="14.00">Philosophy</text>
</a>
</g>
</g>
<!-- Outline of philosophy&#45;&gt;Philosophy -->
<g id="edge15" class="edge">
<title>Outline of philosophy&#45;&gt;Philosophy</title>
<path fill="none" stroke="black" d="M175,-94.7C175,-86.98 175,-77.71 175,-69.11"/>
<polygon fill="black" stroke="black" points="178.5,-69.1 175,-59.1 171.5,-69.1 178.5,-69.1"/>
</g>
</g>
</svg>
