<?xml version="1.0" encoding="UTF-8" standalone="no"?>
<!DOCTYPE svg PUBLIC "-//W3C//DTD SVG 1.1//EN"
 "http://www.w3.org/Graphics/SVG/1.1/DTD/svg11.dtd">
<!-- Generated by graphviz version 2.46.0 (20210118.1747)
 -->
<!-- Title: unix Pages: 1 -->
<svg width="376pt" height="646pt"
 viewBox="0.00 0.00 376.00 646.00" xmlns="http://www.w3.org/2000/svg" xmlns:xlink="http://www.w3.org/1999/xlink">
<g id="graph0" class="graph" transform="scale(1 1) rotate(0) translate(4 642)">
<title>unix</title>
<polygon fill="white" stroke="transparent" points="-4,4 -4,-642 372,-642 372,4 -4,4"/>
<text text-anchor="start" x="8" y="-54" font-family="Times New Roman,serif" font-size="20.00">Graph generated on 09/05/2021 20:31:16.</text>
<text text-anchor="start" x="8" y="-32" font-family="Times New Roman,serif" font-size="20.00">Checked 2 pages. Time took: 0.81 minutes.</text>
<text text-anchor="middle" x="184" y="-10" font-family="Times New Roman,serif" font-size="20.00">Number of pages drawn: 14</text>
<!-- Lionel Messi -->
<g id="node1" class="node">
<title>Lionel Messi</title>
<g id="a_node1"><a xlink:href="https://en.wikipedia.org/wiki/Lionel_Messi" xlink:title="Lionel Messi">
<ellipse fill="#b0e2ff" stroke="#b0e2ff" cx="98.75" cy="-620" rx="57.39" ry="18"/>
<text text-anchor="middle" x="98.75" y="-616.3" font-family="Times New Roman,serif" font-size="14.00">Lionel Messi</text>
</a>
</g>
</g>
<!-- Association football -->
<g id="node2" class="node">
<title>Association football</title>
<g id="a_node2"><a xlink:href="https://en.wikipedia.org/wiki/Association_football" xlink:title="Association football">
<ellipse fill="lightskyblue" stroke="lightskyblue" cx="98.75" cy="-548" rx="83.69" ry="18"/>
<text text-anchor="middle" x="98.75" y="-544.3" font-family="Times New Roman,serif" font-size="14.00">Association football</text>
</a>
</g>
</g>
<!-- Lionel Messi&#45;&gt;Association football -->
<g id="edge1" class="edge">
<title>Lionel Messi&#45;&gt;Association football</title>
<path fill="none" stroke="black" d="M98.75,-601.7C98.75,-593.98 98.75,-584.71 98.75,-576.11"/>
<polygon fill="black" stroke="black" points="102.25,-576.1 98.75,-566.1 95.25,-576.1 102.25,-576.1"/>
</g>
<!-- Team sport -->
<g id="node3" class="node">
<title>Team sport</title>
<g id="a_node3"><a xlink:href="https://en.wikipedia.org/wiki/Team_sport" xlink:title="Team sport">
<ellipse fill="lightskyblue" stroke="lightskyblue" cx="186.75" cy="-476" rx="52.79" ry="18"/>
<text text-anchor="middle" x="186.75" y="-472.3" font-family="Times New Roman,serif" font-size="14.00">Team sport</text>
</a>
</g>
</g>
<!-- Association football&#45;&gt;Team sport -->
<g id="edge2" class="edge">
<title>Association football&#45;&gt;Team sport</title>
<path fill="none" stroke="black" d="M119.6,-530.41C131.36,-521.06 146.2,-509.25 158.94,-499.12"/>
<polygon fill="black" stroke="black" points="161.3,-501.71 166.95,-492.75 156.95,-496.24 161.3,-501.71"/>
</g>
<!-- Sport -->
<g id="node4" class="node">
<title>Sport</title>
<g id="a_node4"><a xlink:href="https://en.wikipedia.org/wiki/Sport" xlink:title="Sport">
<ellipse fill="lightskyblue" stroke="lightskyblue" cx="186.75" cy="-404" rx="31.4" ry="18"/>
<text text-anchor="middle" x="186.75" y="-400.3" font-family="Times New Roman,serif" font-size="14.00">Sport</text>
</a>
</g>
</g>
<!-- Team sport&#45;&gt;Sport -->
<g id="edge3" class="edge">
<title>Team sport&#45;&gt;Sport</title>
<path fill="none" stroke="black" d="M186.75,-457.7C186.75,-449.98 186.75,-440.71 186.75,-432.11"/>
<polygon fill="black" stroke="black" points="190.25,-432.1 186.75,-422.1 183.25,-432.1 190.25,-432.1"/>
</g>
<!-- Competition -->
<g id="node5" class="node">
<title>Competition</title>
<g id="a_node5"><a xlink:href="https://en.wikipedia.org/wiki/Competition" xlink:title="Competition">
<ellipse fill="lightskyblue" stroke="lightskyblue" cx="186.75" cy="-332" rx="55.79" ry="18"/>
<text text-anchor="middle" x="186.75" y="-328.3" font-family="Times New Roman,serif" font-size="14.00">Competition</text>
</a>
</g>
</g>
<!-- Sport&#45;&gt;Competition -->
<g id="edge4" class="edge">
<title>Sport&#45;&gt;Competition</title>
<path fill="none" stroke="black" d="M186.75,-385.7C186.75,-377.98 186.75,-368.71 186.75,-360.11"/>
<polygon fill="black" stroke="black" points="190.25,-360.1 186.75,-350.1 183.25,-360.1 190.25,-360.1"/>
</g>
<!-- Goal -->
<g id="node6" class="node">
<title>Goal</title>
<g id="a_node6"><a xlink:href="https://en.wikipedia.org/wiki/Goal" xlink:title="Goal">
<ellipse fill="lightskyblue" stroke="lightskyblue" cx="186.75" cy="-260" rx="28.7" ry="18"/>
<text text-anchor="middle" x="186.75" y="-256.3" font-family="Times New Roman,serif" font-size="14.00">Goal</text>
</a>
</g>
</g>
<!-- Competition&#45;&gt;Goal -->
<g id="edge5" class="edge">
<title>Competition&#45;&gt;Goal</title>
<path fill="none" stroke="black" d="M186.75,-313.7C186.75,-305.98 186.75,-296.71 186.75,-288.11"/>
<polygon fill="black" stroke="black" points="190.25,-288.1 186.75,-278.1 183.25,-288.1 190.25,-288.1"/>
</g>
<!-- Idea -->
<g id="node7" class="node">
<title>Idea</title>
<g id="a_node7"><a xlink:href="https://en.wikipedia.org/wiki/Idea" xlink:title="Idea">
<ellipse fill="lightskyblue" stroke="lightskyblue" cx="186.75" cy="-188" rx="27" ry="18"/>
<text text-anchor="middle" x="186.75" y="-184.3" font-family="Times New Roman,serif" font-size="14.00">Idea</text>
</a>
</g>
</g>
<!-- Goal&#45;&gt;Idea -->
<g id="edge6" class="edge">
<title>Goal&#45;&gt;Idea</title>
<path fill="none" stroke="black" d="M186.75,-241.7C186.75,-233.98 186.75,-224.71 186.75,-216.11"/>
<polygon fill="black" stroke="black" points="190.25,-216.1 186.75,-206.1 183.25,-216.1 190.25,-216.1"/>
</g>
<!-- Philosophy -->
<g id="node8" class="node">
<title>Philosophy</title>
<g id="a_node8"><a xlink:href="https://en.wikipedia.org/wiki/Philosophy" xlink:title="Philosophy">
<ellipse fill="lightskyblue" stroke="lightskyblue" cx="186.75" cy="-116" rx="51.99" ry="18"/>
<text text-anchor="middle" x="186.75" y="-112.3" font-family="Times New Roman,serif" font-size="14.00">Philosophy</text>
</a>
</g>
</g>
<!-- Idea&#45;&gt;Philosophy -->
<g id="edge7" class="edge">
<title>Idea&#45;&gt;Philosophy</title>
<path fill="none" stroke="black" d="M186.75,-169.7C186.75,-161.98 186.75,-152.71 186.75,-144.11"/>
<polygon fill="black" stroke="black" points="190.25,-144.1 186.75,-134.1 183.25,-144.1 190.25,-144.1"/>
</g>
<!-- Cleveland Browns -->
<g id="node9" class="node">
<title>Cleveland Browns</title>
<g id="a_node9"><a xlink:href="https://en.wikipedia.org/wiki/Cleveland_Browns" xlink:title="Cleveland Browns">
<ellipse fill="#b0e2ff" stroke="#b0e2ff" cx="275.75" cy="-620" rx="77.19" ry="18"/>
<text text-anchor="middle" x="275.75" y="-616.3" font-family="Times New Roman,serif" font-size="14.00">Cleveland Browns</text>
</a>
</g>
</g>
<!-- American football -->
<g id="node10" class="node">
<title>American football</title>
<g id="a_node10"><a xlink:href="https://en.wikipedia.org/wiki/American_football" xlink:title="American football">
<ellipse fill="lightskyblue" stroke="lightskyblue" cx="275.75" cy="-548" rx="75.29" ry="18"/>
<text text-anchor="middle" x="275.75" y="-544.3" font-family="Times New Roman,serif" font-size="14.00">American football</text>
</a>
</g>
</g>
<!-- Cleveland Browns&#45;&gt;American football -->
<g id="edge8" class="edge">
<title>Cleveland Browns&#45;&gt;American football</title>
<path fill="none" stroke="black" d="M275.75,-601.7C275.75,-593.98 275.75,-584.71 275.75,-576.11"/>
<polygon fill="black" stroke="black" points="279.25,-576.1 275.75,-566.1 272.25,-576.1 279.25,-576.1"/>
</g>
<!-- American football&#45;&gt;Team sport -->
<g id="edge9" class="edge">
<title>American football&#45;&gt;Team sport</title>
<path fill="none" stroke="black" d="M254.66,-530.41C242.77,-521.06 227.76,-509.25 214.88,-499.12"/>
<polygon fill="black" stroke="black" points="216.8,-496.18 206.77,-492.75 212.47,-501.68 216.8,-496.18"/>
</g>
</g>
</svg>
