<?xml version="1.0" encoding="UTF-8" standalone="no"?>
<!DOCTYPE svg PUBLIC "-//W3C//DTD SVG 1.1//EN"
 "http://www.w3.org/Graphics/SVG/1.1/DTD/svg11.dtd">
<!-- Generated by graphviz version 2.46.0 (20210118.1747)
 -->
<!-- Title: unix Pages: 1 -->
<svg width="584pt" height="1481pt"
 viewBox="0.00 0.00 584.48 1481.00" xmlns="http://www.w3.org/2000/svg" xmlns:xlink="http://www.w3.org/1999/xlink">
<g id="graph0" class="graph" transform="scale(1 1) rotate(0) translate(4 1477)">
<title>unix</title>
<polygon fill="white" stroke="transparent" points="-4,4 -4,-1477 580.48,-1477 580.48,4 -4,4"/>
<text text-anchor="start" x="166.74" y="-37.8" font-family="Times New Roman,serif" font-size="14.00">Graph generated on 08/05/2021 18:22:48.</text>
<text text-anchor="start" x="166.74" y="-22.8" font-family="Times New Roman,serif" font-size="14.00">Checked 2 pages. Time took: 0.53 minutes.</text>
<text text-anchor="middle" x="288.24" y="-7.8" font-family="Times New Roman,serif" font-size="14.00">Number of nodes drawn: 30</text>
<!-- Reaching for the Stars (soundtrack) -->
<g id="node1" class="node">
<title>Reaching for the Stars (soundtrack)</title>
<g id="a_node1"><a xlink:href="https://en.wikipedia.org/wiki/Reaching_for_the_Stars_(soundtrack)" xlink:title="Reaching for the Stars (soundtrack)">
<ellipse fill="#b0e2ff" stroke="#b0e2ff" cx="140.39" cy="-1311" rx="140.28" ry="18"/>
<text text-anchor="middle" x="140.39" y="-1307.3" font-family="Times New Roman,serif" font-size="14.00">Reaching for the Stars (soundtrack)</text>
</a>
</g>
</g>
<!-- Taiwanese drama -->
<g id="node2" class="node">
<title>Taiwanese drama</title>
<g id="a_node2"><a xlink:href="https://en.wikipedia.org/wiki/Taiwanese_drama" xlink:title="Taiwanese drama">
<ellipse fill="lightskyblue" stroke="lightskyblue" cx="152.39" cy="-1239" rx="73.39" ry="18"/>
<text text-anchor="middle" x="152.39" y="-1235.3" font-family="Times New Roman,serif" font-size="14.00">Taiwanese drama</text>
</a>
</g>
</g>
<!-- Reaching for the Stars (soundtrack)&#45;&gt;Taiwanese drama -->
<g id="edge1" class="edge">
<title>Reaching for the Stars (soundtrack)&#45;&gt;Taiwanese drama</title>
<path fill="none" stroke="black" d="M143.35,-1292.7C144.68,-1284.98 146.27,-1275.71 147.74,-1267.11"/>
<polygon fill="black" stroke="black" points="151.22,-1267.55 149.46,-1257.1 144.32,-1266.37 151.22,-1267.55"/>
</g>
<!-- Teenage -->
<g id="node3" class="node">
<title>Teenage</title>
<g id="a_node3"><a xlink:href="https://en.wikipedia.org/wiki/Teenage" xlink:title="Teenage">
<ellipse fill="lightskyblue" stroke="lightskyblue" cx="176.39" cy="-1167" rx="40.89" ry="18"/>
<text text-anchor="middle" x="176.39" y="-1163.3" font-family="Times New Roman,serif" font-size="14.00">Teenage</text>
</a>
</g>
</g>
<!-- Taiwanese drama&#45;&gt;Teenage -->
<g id="edge2" class="edge">
<title>Taiwanese drama&#45;&gt;Teenage</title>
<path fill="none" stroke="black" d="M158.2,-1221.05C160.9,-1213.18 164.18,-1203.62 167.2,-1194.79"/>
<polygon fill="black" stroke="black" points="170.53,-1195.87 170.46,-1185.28 163.91,-1193.6 170.53,-1195.87"/>
</g>
<!-- Developmental biology -->
<g id="node4" class="node">
<title>Developmental biology</title>
<g id="a_node4"><a xlink:href="https://en.wikipedia.org/wiki/Developmental_biology" xlink:title="Developmental biology">
<ellipse fill="lightskyblue" stroke="lightskyblue" cx="224.39" cy="-1095" rx="94.48" ry="18"/>
<text text-anchor="middle" x="224.39" y="-1091.3" font-family="Times New Roman,serif" font-size="14.00">Developmental biology</text>
</a>
</g>
</g>
<!-- Teenage&#45;&gt;Developmental biology -->
<g id="edge3" class="edge">
<title>Teenage&#45;&gt;Developmental biology</title>
<path fill="none" stroke="black" d="M187.76,-1149.41C193.48,-1141.08 200.53,-1130.8 206.91,-1121.49"/>
<polygon fill="black" stroke="black" points="209.99,-1123.18 212.76,-1112.96 204.22,-1119.22 209.99,-1123.18"/>
</g>
<!-- Animal -->
<g id="node5" class="node">
<title>Animal</title>
<g id="a_node5"><a xlink:href="https://en.wikipedia.org/wiki/Animal" xlink:title="Animal">
<ellipse fill="lightskyblue" stroke="lightskyblue" cx="231.39" cy="-1023" rx="36.29" ry="18"/>
<text text-anchor="middle" x="231.39" y="-1019.3" font-family="Times New Roman,serif" font-size="14.00">Animal</text>
</a>
</g>
</g>
<!-- Developmental biology&#45;&gt;Animal -->
<g id="edge4" class="edge">
<title>Developmental biology&#45;&gt;Animal</title>
<path fill="none" stroke="black" d="M226.12,-1076.7C226.89,-1068.98 227.82,-1059.71 228.68,-1051.11"/>
<polygon fill="black" stroke="black" points="232.16,-1051.4 229.68,-1041.1 225.2,-1050.71 232.16,-1051.4"/>
</g>
<!-- Multicellular -->
<g id="node6" class="node">
<title>Multicellular</title>
<g id="a_node6"><a xlink:href="https://en.wikipedia.org/wiki/Multicellular" xlink:title="Multicellular">
<ellipse fill="lightskyblue" stroke="lightskyblue" cx="245.39" cy="-951" rx="54.69" ry="18"/>
<text text-anchor="middle" x="245.39" y="-947.3" font-family="Times New Roman,serif" font-size="14.00">Multicellular</text>
</a>
</g>
</g>
<!-- Animal&#45;&gt;Multicellular -->
<g id="edge5" class="edge">
<title>Animal&#45;&gt;Multicellular</title>
<path fill="none" stroke="black" d="M234.78,-1005.05C236.32,-997.35 238.18,-988.03 239.91,-979.36"/>
<polygon fill="black" stroke="black" points="243.4,-979.77 241.93,-969.28 236.54,-978.39 243.4,-979.77"/>
</g>
<!-- Organism -->
<g id="node7" class="node">
<title>Organism</title>
<g id="a_node7"><a xlink:href="https://en.wikipedia.org/wiki/Organism" xlink:title="Organism">
<ellipse fill="lightskyblue" stroke="lightskyblue" cx="273.39" cy="-879" rx="46.29" ry="18"/>
<text text-anchor="middle" x="273.39" y="-875.3" font-family="Times New Roman,serif" font-size="14.00">Organism</text>
</a>
</g>
</g>
<!-- Multicellular&#45;&gt;Organism -->
<g id="edge6" class="edge">
<title>Multicellular&#45;&gt;Organism</title>
<path fill="none" stroke="black" d="M252.17,-933.05C255.32,-925.18 259.14,-915.62 262.67,-906.79"/>
<polygon fill="black" stroke="black" points="266.01,-907.86 266.48,-897.28 259.51,-905.26 266.01,-907.86"/>
</g>
<!-- Biology -->
<g id="node8" class="node">
<title>Biology</title>
<g id="a_node8"><a xlink:href="https://en.wikipedia.org/wiki/Biology" xlink:title="Biology">
<ellipse fill="lightskyblue" stroke="lightskyblue" cx="291.39" cy="-807" rx="38.99" ry="18"/>
<text text-anchor="middle" x="291.39" y="-803.3" font-family="Times New Roman,serif" font-size="14.00">Biology</text>
</a>
</g>
</g>
<!-- Organism&#45;&gt;Biology -->
<g id="edge7" class="edge">
<title>Organism&#45;&gt;Biology</title>
<path fill="none" stroke="black" d="M277.74,-861.05C279.75,-853.26 282.18,-843.82 284.42,-835.08"/>
<polygon fill="black" stroke="black" points="287.84,-835.83 286.95,-825.28 281.07,-834.09 287.84,-835.83"/>
</g>
<!-- Natural science -->
<g id="node9" class="node">
<title>Natural science</title>
<g id="a_node9"><a xlink:href="https://en.wikipedia.org/wiki/Natural_science" xlink:title="Natural science">
<ellipse fill="lightskyblue" stroke="lightskyblue" cx="345.39" cy="-735" rx="65.79" ry="18"/>
<text text-anchor="middle" x="345.39" y="-731.3" font-family="Times New Roman,serif" font-size="14.00">Natural science</text>
</a>
</g>
</g>
<!-- Biology&#45;&gt;Natural science -->
<g id="edge8" class="edge">
<title>Biology&#45;&gt;Natural science</title>
<path fill="none" stroke="black" d="M303.91,-789.76C310.47,-781.27 318.64,-770.68 325.99,-761.15"/>
<polygon fill="black" stroke="black" points="328.84,-763.18 332.18,-753.12 323.3,-758.9 328.84,-763.18"/>
</g>
<!-- Branches of science -->
<g id="node10" class="node">
<title>Branches of science</title>
<g id="a_node10"><a xlink:href="https://en.wikipedia.org/wiki/Branches_of_science" xlink:title="Branches of science">
<ellipse fill="lightskyblue" stroke="lightskyblue" cx="345.39" cy="-663" rx="83.69" ry="18"/>
<text text-anchor="middle" x="345.39" y="-659.3" font-family="Times New Roman,serif" font-size="14.00">Branches of science</text>
</a>
</g>
</g>
<!-- Natural science&#45;&gt;Branches of science -->
<g id="edge9" class="edge">
<title>Natural science&#45;&gt;Branches of science</title>
<path fill="none" stroke="black" d="M345.39,-716.7C345.39,-708.98 345.39,-699.71 345.39,-691.11"/>
<polygon fill="black" stroke="black" points="348.89,-691.1 345.39,-681.1 341.89,-691.1 348.89,-691.1"/>
</g>
<!-- Science -->
<g id="node11" class="node">
<title>Science</title>
<g id="a_node11"><a xlink:href="https://en.wikipedia.org/wiki/Science" xlink:title="Science">
<ellipse fill="lightskyblue" stroke="lightskyblue" cx="345.39" cy="-591" rx="38.99" ry="18"/>
<text text-anchor="middle" x="345.39" y="-587.3" font-family="Times New Roman,serif" font-size="14.00">Science</text>
</a>
</g>
</g>
<!-- Branches of science&#45;&gt;Science -->
<g id="edge10" class="edge">
<title>Branches of science&#45;&gt;Science</title>
<path fill="none" stroke="black" d="M345.39,-644.7C345.39,-636.98 345.39,-627.71 345.39,-619.11"/>
<polygon fill="black" stroke="black" points="348.89,-619.1 345.39,-609.1 341.89,-619.1 348.89,-619.1"/>
</g>
<!-- Scientific method -->
<g id="node12" class="node">
<title>Scientific method</title>
<g id="a_node12"><a xlink:href="https://en.wikipedia.org/wiki/Scientific_method" xlink:title="Scientific method">
<ellipse fill="lightskyblue" stroke="lightskyblue" cx="345.39" cy="-519" rx="74.19" ry="18"/>
<text text-anchor="middle" x="345.39" y="-515.3" font-family="Times New Roman,serif" font-size="14.00">Scientific method</text>
</a>
</g>
</g>
<!-- Science&#45;&gt;Scientific method -->
<g id="edge11" class="edge">
<title>Science&#45;&gt;Scientific method</title>
<path fill="none" stroke="black" d="M345.39,-572.7C345.39,-564.98 345.39,-555.71 345.39,-547.11"/>
<polygon fill="black" stroke="black" points="348.89,-547.1 345.39,-537.1 341.89,-547.1 348.89,-547.1"/>
</g>
<!-- Empirical evidence -->
<g id="node13" class="node">
<title>Empirical evidence</title>
<g id="a_node13"><a xlink:href="https://en.wikipedia.org/wiki/Empirical_evidence" xlink:title="Empirical evidence">
<ellipse fill="lightskyblue" stroke="lightskyblue" cx="345.39" cy="-447" rx="79.09" ry="18"/>
<text text-anchor="middle" x="345.39" y="-443.3" font-family="Times New Roman,serif" font-size="14.00">Empirical evidence</text>
</a>
</g>
</g>
<!-- Scientific method&#45;&gt;Empirical evidence -->
<g id="edge12" class="edge">
<title>Scientific method&#45;&gt;Empirical evidence</title>
<path fill="none" stroke="black" d="M345.39,-500.7C345.39,-492.98 345.39,-483.71 345.39,-475.11"/>
<polygon fill="black" stroke="black" points="348.89,-475.1 345.39,-465.1 341.89,-475.1 348.89,-475.1"/>
</g>
<!-- Information -->
<g id="node14" class="node">
<title>Information</title>
<g id="a_node14"><a xlink:href="https://en.wikipedia.org/wiki/Information" xlink:title="Information">
<ellipse fill="lightskyblue" stroke="lightskyblue" cx="345.39" cy="-375" rx="53.09" ry="18"/>
<text text-anchor="middle" x="345.39" y="-371.3" font-family="Times New Roman,serif" font-size="14.00">Information</text>
</a>
</g>
</g>
<!-- Empirical evidence&#45;&gt;Information -->
<g id="edge13" class="edge">
<title>Empirical evidence&#45;&gt;Information</title>
<path fill="none" stroke="black" d="M345.39,-428.7C345.39,-420.98 345.39,-411.71 345.39,-403.11"/>
<polygon fill="black" stroke="black" points="348.89,-403.1 345.39,-393.1 341.89,-403.1 348.89,-403.1"/>
</g>
<!-- Uncertainty -->
<g id="node15" class="node">
<title>Uncertainty</title>
<g id="a_node15"><a xlink:href="https://en.wikipedia.org/wiki/Uncertainty" xlink:title="Uncertainty">
<ellipse fill="lightskyblue" stroke="lightskyblue" cx="345.39" cy="-303" rx="51.99" ry="18"/>
<text text-anchor="middle" x="345.39" y="-299.3" font-family="Times New Roman,serif" font-size="14.00">Uncertainty</text>
</a>
</g>
</g>
<!-- Information&#45;&gt;Uncertainty -->
<g id="edge14" class="edge">
<title>Information&#45;&gt;Uncertainty</title>
<path fill="none" stroke="black" d="M345.39,-356.7C345.39,-348.98 345.39,-339.71 345.39,-331.11"/>
<polygon fill="black" stroke="black" points="348.89,-331.1 345.39,-321.1 341.89,-331.1 348.89,-331.1"/>
</g>
<!-- Epistemology -->
<g id="node16" class="node">
<title>Epistemology</title>
<g id="a_node16"><a xlink:href="https://en.wikipedia.org/wiki/Epistemology" xlink:title="Epistemology">
<ellipse fill="lightskyblue" stroke="lightskyblue" cx="345.39" cy="-231" rx="60.39" ry="18"/>
<text text-anchor="middle" x="345.39" y="-227.3" font-family="Times New Roman,serif" font-size="14.00">Epistemology</text>
</a>
</g>
</g>
<!-- Uncertainty&#45;&gt;Epistemology -->
<g id="edge15" class="edge">
<title>Uncertainty&#45;&gt;Epistemology</title>
<path fill="none" stroke="black" d="M345.39,-284.7C345.39,-276.98 345.39,-267.71 345.39,-259.11"/>
<polygon fill="black" stroke="black" points="348.89,-259.1 345.39,-249.1 341.89,-259.1 348.89,-259.1"/>
</g>
<!-- Outline of philosophy -->
<g id="node17" class="node">
<title>Outline of philosophy</title>
<g id="a_node17"><a xlink:href="https://en.wikipedia.org/wiki/Outline_of_philosophy" xlink:title="Outline of philosophy">
<ellipse fill="lightskyblue" stroke="lightskyblue" cx="345.39" cy="-159" rx="89.88" ry="18"/>
<text text-anchor="middle" x="345.39" y="-155.3" font-family="Times New Roman,serif" font-size="14.00">Outline of philosophy</text>
</a>
</g>
</g>
<!-- Epistemology&#45;&gt;Outline of philosophy -->
<g id="edge16" class="edge">
<title>Epistemology&#45;&gt;Outline of philosophy</title>
<path fill="none" stroke="black" d="M345.39,-212.7C345.39,-204.98 345.39,-195.71 345.39,-187.11"/>
<polygon fill="black" stroke="black" points="348.89,-187.1 345.39,-177.1 341.89,-187.1 348.89,-187.1"/>
</g>
<!-- Philosophy -->
<g id="node18" class="node">
<title>Philosophy</title>
<g id="a_node18"><a xlink:href="https://en.wikipedia.org/wiki/Philosophy" xlink:title="Philosophy">
<ellipse fill="lightskyblue" stroke="lightskyblue" cx="345.39" cy="-87" rx="51.99" ry="18"/>
<text text-anchor="middle" x="345.39" y="-83.3" font-family="Times New Roman,serif" font-size="14.00">Philosophy</text>
</a>
</g>
</g>
<!-- Outline of philosophy&#45;&gt;Philosophy -->
<g id="edge17" class="edge">
<title>Outline of philosophy&#45;&gt;Philosophy</title>
<path fill="none" stroke="black" d="M345.39,-140.7C345.39,-132.98 345.39,-123.71 345.39,-115.11"/>
<polygon fill="black" stroke="black" points="348.89,-115.1 345.39,-105.1 341.89,-115.1 348.89,-115.1"/>
</g>
<!-- Saskatoon Slam -->
<g id="node19" class="node">
<title>Saskatoon Slam</title>
<g id="a_node19"><a xlink:href="https://en.wikipedia.org/wiki/Saskatoon_Slam" xlink:title="Saskatoon Slam">
<ellipse fill="#b0e2ff" stroke="#b0e2ff" cx="437.39" cy="-1455" rx="69.59" ry="18"/>
<text text-anchor="middle" x="437.39" y="-1451.3" font-family="Times New Roman,serif" font-size="14.00">Saskatoon Slam</text>
</a>
</g>
</g>
<!-- Saskatoon, Saskatchewan -->
<g id="node20" class="node">
<title>Saskatoon, Saskatchewan</title>
<g id="a_node20"><a xlink:href="https://en.wikipedia.org/wiki/Saskatoon,_Saskatchewan" xlink:title="Saskatoon, Saskatchewan">
<ellipse fill="lightskyblue" stroke="lightskyblue" cx="437.39" cy="-1383" rx="104.78" ry="18"/>
<text text-anchor="middle" x="437.39" y="-1379.3" font-family="Times New Roman,serif" font-size="14.00">Saskatoon, Saskatchewan</text>
</a>
</g>
</g>
<!-- Saskatoon Slam&#45;&gt;Saskatoon, Saskatchewan -->
<g id="edge18" class="edge">
<title>Saskatoon Slam&#45;&gt;Saskatoon, Saskatchewan</title>
<path fill="none" stroke="black" d="M437.39,-1436.7C437.39,-1428.98 437.39,-1419.71 437.39,-1411.11"/>
<polygon fill="black" stroke="black" points="440.89,-1411.1 437.39,-1401.1 433.89,-1411.1 440.89,-1411.1"/>
</g>
<!-- Provinces and territories of Canada -->
<g id="node21" class="node">
<title>Provinces and territories of Canada</title>
<g id="a_node21"><a xlink:href="https://en.wikipedia.org/wiki/Provinces_and_territories_of_Canada" xlink:title="Provinces and territories of Canada">
<ellipse fill="lightskyblue" stroke="lightskyblue" cx="437.39" cy="-1311" rx="139.18" ry="18"/>
<text text-anchor="middle" x="437.39" y="-1307.3" font-family="Times New Roman,serif" font-size="14.00">Provinces and territories of Canada</text>
</a>
</g>
</g>
<!-- Saskatoon, Saskatchewan&#45;&gt;Provinces and territories of Canada -->
<g id="edge19" class="edge">
<title>Saskatoon, Saskatchewan&#45;&gt;Provinces and territories of Canada</title>
<path fill="none" stroke="black" d="M437.39,-1364.7C437.39,-1356.98 437.39,-1347.71 437.39,-1339.11"/>
<polygon fill="black" stroke="black" points="440.89,-1339.1 437.39,-1329.1 433.89,-1339.1 440.89,-1339.1"/>
</g>
<!-- Canada -->
<g id="node22" class="node">
<title>Canada</title>
<g id="a_node22"><a xlink:href="https://en.wikipedia.org/wiki/Canada" xlink:title="Canada">
<ellipse fill="lightskyblue" stroke="lightskyblue" cx="435.39" cy="-1239" rx="38.19" ry="18"/>
<text text-anchor="middle" x="435.39" y="-1235.3" font-family="Times New Roman,serif" font-size="14.00">Canada</text>
</a>
</g>
</g>
<!-- Provinces and territories of Canada&#45;&gt;Canada -->
<g id="edge20" class="edge">
<title>Provinces and territories of Canada&#45;&gt;Canada</title>
<path fill="none" stroke="black" d="M436.89,-1292.7C436.67,-1284.98 436.41,-1275.71 436.16,-1267.11"/>
<polygon fill="black" stroke="black" points="439.66,-1267 435.88,-1257.1 432.66,-1267.2 439.66,-1267"/>
</g>
<!-- North America -->
<g id="node23" class="node">
<title>North America</title>
<g id="a_node23"><a xlink:href="https://en.wikipedia.org/wiki/North_America" xlink:title="North America">
<ellipse fill="lightskyblue" stroke="lightskyblue" cx="429.39" cy="-1167" rx="64.19" ry="18"/>
<text text-anchor="middle" x="429.39" y="-1163.3" font-family="Times New Roman,serif" font-size="14.00">North America</text>
</a>
</g>
</g>
<!-- Canada&#45;&gt;North America -->
<g id="edge21" class="edge">
<title>Canada&#45;&gt;North America</title>
<path fill="none" stroke="black" d="M433.9,-1220.7C433.24,-1212.98 432.45,-1203.71 431.71,-1195.11"/>
<polygon fill="black" stroke="black" points="435.19,-1194.77 430.85,-1185.1 428.22,-1195.37 435.19,-1194.77"/>
</g>
<!-- Northern Hemisphere -->
<g id="node24" class="node">
<title>Northern Hemisphere</title>
<g id="a_node24"><a xlink:href="https://en.wikipedia.org/wiki/Northern_Hemisphere" xlink:title="Northern Hemisphere">
<ellipse fill="lightskyblue" stroke="lightskyblue" cx="428.39" cy="-1095" rx="88.28" ry="18"/>
<text text-anchor="middle" x="428.39" y="-1091.3" font-family="Times New Roman,serif" font-size="14.00">Northern Hemisphere</text>
</a>
</g>
</g>
<!-- North America&#45;&gt;Northern Hemisphere -->
<g id="edge22" class="edge">
<title>North America&#45;&gt;Northern Hemisphere</title>
<path fill="none" stroke="black" d="M429.14,-1148.7C429.03,-1140.98 428.9,-1131.71 428.77,-1123.11"/>
<polygon fill="black" stroke="black" points="432.27,-1123.05 428.63,-1113.1 425.28,-1123.15 432.27,-1123.05"/>
</g>
<!-- Earth -->
<g id="node25" class="node">
<title>Earth</title>
<g id="a_node25"><a xlink:href="https://en.wikipedia.org/wiki/Earth" xlink:title="Earth">
<ellipse fill="lightskyblue" stroke="lightskyblue" cx="426.39" cy="-1023" rx="29.8" ry="18"/>
<text text-anchor="middle" x="426.39" y="-1019.3" font-family="Times New Roman,serif" font-size="14.00">Earth</text>
</a>
</g>
</g>
<!-- Northern Hemisphere&#45;&gt;Earth -->
<g id="edge23" class="edge">
<title>Northern Hemisphere&#45;&gt;Earth</title>
<path fill="none" stroke="black" d="M427.89,-1076.7C427.67,-1068.98 427.41,-1059.71 427.16,-1051.11"/>
<polygon fill="black" stroke="black" points="430.66,-1051 426.88,-1041.1 423.66,-1051.2 430.66,-1051"/>
</g>
<!-- Planet -->
<g id="node26" class="node">
<title>Planet</title>
<g id="a_node26"><a xlink:href="https://en.wikipedia.org/wiki/Planet" xlink:title="Planet">
<ellipse fill="lightskyblue" stroke="lightskyblue" cx="424.39" cy="-951" rx="32.49" ry="18"/>
<text text-anchor="middle" x="424.39" y="-947.3" font-family="Times New Roman,serif" font-size="14.00">Planet</text>
</a>
</g>
</g>
<!-- Earth&#45;&gt;Planet -->
<g id="edge24" class="edge">
<title>Earth&#45;&gt;Planet</title>
<path fill="none" stroke="black" d="M425.89,-1004.7C425.67,-996.98 425.41,-987.71 425.16,-979.11"/>
<polygon fill="black" stroke="black" points="428.66,-979 424.88,-969.1 421.66,-979.2 428.66,-979"/>
</g>
<!-- Astronomical body -->
<g id="node27" class="node">
<title>Astronomical body</title>
<g id="a_node27"><a xlink:href="https://en.wikipedia.org/wiki/Astronomical_body" xlink:title="Astronomical body">
<ellipse fill="lightskyblue" stroke="lightskyblue" cx="423.39" cy="-879" rx="81.49" ry="18"/>
<text text-anchor="middle" x="423.39" y="-875.3" font-family="Times New Roman,serif" font-size="14.00">Astronomical body</text>
</a>
</g>
</g>
<!-- Planet&#45;&gt;Astronomical body -->
<g id="edge25" class="edge">
<title>Planet&#45;&gt;Astronomical body</title>
<path fill="none" stroke="black" d="M424.14,-932.7C424.03,-924.98 423.9,-915.71 423.77,-907.11"/>
<polygon fill="black" stroke="black" points="427.27,-907.05 423.63,-897.1 420.28,-907.15 427.27,-907.05"/>
</g>
<!-- Astronomy -->
<g id="node28" class="node">
<title>Astronomy</title>
<g id="a_node28"><a xlink:href="https://en.wikipedia.org/wiki/Astronomy" xlink:title="Astronomy">
<ellipse fill="lightskyblue" stroke="lightskyblue" cx="411.39" cy="-807" rx="51.99" ry="18"/>
<text text-anchor="middle" x="411.39" y="-803.3" font-family="Times New Roman,serif" font-size="14.00">Astronomy</text>
</a>
</g>
</g>
<!-- Astronomical body&#45;&gt;Astronomy -->
<g id="edge26" class="edge">
<title>Astronomical body&#45;&gt;Astronomy</title>
<path fill="none" stroke="black" d="M420.42,-860.7C419.1,-852.98 417.51,-843.71 416.04,-835.11"/>
<polygon fill="black" stroke="black" points="419.46,-834.37 414.32,-825.1 412.56,-835.55 419.46,-834.37"/>
</g>
<!-- Astronomy&#45;&gt;Natural science -->
<g id="edge27" class="edge">
<title>Astronomy&#45;&gt;Natural science</title>
<path fill="none" stroke="black" d="M396.08,-789.76C387.79,-780.97 377.38,-769.93 368.15,-760.14"/>
<polygon fill="black" stroke="black" points="370.48,-757.51 361.07,-752.63 365.38,-762.31 370.48,-757.51"/>
</g>
</g>
</svg>
