<?xml version="1.0" encoding="UTF-8" standalone="no"?>
<!DOCTYPE svg PUBLIC "-//W3C//DTD SVG 1.1//EN"
 "http://www.w3.org/Graphics/SVG/1.1/DTD/svg11.dtd">
<!-- Generated by graphviz version 2.46.0 (20210118.1747)
 -->
<!-- Title: unix Pages: 1 -->
<svg width="410pt" height="2348pt"
 viewBox="0.00 0.00 410.23 2348.00" xmlns="http://www.w3.org/2000/svg" xmlns:xlink="http://www.w3.org/1999/xlink">
<g id="graph0" class="graph" transform="scale(1 1) rotate(0) translate(4 2344)">
<title>unix</title>
<polygon fill="white" stroke="transparent" points="-4,4 -4,-2344 406.23,-2344 406.23,4 -4,4"/>
<!-- Benjamin Netanyahu -->
<g id="node1" class="node">
<title>Benjamin Netanyahu</title>
<g id="a_node1"><a xlink:href="https://en.wikipedia.org/wiki/Benjamin_Netanyahu" xlink:title="Benjamin Netanyahu">
<ellipse fill="#b0e2ff" stroke="#b0e2ff" cx="122.19" cy="-2322" rx="84.49" ry="18"/>
<text text-anchor="middle" x="122.19" y="-2318.3" font-family="Times New Roman,serif" font-size="14.00">Benjamin Netanyahu</text>
</a>
</g>
</g>
<!-- Prime Minister of Israel -->
<g id="node2" class="node">
<title>Prime Minister of Israel</title>
<g id="a_node2"><a xlink:href="https://en.wikipedia.org/wiki/Prime_Minister_of_Israel" xlink:title="Prime Minister of Israel">
<ellipse fill="lightskyblue" stroke="lightskyblue" cx="122.19" cy="-2250" rx="95.58" ry="18"/>
<text text-anchor="middle" x="122.19" y="-2246.3" font-family="Times New Roman,serif" font-size="14.00">Prime Minister of Israel</text>
</a>
</g>
</g>
<!-- Benjamin Netanyahu&#45;&gt;Prime Minister of Israel -->
<g id="edge1" class="edge">
<title>Benjamin Netanyahu&#45;&gt;Prime Minister of Israel</title>
<path fill="none" stroke="black" d="M122.19,-2303.7C122.19,-2295.98 122.19,-2286.71 122.19,-2278.11"/>
<polygon fill="black" stroke="black" points="125.69,-2278.1 122.19,-2268.1 118.69,-2278.1 125.69,-2278.1"/>
</g>
<!-- Head of government -->
<g id="node3" class="node">
<title>Head of government</title>
<g id="a_node3"><a xlink:href="https://en.wikipedia.org/wiki/Head_of_government" xlink:title="Head of government">
<ellipse fill="lightskyblue" stroke="lightskyblue" cx="122.19" cy="-2178" rx="85.29" ry="18"/>
<text text-anchor="middle" x="122.19" y="-2174.3" font-family="Times New Roman,serif" font-size="14.00">Head of government</text>
</a>
</g>
</g>
<!-- Prime Minister of Israel&#45;&gt;Head of government -->
<g id="edge2" class="edge">
<title>Prime Minister of Israel&#45;&gt;Head of government</title>
<path fill="none" stroke="black" d="M122.19,-2231.7C122.19,-2223.98 122.19,-2214.71 122.19,-2206.11"/>
<polygon fill="black" stroke="black" points="125.69,-2206.1 122.19,-2196.1 118.69,-2206.1 125.69,-2206.1"/>
</g>
<!-- Sovereign state -->
<g id="node4" class="node">
<title>Sovereign state</title>
<g id="a_node4"><a xlink:href="https://en.wikipedia.org/wiki/Sovereign_state" xlink:title="Sovereign state">
<ellipse fill="lightskyblue" stroke="lightskyblue" cx="122.19" cy="-2106" rx="65.79" ry="18"/>
<text text-anchor="middle" x="122.19" y="-2102.3" font-family="Times New Roman,serif" font-size="14.00">Sovereign state</text>
</a>
</g>
</g>
<!-- Head of government&#45;&gt;Sovereign state -->
<g id="edge3" class="edge">
<title>Head of government&#45;&gt;Sovereign state</title>
<path fill="none" stroke="black" d="M122.19,-2159.7C122.19,-2151.98 122.19,-2142.71 122.19,-2134.11"/>
<polygon fill="black" stroke="black" points="125.69,-2134.1 122.19,-2124.1 118.69,-2134.1 125.69,-2134.1"/>
</g>
<!-- Political entity -->
<g id="node5" class="node">
<title>Political entity</title>
<g id="a_node5"><a xlink:href="https://en.wikipedia.org/wiki/Political_entity" xlink:title="Political entity">
<ellipse fill="lightskyblue" stroke="lightskyblue" cx="122.19" cy="-2034" rx="61.99" ry="18"/>
<text text-anchor="middle" x="122.19" y="-2030.3" font-family="Times New Roman,serif" font-size="14.00">Political entity</text>
</a>
</g>
</g>
<!-- Sovereign state&#45;&gt;Political entity -->
<g id="edge4" class="edge">
<title>Sovereign state&#45;&gt;Political entity</title>
<path fill="none" stroke="black" d="M122.19,-2087.7C122.19,-2079.98 122.19,-2070.71 122.19,-2062.11"/>
<polygon fill="black" stroke="black" points="125.69,-2062.1 122.19,-2052.1 118.69,-2062.1 125.69,-2062.1"/>
</g>
<!-- Collective identity -->
<g id="node6" class="node">
<title>Collective identity</title>
<g id="a_node6"><a xlink:href="https://en.wikipedia.org/wiki/Collective_identity" xlink:title="Collective identity">
<ellipse fill="lightskyblue" stroke="lightskyblue" cx="122.19" cy="-1962" rx="75.29" ry="18"/>
<text text-anchor="middle" x="122.19" y="-1958.3" font-family="Times New Roman,serif" font-size="14.00">Collective identity</text>
</a>
</g>
</g>
<!-- Political entity&#45;&gt;Collective identity -->
<g id="edge5" class="edge">
<title>Political entity&#45;&gt;Collective identity</title>
<path fill="none" stroke="black" d="M122.19,-2015.7C122.19,-2007.98 122.19,-1998.71 122.19,-1990.11"/>
<polygon fill="black" stroke="black" points="125.69,-1990.1 122.19,-1980.1 118.69,-1990.1 125.69,-1990.1"/>
</g>
<!-- Belongingness -->
<g id="node7" class="node">
<title>Belongingness</title>
<g id="a_node7"><a xlink:href="https://en.wikipedia.org/wiki/Belongingness" xlink:title="Belongingness">
<ellipse fill="lightskyblue" stroke="lightskyblue" cx="122.19" cy="-1890" rx="63.09" ry="18"/>
<text text-anchor="middle" x="122.19" y="-1886.3" font-family="Times New Roman,serif" font-size="14.00">Belongingness</text>
</a>
</g>
</g>
<!-- Collective identity&#45;&gt;Belongingness -->
<g id="edge6" class="edge">
<title>Collective identity&#45;&gt;Belongingness</title>
<path fill="none" stroke="black" d="M122.19,-1943.7C122.19,-1935.98 122.19,-1926.71 122.19,-1918.11"/>
<polygon fill="black" stroke="black" points="125.69,-1918.1 122.19,-1908.1 118.69,-1918.1 125.69,-1918.1"/>
</g>
<!-- Emotional -->
<g id="node8" class="node">
<title>Emotional</title>
<g id="a_node8"><a xlink:href="https://en.wikipedia.org/wiki/Emotional" xlink:title="Emotional">
<ellipse fill="lightskyblue" stroke="lightskyblue" cx="122.19" cy="-1818" rx="47.39" ry="18"/>
<text text-anchor="middle" x="122.19" y="-1814.3" font-family="Times New Roman,serif" font-size="14.00">Emotional</text>
</a>
</g>
</g>
<!-- Belongingness&#45;&gt;Emotional -->
<g id="edge7" class="edge">
<title>Belongingness&#45;&gt;Emotional</title>
<path fill="none" stroke="black" d="M122.19,-1871.7C122.19,-1863.98 122.19,-1854.71 122.19,-1846.11"/>
<polygon fill="black" stroke="black" points="125.69,-1846.1 122.19,-1836.1 118.69,-1846.1 125.69,-1846.1"/>
</g>
<!-- Pleasure -->
<g id="node9" class="node">
<title>Pleasure</title>
<g id="a_node9"><a xlink:href="https://en.wikipedia.org/wiki/Pleasure" xlink:title="Pleasure">
<ellipse fill="lightskyblue" stroke="lightskyblue" cx="122.19" cy="-1746" rx="40.89" ry="18"/>
<text text-anchor="middle" x="122.19" y="-1742.3" font-family="Times New Roman,serif" font-size="14.00">Pleasure</text>
</a>
</g>
</g>
<!-- Emotional&#45;&gt;Pleasure -->
<g id="edge8" class="edge">
<title>Emotional&#45;&gt;Pleasure</title>
<path fill="none" stroke="black" d="M122.19,-1799.7C122.19,-1791.98 122.19,-1782.71 122.19,-1774.11"/>
<polygon fill="black" stroke="black" points="125.69,-1774.1 122.19,-1764.1 118.69,-1774.1 125.69,-1774.1"/>
</g>
<!-- Ecstasy (emotion) -->
<g id="node10" class="node">
<title>Ecstasy (emotion)</title>
<g id="a_node10"><a xlink:href="https://en.wikipedia.org/wiki/Ecstasy_(emotion)" xlink:title="Ecstasy (emotion)">
<ellipse fill="lightskyblue" stroke="lightskyblue" cx="122.19" cy="-1674" rx="76.89" ry="18"/>
<text text-anchor="middle" x="122.19" y="-1670.3" font-family="Times New Roman,serif" font-size="14.00">Ecstasy (emotion)</text>
</a>
</g>
</g>
<!-- Pleasure&#45;&gt;Ecstasy (emotion) -->
<g id="edge9" class="edge">
<title>Pleasure&#45;&gt;Ecstasy (emotion)</title>
<path fill="none" stroke="black" d="M122.19,-1727.7C122.19,-1719.98 122.19,-1710.71 122.19,-1702.11"/>
<polygon fill="black" stroke="black" points="125.69,-1702.1 122.19,-1692.1 118.69,-1702.1 125.69,-1702.1"/>
</g>
<!-- Altered state of consciousness -->
<g id="node11" class="node">
<title>Altered state of consciousness</title>
<g id="a_node11"><a xlink:href="https://en.wikipedia.org/wiki/Altered_state_of_consciousness" xlink:title="Altered state of consciousness">
<ellipse fill="lightskyblue" stroke="lightskyblue" cx="122.19" cy="-1602" rx="122.38" ry="18"/>
<text text-anchor="middle" x="122.19" y="-1598.3" font-family="Times New Roman,serif" font-size="14.00">Altered state of consciousness</text>
</a>
</g>
</g>
<!-- Ecstasy (emotion)&#45;&gt;Altered state of consciousness -->
<g id="edge10" class="edge">
<title>Ecstasy (emotion)&#45;&gt;Altered state of consciousness</title>
<path fill="none" stroke="black" d="M122.19,-1655.7C122.19,-1647.98 122.19,-1638.71 122.19,-1630.11"/>
<polygon fill="black" stroke="black" points="125.69,-1630.1 122.19,-1620.1 118.69,-1630.1 125.69,-1630.1"/>
</g>
<!-- Hypnosis -->
<g id="node12" class="node">
<title>Hypnosis</title>
<g id="a_node12"><a xlink:href="https://en.wikipedia.org/wiki/Hypnosis" xlink:title="Hypnosis">
<ellipse fill="lightskyblue" stroke="lightskyblue" cx="122.19" cy="-1530" rx="45.49" ry="18"/>
<text text-anchor="middle" x="122.19" y="-1526.3" font-family="Times New Roman,serif" font-size="14.00">Hypnosis</text>
</a>
</g>
</g>
<!-- Altered state of consciousness&#45;&gt;Hypnosis -->
<g id="edge11" class="edge">
<title>Altered state of consciousness&#45;&gt;Hypnosis</title>
<path fill="none" stroke="black" d="M122.19,-1583.7C122.19,-1575.98 122.19,-1566.71 122.19,-1558.11"/>
<polygon fill="black" stroke="black" points="125.69,-1558.1 122.19,-1548.1 118.69,-1558.1 125.69,-1558.1"/>
</g>
<!-- Attention -->
<g id="node13" class="node">
<title>Attention</title>
<g id="a_node13"><a xlink:href="https://en.wikipedia.org/wiki/Attention" xlink:title="Attention">
<ellipse fill="lightskyblue" stroke="lightskyblue" cx="122.19" cy="-1458" rx="44.39" ry="18"/>
<text text-anchor="middle" x="122.19" y="-1454.3" font-family="Times New Roman,serif" font-size="14.00">Attention</text>
</a>
</g>
</g>
<!-- Hypnosis&#45;&gt;Attention -->
<g id="edge12" class="edge">
<title>Hypnosis&#45;&gt;Attention</title>
<path fill="none" stroke="black" d="M122.19,-1511.7C122.19,-1503.98 122.19,-1494.71 122.19,-1486.11"/>
<polygon fill="black" stroke="black" points="125.69,-1486.1 122.19,-1476.1 118.69,-1486.1 125.69,-1486.1"/>
</g>
<!-- Cognition -->
<g id="node14" class="node">
<title>Cognition</title>
<g id="a_node14"><a xlink:href="https://en.wikipedia.org/wiki/Cognition" xlink:title="Cognition">
<ellipse fill="lightskyblue" stroke="lightskyblue" cx="122.19" cy="-1386" rx="46.29" ry="18"/>
<text text-anchor="middle" x="122.19" y="-1382.3" font-family="Times New Roman,serif" font-size="14.00">Cognition</text>
</a>
</g>
</g>
<!-- Attention&#45;&gt;Cognition -->
<g id="edge13" class="edge">
<title>Attention&#45;&gt;Cognition</title>
<path fill="none" stroke="black" d="M122.19,-1439.7C122.19,-1431.98 122.19,-1422.71 122.19,-1414.11"/>
<polygon fill="black" stroke="black" points="125.69,-1414.1 122.19,-1404.1 118.69,-1414.1 125.69,-1414.1"/>
</g>
<!-- Intellectual function -->
<g id="node15" class="node">
<title>Intellectual function</title>
<g id="a_node15"><a xlink:href="https://en.wikipedia.org/wiki/Intellectual_function" xlink:title="Intellectual function">
<ellipse fill="lightskyblue" stroke="lightskyblue" cx="127.19" cy="-1314" rx="81.49" ry="18"/>
<text text-anchor="middle" x="127.19" y="-1310.3" font-family="Times New Roman,serif" font-size="14.00">Intellectual function</text>
</a>
</g>
</g>
<!-- Cognition&#45;&gt;Intellectual function -->
<g id="edge14" class="edge">
<title>Cognition&#45;&gt;Intellectual function</title>
<path fill="none" stroke="black" d="M123.43,-1367.7C123.98,-1359.98 124.64,-1350.71 125.25,-1342.11"/>
<polygon fill="black" stroke="black" points="128.75,-1342.33 125.97,-1332.1 121.76,-1341.83 128.75,-1342.33"/>
</g>
<!-- Reason -->
<g id="node16" class="node">
<title>Reason</title>
<g id="a_node16"><a xlink:href="https://en.wikipedia.org/wiki/Reason" xlink:title="Reason">
<ellipse fill="lightskyblue" stroke="lightskyblue" cx="148.19" cy="-1242" rx="38.19" ry="18"/>
<text text-anchor="middle" x="148.19" y="-1238.3" font-family="Times New Roman,serif" font-size="14.00">Reason</text>
</a>
</g>
</g>
<!-- Intellectual function&#45;&gt;Reason -->
<g id="edge15" class="edge">
<title>Intellectual function&#45;&gt;Reason</title>
<path fill="none" stroke="black" d="M132.38,-1295.7C134.72,-1287.9 137.54,-1278.51 140.14,-1269.83"/>
<polygon fill="black" stroke="black" points="143.54,-1270.69 143.06,-1260.1 136.83,-1268.68 143.54,-1270.69"/>
</g>
<!-- Consciousness -->
<g id="node17" class="node">
<title>Consciousness</title>
<g id="a_node17"><a xlink:href="https://en.wikipedia.org/wiki/Consciousness" xlink:title="Consciousness">
<ellipse fill="lightskyblue" stroke="lightskyblue" cx="200.19" cy="-1170" rx="65.79" ry="18"/>
<text text-anchor="middle" x="200.19" y="-1166.3" font-family="Times New Roman,serif" font-size="14.00">Consciousness</text>
</a>
</g>
</g>
<!-- Reason&#45;&gt;Consciousness -->
<g id="edge16" class="edge">
<title>Reason&#45;&gt;Consciousness</title>
<path fill="none" stroke="black" d="M160.25,-1224.76C166.5,-1216.35 174.27,-1205.89 181.29,-1196.44"/>
<polygon fill="black" stroke="black" points="184.31,-1198.24 187.47,-1188.12 178.7,-1194.06 184.31,-1198.24"/>
</g>
<!-- Sentience -->
<g id="node18" class="node">
<title>Sentience</title>
<g id="a_node18"><a xlink:href="https://en.wikipedia.org/wiki/Sentience" xlink:title="Sentience">
<ellipse fill="lightskyblue" stroke="lightskyblue" cx="200.19" cy="-1098" rx="45.49" ry="18"/>
<text text-anchor="middle" x="200.19" y="-1094.3" font-family="Times New Roman,serif" font-size="14.00">Sentience</text>
</a>
</g>
</g>
<!-- Consciousness&#45;&gt;Sentience -->
<g id="edge17" class="edge">
<title>Consciousness&#45;&gt;Sentience</title>
<path fill="none" stroke="black" d="M200.19,-1151.7C200.19,-1143.98 200.19,-1134.71 200.19,-1126.11"/>
<polygon fill="black" stroke="black" points="203.69,-1126.1 200.19,-1116.1 196.69,-1126.1 203.69,-1126.1"/>
</g>
<!-- Feeling -->
<g id="node19" class="node">
<title>Feeling</title>
<g id="a_node19"><a xlink:href="https://en.wikipedia.org/wiki/Feeling" xlink:title="Feeling">
<ellipse fill="lightskyblue" stroke="lightskyblue" cx="200.19" cy="-1026" rx="36.29" ry="18"/>
<text text-anchor="middle" x="200.19" y="-1022.3" font-family="Times New Roman,serif" font-size="14.00">Feeling</text>
</a>
</g>
</g>
<!-- Sentience&#45;&gt;Feeling -->
<g id="edge18" class="edge">
<title>Sentience&#45;&gt;Feeling</title>
<path fill="none" stroke="black" d="M200.19,-1079.7C200.19,-1071.98 200.19,-1062.71 200.19,-1054.11"/>
<polygon fill="black" stroke="black" points="203.69,-1054.1 200.19,-1044.1 196.69,-1054.1 203.69,-1054.1"/>
</g>
<!-- Touch -->
<g id="node20" class="node">
<title>Touch</title>
<g id="a_node20"><a xlink:href="https://en.wikipedia.org/wiki/Touch" xlink:title="Touch">
<ellipse fill="lightskyblue" stroke="lightskyblue" cx="200.19" cy="-954" rx="34.39" ry="18"/>
<text text-anchor="middle" x="200.19" y="-950.3" font-family="Times New Roman,serif" font-size="14.00">Touch</text>
</a>
</g>
</g>
<!-- Feeling&#45;&gt;Touch -->
<g id="edge19" class="edge">
<title>Feeling&#45;&gt;Touch</title>
<path fill="none" stroke="black" d="M200.19,-1007.7C200.19,-999.98 200.19,-990.71 200.19,-982.11"/>
<polygon fill="black" stroke="black" points="203.69,-982.1 200.19,-972.1 196.69,-982.1 203.69,-982.1"/>
</g>
<!-- Sensory nervous system -->
<g id="node21" class="node">
<title>Sensory nervous system</title>
<g id="a_node21"><a xlink:href="https://en.wikipedia.org/wiki/Sensory_nervous_system" xlink:title="Sensory nervous system">
<ellipse fill="lightskyblue" stroke="lightskyblue" cx="200.19" cy="-882" rx="99.38" ry="18"/>
<text text-anchor="middle" x="200.19" y="-878.3" font-family="Times New Roman,serif" font-size="14.00">Sensory nervous system</text>
</a>
</g>
</g>
<!-- Touch&#45;&gt;Sensory nervous system -->
<g id="edge20" class="edge">
<title>Touch&#45;&gt;Sensory nervous system</title>
<path fill="none" stroke="black" d="M200.19,-935.7C200.19,-927.98 200.19,-918.71 200.19,-910.11"/>
<polygon fill="black" stroke="black" points="203.69,-910.1 200.19,-900.1 196.69,-910.1 203.69,-910.1"/>
</g>
<!-- Nervous system -->
<g id="node22" class="node">
<title>Nervous system</title>
<g id="a_node22"><a xlink:href="https://en.wikipedia.org/wiki/Nervous_system" xlink:title="Nervous system">
<ellipse fill="lightskyblue" stroke="lightskyblue" cx="200.19" cy="-810" rx="69.59" ry="18"/>
<text text-anchor="middle" x="200.19" y="-806.3" font-family="Times New Roman,serif" font-size="14.00">Nervous system</text>
</a>
</g>
</g>
<!-- Sensory nervous system&#45;&gt;Nervous system -->
<g id="edge21" class="edge">
<title>Sensory nervous system&#45;&gt;Nervous system</title>
<path fill="none" stroke="black" d="M200.19,-863.7C200.19,-855.98 200.19,-846.71 200.19,-838.11"/>
<polygon fill="black" stroke="black" points="203.69,-838.1 200.19,-828.1 196.69,-838.1 203.69,-838.1"/>
</g>
<!-- Biology -->
<g id="node23" class="node">
<title>Biology</title>
<g id="a_node23"><a xlink:href="https://en.wikipedia.org/wiki/Biology" xlink:title="Biology">
<ellipse fill="lightskyblue" stroke="lightskyblue" cx="200.19" cy="-738" rx="38.99" ry="18"/>
<text text-anchor="middle" x="200.19" y="-734.3" font-family="Times New Roman,serif" font-size="14.00">Biology</text>
</a>
</g>
</g>
<!-- Nervous system&#45;&gt;Biology -->
<g id="edge22" class="edge">
<title>Nervous system&#45;&gt;Biology</title>
<path fill="none" stroke="black" d="M200.19,-791.7C200.19,-783.98 200.19,-774.71 200.19,-766.11"/>
<polygon fill="black" stroke="black" points="203.69,-766.1 200.19,-756.1 196.69,-766.1 203.69,-766.1"/>
</g>
<!-- Natural science -->
<g id="node24" class="node">
<title>Natural science</title>
<g id="a_node24"><a xlink:href="https://en.wikipedia.org/wiki/Natural_science" xlink:title="Natural science">
<ellipse fill="lightskyblue" stroke="lightskyblue" cx="200.19" cy="-666" rx="65.79" ry="18"/>
<text text-anchor="middle" x="200.19" y="-662.3" font-family="Times New Roman,serif" font-size="14.00">Natural science</text>
</a>
</g>
</g>
<!-- Biology&#45;&gt;Natural science -->
<g id="edge23" class="edge">
<title>Biology&#45;&gt;Natural science</title>
<path fill="none" stroke="black" d="M200.19,-719.7C200.19,-711.98 200.19,-702.71 200.19,-694.11"/>
<polygon fill="black" stroke="black" points="203.69,-694.1 200.19,-684.1 196.69,-694.1 203.69,-694.1"/>
</g>
<!-- Branches of science -->
<g id="node25" class="node">
<title>Branches of science</title>
<g id="a_node25"><a xlink:href="https://en.wikipedia.org/wiki/Branches_of_science" xlink:title="Branches of science">
<ellipse fill="lightskyblue" stroke="lightskyblue" cx="200.19" cy="-594" rx="83.69" ry="18"/>
<text text-anchor="middle" x="200.19" y="-590.3" font-family="Times New Roman,serif" font-size="14.00">Branches of science</text>
</a>
</g>
</g>
<!-- Natural science&#45;&gt;Branches of science -->
<g id="edge24" class="edge">
<title>Natural science&#45;&gt;Branches of science</title>
<path fill="none" stroke="black" d="M200.19,-647.7C200.19,-639.98 200.19,-630.71 200.19,-622.11"/>
<polygon fill="black" stroke="black" points="203.69,-622.1 200.19,-612.1 196.69,-622.1 203.69,-622.1"/>
</g>
<!-- Science -->
<g id="node26" class="node">
<title>Science</title>
<g id="a_node26"><a xlink:href="https://en.wikipedia.org/wiki/Science" xlink:title="Science">
<ellipse fill="lightskyblue" stroke="lightskyblue" cx="276.19" cy="-522" rx="38.99" ry="18"/>
<text text-anchor="middle" x="276.19" y="-518.3" font-family="Times New Roman,serif" font-size="14.00">Science</text>
</a>
</g>
</g>
<!-- Branches of science&#45;&gt;Science -->
<g id="edge25" class="edge">
<title>Branches of science&#45;&gt;Science</title>
<path fill="none" stroke="black" d="M218.2,-576.41C228.23,-567.17 240.86,-555.54 251.77,-545.49"/>
<polygon fill="black" stroke="black" points="254.36,-547.86 259.35,-538.51 249.62,-542.71 254.36,-547.86"/>
</g>
<!-- Scientific method -->
<g id="node27" class="node">
<title>Scientific method</title>
<g id="a_node27"><a xlink:href="https://en.wikipedia.org/wiki/Scientific_method" xlink:title="Scientific method">
<ellipse fill="lightskyblue" stroke="lightskyblue" cx="276.19" cy="-450" rx="74.19" ry="18"/>
<text text-anchor="middle" x="276.19" y="-446.3" font-family="Times New Roman,serif" font-size="14.00">Scientific method</text>
</a>
</g>
</g>
<!-- Science&#45;&gt;Scientific method -->
<g id="edge26" class="edge">
<title>Science&#45;&gt;Scientific method</title>
<path fill="none" stroke="black" d="M276.19,-503.7C276.19,-495.98 276.19,-486.71 276.19,-478.11"/>
<polygon fill="black" stroke="black" points="279.69,-478.1 276.19,-468.1 272.69,-478.1 279.69,-478.1"/>
</g>
<!-- Empirical evidence -->
<g id="node28" class="node">
<title>Empirical evidence</title>
<g id="a_node28"><a xlink:href="https://en.wikipedia.org/wiki/Empirical_evidence" xlink:title="Empirical evidence">
<ellipse fill="lightskyblue" stroke="lightskyblue" cx="276.19" cy="-378" rx="79.09" ry="18"/>
<text text-anchor="middle" x="276.19" y="-374.3" font-family="Times New Roman,serif" font-size="14.00">Empirical evidence</text>
</a>
</g>
</g>
<!-- Scientific method&#45;&gt;Empirical evidence -->
<g id="edge27" class="edge">
<title>Scientific method&#45;&gt;Empirical evidence</title>
<path fill="none" stroke="black" d="M276.19,-431.7C276.19,-423.98 276.19,-414.71 276.19,-406.11"/>
<polygon fill="black" stroke="black" points="279.69,-406.1 276.19,-396.1 272.69,-406.1 279.69,-406.1"/>
</g>
<!-- Information -->
<g id="node29" class="node">
<title>Information</title>
<g id="a_node29"><a xlink:href="https://en.wikipedia.org/wiki/Information" xlink:title="Information">
<ellipse fill="lightskyblue" stroke="lightskyblue" cx="276.19" cy="-306" rx="53.09" ry="18"/>
<text text-anchor="middle" x="276.19" y="-302.3" font-family="Times New Roman,serif" font-size="14.00">Information</text>
</a>
</g>
</g>
<!-- Empirical evidence&#45;&gt;Information -->
<g id="edge28" class="edge">
<title>Empirical evidence&#45;&gt;Information</title>
<path fill="none" stroke="black" d="M276.19,-359.7C276.19,-351.98 276.19,-342.71 276.19,-334.11"/>
<polygon fill="black" stroke="black" points="279.69,-334.1 276.19,-324.1 272.69,-334.1 279.69,-334.1"/>
</g>
<!-- Uncertainty -->
<g id="node30" class="node">
<title>Uncertainty</title>
<g id="a_node30"><a xlink:href="https://en.wikipedia.org/wiki/Uncertainty" xlink:title="Uncertainty">
<ellipse fill="lightskyblue" stroke="lightskyblue" cx="276.19" cy="-234" rx="51.99" ry="18"/>
<text text-anchor="middle" x="276.19" y="-230.3" font-family="Times New Roman,serif" font-size="14.00">Uncertainty</text>
</a>
</g>
</g>
<!-- Information&#45;&gt;Uncertainty -->
<g id="edge29" class="edge">
<title>Information&#45;&gt;Uncertainty</title>
<path fill="none" stroke="black" d="M276.19,-287.7C276.19,-279.98 276.19,-270.71 276.19,-262.11"/>
<polygon fill="black" stroke="black" points="279.69,-262.1 276.19,-252.1 272.69,-262.1 279.69,-262.1"/>
</g>
<!-- Epistemology -->
<g id="node31" class="node">
<title>Epistemology</title>
<g id="a_node31"><a xlink:href="https://en.wikipedia.org/wiki/Epistemology" xlink:title="Epistemology">
<ellipse fill="lightskyblue" stroke="lightskyblue" cx="276.19" cy="-162" rx="60.39" ry="18"/>
<text text-anchor="middle" x="276.19" y="-158.3" font-family="Times New Roman,serif" font-size="14.00">Epistemology</text>
</a>
</g>
</g>
<!-- Uncertainty&#45;&gt;Epistemology -->
<g id="edge30" class="edge">
<title>Uncertainty&#45;&gt;Epistemology</title>
<path fill="none" stroke="black" d="M276.19,-215.7C276.19,-207.98 276.19,-198.71 276.19,-190.11"/>
<polygon fill="black" stroke="black" points="279.69,-190.1 276.19,-180.1 272.69,-190.1 279.69,-190.1"/>
</g>
<!-- Outline of philosophy -->
<g id="node32" class="node">
<title>Outline of philosophy</title>
<g id="a_node32"><a xlink:href="https://en.wikipedia.org/wiki/Outline_of_philosophy" xlink:title="Outline of philosophy">
<ellipse fill="lightskyblue" stroke="lightskyblue" cx="276.19" cy="-90" rx="89.88" ry="18"/>
<text text-anchor="middle" x="276.19" y="-86.3" font-family="Times New Roman,serif" font-size="14.00">Outline of philosophy</text>
</a>
</g>
</g>
<!-- Epistemology&#45;&gt;Outline of philosophy -->
<g id="edge31" class="edge">
<title>Epistemology&#45;&gt;Outline of philosophy</title>
<path fill="none" stroke="black" d="M276.19,-143.7C276.19,-135.98 276.19,-126.71 276.19,-118.11"/>
<polygon fill="black" stroke="black" points="279.69,-118.1 276.19,-108.1 272.69,-118.1 279.69,-118.1"/>
</g>
<!-- Philosophy -->
<g id="node33" class="node">
<title>Philosophy</title>
<g id="a_node33"><a xlink:href="https://en.wikipedia.org/wiki/Philosophy" xlink:title="Philosophy">
<ellipse fill="lightskyblue" stroke="lightskyblue" cx="276.19" cy="-18" rx="51.99" ry="18"/>
<text text-anchor="middle" x="276.19" y="-14.3" font-family="Times New Roman,serif" font-size="14.00">Philosophy</text>
</a>
</g>
</g>
<!-- Outline of philosophy&#45;&gt;Philosophy -->
<g id="edge32" class="edge">
<title>Outline of philosophy&#45;&gt;Philosophy</title>
<path fill="none" stroke="black" d="M276.19,-71.7C276.19,-63.98 276.19,-54.71 276.19,-46.11"/>
<polygon fill="black" stroke="black" points="279.69,-46.1 276.19,-36.1 272.69,-46.1 279.69,-46.1"/>
</g>
<!-- LGBT -->
<g id="node34" class="node">
<title>LGBT</title>
<g id="a_node34"><a xlink:href="https://en.wikipedia.org/wiki/LGBT" xlink:title="LGBT">
<ellipse fill="#b0e2ff" stroke="#b0e2ff" cx="352.19" cy="-810" rx="34.39" ry="18"/>
<text text-anchor="middle" x="352.19" y="-806.3" font-family="Times New Roman,serif" font-size="14.00">LGBT</text>
</a>
</g>
</g>
<!-- Initialism -->
<g id="node35" class="node">
<title>Initialism</title>
<g id="a_node35"><a xlink:href="https://en.wikipedia.org/wiki/Initialism" xlink:title="Initialism">
<ellipse fill="lightskyblue" stroke="lightskyblue" cx="352.19" cy="-738" rx="42.79" ry="18"/>
<text text-anchor="middle" x="352.19" y="-734.3" font-family="Times New Roman,serif" font-size="14.00">Initialism</text>
</a>
</g>
</g>
<!-- LGBT&#45;&gt;Initialism -->
<g id="edge33" class="edge">
<title>LGBT&#45;&gt;Initialism</title>
<path fill="none" stroke="black" d="M352.19,-791.7C352.19,-783.98 352.19,-774.71 352.19,-766.11"/>
<polygon fill="black" stroke="black" points="355.69,-766.1 352.19,-756.1 348.69,-766.1 355.69,-766.1"/>
</g>
<!-- Word -->
<g id="node36" class="node">
<title>Word</title>
<g id="a_node36"><a xlink:href="https://en.wikipedia.org/wiki/Word" xlink:title="Word">
<ellipse fill="lightskyblue" stroke="lightskyblue" cx="352.19" cy="-666" rx="32.49" ry="18"/>
<text text-anchor="middle" x="352.19" y="-662.3" font-family="Times New Roman,serif" font-size="14.00">Word</text>
</a>
</g>
</g>
<!-- Initialism&#45;&gt;Word -->
<g id="edge34" class="edge">
<title>Initialism&#45;&gt;Word</title>
<path fill="none" stroke="black" d="M352.19,-719.7C352.19,-711.98 352.19,-702.71 352.19,-694.11"/>
<polygon fill="black" stroke="black" points="355.69,-694.1 352.19,-684.1 348.69,-694.1 355.69,-694.1"/>
</g>
<!-- Linguistics -->
<g id="node37" class="node">
<title>Linguistics</title>
<g id="a_node37"><a xlink:href="https://en.wikipedia.org/wiki/Linguistics" xlink:title="Linguistics">
<ellipse fill="lightskyblue" stroke="lightskyblue" cx="352.19" cy="-594" rx="50.09" ry="18"/>
<text text-anchor="middle" x="352.19" y="-590.3" font-family="Times New Roman,serif" font-size="14.00">Linguistics</text>
</a>
</g>
</g>
<!-- Word&#45;&gt;Linguistics -->
<g id="edge35" class="edge">
<title>Word&#45;&gt;Linguistics</title>
<path fill="none" stroke="black" d="M352.19,-647.7C352.19,-639.98 352.19,-630.71 352.19,-622.11"/>
<polygon fill="black" stroke="black" points="355.69,-622.1 352.19,-612.1 348.69,-622.1 355.69,-622.1"/>
</g>
<!-- Linguistics&#45;&gt;Science -->
<g id="edge36" class="edge">
<title>Linguistics&#45;&gt;Science</title>
<path fill="none" stroke="black" d="M334.56,-576.76C324.47,-567.47 311.66,-555.67 300.61,-545.49"/>
<polygon fill="black" stroke="black" points="302.66,-542.63 292.94,-538.43 297.92,-547.78 302.66,-542.63"/>
</g>
<!-- Among Us -->
<g id="node38" class="node">
<title>Among Us</title>
<g id="a_node38"><a xlink:href="https://en.wikipedia.org/wiki/Among_Us" xlink:title="Among Us">
<ellipse fill="#b0e2ff" stroke="#b0e2ff" cx="279.19" cy="-1458" rx="50.09" ry="18"/>
<text text-anchor="middle" x="279.19" y="-1454.3" font-family="Times New Roman,serif" font-size="14.00">Among Us</text>
</a>
</g>
</g>
<!-- Social deduction game -->
<g id="node39" class="node">
<title>Social deduction game</title>
<g id="a_node39"><a xlink:href="https://en.wikipedia.org/wiki/Social_deduction_game" xlink:title="Social deduction game">
<ellipse fill="lightskyblue" stroke="lightskyblue" cx="279.19" cy="-1386" rx="92.88" ry="18"/>
<text text-anchor="middle" x="279.19" y="-1382.3" font-family="Times New Roman,serif" font-size="14.00">Social deduction game</text>
</a>
</g>
</g>
<!-- Among Us&#45;&gt;Social deduction game -->
<g id="edge37" class="edge">
<title>Among Us&#45;&gt;Social deduction game</title>
<path fill="none" stroke="black" d="M279.19,-1439.7C279.19,-1431.98 279.19,-1422.71 279.19,-1414.11"/>
<polygon fill="black" stroke="black" points="282.69,-1414.1 279.19,-1404.1 275.69,-1414.1 282.69,-1414.1"/>
</g>
<!-- Deductive -->
<g id="node40" class="node">
<title>Deductive</title>
<g id="a_node40"><a xlink:href="https://en.wikipedia.org/wiki/Deductive" xlink:title="Deductive">
<ellipse fill="lightskyblue" stroke="lightskyblue" cx="276.19" cy="-1314" rx="47.39" ry="18"/>
<text text-anchor="middle" x="276.19" y="-1310.3" font-family="Times New Roman,serif" font-size="14.00">Deductive</text>
</a>
</g>
</g>
<!-- Social deduction game&#45;&gt;Deductive -->
<g id="edge38" class="edge">
<title>Social deduction game&#45;&gt;Deductive</title>
<path fill="none" stroke="black" d="M278.45,-1367.7C278.12,-1359.98 277.72,-1350.71 277.35,-1342.11"/>
<polygon fill="black" stroke="black" points="280.85,-1341.95 276.92,-1332.1 273.85,-1342.25 280.85,-1341.95"/>
</g>
<!-- Reasoning -->
<g id="node41" class="node">
<title>Reasoning</title>
<g id="a_node41"><a xlink:href="https://en.wikipedia.org/wiki/Reasoning" xlink:title="Reasoning">
<ellipse fill="lightskyblue" stroke="lightskyblue" cx="264.19" cy="-1242" rx="48.99" ry="18"/>
<text text-anchor="middle" x="264.19" y="-1238.3" font-family="Times New Roman,serif" font-size="14.00">Reasoning</text>
</a>
</g>
</g>
<!-- Deductive&#45;&gt;Reasoning -->
<g id="edge39" class="edge">
<title>Deductive&#45;&gt;Reasoning</title>
<path fill="none" stroke="black" d="M273.22,-1295.7C271.9,-1287.98 270.31,-1278.71 268.84,-1270.11"/>
<polygon fill="black" stroke="black" points="272.26,-1269.37 267.12,-1260.1 265.36,-1270.55 272.26,-1269.37"/>
</g>
<!-- Reasoning&#45;&gt;Consciousness -->
<g id="edge40" class="edge">
<title>Reasoning&#45;&gt;Consciousness</title>
<path fill="none" stroke="black" d="M249.35,-1224.76C241.3,-1215.97 231.21,-1204.93 222.26,-1195.14"/>
<polygon fill="black" stroke="black" points="224.73,-1192.65 215.4,-1187.63 219.56,-1197.38 224.73,-1192.65"/>
</g>
</g>
</svg>
