<?xml version="1.0" encoding="UTF-8" standalone="no"?>
<!DOCTYPE svg PUBLIC "-//W3C//DTD SVG 1.1//EN"
 "http://www.w3.org/Graphics/SVG/1.1/DTD/svg11.dtd">
<!-- Generated by graphviz version 2.46.0 (20210118.1747)
 -->
<!-- Title: unix Pages: 1 -->
<svg width="655pt" height="2443pt"
 viewBox="0.00 0.00 655.19 2443.00" xmlns="http://www.w3.org/2000/svg" xmlns:xlink="http://www.w3.org/1999/xlink">
<g id="graph0" class="graph" transform="scale(1 1) rotate(0) translate(4 2439)">
<title>unix</title>
<polygon fill="white" stroke="transparent" points="-4,4 -4,-2439 651.19,-2439 651.19,4 -4,4"/>
<text text-anchor="middle" x="323.59" y="-7.8" font-family="Times New Roman,serif" font-size="14.00">Graph generated on 08/05/2021 14:44:13. Checked 4 pages.</text>
<!-- Paralysis -->
<g id="node1" class="node">
<title>Paralysis</title>
<g id="a_node1"><a xlink:href="https://en.wikipedia.org/wiki/Paralysis" xlink:title="Paralysis">
<ellipse fill="#b0e2ff" stroke="#b0e2ff" cx="81.89" cy="-1481" rx="42.79" ry="18"/>
<text text-anchor="middle" x="81.89" y="-1477.3" font-family="Times New Roman,serif" font-size="14.00">Paralysis</text>
</a>
</g>
</g>
<!-- Motor skill -->
<g id="node2" class="node">
<title>Motor skill</title>
<g id="a_node2"><a xlink:href="https://en.wikipedia.org/wiki/Motor_skill" xlink:title="Motor skill">
<ellipse fill="lightskyblue" stroke="lightskyblue" cx="81.89" cy="-1409" rx="50.09" ry="18"/>
<text text-anchor="middle" x="81.89" y="-1405.3" font-family="Times New Roman,serif" font-size="14.00">Motor skill</text>
</a>
</g>
</g>
<!-- Paralysis&#45;&gt;Motor skill -->
<g id="edge1" class="edge">
<title>Paralysis&#45;&gt;Motor skill</title>
<path fill="none" stroke="black" d="M81.89,-1462.7C81.89,-1454.98 81.89,-1445.71 81.89,-1437.11"/>
<polygon fill="black" stroke="black" points="85.39,-1437.1 81.89,-1427.1 78.39,-1437.1 85.39,-1437.1"/>
</g>
<!-- Skill -->
<g id="node3" class="node">
<title>Skill</title>
<g id="a_node3"><a xlink:href="https://en.wikipedia.org/wiki/Skill" xlink:title="Skill">
<ellipse fill="lightskyblue" stroke="lightskyblue" cx="81.89" cy="-1337" rx="27" ry="18"/>
<text text-anchor="middle" x="81.89" y="-1333.3" font-family="Times New Roman,serif" font-size="14.00">Skill</text>
</a>
</g>
</g>
<!-- Motor skill&#45;&gt;Skill -->
<g id="edge2" class="edge">
<title>Motor skill&#45;&gt;Skill</title>
<path fill="none" stroke="black" d="M81.89,-1390.7C81.89,-1382.98 81.89,-1373.71 81.89,-1365.11"/>
<polygon fill="black" stroke="black" points="85.39,-1365.1 81.89,-1355.1 78.39,-1365.1 85.39,-1365.1"/>
</g>
<!-- Departmentalization -->
<g id="node4" class="node">
<title>Departmentalization</title>
<g id="a_node4"><a xlink:href="https://en.wikipedia.org/wiki/Departmentalization" xlink:title="Departmentalization">
<ellipse fill="lightskyblue" stroke="lightskyblue" cx="81.89" cy="-1265" rx="81.79" ry="18"/>
<text text-anchor="middle" x="81.89" y="-1261.3" font-family="Times New Roman,serif" font-size="14.00">Departmentalization</text>
</a>
</g>
</g>
<!-- Skill&#45;&gt;Departmentalization -->
<g id="edge3" class="edge">
<title>Skill&#45;&gt;Departmentalization</title>
<path fill="none" stroke="black" d="M81.89,-1318.7C81.89,-1310.98 81.89,-1301.71 81.89,-1293.11"/>
<polygon fill="black" stroke="black" points="85.39,-1293.1 81.89,-1283.1 78.39,-1293.1 85.39,-1293.1"/>
</g>
<!-- Division of labour -->
<g id="node5" class="node">
<title>Division of labour</title>
<g id="a_node5"><a xlink:href="https://en.wikipedia.org/wiki/Division_of_labour" xlink:title="Division of labour">
<ellipse fill="lightskyblue" stroke="lightskyblue" cx="81.89" cy="-1193" rx="76.09" ry="18"/>
<text text-anchor="middle" x="81.89" y="-1189.3" font-family="Times New Roman,serif" font-size="14.00">Division of labour</text>
</a>
</g>
</g>
<!-- Departmentalization&#45;&gt;Division of labour -->
<g id="edge4" class="edge">
<title>Departmentalization&#45;&gt;Division of labour</title>
<path fill="none" stroke="black" d="M81.89,-1246.7C81.89,-1238.98 81.89,-1229.71 81.89,-1221.11"/>
<polygon fill="black" stroke="black" points="85.39,-1221.1 81.89,-1211.1 78.39,-1221.1 85.39,-1221.1"/>
</g>
<!-- Economic system -->
<g id="node6" class="node">
<title>Economic system</title>
<g id="a_node6"><a xlink:href="https://en.wikipedia.org/wiki/Economic_system" xlink:title="Economic system">
<ellipse fill="lightskyblue" stroke="lightskyblue" cx="81.89" cy="-1121" rx="75.29" ry="18"/>
<text text-anchor="middle" x="81.89" y="-1117.3" font-family="Times New Roman,serif" font-size="14.00">Economic system</text>
</a>
</g>
</g>
<!-- Division of labour&#45;&gt;Economic system -->
<g id="edge5" class="edge">
<title>Division of labour&#45;&gt;Economic system</title>
<path fill="none" stroke="black" d="M81.89,-1174.7C81.89,-1166.98 81.89,-1157.71 81.89,-1149.11"/>
<polygon fill="black" stroke="black" points="85.39,-1149.1 81.89,-1139.1 78.39,-1149.1 85.39,-1149.1"/>
</g>
<!-- System -->
<g id="node7" class="node">
<title>System</title>
<g id="a_node7"><a xlink:href="https://en.wikipedia.org/wiki/System" xlink:title="System">
<ellipse fill="lightskyblue" stroke="lightskyblue" cx="81.89" cy="-1049" rx="37.89" ry="18"/>
<text text-anchor="middle" x="81.89" y="-1045.3" font-family="Times New Roman,serif" font-size="14.00">System</text>
</a>
</g>
</g>
<!-- Economic system&#45;&gt;System -->
<g id="edge6" class="edge">
<title>Economic system&#45;&gt;System</title>
<path fill="none" stroke="black" d="M81.89,-1102.7C81.89,-1094.98 81.89,-1085.71 81.89,-1077.11"/>
<polygon fill="black" stroke="black" points="85.39,-1077.1 81.89,-1067.1 78.39,-1077.1 85.39,-1077.1"/>
</g>
<!-- Interaction -->
<g id="node8" class="node">
<title>Interaction</title>
<g id="a_node8"><a xlink:href="https://en.wikipedia.org/wiki/Interaction" xlink:title="Interaction">
<ellipse fill="lightskyblue" stroke="lightskyblue" cx="81.89" cy="-977" rx="49.29" ry="18"/>
<text text-anchor="middle" x="81.89" y="-973.3" font-family="Times New Roman,serif" font-size="14.00">Interaction</text>
</a>
</g>
</g>
<!-- System&#45;&gt;Interaction -->
<g id="edge7" class="edge">
<title>System&#45;&gt;Interaction</title>
<path fill="none" stroke="black" d="M81.89,-1030.7C81.89,-1022.98 81.89,-1013.71 81.89,-1005.11"/>
<polygon fill="black" stroke="black" points="85.39,-1005.1 81.89,-995.1 78.39,-1005.1 85.39,-1005.1"/>
</g>
<!-- Causality -->
<g id="node9" class="node">
<title>Causality</title>
<g id="a_node9"><a xlink:href="https://en.wikipedia.org/wiki/Causality" xlink:title="Causality">
<ellipse fill="lightskyblue" stroke="lightskyblue" cx="81.89" cy="-905" rx="44.39" ry="18"/>
<text text-anchor="middle" x="81.89" y="-901.3" font-family="Times New Roman,serif" font-size="14.00">Causality</text>
</a>
</g>
</g>
<!-- Interaction&#45;&gt;Causality -->
<g id="edge8" class="edge">
<title>Interaction&#45;&gt;Causality</title>
<path fill="none" stroke="black" d="M81.89,-958.7C81.89,-950.98 81.89,-941.71 81.89,-933.11"/>
<polygon fill="black" stroke="black" points="85.39,-933.1 81.89,-923.1 78.39,-933.1 85.39,-933.1"/>
</g>
<!-- Event (relativity) -->
<g id="node10" class="node">
<title>Event (relativity)</title>
<g id="a_node10"><a xlink:href="https://en.wikipedia.org/wiki/Event_(relativity)" xlink:title="Event (relativity)">
<ellipse fill="lightskyblue" stroke="lightskyblue" cx="91.89" cy="-833" rx="69.59" ry="18"/>
<text text-anchor="middle" x="91.89" y="-829.3" font-family="Times New Roman,serif" font-size="14.00">Event (relativity)</text>
</a>
</g>
</g>
<!-- Causality&#45;&gt;Event (relativity) -->
<g id="edge9" class="edge">
<title>Causality&#45;&gt;Event (relativity)</title>
<path fill="none" stroke="black" d="M84.36,-886.7C85.47,-878.98 86.79,-869.71 88.02,-861.11"/>
<polygon fill="black" stroke="black" points="91.5,-861.5 89.45,-851.1 84.57,-860.51 91.5,-861.5"/>
</g>
<!-- Physics -->
<g id="node11" class="node">
<title>Physics</title>
<g id="a_node11"><a xlink:href="https://en.wikipedia.org/wiki/Physics" xlink:title="Physics">
<ellipse fill="lightskyblue" stroke="lightskyblue" cx="119.89" cy="-761" rx="38.99" ry="18"/>
<text text-anchor="middle" x="119.89" y="-757.3" font-family="Times New Roman,serif" font-size="14.00">Physics</text>
</a>
</g>
</g>
<!-- Event (relativity)&#45;&gt;Physics -->
<g id="edge10" class="edge">
<title>Event (relativity)&#45;&gt;Physics</title>
<path fill="none" stroke="black" d="M98.67,-815.05C101.9,-806.97 105.84,-797.12 109.45,-788.11"/>
<polygon fill="black" stroke="black" points="112.71,-789.37 113.18,-778.79 106.21,-786.77 112.71,-789.37"/>
</g>
<!-- Natural science -->
<g id="node12" class="node">
<title>Natural science</title>
<g id="a_node12"><a xlink:href="https://en.wikipedia.org/wiki/Natural_science" xlink:title="Natural science">
<ellipse fill="lightskyblue" stroke="lightskyblue" cx="236.89" cy="-689" rx="65.79" ry="18"/>
<text text-anchor="middle" x="236.89" y="-685.3" font-family="Times New Roman,serif" font-size="14.00">Natural science</text>
</a>
</g>
</g>
<!-- Physics&#45;&gt;Natural science -->
<g id="edge11" class="edge">
<title>Physics&#45;&gt;Natural science</title>
<path fill="none" stroke="black" d="M142.73,-746.34C159.61,-736.24 182.89,-722.31 202.08,-710.83"/>
<polygon fill="black" stroke="black" points="204.07,-713.72 210.85,-705.58 200.47,-707.71 204.07,-713.72"/>
</g>
<!-- Branches of science -->
<g id="node13" class="node">
<title>Branches of science</title>
<g id="a_node13"><a xlink:href="https://en.wikipedia.org/wiki/Branches_of_science" xlink:title="Branches of science">
<ellipse fill="lightskyblue" stroke="lightskyblue" cx="282.89" cy="-617" rx="83.69" ry="18"/>
<text text-anchor="middle" x="282.89" y="-613.3" font-family="Times New Roman,serif" font-size="14.00">Branches of science</text>
</a>
</g>
</g>
<!-- Natural science&#45;&gt;Branches of science -->
<g id="edge12" class="edge">
<title>Natural science&#45;&gt;Branches of science</title>
<path fill="none" stroke="black" d="M248.03,-671.05C253.43,-662.84 260.03,-652.79 266.03,-643.66"/>
<polygon fill="black" stroke="black" points="268.97,-645.55 271.54,-635.28 263.12,-641.71 268.97,-645.55"/>
</g>
<!-- Science -->
<g id="node14" class="node">
<title>Science</title>
<g id="a_node14"><a xlink:href="https://en.wikipedia.org/wiki/Science" xlink:title="Science">
<ellipse fill="lightskyblue" stroke="lightskyblue" cx="360.89" cy="-545" rx="38.99" ry="18"/>
<text text-anchor="middle" x="360.89" y="-541.3" font-family="Times New Roman,serif" font-size="14.00">Science</text>
</a>
</g>
</g>
<!-- Branches of science&#45;&gt;Science -->
<g id="edge13" class="edge">
<title>Branches of science&#45;&gt;Science</title>
<path fill="none" stroke="black" d="M301.38,-599.41C311.85,-590.02 325.07,-578.15 336.4,-567.99"/>
<polygon fill="black" stroke="black" points="338.77,-570.56 343.87,-561.27 334.09,-565.35 338.77,-570.56"/>
</g>
<!-- Scientific method -->
<g id="node15" class="node">
<title>Scientific method</title>
<g id="a_node15"><a xlink:href="https://en.wikipedia.org/wiki/Scientific_method" xlink:title="Scientific method">
<ellipse fill="lightskyblue" stroke="lightskyblue" cx="360.89" cy="-473" rx="74.19" ry="18"/>
<text text-anchor="middle" x="360.89" y="-469.3" font-family="Times New Roman,serif" font-size="14.00">Scientific method</text>
</a>
</g>
</g>
<!-- Science&#45;&gt;Scientific method -->
<g id="edge14" class="edge">
<title>Science&#45;&gt;Scientific method</title>
<path fill="none" stroke="black" d="M360.89,-526.7C360.89,-518.98 360.89,-509.71 360.89,-501.11"/>
<polygon fill="black" stroke="black" points="364.39,-501.1 360.89,-491.1 357.39,-501.1 364.39,-501.1"/>
</g>
<!-- Empirical evidence -->
<g id="node16" class="node">
<title>Empirical evidence</title>
<g id="a_node16"><a xlink:href="https://en.wikipedia.org/wiki/Empirical_evidence" xlink:title="Empirical evidence">
<ellipse fill="lightskyblue" stroke="lightskyblue" cx="360.89" cy="-401" rx="79.09" ry="18"/>
<text text-anchor="middle" x="360.89" y="-397.3" font-family="Times New Roman,serif" font-size="14.00">Empirical evidence</text>
</a>
</g>
</g>
<!-- Scientific method&#45;&gt;Empirical evidence -->
<g id="edge15" class="edge">
<title>Scientific method&#45;&gt;Empirical evidence</title>
<path fill="none" stroke="black" d="M360.89,-454.7C360.89,-446.98 360.89,-437.71 360.89,-429.11"/>
<polygon fill="black" stroke="black" points="364.39,-429.1 360.89,-419.1 357.39,-429.1 364.39,-429.1"/>
</g>
<!-- Information -->
<g id="node17" class="node">
<title>Information</title>
<g id="a_node17"><a xlink:href="https://en.wikipedia.org/wiki/Information" xlink:title="Information">
<ellipse fill="lightskyblue" stroke="lightskyblue" cx="360.89" cy="-329" rx="53.09" ry="18"/>
<text text-anchor="middle" x="360.89" y="-325.3" font-family="Times New Roman,serif" font-size="14.00">Information</text>
</a>
</g>
</g>
<!-- Empirical evidence&#45;&gt;Information -->
<g id="edge16" class="edge">
<title>Empirical evidence&#45;&gt;Information</title>
<path fill="none" stroke="black" d="M360.89,-382.7C360.89,-374.98 360.89,-365.71 360.89,-357.11"/>
<polygon fill="black" stroke="black" points="364.39,-357.1 360.89,-347.1 357.39,-357.1 364.39,-357.1"/>
</g>
<!-- Uncertainty -->
<g id="node18" class="node">
<title>Uncertainty</title>
<g id="a_node18"><a xlink:href="https://en.wikipedia.org/wiki/Uncertainty" xlink:title="Uncertainty">
<ellipse fill="lightskyblue" stroke="lightskyblue" cx="360.89" cy="-257" rx="51.99" ry="18"/>
<text text-anchor="middle" x="360.89" y="-253.3" font-family="Times New Roman,serif" font-size="14.00">Uncertainty</text>
</a>
</g>
</g>
<!-- Information&#45;&gt;Uncertainty -->
<g id="edge17" class="edge">
<title>Information&#45;&gt;Uncertainty</title>
<path fill="none" stroke="black" d="M360.89,-310.7C360.89,-302.98 360.89,-293.71 360.89,-285.11"/>
<polygon fill="black" stroke="black" points="364.39,-285.1 360.89,-275.1 357.39,-285.1 364.39,-285.1"/>
</g>
<!-- Epistemology -->
<g id="node19" class="node">
<title>Epistemology</title>
<g id="a_node19"><a xlink:href="https://en.wikipedia.org/wiki/Epistemology" xlink:title="Epistemology">
<ellipse fill="lightskyblue" stroke="lightskyblue" cx="360.89" cy="-185" rx="60.39" ry="18"/>
<text text-anchor="middle" x="360.89" y="-181.3" font-family="Times New Roman,serif" font-size="14.00">Epistemology</text>
</a>
</g>
</g>
<!-- Uncertainty&#45;&gt;Epistemology -->
<g id="edge18" class="edge">
<title>Uncertainty&#45;&gt;Epistemology</title>
<path fill="none" stroke="black" d="M360.89,-238.7C360.89,-230.98 360.89,-221.71 360.89,-213.11"/>
<polygon fill="black" stroke="black" points="364.39,-213.1 360.89,-203.1 357.39,-213.1 364.39,-213.1"/>
</g>
<!-- Outline of philosophy -->
<g id="node20" class="node">
<title>Outline of philosophy</title>
<g id="a_node20"><a xlink:href="https://en.wikipedia.org/wiki/Outline_of_philosophy" xlink:title="Outline of philosophy">
<ellipse fill="lightskyblue" stroke="lightskyblue" cx="360.89" cy="-113" rx="89.88" ry="18"/>
<text text-anchor="middle" x="360.89" y="-109.3" font-family="Times New Roman,serif" font-size="14.00">Outline of philosophy</text>
</a>
</g>
</g>
<!-- Epistemology&#45;&gt;Outline of philosophy -->
<g id="edge19" class="edge">
<title>Epistemology&#45;&gt;Outline of philosophy</title>
<path fill="none" stroke="black" d="M360.89,-166.7C360.89,-158.98 360.89,-149.71 360.89,-141.11"/>
<polygon fill="black" stroke="black" points="364.39,-141.1 360.89,-131.1 357.39,-141.1 364.39,-141.1"/>
</g>
<!-- Philosophy -->
<g id="node21" class="node">
<title>Philosophy</title>
<g id="a_node21"><a xlink:href="https://en.wikipedia.org/wiki/Philosophy" xlink:title="Philosophy">
<ellipse fill="lightskyblue" stroke="lightskyblue" cx="360.89" cy="-41" rx="51.99" ry="18"/>
<text text-anchor="middle" x="360.89" y="-37.3" font-family="Times New Roman,serif" font-size="14.00">Philosophy</text>
</a>
</g>
</g>
<!-- Outline of philosophy&#45;&gt;Philosophy -->
<g id="edge20" class="edge">
<title>Outline of philosophy&#45;&gt;Philosophy</title>
<path fill="none" stroke="black" d="M360.89,-94.7C360.89,-86.98 360.89,-77.71 360.89,-69.11"/>
<polygon fill="black" stroke="black" points="364.39,-69.1 360.89,-59.1 357.39,-69.1 364.39,-69.1"/>
</g>
<!-- Blue&#45;water navy -->
<g id="node22" class="node">
<title>Blue&#45;water navy</title>
<g id="a_node22"><a xlink:href="https://en.wikipedia.org/wiki/Blue-water_navy" xlink:title="Blue&#45;water navy">
<ellipse fill="#b0e2ff" stroke="#b0e2ff" cx="370.89" cy="-2417" rx="68.79" ry="18"/>
<text text-anchor="middle" x="370.89" y="-2413.3" font-family="Times New Roman,serif" font-size="14.00">Blue&#45;water navy</text>
</a>
</g>
</g>
<!-- Navy -->
<g id="node23" class="node">
<title>Navy</title>
<g id="a_node23"><a xlink:href="https://en.wikipedia.org/wiki/Navy" xlink:title="Navy">
<ellipse fill="lightskyblue" stroke="lightskyblue" cx="370.89" cy="-2345" rx="29.8" ry="18"/>
<text text-anchor="middle" x="370.89" y="-2341.3" font-family="Times New Roman,serif" font-size="14.00">Navy</text>
</a>
</g>
</g>
<!-- Blue&#45;water navy&#45;&gt;Navy -->
<g id="edge21" class="edge">
<title>Blue&#45;water navy&#45;&gt;Navy</title>
<path fill="none" stroke="black" d="M370.89,-2398.7C370.89,-2390.98 370.89,-2381.71 370.89,-2373.11"/>
<polygon fill="black" stroke="black" points="374.39,-2373.1 370.89,-2363.1 367.39,-2373.1 374.39,-2373.1"/>
</g>
<!-- Armed forces -->
<g id="node24" class="node">
<title>Armed forces</title>
<g id="a_node24"><a xlink:href="https://en.wikipedia.org/wiki/Armed_forces" xlink:title="Armed forces">
<ellipse fill="lightskyblue" stroke="lightskyblue" cx="370.89" cy="-2273" rx="61.19" ry="18"/>
<text text-anchor="middle" x="370.89" y="-2269.3" font-family="Times New Roman,serif" font-size="14.00">Armed forces</text>
</a>
</g>
</g>
<!-- Navy&#45;&gt;Armed forces -->
<g id="edge22" class="edge">
<title>Navy&#45;&gt;Armed forces</title>
<path fill="none" stroke="black" d="M370.89,-2326.7C370.89,-2318.98 370.89,-2309.71 370.89,-2301.11"/>
<polygon fill="black" stroke="black" points="374.39,-2301.1 370.89,-2291.1 367.39,-2301.1 374.39,-2301.1"/>
</g>
<!-- Warfare -->
<g id="node25" class="node">
<title>Warfare</title>
<g id="a_node25"><a xlink:href="https://en.wikipedia.org/wiki/Warfare" xlink:title="Warfare">
<ellipse fill="lightskyblue" stroke="lightskyblue" cx="370.89" cy="-2201" rx="40.09" ry="18"/>
<text text-anchor="middle" x="370.89" y="-2197.3" font-family="Times New Roman,serif" font-size="14.00">Warfare</text>
</a>
</g>
</g>
<!-- Armed forces&#45;&gt;Warfare -->
<g id="edge23" class="edge">
<title>Armed forces&#45;&gt;Warfare</title>
<path fill="none" stroke="black" d="M370.89,-2254.7C370.89,-2246.98 370.89,-2237.71 370.89,-2229.11"/>
<polygon fill="black" stroke="black" points="374.39,-2229.1 370.89,-2219.1 367.39,-2229.1 374.39,-2229.1"/>
</g>
<!-- State (polity) -->
<g id="node26" class="node">
<title>State (polity)</title>
<g id="a_node26"><a xlink:href="https://en.wikipedia.org/wiki/State_(polity)" xlink:title="State (polity)">
<ellipse fill="lightskyblue" stroke="lightskyblue" cx="370.89" cy="-2129" rx="57.69" ry="18"/>
<text text-anchor="middle" x="370.89" y="-2125.3" font-family="Times New Roman,serif" font-size="14.00">State (polity)</text>
</a>
</g>
</g>
<!-- Warfare&#45;&gt;State (polity) -->
<g id="edge24" class="edge">
<title>Warfare&#45;&gt;State (polity)</title>
<path fill="none" stroke="black" d="M370.89,-2182.7C370.89,-2174.98 370.89,-2165.71 370.89,-2157.11"/>
<polygon fill="black" stroke="black" points="374.39,-2157.1 370.89,-2147.1 367.39,-2157.1 374.39,-2157.1"/>
</g>
<!-- Polity -->
<g id="node27" class="node">
<title>Polity</title>
<g id="a_node27"><a xlink:href="https://en.wikipedia.org/wiki/Polity" xlink:title="Polity">
<ellipse fill="lightskyblue" stroke="lightskyblue" cx="370.89" cy="-2057" rx="31.7" ry="18"/>
<text text-anchor="middle" x="370.89" y="-2053.3" font-family="Times New Roman,serif" font-size="14.00">Polity</text>
</a>
</g>
</g>
<!-- State (polity)&#45;&gt;Polity -->
<g id="edge25" class="edge">
<title>State (polity)&#45;&gt;Polity</title>
<path fill="none" stroke="black" d="M370.89,-2110.7C370.89,-2102.98 370.89,-2093.71 370.89,-2085.11"/>
<polygon fill="black" stroke="black" points="374.39,-2085.1 370.89,-2075.1 367.39,-2085.1 374.39,-2085.1"/>
</g>
<!-- Collective identity -->
<g id="node28" class="node">
<title>Collective identity</title>
<g id="a_node28"><a xlink:href="https://en.wikipedia.org/wiki/Collective_identity" xlink:title="Collective identity">
<ellipse fill="lightskyblue" stroke="lightskyblue" cx="370.89" cy="-1985" rx="75.29" ry="18"/>
<text text-anchor="middle" x="370.89" y="-1981.3" font-family="Times New Roman,serif" font-size="14.00">Collective identity</text>
</a>
</g>
</g>
<!-- Polity&#45;&gt;Collective identity -->
<g id="edge26" class="edge">
<title>Polity&#45;&gt;Collective identity</title>
<path fill="none" stroke="black" d="M370.89,-2038.7C370.89,-2030.98 370.89,-2021.71 370.89,-2013.11"/>
<polygon fill="black" stroke="black" points="374.39,-2013.1 370.89,-2003.1 367.39,-2013.1 374.39,-2013.1"/>
</g>
<!-- Belongingness -->
<g id="node29" class="node">
<title>Belongingness</title>
<g id="a_node29"><a xlink:href="https://en.wikipedia.org/wiki/Belongingness" xlink:title="Belongingness">
<ellipse fill="lightskyblue" stroke="lightskyblue" cx="370.89" cy="-1913" rx="63.09" ry="18"/>
<text text-anchor="middle" x="370.89" y="-1909.3" font-family="Times New Roman,serif" font-size="14.00">Belongingness</text>
</a>
</g>
</g>
<!-- Collective identity&#45;&gt;Belongingness -->
<g id="edge27" class="edge">
<title>Collective identity&#45;&gt;Belongingness</title>
<path fill="none" stroke="black" d="M370.89,-1966.7C370.89,-1958.98 370.89,-1949.71 370.89,-1941.11"/>
<polygon fill="black" stroke="black" points="374.39,-1941.1 370.89,-1931.1 367.39,-1941.1 374.39,-1941.1"/>
</g>
<!-- Emotional -->
<g id="node30" class="node">
<title>Emotional</title>
<g id="a_node30"><a xlink:href="https://en.wikipedia.org/wiki/Emotional" xlink:title="Emotional">
<ellipse fill="lightskyblue" stroke="lightskyblue" cx="370.89" cy="-1841" rx="47.39" ry="18"/>
<text text-anchor="middle" x="370.89" y="-1837.3" font-family="Times New Roman,serif" font-size="14.00">Emotional</text>
</a>
</g>
</g>
<!-- Belongingness&#45;&gt;Emotional -->
<g id="edge28" class="edge">
<title>Belongingness&#45;&gt;Emotional</title>
<path fill="none" stroke="black" d="M370.89,-1894.7C370.89,-1886.98 370.89,-1877.71 370.89,-1869.11"/>
<polygon fill="black" stroke="black" points="374.39,-1869.1 370.89,-1859.1 367.39,-1869.1 374.39,-1869.1"/>
</g>
<!-- Pleasure -->
<g id="node31" class="node">
<title>Pleasure</title>
<g id="a_node31"><a xlink:href="https://en.wikipedia.org/wiki/Pleasure" xlink:title="Pleasure">
<ellipse fill="lightskyblue" stroke="lightskyblue" cx="370.89" cy="-1769" rx="40.89" ry="18"/>
<text text-anchor="middle" x="370.89" y="-1765.3" font-family="Times New Roman,serif" font-size="14.00">Pleasure</text>
</a>
</g>
</g>
<!-- Emotional&#45;&gt;Pleasure -->
<g id="edge29" class="edge">
<title>Emotional&#45;&gt;Pleasure</title>
<path fill="none" stroke="black" d="M370.89,-1822.7C370.89,-1814.98 370.89,-1805.71 370.89,-1797.11"/>
<polygon fill="black" stroke="black" points="374.39,-1797.1 370.89,-1787.1 367.39,-1797.1 374.39,-1797.1"/>
</g>
<!-- Ecstasy (emotion) -->
<g id="node32" class="node">
<title>Ecstasy (emotion)</title>
<g id="a_node32"><a xlink:href="https://en.wikipedia.org/wiki/Ecstasy_(emotion)" xlink:title="Ecstasy (emotion)">
<ellipse fill="lightskyblue" stroke="lightskyblue" cx="370.89" cy="-1697" rx="76.89" ry="18"/>
<text text-anchor="middle" x="370.89" y="-1693.3" font-family="Times New Roman,serif" font-size="14.00">Ecstasy (emotion)</text>
</a>
</g>
</g>
<!-- Pleasure&#45;&gt;Ecstasy (emotion) -->
<g id="edge30" class="edge">
<title>Pleasure&#45;&gt;Ecstasy (emotion)</title>
<path fill="none" stroke="black" d="M370.89,-1750.7C370.89,-1742.98 370.89,-1733.71 370.89,-1725.11"/>
<polygon fill="black" stroke="black" points="374.39,-1725.1 370.89,-1715.1 367.39,-1725.1 374.39,-1725.1"/>
</g>
<!-- Altered state of consciousness -->
<g id="node33" class="node">
<title>Altered state of consciousness</title>
<g id="a_node33"><a xlink:href="https://en.wikipedia.org/wiki/Altered_state_of_consciousness" xlink:title="Altered state of consciousness">
<ellipse fill="lightskyblue" stroke="lightskyblue" cx="370.89" cy="-1625" rx="122.38" ry="18"/>
<text text-anchor="middle" x="370.89" y="-1621.3" font-family="Times New Roman,serif" font-size="14.00">Altered state of consciousness</text>
</a>
</g>
</g>
<!-- Ecstasy (emotion)&#45;&gt;Altered state of consciousness -->
<g id="edge31" class="edge">
<title>Ecstasy (emotion)&#45;&gt;Altered state of consciousness</title>
<path fill="none" stroke="black" d="M370.89,-1678.7C370.89,-1670.98 370.89,-1661.71 370.89,-1653.11"/>
<polygon fill="black" stroke="black" points="374.39,-1653.1 370.89,-1643.1 367.39,-1653.1 374.39,-1653.1"/>
</g>
<!-- Hypnosis -->
<g id="node34" class="node">
<title>Hypnosis</title>
<g id="a_node34"><a xlink:href="https://en.wikipedia.org/wiki/Hypnosis" xlink:title="Hypnosis">
<ellipse fill="lightskyblue" stroke="lightskyblue" cx="370.89" cy="-1553" rx="45.49" ry="18"/>
<text text-anchor="middle" x="370.89" y="-1549.3" font-family="Times New Roman,serif" font-size="14.00">Hypnosis</text>
</a>
</g>
</g>
<!-- Altered state of consciousness&#45;&gt;Hypnosis -->
<g id="edge32" class="edge">
<title>Altered state of consciousness&#45;&gt;Hypnosis</title>
<path fill="none" stroke="black" d="M370.89,-1606.7C370.89,-1598.98 370.89,-1589.71 370.89,-1581.11"/>
<polygon fill="black" stroke="black" points="374.39,-1581.1 370.89,-1571.1 367.39,-1581.1 374.39,-1581.1"/>
</g>
<!-- Attention -->
<g id="node35" class="node">
<title>Attention</title>
<g id="a_node35"><a xlink:href="https://en.wikipedia.org/wiki/Attention" xlink:title="Attention">
<ellipse fill="lightskyblue" stroke="lightskyblue" cx="370.89" cy="-1481" rx="44.39" ry="18"/>
<text text-anchor="middle" x="370.89" y="-1477.3" font-family="Times New Roman,serif" font-size="14.00">Attention</text>
</a>
</g>
</g>
<!-- Hypnosis&#45;&gt;Attention -->
<g id="edge33" class="edge">
<title>Hypnosis&#45;&gt;Attention</title>
<path fill="none" stroke="black" d="M370.89,-1534.7C370.89,-1526.98 370.89,-1517.71 370.89,-1509.11"/>
<polygon fill="black" stroke="black" points="374.39,-1509.1 370.89,-1499.1 367.39,-1509.1 374.39,-1509.1"/>
</g>
<!-- Cognition -->
<g id="node36" class="node">
<title>Cognition</title>
<g id="a_node36"><a xlink:href="https://en.wikipedia.org/wiki/Cognition" xlink:title="Cognition">
<ellipse fill="lightskyblue" stroke="lightskyblue" cx="370.89" cy="-1409" rx="46.29" ry="18"/>
<text text-anchor="middle" x="370.89" y="-1405.3" font-family="Times New Roman,serif" font-size="14.00">Cognition</text>
</a>
</g>
</g>
<!-- Attention&#45;&gt;Cognition -->
<g id="edge34" class="edge">
<title>Attention&#45;&gt;Cognition</title>
<path fill="none" stroke="black" d="M370.89,-1462.7C370.89,-1454.98 370.89,-1445.71 370.89,-1437.11"/>
<polygon fill="black" stroke="black" points="374.39,-1437.1 370.89,-1427.1 367.39,-1437.1 374.39,-1437.1"/>
</g>
<!-- Intellectual function -->
<g id="node37" class="node">
<title>Intellectual function</title>
<g id="a_node37"><a xlink:href="https://en.wikipedia.org/wiki/Intellectual_function" xlink:title="Intellectual function">
<ellipse fill="lightskyblue" stroke="lightskyblue" cx="370.89" cy="-1337" rx="81.49" ry="18"/>
<text text-anchor="middle" x="370.89" y="-1333.3" font-family="Times New Roman,serif" font-size="14.00">Intellectual function</text>
</a>
</g>
</g>
<!-- Cognition&#45;&gt;Intellectual function -->
<g id="edge35" class="edge">
<title>Cognition&#45;&gt;Intellectual function</title>
<path fill="none" stroke="black" d="M370.89,-1390.7C370.89,-1382.98 370.89,-1373.71 370.89,-1365.11"/>
<polygon fill="black" stroke="black" points="374.39,-1365.1 370.89,-1355.1 367.39,-1365.1 374.39,-1365.1"/>
</g>
<!-- Reason -->
<g id="node38" class="node">
<title>Reason</title>
<g id="a_node38"><a xlink:href="https://en.wikipedia.org/wiki/Reason" xlink:title="Reason">
<ellipse fill="lightskyblue" stroke="lightskyblue" cx="370.89" cy="-1265" rx="38.19" ry="18"/>
<text text-anchor="middle" x="370.89" y="-1261.3" font-family="Times New Roman,serif" font-size="14.00">Reason</text>
</a>
</g>
</g>
<!-- Intellectual function&#45;&gt;Reason -->
<g id="edge36" class="edge">
<title>Intellectual function&#45;&gt;Reason</title>
<path fill="none" stroke="black" d="M370.89,-1318.7C370.89,-1310.98 370.89,-1301.71 370.89,-1293.11"/>
<polygon fill="black" stroke="black" points="374.39,-1293.1 370.89,-1283.1 367.39,-1293.1 374.39,-1293.1"/>
</g>
<!-- Consciousness -->
<g id="node39" class="node">
<title>Consciousness</title>
<g id="a_node39"><a xlink:href="https://en.wikipedia.org/wiki/Consciousness" xlink:title="Consciousness">
<ellipse fill="lightskyblue" stroke="lightskyblue" cx="370.89" cy="-1193" rx="65.79" ry="18"/>
<text text-anchor="middle" x="370.89" y="-1189.3" font-family="Times New Roman,serif" font-size="14.00">Consciousness</text>
</a>
</g>
</g>
<!-- Reason&#45;&gt;Consciousness -->
<g id="edge37" class="edge">
<title>Reason&#45;&gt;Consciousness</title>
<path fill="none" stroke="black" d="M370.89,-1246.7C370.89,-1238.98 370.89,-1229.71 370.89,-1221.11"/>
<polygon fill="black" stroke="black" points="374.39,-1221.1 370.89,-1211.1 367.39,-1221.1 374.39,-1221.1"/>
</g>
<!-- Sentience -->
<g id="node40" class="node">
<title>Sentience</title>
<g id="a_node40"><a xlink:href="https://en.wikipedia.org/wiki/Sentience" xlink:title="Sentience">
<ellipse fill="lightskyblue" stroke="lightskyblue" cx="370.89" cy="-1121" rx="45.49" ry="18"/>
<text text-anchor="middle" x="370.89" y="-1117.3" font-family="Times New Roman,serif" font-size="14.00">Sentience</text>
</a>
</g>
</g>
<!-- Consciousness&#45;&gt;Sentience -->
<g id="edge38" class="edge">
<title>Consciousness&#45;&gt;Sentience</title>
<path fill="none" stroke="black" d="M370.89,-1174.7C370.89,-1166.98 370.89,-1157.71 370.89,-1149.11"/>
<polygon fill="black" stroke="black" points="374.39,-1149.1 370.89,-1139.1 367.39,-1149.1 374.39,-1149.1"/>
</g>
<!-- Feeling -->
<g id="node41" class="node">
<title>Feeling</title>
<g id="a_node41"><a xlink:href="https://en.wikipedia.org/wiki/Feeling" xlink:title="Feeling">
<ellipse fill="lightskyblue" stroke="lightskyblue" cx="370.89" cy="-1049" rx="36.29" ry="18"/>
<text text-anchor="middle" x="370.89" y="-1045.3" font-family="Times New Roman,serif" font-size="14.00">Feeling</text>
</a>
</g>
</g>
<!-- Sentience&#45;&gt;Feeling -->
<g id="edge39" class="edge">
<title>Sentience&#45;&gt;Feeling</title>
<path fill="none" stroke="black" d="M370.89,-1102.7C370.89,-1094.98 370.89,-1085.71 370.89,-1077.11"/>
<polygon fill="black" stroke="black" points="374.39,-1077.1 370.89,-1067.1 367.39,-1077.1 374.39,-1077.1"/>
</g>
<!-- Touch -->
<g id="node42" class="node">
<title>Touch</title>
<g id="a_node42"><a xlink:href="https://en.wikipedia.org/wiki/Touch" xlink:title="Touch">
<ellipse fill="lightskyblue" stroke="lightskyblue" cx="370.89" cy="-977" rx="34.39" ry="18"/>
<text text-anchor="middle" x="370.89" y="-973.3" font-family="Times New Roman,serif" font-size="14.00">Touch</text>
</a>
</g>
</g>
<!-- Feeling&#45;&gt;Touch -->
<g id="edge40" class="edge">
<title>Feeling&#45;&gt;Touch</title>
<path fill="none" stroke="black" d="M370.89,-1030.7C370.89,-1022.98 370.89,-1013.71 370.89,-1005.11"/>
<polygon fill="black" stroke="black" points="374.39,-1005.1 370.89,-995.1 367.39,-1005.1 374.39,-1005.1"/>
</g>
<!-- Sensory nervous system -->
<g id="node43" class="node">
<title>Sensory nervous system</title>
<g id="a_node43"><a xlink:href="https://en.wikipedia.org/wiki/Sensory_nervous_system" xlink:title="Sensory nervous system">
<ellipse fill="lightskyblue" stroke="lightskyblue" cx="370.89" cy="-905" rx="99.38" ry="18"/>
<text text-anchor="middle" x="370.89" y="-901.3" font-family="Times New Roman,serif" font-size="14.00">Sensory nervous system</text>
</a>
</g>
</g>
<!-- Touch&#45;&gt;Sensory nervous system -->
<g id="edge41" class="edge">
<title>Touch&#45;&gt;Sensory nervous system</title>
<path fill="none" stroke="black" d="M370.89,-958.7C370.89,-950.98 370.89,-941.71 370.89,-933.11"/>
<polygon fill="black" stroke="black" points="374.39,-933.1 370.89,-923.1 367.39,-933.1 374.39,-933.1"/>
</g>
<!-- Nervous system -->
<g id="node44" class="node">
<title>Nervous system</title>
<g id="a_node44"><a xlink:href="https://en.wikipedia.org/wiki/Nervous_system" xlink:title="Nervous system">
<ellipse fill="lightskyblue" stroke="lightskyblue" cx="367.89" cy="-833" rx="69.59" ry="18"/>
<text text-anchor="middle" x="367.89" y="-829.3" font-family="Times New Roman,serif" font-size="14.00">Nervous system</text>
</a>
</g>
</g>
<!-- Sensory nervous system&#45;&gt;Nervous system -->
<g id="edge42" class="edge">
<title>Sensory nervous system&#45;&gt;Nervous system</title>
<path fill="none" stroke="black" d="M370.15,-886.7C369.82,-878.98 369.42,-869.71 369.05,-861.11"/>
<polygon fill="black" stroke="black" points="372.55,-860.95 368.63,-851.1 365.56,-861.25 372.55,-860.95"/>
</g>
<!-- Biology -->
<g id="node45" class="node">
<title>Biology</title>
<g id="a_node45"><a xlink:href="https://en.wikipedia.org/wiki/Biology" xlink:title="Biology">
<ellipse fill="lightskyblue" stroke="lightskyblue" cx="236.89" cy="-761" rx="38.99" ry="18"/>
<text text-anchor="middle" x="236.89" y="-757.3" font-family="Times New Roman,serif" font-size="14.00">Biology</text>
</a>
</g>
</g>
<!-- Nervous system&#45;&gt;Biology -->
<g id="edge43" class="edge">
<title>Nervous system&#45;&gt;Biology</title>
<path fill="none" stroke="black" d="M338.82,-816.46C318.6,-805.66 291.58,-791.22 270.44,-779.93"/>
<polygon fill="black" stroke="black" points="271.95,-776.77 261.48,-775.14 268.66,-782.94 271.95,-776.77"/>
</g>
<!-- Biology&#45;&gt;Natural science -->
<g id="edge44" class="edge">
<title>Biology&#45;&gt;Natural science</title>
<path fill="none" stroke="black" d="M236.89,-742.7C236.89,-734.98 236.89,-725.71 236.89,-717.11"/>
<polygon fill="black" stroke="black" points="240.39,-717.1 236.89,-707.1 233.39,-717.1 240.39,-717.1"/>
</g>
<!-- Lek mating -->
<g id="node46" class="node">
<title>Lek mating</title>
<g id="a_node46"><a xlink:href="https://en.wikipedia.org/wiki/Lek_mating" xlink:title="Lek mating">
<ellipse fill="#b0e2ff" stroke="#b0e2ff" cx="198.89" cy="-1049" rx="50.89" ry="18"/>
<text text-anchor="middle" x="198.89" y="-1045.3" font-family="Times New Roman,serif" font-size="14.00">Lek mating</text>
</a>
</g>
</g>
<!-- Animal -->
<g id="node47" class="node">
<title>Animal</title>
<g id="a_node47"><a xlink:href="https://en.wikipedia.org/wiki/Animal" xlink:title="Animal">
<ellipse fill="lightskyblue" stroke="lightskyblue" cx="198.89" cy="-977" rx="36.29" ry="18"/>
<text text-anchor="middle" x="198.89" y="-973.3" font-family="Times New Roman,serif" font-size="14.00">Animal</text>
</a>
</g>
</g>
<!-- Lek mating&#45;&gt;Animal -->
<g id="edge45" class="edge">
<title>Lek mating&#45;&gt;Animal</title>
<path fill="none" stroke="black" d="M198.89,-1030.7C198.89,-1022.98 198.89,-1013.71 198.89,-1005.11"/>
<polygon fill="black" stroke="black" points="202.39,-1005.1 198.89,-995.1 195.39,-1005.1 202.39,-1005.1"/>
</g>
<!-- Multicellular -->
<g id="node48" class="node">
<title>Multicellular</title>
<g id="a_node48"><a xlink:href="https://en.wikipedia.org/wiki/Multicellular" xlink:title="Multicellular">
<ellipse fill="lightskyblue" stroke="lightskyblue" cx="198.89" cy="-905" rx="54.69" ry="18"/>
<text text-anchor="middle" x="198.89" y="-901.3" font-family="Times New Roman,serif" font-size="14.00">Multicellular</text>
</a>
</g>
</g>
<!-- Animal&#45;&gt;Multicellular -->
<g id="edge46" class="edge">
<title>Animal&#45;&gt;Multicellular</title>
<path fill="none" stroke="black" d="M198.89,-958.7C198.89,-950.98 198.89,-941.71 198.89,-933.11"/>
<polygon fill="black" stroke="black" points="202.39,-933.1 198.89,-923.1 195.39,-933.1 202.39,-933.1"/>
</g>
<!-- Organism -->
<g id="node49" class="node">
<title>Organism</title>
<g id="a_node49"><a xlink:href="https://en.wikipedia.org/wiki/Organism" xlink:title="Organism">
<ellipse fill="lightskyblue" stroke="lightskyblue" cx="230.89" cy="-833" rx="46.29" ry="18"/>
<text text-anchor="middle" x="230.89" y="-829.3" font-family="Times New Roman,serif" font-size="14.00">Organism</text>
</a>
</g>
</g>
<!-- Multicellular&#45;&gt;Organism -->
<g id="edge47" class="edge">
<title>Multicellular&#45;&gt;Organism</title>
<path fill="none" stroke="black" d="M206.64,-887.05C210.33,-878.97 214.84,-869.12 218.96,-860.11"/>
<polygon fill="black" stroke="black" points="222.24,-861.34 223.22,-850.79 215.88,-858.43 222.24,-861.34"/>
</g>
<!-- Organism&#45;&gt;Biology -->
<g id="edge48" class="edge">
<title>Organism&#45;&gt;Biology</title>
<path fill="none" stroke="black" d="M232.38,-814.7C233.04,-806.98 233.83,-797.71 234.57,-789.11"/>
<polygon fill="black" stroke="black" points="238.06,-789.37 235.43,-779.1 231.09,-788.77 238.06,-789.37"/>
</g>
<!-- Rebec -->
<g id="node50" class="node">
<title>Rebec</title>
<g id="a_node50"><a xlink:href="https://en.wikipedia.org/wiki/Rebec" xlink:title="Rebec">
<ellipse fill="#b0e2ff" stroke="#b0e2ff" cx="567.89" cy="-1049" rx="34.39" ry="18"/>
<text text-anchor="middle" x="567.89" y="-1045.3" font-family="Times New Roman,serif" font-size="14.00">Rebec</text>
</a>
</g>
</g>
<!-- String instrument -->
<g id="node51" class="node">
<title>String instrument</title>
<g id="a_node51"><a xlink:href="https://en.wikipedia.org/wiki/String_instrument" xlink:title="String instrument">
<ellipse fill="lightskyblue" stroke="lightskyblue" cx="567.89" cy="-977" rx="72.29" ry="18"/>
<text text-anchor="middle" x="567.89" y="-973.3" font-family="Times New Roman,serif" font-size="14.00">String instrument</text>
</a>
</g>
</g>
<!-- Rebec&#45;&gt;String instrument -->
<g id="edge49" class="edge">
<title>Rebec&#45;&gt;String instrument</title>
<path fill="none" stroke="black" d="M567.89,-1030.7C567.89,-1022.98 567.89,-1013.71 567.89,-1005.11"/>
<polygon fill="black" stroke="black" points="571.39,-1005.1 567.89,-995.1 564.39,-1005.1 571.39,-1005.1"/>
</g>
<!-- Musical instrument -->
<g id="node52" class="node">
<title>Musical instrument</title>
<g id="a_node52"><a xlink:href="https://en.wikipedia.org/wiki/Musical_instrument" xlink:title="Musical instrument">
<ellipse fill="lightskyblue" stroke="lightskyblue" cx="567.89" cy="-905" rx="79.09" ry="18"/>
<text text-anchor="middle" x="567.89" y="-901.3" font-family="Times New Roman,serif" font-size="14.00">Musical instrument</text>
</a>
</g>
</g>
<!-- String instrument&#45;&gt;Musical instrument -->
<g id="edge50" class="edge">
<title>String instrument&#45;&gt;Musical instrument</title>
<path fill="none" stroke="black" d="M567.89,-958.7C567.89,-950.98 567.89,-941.71 567.89,-933.11"/>
<polygon fill="black" stroke="black" points="571.39,-933.1 567.89,-923.1 564.39,-933.1 571.39,-933.1"/>
</g>
<!-- Music -->
<g id="node53" class="node">
<title>Music</title>
<g id="a_node53"><a xlink:href="https://en.wikipedia.org/wiki/Music" xlink:title="Music">
<ellipse fill="lightskyblue" stroke="lightskyblue" cx="527.89" cy="-833" rx="33.29" ry="18"/>
<text text-anchor="middle" x="527.89" y="-829.3" font-family="Times New Roman,serif" font-size="14.00">Music</text>
</a>
</g>
</g>
<!-- Musical instrument&#45;&gt;Music -->
<g id="edge51" class="edge">
<title>Musical instrument&#45;&gt;Music</title>
<path fill="none" stroke="black" d="M558.21,-887.05C553.42,-878.68 547.55,-868.4 542.26,-859.13"/>
<polygon fill="black" stroke="black" points="545.21,-857.25 537.21,-850.31 539.13,-860.73 545.21,-857.25"/>
</g>
<!-- The arts -->
<g id="node54" class="node">
<title>The arts</title>
<g id="a_node54"><a xlink:href="https://en.wikipedia.org/wiki/The_arts" xlink:title="The arts">
<ellipse fill="lightskyblue" stroke="lightskyblue" cx="521.89" cy="-761" rx="40.09" ry="18"/>
<text text-anchor="middle" x="521.89" y="-757.3" font-family="Times New Roman,serif" font-size="14.00">The arts</text>
</a>
</g>
</g>
<!-- Music&#45;&gt;The arts -->
<g id="edge52" class="edge">
<title>Music&#45;&gt;The arts</title>
<path fill="none" stroke="black" d="M526.41,-814.7C525.75,-806.98 524.95,-797.71 524.22,-789.11"/>
<polygon fill="black" stroke="black" points="527.7,-788.77 523.36,-779.1 520.73,-789.37 527.7,-788.77"/>
</g>
<!-- Creativity -->
<g id="node55" class="node">
<title>Creativity</title>
<g id="a_node55"><a xlink:href="https://en.wikipedia.org/wiki/Creativity" xlink:title="Creativity">
<ellipse fill="lightskyblue" stroke="lightskyblue" cx="472.89" cy="-689" rx="45.49" ry="18"/>
<text text-anchor="middle" x="472.89" y="-685.3" font-family="Times New Roman,serif" font-size="14.00">Creativity</text>
</a>
</g>
</g>
<!-- The arts&#45;&gt;Creativity -->
<g id="edge53" class="edge">
<title>The arts&#45;&gt;Creativity</title>
<path fill="none" stroke="black" d="M510.28,-743.41C504.3,-734.87 496.89,-724.28 490.24,-714.79"/>
<polygon fill="black" stroke="black" points="493.02,-712.66 484.42,-706.47 487.29,-716.67 493.02,-712.66"/>
</g>
<!-- Psychology -->
<g id="node56" class="node">
<title>Psychology</title>
<g id="a_node56"><a xlink:href="https://en.wikipedia.org/wiki/Psychology" xlink:title="Psychology">
<ellipse fill="lightskyblue" stroke="lightskyblue" cx="461.89" cy="-617" rx="53.89" ry="18"/>
<text text-anchor="middle" x="461.89" y="-613.3" font-family="Times New Roman,serif" font-size="14.00">Psychology</text>
</a>
</g>
</g>
<!-- Creativity&#45;&gt;Psychology -->
<g id="edge54" class="edge">
<title>Creativity&#45;&gt;Psychology</title>
<path fill="none" stroke="black" d="M470.17,-670.7C468.96,-662.98 467.5,-653.71 466.15,-645.11"/>
<polygon fill="black" stroke="black" points="469.59,-644.44 464.58,-635.1 462.68,-645.53 469.59,-644.44"/>
</g>
<!-- Psychology&#45;&gt;Science -->
<g id="edge55" class="edge">
<title>Psychology&#45;&gt;Science</title>
<path fill="none" stroke="black" d="M439.48,-600.46C424.87,-590.34 405.65,-577.02 389.88,-566.09"/>
<polygon fill="black" stroke="black" points="391.74,-563.12 381.53,-560.3 387.75,-568.87 391.74,-563.12"/>
</g>
</g>
</svg>
