<?xml version="1.0" encoding="UTF-8" standalone="no"?>
<!DOCTYPE svg PUBLIC "-//W3C//DTD SVG 1.1//EN"
 "http://www.w3.org/Graphics/SVG/1.1/DTD/svg11.dtd">
<!-- Generated by graphviz version 2.46.0 (20210118.1747)
 -->
<!-- Title: unix Pages: 1 -->
<svg width="789pt" height="2590pt"
 viewBox="0.00 0.00 789.48 2590.00" xmlns="http://www.w3.org/2000/svg" xmlns:xlink="http://www.w3.org/1999/xlink">
<g id="graph0" class="graph" transform="scale(1 1) rotate(0) translate(4 2586)">
<title>unix</title>
<polygon fill="white" stroke="transparent" points="-4,4 -4,-2586 785.48,-2586 785.48,4 -4,4"/>
<text text-anchor="start" x="214.74" y="-54" font-family="Times New Roman,serif" font-size="20.00">Graph generated on 09/05/2021 14:14:10.</text>
<text text-anchor="start" x="214.74" y="-32" font-family="Times New Roman,serif" font-size="20.00">Checked 5 pages. Time took: 1.01 minutes.</text>
<text text-anchor="middle" x="390.74" y="-10" font-family="Times New Roman,serif" font-size="20.00">Number of pages drawn: 62</text>
<!-- 1 August 2016 Kabul attack -->
<g id="node1" class="node">
<title>1 August 2016 Kabul attack</title>
<g id="a_node1"><a xlink:href="https://en.wikipedia.org/wiki/1_August_2016_Kabul_attack" xlink:title="1 August 2016 Kabul attack">
<ellipse fill="#b0e2ff" stroke="#b0e2ff" cx="424.89" cy="-2564" rx="111.28" ry="18"/>
<text text-anchor="middle" x="424.89" y="-2560.3" font-family="Times New Roman,serif" font-size="14.00">1 August 2016 Kabul attack</text>
</a>
</g>
</g>
<!-- Kabul -->
<g id="node2" class="node">
<title>Kabul</title>
<g id="a_node2"><a xlink:href="https://en.wikipedia.org/wiki/Kabul" xlink:title="Kabul">
<ellipse fill="lightskyblue" stroke="lightskyblue" cx="424.89" cy="-2492" rx="32.49" ry="18"/>
<text text-anchor="middle" x="424.89" y="-2488.3" font-family="Times New Roman,serif" font-size="14.00">Kabul</text>
</a>
</g>
</g>
<!-- 1 August 2016 Kabul attack&#45;&gt;Kabul -->
<g id="edge1" class="edge">
<title>1 August 2016 Kabul attack&#45;&gt;Kabul</title>
<path fill="none" stroke="black" d="M424.89,-2545.7C424.89,-2537.98 424.89,-2528.71 424.89,-2520.11"/>
<polygon fill="black" stroke="black" points="428.39,-2520.1 424.89,-2510.1 421.39,-2520.1 428.39,-2520.1"/>
</g>
<!-- Capital city -->
<g id="node3" class="node">
<title>Capital city</title>
<g id="a_node3"><a xlink:href="https://en.wikipedia.org/wiki/Capital_city" xlink:title="Capital city">
<ellipse fill="lightskyblue" stroke="lightskyblue" cx="424.89" cy="-2420" rx="51.99" ry="18"/>
<text text-anchor="middle" x="424.89" y="-2416.3" font-family="Times New Roman,serif" font-size="14.00">Capital city</text>
</a>
</g>
</g>
<!-- Kabul&#45;&gt;Capital city -->
<g id="edge2" class="edge">
<title>Kabul&#45;&gt;Capital city</title>
<path fill="none" stroke="black" d="M424.89,-2473.7C424.89,-2465.98 424.89,-2456.71 424.89,-2448.11"/>
<polygon fill="black" stroke="black" points="428.39,-2448.1 424.89,-2438.1 421.39,-2448.1 428.39,-2448.1"/>
</g>
<!-- Municipality -->
<g id="node4" class="node">
<title>Municipality</title>
<g id="a_node4"><a xlink:href="https://en.wikipedia.org/wiki/Municipality" xlink:title="Municipality">
<ellipse fill="lightskyblue" stroke="lightskyblue" cx="424.89" cy="-2348" rx="55.49" ry="18"/>
<text text-anchor="middle" x="424.89" y="-2344.3" font-family="Times New Roman,serif" font-size="14.00">Municipality</text>
</a>
</g>
</g>
<!-- Capital city&#45;&gt;Municipality -->
<g id="edge3" class="edge">
<title>Capital city&#45;&gt;Municipality</title>
<path fill="none" stroke="black" d="M424.89,-2401.7C424.89,-2393.98 424.89,-2384.71 424.89,-2376.11"/>
<polygon fill="black" stroke="black" points="428.39,-2376.1 424.89,-2366.1 421.39,-2376.1 428.39,-2376.1"/>
</g>
<!-- Administrative division -->
<g id="node5" class="node">
<title>Administrative division</title>
<g id="a_node5"><a xlink:href="https://en.wikipedia.org/wiki/Administrative_division" xlink:title="Administrative division">
<ellipse fill="lightskyblue" stroke="lightskyblue" cx="424.89" cy="-2276" rx="93.68" ry="18"/>
<text text-anchor="middle" x="424.89" y="-2272.3" font-family="Times New Roman,serif" font-size="14.00">Administrative division</text>
</a>
</g>
</g>
<!-- Municipality&#45;&gt;Administrative division -->
<g id="edge4" class="edge">
<title>Municipality&#45;&gt;Administrative division</title>
<path fill="none" stroke="black" d="M424.89,-2329.7C424.89,-2321.98 424.89,-2312.71 424.89,-2304.11"/>
<polygon fill="black" stroke="black" points="428.39,-2304.1 424.89,-2294.1 421.39,-2304.1 428.39,-2304.1"/>
</g>
<!-- Sovereign state -->
<g id="node6" class="node">
<title>Sovereign state</title>
<g id="a_node6"><a xlink:href="https://en.wikipedia.org/wiki/Sovereign_state" xlink:title="Sovereign state">
<ellipse fill="lightskyblue" stroke="lightskyblue" cx="424.89" cy="-2204" rx="65.79" ry="18"/>
<text text-anchor="middle" x="424.89" y="-2200.3" font-family="Times New Roman,serif" font-size="14.00">Sovereign state</text>
</a>
</g>
</g>
<!-- Administrative division&#45;&gt;Sovereign state -->
<g id="edge5" class="edge">
<title>Administrative division&#45;&gt;Sovereign state</title>
<path fill="none" stroke="black" d="M424.89,-2257.7C424.89,-2249.98 424.89,-2240.71 424.89,-2232.11"/>
<polygon fill="black" stroke="black" points="428.39,-2232.1 424.89,-2222.1 421.39,-2232.1 428.39,-2232.1"/>
</g>
<!-- Political entity -->
<g id="node7" class="node">
<title>Political entity</title>
<g id="a_node7"><a xlink:href="https://en.wikipedia.org/wiki/Political_entity" xlink:title="Political entity">
<ellipse fill="lightskyblue" stroke="lightskyblue" cx="424.89" cy="-2132" rx="61.99" ry="18"/>
<text text-anchor="middle" x="424.89" y="-2128.3" font-family="Times New Roman,serif" font-size="14.00">Political entity</text>
</a>
</g>
</g>
<!-- Sovereign state&#45;&gt;Political entity -->
<g id="edge6" class="edge">
<title>Sovereign state&#45;&gt;Political entity</title>
<path fill="none" stroke="black" d="M424.89,-2185.7C424.89,-2177.98 424.89,-2168.71 424.89,-2160.11"/>
<polygon fill="black" stroke="black" points="428.39,-2160.1 424.89,-2150.1 421.39,-2160.1 428.39,-2160.1"/>
</g>
<!-- Collective identity -->
<g id="node8" class="node">
<title>Collective identity</title>
<g id="a_node8"><a xlink:href="https://en.wikipedia.org/wiki/Collective_identity" xlink:title="Collective identity">
<ellipse fill="lightskyblue" stroke="lightskyblue" cx="424.89" cy="-2060" rx="75.29" ry="18"/>
<text text-anchor="middle" x="424.89" y="-2056.3" font-family="Times New Roman,serif" font-size="14.00">Collective identity</text>
</a>
</g>
</g>
<!-- Political entity&#45;&gt;Collective identity -->
<g id="edge7" class="edge">
<title>Political entity&#45;&gt;Collective identity</title>
<path fill="none" stroke="black" d="M424.89,-2113.7C424.89,-2105.98 424.89,-2096.71 424.89,-2088.11"/>
<polygon fill="black" stroke="black" points="428.39,-2088.1 424.89,-2078.1 421.39,-2088.1 428.39,-2088.1"/>
</g>
<!-- Belongingness -->
<g id="node9" class="node">
<title>Belongingness</title>
<g id="a_node9"><a xlink:href="https://en.wikipedia.org/wiki/Belongingness" xlink:title="Belongingness">
<ellipse fill="lightskyblue" stroke="lightskyblue" cx="424.89" cy="-1988" rx="63.09" ry="18"/>
<text text-anchor="middle" x="424.89" y="-1984.3" font-family="Times New Roman,serif" font-size="14.00">Belongingness</text>
</a>
</g>
</g>
<!-- Collective identity&#45;&gt;Belongingness -->
<g id="edge8" class="edge">
<title>Collective identity&#45;&gt;Belongingness</title>
<path fill="none" stroke="black" d="M424.89,-2041.7C424.89,-2033.98 424.89,-2024.71 424.89,-2016.11"/>
<polygon fill="black" stroke="black" points="428.39,-2016.1 424.89,-2006.1 421.39,-2016.1 428.39,-2016.1"/>
</g>
<!-- Emotional -->
<g id="node10" class="node">
<title>Emotional</title>
<g id="a_node10"><a xlink:href="https://en.wikipedia.org/wiki/Emotional" xlink:title="Emotional">
<ellipse fill="lightskyblue" stroke="lightskyblue" cx="424.89" cy="-1916" rx="47.39" ry="18"/>
<text text-anchor="middle" x="424.89" y="-1912.3" font-family="Times New Roman,serif" font-size="14.00">Emotional</text>
</a>
</g>
</g>
<!-- Belongingness&#45;&gt;Emotional -->
<g id="edge9" class="edge">
<title>Belongingness&#45;&gt;Emotional</title>
<path fill="none" stroke="black" d="M424.89,-1969.7C424.89,-1961.98 424.89,-1952.71 424.89,-1944.11"/>
<polygon fill="black" stroke="black" points="428.39,-1944.1 424.89,-1934.1 421.39,-1944.1 428.39,-1944.1"/>
</g>
<!-- Pleasure -->
<g id="node11" class="node">
<title>Pleasure</title>
<g id="a_node11"><a xlink:href="https://en.wikipedia.org/wiki/Pleasure" xlink:title="Pleasure">
<ellipse fill="lightskyblue" stroke="lightskyblue" cx="424.89" cy="-1844" rx="40.89" ry="18"/>
<text text-anchor="middle" x="424.89" y="-1840.3" font-family="Times New Roman,serif" font-size="14.00">Pleasure</text>
</a>
</g>
</g>
<!-- Emotional&#45;&gt;Pleasure -->
<g id="edge10" class="edge">
<title>Emotional&#45;&gt;Pleasure</title>
<path fill="none" stroke="black" d="M424.89,-1897.7C424.89,-1889.98 424.89,-1880.71 424.89,-1872.11"/>
<polygon fill="black" stroke="black" points="428.39,-1872.1 424.89,-1862.1 421.39,-1872.1 428.39,-1872.1"/>
</g>
<!-- Ecstasy (emotion) -->
<g id="node12" class="node">
<title>Ecstasy (emotion)</title>
<g id="a_node12"><a xlink:href="https://en.wikipedia.org/wiki/Ecstasy_(emotion)" xlink:title="Ecstasy (emotion)">
<ellipse fill="lightskyblue" stroke="lightskyblue" cx="424.89" cy="-1772" rx="76.89" ry="18"/>
<text text-anchor="middle" x="424.89" y="-1768.3" font-family="Times New Roman,serif" font-size="14.00">Ecstasy (emotion)</text>
</a>
</g>
</g>
<!-- Pleasure&#45;&gt;Ecstasy (emotion) -->
<g id="edge11" class="edge">
<title>Pleasure&#45;&gt;Ecstasy (emotion)</title>
<path fill="none" stroke="black" d="M424.89,-1825.7C424.89,-1817.98 424.89,-1808.71 424.89,-1800.11"/>
<polygon fill="black" stroke="black" points="428.39,-1800.1 424.89,-1790.1 421.39,-1800.1 428.39,-1800.1"/>
</g>
<!-- Altered state of consciousness -->
<g id="node13" class="node">
<title>Altered state of consciousness</title>
<g id="a_node13"><a xlink:href="https://en.wikipedia.org/wiki/Altered_state_of_consciousness" xlink:title="Altered state of consciousness">
<ellipse fill="lightskyblue" stroke="lightskyblue" cx="424.89" cy="-1700" rx="122.38" ry="18"/>
<text text-anchor="middle" x="424.89" y="-1696.3" font-family="Times New Roman,serif" font-size="14.00">Altered state of consciousness</text>
</a>
</g>
</g>
<!-- Ecstasy (emotion)&#45;&gt;Altered state of consciousness -->
<g id="edge12" class="edge">
<title>Ecstasy (emotion)&#45;&gt;Altered state of consciousness</title>
<path fill="none" stroke="black" d="M424.89,-1753.7C424.89,-1745.98 424.89,-1736.71 424.89,-1728.11"/>
<polygon fill="black" stroke="black" points="428.39,-1728.1 424.89,-1718.1 421.39,-1728.1 428.39,-1728.1"/>
</g>
<!-- Hypnosis -->
<g id="node14" class="node">
<title>Hypnosis</title>
<g id="a_node14"><a xlink:href="https://en.wikipedia.org/wiki/Hypnosis" xlink:title="Hypnosis">
<ellipse fill="lightskyblue" stroke="lightskyblue" cx="424.89" cy="-1628" rx="45.49" ry="18"/>
<text text-anchor="middle" x="424.89" y="-1624.3" font-family="Times New Roman,serif" font-size="14.00">Hypnosis</text>
</a>
</g>
</g>
<!-- Altered state of consciousness&#45;&gt;Hypnosis -->
<g id="edge13" class="edge">
<title>Altered state of consciousness&#45;&gt;Hypnosis</title>
<path fill="none" stroke="black" d="M424.89,-1681.7C424.89,-1673.98 424.89,-1664.71 424.89,-1656.11"/>
<polygon fill="black" stroke="black" points="428.39,-1656.1 424.89,-1646.1 421.39,-1656.1 428.39,-1656.1"/>
</g>
<!-- Attention -->
<g id="node15" class="node">
<title>Attention</title>
<g id="a_node15"><a xlink:href="https://en.wikipedia.org/wiki/Attention" xlink:title="Attention">
<ellipse fill="lightskyblue" stroke="lightskyblue" cx="424.89" cy="-1556" rx="44.39" ry="18"/>
<text text-anchor="middle" x="424.89" y="-1552.3" font-family="Times New Roman,serif" font-size="14.00">Attention</text>
</a>
</g>
</g>
<!-- Hypnosis&#45;&gt;Attention -->
<g id="edge14" class="edge">
<title>Hypnosis&#45;&gt;Attention</title>
<path fill="none" stroke="black" d="M424.89,-1609.7C424.89,-1601.98 424.89,-1592.71 424.89,-1584.11"/>
<polygon fill="black" stroke="black" points="428.39,-1584.1 424.89,-1574.1 421.39,-1584.1 428.39,-1584.1"/>
</g>
<!-- Cognition -->
<g id="node16" class="node">
<title>Cognition</title>
<g id="a_node16"><a xlink:href="https://en.wikipedia.org/wiki/Cognition" xlink:title="Cognition">
<ellipse fill="lightskyblue" stroke="lightskyblue" cx="424.89" cy="-1484" rx="46.29" ry="18"/>
<text text-anchor="middle" x="424.89" y="-1480.3" font-family="Times New Roman,serif" font-size="14.00">Cognition</text>
</a>
</g>
</g>
<!-- Attention&#45;&gt;Cognition -->
<g id="edge15" class="edge">
<title>Attention&#45;&gt;Cognition</title>
<path fill="none" stroke="black" d="M424.89,-1537.7C424.89,-1529.98 424.89,-1520.71 424.89,-1512.11"/>
<polygon fill="black" stroke="black" points="428.39,-1512.1 424.89,-1502.1 421.39,-1512.1 428.39,-1512.1"/>
</g>
<!-- Intellectual function -->
<g id="node17" class="node">
<title>Intellectual function</title>
<g id="a_node17"><a xlink:href="https://en.wikipedia.org/wiki/Intellectual_function" xlink:title="Intellectual function">
<ellipse fill="lightskyblue" stroke="lightskyblue" cx="424.89" cy="-1412" rx="81.49" ry="18"/>
<text text-anchor="middle" x="424.89" y="-1408.3" font-family="Times New Roman,serif" font-size="14.00">Intellectual function</text>
</a>
</g>
</g>
<!-- Cognition&#45;&gt;Intellectual function -->
<g id="edge16" class="edge">
<title>Cognition&#45;&gt;Intellectual function</title>
<path fill="none" stroke="black" d="M424.89,-1465.7C424.89,-1457.98 424.89,-1448.71 424.89,-1440.11"/>
<polygon fill="black" stroke="black" points="428.39,-1440.1 424.89,-1430.1 421.39,-1440.1 428.39,-1440.1"/>
</g>
<!-- Reason -->
<g id="node18" class="node">
<title>Reason</title>
<g id="a_node18"><a xlink:href="https://en.wikipedia.org/wiki/Reason" xlink:title="Reason">
<ellipse fill="lightskyblue" stroke="lightskyblue" cx="424.89" cy="-1340" rx="38.19" ry="18"/>
<text text-anchor="middle" x="424.89" y="-1336.3" font-family="Times New Roman,serif" font-size="14.00">Reason</text>
</a>
</g>
</g>
<!-- Intellectual function&#45;&gt;Reason -->
<g id="edge17" class="edge">
<title>Intellectual function&#45;&gt;Reason</title>
<path fill="none" stroke="black" d="M424.89,-1393.7C424.89,-1385.98 424.89,-1376.71 424.89,-1368.11"/>
<polygon fill="black" stroke="black" points="428.39,-1368.1 424.89,-1358.1 421.39,-1368.1 428.39,-1368.1"/>
</g>
<!-- Consciousness -->
<g id="node19" class="node">
<title>Consciousness</title>
<g id="a_node19"><a xlink:href="https://en.wikipedia.org/wiki/Consciousness" xlink:title="Consciousness">
<ellipse fill="lightskyblue" stroke="lightskyblue" cx="424.89" cy="-1268" rx="65.79" ry="18"/>
<text text-anchor="middle" x="424.89" y="-1264.3" font-family="Times New Roman,serif" font-size="14.00">Consciousness</text>
</a>
</g>
</g>
<!-- Reason&#45;&gt;Consciousness -->
<g id="edge18" class="edge">
<title>Reason&#45;&gt;Consciousness</title>
<path fill="none" stroke="black" d="M424.89,-1321.7C424.89,-1313.98 424.89,-1304.71 424.89,-1296.11"/>
<polygon fill="black" stroke="black" points="428.39,-1296.1 424.89,-1286.1 421.39,-1296.1 428.39,-1296.1"/>
</g>
<!-- Sentience -->
<g id="node20" class="node">
<title>Sentience</title>
<g id="a_node20"><a xlink:href="https://en.wikipedia.org/wiki/Sentience" xlink:title="Sentience">
<ellipse fill="lightskyblue" stroke="lightskyblue" cx="424.89" cy="-1196" rx="45.49" ry="18"/>
<text text-anchor="middle" x="424.89" y="-1192.3" font-family="Times New Roman,serif" font-size="14.00">Sentience</text>
</a>
</g>
</g>
<!-- Consciousness&#45;&gt;Sentience -->
<g id="edge19" class="edge">
<title>Consciousness&#45;&gt;Sentience</title>
<path fill="none" stroke="black" d="M424.89,-1249.7C424.89,-1241.98 424.89,-1232.71 424.89,-1224.11"/>
<polygon fill="black" stroke="black" points="428.39,-1224.1 424.89,-1214.1 421.39,-1224.1 428.39,-1224.1"/>
</g>
<!-- Feeling -->
<g id="node21" class="node">
<title>Feeling</title>
<g id="a_node21"><a xlink:href="https://en.wikipedia.org/wiki/Feeling" xlink:title="Feeling">
<ellipse fill="lightskyblue" stroke="lightskyblue" cx="424.89" cy="-1124" rx="36.29" ry="18"/>
<text text-anchor="middle" x="424.89" y="-1120.3" font-family="Times New Roman,serif" font-size="14.00">Feeling</text>
</a>
</g>
</g>
<!-- Sentience&#45;&gt;Feeling -->
<g id="edge20" class="edge">
<title>Sentience&#45;&gt;Feeling</title>
<path fill="none" stroke="black" d="M424.89,-1177.7C424.89,-1169.98 424.89,-1160.71 424.89,-1152.11"/>
<polygon fill="black" stroke="black" points="428.39,-1152.1 424.89,-1142.1 421.39,-1152.1 428.39,-1152.1"/>
</g>
<!-- Touch -->
<g id="node22" class="node">
<title>Touch</title>
<g id="a_node22"><a xlink:href="https://en.wikipedia.org/wiki/Touch" xlink:title="Touch">
<ellipse fill="lightskyblue" stroke="lightskyblue" cx="424.89" cy="-1052" rx="34.39" ry="18"/>
<text text-anchor="middle" x="424.89" y="-1048.3" font-family="Times New Roman,serif" font-size="14.00">Touch</text>
</a>
</g>
</g>
<!-- Feeling&#45;&gt;Touch -->
<g id="edge21" class="edge">
<title>Feeling&#45;&gt;Touch</title>
<path fill="none" stroke="black" d="M424.89,-1105.7C424.89,-1097.98 424.89,-1088.71 424.89,-1080.11"/>
<polygon fill="black" stroke="black" points="428.39,-1080.1 424.89,-1070.1 421.39,-1080.1 428.39,-1080.1"/>
</g>
<!-- Sensory nervous system -->
<g id="node23" class="node">
<title>Sensory nervous system</title>
<g id="a_node23"><a xlink:href="https://en.wikipedia.org/wiki/Sensory_nervous_system" xlink:title="Sensory nervous system">
<ellipse fill="lightskyblue" stroke="lightskyblue" cx="424.89" cy="-980" rx="99.38" ry="18"/>
<text text-anchor="middle" x="424.89" y="-976.3" font-family="Times New Roman,serif" font-size="14.00">Sensory nervous system</text>
</a>
</g>
</g>
<!-- Touch&#45;&gt;Sensory nervous system -->
<g id="edge22" class="edge">
<title>Touch&#45;&gt;Sensory nervous system</title>
<path fill="none" stroke="black" d="M424.89,-1033.7C424.89,-1025.98 424.89,-1016.71 424.89,-1008.11"/>
<polygon fill="black" stroke="black" points="428.39,-1008.1 424.89,-998.1 421.39,-1008.1 428.39,-1008.1"/>
</g>
<!-- Nervous system -->
<g id="node24" class="node">
<title>Nervous system</title>
<g id="a_node24"><a xlink:href="https://en.wikipedia.org/wiki/Nervous_system" xlink:title="Nervous system">
<ellipse fill="lightskyblue" stroke="lightskyblue" cx="416.89" cy="-908" rx="69.59" ry="18"/>
<text text-anchor="middle" x="416.89" y="-904.3" font-family="Times New Roman,serif" font-size="14.00">Nervous system</text>
</a>
</g>
</g>
<!-- Sensory nervous system&#45;&gt;Nervous system -->
<g id="edge23" class="edge">
<title>Sensory nervous system&#45;&gt;Nervous system</title>
<path fill="none" stroke="black" d="M422.91,-961.7C422.03,-953.98 420.97,-944.71 419.99,-936.11"/>
<polygon fill="black" stroke="black" points="423.46,-935.64 418.85,-926.1 416.5,-936.44 423.46,-935.64"/>
</g>
<!-- Biology -->
<g id="node25" class="node">
<title>Biology</title>
<g id="a_node25"><a xlink:href="https://en.wikipedia.org/wiki/Biology" xlink:title="Biology">
<ellipse fill="lightskyblue" stroke="lightskyblue" cx="309.89" cy="-836" rx="38.99" ry="18"/>
<text text-anchor="middle" x="309.89" y="-832.3" font-family="Times New Roman,serif" font-size="14.00">Biology</text>
</a>
</g>
</g>
<!-- Nervous system&#45;&gt;Biology -->
<g id="edge24" class="edge">
<title>Nervous system&#45;&gt;Biology</title>
<path fill="none" stroke="black" d="M392.61,-891.12C377.11,-880.97 356.88,-867.74 340.31,-856.9"/>
<polygon fill="black" stroke="black" points="341.82,-853.7 331.53,-851.16 337.99,-859.56 341.82,-853.7"/>
</g>
<!-- Natural science -->
<g id="node26" class="node">
<title>Natural science</title>
<g id="a_node26"><a xlink:href="https://en.wikipedia.org/wiki/Natural_science" xlink:title="Natural science">
<ellipse fill="lightskyblue" stroke="lightskyblue" cx="360.89" cy="-764" rx="65.79" ry="18"/>
<text text-anchor="middle" x="360.89" y="-760.3" font-family="Times New Roman,serif" font-size="14.00">Natural science</text>
</a>
</g>
</g>
<!-- Biology&#45;&gt;Natural science -->
<g id="edge25" class="edge">
<title>Biology&#45;&gt;Natural science</title>
<path fill="none" stroke="black" d="M321.72,-818.76C327.85,-810.35 335.47,-799.89 342.36,-790.44"/>
<polygon fill="black" stroke="black" points="345.36,-792.27 348.42,-782.12 339.7,-788.15 345.36,-792.27"/>
</g>
<!-- Branches of science -->
<g id="node27" class="node">
<title>Branches of science</title>
<g id="a_node27"><a xlink:href="https://en.wikipedia.org/wiki/Branches_of_science" xlink:title="Branches of science">
<ellipse fill="lightskyblue" stroke="lightskyblue" cx="363.89" cy="-692" rx="83.69" ry="18"/>
<text text-anchor="middle" x="363.89" y="-688.3" font-family="Times New Roman,serif" font-size="14.00">Branches of science</text>
</a>
</g>
</g>
<!-- Natural science&#45;&gt;Branches of science -->
<g id="edge26" class="edge">
<title>Natural science&#45;&gt;Branches of science</title>
<path fill="none" stroke="black" d="M361.63,-745.7C361.96,-737.98 362.36,-728.71 362.73,-720.11"/>
<polygon fill="black" stroke="black" points="366.23,-720.25 363.16,-710.1 359.23,-719.95 366.23,-720.25"/>
</g>
<!-- Science -->
<g id="node28" class="node">
<title>Science</title>
<g id="a_node28"><a xlink:href="https://en.wikipedia.org/wiki/Science" xlink:title="Science">
<ellipse fill="lightskyblue" stroke="lightskyblue" cx="439.89" cy="-620" rx="38.99" ry="18"/>
<text text-anchor="middle" x="439.89" y="-616.3" font-family="Times New Roman,serif" font-size="14.00">Science</text>
</a>
</g>
</g>
<!-- Branches of science&#45;&gt;Science -->
<g id="edge27" class="edge">
<title>Branches of science&#45;&gt;Science</title>
<path fill="none" stroke="black" d="M381.9,-674.41C391.93,-665.17 404.56,-653.54 415.47,-643.49"/>
<polygon fill="black" stroke="black" points="418.07,-645.86 423.05,-636.51 413.32,-640.71 418.07,-645.86"/>
</g>
<!-- Scientific method -->
<g id="node29" class="node">
<title>Scientific method</title>
<g id="a_node29"><a xlink:href="https://en.wikipedia.org/wiki/Scientific_method" xlink:title="Scientific method">
<ellipse fill="lightskyblue" stroke="lightskyblue" cx="439.89" cy="-548" rx="74.19" ry="18"/>
<text text-anchor="middle" x="439.89" y="-544.3" font-family="Times New Roman,serif" font-size="14.00">Scientific method</text>
</a>
</g>
</g>
<!-- Science&#45;&gt;Scientific method -->
<g id="edge28" class="edge">
<title>Science&#45;&gt;Scientific method</title>
<path fill="none" stroke="black" d="M439.89,-601.7C439.89,-593.98 439.89,-584.71 439.89,-576.11"/>
<polygon fill="black" stroke="black" points="443.39,-576.1 439.89,-566.1 436.39,-576.1 443.39,-576.1"/>
</g>
<!-- Empirical evidence -->
<g id="node30" class="node">
<title>Empirical evidence</title>
<g id="a_node30"><a xlink:href="https://en.wikipedia.org/wiki/Empirical_evidence" xlink:title="Empirical evidence">
<ellipse fill="lightskyblue" stroke="lightskyblue" cx="439.89" cy="-476" rx="79.09" ry="18"/>
<text text-anchor="middle" x="439.89" y="-472.3" font-family="Times New Roman,serif" font-size="14.00">Empirical evidence</text>
</a>
</g>
</g>
<!-- Scientific method&#45;&gt;Empirical evidence -->
<g id="edge29" class="edge">
<title>Scientific method&#45;&gt;Empirical evidence</title>
<path fill="none" stroke="black" d="M439.89,-529.7C439.89,-521.98 439.89,-512.71 439.89,-504.11"/>
<polygon fill="black" stroke="black" points="443.39,-504.1 439.89,-494.1 436.39,-504.1 443.39,-504.1"/>
</g>
<!-- Information -->
<g id="node31" class="node">
<title>Information</title>
<g id="a_node31"><a xlink:href="https://en.wikipedia.org/wiki/Information" xlink:title="Information">
<ellipse fill="lightskyblue" stroke="lightskyblue" cx="439.89" cy="-404" rx="53.09" ry="18"/>
<text text-anchor="middle" x="439.89" y="-400.3" font-family="Times New Roman,serif" font-size="14.00">Information</text>
</a>
</g>
</g>
<!-- Empirical evidence&#45;&gt;Information -->
<g id="edge30" class="edge">
<title>Empirical evidence&#45;&gt;Information</title>
<path fill="none" stroke="black" d="M439.89,-457.7C439.89,-449.98 439.89,-440.71 439.89,-432.11"/>
<polygon fill="black" stroke="black" points="443.39,-432.1 439.89,-422.1 436.39,-432.1 443.39,-432.1"/>
</g>
<!-- Uncertainty -->
<g id="node32" class="node">
<title>Uncertainty</title>
<g id="a_node32"><a xlink:href="https://en.wikipedia.org/wiki/Uncertainty" xlink:title="Uncertainty">
<ellipse fill="lightskyblue" stroke="lightskyblue" cx="439.89" cy="-332" rx="51.99" ry="18"/>
<text text-anchor="middle" x="439.89" y="-328.3" font-family="Times New Roman,serif" font-size="14.00">Uncertainty</text>
</a>
</g>
</g>
<!-- Information&#45;&gt;Uncertainty -->
<g id="edge31" class="edge">
<title>Information&#45;&gt;Uncertainty</title>
<path fill="none" stroke="black" d="M439.89,-385.7C439.89,-377.98 439.89,-368.71 439.89,-360.11"/>
<polygon fill="black" stroke="black" points="443.39,-360.1 439.89,-350.1 436.39,-360.1 443.39,-360.1"/>
</g>
<!-- Epistemology -->
<g id="node33" class="node">
<title>Epistemology</title>
<g id="a_node33"><a xlink:href="https://en.wikipedia.org/wiki/Epistemology" xlink:title="Epistemology">
<ellipse fill="lightskyblue" stroke="lightskyblue" cx="439.89" cy="-260" rx="60.39" ry="18"/>
<text text-anchor="middle" x="439.89" y="-256.3" font-family="Times New Roman,serif" font-size="14.00">Epistemology</text>
</a>
</g>
</g>
<!-- Uncertainty&#45;&gt;Epistemology -->
<g id="edge32" class="edge">
<title>Uncertainty&#45;&gt;Epistemology</title>
<path fill="none" stroke="black" d="M439.89,-313.7C439.89,-305.98 439.89,-296.71 439.89,-288.11"/>
<polygon fill="black" stroke="black" points="443.39,-288.1 439.89,-278.1 436.39,-288.1 443.39,-288.1"/>
</g>
<!-- Outline of philosophy -->
<g id="node34" class="node">
<title>Outline of philosophy</title>
<g id="a_node34"><a xlink:href="https://en.wikipedia.org/wiki/Outline_of_philosophy" xlink:title="Outline of philosophy">
<ellipse fill="lightskyblue" stroke="lightskyblue" cx="439.89" cy="-188" rx="89.88" ry="18"/>
<text text-anchor="middle" x="439.89" y="-184.3" font-family="Times New Roman,serif" font-size="14.00">Outline of philosophy</text>
</a>
</g>
</g>
<!-- Epistemology&#45;&gt;Outline of philosophy -->
<g id="edge33" class="edge">
<title>Epistemology&#45;&gt;Outline of philosophy</title>
<path fill="none" stroke="black" d="M439.89,-241.7C439.89,-233.98 439.89,-224.71 439.89,-216.11"/>
<polygon fill="black" stroke="black" points="443.39,-216.1 439.89,-206.1 436.39,-216.1 443.39,-216.1"/>
</g>
<!-- Philosophy -->
<g id="node35" class="node">
<title>Philosophy</title>
<g id="a_node35"><a xlink:href="https://en.wikipedia.org/wiki/Philosophy" xlink:title="Philosophy">
<ellipse fill="lightskyblue" stroke="lightskyblue" cx="439.89" cy="-116" rx="51.99" ry="18"/>
<text text-anchor="middle" x="439.89" y="-112.3" font-family="Times New Roman,serif" font-size="14.00">Philosophy</text>
</a>
</g>
</g>
<!-- Outline of philosophy&#45;&gt;Philosophy -->
<g id="edge34" class="edge">
<title>Outline of philosophy&#45;&gt;Philosophy</title>
<path fill="none" stroke="black" d="M439.89,-169.7C439.89,-161.98 439.89,-152.71 439.89,-144.11"/>
<polygon fill="black" stroke="black" points="443.39,-144.1 439.89,-134.1 436.39,-144.1 443.39,-144.1"/>
</g>
<!-- Stara Gora pri Velikem Gabru -->
<g id="node36" class="node">
<title>Stara Gora pri Velikem Gabru</title>
<g id="a_node36"><a xlink:href="https://en.wikipedia.org/wiki/Stara_Gora_pri_Velikem_Gabru" xlink:title="Stara Gora pri Velikem Gabru">
<ellipse fill="#b0e2ff" stroke="#b0e2ff" cx="661.89" cy="-980" rx="119.68" ry="18"/>
<text text-anchor="middle" x="661.89" y="-976.3" font-family="Times New Roman,serif" font-size="14.00">Stara Gora pri Velikem Gabru</text>
</a>
</g>
</g>
<!-- Veliki Gaber -->
<g id="node37" class="node">
<title>Veliki Gaber</title>
<g id="a_node37"><a xlink:href="https://en.wikipedia.org/wiki/Veliki_Gaber" xlink:title="Veliki Gaber">
<ellipse fill="lightskyblue" stroke="lightskyblue" cx="660.89" cy="-908" rx="55.79" ry="18"/>
<text text-anchor="middle" x="660.89" y="-904.3" font-family="Times New Roman,serif" font-size="14.00">Veliki Gaber</text>
</a>
</g>
</g>
<!-- Stara Gora pri Velikem Gabru&#45;&gt;Veliki Gaber -->
<g id="edge35" class="edge">
<title>Stara Gora pri Velikem Gabru&#45;&gt;Veliki Gaber</title>
<path fill="none" stroke="black" d="M661.64,-961.7C661.53,-953.98 661.4,-944.71 661.28,-936.11"/>
<polygon fill="black" stroke="black" points="664.78,-936.05 661.14,-926.1 657.78,-936.15 664.78,-936.05"/>
</g>
<!-- Village -->
<g id="node38" class="node">
<title>Village</title>
<g id="a_node38"><a xlink:href="https://en.wikipedia.org/wiki/Village" xlink:title="Village">
<ellipse fill="lightskyblue" stroke="lightskyblue" cx="657.89" cy="-836" rx="35.19" ry="18"/>
<text text-anchor="middle" x="657.89" y="-832.3" font-family="Times New Roman,serif" font-size="14.00">Village</text>
</a>
</g>
</g>
<!-- Veliki Gaber&#45;&gt;Village -->
<g id="edge36" class="edge">
<title>Veliki Gaber&#45;&gt;Village</title>
<path fill="none" stroke="black" d="M660.15,-889.7C659.82,-881.98 659.42,-872.71 659.05,-864.11"/>
<polygon fill="black" stroke="black" points="662.55,-863.95 658.62,-854.1 655.56,-864.25 662.55,-863.95"/>
</g>
<!-- Human settlement -->
<g id="node39" class="node">
<title>Human settlement</title>
<g id="a_node39"><a xlink:href="https://en.wikipedia.org/wiki/Human_settlement" xlink:title="Human settlement">
<ellipse fill="lightskyblue" stroke="lightskyblue" cx="545.89" cy="-764" rx="75.29" ry="18"/>
<text text-anchor="middle" x="545.89" y="-760.3" font-family="Times New Roman,serif" font-size="14.00">Human settlement</text>
</a>
</g>
</g>
<!-- Village&#45;&gt;Human settlement -->
<g id="edge37" class="edge">
<title>Village&#45;&gt;Human settlement</title>
<path fill="none" stroke="black" d="M636.56,-821.67C620.64,-811.71 598.54,-797.91 580.15,-786.41"/>
<polygon fill="black" stroke="black" points="581.8,-783.31 571.46,-780.98 578.09,-789.25 581.8,-783.31"/>
</g>
<!-- Geography -->
<g id="node40" class="node">
<title>Geography</title>
<g id="a_node40"><a xlink:href="https://en.wikipedia.org/wiki/Geography" xlink:title="Geography">
<ellipse fill="lightskyblue" stroke="lightskyblue" cx="517.89" cy="-692" rx="51.19" ry="18"/>
<text text-anchor="middle" x="517.89" y="-688.3" font-family="Times New Roman,serif" font-size="14.00">Geography</text>
</a>
</g>
</g>
<!-- Human settlement&#45;&gt;Geography -->
<g id="edge38" class="edge">
<title>Human settlement&#45;&gt;Geography</title>
<path fill="none" stroke="black" d="M539.11,-746.05C535.96,-738.18 532.14,-728.62 528.61,-719.79"/>
<polygon fill="black" stroke="black" points="531.77,-718.26 524.8,-710.28 525.27,-720.86 531.77,-718.26"/>
</g>
<!-- Geography&#45;&gt;Science -->
<g id="edge39" class="edge">
<title>Geography&#45;&gt;Science</title>
<path fill="none" stroke="black" d="M499.8,-674.76C489.34,-665.38 476.04,-653.44 464.62,-643.2"/>
<polygon fill="black" stroke="black" points="466.86,-640.5 457.08,-636.43 462.19,-645.71 466.86,-640.5"/>
</g>
<!-- Cortinarius hemitrichus -->
<g id="node41" class="node">
<title>Cortinarius hemitrichus</title>
<g id="a_node41"><a xlink:href="https://en.wikipedia.org/wiki/Cortinarius_hemitrichus" xlink:title="Cortinarius hemitrichus">
<ellipse fill="#b0e2ff" stroke="#b0e2ff" cx="94.89" cy="-1196" rx="94.78" ry="18"/>
<text text-anchor="middle" x="94.89" y="-1192.3" font-family="Times New Roman,serif" font-size="14.00">Cortinarius hemitrichus</text>
</a>
</g>
</g>
<!-- Basidiomycete -->
<g id="node42" class="node">
<title>Basidiomycete</title>
<g id="a_node42"><a xlink:href="https://en.wikipedia.org/wiki/Basidiomycete" xlink:title="Basidiomycete">
<ellipse fill="lightskyblue" stroke="lightskyblue" cx="96.89" cy="-1124" rx="63.89" ry="18"/>
<text text-anchor="middle" x="96.89" y="-1120.3" font-family="Times New Roman,serif" font-size="14.00">Basidiomycete</text>
</a>
</g>
</g>
<!-- Cortinarius hemitrichus&#45;&gt;Basidiomycete -->
<g id="edge40" class="edge">
<title>Cortinarius hemitrichus&#45;&gt;Basidiomycete</title>
<path fill="none" stroke="black" d="M95.39,-1177.7C95.61,-1169.98 95.87,-1160.71 96.12,-1152.11"/>
<polygon fill="black" stroke="black" points="99.62,-1152.2 96.4,-1142.1 92.62,-1152 99.62,-1152.2"/>
</g>
<!-- Division (mycology) -->
<g id="node43" class="node">
<title>Division (mycology)</title>
<g id="a_node43"><a xlink:href="https://en.wikipedia.org/wiki/Division_(mycology)" xlink:title="Division (mycology)">
<ellipse fill="lightskyblue" stroke="lightskyblue" cx="100.89" cy="-1052" rx="85.29" ry="18"/>
<text text-anchor="middle" x="100.89" y="-1048.3" font-family="Times New Roman,serif" font-size="14.00">Division (mycology)</text>
</a>
</g>
</g>
<!-- Basidiomycete&#45;&gt;Division (mycology) -->
<g id="edge41" class="edge">
<title>Basidiomycete&#45;&gt;Division (mycology)</title>
<path fill="none" stroke="black" d="M97.88,-1105.7C98.32,-1097.98 98.85,-1088.71 99.34,-1080.11"/>
<polygon fill="black" stroke="black" points="102.84,-1080.29 99.91,-1070.1 95.85,-1079.89 102.84,-1080.29"/>
</g>
<!-- Taxonomic rank -->
<g id="node44" class="node">
<title>Taxonomic rank</title>
<g id="a_node44"><a xlink:href="https://en.wikipedia.org/wiki/Taxonomic_rank" xlink:title="Taxonomic rank">
<ellipse fill="lightskyblue" stroke="lightskyblue" cx="108.89" cy="-980" rx="70.39" ry="18"/>
<text text-anchor="middle" x="108.89" y="-976.3" font-family="Times New Roman,serif" font-size="14.00">Taxonomic rank</text>
</a>
</g>
</g>
<!-- Division (mycology)&#45;&gt;Taxonomic rank -->
<g id="edge42" class="edge">
<title>Division (mycology)&#45;&gt;Taxonomic rank</title>
<path fill="none" stroke="black" d="M102.87,-1033.7C103.75,-1025.98 104.81,-1016.71 105.79,-1008.11"/>
<polygon fill="black" stroke="black" points="109.28,-1008.44 106.94,-998.1 102.32,-1007.64 109.28,-1008.44"/>
</g>
<!-- Biological classification -->
<g id="node45" class="node">
<title>Biological classification</title>
<g id="a_node45"><a xlink:href="https://en.wikipedia.org/wiki/Biological_classification" xlink:title="Biological classification">
<ellipse fill="lightskyblue" stroke="lightskyblue" cx="116.89" cy="-908" rx="96.38" ry="18"/>
<text text-anchor="middle" x="116.89" y="-904.3" font-family="Times New Roman,serif" font-size="14.00">Biological classification</text>
</a>
</g>
</g>
<!-- Taxonomic rank&#45;&gt;Biological classification -->
<g id="edge43" class="edge">
<title>Taxonomic rank&#45;&gt;Biological classification</title>
<path fill="none" stroke="black" d="M110.87,-961.7C111.75,-953.98 112.81,-944.71 113.79,-936.11"/>
<polygon fill="black" stroke="black" points="117.28,-936.44 114.94,-926.1 110.32,-935.64 117.28,-936.44"/>
</g>
<!-- Biological classification&#45;&gt;Biology -->
<g id="edge44" class="edge">
<title>Biological classification&#45;&gt;Biology</title>
<path fill="none" stroke="black" d="M159.25,-891.64C192.43,-879.6 238.25,-862.99 270.61,-851.25"/>
<polygon fill="black" stroke="black" points="271.99,-854.47 280.2,-847.77 269.61,-847.89 271.99,-854.47"/>
</g>
<!-- Alnwick -->
<g id="node46" class="node">
<title>Alnwick</title>
<g id="a_node46"><a xlink:href="https://en.wikipedia.org/wiki/Alnwick" xlink:title="Alnwick">
<ellipse fill="#b0e2ff" stroke="#b0e2ff" cx="545.89" cy="-908" rx="40.09" ry="18"/>
<text text-anchor="middle" x="545.89" y="-904.3" font-family="Times New Roman,serif" font-size="14.00">Alnwick</text>
</a>
</g>
</g>
<!-- Market town -->
<g id="node47" class="node">
<title>Market town</title>
<g id="a_node47"><a xlink:href="https://en.wikipedia.org/wiki/Market_town" xlink:title="Market town">
<ellipse fill="lightskyblue" stroke="lightskyblue" cx="545.89" cy="-836" rx="56.59" ry="18"/>
<text text-anchor="middle" x="545.89" y="-832.3" font-family="Times New Roman,serif" font-size="14.00">Market town</text>
</a>
</g>
</g>
<!-- Alnwick&#45;&gt;Market town -->
<g id="edge45" class="edge">
<title>Alnwick&#45;&gt;Market town</title>
<path fill="none" stroke="black" d="M545.89,-889.7C545.89,-881.98 545.89,-872.71 545.89,-864.11"/>
<polygon fill="black" stroke="black" points="549.39,-864.1 545.89,-854.1 542.39,-864.1 549.39,-864.1"/>
</g>
<!-- Market town&#45;&gt;Human settlement -->
<g id="edge46" class="edge">
<title>Market town&#45;&gt;Human settlement</title>
<path fill="none" stroke="black" d="M545.89,-817.7C545.89,-809.98 545.89,-800.71 545.89,-792.11"/>
<polygon fill="black" stroke="black" points="549.39,-792.1 545.89,-782.1 542.39,-792.1 549.39,-792.1"/>
</g>
<!-- Oreophryne kampeni -->
<g id="node48" class="node">
<title>Oreophryne kampeni</title>
<g id="a_node48"><a xlink:href="https://en.wikipedia.org/wiki/Oreophryne_kampeni" xlink:title="Oreophryne kampeni">
<ellipse fill="#b0e2ff" stroke="#b0e2ff" cx="253.89" cy="-1340" rx="87.18" ry="18"/>
<text text-anchor="middle" x="253.89" y="-1336.3" font-family="Times New Roman,serif" font-size="14.00">Oreophryne kampeni</text>
</a>
</g>
</g>
<!-- Frog -->
<g id="node49" class="node">
<title>Frog</title>
<g id="a_node49"><a xlink:href="https://en.wikipedia.org/wiki/Frog" xlink:title="Frog">
<ellipse fill="lightskyblue" stroke="lightskyblue" cx="253.89" cy="-1268" rx="28.7" ry="18"/>
<text text-anchor="middle" x="253.89" y="-1264.3" font-family="Times New Roman,serif" font-size="14.00">Frog</text>
</a>
</g>
</g>
<!-- Oreophryne kampeni&#45;&gt;Frog -->
<g id="edge47" class="edge">
<title>Oreophryne kampeni&#45;&gt;Frog</title>
<path fill="none" stroke="black" d="M253.89,-1321.7C253.89,-1313.98 253.89,-1304.71 253.89,-1296.11"/>
<polygon fill="black" stroke="black" points="257.39,-1296.1 253.89,-1286.1 250.39,-1296.1 257.39,-1296.1"/>
</g>
<!-- Carnivore -->
<g id="node50" class="node">
<title>Carnivore</title>
<g id="a_node50"><a xlink:href="https://en.wikipedia.org/wiki/Carnivore" xlink:title="Carnivore">
<ellipse fill="lightskyblue" stroke="lightskyblue" cx="253.89" cy="-1196" rx="46.29" ry="18"/>
<text text-anchor="middle" x="253.89" y="-1192.3" font-family="Times New Roman,serif" font-size="14.00">Carnivore</text>
</a>
</g>
</g>
<!-- Frog&#45;&gt;Carnivore -->
<g id="edge48" class="edge">
<title>Frog&#45;&gt;Carnivore</title>
<path fill="none" stroke="black" d="M253.89,-1249.7C253.89,-1241.98 253.89,-1232.71 253.89,-1224.11"/>
<polygon fill="black" stroke="black" points="257.39,-1224.1 253.89,-1214.1 250.39,-1224.1 257.39,-1224.1"/>
</g>
<!-- Meat -->
<g id="node51" class="node">
<title>Meat</title>
<g id="a_node51"><a xlink:href="https://en.wikipedia.org/wiki/Meat" xlink:title="Meat">
<ellipse fill="lightskyblue" stroke="lightskyblue" cx="252.89" cy="-1124" rx="28.7" ry="18"/>
<text text-anchor="middle" x="252.89" y="-1120.3" font-family="Times New Roman,serif" font-size="14.00">Meat</text>
</a>
</g>
</g>
<!-- Carnivore&#45;&gt;Meat -->
<g id="edge49" class="edge">
<title>Carnivore&#45;&gt;Meat</title>
<path fill="none" stroke="black" d="M253.64,-1177.7C253.53,-1169.98 253.4,-1160.71 253.28,-1152.11"/>
<polygon fill="black" stroke="black" points="256.78,-1152.05 253.14,-1142.1 249.78,-1152.15 256.78,-1152.05"/>
</g>
<!-- Animal -->
<g id="node52" class="node">
<title>Animal</title>
<g id="a_node52"><a xlink:href="https://en.wikipedia.org/wiki/Animal" xlink:title="Animal">
<ellipse fill="lightskyblue" stroke="lightskyblue" cx="252.89" cy="-1052" rx="36.29" ry="18"/>
<text text-anchor="middle" x="252.89" y="-1048.3" font-family="Times New Roman,serif" font-size="14.00">Animal</text>
</a>
</g>
</g>
<!-- Meat&#45;&gt;Animal -->
<g id="edge50" class="edge">
<title>Meat&#45;&gt;Animal</title>
<path fill="none" stroke="black" d="M252.89,-1105.7C252.89,-1097.98 252.89,-1088.71 252.89,-1080.11"/>
<polygon fill="black" stroke="black" points="256.39,-1080.1 252.89,-1070.1 249.39,-1080.1 256.39,-1080.1"/>
</g>
<!-- Multicellular -->
<g id="node53" class="node">
<title>Multicellular</title>
<g id="a_node53"><a xlink:href="https://en.wikipedia.org/wiki/Multicellular" xlink:title="Multicellular">
<ellipse fill="lightskyblue" stroke="lightskyblue" cx="252.89" cy="-980" rx="54.69" ry="18"/>
<text text-anchor="middle" x="252.89" y="-976.3" font-family="Times New Roman,serif" font-size="14.00">Multicellular</text>
</a>
</g>
</g>
<!-- Animal&#45;&gt;Multicellular -->
<g id="edge51" class="edge">
<title>Animal&#45;&gt;Multicellular</title>
<path fill="none" stroke="black" d="M252.89,-1033.7C252.89,-1025.98 252.89,-1016.71 252.89,-1008.11"/>
<polygon fill="black" stroke="black" points="256.39,-1008.1 252.89,-998.1 249.39,-1008.1 256.39,-1008.1"/>
</g>
<!-- Organism -->
<g id="node54" class="node">
<title>Organism</title>
<g id="a_node54"><a xlink:href="https://en.wikipedia.org/wiki/Organism" xlink:title="Organism">
<ellipse fill="lightskyblue" stroke="lightskyblue" cx="280.89" cy="-908" rx="46.29" ry="18"/>
<text text-anchor="middle" x="280.89" y="-904.3" font-family="Times New Roman,serif" font-size="14.00">Organism</text>
</a>
</g>
</g>
<!-- Multicellular&#45;&gt;Organism -->
<g id="edge52" class="edge">
<title>Multicellular&#45;&gt;Organism</title>
<path fill="none" stroke="black" d="M259.67,-962.05C262.82,-954.18 266.64,-944.62 270.17,-935.79"/>
<polygon fill="black" stroke="black" points="273.52,-936.86 273.98,-926.28 267.02,-934.26 273.52,-936.86"/>
</g>
<!-- Organism&#45;&gt;Biology -->
<g id="edge53" class="edge">
<title>Organism&#45;&gt;Biology</title>
<path fill="none" stroke="black" d="M287.91,-890.05C291.26,-881.97 295.34,-872.12 299.07,-863.11"/>
<polygon fill="black" stroke="black" points="302.34,-864.37 302.94,-853.79 295.88,-861.69 302.34,-864.37"/>
</g>
</g>
</svg>
