<?xml version="1.0" encoding="UTF-8" standalone="no"?>
<!DOCTYPE svg PUBLIC "-//W3C//DTD SVG 1.1//EN"
 "http://www.w3.org/Graphics/SVG/1.1/DTD/svg11.dtd">
<!-- Generated by graphviz version 2.46.0 (20210118.1747)
 -->
<!-- Title: unix Pages: 1 -->
<svg width="1456pt" height="2618pt"
 viewBox="0.00 0.00 1455.72 2618.00" xmlns="http://www.w3.org/2000/svg" xmlns:xlink="http://www.w3.org/1999/xlink">
<g id="graph0" class="graph" transform="scale(1 1) rotate(0) translate(4 2614)">
<title>unix</title>
<polygon fill="white" stroke="transparent" points="-4,4 -4,-2614 1451.72,-2614 1451.72,4 -4,4"/>
<text text-anchor="start" x="602.36" y="-22.8" font-family="Times New Roman,serif" font-size="14.00">Graph generated on 08/05/2021 18:08:44.</text>
<text text-anchor="middle" x="723.86" y="-7.8" font-family="Times New Roman,serif" font-size="14.00">Checked 5 pages. Time took: 1.08 minutes.</text>
<!-- 2017 American Athletic Conference Women&#39;s Soccer Tournament -->
<g id="node1" class="node">
<title>2017 American Athletic Conference Women&#39;s Soccer Tournament</title>
<g id="a_node1"><a xlink:href="https://en.wikipedia.org/wiki/2017_American_Athletic_Conference_Women%27s_Soccer_Tournament" xlink:title="2017 American Athletic Conference Women&#39;s Soccer Tournament">
<ellipse fill="#b0e2ff" stroke="#b0e2ff" cx="1196.19" cy="-720" rx="251.56" ry="18"/>
<text text-anchor="middle" x="1196.19" y="-716.3" font-family="Times New Roman,serif" font-size="14.00">2017 American Athletic Conference Women&#39;s Soccer Tournament</text>
</a>
</g>
</g>
<!-- American Athletic Conference -->
<g id="node2" class="node">
<title>American Athletic Conference</title>
<g id="a_node2"><a xlink:href="https://en.wikipedia.org/wiki/American_Athletic_Conference" xlink:title="American Athletic Conference">
<ellipse fill="lightskyblue" stroke="lightskyblue" cx="1181.19" cy="-648" rx="120.48" ry="18"/>
<text text-anchor="middle" x="1181.19" y="-644.3" font-family="Times New Roman,serif" font-size="14.00">American Athletic Conference</text>
</a>
</g>
</g>
<!-- 2017 American Athletic Conference Women&#39;s Soccer Tournament&#45;&gt;American Athletic Conference -->
<g id="edge1" class="edge">
<title>2017 American Athletic Conference Women&#39;s Soccer Tournament&#45;&gt;American Athletic Conference</title>
<path fill="none" stroke="black" d="M1192.48,-701.7C1190.83,-693.98 1188.84,-684.71 1187,-676.11"/>
<polygon fill="black" stroke="black" points="1190.37,-675.15 1184.85,-666.1 1183.53,-676.62 1190.37,-675.15"/>
</g>
<!-- List of NCAA conferences -->
<g id="node3" class="node">
<title>List of NCAA conferences</title>
<g id="a_node3"><a xlink:href="https://en.wikipedia.org/wiki/List_of_NCAA_conferences" xlink:title="List of NCAA conferences">
<ellipse fill="lightskyblue" stroke="lightskyblue" cx="1151.19" cy="-576" rx="108.58" ry="18"/>
<text text-anchor="middle" x="1151.19" y="-572.3" font-family="Times New Roman,serif" font-size="14.00">List of NCAA conferences</text>
</a>
</g>
</g>
<!-- American Athletic Conference&#45;&gt;List of NCAA conferences -->
<g id="edge2" class="edge">
<title>American Athletic Conference&#45;&gt;List of NCAA conferences</title>
<path fill="none" stroke="black" d="M1173.77,-629.7C1170.39,-621.81 1166.32,-612.3 1162.57,-603.55"/>
<polygon fill="black" stroke="black" points="1165.68,-601.92 1158.52,-594.1 1159.24,-604.67 1165.68,-601.92"/>
</g>
<!-- Athletic conference -->
<g id="node4" class="node">
<title>Athletic conference</title>
<g id="a_node4"><a xlink:href="https://en.wikipedia.org/wiki/Athletic_conference" xlink:title="Athletic conference">
<ellipse fill="lightskyblue" stroke="lightskyblue" cx="1101.19" cy="-504" rx="81.49" ry="18"/>
<text text-anchor="middle" x="1101.19" y="-500.3" font-family="Times New Roman,serif" font-size="14.00">Athletic conference</text>
</a>
</g>
</g>
<!-- List of NCAA conferences&#45;&gt;Athletic conference -->
<g id="edge3" class="edge">
<title>List of NCAA conferences&#45;&gt;Athletic conference</title>
<path fill="none" stroke="black" d="M1139.09,-558.05C1133.22,-549.84 1126.04,-539.79 1119.52,-530.66"/>
<polygon fill="black" stroke="black" points="1122.19,-528.38 1113.53,-522.28 1116.49,-532.45 1122.19,-528.38"/>
</g>
<!-- Sports team -->
<g id="node5" class="node">
<title>Sports team</title>
<g id="a_node5"><a xlink:href="https://en.wikipedia.org/wiki/Sports_team" xlink:title="Sports team">
<ellipse fill="lightskyblue" stroke="lightskyblue" cx="1012.19" cy="-432" rx="54.69" ry="18"/>
<text text-anchor="middle" x="1012.19" y="-428.3" font-family="Times New Roman,serif" font-size="14.00">Sports team</text>
</a>
</g>
</g>
<!-- Athletic conference&#45;&gt;Sports team -->
<g id="edge4" class="edge">
<title>Athletic conference&#45;&gt;Sports team</title>
<path fill="none" stroke="black" d="M1080.1,-486.41C1068.21,-477.06 1053.2,-465.25 1040.32,-455.12"/>
<polygon fill="black" stroke="black" points="1042.24,-452.18 1032.21,-448.75 1037.91,-457.68 1042.24,-452.18"/>
</g>
<!-- Sport -->
<g id="node6" class="node">
<title>Sport</title>
<g id="a_node6"><a xlink:href="https://en.wikipedia.org/wiki/Sport" xlink:title="Sport">
<ellipse fill="lightskyblue" stroke="lightskyblue" cx="770.19" cy="-360" rx="31.4" ry="18"/>
<text text-anchor="middle" x="770.19" y="-356.3" font-family="Times New Roman,serif" font-size="14.00">Sport</text>
</a>
</g>
</g>
<!-- Sports team&#45;&gt;Sport -->
<g id="edge5" class="edge">
<title>Sports team&#45;&gt;Sport</title>
<path fill="none" stroke="black" d="M972.5,-419.52C926.72,-406.28 852.04,-384.68 807.35,-371.75"/>
<polygon fill="black" stroke="black" points="808.07,-368.31 797.49,-368.9 806.12,-375.04 808.07,-368.31"/>
</g>
<!-- Competition -->
<g id="node7" class="node">
<title>Competition</title>
<g id="a_node7"><a xlink:href="https://en.wikipedia.org/wiki/Competition" xlink:title="Competition">
<ellipse fill="lightskyblue" stroke="lightskyblue" cx="768.19" cy="-288" rx="55.79" ry="18"/>
<text text-anchor="middle" x="768.19" y="-284.3" font-family="Times New Roman,serif" font-size="14.00">Competition</text>
</a>
</g>
</g>
<!-- Sport&#45;&gt;Competition -->
<g id="edge6" class="edge">
<title>Sport&#45;&gt;Competition</title>
<path fill="none" stroke="black" d="M769.69,-341.7C769.47,-333.98 769.21,-324.71 768.96,-316.11"/>
<polygon fill="black" stroke="black" points="772.46,-316 768.68,-306.1 765.46,-316.2 772.46,-316"/>
</g>
<!-- Goal -->
<g id="node8" class="node">
<title>Goal</title>
<g id="a_node8"><a xlink:href="https://en.wikipedia.org/wiki/Goal" xlink:title="Goal">
<ellipse fill="lightskyblue" stroke="lightskyblue" cx="767.19" cy="-216" rx="28.7" ry="18"/>
<text text-anchor="middle" x="767.19" y="-212.3" font-family="Times New Roman,serif" font-size="14.00">Goal</text>
</a>
</g>
</g>
<!-- Competition&#45;&gt;Goal -->
<g id="edge7" class="edge">
<title>Competition&#45;&gt;Goal</title>
<path fill="none" stroke="black" d="M767.94,-269.7C767.83,-261.98 767.7,-252.71 767.58,-244.11"/>
<polygon fill="black" stroke="black" points="771.08,-244.05 767.43,-234.1 764.08,-244.15 771.08,-244.05"/>
</g>
<!-- Idea -->
<g id="node9" class="node">
<title>Idea</title>
<g id="a_node9"><a xlink:href="https://en.wikipedia.org/wiki/Idea" xlink:title="Idea">
<ellipse fill="lightskyblue" stroke="lightskyblue" cx="766.19" cy="-144" rx="27" ry="18"/>
<text text-anchor="middle" x="766.19" y="-140.3" font-family="Times New Roman,serif" font-size="14.00">Idea</text>
</a>
</g>
</g>
<!-- Goal&#45;&gt;Idea -->
<g id="edge8" class="edge">
<title>Goal&#45;&gt;Idea</title>
<path fill="none" stroke="black" d="M766.94,-197.7C766.83,-189.98 766.7,-180.71 766.58,-172.11"/>
<polygon fill="black" stroke="black" points="770.08,-172.05 766.43,-162.1 763.08,-172.15 770.08,-172.05"/>
</g>
<!-- Philosophy -->
<g id="node10" class="node">
<title>Philosophy</title>
<g id="a_node10"><a xlink:href="https://en.wikipedia.org/wiki/Philosophy" xlink:title="Philosophy">
<ellipse fill="lightskyblue" stroke="lightskyblue" cx="696.19" cy="-72" rx="51.99" ry="18"/>
<text text-anchor="middle" x="696.19" y="-68.3" font-family="Times New Roman,serif" font-size="14.00">Philosophy</text>
</a>
</g>
</g>
<!-- Idea&#45;&gt;Philosophy -->
<g id="edge9" class="edge">
<title>Idea&#45;&gt;Philosophy</title>
<path fill="none" stroke="black" d="M751.69,-128.5C742.47,-119.28 730.33,-107.14 719.75,-96.56"/>
<polygon fill="black" stroke="black" points="721.93,-93.79 712.39,-89.2 716.98,-98.74 721.93,-93.79"/>
</g>
<!-- 1998 World Wrestling Championships – Men&#39;s Greco&#45;Roman 58 kg -->
<g id="node11" class="node">
<title>1998 World Wrestling Championships – Men&#39;s Greco&#45;Roman 58 kg</title>
<g id="a_node11"><a xlink:href="https://en.wikipedia.org/wiki/1998_World_Wrestling_Championships_%E2%80%93_Men%27s_Greco-Roman_58_kg" xlink:title="1998 World Wrestling Championships – Men&#39;s Greco&#45;Roman 58 kg">
<ellipse fill="#b0e2ff" stroke="#b0e2ff" cx="668.19" cy="-720" rx="258.85" ry="18"/>
<text text-anchor="middle" x="668.19" y="-716.3" font-family="Times New Roman,serif" font-size="14.00">1998 World Wrestling Championships – Men&#39;s Greco&#45;Roman 58 kg</text>
</a>
</g>
</g>
<!-- 1998 World Wrestling Championships -->
<g id="node12" class="node">
<title>1998 World Wrestling Championships</title>
<g id="a_node12"><a xlink:href="https://en.wikipedia.org/wiki/1998_World_Wrestling_Championships" xlink:title="1998 World Wrestling Championships">
<ellipse fill="lightskyblue" stroke="lightskyblue" cx="668.19" cy="-648" rx="150.27" ry="18"/>
<text text-anchor="middle" x="668.19" y="-644.3" font-family="Times New Roman,serif" font-size="14.00">1998 World Wrestling Championships</text>
</a>
</g>
</g>
<!-- 1998 World Wrestling Championships – Men&#39;s Greco&#45;Roman 58 kg&#45;&gt;1998 World Wrestling Championships -->
<g id="edge10" class="edge">
<title>1998 World Wrestling Championships – Men&#39;s Greco&#45;Roman 58 kg&#45;&gt;1998 World Wrestling Championships</title>
<path fill="none" stroke="black" d="M668.19,-701.7C668.19,-693.98 668.19,-684.71 668.19,-676.11"/>
<polygon fill="black" stroke="black" points="671.69,-676.1 668.19,-666.1 664.69,-676.1 671.69,-676.1"/>
</g>
<!-- World Wrestling Championships -->
<g id="node13" class="node">
<title>World Wrestling Championships</title>
<g id="a_node13"><a xlink:href="https://en.wikipedia.org/wiki/World_Wrestling_Championships" xlink:title="World Wrestling Championships">
<ellipse fill="lightskyblue" stroke="lightskyblue" cx="668.19" cy="-576" rx="129.98" ry="18"/>
<text text-anchor="middle" x="668.19" y="-572.3" font-family="Times New Roman,serif" font-size="14.00">World Wrestling Championships</text>
</a>
</g>
</g>
<!-- 1998 World Wrestling Championships&#45;&gt;World Wrestling Championships -->
<g id="edge11" class="edge">
<title>1998 World Wrestling Championships&#45;&gt;World Wrestling Championships</title>
<path fill="none" stroke="black" d="M668.19,-629.7C668.19,-621.98 668.19,-612.71 668.19,-604.11"/>
<polygon fill="black" stroke="black" points="671.69,-604.1 668.19,-594.1 664.69,-604.1 671.69,-604.1"/>
</g>
<!-- Amateur Wrestling -->
<g id="node14" class="node">
<title>Amateur Wrestling</title>
<g id="a_node14"><a xlink:href="https://en.wikipedia.org/wiki/Amateur_Wrestling" xlink:title="Amateur Wrestling">
<ellipse fill="lightskyblue" stroke="lightskyblue" cx="675.19" cy="-504" rx="78.79" ry="18"/>
<text text-anchor="middle" x="675.19" y="-500.3" font-family="Times New Roman,serif" font-size="14.00">Amateur Wrestling</text>
</a>
</g>
</g>
<!-- World Wrestling Championships&#45;&gt;Amateur Wrestling -->
<g id="edge12" class="edge">
<title>World Wrestling Championships&#45;&gt;Amateur Wrestling</title>
<path fill="none" stroke="black" d="M669.92,-557.7C670.69,-549.98 671.62,-540.71 672.48,-532.11"/>
<polygon fill="black" stroke="black" points="675.97,-532.4 673.48,-522.1 669,-531.71 675.97,-532.4"/>
</g>
<!-- Amateur sports -->
<g id="node15" class="node">
<title>Amateur sports</title>
<g id="a_node15"><a xlink:href="https://en.wikipedia.org/wiki/Amateur_sports" xlink:title="Amateur sports">
<ellipse fill="lightskyblue" stroke="lightskyblue" cx="688.19" cy="-432" rx="66.89" ry="18"/>
<text text-anchor="middle" x="688.19" y="-428.3" font-family="Times New Roman,serif" font-size="14.00">Amateur sports</text>
</a>
</g>
</g>
<!-- Amateur Wrestling&#45;&gt;Amateur sports -->
<g id="edge13" class="edge">
<title>Amateur Wrestling&#45;&gt;Amateur sports</title>
<path fill="none" stroke="black" d="M678.4,-485.7C679.84,-477.98 681.56,-468.71 683.15,-460.11"/>
<polygon fill="black" stroke="black" points="686.63,-460.58 685.01,-450.1 679.75,-459.3 686.63,-460.58"/>
</g>
<!-- Amateur sports&#45;&gt;Sport -->
<g id="edge14" class="edge">
<title>Amateur sports&#45;&gt;Sport</title>
<path fill="none" stroke="black" d="M707.62,-414.41C719.04,-404.66 733.59,-392.25 745.78,-381.84"/>
<polygon fill="black" stroke="black" points="748.06,-384.49 753.39,-375.34 743.51,-379.17 748.06,-384.49"/>
</g>
<!-- Frank Connellan -->
<g id="node16" class="node">
<title>Frank Connellan</title>
<g id="a_node16"><a xlink:href="https://en.wikipedia.org/wiki/Frank_Connellan" xlink:title="Frank Connellan">
<ellipse fill="#b0e2ff" stroke="#b0e2ff" cx="913.19" cy="-648" rx="70.39" ry="18"/>
<text text-anchor="middle" x="913.19" y="-644.3" font-family="Times New Roman,serif" font-size="14.00">Frank Connellan</text>
</a>
</g>
</g>
<!-- Australian rules football -->
<g id="node17" class="node">
<title>Australian rules football</title>
<g id="a_node17"><a xlink:href="https://en.wikipedia.org/wiki/Australian_rules_football" xlink:title="Australian rules football">
<ellipse fill="lightskyblue" stroke="lightskyblue" cx="913.19" cy="-576" rx="96.68" ry="18"/>
<text text-anchor="middle" x="913.19" y="-572.3" font-family="Times New Roman,serif" font-size="14.00">Australian rules football</text>
</a>
</g>
</g>
<!-- Frank Connellan&#45;&gt;Australian rules football -->
<g id="edge15" class="edge">
<title>Frank Connellan&#45;&gt;Australian rules football</title>
<path fill="none" stroke="black" d="M913.19,-629.7C913.19,-621.98 913.19,-612.71 913.19,-604.11"/>
<polygon fill="black" stroke="black" points="916.69,-604.1 913.19,-594.1 909.69,-604.1 916.69,-604.1"/>
</g>
<!-- Football -->
<g id="node18" class="node">
<title>Football</title>
<g id="a_node18"><a xlink:href="https://en.wikipedia.org/wiki/Football" xlink:title="Football">
<ellipse fill="lightskyblue" stroke="lightskyblue" cx="906.19" cy="-504" rx="40.89" ry="18"/>
<text text-anchor="middle" x="906.19" y="-500.3" font-family="Times New Roman,serif" font-size="14.00">Football</text>
</a>
</g>
</g>
<!-- Australian rules football&#45;&gt;Football -->
<g id="edge16" class="edge">
<title>Australian rules football&#45;&gt;Football</title>
<path fill="none" stroke="black" d="M911.46,-557.7C910.69,-549.98 909.76,-540.71 908.9,-532.11"/>
<polygon fill="black" stroke="black" points="912.38,-531.71 907.9,-522.1 905.41,-532.4 912.38,-531.71"/>
</g>
<!-- Team sport -->
<g id="node19" class="node">
<title>Team sport</title>
<g id="a_node19"><a xlink:href="https://en.wikipedia.org/wiki/Team_sport" xlink:title="Team sport">
<ellipse fill="lightskyblue" stroke="lightskyblue" cx="853.19" cy="-432" rx="52.79" ry="18"/>
<text text-anchor="middle" x="853.19" y="-428.3" font-family="Times New Roman,serif" font-size="14.00">Team sport</text>
</a>
</g>
</g>
<!-- Football&#45;&gt;Team sport -->
<g id="edge17" class="edge">
<title>Football&#45;&gt;Team sport</title>
<path fill="none" stroke="black" d="M893.9,-486.76C887.37,-478.14 879.21,-467.36 871.91,-457.73"/>
<polygon fill="black" stroke="black" points="874.61,-455.49 865.78,-449.63 869.03,-459.72 874.61,-455.49"/>
</g>
<!-- Team sport&#45;&gt;Sport -->
<g id="edge18" class="edge">
<title>Team sport&#45;&gt;Sport</title>
<path fill="none" stroke="black" d="M834.36,-415.12C822.74,-405.32 807.71,-392.65 795.12,-382.02"/>
<polygon fill="black" stroke="black" points="797.16,-379.16 787.25,-375.39 792.64,-384.52 797.16,-379.16"/>
</g>
<!-- Aurora Ximenes -->
<g id="node20" class="node">
<title>Aurora Ximenes</title>
<g id="a_node20"><a xlink:href="https://en.wikipedia.org/wiki/Aurora_Ximenes" xlink:title="Aurora Ximenes">
<ellipse fill="#b0e2ff" stroke="#b0e2ff" cx="122.19" cy="-2592" rx="69.59" ry="18"/>
<text text-anchor="middle" x="122.19" y="-2588.3" font-family="Times New Roman,serif" font-size="14.00">Aurora Ximenes</text>
</a>
</g>
</g>
<!-- East Timorese -->
<g id="node21" class="node">
<title>East Timorese</title>
<g id="a_node21"><a xlink:href="https://en.wikipedia.org/wiki/East_Timorese" xlink:title="East Timorese">
<ellipse fill="lightskyblue" stroke="lightskyblue" cx="122.19" cy="-2520" rx="63.09" ry="18"/>
<text text-anchor="middle" x="122.19" y="-2516.3" font-family="Times New Roman,serif" font-size="14.00">East Timorese</text>
</a>
</g>
</g>
<!-- Aurora Ximenes&#45;&gt;East Timorese -->
<g id="edge19" class="edge">
<title>Aurora Ximenes&#45;&gt;East Timorese</title>
<path fill="none" stroke="black" d="M122.19,-2573.7C122.19,-2565.98 122.19,-2556.71 122.19,-2548.11"/>
<polygon fill="black" stroke="black" points="125.69,-2548.1 122.19,-2538.1 118.69,-2548.1 125.69,-2548.1"/>
</g>
<!-- Island country -->
<g id="node22" class="node">
<title>Island country</title>
<g id="a_node22"><a xlink:href="https://en.wikipedia.org/wiki/Island_country" xlink:title="Island country">
<ellipse fill="lightskyblue" stroke="lightskyblue" cx="122.19" cy="-2448" rx="63.09" ry="18"/>
<text text-anchor="middle" x="122.19" y="-2444.3" font-family="Times New Roman,serif" font-size="14.00">Island country</text>
</a>
</g>
</g>
<!-- East Timorese&#45;&gt;Island country -->
<g id="edge20" class="edge">
<title>East Timorese&#45;&gt;Island country</title>
<path fill="none" stroke="black" d="M122.19,-2501.7C122.19,-2493.98 122.19,-2484.71 122.19,-2476.11"/>
<polygon fill="black" stroke="black" points="125.69,-2476.1 122.19,-2466.1 118.69,-2476.1 125.69,-2476.1"/>
</g>
<!-- Country -->
<g id="node23" class="node">
<title>Country</title>
<g id="a_node23"><a xlink:href="https://en.wikipedia.org/wiki/Country" xlink:title="Country">
<ellipse fill="lightskyblue" stroke="lightskyblue" cx="122.19" cy="-2376" rx="40.09" ry="18"/>
<text text-anchor="middle" x="122.19" y="-2372.3" font-family="Times New Roman,serif" font-size="14.00">Country</text>
</a>
</g>
</g>
<!-- Island country&#45;&gt;Country -->
<g id="edge21" class="edge">
<title>Island country&#45;&gt;Country</title>
<path fill="none" stroke="black" d="M122.19,-2429.7C122.19,-2421.98 122.19,-2412.71 122.19,-2404.11"/>
<polygon fill="black" stroke="black" points="125.69,-2404.1 122.19,-2394.1 118.69,-2404.1 125.69,-2404.1"/>
</g>
<!-- Territory -->
<g id="node24" class="node">
<title>Territory</title>
<g id="a_node24"><a xlink:href="https://en.wikipedia.org/wiki/Territory" xlink:title="Territory">
<ellipse fill="lightskyblue" stroke="lightskyblue" cx="122.19" cy="-2304" rx="42.79" ry="18"/>
<text text-anchor="middle" x="122.19" y="-2300.3" font-family="Times New Roman,serif" font-size="14.00">Territory</text>
</a>
</g>
</g>
<!-- Country&#45;&gt;Territory -->
<g id="edge22" class="edge">
<title>Country&#45;&gt;Territory</title>
<path fill="none" stroke="black" d="M122.19,-2357.7C122.19,-2349.98 122.19,-2340.71 122.19,-2332.11"/>
<polygon fill="black" stroke="black" points="125.69,-2332.1 122.19,-2322.1 118.69,-2332.1 125.69,-2332.1"/>
</g>
<!-- Administrative division -->
<g id="node25" class="node">
<title>Administrative division</title>
<g id="a_node25"><a xlink:href="https://en.wikipedia.org/wiki/Administrative_division" xlink:title="Administrative division">
<ellipse fill="lightskyblue" stroke="lightskyblue" cx="122.19" cy="-2232" rx="93.68" ry="18"/>
<text text-anchor="middle" x="122.19" y="-2228.3" font-family="Times New Roman,serif" font-size="14.00">Administrative division</text>
</a>
</g>
</g>
<!-- Territory&#45;&gt;Administrative division -->
<g id="edge23" class="edge">
<title>Territory&#45;&gt;Administrative division</title>
<path fill="none" stroke="black" d="M122.19,-2285.7C122.19,-2277.98 122.19,-2268.71 122.19,-2260.11"/>
<polygon fill="black" stroke="black" points="125.69,-2260.1 122.19,-2250.1 118.69,-2260.1 125.69,-2260.1"/>
</g>
<!-- Sovereign state -->
<g id="node26" class="node">
<title>Sovereign state</title>
<g id="a_node26"><a xlink:href="https://en.wikipedia.org/wiki/Sovereign_state" xlink:title="Sovereign state">
<ellipse fill="lightskyblue" stroke="lightskyblue" cx="122.19" cy="-2160" rx="65.79" ry="18"/>
<text text-anchor="middle" x="122.19" y="-2156.3" font-family="Times New Roman,serif" font-size="14.00">Sovereign state</text>
</a>
</g>
</g>
<!-- Administrative division&#45;&gt;Sovereign state -->
<g id="edge24" class="edge">
<title>Administrative division&#45;&gt;Sovereign state</title>
<path fill="none" stroke="black" d="M122.19,-2213.7C122.19,-2205.98 122.19,-2196.71 122.19,-2188.11"/>
<polygon fill="black" stroke="black" points="125.69,-2188.1 122.19,-2178.1 118.69,-2188.1 125.69,-2188.1"/>
</g>
<!-- Political entity -->
<g id="node27" class="node">
<title>Political entity</title>
<g id="a_node27"><a xlink:href="https://en.wikipedia.org/wiki/Political_entity" xlink:title="Political entity">
<ellipse fill="lightskyblue" stroke="lightskyblue" cx="122.19" cy="-2088" rx="61.99" ry="18"/>
<text text-anchor="middle" x="122.19" y="-2084.3" font-family="Times New Roman,serif" font-size="14.00">Political entity</text>
</a>
</g>
</g>
<!-- Sovereign state&#45;&gt;Political entity -->
<g id="edge25" class="edge">
<title>Sovereign state&#45;&gt;Political entity</title>
<path fill="none" stroke="black" d="M122.19,-2141.7C122.19,-2133.98 122.19,-2124.71 122.19,-2116.11"/>
<polygon fill="black" stroke="black" points="125.69,-2116.1 122.19,-2106.1 118.69,-2116.1 125.69,-2116.1"/>
</g>
<!-- Collective identity -->
<g id="node28" class="node">
<title>Collective identity</title>
<g id="a_node28"><a xlink:href="https://en.wikipedia.org/wiki/Collective_identity" xlink:title="Collective identity">
<ellipse fill="lightskyblue" stroke="lightskyblue" cx="122.19" cy="-2016" rx="75.29" ry="18"/>
<text text-anchor="middle" x="122.19" y="-2012.3" font-family="Times New Roman,serif" font-size="14.00">Collective identity</text>
</a>
</g>
</g>
<!-- Political entity&#45;&gt;Collective identity -->
<g id="edge26" class="edge">
<title>Political entity&#45;&gt;Collective identity</title>
<path fill="none" stroke="black" d="M122.19,-2069.7C122.19,-2061.98 122.19,-2052.71 122.19,-2044.11"/>
<polygon fill="black" stroke="black" points="125.69,-2044.1 122.19,-2034.1 118.69,-2044.1 125.69,-2044.1"/>
</g>
<!-- Belongingness -->
<g id="node29" class="node">
<title>Belongingness</title>
<g id="a_node29"><a xlink:href="https://en.wikipedia.org/wiki/Belongingness" xlink:title="Belongingness">
<ellipse fill="lightskyblue" stroke="lightskyblue" cx="122.19" cy="-1944" rx="63.09" ry="18"/>
<text text-anchor="middle" x="122.19" y="-1940.3" font-family="Times New Roman,serif" font-size="14.00">Belongingness</text>
</a>
</g>
</g>
<!-- Collective identity&#45;&gt;Belongingness -->
<g id="edge27" class="edge">
<title>Collective identity&#45;&gt;Belongingness</title>
<path fill="none" stroke="black" d="M122.19,-1997.7C122.19,-1989.98 122.19,-1980.71 122.19,-1972.11"/>
<polygon fill="black" stroke="black" points="125.69,-1972.1 122.19,-1962.1 118.69,-1972.1 125.69,-1972.1"/>
</g>
<!-- Emotional -->
<g id="node30" class="node">
<title>Emotional</title>
<g id="a_node30"><a xlink:href="https://en.wikipedia.org/wiki/Emotional" xlink:title="Emotional">
<ellipse fill="lightskyblue" stroke="lightskyblue" cx="122.19" cy="-1872" rx="47.39" ry="18"/>
<text text-anchor="middle" x="122.19" y="-1868.3" font-family="Times New Roman,serif" font-size="14.00">Emotional</text>
</a>
</g>
</g>
<!-- Belongingness&#45;&gt;Emotional -->
<g id="edge28" class="edge">
<title>Belongingness&#45;&gt;Emotional</title>
<path fill="none" stroke="black" d="M122.19,-1925.7C122.19,-1917.98 122.19,-1908.71 122.19,-1900.11"/>
<polygon fill="black" stroke="black" points="125.69,-1900.1 122.19,-1890.1 118.69,-1900.1 125.69,-1900.1"/>
</g>
<!-- Pleasure -->
<g id="node31" class="node">
<title>Pleasure</title>
<g id="a_node31"><a xlink:href="https://en.wikipedia.org/wiki/Pleasure" xlink:title="Pleasure">
<ellipse fill="lightskyblue" stroke="lightskyblue" cx="122.19" cy="-1800" rx="40.89" ry="18"/>
<text text-anchor="middle" x="122.19" y="-1796.3" font-family="Times New Roman,serif" font-size="14.00">Pleasure</text>
</a>
</g>
</g>
<!-- Emotional&#45;&gt;Pleasure -->
<g id="edge29" class="edge">
<title>Emotional&#45;&gt;Pleasure</title>
<path fill="none" stroke="black" d="M122.19,-1853.7C122.19,-1845.98 122.19,-1836.71 122.19,-1828.11"/>
<polygon fill="black" stroke="black" points="125.69,-1828.1 122.19,-1818.1 118.69,-1828.1 125.69,-1828.1"/>
</g>
<!-- Ecstasy (emotion) -->
<g id="node32" class="node">
<title>Ecstasy (emotion)</title>
<g id="a_node32"><a xlink:href="https://en.wikipedia.org/wiki/Ecstasy_(emotion)" xlink:title="Ecstasy (emotion)">
<ellipse fill="lightskyblue" stroke="lightskyblue" cx="122.19" cy="-1728" rx="76.89" ry="18"/>
<text text-anchor="middle" x="122.19" y="-1724.3" font-family="Times New Roman,serif" font-size="14.00">Ecstasy (emotion)</text>
</a>
</g>
</g>
<!-- Pleasure&#45;&gt;Ecstasy (emotion) -->
<g id="edge30" class="edge">
<title>Pleasure&#45;&gt;Ecstasy (emotion)</title>
<path fill="none" stroke="black" d="M122.19,-1781.7C122.19,-1773.98 122.19,-1764.71 122.19,-1756.11"/>
<polygon fill="black" stroke="black" points="125.69,-1756.1 122.19,-1746.1 118.69,-1756.1 125.69,-1756.1"/>
</g>
<!-- Altered state of consciousness -->
<g id="node33" class="node">
<title>Altered state of consciousness</title>
<g id="a_node33"><a xlink:href="https://en.wikipedia.org/wiki/Altered_state_of_consciousness" xlink:title="Altered state of consciousness">
<ellipse fill="lightskyblue" stroke="lightskyblue" cx="122.19" cy="-1656" rx="122.38" ry="18"/>
<text text-anchor="middle" x="122.19" y="-1652.3" font-family="Times New Roman,serif" font-size="14.00">Altered state of consciousness</text>
</a>
</g>
</g>
<!-- Ecstasy (emotion)&#45;&gt;Altered state of consciousness -->
<g id="edge31" class="edge">
<title>Ecstasy (emotion)&#45;&gt;Altered state of consciousness</title>
<path fill="none" stroke="black" d="M122.19,-1709.7C122.19,-1701.98 122.19,-1692.71 122.19,-1684.11"/>
<polygon fill="black" stroke="black" points="125.69,-1684.1 122.19,-1674.1 118.69,-1684.1 125.69,-1684.1"/>
</g>
<!-- Hypnosis -->
<g id="node34" class="node">
<title>Hypnosis</title>
<g id="a_node34"><a xlink:href="https://en.wikipedia.org/wiki/Hypnosis" xlink:title="Hypnosis">
<ellipse fill="lightskyblue" stroke="lightskyblue" cx="122.19" cy="-1584" rx="45.49" ry="18"/>
<text text-anchor="middle" x="122.19" y="-1580.3" font-family="Times New Roman,serif" font-size="14.00">Hypnosis</text>
</a>
</g>
</g>
<!-- Altered state of consciousness&#45;&gt;Hypnosis -->
<g id="edge32" class="edge">
<title>Altered state of consciousness&#45;&gt;Hypnosis</title>
<path fill="none" stroke="black" d="M122.19,-1637.7C122.19,-1629.98 122.19,-1620.71 122.19,-1612.11"/>
<polygon fill="black" stroke="black" points="125.69,-1612.1 122.19,-1602.1 118.69,-1612.1 125.69,-1612.1"/>
</g>
<!-- Attention -->
<g id="node35" class="node">
<title>Attention</title>
<g id="a_node35"><a xlink:href="https://en.wikipedia.org/wiki/Attention" xlink:title="Attention">
<ellipse fill="lightskyblue" stroke="lightskyblue" cx="122.19" cy="-1512" rx="44.39" ry="18"/>
<text text-anchor="middle" x="122.19" y="-1508.3" font-family="Times New Roman,serif" font-size="14.00">Attention</text>
</a>
</g>
</g>
<!-- Hypnosis&#45;&gt;Attention -->
<g id="edge33" class="edge">
<title>Hypnosis&#45;&gt;Attention</title>
<path fill="none" stroke="black" d="M122.19,-1565.7C122.19,-1557.98 122.19,-1548.71 122.19,-1540.11"/>
<polygon fill="black" stroke="black" points="125.69,-1540.1 122.19,-1530.1 118.69,-1540.1 125.69,-1540.1"/>
</g>
<!-- Cognition -->
<g id="node36" class="node">
<title>Cognition</title>
<g id="a_node36"><a xlink:href="https://en.wikipedia.org/wiki/Cognition" xlink:title="Cognition">
<ellipse fill="lightskyblue" stroke="lightskyblue" cx="122.19" cy="-1440" rx="46.29" ry="18"/>
<text text-anchor="middle" x="122.19" y="-1436.3" font-family="Times New Roman,serif" font-size="14.00">Cognition</text>
</a>
</g>
</g>
<!-- Attention&#45;&gt;Cognition -->
<g id="edge34" class="edge">
<title>Attention&#45;&gt;Cognition</title>
<path fill="none" stroke="black" d="M122.19,-1493.7C122.19,-1485.98 122.19,-1476.71 122.19,-1468.11"/>
<polygon fill="black" stroke="black" points="125.69,-1468.1 122.19,-1458.1 118.69,-1468.1 125.69,-1468.1"/>
</g>
<!-- Intellectual function -->
<g id="node37" class="node">
<title>Intellectual function</title>
<g id="a_node37"><a xlink:href="https://en.wikipedia.org/wiki/Intellectual_function" xlink:title="Intellectual function">
<ellipse fill="lightskyblue" stroke="lightskyblue" cx="122.19" cy="-1368" rx="81.49" ry="18"/>
<text text-anchor="middle" x="122.19" y="-1364.3" font-family="Times New Roman,serif" font-size="14.00">Intellectual function</text>
</a>
</g>
</g>
<!-- Cognition&#45;&gt;Intellectual function -->
<g id="edge35" class="edge">
<title>Cognition&#45;&gt;Intellectual function</title>
<path fill="none" stroke="black" d="M122.19,-1421.7C122.19,-1413.98 122.19,-1404.71 122.19,-1396.11"/>
<polygon fill="black" stroke="black" points="125.69,-1396.1 122.19,-1386.1 118.69,-1396.1 125.69,-1396.1"/>
</g>
<!-- Reason -->
<g id="node38" class="node">
<title>Reason</title>
<g id="a_node38"><a xlink:href="https://en.wikipedia.org/wiki/Reason" xlink:title="Reason">
<ellipse fill="lightskyblue" stroke="lightskyblue" cx="122.19" cy="-1296" rx="38.19" ry="18"/>
<text text-anchor="middle" x="122.19" y="-1292.3" font-family="Times New Roman,serif" font-size="14.00">Reason</text>
</a>
</g>
</g>
<!-- Intellectual function&#45;&gt;Reason -->
<g id="edge36" class="edge">
<title>Intellectual function&#45;&gt;Reason</title>
<path fill="none" stroke="black" d="M122.19,-1349.7C122.19,-1341.98 122.19,-1332.71 122.19,-1324.11"/>
<polygon fill="black" stroke="black" points="125.69,-1324.1 122.19,-1314.1 118.69,-1324.1 125.69,-1324.1"/>
</g>
<!-- Consciousness -->
<g id="node39" class="node">
<title>Consciousness</title>
<g id="a_node39"><a xlink:href="https://en.wikipedia.org/wiki/Consciousness" xlink:title="Consciousness">
<ellipse fill="lightskyblue" stroke="lightskyblue" cx="122.19" cy="-1224" rx="65.79" ry="18"/>
<text text-anchor="middle" x="122.19" y="-1220.3" font-family="Times New Roman,serif" font-size="14.00">Consciousness</text>
</a>
</g>
</g>
<!-- Reason&#45;&gt;Consciousness -->
<g id="edge37" class="edge">
<title>Reason&#45;&gt;Consciousness</title>
<path fill="none" stroke="black" d="M122.19,-1277.7C122.19,-1269.98 122.19,-1260.71 122.19,-1252.11"/>
<polygon fill="black" stroke="black" points="125.69,-1252.1 122.19,-1242.1 118.69,-1252.1 125.69,-1252.1"/>
</g>
<!-- Sentience -->
<g id="node40" class="node">
<title>Sentience</title>
<g id="a_node40"><a xlink:href="https://en.wikipedia.org/wiki/Sentience" xlink:title="Sentience">
<ellipse fill="lightskyblue" stroke="lightskyblue" cx="122.19" cy="-1152" rx="45.49" ry="18"/>
<text text-anchor="middle" x="122.19" y="-1148.3" font-family="Times New Roman,serif" font-size="14.00">Sentience</text>
</a>
</g>
</g>
<!-- Consciousness&#45;&gt;Sentience -->
<g id="edge38" class="edge">
<title>Consciousness&#45;&gt;Sentience</title>
<path fill="none" stroke="black" d="M122.19,-1205.7C122.19,-1197.98 122.19,-1188.71 122.19,-1180.11"/>
<polygon fill="black" stroke="black" points="125.69,-1180.1 122.19,-1170.1 118.69,-1180.1 125.69,-1180.1"/>
</g>
<!-- Feeling -->
<g id="node41" class="node">
<title>Feeling</title>
<g id="a_node41"><a xlink:href="https://en.wikipedia.org/wiki/Feeling" xlink:title="Feeling">
<ellipse fill="lightskyblue" stroke="lightskyblue" cx="122.19" cy="-1080" rx="36.29" ry="18"/>
<text text-anchor="middle" x="122.19" y="-1076.3" font-family="Times New Roman,serif" font-size="14.00">Feeling</text>
</a>
</g>
</g>
<!-- Sentience&#45;&gt;Feeling -->
<g id="edge39" class="edge">
<title>Sentience&#45;&gt;Feeling</title>
<path fill="none" stroke="black" d="M122.19,-1133.7C122.19,-1125.98 122.19,-1116.71 122.19,-1108.11"/>
<polygon fill="black" stroke="black" points="125.69,-1108.1 122.19,-1098.1 118.69,-1108.1 125.69,-1108.1"/>
</g>
<!-- Touch -->
<g id="node42" class="node">
<title>Touch</title>
<g id="a_node42"><a xlink:href="https://en.wikipedia.org/wiki/Touch" xlink:title="Touch">
<ellipse fill="lightskyblue" stroke="lightskyblue" cx="122.19" cy="-1008" rx="34.39" ry="18"/>
<text text-anchor="middle" x="122.19" y="-1004.3" font-family="Times New Roman,serif" font-size="14.00">Touch</text>
</a>
</g>
</g>
<!-- Feeling&#45;&gt;Touch -->
<g id="edge40" class="edge">
<title>Feeling&#45;&gt;Touch</title>
<path fill="none" stroke="black" d="M122.19,-1061.7C122.19,-1053.98 122.19,-1044.71 122.19,-1036.11"/>
<polygon fill="black" stroke="black" points="125.69,-1036.1 122.19,-1026.1 118.69,-1036.1 125.69,-1036.1"/>
</g>
<!-- Sensory nervous system -->
<g id="node43" class="node">
<title>Sensory nervous system</title>
<g id="a_node43"><a xlink:href="https://en.wikipedia.org/wiki/Sensory_nervous_system" xlink:title="Sensory nervous system">
<ellipse fill="lightskyblue" stroke="lightskyblue" cx="122.19" cy="-936" rx="99.38" ry="18"/>
<text text-anchor="middle" x="122.19" y="-932.3" font-family="Times New Roman,serif" font-size="14.00">Sensory nervous system</text>
</a>
</g>
</g>
<!-- Touch&#45;&gt;Sensory nervous system -->
<g id="edge41" class="edge">
<title>Touch&#45;&gt;Sensory nervous system</title>
<path fill="none" stroke="black" d="M122.19,-989.7C122.19,-981.98 122.19,-972.71 122.19,-964.11"/>
<polygon fill="black" stroke="black" points="125.69,-964.1 122.19,-954.1 118.69,-964.1 125.69,-964.1"/>
</g>
<!-- Nervous system -->
<g id="node44" class="node">
<title>Nervous system</title>
<g id="a_node44"><a xlink:href="https://en.wikipedia.org/wiki/Nervous_system" xlink:title="Nervous system">
<ellipse fill="lightskyblue" stroke="lightskyblue" cx="125.19" cy="-864" rx="69.59" ry="18"/>
<text text-anchor="middle" x="125.19" y="-860.3" font-family="Times New Roman,serif" font-size="14.00">Nervous system</text>
</a>
</g>
</g>
<!-- Sensory nervous system&#45;&gt;Nervous system -->
<g id="edge42" class="edge">
<title>Sensory nervous system&#45;&gt;Nervous system</title>
<path fill="none" stroke="black" d="M122.93,-917.7C123.26,-909.98 123.66,-900.71 124.03,-892.11"/>
<polygon fill="black" stroke="black" points="127.52,-892.25 124.46,-882.1 120.53,-891.95 127.52,-892.25"/>
</g>
<!-- Biology -->
<g id="node45" class="node">
<title>Biology</title>
<g id="a_node45"><a xlink:href="https://en.wikipedia.org/wiki/Biology" xlink:title="Biology">
<ellipse fill="lightskyblue" stroke="lightskyblue" cx="130.19" cy="-792" rx="38.99" ry="18"/>
<text text-anchor="middle" x="130.19" y="-788.3" font-family="Times New Roman,serif" font-size="14.00">Biology</text>
</a>
</g>
</g>
<!-- Nervous system&#45;&gt;Biology -->
<g id="edge43" class="edge">
<title>Nervous system&#45;&gt;Biology</title>
<path fill="none" stroke="black" d="M126.43,-845.7C126.98,-837.98 127.64,-828.71 128.25,-820.11"/>
<polygon fill="black" stroke="black" points="131.75,-820.33 128.97,-810.1 124.76,-819.83 131.75,-820.33"/>
</g>
<!-- Natural science -->
<g id="node46" class="node">
<title>Natural science</title>
<g id="a_node46"><a xlink:href="https://en.wikipedia.org/wiki/Natural_science" xlink:title="Natural science">
<ellipse fill="lightskyblue" stroke="lightskyblue" cx="141.19" cy="-720" rx="65.79" ry="18"/>
<text text-anchor="middle" x="141.19" y="-716.3" font-family="Times New Roman,serif" font-size="14.00">Natural science</text>
</a>
</g>
</g>
<!-- Biology&#45;&gt;Natural science -->
<g id="edge44" class="edge">
<title>Biology&#45;&gt;Natural science</title>
<path fill="none" stroke="black" d="M132.91,-773.7C134.12,-765.98 135.58,-756.71 136.93,-748.11"/>
<polygon fill="black" stroke="black" points="140.41,-748.53 138.5,-738.1 133.49,-747.44 140.41,-748.53"/>
</g>
<!-- Branches of science -->
<g id="node47" class="node">
<title>Branches of science</title>
<g id="a_node47"><a xlink:href="https://en.wikipedia.org/wiki/Branches_of_science" xlink:title="Branches of science">
<ellipse fill="lightskyblue" stroke="lightskyblue" cx="163.19" cy="-648" rx="83.69" ry="18"/>
<text text-anchor="middle" x="163.19" y="-644.3" font-family="Times New Roman,serif" font-size="14.00">Branches of science</text>
</a>
</g>
</g>
<!-- Natural science&#45;&gt;Branches of science -->
<g id="edge45" class="edge">
<title>Natural science&#45;&gt;Branches of science</title>
<path fill="none" stroke="black" d="M146.51,-702.05C148.96,-694.26 151.93,-684.82 154.68,-676.08"/>
<polygon fill="black" stroke="black" points="158.1,-676.86 157.76,-666.28 151.42,-674.77 158.1,-676.86"/>
</g>
<!-- Science -->
<g id="node48" class="node">
<title>Science</title>
<g id="a_node48"><a xlink:href="https://en.wikipedia.org/wiki/Science" xlink:title="Science">
<ellipse fill="lightskyblue" stroke="lightskyblue" cx="328.19" cy="-576" rx="38.99" ry="18"/>
<text text-anchor="middle" x="328.19" y="-572.3" font-family="Times New Roman,serif" font-size="14.00">Science</text>
</a>
</g>
</g>
<!-- Branches of science&#45;&gt;Science -->
<g id="edge46" class="edge">
<title>Branches of science&#45;&gt;Science</title>
<path fill="none" stroke="black" d="M199.4,-631.64C226.64,-620.08 263.83,-604.3 291.25,-592.67"/>
<polygon fill="black" stroke="black" points="292.67,-595.87 300.51,-588.74 289.93,-589.43 292.67,-595.87"/>
</g>
<!-- Scientific method -->
<g id="node49" class="node">
<title>Scientific method</title>
<g id="a_node49"><a xlink:href="https://en.wikipedia.org/wiki/Scientific_method" xlink:title="Scientific method">
<ellipse fill="lightskyblue" stroke="lightskyblue" cx="420.19" cy="-504" rx="74.19" ry="18"/>
<text text-anchor="middle" x="420.19" y="-500.3" font-family="Times New Roman,serif" font-size="14.00">Scientific method</text>
</a>
</g>
</g>
<!-- Science&#45;&gt;Scientific method -->
<g id="edge47" class="edge">
<title>Science&#45;&gt;Scientific method</title>
<path fill="none" stroke="black" d="M347.7,-560.15C360.22,-550.63 376.72,-538.08 390.81,-527.36"/>
<polygon fill="black" stroke="black" points="392.94,-530.13 398.78,-521.29 388.7,-524.56 392.94,-530.13"/>
</g>
<!-- Empirical evidence -->
<g id="node50" class="node">
<title>Empirical evidence</title>
<g id="a_node50"><a xlink:href="https://en.wikipedia.org/wiki/Empirical_evidence" xlink:title="Empirical evidence">
<ellipse fill="lightskyblue" stroke="lightskyblue" cx="521.19" cy="-432" rx="79.09" ry="18"/>
<text text-anchor="middle" x="521.19" y="-428.3" font-family="Times New Roman,serif" font-size="14.00">Empirical evidence</text>
</a>
</g>
</g>
<!-- Scientific method&#45;&gt;Empirical evidence -->
<g id="edge48" class="edge">
<title>Scientific method&#45;&gt;Empirical evidence</title>
<path fill="none" stroke="black" d="M443.61,-486.76C457.16,-477.38 474.39,-465.44 489.17,-455.19"/>
<polygon fill="black" stroke="black" points="491.32,-457.96 497.54,-449.39 487.33,-452.21 491.32,-457.96"/>
</g>
<!-- Information -->
<g id="node51" class="node">
<title>Information</title>
<g id="a_node51"><a xlink:href="https://en.wikipedia.org/wiki/Information" xlink:title="Information">
<ellipse fill="lightskyblue" stroke="lightskyblue" cx="604.19" cy="-360" rx="53.09" ry="18"/>
<text text-anchor="middle" x="604.19" y="-356.3" font-family="Times New Roman,serif" font-size="14.00">Information</text>
</a>
</g>
</g>
<!-- Empirical evidence&#45;&gt;Information -->
<g id="edge49" class="edge">
<title>Empirical evidence&#45;&gt;Information</title>
<path fill="none" stroke="black" d="M540.86,-414.41C551.76,-405.21 565.48,-393.64 577.36,-383.63"/>
<polygon fill="black" stroke="black" points="579.84,-386.11 585.23,-376.99 575.33,-380.76 579.84,-386.11"/>
</g>
<!-- Uncertainty -->
<g id="node52" class="node">
<title>Uncertainty</title>
<g id="a_node52"><a xlink:href="https://en.wikipedia.org/wiki/Uncertainty" xlink:title="Uncertainty">
<ellipse fill="lightskyblue" stroke="lightskyblue" cx="618.19" cy="-288" rx="51.99" ry="18"/>
<text text-anchor="middle" x="618.19" y="-284.3" font-family="Times New Roman,serif" font-size="14.00">Uncertainty</text>
</a>
</g>
</g>
<!-- Information&#45;&gt;Uncertainty -->
<g id="edge50" class="edge">
<title>Information&#45;&gt;Uncertainty</title>
<path fill="none" stroke="black" d="M607.65,-341.7C609.19,-333.98 611.05,-324.71 612.77,-316.11"/>
<polygon fill="black" stroke="black" points="616.24,-316.6 614.77,-306.1 609.38,-315.22 616.24,-316.6"/>
</g>
<!-- Epistemology -->
<g id="node53" class="node">
<title>Epistemology</title>
<g id="a_node53"><a xlink:href="https://en.wikipedia.org/wiki/Epistemology" xlink:title="Epistemology">
<ellipse fill="lightskyblue" stroke="lightskyblue" cx="625.19" cy="-216" rx="60.39" ry="18"/>
<text text-anchor="middle" x="625.19" y="-212.3" font-family="Times New Roman,serif" font-size="14.00">Epistemology</text>
</a>
</g>
</g>
<!-- Uncertainty&#45;&gt;Epistemology -->
<g id="edge51" class="edge">
<title>Uncertainty&#45;&gt;Epistemology</title>
<path fill="none" stroke="black" d="M619.92,-269.7C620.69,-261.98 621.62,-252.71 622.48,-244.11"/>
<polygon fill="black" stroke="black" points="625.97,-244.4 623.48,-234.1 619,-243.71 625.97,-244.4"/>
</g>
<!-- Outline of philosophy -->
<g id="node54" class="node">
<title>Outline of philosophy</title>
<g id="a_node54"><a xlink:href="https://en.wikipedia.org/wiki/Outline_of_philosophy" xlink:title="Outline of philosophy">
<ellipse fill="lightskyblue" stroke="lightskyblue" cx="629.19" cy="-144" rx="89.88" ry="18"/>
<text text-anchor="middle" x="629.19" y="-140.3" font-family="Times New Roman,serif" font-size="14.00">Outline of philosophy</text>
</a>
</g>
</g>
<!-- Epistemology&#45;&gt;Outline of philosophy -->
<g id="edge52" class="edge">
<title>Epistemology&#45;&gt;Outline of philosophy</title>
<path fill="none" stroke="black" d="M626.18,-197.7C626.62,-189.98 627.15,-180.71 627.64,-172.11"/>
<polygon fill="black" stroke="black" points="631.14,-172.29 628.21,-162.1 624.15,-171.89 631.14,-172.29"/>
</g>
<!-- Outline of philosophy&#45;&gt;Philosophy -->
<g id="edge53" class="edge">
<title>Outline of philosophy&#45;&gt;Philosophy</title>
<path fill="none" stroke="black" d="M645.41,-126.05C653.84,-117.24 664.29,-106.33 673.51,-96.69"/>
<polygon fill="black" stroke="black" points="676.19,-98.95 680.58,-89.31 671.14,-94.11 676.19,-98.95"/>
</g>
<!-- Primary education in Wales -->
<g id="node55" class="node">
<title>Primary education in Wales</title>
<g id="a_node55"><a xlink:href="https://en.wikipedia.org/wiki/Primary_education_in_Wales" xlink:title="Primary education in Wales">
<ellipse fill="#b0e2ff" stroke="#b0e2ff" cx="330.19" cy="-1224" rx="110.48" ry="18"/>
<text text-anchor="middle" x="330.19" y="-1220.3" font-family="Times New Roman,serif" font-size="14.00">Primary education in Wales</text>
</a>
</g>
</g>
<!-- Primary education -->
<g id="node56" class="node">
<title>Primary education</title>
<g id="a_node56"><a xlink:href="https://en.wikipedia.org/wiki/Primary_education" xlink:title="Primary education">
<ellipse fill="lightskyblue" stroke="lightskyblue" cx="330.19" cy="-1152" rx="76.89" ry="18"/>
<text text-anchor="middle" x="330.19" y="-1148.3" font-family="Times New Roman,serif" font-size="14.00">Primary education</text>
</a>
</g>
</g>
<!-- Primary education in Wales&#45;&gt;Primary education -->
<g id="edge54" class="edge">
<title>Primary education in Wales&#45;&gt;Primary education</title>
<path fill="none" stroke="black" d="M330.19,-1205.7C330.19,-1197.98 330.19,-1188.71 330.19,-1180.11"/>
<polygon fill="black" stroke="black" points="333.69,-1180.1 330.19,-1170.1 326.69,-1180.1 333.69,-1180.1"/>
</g>
<!-- Formal education -->
<g id="node57" class="node">
<title>Formal education</title>
<g id="a_node57"><a xlink:href="https://en.wikipedia.org/wiki/Formal_education" xlink:title="Formal education">
<ellipse fill="lightskyblue" stroke="lightskyblue" cx="330.19" cy="-1080" rx="74.19" ry="18"/>
<text text-anchor="middle" x="330.19" y="-1076.3" font-family="Times New Roman,serif" font-size="14.00">Formal education</text>
</a>
</g>
</g>
<!-- Primary education&#45;&gt;Formal education -->
<g id="edge55" class="edge">
<title>Primary education&#45;&gt;Formal education</title>
<path fill="none" stroke="black" d="M330.19,-1133.7C330.19,-1125.98 330.19,-1116.71 330.19,-1108.11"/>
<polygon fill="black" stroke="black" points="333.69,-1108.1 330.19,-1098.1 326.69,-1108.1 333.69,-1108.1"/>
</g>
<!-- School -->
<g id="node58" class="node">
<title>School</title>
<g id="a_node58"><a xlink:href="https://en.wikipedia.org/wiki/School" xlink:title="School">
<ellipse fill="lightskyblue" stroke="lightskyblue" cx="330.19" cy="-1008" rx="36.29" ry="18"/>
<text text-anchor="middle" x="330.19" y="-1004.3" font-family="Times New Roman,serif" font-size="14.00">School</text>
</a>
</g>
</g>
<!-- Formal education&#45;&gt;School -->
<g id="edge56" class="edge">
<title>Formal education&#45;&gt;School</title>
<path fill="none" stroke="black" d="M330.19,-1061.7C330.19,-1053.98 330.19,-1044.71 330.19,-1036.11"/>
<polygon fill="black" stroke="black" points="333.69,-1036.1 330.19,-1026.1 326.69,-1036.1 333.69,-1036.1"/>
</g>
<!-- Educational institution -->
<g id="node59" class="node">
<title>Educational institution</title>
<g id="a_node59"><a xlink:href="https://en.wikipedia.org/wiki/Educational_institution" xlink:title="Educational institution">
<ellipse fill="lightskyblue" stroke="lightskyblue" cx="330.19" cy="-936" rx="90.98" ry="18"/>
<text text-anchor="middle" x="330.19" y="-932.3" font-family="Times New Roman,serif" font-size="14.00">Educational institution</text>
</a>
</g>
</g>
<!-- School&#45;&gt;Educational institution -->
<g id="edge57" class="edge">
<title>School&#45;&gt;Educational institution</title>
<path fill="none" stroke="black" d="M330.19,-989.7C330.19,-981.98 330.19,-972.71 330.19,-964.11"/>
<polygon fill="black" stroke="black" points="333.69,-964.1 330.19,-954.1 326.69,-964.1 333.69,-964.1"/>
</g>
<!-- Education -->
<g id="node60" class="node">
<title>Education</title>
<g id="a_node60"><a xlink:href="https://en.wikipedia.org/wiki/Education" xlink:title="Education">
<ellipse fill="lightskyblue" stroke="lightskyblue" cx="329.19" cy="-864" rx="47.39" ry="18"/>
<text text-anchor="middle" x="329.19" y="-860.3" font-family="Times New Roman,serif" font-size="14.00">Education</text>
</a>
</g>
</g>
<!-- Educational institution&#45;&gt;Education -->
<g id="edge58" class="edge">
<title>Educational institution&#45;&gt;Education</title>
<path fill="none" stroke="black" d="M329.94,-917.7C329.83,-909.98 329.7,-900.71 329.58,-892.11"/>
<polygon fill="black" stroke="black" points="333.08,-892.05 329.43,-882.1 326.08,-892.15 333.08,-892.05"/>
</g>
<!-- Learning -->
<g id="node61" class="node">
<title>Learning</title>
<g id="a_node61"><a xlink:href="https://en.wikipedia.org/wiki/Learning" xlink:title="Learning">
<ellipse fill="lightskyblue" stroke="lightskyblue" cx="328.19" cy="-792" rx="42.49" ry="18"/>
<text text-anchor="middle" x="328.19" y="-788.3" font-family="Times New Roman,serif" font-size="14.00">Learning</text>
</a>
</g>
</g>
<!-- Education&#45;&gt;Learning -->
<g id="edge59" class="edge">
<title>Education&#45;&gt;Learning</title>
<path fill="none" stroke="black" d="M328.94,-845.7C328.83,-837.98 328.7,-828.71 328.58,-820.11"/>
<polygon fill="black" stroke="black" points="332.08,-820.05 328.43,-810.1 325.08,-820.15 332.08,-820.05"/>
</g>
<!-- Understanding -->
<g id="node62" class="node">
<title>Understanding</title>
<g id="a_node62"><a xlink:href="https://en.wikipedia.org/wiki/Understanding" xlink:title="Understanding">
<ellipse fill="lightskyblue" stroke="lightskyblue" cx="328.19" cy="-720" rx="63.89" ry="18"/>
<text text-anchor="middle" x="328.19" y="-716.3" font-family="Times New Roman,serif" font-size="14.00">Understanding</text>
</a>
</g>
</g>
<!-- Learning&#45;&gt;Understanding -->
<g id="edge60" class="edge">
<title>Learning&#45;&gt;Understanding</title>
<path fill="none" stroke="black" d="M328.19,-773.7C328.19,-765.98 328.19,-756.71 328.19,-748.11"/>
<polygon fill="black" stroke="black" points="331.69,-748.1 328.19,-738.1 324.69,-748.1 331.69,-748.1"/>
</g>
<!-- Psychological -->
<g id="node63" class="node">
<title>Psychological</title>
<g id="a_node63"><a xlink:href="https://en.wikipedia.org/wiki/Psychological" xlink:title="Psychological">
<ellipse fill="lightskyblue" stroke="lightskyblue" cx="328.19" cy="-648" rx="61.99" ry="18"/>
<text text-anchor="middle" x="328.19" y="-644.3" font-family="Times New Roman,serif" font-size="14.00">Psychological</text>
</a>
</g>
</g>
<!-- Understanding&#45;&gt;Psychological -->
<g id="edge61" class="edge">
<title>Understanding&#45;&gt;Psychological</title>
<path fill="none" stroke="black" d="M328.19,-701.7C328.19,-693.98 328.19,-684.71 328.19,-676.11"/>
<polygon fill="black" stroke="black" points="331.69,-676.1 328.19,-666.1 324.69,-676.1 331.69,-676.1"/>
</g>
<!-- Psychological&#45;&gt;Science -->
<g id="edge62" class="edge">
<title>Psychological&#45;&gt;Science</title>
<path fill="none" stroke="black" d="M328.19,-629.7C328.19,-621.98 328.19,-612.71 328.19,-604.11"/>
<polygon fill="black" stroke="black" points="331.69,-604.1 328.19,-594.1 324.69,-604.1 331.69,-604.1"/>
</g>
</g>
</svg>
