<?xml version="1.0" encoding="UTF-8" standalone="no"?>
<!DOCTYPE svg PUBLIC "-//W3C//DTD SVG 1.1//EN"
 "http://www.w3.org/Graphics/SVG/1.1/DTD/svg11.dtd">
<!-- Generated by graphviz version 2.46.0 (20210118.1747)
 -->
<!-- Title: unix Pages: 1 -->
<svg width="710pt" height="2374pt"
 viewBox="0.00 0.00 709.68 2374.00" xmlns="http://www.w3.org/2000/svg" xmlns:xlink="http://www.w3.org/1999/xlink">
<g id="graph0" class="graph" transform="scale(1 1) rotate(0) translate(4 2370)">
<title>unix</title>
<polygon fill="white" stroke="transparent" points="-4,4 -4,-2370 705.68,-2370 705.68,4 -4,4"/>
<text text-anchor="start" x="174.84" y="-54" font-family="Times New Roman,serif" font-size="20.00">Graph generated on 09/05/2021 14:01:49.</text>
<text text-anchor="start" x="174.84" y="-32" font-family="Times New Roman,serif" font-size="20.00">Checked 5 pages. Time took: 0.89 minutes.</text>
<text text-anchor="middle" x="350.84" y="-10" font-family="Times New Roman,serif" font-size="20.00">Number of pages drawn: 59</text>
<!-- Colla similis -->
<g id="node1" class="node">
<title>Colla similis</title>
<g id="a_node1"><a xlink:href="https://en.wikipedia.org/wiki/Colla_similis" xlink:title="Colla similis">
<ellipse fill="#b0e2ff" stroke="#b0e2ff" cx="83.84" cy="-1700" rx="54.69" ry="18"/>
<text text-anchor="middle" x="83.84" y="-1696.3" font-family="Times New Roman,serif" font-size="14.00">Colla similis</text>
</a>
</g>
</g>
<!-- Moth -->
<g id="node2" class="node">
<title>Moth</title>
<g id="a_node2"><a xlink:href="https://en.wikipedia.org/wiki/Moth" xlink:title="Moth">
<ellipse fill="lightskyblue" stroke="lightskyblue" cx="83.84" cy="-1628" rx="30.59" ry="18"/>
<text text-anchor="middle" x="83.84" y="-1624.3" font-family="Times New Roman,serif" font-size="14.00">Moth</text>
</a>
</g>
</g>
<!-- Colla similis&#45;&gt;Moth -->
<g id="edge1" class="edge">
<title>Colla similis&#45;&gt;Moth</title>
<path fill="none" stroke="black" d="M83.84,-1681.7C83.84,-1673.98 83.84,-1664.71 83.84,-1656.11"/>
<polygon fill="black" stroke="black" points="87.34,-1656.1 83.84,-1646.1 80.34,-1656.1 87.34,-1656.1"/>
</g>
<!-- Paraphyly -->
<g id="node3" class="node">
<title>Paraphyly</title>
<g id="a_node3"><a xlink:href="https://en.wikipedia.org/wiki/Paraphyly" xlink:title="Paraphyly">
<ellipse fill="lightskyblue" stroke="lightskyblue" cx="83.84" cy="-1556" rx="46.59" ry="18"/>
<text text-anchor="middle" x="83.84" y="-1552.3" font-family="Times New Roman,serif" font-size="14.00">Paraphyly</text>
</a>
</g>
</g>
<!-- Moth&#45;&gt;Paraphyly -->
<g id="edge2" class="edge">
<title>Moth&#45;&gt;Paraphyly</title>
<path fill="none" stroke="black" d="M83.84,-1609.7C83.84,-1601.98 83.84,-1592.71 83.84,-1584.11"/>
<polygon fill="black" stroke="black" points="87.34,-1584.1 83.84,-1574.1 80.34,-1584.1 87.34,-1584.1"/>
</g>
<!-- Taxonomy (general) -->
<g id="node4" class="node">
<title>Taxonomy (general)</title>
<g id="a_node4"><a xlink:href="https://en.wikipedia.org/wiki/Taxonomy_(general)" xlink:title="Taxonomy (general)">
<ellipse fill="lightskyblue" stroke="lightskyblue" cx="83.84" cy="-1484" rx="83.69" ry="18"/>
<text text-anchor="middle" x="83.84" y="-1480.3" font-family="Times New Roman,serif" font-size="14.00">Taxonomy (general)</text>
</a>
</g>
</g>
<!-- Paraphyly&#45;&gt;Taxonomy (general) -->
<g id="edge3" class="edge">
<title>Paraphyly&#45;&gt;Taxonomy (general)</title>
<path fill="none" stroke="black" d="M83.84,-1537.7C83.84,-1529.98 83.84,-1520.71 83.84,-1512.11"/>
<polygon fill="black" stroke="black" points="87.34,-1512.1 83.84,-1502.1 80.34,-1512.1 87.34,-1512.1"/>
</g>
<!-- Categorization -->
<g id="node5" class="node">
<title>Categorization</title>
<g id="a_node5"><a xlink:href="https://en.wikipedia.org/wiki/Categorization" xlink:title="Categorization">
<ellipse fill="lightskyblue" stroke="lightskyblue" cx="83.84" cy="-1412" rx="63.09" ry="18"/>
<text text-anchor="middle" x="83.84" y="-1408.3" font-family="Times New Roman,serif" font-size="14.00">Categorization</text>
</a>
</g>
</g>
<!-- Taxonomy (general)&#45;&gt;Categorization -->
<g id="edge4" class="edge">
<title>Taxonomy (general)&#45;&gt;Categorization</title>
<path fill="none" stroke="black" d="M83.84,-1465.7C83.84,-1457.98 83.84,-1448.71 83.84,-1440.11"/>
<polygon fill="black" stroke="black" points="87.34,-1440.1 83.84,-1430.1 80.34,-1440.1 87.34,-1440.1"/>
</g>
<!-- Experience -->
<g id="node6" class="node">
<title>Experience</title>
<g id="a_node6"><a xlink:href="https://en.wikipedia.org/wiki/Experience" xlink:title="Experience">
<ellipse fill="lightskyblue" stroke="lightskyblue" cx="110.84" cy="-1340" rx="50.89" ry="18"/>
<text text-anchor="middle" x="110.84" y="-1336.3" font-family="Times New Roman,serif" font-size="14.00">Experience</text>
</a>
</g>
</g>
<!-- Categorization&#45;&gt;Experience -->
<g id="edge5" class="edge">
<title>Categorization&#45;&gt;Experience</title>
<path fill="none" stroke="black" d="M90.38,-1394.05C93.42,-1386.18 97.1,-1376.62 100.51,-1367.79"/>
<polygon fill="black" stroke="black" points="103.85,-1368.86 104.18,-1358.28 97.31,-1366.35 103.85,-1368.86"/>
</g>
<!-- Consciousness -->
<g id="node7" class="node">
<title>Consciousness</title>
<g id="a_node7"><a xlink:href="https://en.wikipedia.org/wiki/Consciousness" xlink:title="Consciousness">
<ellipse fill="lightskyblue" stroke="lightskyblue" cx="163.84" cy="-1268" rx="65.79" ry="18"/>
<text text-anchor="middle" x="163.84" y="-1264.3" font-family="Times New Roman,serif" font-size="14.00">Consciousness</text>
</a>
</g>
</g>
<!-- Experience&#45;&gt;Consciousness -->
<g id="edge6" class="edge">
<title>Experience&#45;&gt;Consciousness</title>
<path fill="none" stroke="black" d="M123.4,-1322.41C129.78,-1313.99 137.66,-1303.58 144.76,-1294.2"/>
<polygon fill="black" stroke="black" points="147.76,-1296.04 151,-1285.96 142.18,-1291.82 147.76,-1296.04"/>
</g>
<!-- Sentience -->
<g id="node8" class="node">
<title>Sentience</title>
<g id="a_node8"><a xlink:href="https://en.wikipedia.org/wiki/Sentience" xlink:title="Sentience">
<ellipse fill="lightskyblue" stroke="lightskyblue" cx="163.84" cy="-1196" rx="45.49" ry="18"/>
<text text-anchor="middle" x="163.84" y="-1192.3" font-family="Times New Roman,serif" font-size="14.00">Sentience</text>
</a>
</g>
</g>
<!-- Consciousness&#45;&gt;Sentience -->
<g id="edge7" class="edge">
<title>Consciousness&#45;&gt;Sentience</title>
<path fill="none" stroke="black" d="M163.84,-1249.7C163.84,-1241.98 163.84,-1232.71 163.84,-1224.11"/>
<polygon fill="black" stroke="black" points="167.34,-1224.1 163.84,-1214.1 160.34,-1224.1 167.34,-1224.1"/>
</g>
<!-- Feeling -->
<g id="node9" class="node">
<title>Feeling</title>
<g id="a_node9"><a xlink:href="https://en.wikipedia.org/wiki/Feeling" xlink:title="Feeling">
<ellipse fill="lightskyblue" stroke="lightskyblue" cx="163.84" cy="-1124" rx="36.29" ry="18"/>
<text text-anchor="middle" x="163.84" y="-1120.3" font-family="Times New Roman,serif" font-size="14.00">Feeling</text>
</a>
</g>
</g>
<!-- Sentience&#45;&gt;Feeling -->
<g id="edge8" class="edge">
<title>Sentience&#45;&gt;Feeling</title>
<path fill="none" stroke="black" d="M163.84,-1177.7C163.84,-1169.98 163.84,-1160.71 163.84,-1152.11"/>
<polygon fill="black" stroke="black" points="167.34,-1152.1 163.84,-1142.1 160.34,-1152.1 167.34,-1152.1"/>
</g>
<!-- Touch -->
<g id="node10" class="node">
<title>Touch</title>
<g id="a_node10"><a xlink:href="https://en.wikipedia.org/wiki/Touch" xlink:title="Touch">
<ellipse fill="lightskyblue" stroke="lightskyblue" cx="163.84" cy="-1052" rx="34.39" ry="18"/>
<text text-anchor="middle" x="163.84" y="-1048.3" font-family="Times New Roman,serif" font-size="14.00">Touch</text>
</a>
</g>
</g>
<!-- Feeling&#45;&gt;Touch -->
<g id="edge9" class="edge">
<title>Feeling&#45;&gt;Touch</title>
<path fill="none" stroke="black" d="M163.84,-1105.7C163.84,-1097.98 163.84,-1088.71 163.84,-1080.11"/>
<polygon fill="black" stroke="black" points="167.34,-1080.1 163.84,-1070.1 160.34,-1080.1 167.34,-1080.1"/>
</g>
<!-- Sensory nervous system -->
<g id="node11" class="node">
<title>Sensory nervous system</title>
<g id="a_node11"><a xlink:href="https://en.wikipedia.org/wiki/Sensory_nervous_system" xlink:title="Sensory nervous system">
<ellipse fill="lightskyblue" stroke="lightskyblue" cx="163.84" cy="-980" rx="99.38" ry="18"/>
<text text-anchor="middle" x="163.84" y="-976.3" font-family="Times New Roman,serif" font-size="14.00">Sensory nervous system</text>
</a>
</g>
</g>
<!-- Touch&#45;&gt;Sensory nervous system -->
<g id="edge10" class="edge">
<title>Touch&#45;&gt;Sensory nervous system</title>
<path fill="none" stroke="black" d="M163.84,-1033.7C163.84,-1025.98 163.84,-1016.71 163.84,-1008.11"/>
<polygon fill="black" stroke="black" points="167.34,-1008.1 163.84,-998.1 160.34,-1008.1 167.34,-1008.1"/>
</g>
<!-- Nervous system -->
<g id="node12" class="node">
<title>Nervous system</title>
<g id="a_node12"><a xlink:href="https://en.wikipedia.org/wiki/Nervous_system" xlink:title="Nervous system">
<ellipse fill="lightskyblue" stroke="lightskyblue" cx="163.84" cy="-908" rx="69.59" ry="18"/>
<text text-anchor="middle" x="163.84" y="-904.3" font-family="Times New Roman,serif" font-size="14.00">Nervous system</text>
</a>
</g>
</g>
<!-- Sensory nervous system&#45;&gt;Nervous system -->
<g id="edge11" class="edge">
<title>Sensory nervous system&#45;&gt;Nervous system</title>
<path fill="none" stroke="black" d="M163.84,-961.7C163.84,-953.98 163.84,-944.71 163.84,-936.11"/>
<polygon fill="black" stroke="black" points="167.34,-936.1 163.84,-926.1 160.34,-936.1 167.34,-936.1"/>
</g>
<!-- Biology -->
<g id="node13" class="node">
<title>Biology</title>
<g id="a_node13"><a xlink:href="https://en.wikipedia.org/wiki/Biology" xlink:title="Biology">
<ellipse fill="lightskyblue" stroke="lightskyblue" cx="163.84" cy="-836" rx="38.99" ry="18"/>
<text text-anchor="middle" x="163.84" y="-832.3" font-family="Times New Roman,serif" font-size="14.00">Biology</text>
</a>
</g>
</g>
<!-- Nervous system&#45;&gt;Biology -->
<g id="edge12" class="edge">
<title>Nervous system&#45;&gt;Biology</title>
<path fill="none" stroke="black" d="M163.84,-889.7C163.84,-881.98 163.84,-872.71 163.84,-864.11"/>
<polygon fill="black" stroke="black" points="167.34,-864.1 163.84,-854.1 160.34,-864.1 167.34,-864.1"/>
</g>
<!-- Natural science -->
<g id="node14" class="node">
<title>Natural science</title>
<g id="a_node14"><a xlink:href="https://en.wikipedia.org/wiki/Natural_science" xlink:title="Natural science">
<ellipse fill="lightskyblue" stroke="lightskyblue" cx="163.84" cy="-764" rx="65.79" ry="18"/>
<text text-anchor="middle" x="163.84" y="-760.3" font-family="Times New Roman,serif" font-size="14.00">Natural science</text>
</a>
</g>
</g>
<!-- Biology&#45;&gt;Natural science -->
<g id="edge13" class="edge">
<title>Biology&#45;&gt;Natural science</title>
<path fill="none" stroke="black" d="M163.84,-817.7C163.84,-809.98 163.84,-800.71 163.84,-792.11"/>
<polygon fill="black" stroke="black" points="167.34,-792.1 163.84,-782.1 160.34,-792.1 167.34,-792.1"/>
</g>
<!-- Branches of science -->
<g id="node15" class="node">
<title>Branches of science</title>
<g id="a_node15"><a xlink:href="https://en.wikipedia.org/wiki/Branches_of_science" xlink:title="Branches of science">
<ellipse fill="lightskyblue" stroke="lightskyblue" cx="163.84" cy="-692" rx="83.69" ry="18"/>
<text text-anchor="middle" x="163.84" y="-688.3" font-family="Times New Roman,serif" font-size="14.00">Branches of science</text>
</a>
</g>
</g>
<!-- Natural science&#45;&gt;Branches of science -->
<g id="edge14" class="edge">
<title>Natural science&#45;&gt;Branches of science</title>
<path fill="none" stroke="black" d="M163.84,-745.7C163.84,-737.98 163.84,-728.71 163.84,-720.11"/>
<polygon fill="black" stroke="black" points="167.34,-720.1 163.84,-710.1 160.34,-720.1 167.34,-720.1"/>
</g>
<!-- Science -->
<g id="node16" class="node">
<title>Science</title>
<g id="a_node16"><a xlink:href="https://en.wikipedia.org/wiki/Science" xlink:title="Science">
<ellipse fill="lightskyblue" stroke="lightskyblue" cx="163.84" cy="-620" rx="38.99" ry="18"/>
<text text-anchor="middle" x="163.84" y="-616.3" font-family="Times New Roman,serif" font-size="14.00">Science</text>
</a>
</g>
</g>
<!-- Branches of science&#45;&gt;Science -->
<g id="edge15" class="edge">
<title>Branches of science&#45;&gt;Science</title>
<path fill="none" stroke="black" d="M163.84,-673.7C163.84,-665.98 163.84,-656.71 163.84,-648.11"/>
<polygon fill="black" stroke="black" points="167.34,-648.1 163.84,-638.1 160.34,-648.1 167.34,-648.1"/>
</g>
<!-- Scientific method -->
<g id="node17" class="node">
<title>Scientific method</title>
<g id="a_node17"><a xlink:href="https://en.wikipedia.org/wiki/Scientific_method" xlink:title="Scientific method">
<ellipse fill="lightskyblue" stroke="lightskyblue" cx="225.84" cy="-548" rx="74.19" ry="18"/>
<text text-anchor="middle" x="225.84" y="-544.3" font-family="Times New Roman,serif" font-size="14.00">Scientific method</text>
</a>
</g>
</g>
<!-- Science&#45;&gt;Scientific method -->
<g id="edge16" class="edge">
<title>Science&#45;&gt;Scientific method</title>
<path fill="none" stroke="black" d="M177.91,-603.12C185.69,-594.33 195.53,-583.23 204.26,-573.37"/>
<polygon fill="black" stroke="black" points="206.95,-575.6 210.96,-565.8 201.71,-570.96 206.95,-575.6"/>
</g>
<!-- Empirical evidence -->
<g id="node18" class="node">
<title>Empirical evidence</title>
<g id="a_node18"><a xlink:href="https://en.wikipedia.org/wiki/Empirical_evidence" xlink:title="Empirical evidence">
<ellipse fill="lightskyblue" stroke="lightskyblue" cx="269.84" cy="-476" rx="79.09" ry="18"/>
<text text-anchor="middle" x="269.84" y="-472.3" font-family="Times New Roman,serif" font-size="14.00">Empirical evidence</text>
</a>
</g>
</g>
<!-- Scientific method&#45;&gt;Empirical evidence -->
<g id="edge17" class="edge">
<title>Scientific method&#45;&gt;Empirical evidence</title>
<path fill="none" stroke="black" d="M236.49,-530.05C241.61,-521.92 247.84,-512 253.54,-502.94"/>
<polygon fill="black" stroke="black" points="256.63,-504.6 258.98,-494.28 250.7,-500.88 256.63,-504.6"/>
</g>
<!-- Information -->
<g id="node19" class="node">
<title>Information</title>
<g id="a_node19"><a xlink:href="https://en.wikipedia.org/wiki/Information" xlink:title="Information">
<ellipse fill="lightskyblue" stroke="lightskyblue" cx="271.84" cy="-404" rx="53.09" ry="18"/>
<text text-anchor="middle" x="271.84" y="-400.3" font-family="Times New Roman,serif" font-size="14.00">Information</text>
</a>
</g>
</g>
<!-- Empirical evidence&#45;&gt;Information -->
<g id="edge18" class="edge">
<title>Empirical evidence&#45;&gt;Information</title>
<path fill="none" stroke="black" d="M270.34,-457.7C270.56,-449.98 270.82,-440.71 271.07,-432.11"/>
<polygon fill="black" stroke="black" points="274.57,-432.2 271.35,-422.1 267.57,-432 274.57,-432.2"/>
</g>
<!-- Uncertainty -->
<g id="node20" class="node">
<title>Uncertainty</title>
<g id="a_node20"><a xlink:href="https://en.wikipedia.org/wiki/Uncertainty" xlink:title="Uncertainty">
<ellipse fill="lightskyblue" stroke="lightskyblue" cx="285.84" cy="-332" rx="51.99" ry="18"/>
<text text-anchor="middle" x="285.84" y="-328.3" font-family="Times New Roman,serif" font-size="14.00">Uncertainty</text>
</a>
</g>
</g>
<!-- Information&#45;&gt;Uncertainty -->
<g id="edge19" class="edge">
<title>Information&#45;&gt;Uncertainty</title>
<path fill="none" stroke="black" d="M275.3,-385.7C276.85,-377.98 278.7,-368.71 280.42,-360.11"/>
<polygon fill="black" stroke="black" points="283.89,-360.6 282.42,-350.1 277.03,-359.22 283.89,-360.6"/>
</g>
<!-- Epistemology -->
<g id="node21" class="node">
<title>Epistemology</title>
<g id="a_node21"><a xlink:href="https://en.wikipedia.org/wiki/Epistemology" xlink:title="Epistemology">
<ellipse fill="lightskyblue" stroke="lightskyblue" cx="292.84" cy="-260" rx="60.39" ry="18"/>
<text text-anchor="middle" x="292.84" y="-256.3" font-family="Times New Roman,serif" font-size="14.00">Epistemology</text>
</a>
</g>
</g>
<!-- Uncertainty&#45;&gt;Epistemology -->
<g id="edge20" class="edge">
<title>Uncertainty&#45;&gt;Epistemology</title>
<path fill="none" stroke="black" d="M287.57,-313.7C288.34,-305.98 289.27,-296.71 290.13,-288.11"/>
<polygon fill="black" stroke="black" points="293.62,-288.4 291.13,-278.1 286.65,-287.71 293.62,-288.4"/>
</g>
<!-- Outline of philosophy -->
<g id="node22" class="node">
<title>Outline of philosophy</title>
<g id="a_node22"><a xlink:href="https://en.wikipedia.org/wiki/Outline_of_philosophy" xlink:title="Outline of philosophy">
<ellipse fill="lightskyblue" stroke="lightskyblue" cx="295.84" cy="-188" rx="89.88" ry="18"/>
<text text-anchor="middle" x="295.84" y="-184.3" font-family="Times New Roman,serif" font-size="14.00">Outline of philosophy</text>
</a>
</g>
</g>
<!-- Epistemology&#45;&gt;Outline of philosophy -->
<g id="edge21" class="edge">
<title>Epistemology&#45;&gt;Outline of philosophy</title>
<path fill="none" stroke="black" d="M293.58,-241.7C293.91,-233.98 294.31,-224.71 294.68,-216.11"/>
<polygon fill="black" stroke="black" points="298.18,-216.25 295.11,-206.1 291.18,-215.95 298.18,-216.25"/>
</g>
<!-- Philosophy -->
<g id="node23" class="node">
<title>Philosophy</title>
<g id="a_node23"><a xlink:href="https://en.wikipedia.org/wiki/Philosophy" xlink:title="Philosophy">
<ellipse fill="lightskyblue" stroke="lightskyblue" cx="432.84" cy="-116" rx="51.99" ry="18"/>
<text text-anchor="middle" x="432.84" y="-112.3" font-family="Times New Roman,serif" font-size="14.00">Philosophy</text>
</a>
</g>
</g>
<!-- Outline of philosophy&#45;&gt;Philosophy -->
<g id="edge22" class="edge">
<title>Outline of philosophy&#45;&gt;Philosophy</title>
<path fill="none" stroke="black" d="M327.27,-170.94C347.64,-160.53 374.27,-146.93 395.69,-135.99"/>
<polygon fill="black" stroke="black" points="397.5,-138.99 404.81,-131.32 394.32,-132.75 397.5,-138.99"/>
</g>
<!-- Raphael Framberger -->
<g id="node24" class="node">
<title>Raphael Framberger</title>
<g id="a_node24"><a xlink:href="https://en.wikipedia.org/wiki/Raphael_Framberger" xlink:title="Raphael Framberger">
<ellipse fill="#b0e2ff" stroke="#b0e2ff" cx="304.84" cy="-620" rx="84.49" ry="18"/>
<text text-anchor="middle" x="304.84" y="-616.3" font-family="Times New Roman,serif" font-size="14.00">Raphael Framberger</text>
</a>
</g>
</g>
<!-- Association football -->
<g id="node25" class="node">
<title>Association football</title>
<g id="a_node25"><a xlink:href="https://en.wikipedia.org/wiki/Association_football" xlink:title="Association football">
<ellipse fill="lightskyblue" stroke="lightskyblue" cx="432.84" cy="-548" rx="83.69" ry="18"/>
<text text-anchor="middle" x="432.84" y="-544.3" font-family="Times New Roman,serif" font-size="14.00">Association football</text>
</a>
</g>
</g>
<!-- Raphael Framberger&#45;&gt;Association football -->
<g id="edge23" class="edge">
<title>Raphael Framberger&#45;&gt;Association football</title>
<path fill="none" stroke="black" d="M334.21,-602.94C352.18,-593.11 375.36,-580.44 394.73,-569.84"/>
<polygon fill="black" stroke="black" points="396.52,-572.85 403.61,-564.98 393.16,-566.71 396.52,-572.85"/>
</g>
<!-- Team sport -->
<g id="node26" class="node">
<title>Team sport</title>
<g id="a_node26"><a xlink:href="https://en.wikipedia.org/wiki/Team_sport" xlink:title="Team sport">
<ellipse fill="lightskyblue" stroke="lightskyblue" cx="432.84" cy="-476" rx="52.79" ry="18"/>
<text text-anchor="middle" x="432.84" y="-472.3" font-family="Times New Roman,serif" font-size="14.00">Team sport</text>
</a>
</g>
</g>
<!-- Association football&#45;&gt;Team sport -->
<g id="edge24" class="edge">
<title>Association football&#45;&gt;Team sport</title>
<path fill="none" stroke="black" d="M432.84,-529.7C432.84,-521.98 432.84,-512.71 432.84,-504.11"/>
<polygon fill="black" stroke="black" points="436.34,-504.1 432.84,-494.1 429.34,-504.1 436.34,-504.1"/>
</g>
<!-- Sport -->
<g id="node27" class="node">
<title>Sport</title>
<g id="a_node27"><a xlink:href="https://en.wikipedia.org/wiki/Sport" xlink:title="Sport">
<ellipse fill="lightskyblue" stroke="lightskyblue" cx="432.84" cy="-404" rx="31.4" ry="18"/>
<text text-anchor="middle" x="432.84" y="-400.3" font-family="Times New Roman,serif" font-size="14.00">Sport</text>
</a>
</g>
</g>
<!-- Team sport&#45;&gt;Sport -->
<g id="edge25" class="edge">
<title>Team sport&#45;&gt;Sport</title>
<path fill="none" stroke="black" d="M432.84,-457.7C432.84,-449.98 432.84,-440.71 432.84,-432.11"/>
<polygon fill="black" stroke="black" points="436.34,-432.1 432.84,-422.1 429.34,-432.1 436.34,-432.1"/>
</g>
<!-- Competition -->
<g id="node28" class="node">
<title>Competition</title>
<g id="a_node28"><a xlink:href="https://en.wikipedia.org/wiki/Competition" xlink:title="Competition">
<ellipse fill="lightskyblue" stroke="lightskyblue" cx="432.84" cy="-332" rx="55.79" ry="18"/>
<text text-anchor="middle" x="432.84" y="-328.3" font-family="Times New Roman,serif" font-size="14.00">Competition</text>
</a>
</g>
</g>
<!-- Sport&#45;&gt;Competition -->
<g id="edge26" class="edge">
<title>Sport&#45;&gt;Competition</title>
<path fill="none" stroke="black" d="M432.84,-385.7C432.84,-377.98 432.84,-368.71 432.84,-360.11"/>
<polygon fill="black" stroke="black" points="436.34,-360.1 432.84,-350.1 429.34,-360.1 436.34,-360.1"/>
</g>
<!-- Goal -->
<g id="node29" class="node">
<title>Goal</title>
<g id="a_node29"><a xlink:href="https://en.wikipedia.org/wiki/Goal" xlink:title="Goal">
<ellipse fill="lightskyblue" stroke="lightskyblue" cx="432.84" cy="-260" rx="28.7" ry="18"/>
<text text-anchor="middle" x="432.84" y="-256.3" font-family="Times New Roman,serif" font-size="14.00">Goal</text>
</a>
</g>
</g>
<!-- Competition&#45;&gt;Goal -->
<g id="edge27" class="edge">
<title>Competition&#45;&gt;Goal</title>
<path fill="none" stroke="black" d="M432.84,-313.7C432.84,-305.98 432.84,-296.71 432.84,-288.11"/>
<polygon fill="black" stroke="black" points="436.34,-288.1 432.84,-278.1 429.34,-288.1 436.34,-288.1"/>
</g>
<!-- Idea -->
<g id="node30" class="node">
<title>Idea</title>
<g id="a_node30"><a xlink:href="https://en.wikipedia.org/wiki/Idea" xlink:title="Idea">
<ellipse fill="lightskyblue" stroke="lightskyblue" cx="432.84" cy="-188" rx="27" ry="18"/>
<text text-anchor="middle" x="432.84" y="-184.3" font-family="Times New Roman,serif" font-size="14.00">Idea</text>
</a>
</g>
</g>
<!-- Goal&#45;&gt;Idea -->
<g id="edge28" class="edge">
<title>Goal&#45;&gt;Idea</title>
<path fill="none" stroke="black" d="M432.84,-241.7C432.84,-233.98 432.84,-224.71 432.84,-216.11"/>
<polygon fill="black" stroke="black" points="436.34,-216.1 432.84,-206.1 429.34,-216.1 436.34,-216.1"/>
</g>
<!-- Idea&#45;&gt;Philosophy -->
<g id="edge29" class="edge">
<title>Idea&#45;&gt;Philosophy</title>
<path fill="none" stroke="black" d="M432.84,-169.7C432.84,-161.98 432.84,-152.71 432.84,-144.11"/>
<polygon fill="black" stroke="black" points="436.34,-144.1 432.84,-134.1 429.34,-144.1 436.34,-144.1"/>
</g>
<!-- Innocenzo Donina -->
<g id="node31" class="node">
<title>Innocenzo Donina</title>
<g id="a_node31"><a xlink:href="https://en.wikipedia.org/wiki/Innocenzo_Donina" xlink:title="Innocenzo Donina">
<ellipse fill="#b0e2ff" stroke="#b0e2ff" cx="484.84" cy="-620" rx="77.19" ry="18"/>
<text text-anchor="middle" x="484.84" y="-616.3" font-family="Times New Roman,serif" font-size="14.00">Innocenzo Donina</text>
</a>
</g>
</g>
<!-- Innocenzo Donina&#45;&gt;Association football -->
<g id="edge30" class="edge">
<title>Innocenzo Donina&#45;&gt;Association football</title>
<path fill="none" stroke="black" d="M472.25,-602.05C466.09,-593.75 458.53,-583.58 451.69,-574.38"/>
<polygon fill="black" stroke="black" points="454.45,-572.22 445.68,-566.28 448.83,-576.39 454.45,-572.22"/>
</g>
<!-- Ning Feng -->
<g id="node32" class="node">
<title>Ning Feng</title>
<g id="a_node32"><a xlink:href="https://en.wikipedia.org/wiki/Ning_Feng" xlink:title="Ning Feng">
<ellipse fill="#b0e2ff" stroke="#b0e2ff" cx="245.84" cy="-2348" rx="48.19" ry="18"/>
<text text-anchor="middle" x="245.84" y="-2344.3" font-family="Times New Roman,serif" font-size="14.00">Ning Feng</text>
</a>
</g>
</g>
<!-- Violinist -->
<g id="node33" class="node">
<title>Violinist</title>
<g id="a_node33"><a xlink:href="https://en.wikipedia.org/wiki/Violinist" xlink:title="Violinist">
<ellipse fill="lightskyblue" stroke="lightskyblue" cx="245.84" cy="-2276" rx="40.09" ry="18"/>
<text text-anchor="middle" x="245.84" y="-2272.3" font-family="Times New Roman,serif" font-size="14.00">Violinist</text>
</a>
</g>
</g>
<!-- Ning Feng&#45;&gt;Violinist -->
<g id="edge31" class="edge">
<title>Ning Feng&#45;&gt;Violinist</title>
<path fill="none" stroke="black" d="M245.84,-2329.7C245.84,-2321.98 245.84,-2312.71 245.84,-2304.11"/>
<polygon fill="black" stroke="black" points="249.34,-2304.1 245.84,-2294.1 242.34,-2304.1 249.34,-2304.1"/>
</g>
<!-- List of classical violinists -->
<g id="node34" class="node">
<title>List of classical violinists</title>
<g id="a_node34"><a xlink:href="https://en.wikipedia.org/wiki/List_of_classical_violinists" xlink:title="List of classical violinists">
<ellipse fill="lightskyblue" stroke="lightskyblue" cx="245.84" cy="-2204" rx="101.28" ry="18"/>
<text text-anchor="middle" x="245.84" y="-2200.3" font-family="Times New Roman,serif" font-size="14.00">List of classical violinists</text>
</a>
</g>
</g>
<!-- Violinist&#45;&gt;List of classical violinists -->
<g id="edge32" class="edge">
<title>Violinist&#45;&gt;List of classical violinists</title>
<path fill="none" stroke="black" d="M245.84,-2257.7C245.84,-2249.98 245.84,-2240.71 245.84,-2232.11"/>
<polygon fill="black" stroke="black" points="249.34,-2232.1 245.84,-2222.1 242.34,-2232.1 249.34,-2232.1"/>
</g>
<!-- Baroque music -->
<g id="node35" class="node">
<title>Baroque music</title>
<g id="a_node35"><a xlink:href="https://en.wikipedia.org/wiki/Baroque_music" xlink:title="Baroque music">
<ellipse fill="lightskyblue" stroke="lightskyblue" cx="245.84" cy="-2132" rx="65.79" ry="18"/>
<text text-anchor="middle" x="245.84" y="-2128.3" font-family="Times New Roman,serif" font-size="14.00">Baroque music</text>
</a>
</g>
</g>
<!-- List of classical violinists&#45;&gt;Baroque music -->
<g id="edge33" class="edge">
<title>List of classical violinists&#45;&gt;Baroque music</title>
<path fill="none" stroke="black" d="M245.84,-2185.7C245.84,-2177.98 245.84,-2168.71 245.84,-2160.11"/>
<polygon fill="black" stroke="black" points="249.34,-2160.1 245.84,-2150.1 242.34,-2160.1 249.34,-2160.1"/>
</g>
<!-- Art music -->
<g id="node36" class="node">
<title>Art music</title>
<g id="a_node36"><a xlink:href="https://en.wikipedia.org/wiki/Art_music" xlink:title="Art music">
<ellipse fill="lightskyblue" stroke="lightskyblue" cx="245.84" cy="-2060" rx="46.29" ry="18"/>
<text text-anchor="middle" x="245.84" y="-2056.3" font-family="Times New Roman,serif" font-size="14.00">Art music</text>
</a>
</g>
</g>
<!-- Baroque music&#45;&gt;Art music -->
<g id="edge34" class="edge">
<title>Baroque music&#45;&gt;Art music</title>
<path fill="none" stroke="black" d="M245.84,-2113.7C245.84,-2105.98 245.84,-2096.71 245.84,-2088.11"/>
<polygon fill="black" stroke="black" points="249.34,-2088.1 245.84,-2078.1 242.34,-2088.1 249.34,-2088.1"/>
</g>
<!-- High culture -->
<g id="node37" class="node">
<title>High culture</title>
<g id="a_node37"><a xlink:href="https://en.wikipedia.org/wiki/High_culture" xlink:title="High culture">
<ellipse fill="lightskyblue" stroke="lightskyblue" cx="245.84" cy="-1988" rx="54.69" ry="18"/>
<text text-anchor="middle" x="245.84" y="-1984.3" font-family="Times New Roman,serif" font-size="14.00">High culture</text>
</a>
</g>
</g>
<!-- Art music&#45;&gt;High culture -->
<g id="edge35" class="edge">
<title>Art music&#45;&gt;High culture</title>
<path fill="none" stroke="black" d="M245.84,-2041.7C245.84,-2033.98 245.84,-2024.71 245.84,-2016.11"/>
<polygon fill="black" stroke="black" points="249.34,-2016.1 245.84,-2006.1 242.34,-2016.1 249.34,-2016.1"/>
</g>
<!-- Culture -->
<g id="node38" class="node">
<title>Culture</title>
<g id="a_node38"><a xlink:href="https://en.wikipedia.org/wiki/Culture" xlink:title="Culture">
<ellipse fill="lightskyblue" stroke="lightskyblue" cx="245.84" cy="-1916" rx="37.09" ry="18"/>
<text text-anchor="middle" x="245.84" y="-1912.3" font-family="Times New Roman,serif" font-size="14.00">Culture</text>
</a>
</g>
</g>
<!-- High culture&#45;&gt;Culture -->
<g id="edge36" class="edge">
<title>High culture&#45;&gt;Culture</title>
<path fill="none" stroke="black" d="M245.84,-1969.7C245.84,-1961.98 245.84,-1952.71 245.84,-1944.11"/>
<polygon fill="black" stroke="black" points="249.34,-1944.1 245.84,-1934.1 242.34,-1944.1 249.34,-1944.1"/>
</g>
<!-- Social behavior -->
<g id="node39" class="node">
<title>Social behavior</title>
<g id="a_node39"><a xlink:href="https://en.wikipedia.org/wiki/Social_behavior" xlink:title="Social behavior">
<ellipse fill="lightskyblue" stroke="lightskyblue" cx="245.84" cy="-1844" rx="66.89" ry="18"/>
<text text-anchor="middle" x="245.84" y="-1840.3" font-family="Times New Roman,serif" font-size="14.00">Social behavior</text>
</a>
</g>
</g>
<!-- Culture&#45;&gt;Social behavior -->
<g id="edge37" class="edge">
<title>Culture&#45;&gt;Social behavior</title>
<path fill="none" stroke="black" d="M245.84,-1897.7C245.84,-1889.98 245.84,-1880.71 245.84,-1872.11"/>
<polygon fill="black" stroke="black" points="249.34,-1872.1 245.84,-1862.1 242.34,-1872.1 249.34,-1872.1"/>
</g>
<!-- Behavior -->
<g id="node40" class="node">
<title>Behavior</title>
<g id="a_node40"><a xlink:href="https://en.wikipedia.org/wiki/Behavior" xlink:title="Behavior">
<ellipse fill="lightskyblue" stroke="lightskyblue" cx="245.84" cy="-1772" rx="42.79" ry="18"/>
<text text-anchor="middle" x="245.84" y="-1768.3" font-family="Times New Roman,serif" font-size="14.00">Behavior</text>
</a>
</g>
</g>
<!-- Social behavior&#45;&gt;Behavior -->
<g id="edge38" class="edge">
<title>Social behavior&#45;&gt;Behavior</title>
<path fill="none" stroke="black" d="M245.84,-1825.7C245.84,-1817.98 245.84,-1808.71 245.84,-1800.11"/>
<polygon fill="black" stroke="black" points="249.34,-1800.1 245.84,-1790.1 242.34,-1800.1 249.34,-1800.1"/>
</g>
<!-- Action (philosophy) -->
<g id="node41" class="node">
<title>Action (philosophy)</title>
<g id="a_node41"><a xlink:href="https://en.wikipedia.org/wiki/Action_(philosophy)" xlink:title="Action (philosophy)">
<ellipse fill="lightskyblue" stroke="lightskyblue" cx="245.84" cy="-1700" rx="83.69" ry="18"/>
<text text-anchor="middle" x="245.84" y="-1696.3" font-family="Times New Roman,serif" font-size="14.00">Action (philosophy)</text>
</a>
</g>
</g>
<!-- Behavior&#45;&gt;Action (philosophy) -->
<g id="edge39" class="edge">
<title>Behavior&#45;&gt;Action (philosophy)</title>
<path fill="none" stroke="black" d="M245.84,-1753.7C245.84,-1745.98 245.84,-1736.71 245.84,-1728.11"/>
<polygon fill="black" stroke="black" points="249.34,-1728.1 245.84,-1718.1 242.34,-1728.1 249.34,-1728.1"/>
</g>
<!-- Intention -->
<g id="node42" class="node">
<title>Intention</title>
<g id="a_node42"><a xlink:href="https://en.wikipedia.org/wiki/Intention" xlink:title="Intention">
<ellipse fill="lightskyblue" stroke="lightskyblue" cx="245.84" cy="-1628" rx="42.49" ry="18"/>
<text text-anchor="middle" x="245.84" y="-1624.3" font-family="Times New Roman,serif" font-size="14.00">Intention</text>
</a>
</g>
</g>
<!-- Action (philosophy)&#45;&gt;Intention -->
<g id="edge40" class="edge">
<title>Action (philosophy)&#45;&gt;Intention</title>
<path fill="none" stroke="black" d="M245.84,-1681.7C245.84,-1673.98 245.84,-1664.71 245.84,-1656.11"/>
<polygon fill="black" stroke="black" points="249.34,-1656.1 245.84,-1646.1 242.34,-1656.1 249.34,-1656.1"/>
</g>
<!-- Mind -->
<g id="node43" class="node">
<title>Mind</title>
<g id="a_node43"><a xlink:href="https://en.wikipedia.org/wiki/Mind" xlink:title="Mind">
<ellipse fill="lightskyblue" stroke="lightskyblue" cx="245.84" cy="-1556" rx="29.8" ry="18"/>
<text text-anchor="middle" x="245.84" y="-1552.3" font-family="Times New Roman,serif" font-size="14.00">Mind</text>
</a>
</g>
</g>
<!-- Intention&#45;&gt;Mind -->
<g id="edge41" class="edge">
<title>Intention&#45;&gt;Mind</title>
<path fill="none" stroke="black" d="M245.84,-1609.7C245.84,-1601.98 245.84,-1592.71 245.84,-1584.11"/>
<polygon fill="black" stroke="black" points="249.34,-1584.1 245.84,-1574.1 242.34,-1584.1 249.34,-1584.1"/>
</g>
<!-- Cognitive -->
<g id="node44" class="node">
<title>Cognitive</title>
<g id="a_node44"><a xlink:href="https://en.wikipedia.org/wiki/Cognitive" xlink:title="Cognitive">
<ellipse fill="lightskyblue" stroke="lightskyblue" cx="245.84" cy="-1484" rx="45.49" ry="18"/>
<text text-anchor="middle" x="245.84" y="-1480.3" font-family="Times New Roman,serif" font-size="14.00">Cognitive</text>
</a>
</g>
</g>
<!-- Mind&#45;&gt;Cognitive -->
<g id="edge42" class="edge">
<title>Mind&#45;&gt;Cognitive</title>
<path fill="none" stroke="black" d="M245.84,-1537.7C245.84,-1529.98 245.84,-1520.71 245.84,-1512.11"/>
<polygon fill="black" stroke="black" points="249.34,-1512.1 245.84,-1502.1 242.34,-1512.1 249.34,-1512.1"/>
</g>
<!-- Intellectual function -->
<g id="node45" class="node">
<title>Intellectual function</title>
<g id="a_node45"><a xlink:href="https://en.wikipedia.org/wiki/Intellectual_function" xlink:title="Intellectual function">
<ellipse fill="lightskyblue" stroke="lightskyblue" cx="245.84" cy="-1412" rx="81.49" ry="18"/>
<text text-anchor="middle" x="245.84" y="-1408.3" font-family="Times New Roman,serif" font-size="14.00">Intellectual function</text>
</a>
</g>
</g>
<!-- Cognitive&#45;&gt;Intellectual function -->
<g id="edge43" class="edge">
<title>Cognitive&#45;&gt;Intellectual function</title>
<path fill="none" stroke="black" d="M245.84,-1465.7C245.84,-1457.98 245.84,-1448.71 245.84,-1440.11"/>
<polygon fill="black" stroke="black" points="249.34,-1440.1 245.84,-1430.1 242.34,-1440.1 249.34,-1440.1"/>
</g>
<!-- Reason -->
<g id="node46" class="node">
<title>Reason</title>
<g id="a_node46"><a xlink:href="https://en.wikipedia.org/wiki/Reason" xlink:title="Reason">
<ellipse fill="lightskyblue" stroke="lightskyblue" cx="231.84" cy="-1340" rx="38.19" ry="18"/>
<text text-anchor="middle" x="231.84" y="-1336.3" font-family="Times New Roman,serif" font-size="14.00">Reason</text>
</a>
</g>
</g>
<!-- Intellectual function&#45;&gt;Reason -->
<g id="edge44" class="edge">
<title>Intellectual function&#45;&gt;Reason</title>
<path fill="none" stroke="black" d="M242.38,-1393.7C240.84,-1385.98 238.99,-1376.71 237.27,-1368.11"/>
<polygon fill="black" stroke="black" points="240.66,-1367.22 235.26,-1358.1 233.79,-1368.6 240.66,-1367.22"/>
</g>
<!-- Reason&#45;&gt;Consciousness -->
<g id="edge45" class="edge">
<title>Reason&#45;&gt;Consciousness</title>
<path fill="none" stroke="black" d="M216.41,-1323.12C207.79,-1314.24 196.88,-1303.01 187.23,-1293.08"/>
<polygon fill="black" stroke="black" points="189.64,-1290.53 180.16,-1285.8 184.62,-1295.41 189.64,-1290.53"/>
</g>
<!-- Pamela Allier -->
<g id="node47" class="node">
<title>Pamela Allier</title>
<g id="a_node47"><a xlink:href="https://en.wikipedia.org/wiki/Pamela_Allier" xlink:title="Pamela Allier">
<ellipse fill="#b0e2ff" stroke="#b0e2ff" cx="637.84" cy="-620" rx="57.69" ry="18"/>
<text text-anchor="middle" x="637.84" y="-616.3" font-family="Times New Roman,serif" font-size="14.00">Pamela Allier</text>
</a>
</g>
</g>
<!-- Internet celebrity -->
<g id="node48" class="node">
<title>Internet celebrity</title>
<g id="a_node48"><a xlink:href="https://en.wikipedia.org/wiki/Internet_celebrity" xlink:title="Internet celebrity">
<ellipse fill="lightskyblue" stroke="lightskyblue" cx="621.84" cy="-548" rx="71.49" ry="18"/>
<text text-anchor="middle" x="621.84" y="-544.3" font-family="Times New Roman,serif" font-size="14.00">Internet celebrity</text>
</a>
</g>
</g>
<!-- Pamela Allier&#45;&gt;Internet celebrity -->
<g id="edge46" class="edge">
<title>Pamela Allier&#45;&gt;Internet celebrity</title>
<path fill="none" stroke="black" d="M633.89,-601.7C632.12,-593.98 630.01,-584.71 628.04,-576.11"/>
<polygon fill="black" stroke="black" points="631.39,-575.07 625.75,-566.1 624.57,-576.63 631.39,-575.07"/>
</g>
<!-- Celebrity -->
<g id="node49" class="node">
<title>Celebrity</title>
<g id="a_node49"><a xlink:href="https://en.wikipedia.org/wiki/Celebrity" xlink:title="Celebrity">
<ellipse fill="lightskyblue" stroke="lightskyblue" cx="612.84" cy="-476" rx="43.59" ry="18"/>
<text text-anchor="middle" x="612.84" y="-472.3" font-family="Times New Roman,serif" font-size="14.00">Celebrity</text>
</a>
</g>
</g>
<!-- Internet celebrity&#45;&gt;Celebrity -->
<g id="edge47" class="edge">
<title>Internet celebrity&#45;&gt;Celebrity</title>
<path fill="none" stroke="black" d="M619.62,-529.7C618.63,-521.98 617.43,-512.71 616.33,-504.11"/>
<polygon fill="black" stroke="black" points="619.79,-503.58 615.04,-494.1 612.85,-504.47 619.79,-503.58"/>
</g>
<!-- Mass media -->
<g id="node50" class="node">
<title>Mass media</title>
<g id="a_node50"><a xlink:href="https://en.wikipedia.org/wiki/Mass_media" xlink:title="Mass media">
<ellipse fill="lightskyblue" stroke="lightskyblue" cx="612.84" cy="-404" rx="53.89" ry="18"/>
<text text-anchor="middle" x="612.84" y="-400.3" font-family="Times New Roman,serif" font-size="14.00">Mass media</text>
</a>
</g>
</g>
<!-- Celebrity&#45;&gt;Mass media -->
<g id="edge48" class="edge">
<title>Celebrity&#45;&gt;Mass media</title>
<path fill="none" stroke="black" d="M612.84,-457.7C612.84,-449.98 612.84,-440.71 612.84,-432.11"/>
<polygon fill="black" stroke="black" points="616.34,-432.1 612.84,-422.1 609.34,-432.1 616.34,-432.1"/>
</g>
<!-- Media (communication) -->
<g id="node51" class="node">
<title>Media (communication)</title>
<g id="a_node51"><a xlink:href="https://en.wikipedia.org/wiki/Media_(communication)" xlink:title="Media (communication)">
<ellipse fill="lightskyblue" stroke="lightskyblue" cx="604.84" cy="-332" rx="96.68" ry="18"/>
<text text-anchor="middle" x="604.84" y="-328.3" font-family="Times New Roman,serif" font-size="14.00">Media (communication)</text>
</a>
</g>
</g>
<!-- Mass media&#45;&gt;Media (communication) -->
<g id="edge49" class="edge">
<title>Mass media&#45;&gt;Media (communication)</title>
<path fill="none" stroke="black" d="M610.87,-385.7C609.98,-377.98 608.92,-368.71 607.94,-360.11"/>
<polygon fill="black" stroke="black" points="611.41,-359.64 606.8,-350.1 604.46,-360.44 611.41,-359.64"/>
</g>
<!-- Communication -->
<g id="node52" class="node">
<title>Communication</title>
<g id="a_node52"><a xlink:href="https://en.wikipedia.org/wiki/Communication" xlink:title="Communication">
<ellipse fill="lightskyblue" stroke="lightskyblue" cx="575.84" cy="-260" rx="68.49" ry="18"/>
<text text-anchor="middle" x="575.84" y="-256.3" font-family="Times New Roman,serif" font-size="14.00">Communication</text>
</a>
</g>
</g>
<!-- Media (communication)&#45;&gt;Communication -->
<g id="edge50" class="edge">
<title>Media (communication)&#45;&gt;Communication</title>
<path fill="none" stroke="black" d="M597.67,-313.7C594.41,-305.81 590.47,-296.3 586.84,-287.55"/>
<polygon fill="black" stroke="black" points="589.99,-286 582.93,-278.1 583.52,-288.68 589.99,-286"/>
</g>
<!-- Semantics -->
<g id="node53" class="node">
<title>Semantics</title>
<g id="a_node53"><a xlink:href="https://en.wikipedia.org/wiki/Semantics" xlink:title="Semantics">
<ellipse fill="lightskyblue" stroke="lightskyblue" cx="550.84" cy="-188" rx="48.19" ry="18"/>
<text text-anchor="middle" x="550.84" y="-184.3" font-family="Times New Roman,serif" font-size="14.00">Semantics</text>
</a>
</g>
</g>
<!-- Communication&#45;&gt;Semantics -->
<g id="edge51" class="edge">
<title>Communication&#45;&gt;Semantics</title>
<path fill="none" stroke="black" d="M569.79,-242.05C566.98,-234.18 563.56,-224.62 560.41,-215.79"/>
<polygon fill="black" stroke="black" points="563.67,-214.52 557.01,-206.28 557.08,-216.87 563.67,-214.52"/>
</g>
<!-- Semantics&#45;&gt;Philosophy -->
<g id="edge52" class="edge">
<title>Semantics&#45;&gt;Philosophy</title>
<path fill="none" stroke="black" d="M526.39,-172.5C509.14,-162.26 485.81,-148.42 466.76,-137.12"/>
<polygon fill="black" stroke="black" points="468.46,-134.06 458.08,-131.97 464.89,-140.08 468.46,-134.06"/>
</g>
</g>
</svg>
