<?xml version="1.0" encoding="UTF-8" standalone="no"?>
<!DOCTYPE svg PUBLIC "-//W3C//DTD SVG 1.1//EN"
 "http://www.w3.org/Graphics/SVG/1.1/DTD/svg11.dtd">
<!-- Generated by graphviz version 2.46.0 (20210118.1747)
 -->
<!-- Title: unix Pages: 1 -->
<svg width="961pt" height="1222pt"
 viewBox="0.00 0.00 961.13 1222.00" xmlns="http://www.w3.org/2000/svg" xmlns:xlink="http://www.w3.org/1999/xlink">
<g id="graph0" class="graph" transform="scale(1 1) rotate(0) translate(4 1218)">
<title>unix</title>
<polygon fill="white" stroke="transparent" points="-4,4 -4,-1218 957.13,-1218 957.13,4 -4,4"/>
<text text-anchor="start" x="300.57" y="-54" font-family="Times New Roman,serif" font-size="20.00">Graph generated on 09/05/2021 14:04:56.</text>
<text text-anchor="start" x="300.57" y="-32" font-family="Times New Roman,serif" font-size="20.00">Checked 5 pages. Time took: 0.88 minutes.</text>
<text text-anchor="middle" x="476.57" y="-10" font-family="Times New Roman,serif" font-size="20.00">Number of pages drawn: 49</text>
<!-- Crepidium quadrilobum -->
<g id="node1" class="node">
<title>Crepidium quadrilobum</title>
<g id="a_node1"><a xlink:href="https://en.wikipedia.org/wiki/Crepidium_quadrilobum" xlink:title="Crepidium quadrilobum">
<ellipse fill="#b0e2ff" stroke="#b0e2ff" cx="96.84" cy="-1196" rx="96.68" ry="18"/>
<text text-anchor="middle" x="96.84" y="-1192.3" font-family="Times New Roman,serif" font-size="14.00">Crepidium quadrilobum</text>
</a>
</g>
</g>
<!-- Orchidaceae -->
<g id="node2" class="node">
<title>Orchidaceae</title>
<g id="a_node2"><a xlink:href="https://en.wikipedia.org/wiki/Orchidaceae" xlink:title="Orchidaceae">
<ellipse fill="lightskyblue" stroke="lightskyblue" cx="96.84" cy="-1124" rx="55.79" ry="18"/>
<text text-anchor="middle" x="96.84" y="-1120.3" font-family="Times New Roman,serif" font-size="14.00">Orchidaceae</text>
</a>
</g>
</g>
<!-- Crepidium quadrilobum&#45;&gt;Orchidaceae -->
<g id="edge1" class="edge">
<title>Crepidium quadrilobum&#45;&gt;Orchidaceae</title>
<path fill="none" stroke="black" d="M96.84,-1177.7C96.84,-1169.98 96.84,-1160.71 96.84,-1152.11"/>
<polygon fill="black" stroke="black" points="100.34,-1152.1 96.84,-1142.1 93.34,-1152.1 100.34,-1152.1"/>
</g>
<!-- Family (biology) -->
<g id="node3" class="node">
<title>Family (biology)</title>
<g id="a_node3"><a xlink:href="https://en.wikipedia.org/wiki/Family_(biology)" xlink:title="Family (biology)">
<ellipse fill="lightskyblue" stroke="lightskyblue" cx="96.84" cy="-1052" rx="70.69" ry="18"/>
<text text-anchor="middle" x="96.84" y="-1048.3" font-family="Times New Roman,serif" font-size="14.00">Family (biology)</text>
</a>
</g>
</g>
<!-- Orchidaceae&#45;&gt;Family (biology) -->
<g id="edge2" class="edge">
<title>Orchidaceae&#45;&gt;Family (biology)</title>
<path fill="none" stroke="black" d="M96.84,-1105.7C96.84,-1097.98 96.84,-1088.71 96.84,-1080.11"/>
<polygon fill="black" stroke="black" points="100.34,-1080.1 96.84,-1070.1 93.34,-1080.1 100.34,-1080.1"/>
</g>
<!-- Taxonomic rank -->
<g id="node4" class="node">
<title>Taxonomic rank</title>
<g id="a_node4"><a xlink:href="https://en.wikipedia.org/wiki/Taxonomic_rank" xlink:title="Taxonomic rank">
<ellipse fill="lightskyblue" stroke="lightskyblue" cx="97.84" cy="-980" rx="70.39" ry="18"/>
<text text-anchor="middle" x="97.84" y="-976.3" font-family="Times New Roman,serif" font-size="14.00">Taxonomic rank</text>
</a>
</g>
</g>
<!-- Family (biology)&#45;&gt;Taxonomic rank -->
<g id="edge3" class="edge">
<title>Family (biology)&#45;&gt;Taxonomic rank</title>
<path fill="none" stroke="black" d="M97.09,-1033.7C97.2,-1025.98 97.33,-1016.71 97.45,-1008.11"/>
<polygon fill="black" stroke="black" points="100.95,-1008.15 97.6,-998.1 93.95,-1008.05 100.95,-1008.15"/>
</g>
<!-- Biological classification -->
<g id="node5" class="node">
<title>Biological classification</title>
<g id="a_node5"><a xlink:href="https://en.wikipedia.org/wiki/Biological_classification" xlink:title="Biological classification">
<ellipse fill="lightskyblue" stroke="lightskyblue" cx="99.84" cy="-908" rx="96.38" ry="18"/>
<text text-anchor="middle" x="99.84" y="-904.3" font-family="Times New Roman,serif" font-size="14.00">Biological classification</text>
</a>
</g>
</g>
<!-- Taxonomic rank&#45;&gt;Biological classification -->
<g id="edge4" class="edge">
<title>Taxonomic rank&#45;&gt;Biological classification</title>
<path fill="none" stroke="black" d="M98.34,-961.7C98.56,-953.98 98.82,-944.71 99.07,-936.11"/>
<polygon fill="black" stroke="black" points="102.57,-936.2 99.35,-926.1 95.57,-936 102.57,-936.2"/>
</g>
<!-- Biology -->
<g id="node6" class="node">
<title>Biology</title>
<g id="a_node6"><a xlink:href="https://en.wikipedia.org/wiki/Biology" xlink:title="Biology">
<ellipse fill="lightskyblue" stroke="lightskyblue" cx="99.84" cy="-836" rx="38.99" ry="18"/>
<text text-anchor="middle" x="99.84" y="-832.3" font-family="Times New Roman,serif" font-size="14.00">Biology</text>
</a>
</g>
</g>
<!-- Biological classification&#45;&gt;Biology -->
<g id="edge5" class="edge">
<title>Biological classification&#45;&gt;Biology</title>
<path fill="none" stroke="black" d="M99.84,-889.7C99.84,-881.98 99.84,-872.71 99.84,-864.11"/>
<polygon fill="black" stroke="black" points="103.34,-864.1 99.84,-854.1 96.34,-864.1 103.34,-864.1"/>
</g>
<!-- Natural science -->
<g id="node7" class="node">
<title>Natural science</title>
<g id="a_node7"><a xlink:href="https://en.wikipedia.org/wiki/Natural_science" xlink:title="Natural science">
<ellipse fill="lightskyblue" stroke="lightskyblue" cx="102.84" cy="-764" rx="65.79" ry="18"/>
<text text-anchor="middle" x="102.84" y="-760.3" font-family="Times New Roman,serif" font-size="14.00">Natural science</text>
</a>
</g>
</g>
<!-- Biology&#45;&gt;Natural science -->
<g id="edge6" class="edge">
<title>Biology&#45;&gt;Natural science</title>
<path fill="none" stroke="black" d="M100.58,-817.7C100.91,-809.98 101.31,-800.71 101.68,-792.11"/>
<polygon fill="black" stroke="black" points="105.18,-792.25 102.11,-782.1 98.18,-791.95 105.18,-792.25"/>
</g>
<!-- Branches of science -->
<g id="node8" class="node">
<title>Branches of science</title>
<g id="a_node8"><a xlink:href="https://en.wikipedia.org/wiki/Branches_of_science" xlink:title="Branches of science">
<ellipse fill="lightskyblue" stroke="lightskyblue" cx="109.84" cy="-692" rx="83.69" ry="18"/>
<text text-anchor="middle" x="109.84" y="-688.3" font-family="Times New Roman,serif" font-size="14.00">Branches of science</text>
</a>
</g>
</g>
<!-- Natural science&#45;&gt;Branches of science -->
<g id="edge7" class="edge">
<title>Natural science&#45;&gt;Branches of science</title>
<path fill="none" stroke="black" d="M104.57,-745.7C105.34,-737.98 106.27,-728.71 107.13,-720.11"/>
<polygon fill="black" stroke="black" points="110.62,-720.4 108.13,-710.1 103.65,-719.71 110.62,-720.4"/>
</g>
<!-- Science -->
<g id="node9" class="node">
<title>Science</title>
<g id="a_node9"><a xlink:href="https://en.wikipedia.org/wiki/Science" xlink:title="Science">
<ellipse fill="lightskyblue" stroke="lightskyblue" cx="265.84" cy="-620" rx="38.99" ry="18"/>
<text text-anchor="middle" x="265.84" y="-616.3" font-family="Times New Roman,serif" font-size="14.00">Science</text>
</a>
</g>
</g>
<!-- Branches of science&#45;&gt;Science -->
<g id="edge8" class="edge">
<title>Branches of science&#45;&gt;Science</title>
<path fill="none" stroke="black" d="M144.46,-675.46C169.61,-664.18 203.59,-648.93 229.2,-637.44"/>
<polygon fill="black" stroke="black" points="230.88,-640.53 238.57,-633.24 228.01,-634.14 230.88,-640.53"/>
</g>
<!-- Scientific method -->
<g id="node10" class="node">
<title>Scientific method</title>
<g id="a_node10"><a xlink:href="https://en.wikipedia.org/wiki/Scientific_method" xlink:title="Scientific method">
<ellipse fill="lightskyblue" stroke="lightskyblue" cx="265.84" cy="-548" rx="74.19" ry="18"/>
<text text-anchor="middle" x="265.84" y="-544.3" font-family="Times New Roman,serif" font-size="14.00">Scientific method</text>
</a>
</g>
</g>
<!-- Science&#45;&gt;Scientific method -->
<g id="edge9" class="edge">
<title>Science&#45;&gt;Scientific method</title>
<path fill="none" stroke="black" d="M265.84,-601.7C265.84,-593.98 265.84,-584.71 265.84,-576.11"/>
<polygon fill="black" stroke="black" points="269.34,-576.1 265.84,-566.1 262.34,-576.1 269.34,-576.1"/>
</g>
<!-- Empirical evidence -->
<g id="node11" class="node">
<title>Empirical evidence</title>
<g id="a_node11"><a xlink:href="https://en.wikipedia.org/wiki/Empirical_evidence" xlink:title="Empirical evidence">
<ellipse fill="lightskyblue" stroke="lightskyblue" cx="265.84" cy="-476" rx="79.09" ry="18"/>
<text text-anchor="middle" x="265.84" y="-472.3" font-family="Times New Roman,serif" font-size="14.00">Empirical evidence</text>
</a>
</g>
</g>
<!-- Scientific method&#45;&gt;Empirical evidence -->
<g id="edge10" class="edge">
<title>Scientific method&#45;&gt;Empirical evidence</title>
<path fill="none" stroke="black" d="M265.84,-529.7C265.84,-521.98 265.84,-512.71 265.84,-504.11"/>
<polygon fill="black" stroke="black" points="269.34,-504.1 265.84,-494.1 262.34,-504.1 269.34,-504.1"/>
</g>
<!-- Information -->
<g id="node12" class="node">
<title>Information</title>
<g id="a_node12"><a xlink:href="https://en.wikipedia.org/wiki/Information" xlink:title="Information">
<ellipse fill="lightskyblue" stroke="lightskyblue" cx="265.84" cy="-404" rx="53.09" ry="18"/>
<text text-anchor="middle" x="265.84" y="-400.3" font-family="Times New Roman,serif" font-size="14.00">Information</text>
</a>
</g>
</g>
<!-- Empirical evidence&#45;&gt;Information -->
<g id="edge11" class="edge">
<title>Empirical evidence&#45;&gt;Information</title>
<path fill="none" stroke="black" d="M265.84,-457.7C265.84,-449.98 265.84,-440.71 265.84,-432.11"/>
<polygon fill="black" stroke="black" points="269.34,-432.1 265.84,-422.1 262.34,-432.1 269.34,-432.1"/>
</g>
<!-- Uncertainty -->
<g id="node13" class="node">
<title>Uncertainty</title>
<g id="a_node13"><a xlink:href="https://en.wikipedia.org/wiki/Uncertainty" xlink:title="Uncertainty">
<ellipse fill="lightskyblue" stroke="lightskyblue" cx="265.84" cy="-332" rx="51.99" ry="18"/>
<text text-anchor="middle" x="265.84" y="-328.3" font-family="Times New Roman,serif" font-size="14.00">Uncertainty</text>
</a>
</g>
</g>
<!-- Information&#45;&gt;Uncertainty -->
<g id="edge12" class="edge">
<title>Information&#45;&gt;Uncertainty</title>
<path fill="none" stroke="black" d="M265.84,-385.7C265.84,-377.98 265.84,-368.71 265.84,-360.11"/>
<polygon fill="black" stroke="black" points="269.34,-360.1 265.84,-350.1 262.34,-360.1 269.34,-360.1"/>
</g>
<!-- Epistemology -->
<g id="node14" class="node">
<title>Epistemology</title>
<g id="a_node14"><a xlink:href="https://en.wikipedia.org/wiki/Epistemology" xlink:title="Epistemology">
<ellipse fill="lightskyblue" stroke="lightskyblue" cx="265.84" cy="-260" rx="60.39" ry="18"/>
<text text-anchor="middle" x="265.84" y="-256.3" font-family="Times New Roman,serif" font-size="14.00">Epistemology</text>
</a>
</g>
</g>
<!-- Uncertainty&#45;&gt;Epistemology -->
<g id="edge13" class="edge">
<title>Uncertainty&#45;&gt;Epistemology</title>
<path fill="none" stroke="black" d="M265.84,-313.7C265.84,-305.98 265.84,-296.71 265.84,-288.11"/>
<polygon fill="black" stroke="black" points="269.34,-288.1 265.84,-278.1 262.34,-288.1 269.34,-288.1"/>
</g>
<!-- Outline of philosophy -->
<g id="node15" class="node">
<title>Outline of philosophy</title>
<g id="a_node15"><a xlink:href="https://en.wikipedia.org/wiki/Outline_of_philosophy" xlink:title="Outline of philosophy">
<ellipse fill="lightskyblue" stroke="lightskyblue" cx="265.84" cy="-188" rx="89.88" ry="18"/>
<text text-anchor="middle" x="265.84" y="-184.3" font-family="Times New Roman,serif" font-size="14.00">Outline of philosophy</text>
</a>
</g>
</g>
<!-- Epistemology&#45;&gt;Outline of philosophy -->
<g id="edge14" class="edge">
<title>Epistemology&#45;&gt;Outline of philosophy</title>
<path fill="none" stroke="black" d="M265.84,-241.7C265.84,-233.98 265.84,-224.71 265.84,-216.11"/>
<polygon fill="black" stroke="black" points="269.34,-216.1 265.84,-206.1 262.34,-216.1 269.34,-216.1"/>
</g>
<!-- Philosophy -->
<g id="node16" class="node">
<title>Philosophy</title>
<g id="a_node16"><a xlink:href="https://en.wikipedia.org/wiki/Philosophy" xlink:title="Philosophy">
<ellipse fill="lightskyblue" stroke="lightskyblue" cx="265.84" cy="-116" rx="51.99" ry="18"/>
<text text-anchor="middle" x="265.84" y="-112.3" font-family="Times New Roman,serif" font-size="14.00">Philosophy</text>
</a>
</g>
</g>
<!-- Outline of philosophy&#45;&gt;Philosophy -->
<g id="edge15" class="edge">
<title>Outline of philosophy&#45;&gt;Philosophy</title>
<path fill="none" stroke="black" d="M265.84,-169.7C265.84,-161.98 265.84,-152.71 265.84,-144.11"/>
<polygon fill="black" stroke="black" points="269.34,-144.1 265.84,-134.1 262.34,-144.1 269.34,-144.1"/>
</g>
<!-- Reuben and Rachel -->
<g id="node17" class="node">
<title>Reuben and Rachel</title>
<g id="a_node17"><a xlink:href="https://en.wikipedia.org/wiki/Reuben_and_Rachel" xlink:title="Reuben and Rachel">
<ellipse fill="#b0e2ff" stroke="#b0e2ff" cx="266.84" cy="-1052" rx="81.49" ry="18"/>
<text text-anchor="middle" x="266.84" y="-1048.3" font-family="Times New Roman,serif" font-size="14.00">Reuben and Rachel</text>
</a>
</g>
</g>
<!-- Popular song -->
<g id="node18" class="node">
<title>Popular song</title>
<g id="a_node18"><a xlink:href="https://en.wikipedia.org/wiki/Popular_song" xlink:title="Popular song">
<ellipse fill="lightskyblue" stroke="lightskyblue" cx="265.84" cy="-980" rx="59.29" ry="18"/>
<text text-anchor="middle" x="265.84" y="-976.3" font-family="Times New Roman,serif" font-size="14.00">Popular song</text>
</a>
</g>
</g>
<!-- Reuben and Rachel&#45;&gt;Popular song -->
<g id="edge16" class="edge">
<title>Reuben and Rachel&#45;&gt;Popular song</title>
<path fill="none" stroke="black" d="M266.59,-1033.7C266.48,-1025.98 266.35,-1016.71 266.23,-1008.11"/>
<polygon fill="black" stroke="black" points="269.73,-1008.05 266.09,-998.1 262.73,-1008.15 269.73,-1008.05"/>
</g>
<!-- Music -->
<g id="node19" class="node">
<title>Music</title>
<g id="a_node19"><a xlink:href="https://en.wikipedia.org/wiki/Music" xlink:title="Music">
<ellipse fill="lightskyblue" stroke="lightskyblue" cx="265.84" cy="-908" rx="33.29" ry="18"/>
<text text-anchor="middle" x="265.84" y="-904.3" font-family="Times New Roman,serif" font-size="14.00">Music</text>
</a>
</g>
</g>
<!-- Popular song&#45;&gt;Music -->
<g id="edge17" class="edge">
<title>Popular song&#45;&gt;Music</title>
<path fill="none" stroke="black" d="M265.84,-961.7C265.84,-953.98 265.84,-944.71 265.84,-936.11"/>
<polygon fill="black" stroke="black" points="269.34,-936.1 265.84,-926.1 262.34,-936.1 269.34,-936.1"/>
</g>
<!-- The arts -->
<g id="node20" class="node">
<title>The arts</title>
<g id="a_node20"><a xlink:href="https://en.wikipedia.org/wiki/The_arts" xlink:title="The arts">
<ellipse fill="lightskyblue" stroke="lightskyblue" cx="265.84" cy="-836" rx="40.09" ry="18"/>
<text text-anchor="middle" x="265.84" y="-832.3" font-family="Times New Roman,serif" font-size="14.00">The arts</text>
</a>
</g>
</g>
<!-- Music&#45;&gt;The arts -->
<g id="edge18" class="edge">
<title>Music&#45;&gt;The arts</title>
<path fill="none" stroke="black" d="M265.84,-889.7C265.84,-881.98 265.84,-872.71 265.84,-864.11"/>
<polygon fill="black" stroke="black" points="269.34,-864.1 265.84,-854.1 262.34,-864.1 269.34,-864.1"/>
</g>
<!-- Creativity -->
<g id="node21" class="node">
<title>Creativity</title>
<g id="a_node21"><a xlink:href="https://en.wikipedia.org/wiki/Creativity" xlink:title="Creativity">
<ellipse fill="lightskyblue" stroke="lightskyblue" cx="265.84" cy="-764" rx="45.49" ry="18"/>
<text text-anchor="middle" x="265.84" y="-760.3" font-family="Times New Roman,serif" font-size="14.00">Creativity</text>
</a>
</g>
</g>
<!-- The arts&#45;&gt;Creativity -->
<g id="edge19" class="edge">
<title>The arts&#45;&gt;Creativity</title>
<path fill="none" stroke="black" d="M265.84,-817.7C265.84,-809.98 265.84,-800.71 265.84,-792.11"/>
<polygon fill="black" stroke="black" points="269.34,-792.1 265.84,-782.1 262.34,-792.1 269.34,-792.1"/>
</g>
<!-- Psychology -->
<g id="node22" class="node">
<title>Psychology</title>
<g id="a_node22"><a xlink:href="https://en.wikipedia.org/wiki/Psychology" xlink:title="Psychology">
<ellipse fill="lightskyblue" stroke="lightskyblue" cx="265.84" cy="-692" rx="53.89" ry="18"/>
<text text-anchor="middle" x="265.84" y="-688.3" font-family="Times New Roman,serif" font-size="14.00">Psychology</text>
</a>
</g>
</g>
<!-- Creativity&#45;&gt;Psychology -->
<g id="edge20" class="edge">
<title>Creativity&#45;&gt;Psychology</title>
<path fill="none" stroke="black" d="M265.84,-745.7C265.84,-737.98 265.84,-728.71 265.84,-720.11"/>
<polygon fill="black" stroke="black" points="269.34,-720.1 265.84,-710.1 262.34,-720.1 269.34,-720.1"/>
</g>
<!-- Psychology&#45;&gt;Science -->
<g id="edge21" class="edge">
<title>Psychology&#45;&gt;Science</title>
<path fill="none" stroke="black" d="M265.84,-673.7C265.84,-665.98 265.84,-656.71 265.84,-648.11"/>
<polygon fill="black" stroke="black" points="269.34,-648.1 265.84,-638.1 262.34,-648.1 269.34,-648.1"/>
</g>
<!-- White&#39;s Boots -->
<g id="node23" class="node">
<title>White&#39;s Boots</title>
<g id="a_node23"><a xlink:href="https://en.wikipedia.org/wiki/White%27s_Boots" xlink:title="White&#39;s Boots">
<ellipse fill="#b0e2ff" stroke="#b0e2ff" cx="615.84" cy="-1196" rx="62.29" ry="18"/>
<text text-anchor="middle" x="615.84" y="-1192.3" font-family="Times New Roman,serif" font-size="14.00">White&#39;s Boots</text>
</a>
</g>
</g>
<!-- Spokane, Washington -->
<g id="node24" class="node">
<title>Spokane, Washington</title>
<g id="a_node24"><a xlink:href="https://en.wikipedia.org/wiki/Spokane,_Washington" xlink:title="Spokane, Washington">
<ellipse fill="lightskyblue" stroke="lightskyblue" cx="615.84" cy="-1124" rx="90.98" ry="18"/>
<text text-anchor="middle" x="615.84" y="-1120.3" font-family="Times New Roman,serif" font-size="14.00">Spokane, Washington</text>
</a>
</g>
</g>
<!-- White&#39;s Boots&#45;&gt;Spokane, Washington -->
<g id="edge22" class="edge">
<title>White&#39;s Boots&#45;&gt;Spokane, Washington</title>
<path fill="none" stroke="black" d="M615.84,-1177.7C615.84,-1169.98 615.84,-1160.71 615.84,-1152.11"/>
<polygon fill="black" stroke="black" points="619.34,-1152.1 615.84,-1142.1 612.34,-1152.1 619.34,-1152.1"/>
</g>
<!-- Spokane County, Washington -->
<g id="node25" class="node">
<title>Spokane County, Washington</title>
<g id="a_node25"><a xlink:href="https://en.wikipedia.org/wiki/Spokane_County,_Washington" xlink:title="Spokane County, Washington">
<ellipse fill="lightskyblue" stroke="lightskyblue" cx="615.84" cy="-1052" rx="120.48" ry="18"/>
<text text-anchor="middle" x="615.84" y="-1048.3" font-family="Times New Roman,serif" font-size="14.00">Spokane County, Washington</text>
</a>
</g>
</g>
<!-- Spokane, Washington&#45;&gt;Spokane County, Washington -->
<g id="edge23" class="edge">
<title>Spokane, Washington&#45;&gt;Spokane County, Washington</title>
<path fill="none" stroke="black" d="M615.84,-1105.7C615.84,-1097.98 615.84,-1088.71 615.84,-1080.11"/>
<polygon fill="black" stroke="black" points="619.34,-1080.1 615.84,-1070.1 612.34,-1080.1 619.34,-1080.1"/>
</g>
<!-- County (United States) -->
<g id="node26" class="node">
<title>County (United States)</title>
<g id="a_node26"><a xlink:href="https://en.wikipedia.org/wiki/County_(United_States)" xlink:title="County (United States)">
<ellipse fill="lightskyblue" stroke="lightskyblue" cx="615.84" cy="-980" rx="94.48" ry="18"/>
<text text-anchor="middle" x="615.84" y="-976.3" font-family="Times New Roman,serif" font-size="14.00">County (United States)</text>
</a>
</g>
</g>
<!-- Spokane County, Washington&#45;&gt;County (United States) -->
<g id="edge24" class="edge">
<title>Spokane County, Washington&#45;&gt;County (United States)</title>
<path fill="none" stroke="black" d="M615.84,-1033.7C615.84,-1025.98 615.84,-1016.71 615.84,-1008.11"/>
<polygon fill="black" stroke="black" points="619.34,-1008.1 615.84,-998.1 612.34,-1008.1 619.34,-1008.1"/>
</g>
<!-- United States -->
<g id="node27" class="node">
<title>United States</title>
<g id="a_node27"><a xlink:href="https://en.wikipedia.org/wiki/United_States" xlink:title="United States">
<ellipse fill="lightskyblue" stroke="lightskyblue" cx="615.84" cy="-908" rx="59.29" ry="18"/>
<text text-anchor="middle" x="615.84" y="-904.3" font-family="Times New Roman,serif" font-size="14.00">United States</text>
</a>
</g>
</g>
<!-- County (United States)&#45;&gt;United States -->
<g id="edge25" class="edge">
<title>County (United States)&#45;&gt;United States</title>
<path fill="none" stroke="black" d="M615.84,-961.7C615.84,-953.98 615.84,-944.71 615.84,-936.11"/>
<polygon fill="black" stroke="black" points="619.34,-936.1 615.84,-926.1 612.34,-936.1 619.34,-936.1"/>
</g>
<!-- Continental United States -->
<g id="node28" class="node">
<title>Continental United States</title>
<g id="a_node28"><a xlink:href="https://en.wikipedia.org/wiki/Continental_United_States" xlink:title="Continental United States">
<ellipse fill="lightskyblue" stroke="lightskyblue" cx="589.84" cy="-836" rx="102.88" ry="18"/>
<text text-anchor="middle" x="589.84" y="-832.3" font-family="Times New Roman,serif" font-size="14.00">Continental United States</text>
</a>
</g>
</g>
<!-- United States&#45;&gt;Continental United States -->
<g id="edge26" class="edge">
<title>United States&#45;&gt;Continental United States</title>
<path fill="none" stroke="black" d="M609.55,-890.05C606.62,-882.18 603.07,-872.62 599.79,-863.79"/>
<polygon fill="black" stroke="black" points="603.02,-862.43 596.26,-854.28 596.46,-864.87 603.02,-862.43"/>
</g>
<!-- U.S. state -->
<g id="node29" class="node">
<title>U.S. state</title>
<g id="a_node29"><a xlink:href="https://en.wikipedia.org/wiki/U.S._state" xlink:title="U.S. state">
<ellipse fill="lightskyblue" stroke="lightskyblue" cx="654.84" cy="-764" rx="46.29" ry="18"/>
<text text-anchor="middle" x="654.84" y="-760.3" font-family="Times New Roman,serif" font-size="14.00">U.S. state</text>
</a>
</g>
</g>
<!-- Continental United States&#45;&gt;U.S. state -->
<g id="edge27" class="edge">
<title>Continental United States&#45;&gt;U.S. state</title>
<path fill="none" stroke="black" d="M605.58,-818.05C613.76,-809.24 623.89,-798.33 632.84,-788.69"/>
<polygon fill="black" stroke="black" points="635.46,-791.02 639.7,-781.31 630.33,-786.25 635.46,-791.02"/>
</g>
<!-- U.S. state&#45;&gt;United States -->
<g id="edge28" class="edge">
<title>U.S. state&#45;&gt;United States</title>
<path fill="none" stroke="black" d="M674.15,-780.46C684.51,-790.03 696.26,-803.28 701.84,-818 707.52,-832.96 709.64,-840.03 701.84,-854 693.12,-869.62 677.7,-881.2 662.3,-889.49"/>
<polygon fill="black" stroke="black" points="660.67,-886.39 653.29,-893.99 663.8,-892.65 660.67,-886.39"/>
</g>
<!-- Patrik Sjöberg -->
<g id="node30" class="node">
<title>Patrik Sjöberg</title>
<g id="a_node30"><a xlink:href="https://en.wikipedia.org/wiki/Patrik_Sj%C3%B6berg" xlink:title="Patrik Sjöberg">
<ellipse fill="#b0e2ff" stroke="#b0e2ff" cx="405.84" cy="-980" rx="62.29" ry="18"/>
<text text-anchor="middle" x="405.84" y="-976.3" font-family="Times New Roman,serif" font-size="14.00">Patrik Sjöberg</text>
</a>
</g>
</g>
<!-- Sweden -->
<g id="node31" class="node">
<title>Sweden</title>
<g id="a_node31"><a xlink:href="https://en.wikipedia.org/wiki/Sweden" xlink:title="Sweden">
<ellipse fill="lightskyblue" stroke="lightskyblue" cx="400.84" cy="-908" rx="39.79" ry="18"/>
<text text-anchor="middle" x="400.84" y="-904.3" font-family="Times New Roman,serif" font-size="14.00">Sweden</text>
</a>
</g>
</g>
<!-- Patrik Sjöberg&#45;&gt;Sweden -->
<g id="edge29" class="edge">
<title>Patrik Sjöberg&#45;&gt;Sweden</title>
<path fill="none" stroke="black" d="M404.61,-961.7C404.05,-953.98 403.39,-944.71 402.78,-936.11"/>
<polygon fill="black" stroke="black" points="406.27,-935.83 402.06,-926.1 399.28,-936.33 406.27,-935.83"/>
</g>
<!-- Nordic countries -->
<g id="node32" class="node">
<title>Nordic countries</title>
<g id="a_node32"><a xlink:href="https://en.wikipedia.org/wiki/Nordic_countries" xlink:title="Nordic countries">
<ellipse fill="lightskyblue" stroke="lightskyblue" cx="397.84" cy="-836" rx="71.49" ry="18"/>
<text text-anchor="middle" x="397.84" y="-832.3" font-family="Times New Roman,serif" font-size="14.00">Nordic countries</text>
</a>
</g>
</g>
<!-- Sweden&#45;&gt;Nordic countries -->
<g id="edge30" class="edge">
<title>Sweden&#45;&gt;Nordic countries</title>
<path fill="none" stroke="black" d="M400.1,-889.7C399.77,-881.98 399.37,-872.71 399,-864.11"/>
<polygon fill="black" stroke="black" points="402.5,-863.95 398.57,-854.1 395.51,-864.25 402.5,-863.95"/>
</g>
<!-- Region -->
<g id="node33" class="node">
<title>Region</title>
<g id="a_node33"><a xlink:href="https://en.wikipedia.org/wiki/Region" xlink:title="Region">
<ellipse fill="lightskyblue" stroke="lightskyblue" cx="395.84" cy="-764" rx="36.29" ry="18"/>
<text text-anchor="middle" x="395.84" y="-760.3" font-family="Times New Roman,serif" font-size="14.00">Region</text>
</a>
</g>
</g>
<!-- Nordic countries&#45;&gt;Region -->
<g id="edge31" class="edge">
<title>Nordic countries&#45;&gt;Region</title>
<path fill="none" stroke="black" d="M397.35,-817.7C397.13,-809.98 396.86,-800.71 396.62,-792.11"/>
<polygon fill="black" stroke="black" points="400.11,-792 396.33,-782.1 393.12,-792.2 400.11,-792"/>
</g>
<!-- Geography -->
<g id="node34" class="node">
<title>Geography</title>
<g id="a_node34"><a xlink:href="https://en.wikipedia.org/wiki/Geography" xlink:title="Geography">
<ellipse fill="lightskyblue" stroke="lightskyblue" cx="391.84" cy="-692" rx="51.19" ry="18"/>
<text text-anchor="middle" x="391.84" y="-688.3" font-family="Times New Roman,serif" font-size="14.00">Geography</text>
</a>
</g>
</g>
<!-- Region&#45;&gt;Geography -->
<g id="edge32" class="edge">
<title>Region&#45;&gt;Geography</title>
<path fill="none" stroke="black" d="M394.85,-745.7C394.41,-737.98 393.88,-728.71 393.39,-720.11"/>
<polygon fill="black" stroke="black" points="396.88,-719.89 392.82,-710.1 389.9,-720.29 396.88,-719.89"/>
</g>
<!-- Geography&#45;&gt;Science -->
<g id="edge33" class="edge">
<title>Geography&#45;&gt;Science</title>
<path fill="none" stroke="black" d="M365.73,-676.5C346.27,-665.68 319.55,-650.84 298.64,-639.22"/>
<polygon fill="black" stroke="black" points="300.23,-636.1 289.78,-634.3 296.83,-642.22 300.23,-636.1"/>
</g>
<!-- Donnchad mac Gilla Pátraic -->
<g id="node35" class="node">
<title>Donnchad mac Gilla Pátraic</title>
<g id="a_node35"><a xlink:href="https://en.wikipedia.org/wiki/Donnchad_mac_Gilla_P%C3%A1traic" xlink:title="Donnchad mac Gilla Pátraic">
<ellipse fill="#b0e2ff" stroke="#b0e2ff" cx="834.84" cy="-1196" rx="112.38" ry="18"/>
<text text-anchor="middle" x="834.84" y="-1192.3" font-family="Times New Roman,serif" font-size="14.00">Donnchad mac Gilla Pátraic</text>
</a>
</g>
</g>
<!-- King of Osraige -->
<g id="node36" class="node">
<title>King of Osraige</title>
<g id="a_node36"><a xlink:href="https://en.wikipedia.org/wiki/King_of_Osraige" xlink:title="King of Osraige">
<ellipse fill="lightskyblue" stroke="lightskyblue" cx="834.84" cy="-1124" rx="68.49" ry="18"/>
<text text-anchor="middle" x="834.84" y="-1120.3" font-family="Times New Roman,serif" font-size="14.00">King of Osraige</text>
</a>
</g>
</g>
<!-- Donnchad mac Gilla Pátraic&#45;&gt;King of Osraige -->
<g id="edge34" class="edge">
<title>Donnchad mac Gilla Pátraic&#45;&gt;King of Osraige</title>
<path fill="none" stroke="black" d="M834.84,-1177.7C834.84,-1169.98 834.84,-1160.71 834.84,-1152.11"/>
<polygon fill="black" stroke="black" points="838.34,-1152.1 834.84,-1142.1 831.34,-1152.1 838.34,-1152.1"/>
</g>
<!-- Osraige -->
<g id="node37" class="node">
<title>Osraige</title>
<g id="a_node37"><a xlink:href="https://en.wikipedia.org/wiki/Osraige" xlink:title="Osraige">
<ellipse fill="lightskyblue" stroke="lightskyblue" cx="834.84" cy="-1052" rx="38.19" ry="18"/>
<text text-anchor="middle" x="834.84" y="-1048.3" font-family="Times New Roman,serif" font-size="14.00">Osraige</text>
</a>
</g>
</g>
<!-- King of Osraige&#45;&gt;Osraige -->
<g id="edge35" class="edge">
<title>King of Osraige&#45;&gt;Osraige</title>
<path fill="none" stroke="black" d="M834.84,-1105.7C834.84,-1097.98 834.84,-1088.71 834.84,-1080.11"/>
<polygon fill="black" stroke="black" points="838.34,-1080.1 834.84,-1070.1 831.34,-1080.1 838.34,-1080.1"/>
</g>
<!-- County Kilkenny -->
<g id="node38" class="node">
<title>County Kilkenny</title>
<g id="a_node38"><a xlink:href="https://en.wikipedia.org/wiki/County_Kilkenny" xlink:title="County Kilkenny">
<ellipse fill="lightskyblue" stroke="lightskyblue" cx="834.84" cy="-980" rx="71.49" ry="18"/>
<text text-anchor="middle" x="834.84" y="-976.3" font-family="Times New Roman,serif" font-size="14.00">County Kilkenny</text>
</a>
</g>
</g>
<!-- Osraige&#45;&gt;County Kilkenny -->
<g id="edge36" class="edge">
<title>Osraige&#45;&gt;County Kilkenny</title>
<path fill="none" stroke="black" d="M834.84,-1033.7C834.84,-1025.98 834.84,-1016.71 834.84,-1008.11"/>
<polygon fill="black" stroke="black" points="838.34,-1008.1 834.84,-998.1 831.34,-1008.1 838.34,-1008.1"/>
</g>
<!-- Counties of Ireland -->
<g id="node39" class="node">
<title>Counties of Ireland</title>
<g id="a_node39"><a xlink:href="https://en.wikipedia.org/wiki/Counties_of_Ireland" xlink:title="Counties of Ireland">
<ellipse fill="lightskyblue" stroke="lightskyblue" cx="834.84" cy="-908" rx="80.69" ry="18"/>
<text text-anchor="middle" x="834.84" y="-904.3" font-family="Times New Roman,serif" font-size="14.00">Counties of Ireland</text>
</a>
</g>
</g>
<!-- County Kilkenny&#45;&gt;Counties of Ireland -->
<g id="edge37" class="edge">
<title>County Kilkenny&#45;&gt;Counties of Ireland</title>
<path fill="none" stroke="black" d="M834.84,-961.7C834.84,-953.98 834.84,-944.71 834.84,-936.11"/>
<polygon fill="black" stroke="black" points="838.34,-936.1 834.84,-926.1 831.34,-936.1 838.34,-936.1"/>
</g>
<!-- Old English (Ireland) -->
<g id="node40" class="node">
<title>Old English (Ireland)</title>
<g id="a_node40"><a xlink:href="https://en.wikipedia.org/wiki/Old_English_(Ireland)" xlink:title="Old English (Ireland)">
<ellipse fill="lightskyblue" stroke="lightskyblue" cx="834.84" cy="-836" rx="86.38" ry="18"/>
<text text-anchor="middle" x="834.84" y="-832.3" font-family="Times New Roman,serif" font-size="14.00">Old English (Ireland)</text>
</a>
</g>
</g>
<!-- Counties of Ireland&#45;&gt;Old English (Ireland) -->
<g id="edge38" class="edge">
<title>Counties of Ireland&#45;&gt;Old English (Ireland)</title>
<path fill="none" stroke="black" d="M834.84,-889.7C834.84,-881.98 834.84,-872.71 834.84,-864.11"/>
<polygon fill="black" stroke="black" points="838.34,-864.1 834.84,-854.1 831.34,-864.1 838.34,-864.1"/>
</g>
<!-- Normans -->
<g id="node41" class="node">
<title>Normans</title>
<g id="a_node41"><a xlink:href="https://en.wikipedia.org/wiki/Normans" xlink:title="Normans">
<ellipse fill="lightskyblue" stroke="lightskyblue" cx="834.84" cy="-764" rx="44.39" ry="18"/>
<text text-anchor="middle" x="834.84" y="-760.3" font-family="Times New Roman,serif" font-size="14.00">Normans</text>
</a>
</g>
</g>
<!-- Old English (Ireland)&#45;&gt;Normans -->
<g id="edge39" class="edge">
<title>Old English (Ireland)&#45;&gt;Normans</title>
<path fill="none" stroke="black" d="M834.84,-817.7C834.84,-809.98 834.84,-800.71 834.84,-792.11"/>
<polygon fill="black" stroke="black" points="838.34,-792.1 834.84,-782.1 831.34,-792.1 838.34,-792.1"/>
</g>
<!-- Duchy of Normandy -->
<g id="node42" class="node">
<title>Duchy of Normandy</title>
<g id="a_node42"><a xlink:href="https://en.wikipedia.org/wiki/Duchy_of_Normandy" xlink:title="Duchy of Normandy">
<ellipse fill="lightskyblue" stroke="lightskyblue" cx="834.84" cy="-692" rx="85.59" ry="18"/>
<text text-anchor="middle" x="834.84" y="-688.3" font-family="Times New Roman,serif" font-size="14.00">Duchy of Normandy</text>
</a>
</g>
</g>
<!-- Normans&#45;&gt;Duchy of Normandy -->
<g id="edge40" class="edge">
<title>Normans&#45;&gt;Duchy of Normandy</title>
<path fill="none" stroke="black" d="M834.84,-745.7C834.84,-737.98 834.84,-728.71 834.84,-720.11"/>
<polygon fill="black" stroke="black" points="838.34,-720.1 834.84,-710.1 831.34,-720.1 838.34,-720.1"/>
</g>
<!-- Treaty of Saint&#45;Clair&#45;sur&#45;Epte -->
<g id="node43" class="node">
<title>Treaty of Saint&#45;Clair&#45;sur&#45;Epte</title>
<g id="a_node43"><a xlink:href="https://en.wikipedia.org/wiki/Treaty_of_Saint-Clair-sur-Epte" xlink:title="Treaty of Saint&#45;Clair&#45;sur&#45;Epte">
<ellipse fill="lightskyblue" stroke="lightskyblue" cx="834.84" cy="-620" rx="118.08" ry="18"/>
<text text-anchor="middle" x="834.84" y="-616.3" font-family="Times New Roman,serif" font-size="14.00">Treaty of Saint&#45;Clair&#45;sur&#45;Epte</text>
</a>
</g>
</g>
<!-- Duchy of Normandy&#45;&gt;Treaty of Saint&#45;Clair&#45;sur&#45;Epte -->
<g id="edge41" class="edge">
<title>Duchy of Normandy&#45;&gt;Treaty of Saint&#45;Clair&#45;sur&#45;Epte</title>
<path fill="none" stroke="black" d="M828.93,-673.7C828.13,-665.98 827.9,-656.71 828.25,-648.11"/>
<polygon fill="black" stroke="black" points="831.74,-648.32 828.95,-638.1 824.76,-647.84 831.74,-648.32"/>
</g>
<!-- Treaty of Saint&#45;Clair&#45;sur&#45;Epte&#45;&gt;Duchy of Normandy -->
<g id="edge42" class="edge">
<title>Treaty of Saint&#45;Clair&#45;sur&#45;Epte&#45;&gt;Duchy of Normandy</title>
<path fill="none" stroke="black" d="M840.74,-638.1C841.54,-645.79 841.78,-655.05 841.45,-663.67"/>
<polygon fill="black" stroke="black" points="837.95,-663.48 840.76,-673.7 844.93,-663.96 837.95,-663.48"/>
</g>
</g>
</svg>
