<?xml version="1.0" encoding="UTF-8" standalone="no"?>
<!DOCTYPE svg PUBLIC "-//W3C//DTD SVG 1.1//EN"
 "http://www.w3.org/Graphics/SVG/1.1/DTD/svg11.dtd">
<!-- Generated by graphviz version 2.46.0 (20210118.1747)
 -->
<!-- Title: unix Pages: 1 -->
<svg width="736pt" height="2590pt"
 viewBox="0.00 0.00 735.83 2590.00" xmlns="http://www.w3.org/2000/svg" xmlns:xlink="http://www.w3.org/1999/xlink">
<g id="graph0" class="graph" transform="scale(1 1) rotate(0) translate(4 2586)">
<title>unix</title>
<polygon fill="white" stroke="transparent" points="-4,4 -4,-2586 731.83,-2586 731.83,4 -4,4"/>
<text text-anchor="start" x="187.92" y="-54" font-family="Times New Roman,serif" font-size="20.00">Graph generated on 09/05/2021 14:02:57.</text>
<text text-anchor="start" x="187.92" y="-32" font-family="Times New Roman,serif" font-size="20.00">Checked 5 pages. Time took: 1.12 minutes.</text>
<text text-anchor="middle" x="363.92" y="-10" font-family="Times New Roman,serif" font-size="20.00">Number of pages drawn: 68</text>
<!-- Geneva International Discussions -->
<g id="node1" class="node">
<title>Geneva International Discussions</title>
<g id="a_node1"><a xlink:href="https://en.wikipedia.org/wiki/Geneva_International_Discussions" xlink:title="Geneva International Discussions">
<ellipse fill="#b0e2ff" stroke="#b0e2ff" cx="366.69" cy="-2420" rx="131.08" ry="18"/>
<text text-anchor="middle" x="366.69" y="-2416.3" font-family="Times New Roman,serif" font-size="14.00">Geneva International Discussions</text>
</a>
</g>
</g>
<!-- Russo–Georgian War -->
<g id="node2" class="node">
<title>Russo–Georgian War</title>
<g id="a_node2"><a xlink:href="https://en.wikipedia.org/wiki/Russo%E2%80%93Georgian_War" xlink:title="Russo–Georgian War">
<ellipse fill="lightskyblue" stroke="lightskyblue" cx="369.69" cy="-2348" rx="90.18" ry="18"/>
<text text-anchor="middle" x="369.69" y="-2344.3" font-family="Times New Roman,serif" font-size="14.00">Russo–Georgian War</text>
</a>
</g>
</g>
<!-- Geneva International Discussions&#45;&gt;Russo–Georgian War -->
<g id="edge1" class="edge">
<title>Geneva International Discussions&#45;&gt;Russo–Georgian War</title>
<path fill="none" stroke="black" d="M367.43,-2401.7C367.77,-2393.98 368.16,-2384.71 368.53,-2376.11"/>
<polygon fill="black" stroke="black" points="372.03,-2376.25 368.96,-2366.1 365.04,-2375.95 372.03,-2376.25"/>
</g>
<!-- War -->
<g id="node3" class="node">
<title>War</title>
<g id="a_node3"><a xlink:href="https://en.wikipedia.org/wiki/War" xlink:title="War">
<ellipse fill="lightskyblue" stroke="lightskyblue" cx="392.69" cy="-2276" rx="27" ry="18"/>
<text text-anchor="middle" x="392.69" y="-2272.3" font-family="Times New Roman,serif" font-size="14.00">War</text>
</a>
</g>
</g>
<!-- Russo–Georgian War&#45;&gt;War -->
<g id="edge2" class="edge">
<title>Russo–Georgian War&#45;&gt;War</title>
<path fill="none" stroke="black" d="M375.38,-2329.7C377.94,-2321.9 381.03,-2312.51 383.88,-2303.83"/>
<polygon fill="black" stroke="black" points="387.28,-2304.7 387.07,-2294.1 380.63,-2302.51 387.28,-2304.7"/>
</g>
<!-- State (polity) -->
<g id="node4" class="node">
<title>State (polity)</title>
<g id="a_node4"><a xlink:href="https://en.wikipedia.org/wiki/State_(polity)" xlink:title="State (polity)">
<ellipse fill="lightskyblue" stroke="lightskyblue" cx="437.69" cy="-2204" rx="57.69" ry="18"/>
<text text-anchor="middle" x="437.69" y="-2200.3" font-family="Times New Roman,serif" font-size="14.00">State (polity)</text>
</a>
</g>
</g>
<!-- War&#45;&gt;State (polity) -->
<g id="edge3" class="edge">
<title>War&#45;&gt;State (polity)</title>
<path fill="none" stroke="black" d="M402.9,-2259.12C408.38,-2250.59 415.27,-2239.89 421.46,-2230.25"/>
<polygon fill="black" stroke="black" points="424.43,-2232.1 426.89,-2221.8 418.54,-2228.32 424.43,-2232.1"/>
</g>
<!-- Polity -->
<g id="node5" class="node">
<title>Polity</title>
<g id="a_node5"><a xlink:href="https://en.wikipedia.org/wiki/Polity" xlink:title="Polity">
<ellipse fill="lightskyblue" stroke="lightskyblue" cx="451.69" cy="-2132" rx="31.7" ry="18"/>
<text text-anchor="middle" x="451.69" y="-2128.3" font-family="Times New Roman,serif" font-size="14.00">Polity</text>
</a>
</g>
</g>
<!-- State (polity)&#45;&gt;Polity -->
<g id="edge4" class="edge">
<title>State (polity)&#45;&gt;Polity</title>
<path fill="none" stroke="black" d="M441.15,-2185.7C442.7,-2177.98 444.55,-2168.71 446.27,-2160.11"/>
<polygon fill="black" stroke="black" points="449.74,-2160.6 448.27,-2150.1 442.88,-2159.22 449.74,-2160.6"/>
</g>
<!-- Collective identity -->
<g id="node6" class="node">
<title>Collective identity</title>
<g id="a_node6"><a xlink:href="https://en.wikipedia.org/wiki/Collective_identity" xlink:title="Collective identity">
<ellipse fill="lightskyblue" stroke="lightskyblue" cx="507.69" cy="-2060" rx="75.29" ry="18"/>
<text text-anchor="middle" x="507.69" y="-2056.3" font-family="Times New Roman,serif" font-size="14.00">Collective identity</text>
</a>
</g>
</g>
<!-- Polity&#45;&gt;Collective identity -->
<g id="edge5" class="edge">
<title>Polity&#45;&gt;Collective identity</title>
<path fill="none" stroke="black" d="M464.4,-2115.12C471.36,-2106.42 480.13,-2095.45 487.96,-2085.66"/>
<polygon fill="black" stroke="black" points="490.74,-2087.79 494.26,-2077.8 485.28,-2083.42 490.74,-2087.79"/>
</g>
<!-- Belongingness -->
<g id="node7" class="node">
<title>Belongingness</title>
<g id="a_node7"><a xlink:href="https://en.wikipedia.org/wiki/Belongingness" xlink:title="Belongingness">
<ellipse fill="lightskyblue" stroke="lightskyblue" cx="507.69" cy="-1988" rx="63.09" ry="18"/>
<text text-anchor="middle" x="507.69" y="-1984.3" font-family="Times New Roman,serif" font-size="14.00">Belongingness</text>
</a>
</g>
</g>
<!-- Collective identity&#45;&gt;Belongingness -->
<g id="edge6" class="edge">
<title>Collective identity&#45;&gt;Belongingness</title>
<path fill="none" stroke="black" d="M507.69,-2041.7C507.69,-2033.98 507.69,-2024.71 507.69,-2016.11"/>
<polygon fill="black" stroke="black" points="511.19,-2016.1 507.69,-2006.1 504.19,-2016.1 511.19,-2016.1"/>
</g>
<!-- Emotional -->
<g id="node8" class="node">
<title>Emotional</title>
<g id="a_node8"><a xlink:href="https://en.wikipedia.org/wiki/Emotional" xlink:title="Emotional">
<ellipse fill="lightskyblue" stroke="lightskyblue" cx="507.69" cy="-1916" rx="47.39" ry="18"/>
<text text-anchor="middle" x="507.69" y="-1912.3" font-family="Times New Roman,serif" font-size="14.00">Emotional</text>
</a>
</g>
</g>
<!-- Belongingness&#45;&gt;Emotional -->
<g id="edge7" class="edge">
<title>Belongingness&#45;&gt;Emotional</title>
<path fill="none" stroke="black" d="M507.69,-1969.7C507.69,-1961.98 507.69,-1952.71 507.69,-1944.11"/>
<polygon fill="black" stroke="black" points="511.19,-1944.1 507.69,-1934.1 504.19,-1944.1 511.19,-1944.1"/>
</g>
<!-- Pleasure -->
<g id="node9" class="node">
<title>Pleasure</title>
<g id="a_node9"><a xlink:href="https://en.wikipedia.org/wiki/Pleasure" xlink:title="Pleasure">
<ellipse fill="lightskyblue" stroke="lightskyblue" cx="507.69" cy="-1844" rx="40.89" ry="18"/>
<text text-anchor="middle" x="507.69" y="-1840.3" font-family="Times New Roman,serif" font-size="14.00">Pleasure</text>
</a>
</g>
</g>
<!-- Emotional&#45;&gt;Pleasure -->
<g id="edge8" class="edge">
<title>Emotional&#45;&gt;Pleasure</title>
<path fill="none" stroke="black" d="M507.69,-1897.7C507.69,-1889.98 507.69,-1880.71 507.69,-1872.11"/>
<polygon fill="black" stroke="black" points="511.19,-1872.1 507.69,-1862.1 504.19,-1872.1 511.19,-1872.1"/>
</g>
<!-- Ecstasy (emotion) -->
<g id="node10" class="node">
<title>Ecstasy (emotion)</title>
<g id="a_node10"><a xlink:href="https://en.wikipedia.org/wiki/Ecstasy_(emotion)" xlink:title="Ecstasy (emotion)">
<ellipse fill="lightskyblue" stroke="lightskyblue" cx="507.69" cy="-1772" rx="76.89" ry="18"/>
<text text-anchor="middle" x="507.69" y="-1768.3" font-family="Times New Roman,serif" font-size="14.00">Ecstasy (emotion)</text>
</a>
</g>
</g>
<!-- Pleasure&#45;&gt;Ecstasy (emotion) -->
<g id="edge9" class="edge">
<title>Pleasure&#45;&gt;Ecstasy (emotion)</title>
<path fill="none" stroke="black" d="M507.69,-1825.7C507.69,-1817.98 507.69,-1808.71 507.69,-1800.11"/>
<polygon fill="black" stroke="black" points="511.19,-1800.1 507.69,-1790.1 504.19,-1800.1 511.19,-1800.1"/>
</g>
<!-- Altered state of consciousness -->
<g id="node11" class="node">
<title>Altered state of consciousness</title>
<g id="a_node11"><a xlink:href="https://en.wikipedia.org/wiki/Altered_state_of_consciousness" xlink:title="Altered state of consciousness">
<ellipse fill="lightskyblue" stroke="lightskyblue" cx="507.69" cy="-1700" rx="122.38" ry="18"/>
<text text-anchor="middle" x="507.69" y="-1696.3" font-family="Times New Roman,serif" font-size="14.00">Altered state of consciousness</text>
</a>
</g>
</g>
<!-- Ecstasy (emotion)&#45;&gt;Altered state of consciousness -->
<g id="edge10" class="edge">
<title>Ecstasy (emotion)&#45;&gt;Altered state of consciousness</title>
<path fill="none" stroke="black" d="M507.69,-1753.7C507.69,-1745.98 507.69,-1736.71 507.69,-1728.11"/>
<polygon fill="black" stroke="black" points="511.19,-1728.1 507.69,-1718.1 504.19,-1728.1 511.19,-1728.1"/>
</g>
<!-- Hypnosis -->
<g id="node12" class="node">
<title>Hypnosis</title>
<g id="a_node12"><a xlink:href="https://en.wikipedia.org/wiki/Hypnosis" xlink:title="Hypnosis">
<ellipse fill="lightskyblue" stroke="lightskyblue" cx="507.69" cy="-1628" rx="45.49" ry="18"/>
<text text-anchor="middle" x="507.69" y="-1624.3" font-family="Times New Roman,serif" font-size="14.00">Hypnosis</text>
</a>
</g>
</g>
<!-- Altered state of consciousness&#45;&gt;Hypnosis -->
<g id="edge11" class="edge">
<title>Altered state of consciousness&#45;&gt;Hypnosis</title>
<path fill="none" stroke="black" d="M507.69,-1681.7C507.69,-1673.98 507.69,-1664.71 507.69,-1656.11"/>
<polygon fill="black" stroke="black" points="511.19,-1656.1 507.69,-1646.1 504.19,-1656.1 511.19,-1656.1"/>
</g>
<!-- Attention -->
<g id="node13" class="node">
<title>Attention</title>
<g id="a_node13"><a xlink:href="https://en.wikipedia.org/wiki/Attention" xlink:title="Attention">
<ellipse fill="lightskyblue" stroke="lightskyblue" cx="507.69" cy="-1556" rx="44.39" ry="18"/>
<text text-anchor="middle" x="507.69" y="-1552.3" font-family="Times New Roman,serif" font-size="14.00">Attention</text>
</a>
</g>
</g>
<!-- Hypnosis&#45;&gt;Attention -->
<g id="edge12" class="edge">
<title>Hypnosis&#45;&gt;Attention</title>
<path fill="none" stroke="black" d="M507.69,-1609.7C507.69,-1601.98 507.69,-1592.71 507.69,-1584.11"/>
<polygon fill="black" stroke="black" points="511.19,-1584.1 507.69,-1574.1 504.19,-1584.1 511.19,-1584.1"/>
</g>
<!-- Cognition -->
<g id="node14" class="node">
<title>Cognition</title>
<g id="a_node14"><a xlink:href="https://en.wikipedia.org/wiki/Cognition" xlink:title="Cognition">
<ellipse fill="lightskyblue" stroke="lightskyblue" cx="507.69" cy="-1484" rx="46.29" ry="18"/>
<text text-anchor="middle" x="507.69" y="-1480.3" font-family="Times New Roman,serif" font-size="14.00">Cognition</text>
</a>
</g>
</g>
<!-- Attention&#45;&gt;Cognition -->
<g id="edge13" class="edge">
<title>Attention&#45;&gt;Cognition</title>
<path fill="none" stroke="black" d="M507.69,-1537.7C507.69,-1529.98 507.69,-1520.71 507.69,-1512.11"/>
<polygon fill="black" stroke="black" points="511.19,-1512.1 507.69,-1502.1 504.19,-1512.1 511.19,-1512.1"/>
</g>
<!-- Intellectual function -->
<g id="node15" class="node">
<title>Intellectual function</title>
<g id="a_node15"><a xlink:href="https://en.wikipedia.org/wiki/Intellectual_function" xlink:title="Intellectual function">
<ellipse fill="lightskyblue" stroke="lightskyblue" cx="507.69" cy="-1412" rx="81.49" ry="18"/>
<text text-anchor="middle" x="507.69" y="-1408.3" font-family="Times New Roman,serif" font-size="14.00">Intellectual function</text>
</a>
</g>
</g>
<!-- Cognition&#45;&gt;Intellectual function -->
<g id="edge14" class="edge">
<title>Cognition&#45;&gt;Intellectual function</title>
<path fill="none" stroke="black" d="M507.69,-1465.7C507.69,-1457.98 507.69,-1448.71 507.69,-1440.11"/>
<polygon fill="black" stroke="black" points="511.19,-1440.1 507.69,-1430.1 504.19,-1440.1 511.19,-1440.1"/>
</g>
<!-- Reason -->
<g id="node16" class="node">
<title>Reason</title>
<g id="a_node16"><a xlink:href="https://en.wikipedia.org/wiki/Reason" xlink:title="Reason">
<ellipse fill="lightskyblue" stroke="lightskyblue" cx="507.69" cy="-1340" rx="38.19" ry="18"/>
<text text-anchor="middle" x="507.69" y="-1336.3" font-family="Times New Roman,serif" font-size="14.00">Reason</text>
</a>
</g>
</g>
<!-- Intellectual function&#45;&gt;Reason -->
<g id="edge15" class="edge">
<title>Intellectual function&#45;&gt;Reason</title>
<path fill="none" stroke="black" d="M507.69,-1393.7C507.69,-1385.98 507.69,-1376.71 507.69,-1368.11"/>
<polygon fill="black" stroke="black" points="511.19,-1368.1 507.69,-1358.1 504.19,-1368.1 511.19,-1368.1"/>
</g>
<!-- Consciousness -->
<g id="node17" class="node">
<title>Consciousness</title>
<g id="a_node17"><a xlink:href="https://en.wikipedia.org/wiki/Consciousness" xlink:title="Consciousness">
<ellipse fill="lightskyblue" stroke="lightskyblue" cx="507.69" cy="-1268" rx="65.79" ry="18"/>
<text text-anchor="middle" x="507.69" y="-1264.3" font-family="Times New Roman,serif" font-size="14.00">Consciousness</text>
</a>
</g>
</g>
<!-- Reason&#45;&gt;Consciousness -->
<g id="edge16" class="edge">
<title>Reason&#45;&gt;Consciousness</title>
<path fill="none" stroke="black" d="M507.69,-1321.7C507.69,-1313.98 507.69,-1304.71 507.69,-1296.11"/>
<polygon fill="black" stroke="black" points="511.19,-1296.1 507.69,-1286.1 504.19,-1296.1 511.19,-1296.1"/>
</g>
<!-- Sentience -->
<g id="node18" class="node">
<title>Sentience</title>
<g id="a_node18"><a xlink:href="https://en.wikipedia.org/wiki/Sentience" xlink:title="Sentience">
<ellipse fill="lightskyblue" stroke="lightskyblue" cx="507.69" cy="-1196" rx="45.49" ry="18"/>
<text text-anchor="middle" x="507.69" y="-1192.3" font-family="Times New Roman,serif" font-size="14.00">Sentience</text>
</a>
</g>
</g>
<!-- Consciousness&#45;&gt;Sentience -->
<g id="edge17" class="edge">
<title>Consciousness&#45;&gt;Sentience</title>
<path fill="none" stroke="black" d="M507.69,-1249.7C507.69,-1241.98 507.69,-1232.71 507.69,-1224.11"/>
<polygon fill="black" stroke="black" points="511.19,-1224.1 507.69,-1214.1 504.19,-1224.1 511.19,-1224.1"/>
</g>
<!-- Feeling -->
<g id="node19" class="node">
<title>Feeling</title>
<g id="a_node19"><a xlink:href="https://en.wikipedia.org/wiki/Feeling" xlink:title="Feeling">
<ellipse fill="lightskyblue" stroke="lightskyblue" cx="507.69" cy="-1124" rx="36.29" ry="18"/>
<text text-anchor="middle" x="507.69" y="-1120.3" font-family="Times New Roman,serif" font-size="14.00">Feeling</text>
</a>
</g>
</g>
<!-- Sentience&#45;&gt;Feeling -->
<g id="edge18" class="edge">
<title>Sentience&#45;&gt;Feeling</title>
<path fill="none" stroke="black" d="M507.69,-1177.7C507.69,-1169.98 507.69,-1160.71 507.69,-1152.11"/>
<polygon fill="black" stroke="black" points="511.19,-1152.1 507.69,-1142.1 504.19,-1152.1 511.19,-1152.1"/>
</g>
<!-- Touch -->
<g id="node20" class="node">
<title>Touch</title>
<g id="a_node20"><a xlink:href="https://en.wikipedia.org/wiki/Touch" xlink:title="Touch">
<ellipse fill="lightskyblue" stroke="lightskyblue" cx="507.69" cy="-1052" rx="34.39" ry="18"/>
<text text-anchor="middle" x="507.69" y="-1048.3" font-family="Times New Roman,serif" font-size="14.00">Touch</text>
</a>
</g>
</g>
<!-- Feeling&#45;&gt;Touch -->
<g id="edge19" class="edge">
<title>Feeling&#45;&gt;Touch</title>
<path fill="none" stroke="black" d="M507.69,-1105.7C507.69,-1097.98 507.69,-1088.71 507.69,-1080.11"/>
<polygon fill="black" stroke="black" points="511.19,-1080.1 507.69,-1070.1 504.19,-1080.1 511.19,-1080.1"/>
</g>
<!-- Sensory nervous system -->
<g id="node21" class="node">
<title>Sensory nervous system</title>
<g id="a_node21"><a xlink:href="https://en.wikipedia.org/wiki/Sensory_nervous_system" xlink:title="Sensory nervous system">
<ellipse fill="lightskyblue" stroke="lightskyblue" cx="507.69" cy="-980" rx="99.38" ry="18"/>
<text text-anchor="middle" x="507.69" y="-976.3" font-family="Times New Roman,serif" font-size="14.00">Sensory nervous system</text>
</a>
</g>
</g>
<!-- Touch&#45;&gt;Sensory nervous system -->
<g id="edge20" class="edge">
<title>Touch&#45;&gt;Sensory nervous system</title>
<path fill="none" stroke="black" d="M507.69,-1033.7C507.69,-1025.98 507.69,-1016.71 507.69,-1008.11"/>
<polygon fill="black" stroke="black" points="511.19,-1008.1 507.69,-998.1 504.19,-1008.1 511.19,-1008.1"/>
</g>
<!-- Nervous system -->
<g id="node22" class="node">
<title>Nervous system</title>
<g id="a_node22"><a xlink:href="https://en.wikipedia.org/wiki/Nervous_system" xlink:title="Nervous system">
<ellipse fill="lightskyblue" stroke="lightskyblue" cx="506.69" cy="-908" rx="69.59" ry="18"/>
<text text-anchor="middle" x="506.69" y="-904.3" font-family="Times New Roman,serif" font-size="14.00">Nervous system</text>
</a>
</g>
</g>
<!-- Sensory nervous system&#45;&gt;Nervous system -->
<g id="edge21" class="edge">
<title>Sensory nervous system&#45;&gt;Nervous system</title>
<path fill="none" stroke="black" d="M507.45,-961.7C507.34,-953.98 507.2,-944.71 507.08,-936.11"/>
<polygon fill="black" stroke="black" points="510.58,-936.05 506.94,-926.1 503.58,-936.15 510.58,-936.05"/>
</g>
<!-- Biology -->
<g id="node23" class="node">
<title>Biology</title>
<g id="a_node23"><a xlink:href="https://en.wikipedia.org/wiki/Biology" xlink:title="Biology">
<ellipse fill="lightskyblue" stroke="lightskyblue" cx="501.69" cy="-836" rx="38.99" ry="18"/>
<text text-anchor="middle" x="501.69" y="-832.3" font-family="Times New Roman,serif" font-size="14.00">Biology</text>
</a>
</g>
</g>
<!-- Nervous system&#45;&gt;Biology -->
<g id="edge22" class="edge">
<title>Nervous system&#45;&gt;Biology</title>
<path fill="none" stroke="black" d="M505.46,-889.7C504.91,-881.98 504.24,-872.71 503.63,-864.11"/>
<polygon fill="black" stroke="black" points="507.12,-863.83 502.91,-854.1 500.14,-864.33 507.12,-863.83"/>
</g>
<!-- Natural science -->
<g id="node24" class="node">
<title>Natural science</title>
<g id="a_node24"><a xlink:href="https://en.wikipedia.org/wiki/Natural_science" xlink:title="Natural science">
<ellipse fill="lightskyblue" stroke="lightskyblue" cx="500.69" cy="-764" rx="65.79" ry="18"/>
<text text-anchor="middle" x="500.69" y="-760.3" font-family="Times New Roman,serif" font-size="14.00">Natural science</text>
</a>
</g>
</g>
<!-- Biology&#45;&gt;Natural science -->
<g id="edge23" class="edge">
<title>Biology&#45;&gt;Natural science</title>
<path fill="none" stroke="black" d="M501.45,-817.7C501.34,-809.98 501.2,-800.71 501.08,-792.11"/>
<polygon fill="black" stroke="black" points="504.58,-792.05 500.94,-782.1 497.58,-792.15 504.58,-792.05"/>
</g>
<!-- Branches of science -->
<g id="node25" class="node">
<title>Branches of science</title>
<g id="a_node25"><a xlink:href="https://en.wikipedia.org/wiki/Branches_of_science" xlink:title="Branches of science">
<ellipse fill="lightskyblue" stroke="lightskyblue" cx="500.69" cy="-692" rx="83.69" ry="18"/>
<text text-anchor="middle" x="500.69" y="-688.3" font-family="Times New Roman,serif" font-size="14.00">Branches of science</text>
</a>
</g>
</g>
<!-- Natural science&#45;&gt;Branches of science -->
<g id="edge24" class="edge">
<title>Natural science&#45;&gt;Branches of science</title>
<path fill="none" stroke="black" d="M500.69,-745.7C500.69,-737.98 500.69,-728.71 500.69,-720.11"/>
<polygon fill="black" stroke="black" points="504.19,-720.1 500.69,-710.1 497.19,-720.1 504.19,-720.1"/>
</g>
<!-- Science -->
<g id="node26" class="node">
<title>Science</title>
<g id="a_node26"><a xlink:href="https://en.wikipedia.org/wiki/Science" xlink:title="Science">
<ellipse fill="lightskyblue" stroke="lightskyblue" cx="418.69" cy="-620" rx="38.99" ry="18"/>
<text text-anchor="middle" x="418.69" y="-616.3" font-family="Times New Roman,serif" font-size="14.00">Science</text>
</a>
</g>
</g>
<!-- Branches of science&#45;&gt;Science -->
<g id="edge25" class="edge">
<title>Branches of science&#45;&gt;Science</title>
<path fill="none" stroke="black" d="M481.26,-674.41C470.25,-665.02 456.35,-653.15 444.45,-642.99"/>
<polygon fill="black" stroke="black" points="446.46,-640.1 436.59,-636.27 441.92,-645.43 446.46,-640.1"/>
</g>
<!-- Scientific method -->
<g id="node27" class="node">
<title>Scientific method</title>
<g id="a_node27"><a xlink:href="https://en.wikipedia.org/wiki/Scientific_method" xlink:title="Scientific method">
<ellipse fill="lightskyblue" stroke="lightskyblue" cx="418.69" cy="-548" rx="74.19" ry="18"/>
<text text-anchor="middle" x="418.69" y="-544.3" font-family="Times New Roman,serif" font-size="14.00">Scientific method</text>
</a>
</g>
</g>
<!-- Science&#45;&gt;Scientific method -->
<g id="edge26" class="edge">
<title>Science&#45;&gt;Scientific method</title>
<path fill="none" stroke="black" d="M418.69,-601.7C418.69,-593.98 418.69,-584.71 418.69,-576.11"/>
<polygon fill="black" stroke="black" points="422.19,-576.1 418.69,-566.1 415.19,-576.1 422.19,-576.1"/>
</g>
<!-- Empirical evidence -->
<g id="node28" class="node">
<title>Empirical evidence</title>
<g id="a_node28"><a xlink:href="https://en.wikipedia.org/wiki/Empirical_evidence" xlink:title="Empirical evidence">
<ellipse fill="lightskyblue" stroke="lightskyblue" cx="405.69" cy="-476" rx="79.09" ry="18"/>
<text text-anchor="middle" x="405.69" y="-472.3" font-family="Times New Roman,serif" font-size="14.00">Empirical evidence</text>
</a>
</g>
</g>
<!-- Scientific method&#45;&gt;Empirical evidence -->
<g id="edge27" class="edge">
<title>Scientific method&#45;&gt;Empirical evidence</title>
<path fill="none" stroke="black" d="M415.48,-529.7C414.05,-521.98 412.33,-512.71 410.73,-504.11"/>
<polygon fill="black" stroke="black" points="414.14,-503.3 408.87,-494.1 407.25,-504.58 414.14,-503.3"/>
</g>
<!-- Information -->
<g id="node29" class="node">
<title>Information</title>
<g id="a_node29"><a xlink:href="https://en.wikipedia.org/wiki/Information" xlink:title="Information">
<ellipse fill="lightskyblue" stroke="lightskyblue" cx="400.69" cy="-404" rx="53.09" ry="18"/>
<text text-anchor="middle" x="400.69" y="-400.3" font-family="Times New Roman,serif" font-size="14.00">Information</text>
</a>
</g>
</g>
<!-- Empirical evidence&#45;&gt;Information -->
<g id="edge28" class="edge">
<title>Empirical evidence&#45;&gt;Information</title>
<path fill="none" stroke="black" d="M404.46,-457.7C403.91,-449.98 403.24,-440.71 402.63,-432.11"/>
<polygon fill="black" stroke="black" points="406.12,-431.83 401.91,-422.1 399.14,-432.33 406.12,-431.83"/>
</g>
<!-- Uncertainty -->
<g id="node30" class="node">
<title>Uncertainty</title>
<g id="a_node30"><a xlink:href="https://en.wikipedia.org/wiki/Uncertainty" xlink:title="Uncertainty">
<ellipse fill="lightskyblue" stroke="lightskyblue" cx="392.69" cy="-332" rx="51.99" ry="18"/>
<text text-anchor="middle" x="392.69" y="-328.3" font-family="Times New Roman,serif" font-size="14.00">Uncertainty</text>
</a>
</g>
</g>
<!-- Information&#45;&gt;Uncertainty -->
<g id="edge29" class="edge">
<title>Information&#45;&gt;Uncertainty</title>
<path fill="none" stroke="black" d="M398.72,-385.7C397.83,-377.98 396.77,-368.71 395.79,-360.11"/>
<polygon fill="black" stroke="black" points="399.26,-359.64 394.65,-350.1 392.31,-360.44 399.26,-359.64"/>
</g>
<!-- Epistemology -->
<g id="node31" class="node">
<title>Epistemology</title>
<g id="a_node31"><a xlink:href="https://en.wikipedia.org/wiki/Epistemology" xlink:title="Epistemology">
<ellipse fill="lightskyblue" stroke="lightskyblue" cx="385.69" cy="-260" rx="60.39" ry="18"/>
<text text-anchor="middle" x="385.69" y="-256.3" font-family="Times New Roman,serif" font-size="14.00">Epistemology</text>
</a>
</g>
</g>
<!-- Uncertainty&#45;&gt;Epistemology -->
<g id="edge30" class="edge">
<title>Uncertainty&#45;&gt;Epistemology</title>
<path fill="none" stroke="black" d="M390.96,-313.7C390.19,-305.98 389.26,-296.71 388.4,-288.11"/>
<polygon fill="black" stroke="black" points="391.88,-287.71 387.4,-278.1 384.92,-288.4 391.88,-287.71"/>
</g>
<!-- Outline of philosophy -->
<g id="node32" class="node">
<title>Outline of philosophy</title>
<g id="a_node32"><a xlink:href="https://en.wikipedia.org/wiki/Outline_of_philosophy" xlink:title="Outline of philosophy">
<ellipse fill="lightskyblue" stroke="lightskyblue" cx="381.69" cy="-188" rx="89.88" ry="18"/>
<text text-anchor="middle" x="381.69" y="-184.3" font-family="Times New Roman,serif" font-size="14.00">Outline of philosophy</text>
</a>
</g>
</g>
<!-- Epistemology&#45;&gt;Outline of philosophy -->
<g id="edge31" class="edge">
<title>Epistemology&#45;&gt;Outline of philosophy</title>
<path fill="none" stroke="black" d="M384.7,-241.7C384.26,-233.98 383.73,-224.71 383.24,-216.11"/>
<polygon fill="black" stroke="black" points="386.74,-215.89 382.67,-206.1 379.75,-216.29 386.74,-215.89"/>
</g>
<!-- Philosophy -->
<g id="node33" class="node">
<title>Philosophy</title>
<g id="a_node33"><a xlink:href="https://en.wikipedia.org/wiki/Philosophy" xlink:title="Philosophy">
<ellipse fill="lightskyblue" stroke="lightskyblue" cx="242.69" cy="-116" rx="51.99" ry="18"/>
<text text-anchor="middle" x="242.69" y="-112.3" font-family="Times New Roman,serif" font-size="14.00">Philosophy</text>
</a>
</g>
</g>
<!-- Outline of philosophy&#45;&gt;Philosophy -->
<g id="edge32" class="edge">
<title>Outline of philosophy&#45;&gt;Philosophy</title>
<path fill="none" stroke="black" d="M350.15,-171.12C329.27,-160.6 301.78,-146.76 279.84,-135.71"/>
<polygon fill="black" stroke="black" points="281.31,-132.53 270.81,-131.16 278.17,-138.78 281.31,-132.53"/>
</g>
<!-- Kalateh&#45;ye Mazinan -->
<g id="node34" class="node">
<title>Kalateh&#45;ye Mazinan</title>
<g id="a_node34"><a xlink:href="https://en.wikipedia.org/wiki/Kalateh-ye_Mazinan" xlink:title="Kalateh&#45;ye Mazinan">
<ellipse fill="#b0e2ff" stroke="#b0e2ff" cx="605.69" cy="-2564" rx="81.49" ry="18"/>
<text text-anchor="middle" x="605.69" y="-2560.3" font-family="Times New Roman,serif" font-size="14.00">Kalateh&#45;ye Mazinan</text>
</a>
</g>
</g>
<!-- Mazinan Rural District -->
<g id="node35" class="node">
<title>Mazinan Rural District</title>
<g id="a_node35"><a xlink:href="https://en.wikipedia.org/wiki/Mazinan_Rural_District" xlink:title="Mazinan Rural District">
<ellipse fill="lightskyblue" stroke="lightskyblue" cx="605.69" cy="-2492" rx="91.78" ry="18"/>
<text text-anchor="middle" x="605.69" y="-2488.3" font-family="Times New Roman,serif" font-size="14.00">Mazinan Rural District</text>
</a>
</g>
</g>
<!-- Kalateh&#45;ye Mazinan&#45;&gt;Mazinan Rural District -->
<g id="edge33" class="edge">
<title>Kalateh&#45;ye Mazinan&#45;&gt;Mazinan Rural District</title>
<path fill="none" stroke="black" d="M605.69,-2545.7C605.69,-2537.98 605.69,-2528.71 605.69,-2520.11"/>
<polygon fill="black" stroke="black" points="609.19,-2520.1 605.69,-2510.1 602.19,-2520.1 609.19,-2520.1"/>
</g>
<!-- Rural Districts of Iran -->
<g id="node36" class="node">
<title>Rural Districts of Iran</title>
<g id="a_node36"><a xlink:href="https://en.wikipedia.org/wiki/Rural_Districts_of_Iran" xlink:title="Rural Districts of Iran">
<ellipse fill="lightskyblue" stroke="lightskyblue" cx="605.69" cy="-2420" rx="89.88" ry="18"/>
<text text-anchor="middle" x="605.69" y="-2416.3" font-family="Times New Roman,serif" font-size="14.00">Rural Districts of Iran</text>
</a>
</g>
</g>
<!-- Mazinan Rural District&#45;&gt;Rural Districts of Iran -->
<g id="edge34" class="edge">
<title>Mazinan Rural District&#45;&gt;Rural Districts of Iran</title>
<path fill="none" stroke="black" d="M605.69,-2473.7C605.69,-2465.98 605.69,-2456.71 605.69,-2448.11"/>
<polygon fill="black" stroke="black" points="609.19,-2448.1 605.69,-2438.1 602.19,-2448.1 609.19,-2448.1"/>
</g>
<!-- Administrative divisions of Iran -->
<g id="node37" class="node">
<title>Administrative divisions of Iran</title>
<g id="a_node37"><a xlink:href="https://en.wikipedia.org/wiki/Administrative_divisions_of_Iran" xlink:title="Administrative divisions of Iran">
<ellipse fill="lightskyblue" stroke="lightskyblue" cx="603.69" cy="-2348" rx="124.28" ry="18"/>
<text text-anchor="middle" x="603.69" y="-2344.3" font-family="Times New Roman,serif" font-size="14.00">Administrative divisions of Iran</text>
</a>
</g>
</g>
<!-- Rural Districts of Iran&#45;&gt;Administrative divisions of Iran -->
<g id="edge35" class="edge">
<title>Rural Districts of Iran&#45;&gt;Administrative divisions of Iran</title>
<path fill="none" stroke="black" d="M605.2,-2401.7C604.98,-2393.98 604.71,-2384.71 604.47,-2376.11"/>
<polygon fill="black" stroke="black" points="607.97,-2376 604.18,-2366.1 600.97,-2376.2 607.97,-2376"/>
</g>
<!-- Country subdivision -->
<g id="node38" class="node">
<title>Country subdivision</title>
<g id="a_node38"><a xlink:href="https://en.wikipedia.org/wiki/Country_subdivision" xlink:title="Country subdivision">
<ellipse fill="lightskyblue" stroke="lightskyblue" cx="596.69" cy="-2276" rx="84.49" ry="18"/>
<text text-anchor="middle" x="596.69" y="-2272.3" font-family="Times New Roman,serif" font-size="14.00">Country subdivision</text>
</a>
</g>
</g>
<!-- Administrative divisions of Iran&#45;&gt;Country subdivision -->
<g id="edge36" class="edge">
<title>Administrative divisions of Iran&#45;&gt;Country subdivision</title>
<path fill="none" stroke="black" d="M601.96,-2329.7C601.19,-2321.98 600.26,-2312.71 599.4,-2304.11"/>
<polygon fill="black" stroke="black" points="602.88,-2303.71 598.4,-2294.1 595.92,-2304.4 602.88,-2303.71"/>
</g>
<!-- Sovereign state -->
<g id="node39" class="node">
<title>Sovereign state</title>
<g id="a_node39"><a xlink:href="https://en.wikipedia.org/wiki/Sovereign_state" xlink:title="Sovereign state">
<ellipse fill="lightskyblue" stroke="lightskyblue" cx="590.69" cy="-2204" rx="65.79" ry="18"/>
<text text-anchor="middle" x="590.69" y="-2200.3" font-family="Times New Roman,serif" font-size="14.00">Sovereign state</text>
</a>
</g>
</g>
<!-- Country subdivision&#45;&gt;Sovereign state -->
<g id="edge37" class="edge">
<title>Country subdivision&#45;&gt;Sovereign state</title>
<path fill="none" stroke="black" d="M595.21,-2257.7C594.55,-2249.98 593.75,-2240.71 593.02,-2232.11"/>
<polygon fill="black" stroke="black" points="596.5,-2231.77 592.16,-2222.1 589.53,-2232.37 596.5,-2231.77"/>
</g>
<!-- Political entity -->
<g id="node40" class="node">
<title>Political entity</title>
<g id="a_node40"><a xlink:href="https://en.wikipedia.org/wiki/Political_entity" xlink:title="Political entity">
<ellipse fill="lightskyblue" stroke="lightskyblue" cx="576.69" cy="-2132" rx="61.99" ry="18"/>
<text text-anchor="middle" x="576.69" y="-2128.3" font-family="Times New Roman,serif" font-size="14.00">Political entity</text>
</a>
</g>
</g>
<!-- Sovereign state&#45;&gt;Political entity -->
<g id="edge38" class="edge">
<title>Sovereign state&#45;&gt;Political entity</title>
<path fill="none" stroke="black" d="M587.23,-2185.7C585.69,-2177.98 583.84,-2168.71 582.12,-2160.11"/>
<polygon fill="black" stroke="black" points="585.51,-2159.22 580.11,-2150.1 578.64,-2160.6 585.51,-2159.22"/>
</g>
<!-- Political entity&#45;&gt;Collective identity -->
<g id="edge39" class="edge">
<title>Political entity&#45;&gt;Collective identity</title>
<path fill="none" stroke="black" d="M560.34,-2114.41C551.79,-2105.73 541.15,-2094.95 531.69,-2085.34"/>
<polygon fill="black" stroke="black" points="533.92,-2082.62 524.41,-2077.96 528.93,-2087.54 533.92,-2082.62"/>
</g>
<!-- Adeoye Yusuff -->
<g id="node41" class="node">
<title>Adeoye Yusuff</title>
<g id="a_node41"><a xlink:href="https://en.wikipedia.org/wiki/Adeoye_Yusuff" xlink:title="Adeoye Yusuff">
<ellipse fill="#b0e2ff" stroke="#b0e2ff" cx="242.69" cy="-620" rx="66.09" ry="18"/>
<text text-anchor="middle" x="242.69" y="-616.3" font-family="Times New Roman,serif" font-size="14.00">Adeoye Yusuff</text>
</a>
</g>
</g>
<!-- Association football -->
<g id="node42" class="node">
<title>Association football</title>
<g id="a_node42"><a xlink:href="https://en.wikipedia.org/wiki/Association_football" xlink:title="Association football">
<ellipse fill="lightskyblue" stroke="lightskyblue" cx="242.69" cy="-548" rx="83.69" ry="18"/>
<text text-anchor="middle" x="242.69" y="-544.3" font-family="Times New Roman,serif" font-size="14.00">Association football</text>
</a>
</g>
</g>
<!-- Adeoye Yusuff&#45;&gt;Association football -->
<g id="edge40" class="edge">
<title>Adeoye Yusuff&#45;&gt;Association football</title>
<path fill="none" stroke="black" d="M242.69,-601.7C242.69,-593.98 242.69,-584.71 242.69,-576.11"/>
<polygon fill="black" stroke="black" points="246.19,-576.1 242.69,-566.1 239.19,-576.1 246.19,-576.1"/>
</g>
<!-- Team sport -->
<g id="node43" class="node">
<title>Team sport</title>
<g id="a_node43"><a xlink:href="https://en.wikipedia.org/wiki/Team_sport" xlink:title="Team sport">
<ellipse fill="lightskyblue" stroke="lightskyblue" cx="242.69" cy="-476" rx="52.79" ry="18"/>
<text text-anchor="middle" x="242.69" y="-472.3" font-family="Times New Roman,serif" font-size="14.00">Team sport</text>
</a>
</g>
</g>
<!-- Association football&#45;&gt;Team sport -->
<g id="edge41" class="edge">
<title>Association football&#45;&gt;Team sport</title>
<path fill="none" stroke="black" d="M242.69,-529.7C242.69,-521.98 242.69,-512.71 242.69,-504.11"/>
<polygon fill="black" stroke="black" points="246.19,-504.1 242.69,-494.1 239.19,-504.1 246.19,-504.1"/>
</g>
<!-- Sport -->
<g id="node44" class="node">
<title>Sport</title>
<g id="a_node44"><a xlink:href="https://en.wikipedia.org/wiki/Sport" xlink:title="Sport">
<ellipse fill="lightskyblue" stroke="lightskyblue" cx="242.69" cy="-404" rx="31.4" ry="18"/>
<text text-anchor="middle" x="242.69" y="-400.3" font-family="Times New Roman,serif" font-size="14.00">Sport</text>
</a>
</g>
</g>
<!-- Team sport&#45;&gt;Sport -->
<g id="edge42" class="edge">
<title>Team sport&#45;&gt;Sport</title>
<path fill="none" stroke="black" d="M242.69,-457.7C242.69,-449.98 242.69,-440.71 242.69,-432.11"/>
<polygon fill="black" stroke="black" points="246.19,-432.1 242.69,-422.1 239.19,-432.1 246.19,-432.1"/>
</g>
<!-- Competition -->
<g id="node45" class="node">
<title>Competition</title>
<g id="a_node45"><a xlink:href="https://en.wikipedia.org/wiki/Competition" xlink:title="Competition">
<ellipse fill="lightskyblue" stroke="lightskyblue" cx="242.69" cy="-332" rx="55.79" ry="18"/>
<text text-anchor="middle" x="242.69" y="-328.3" font-family="Times New Roman,serif" font-size="14.00">Competition</text>
</a>
</g>
</g>
<!-- Sport&#45;&gt;Competition -->
<g id="edge43" class="edge">
<title>Sport&#45;&gt;Competition</title>
<path fill="none" stroke="black" d="M242.69,-385.7C242.69,-377.98 242.69,-368.71 242.69,-360.11"/>
<polygon fill="black" stroke="black" points="246.19,-360.1 242.69,-350.1 239.19,-360.1 246.19,-360.1"/>
</g>
<!-- Goal -->
<g id="node46" class="node">
<title>Goal</title>
<g id="a_node46"><a xlink:href="https://en.wikipedia.org/wiki/Goal" xlink:title="Goal">
<ellipse fill="lightskyblue" stroke="lightskyblue" cx="242.69" cy="-260" rx="28.7" ry="18"/>
<text text-anchor="middle" x="242.69" y="-256.3" font-family="Times New Roman,serif" font-size="14.00">Goal</text>
</a>
</g>
</g>
<!-- Competition&#45;&gt;Goal -->
<g id="edge44" class="edge">
<title>Competition&#45;&gt;Goal</title>
<path fill="none" stroke="black" d="M242.69,-313.7C242.69,-305.98 242.69,-296.71 242.69,-288.11"/>
<polygon fill="black" stroke="black" points="246.19,-288.1 242.69,-278.1 239.19,-288.1 246.19,-288.1"/>
</g>
<!-- Idea -->
<g id="node47" class="node">
<title>Idea</title>
<g id="a_node47"><a xlink:href="https://en.wikipedia.org/wiki/Idea" xlink:title="Idea">
<ellipse fill="lightskyblue" stroke="lightskyblue" cx="242.69" cy="-188" rx="27" ry="18"/>
<text text-anchor="middle" x="242.69" y="-184.3" font-family="Times New Roman,serif" font-size="14.00">Idea</text>
</a>
</g>
</g>
<!-- Goal&#45;&gt;Idea -->
<g id="edge45" class="edge">
<title>Goal&#45;&gt;Idea</title>
<path fill="none" stroke="black" d="M242.69,-241.7C242.69,-233.98 242.69,-224.71 242.69,-216.11"/>
<polygon fill="black" stroke="black" points="246.19,-216.1 242.69,-206.1 239.19,-216.1 246.19,-216.1"/>
</g>
<!-- Idea&#45;&gt;Philosophy -->
<g id="edge46" class="edge">
<title>Idea&#45;&gt;Philosophy</title>
<path fill="none" stroke="black" d="M242.69,-169.7C242.69,-161.98 242.69,-152.71 242.69,-144.11"/>
<polygon fill="black" stroke="black" points="246.19,-144.1 242.69,-134.1 239.19,-144.1 246.19,-144.1"/>
</g>
<!-- Holgate High School -->
<g id="node48" class="node">
<title>Holgate High School</title>
<g id="a_node48"><a xlink:href="https://en.wikipedia.org/wiki/Holgate_High_School" xlink:title="Holgate High School">
<ellipse fill="#b0e2ff" stroke="#b0e2ff" cx="299.69" cy="-1124" rx="86.38" ry="18"/>
<text text-anchor="middle" x="299.69" y="-1120.3" font-family="Times New Roman,serif" font-size="14.00">Holgate High School</text>
</a>
</g>
</g>
<!-- State school -->
<g id="node49" class="node">
<title>State school</title>
<g id="a_node49"><a xlink:href="https://en.wikipedia.org/wiki/State_school" xlink:title="State school">
<ellipse fill="lightskyblue" stroke="lightskyblue" cx="299.69" cy="-1052" rx="55.79" ry="18"/>
<text text-anchor="middle" x="299.69" y="-1048.3" font-family="Times New Roman,serif" font-size="14.00">State school</text>
</a>
</g>
</g>
<!-- Holgate High School&#45;&gt;State school -->
<g id="edge47" class="edge">
<title>Holgate High School&#45;&gt;State school</title>
<path fill="none" stroke="black" d="M299.69,-1105.7C299.69,-1097.98 299.69,-1088.71 299.69,-1080.11"/>
<polygon fill="black" stroke="black" points="303.19,-1080.1 299.69,-1070.1 296.19,-1080.1 303.19,-1080.1"/>
</g>
<!-- Educational institution -->
<g id="node50" class="node">
<title>Educational institution</title>
<g id="a_node50"><a xlink:href="https://en.wikipedia.org/wiki/Educational_institution" xlink:title="Educational institution">
<ellipse fill="lightskyblue" stroke="lightskyblue" cx="299.69" cy="-980" rx="90.98" ry="18"/>
<text text-anchor="middle" x="299.69" y="-976.3" font-family="Times New Roman,serif" font-size="14.00">Educational institution</text>
</a>
</g>
</g>
<!-- State school&#45;&gt;Educational institution -->
<g id="edge48" class="edge">
<title>State school&#45;&gt;Educational institution</title>
<path fill="none" stroke="black" d="M299.69,-1033.7C299.69,-1025.98 299.69,-1016.71 299.69,-1008.11"/>
<polygon fill="black" stroke="black" points="303.19,-1008.1 299.69,-998.1 296.19,-1008.1 303.19,-1008.1"/>
</g>
<!-- Education -->
<g id="node51" class="node">
<title>Education</title>
<g id="a_node51"><a xlink:href="https://en.wikipedia.org/wiki/Education" xlink:title="Education">
<ellipse fill="lightskyblue" stroke="lightskyblue" cx="321.69" cy="-908" rx="47.39" ry="18"/>
<text text-anchor="middle" x="321.69" y="-904.3" font-family="Times New Roman,serif" font-size="14.00">Education</text>
</a>
</g>
</g>
<!-- Educational institution&#45;&gt;Education -->
<g id="edge49" class="edge">
<title>Educational institution&#45;&gt;Education</title>
<path fill="none" stroke="black" d="M305.13,-961.7C307.58,-953.9 310.53,-944.51 313.26,-935.83"/>
<polygon fill="black" stroke="black" points="316.66,-936.69 316.32,-926.1 309.98,-934.59 316.66,-936.69"/>
</g>
<!-- Learning -->
<g id="node52" class="node">
<title>Learning</title>
<g id="a_node52"><a xlink:href="https://en.wikipedia.org/wiki/Learning" xlink:title="Learning">
<ellipse fill="lightskyblue" stroke="lightskyblue" cx="332.69" cy="-836" rx="42.49" ry="18"/>
<text text-anchor="middle" x="332.69" y="-832.3" font-family="Times New Roman,serif" font-size="14.00">Learning</text>
</a>
</g>
</g>
<!-- Education&#45;&gt;Learning -->
<g id="edge50" class="edge">
<title>Education&#45;&gt;Learning</title>
<path fill="none" stroke="black" d="M324.41,-889.7C325.62,-881.98 327.08,-872.71 328.43,-864.11"/>
<polygon fill="black" stroke="black" points="331.91,-864.53 330.01,-854.1 325,-863.44 331.91,-864.53"/>
</g>
<!-- Understanding -->
<g id="node53" class="node">
<title>Understanding</title>
<g id="a_node53"><a xlink:href="https://en.wikipedia.org/wiki/Understanding" xlink:title="Understanding">
<ellipse fill="lightskyblue" stroke="lightskyblue" cx="332.69" cy="-764" rx="63.89" ry="18"/>
<text text-anchor="middle" x="332.69" y="-760.3" font-family="Times New Roman,serif" font-size="14.00">Understanding</text>
</a>
</g>
</g>
<!-- Learning&#45;&gt;Understanding -->
<g id="edge51" class="edge">
<title>Learning&#45;&gt;Understanding</title>
<path fill="none" stroke="black" d="M332.69,-817.7C332.69,-809.98 332.69,-800.71 332.69,-792.11"/>
<polygon fill="black" stroke="black" points="336.19,-792.1 332.69,-782.1 329.19,-792.1 336.19,-792.1"/>
</g>
<!-- Psychological -->
<g id="node54" class="node">
<title>Psychological</title>
<g id="a_node54"><a xlink:href="https://en.wikipedia.org/wiki/Psychological" xlink:title="Psychological">
<ellipse fill="lightskyblue" stroke="lightskyblue" cx="335.69" cy="-692" rx="61.99" ry="18"/>
<text text-anchor="middle" x="335.69" y="-688.3" font-family="Times New Roman,serif" font-size="14.00">Psychological</text>
</a>
</g>
</g>
<!-- Understanding&#45;&gt;Psychological -->
<g id="edge52" class="edge">
<title>Understanding&#45;&gt;Psychological</title>
<path fill="none" stroke="black" d="M333.43,-745.7C333.77,-737.98 334.16,-728.71 334.53,-720.11"/>
<polygon fill="black" stroke="black" points="338.03,-720.25 334.96,-710.1 331.04,-719.95 338.03,-720.25"/>
</g>
<!-- Psychological&#45;&gt;Science -->
<g id="edge53" class="edge">
<title>Psychological&#45;&gt;Science</title>
<path fill="none" stroke="black" d="M354.94,-674.76C366.26,-665.22 380.7,-653.04 392.98,-642.68"/>
<polygon fill="black" stroke="black" points="395.3,-645.31 400.68,-636.19 390.78,-639.96 395.3,-645.31"/>
</g>
<!-- Arabidze -->
<g id="node55" class="node">
<title>Arabidze</title>
<g id="a_node55"><a xlink:href="https://en.wikipedia.org/wiki/Arabidze" xlink:title="Arabidze">
<ellipse fill="#b0e2ff" stroke="#b0e2ff" cx="76.69" cy="-764" rx="43.59" ry="18"/>
<text text-anchor="middle" x="76.69" y="-760.3" font-family="Times New Roman,serif" font-size="14.00">Arabidze</text>
</a>
</g>
</g>
<!-- Georgian surname -->
<g id="node56" class="node">
<title>Georgian surname</title>
<g id="a_node56"><a xlink:href="https://en.wikipedia.org/wiki/Georgian_surname" xlink:title="Georgian surname">
<ellipse fill="lightskyblue" stroke="lightskyblue" cx="76.69" cy="-692" rx="76.89" ry="18"/>
<text text-anchor="middle" x="76.69" y="-688.3" font-family="Times New Roman,serif" font-size="14.00">Georgian surname</text>
</a>
</g>
</g>
<!-- Arabidze&#45;&gt;Georgian surname -->
<g id="edge54" class="edge">
<title>Arabidze&#45;&gt;Georgian surname</title>
<path fill="none" stroke="black" d="M76.69,-745.7C76.69,-737.98 76.69,-728.71 76.69,-720.11"/>
<polygon fill="black" stroke="black" points="80.19,-720.1 76.69,-710.1 73.19,-720.1 80.19,-720.1"/>
</g>
<!-- Given name -->
<g id="node57" class="node">
<title>Given name</title>
<g id="a_node57"><a xlink:href="https://en.wikipedia.org/wiki/Given_name" xlink:title="Given name">
<ellipse fill="lightskyblue" stroke="lightskyblue" cx="76.69" cy="-620" rx="53.89" ry="18"/>
<text text-anchor="middle" x="76.69" y="-616.3" font-family="Times New Roman,serif" font-size="14.00">Given name</text>
</a>
</g>
</g>
<!-- Georgian surname&#45;&gt;Given name -->
<g id="edge55" class="edge">
<title>Georgian surname&#45;&gt;Given name</title>
<path fill="none" stroke="black" d="M76.69,-673.7C76.69,-665.98 76.69,-656.71 76.69,-648.11"/>
<polygon fill="black" stroke="black" points="80.19,-648.1 76.69,-638.1 73.19,-648.1 80.19,-648.1"/>
</g>
<!-- Personal name -->
<g id="node58" class="node">
<title>Personal name</title>
<g id="a_node58"><a xlink:href="https://en.wikipedia.org/wiki/Personal_name" xlink:title="Personal name">
<ellipse fill="lightskyblue" stroke="lightskyblue" cx="76.69" cy="-548" rx="63.89" ry="18"/>
<text text-anchor="middle" x="76.69" y="-544.3" font-family="Times New Roman,serif" font-size="14.00">Personal name</text>
</a>
</g>
</g>
<!-- Given name&#45;&gt;Personal name -->
<g id="edge56" class="edge">
<title>Given name&#45;&gt;Personal name</title>
<path fill="none" stroke="black" d="M76.69,-601.7C76.69,-593.98 76.69,-584.71 76.69,-576.11"/>
<polygon fill="black" stroke="black" points="80.19,-576.1 76.69,-566.1 73.19,-576.1 80.19,-576.1"/>
</g>
<!-- Onomastic -->
<g id="node59" class="node">
<title>Onomastic</title>
<g id="a_node59"><a xlink:href="https://en.wikipedia.org/wiki/Onomastic" xlink:title="Onomastic">
<ellipse fill="lightskyblue" stroke="lightskyblue" cx="79.69" cy="-476" rx="50.09" ry="18"/>
<text text-anchor="middle" x="79.69" y="-472.3" font-family="Times New Roman,serif" font-size="14.00">Onomastic</text>
</a>
</g>
</g>
<!-- Personal name&#45;&gt;Onomastic -->
<g id="edge57" class="edge">
<title>Personal name&#45;&gt;Onomastic</title>
<path fill="none" stroke="black" d="M77.43,-529.7C77.77,-521.98 78.16,-512.71 78.53,-504.11"/>
<polygon fill="black" stroke="black" points="82.03,-504.25 78.96,-494.1 75.04,-503.95 82.03,-504.25"/>
</g>
<!-- Etymology -->
<g id="node60" class="node">
<title>Etymology</title>
<g id="a_node60"><a xlink:href="https://en.wikipedia.org/wiki/Etymology" xlink:title="Etymology">
<ellipse fill="lightskyblue" stroke="lightskyblue" cx="100.69" cy="-404" rx="50.09" ry="18"/>
<text text-anchor="middle" x="100.69" y="-400.3" font-family="Times New Roman,serif" font-size="14.00">Etymology</text>
</a>
</g>
</g>
<!-- Onomastic&#45;&gt;Etymology -->
<g id="edge58" class="edge">
<title>Onomastic&#45;&gt;Etymology</title>
<path fill="none" stroke="black" d="M84.78,-458.05C87.11,-450.26 89.95,-440.82 92.57,-432.08"/>
<polygon fill="black" stroke="black" points="95.99,-432.86 95.51,-422.28 89.28,-430.85 95.99,-432.86"/>
</g>
<!-- History -->
<g id="node61" class="node">
<title>History</title>
<g id="a_node61"><a xlink:href="https://en.wikipedia.org/wiki/History" xlink:title="History">
<ellipse fill="lightskyblue" stroke="lightskyblue" cx="111.69" cy="-332" rx="37.89" ry="18"/>
<text text-anchor="middle" x="111.69" y="-328.3" font-family="Times New Roman,serif" font-size="14.00">History</text>
</a>
</g>
</g>
<!-- Etymology&#45;&gt;History -->
<g id="edge59" class="edge">
<title>Etymology&#45;&gt;History</title>
<path fill="none" stroke="black" d="M103.41,-385.7C104.62,-377.98 106.08,-368.71 107.43,-360.11"/>
<polygon fill="black" stroke="black" points="110.91,-360.53 109.01,-350.1 104,-359.44 110.91,-360.53"/>
</g>
<!-- George Santayana -->
<g id="node62" class="node">
<title>George Santayana</title>
<g id="a_node62"><a xlink:href="https://en.wikipedia.org/wiki/George_Santayana" xlink:title="George Santayana">
<ellipse fill="lightskyblue" stroke="lightskyblue" cx="116.69" cy="-260" rx="76.89" ry="18"/>
<text text-anchor="middle" x="116.69" y="-256.3" font-family="Times New Roman,serif" font-size="14.00">George Santayana</text>
</a>
</g>
</g>
<!-- History&#45;&gt;George Santayana -->
<g id="edge60" class="edge">
<title>History&#45;&gt;George Santayana</title>
<path fill="none" stroke="black" d="M112.93,-313.7C113.48,-305.98 114.14,-296.71 114.76,-288.11"/>
<polygon fill="black" stroke="black" points="118.25,-288.33 115.47,-278.1 111.27,-287.83 118.25,-288.33"/>
</g>
<!-- Philosopher -->
<g id="node63" class="node">
<title>Philosopher</title>
<g id="a_node63"><a xlink:href="https://en.wikipedia.org/wiki/Philosopher" xlink:title="Philosopher">
<ellipse fill="lightskyblue" stroke="lightskyblue" cx="131.69" cy="-188" rx="53.89" ry="18"/>
<text text-anchor="middle" x="131.69" y="-184.3" font-family="Times New Roman,serif" font-size="14.00">Philosopher</text>
</a>
</g>
</g>
<!-- George Santayana&#45;&gt;Philosopher -->
<g id="edge61" class="edge">
<title>George Santayana&#45;&gt;Philosopher</title>
<path fill="none" stroke="black" d="M120.4,-241.7C122.05,-233.98 124.04,-224.71 125.88,-216.11"/>
<polygon fill="black" stroke="black" points="129.35,-216.62 128.03,-206.1 122.51,-215.15 129.35,-216.62"/>
</g>
<!-- Philosopher&#45;&gt;Philosophy -->
<g id="edge62" class="edge">
<title>Philosopher&#45;&gt;Philosophy</title>
<path fill="none" stroke="black" d="M155.78,-171.81C171.63,-161.81 192.59,-148.6 209.95,-137.65"/>
<polygon fill="black" stroke="black" points="212.06,-140.45 218.65,-132.16 208.33,-134.53 212.06,-140.45"/>
</g>
</g>
</svg>
