<?xml version="1.0" encoding="UTF-8" standalone="no"?>
<!DOCTYPE svg PUBLIC "-//W3C//DTD SVG 1.1//EN"
 "http://www.w3.org/Graphics/SVG/1.1/DTD/svg11.dtd">
<!-- Generated by graphviz version 2.46.0 (20210118.1747)
 -->
<!-- Title: unix Pages: 1 -->
<svg width="1049pt" height="1409pt"
 viewBox="0.00 0.00 1049.27 1409.00" xmlns="http://www.w3.org/2000/svg" xmlns:xlink="http://www.w3.org/1999/xlink">
<g id="graph0" class="graph" transform="scale(1 1) rotate(0) translate(4 1405)">
<title>unix</title>
<polygon fill="white" stroke="transparent" points="-4,4 -4,-1405 1045.27,-1405 1045.27,4 -4,4"/>
<text text-anchor="start" x="399.14" y="-37.8" font-family="Times New Roman,serif" font-size="14.00">Graph generated on 08/05/2021 19:29:22.</text>
<text text-anchor="start" x="399.14" y="-22.8" font-family="Times New Roman,serif" font-size="14.00">Checked 5 pages. Time took: 1.01 minutes.</text>
<text text-anchor="middle" x="520.64" y="-7.8" font-family="Times New Roman,serif" font-size="14.00">Number of pages drawn: 65</text>
<!-- Riccardo Burchielli -->
<g id="node1" class="node">
<title>Riccardo Burchielli</title>
<g id="a_node1"><a xlink:href="https://en.wikipedia.org/wiki/Riccardo_Burchielli" xlink:title="Riccardo Burchielli">
<ellipse fill="#b0e2ff" stroke="#b0e2ff" cx="533.08" cy="-1383" rx="80.69" ry="18"/>
<text text-anchor="middle" x="533.08" y="-1379.3" font-family="Times New Roman,serif" font-size="14.00">Riccardo Burchielli</text>
</a>
</g>
</g>
<!-- Italian people -->
<g id="node2" class="node">
<title>Italian people</title>
<g id="a_node2"><a xlink:href="https://en.wikipedia.org/wiki/Italian_people" xlink:title="Italian people">
<ellipse fill="lightskyblue" stroke="lightskyblue" cx="528.08" cy="-1311" rx="59.29" ry="18"/>
<text text-anchor="middle" x="528.08" y="-1307.3" font-family="Times New Roman,serif" font-size="14.00">Italian people</text>
</a>
</g>
</g>
<!-- Riccardo Burchielli&#45;&gt;Italian people -->
<g id="edge1" class="edge">
<title>Riccardo Burchielli&#45;&gt;Italian people</title>
<path fill="none" stroke="black" d="M531.84,-1364.7C531.29,-1356.98 530.63,-1347.71 530.02,-1339.11"/>
<polygon fill="black" stroke="black" points="533.51,-1338.83 529.3,-1329.1 526.52,-1339.33 533.51,-1338.83"/>
</g>
<!-- Romance peoples -->
<g id="node3" class="node">
<title>Romance peoples</title>
<g id="a_node3"><a xlink:href="https://en.wikipedia.org/wiki/Romance_peoples" xlink:title="Romance peoples">
<ellipse fill="lightskyblue" stroke="lightskyblue" cx="518.08" cy="-1239" rx="76.09" ry="18"/>
<text text-anchor="middle" x="518.08" y="-1235.3" font-family="Times New Roman,serif" font-size="14.00">Romance peoples</text>
</a>
</g>
</g>
<!-- Italian people&#45;&gt;Romance peoples -->
<g id="edge2" class="edge">
<title>Italian people&#45;&gt;Romance peoples</title>
<path fill="none" stroke="black" d="M525.61,-1292.7C524.51,-1284.98 523.18,-1275.71 521.95,-1267.11"/>
<polygon fill="black" stroke="black" points="525.4,-1266.51 520.52,-1257.1 518.47,-1267.5 525.4,-1266.51"/>
</g>
<!-- Vulgar Latin -->
<g id="node4" class="node">
<title>Vulgar Latin</title>
<g id="a_node4"><a xlink:href="https://en.wikipedia.org/wiki/Vulgar_Latin" xlink:title="Vulgar Latin">
<ellipse fill="lightskyblue" stroke="lightskyblue" cx="515.08" cy="-1167" rx="55.49" ry="18"/>
<text text-anchor="middle" x="515.08" y="-1163.3" font-family="Times New Roman,serif" font-size="14.00">Vulgar Latin</text>
</a>
</g>
</g>
<!-- Romance peoples&#45;&gt;Vulgar Latin -->
<g id="edge3" class="edge">
<title>Romance peoples&#45;&gt;Vulgar Latin</title>
<path fill="none" stroke="black" d="M517.34,-1220.7C517.01,-1212.98 516.61,-1203.71 516.24,-1195.11"/>
<polygon fill="black" stroke="black" points="519.74,-1194.95 515.81,-1185.1 512.75,-1195.25 519.74,-1194.95"/>
</g>
<!-- Literary language -->
<g id="node5" class="node">
<title>Literary language</title>
<g id="a_node5"><a xlink:href="https://en.wikipedia.org/wiki/Literary_language" xlink:title="Literary language">
<ellipse fill="lightskyblue" stroke="lightskyblue" cx="514.08" cy="-1095" rx="72.29" ry="18"/>
<text text-anchor="middle" x="514.08" y="-1091.3" font-family="Times New Roman,serif" font-size="14.00">Literary language</text>
</a>
</g>
</g>
<!-- Vulgar Latin&#45;&gt;Literary language -->
<g id="edge4" class="edge">
<title>Vulgar Latin&#45;&gt;Literary language</title>
<path fill="none" stroke="black" d="M514.83,-1148.7C514.72,-1140.98 514.59,-1131.71 514.47,-1123.11"/>
<polygon fill="black" stroke="black" points="517.97,-1123.05 514.33,-1113.1 510.97,-1123.15 517.97,-1123.05"/>
</g>
<!-- Register (sociolinguistics) -->
<g id="node6" class="node">
<title>Register (sociolinguistics)</title>
<g id="a_node6"><a xlink:href="https://en.wikipedia.org/wiki/Register_(sociolinguistics)" xlink:title="Register (sociolinguistics)">
<ellipse fill="lightskyblue" stroke="lightskyblue" cx="513.08" cy="-1023" rx="104.78" ry="18"/>
<text text-anchor="middle" x="513.08" y="-1019.3" font-family="Times New Roman,serif" font-size="14.00">Register (sociolinguistics)</text>
</a>
</g>
</g>
<!-- Literary language&#45;&gt;Register (sociolinguistics) -->
<g id="edge5" class="edge">
<title>Literary language&#45;&gt;Register (sociolinguistics)</title>
<path fill="none" stroke="black" d="M513.83,-1076.7C513.72,-1068.98 513.59,-1059.71 513.47,-1051.11"/>
<polygon fill="black" stroke="black" points="516.97,-1051.05 513.33,-1041.1 509.97,-1051.15 516.97,-1051.05"/>
</g>
<!-- Sociolinguistics -->
<g id="node7" class="node">
<title>Sociolinguistics</title>
<g id="a_node7"><a xlink:href="https://en.wikipedia.org/wiki/Sociolinguistics" xlink:title="Sociolinguistics">
<ellipse fill="lightskyblue" stroke="lightskyblue" cx="470.08" cy="-951" rx="67.69" ry="18"/>
<text text-anchor="middle" x="470.08" y="-947.3" font-family="Times New Roman,serif" font-size="14.00">Sociolinguistics</text>
</a>
</g>
</g>
<!-- Register (sociolinguistics)&#45;&gt;Sociolinguistics -->
<g id="edge6" class="edge">
<title>Register (sociolinguistics)&#45;&gt;Sociolinguistics</title>
<path fill="none" stroke="black" d="M502.67,-1005.05C497.68,-996.92 491.58,-987 486.02,-977.94"/>
<polygon fill="black" stroke="black" points="488.91,-975.96 480.69,-969.28 482.94,-979.63 488.91,-975.96"/>
</g>
<!-- Society -->
<g id="node8" class="node">
<title>Society</title>
<g id="a_node8"><a xlink:href="https://en.wikipedia.org/wiki/Society" xlink:title="Society">
<ellipse fill="lightskyblue" stroke="lightskyblue" cx="327.08" cy="-879" rx="38.19" ry="18"/>
<text text-anchor="middle" x="327.08" y="-875.3" font-family="Times New Roman,serif" font-size="14.00">Society</text>
</a>
</g>
</g>
<!-- Sociolinguistics&#45;&gt;Society -->
<g id="edge7" class="edge">
<title>Sociolinguistics&#45;&gt;Society</title>
<path fill="none" stroke="black" d="M439.05,-934.81C416.38,-923.71 385.62,-908.66 362.07,-897.13"/>
<polygon fill="black" stroke="black" points="363.31,-893.84 352.79,-892.59 360.24,-900.13 363.31,-893.84"/>
</g>
<!-- Social group -->
<g id="node9" class="node">
<title>Social group</title>
<g id="a_node9"><a xlink:href="https://en.wikipedia.org/wiki/Social_group" xlink:title="Social group">
<ellipse fill="lightskyblue" stroke="lightskyblue" cx="327.08" cy="-807" rx="57.39" ry="18"/>
<text text-anchor="middle" x="327.08" y="-803.3" font-family="Times New Roman,serif" font-size="14.00">Social group</text>
</a>
</g>
</g>
<!-- Society&#45;&gt;Social group -->
<g id="edge8" class="edge">
<title>Society&#45;&gt;Social group</title>
<path fill="none" stroke="black" d="M327.08,-860.7C327.08,-852.98 327.08,-843.71 327.08,-835.11"/>
<polygon fill="black" stroke="black" points="330.58,-835.1 327.08,-825.1 323.58,-835.1 330.58,-835.1"/>
</g>
<!-- Social science -->
<g id="node10" class="node">
<title>Social science</title>
<g id="a_node10"><a xlink:href="https://en.wikipedia.org/wiki/Social_science" xlink:title="Social science">
<ellipse fill="lightskyblue" stroke="lightskyblue" cx="327.08" cy="-735" rx="62.29" ry="18"/>
<text text-anchor="middle" x="327.08" y="-731.3" font-family="Times New Roman,serif" font-size="14.00">Social science</text>
</a>
</g>
</g>
<!-- Social group&#45;&gt;Social science -->
<g id="edge9" class="edge">
<title>Social group&#45;&gt;Social science</title>
<path fill="none" stroke="black" d="M327.08,-788.7C327.08,-780.98 327.08,-771.71 327.08,-763.11"/>
<polygon fill="black" stroke="black" points="330.58,-763.1 327.08,-753.1 323.58,-763.1 330.58,-763.1"/>
</g>
<!-- Branches of science -->
<g id="node11" class="node">
<title>Branches of science</title>
<g id="a_node11"><a xlink:href="https://en.wikipedia.org/wiki/Branches_of_science" xlink:title="Branches of science">
<ellipse fill="lightskyblue" stroke="lightskyblue" cx="327.08" cy="-663" rx="83.69" ry="18"/>
<text text-anchor="middle" x="327.08" y="-659.3" font-family="Times New Roman,serif" font-size="14.00">Branches of science</text>
</a>
</g>
</g>
<!-- Social science&#45;&gt;Branches of science -->
<g id="edge10" class="edge">
<title>Social science&#45;&gt;Branches of science</title>
<path fill="none" stroke="black" d="M327.08,-716.7C327.08,-708.98 327.08,-699.71 327.08,-691.11"/>
<polygon fill="black" stroke="black" points="330.58,-691.1 327.08,-681.1 323.58,-691.1 330.58,-691.1"/>
</g>
<!-- Science -->
<g id="node12" class="node">
<title>Science</title>
<g id="a_node12"><a xlink:href="https://en.wikipedia.org/wiki/Science" xlink:title="Science">
<ellipse fill="lightskyblue" stroke="lightskyblue" cx="327.08" cy="-591" rx="38.99" ry="18"/>
<text text-anchor="middle" x="327.08" y="-587.3" font-family="Times New Roman,serif" font-size="14.00">Science</text>
</a>
</g>
</g>
<!-- Branches of science&#45;&gt;Science -->
<g id="edge11" class="edge">
<title>Branches of science&#45;&gt;Science</title>
<path fill="none" stroke="black" d="M327.08,-644.7C327.08,-636.98 327.08,-627.71 327.08,-619.11"/>
<polygon fill="black" stroke="black" points="330.58,-619.1 327.08,-609.1 323.58,-619.1 330.58,-619.1"/>
</g>
<!-- Scientific method -->
<g id="node13" class="node">
<title>Scientific method</title>
<g id="a_node13"><a xlink:href="https://en.wikipedia.org/wiki/Scientific_method" xlink:title="Scientific method">
<ellipse fill="lightskyblue" stroke="lightskyblue" cx="327.08" cy="-519" rx="74.19" ry="18"/>
<text text-anchor="middle" x="327.08" y="-515.3" font-family="Times New Roman,serif" font-size="14.00">Scientific method</text>
</a>
</g>
</g>
<!-- Science&#45;&gt;Scientific method -->
<g id="edge12" class="edge">
<title>Science&#45;&gt;Scientific method</title>
<path fill="none" stroke="black" d="M327.08,-572.7C327.08,-564.98 327.08,-555.71 327.08,-547.11"/>
<polygon fill="black" stroke="black" points="330.58,-547.1 327.08,-537.1 323.58,-547.1 330.58,-547.1"/>
</g>
<!-- Empirical evidence -->
<g id="node14" class="node">
<title>Empirical evidence</title>
<g id="a_node14"><a xlink:href="https://en.wikipedia.org/wiki/Empirical_evidence" xlink:title="Empirical evidence">
<ellipse fill="lightskyblue" stroke="lightskyblue" cx="327.08" cy="-447" rx="79.09" ry="18"/>
<text text-anchor="middle" x="327.08" y="-443.3" font-family="Times New Roman,serif" font-size="14.00">Empirical evidence</text>
</a>
</g>
</g>
<!-- Scientific method&#45;&gt;Empirical evidence -->
<g id="edge13" class="edge">
<title>Scientific method&#45;&gt;Empirical evidence</title>
<path fill="none" stroke="black" d="M327.08,-500.7C327.08,-492.98 327.08,-483.71 327.08,-475.11"/>
<polygon fill="black" stroke="black" points="330.58,-475.1 327.08,-465.1 323.58,-475.1 330.58,-475.1"/>
</g>
<!-- Information -->
<g id="node15" class="node">
<title>Information</title>
<g id="a_node15"><a xlink:href="https://en.wikipedia.org/wiki/Information" xlink:title="Information">
<ellipse fill="lightskyblue" stroke="lightskyblue" cx="327.08" cy="-375" rx="53.09" ry="18"/>
<text text-anchor="middle" x="327.08" y="-371.3" font-family="Times New Roman,serif" font-size="14.00">Information</text>
</a>
</g>
</g>
<!-- Empirical evidence&#45;&gt;Information -->
<g id="edge14" class="edge">
<title>Empirical evidence&#45;&gt;Information</title>
<path fill="none" stroke="black" d="M327.08,-428.7C327.08,-420.98 327.08,-411.71 327.08,-403.11"/>
<polygon fill="black" stroke="black" points="330.58,-403.1 327.08,-393.1 323.58,-403.1 330.58,-403.1"/>
</g>
<!-- Uncertainty -->
<g id="node16" class="node">
<title>Uncertainty</title>
<g id="a_node16"><a xlink:href="https://en.wikipedia.org/wiki/Uncertainty" xlink:title="Uncertainty">
<ellipse fill="lightskyblue" stroke="lightskyblue" cx="327.08" cy="-303" rx="51.99" ry="18"/>
<text text-anchor="middle" x="327.08" y="-299.3" font-family="Times New Roman,serif" font-size="14.00">Uncertainty</text>
</a>
</g>
</g>
<!-- Information&#45;&gt;Uncertainty -->
<g id="edge15" class="edge">
<title>Information&#45;&gt;Uncertainty</title>
<path fill="none" stroke="black" d="M327.08,-356.7C327.08,-348.98 327.08,-339.71 327.08,-331.11"/>
<polygon fill="black" stroke="black" points="330.58,-331.1 327.08,-321.1 323.58,-331.1 330.58,-331.1"/>
</g>
<!-- Epistemology -->
<g id="node17" class="node">
<title>Epistemology</title>
<g id="a_node17"><a xlink:href="https://en.wikipedia.org/wiki/Epistemology" xlink:title="Epistemology">
<ellipse fill="lightskyblue" stroke="lightskyblue" cx="327.08" cy="-231" rx="60.39" ry="18"/>
<text text-anchor="middle" x="327.08" y="-227.3" font-family="Times New Roman,serif" font-size="14.00">Epistemology</text>
</a>
</g>
</g>
<!-- Uncertainty&#45;&gt;Epistemology -->
<g id="edge16" class="edge">
<title>Uncertainty&#45;&gt;Epistemology</title>
<path fill="none" stroke="black" d="M327.08,-284.7C327.08,-276.98 327.08,-267.71 327.08,-259.11"/>
<polygon fill="black" stroke="black" points="330.58,-259.1 327.08,-249.1 323.58,-259.1 330.58,-259.1"/>
</g>
<!-- Outline of philosophy -->
<g id="node18" class="node">
<title>Outline of philosophy</title>
<g id="a_node18"><a xlink:href="https://en.wikipedia.org/wiki/Outline_of_philosophy" xlink:title="Outline of philosophy">
<ellipse fill="lightskyblue" stroke="lightskyblue" cx="327.08" cy="-159" rx="89.88" ry="18"/>
<text text-anchor="middle" x="327.08" y="-155.3" font-family="Times New Roman,serif" font-size="14.00">Outline of philosophy</text>
</a>
</g>
</g>
<!-- Epistemology&#45;&gt;Outline of philosophy -->
<g id="edge17" class="edge">
<title>Epistemology&#45;&gt;Outline of philosophy</title>
<path fill="none" stroke="black" d="M327.08,-212.7C327.08,-204.98 327.08,-195.71 327.08,-187.11"/>
<polygon fill="black" stroke="black" points="330.58,-187.1 327.08,-177.1 323.58,-187.1 330.58,-187.1"/>
</g>
<!-- Philosophy -->
<g id="node19" class="node">
<title>Philosophy</title>
<g id="a_node19"><a xlink:href="https://en.wikipedia.org/wiki/Philosophy" xlink:title="Philosophy">
<ellipse fill="lightskyblue" stroke="lightskyblue" cx="327.08" cy="-87" rx="51.99" ry="18"/>
<text text-anchor="middle" x="327.08" y="-83.3" font-family="Times New Roman,serif" font-size="14.00">Philosophy</text>
</a>
</g>
</g>
<!-- Outline of philosophy&#45;&gt;Philosophy -->
<g id="edge18" class="edge">
<title>Outline of philosophy&#45;&gt;Philosophy</title>
<path fill="none" stroke="black" d="M327.08,-140.7C327.08,-132.98 327.08,-123.71 327.08,-115.11"/>
<polygon fill="black" stroke="black" points="330.58,-115.1 327.08,-105.1 323.58,-115.1 330.58,-115.1"/>
</g>
<!-- Chen Su&#45;yu -->
<g id="node20" class="node">
<title>Chen Su&#45;yu</title>
<g id="a_node20"><a xlink:href="https://en.wikipedia.org/wiki/Chen_Su-yu" xlink:title="Chen Su&#45;yu">
<ellipse fill="#b0e2ff" stroke="#b0e2ff" cx="958.08" cy="-1383" rx="53.89" ry="18"/>
<text text-anchor="middle" x="958.08" y="-1379.3" font-family="Times New Roman,serif" font-size="14.00">Chen Su&#45;yu</text>
</a>
</g>
</g>
<!-- Taiwan -->
<g id="node21" class="node">
<title>Taiwan</title>
<g id="a_node21"><a xlink:href="https://en.wikipedia.org/wiki/Taiwan" xlink:title="Taiwan">
<ellipse fill="lightskyblue" stroke="lightskyblue" cx="958.08" cy="-1311" rx="37.09" ry="18"/>
<text text-anchor="middle" x="958.08" y="-1307.3" font-family="Times New Roman,serif" font-size="14.00">Taiwan</text>
</a>
</g>
</g>
<!-- Chen Su&#45;yu&#45;&gt;Taiwan -->
<g id="edge19" class="edge">
<title>Chen Su&#45;yu&#45;&gt;Taiwan</title>
<path fill="none" stroke="black" d="M958.08,-1364.7C958.08,-1356.98 958.08,-1347.71 958.08,-1339.11"/>
<polygon fill="black" stroke="black" points="961.58,-1339.1 958.08,-1329.1 954.58,-1339.1 961.58,-1339.1"/>
</g>
<!-- East Asia -->
<g id="node22" class="node">
<title>East Asia</title>
<g id="a_node22"><a xlink:href="https://en.wikipedia.org/wiki/East_Asia" xlink:title="East Asia">
<ellipse fill="lightskyblue" stroke="lightskyblue" cx="958.08" cy="-1239" rx="44.69" ry="18"/>
<text text-anchor="middle" x="958.08" y="-1235.3" font-family="Times New Roman,serif" font-size="14.00">East Asia</text>
</a>
</g>
</g>
<!-- Taiwan&#45;&gt;East Asia -->
<g id="edge20" class="edge">
<title>Taiwan&#45;&gt;East Asia</title>
<path fill="none" stroke="black" d="M958.08,-1292.7C958.08,-1284.98 958.08,-1275.71 958.08,-1267.11"/>
<polygon fill="black" stroke="black" points="961.58,-1267.1 958.08,-1257.1 954.58,-1267.1 961.58,-1267.1"/>
</g>
<!-- East -->
<g id="node23" class="node">
<title>East</title>
<g id="a_node23"><a xlink:href="https://en.wikipedia.org/wiki/East" xlink:title="East">
<ellipse fill="lightskyblue" stroke="lightskyblue" cx="958.08" cy="-1167" rx="27" ry="18"/>
<text text-anchor="middle" x="958.08" y="-1163.3" font-family="Times New Roman,serif" font-size="14.00">East</text>
</a>
</g>
</g>
<!-- East Asia&#45;&gt;East -->
<g id="edge21" class="edge">
<title>East Asia&#45;&gt;East</title>
<path fill="none" stroke="black" d="M958.08,-1220.7C958.08,-1212.98 958.08,-1203.71 958.08,-1195.11"/>
<polygon fill="black" stroke="black" points="961.58,-1195.1 958.08,-1185.1 954.58,-1195.1 961.58,-1195.1"/>
</g>
<!-- Cardinal direction -->
<g id="node24" class="node">
<title>Cardinal direction</title>
<g id="a_node24"><a xlink:href="https://en.wikipedia.org/wiki/Cardinal_direction" xlink:title="Cardinal direction">
<ellipse fill="lightskyblue" stroke="lightskyblue" cx="958.08" cy="-1095" rx="75.29" ry="18"/>
<text text-anchor="middle" x="958.08" y="-1091.3" font-family="Times New Roman,serif" font-size="14.00">Cardinal direction</text>
</a>
</g>
</g>
<!-- East&#45;&gt;Cardinal direction -->
<g id="edge22" class="edge">
<title>East&#45;&gt;Cardinal direction</title>
<path fill="none" stroke="black" d="M958.08,-1148.7C958.08,-1140.98 958.08,-1131.71 958.08,-1123.11"/>
<polygon fill="black" stroke="black" points="961.58,-1123.1 958.08,-1113.1 954.58,-1123.1 961.58,-1123.1"/>
</g>
<!-- North -->
<g id="node25" class="node">
<title>North</title>
<g id="a_node25"><a xlink:href="https://en.wikipedia.org/wiki/North" xlink:title="North">
<ellipse fill="lightskyblue" stroke="lightskyblue" cx="958.08" cy="-1023" rx="31.7" ry="18"/>
<text text-anchor="middle" x="958.08" y="-1019.3" font-family="Times New Roman,serif" font-size="14.00">North</text>
</a>
</g>
</g>
<!-- Cardinal direction&#45;&gt;North -->
<g id="edge23" class="edge">
<title>Cardinal direction&#45;&gt;North</title>
<path fill="none" stroke="black" d="M958.08,-1076.7C958.08,-1068.98 958.08,-1059.71 958.08,-1051.11"/>
<polygon fill="black" stroke="black" points="961.58,-1051.1 958.08,-1041.1 954.58,-1051.1 961.58,-1051.1"/>
</g>
<!-- Compass points -->
<g id="node26" class="node">
<title>Compass points</title>
<g id="a_node26"><a xlink:href="https://en.wikipedia.org/wiki/Compass_points" xlink:title="Compass points">
<ellipse fill="lightskyblue" stroke="lightskyblue" cx="958.08" cy="-951" rx="70.39" ry="18"/>
<text text-anchor="middle" x="958.08" y="-947.3" font-family="Times New Roman,serif" font-size="14.00">Compass points</text>
</a>
</g>
</g>
<!-- North&#45;&gt;Compass points -->
<g id="edge24" class="edge">
<title>North&#45;&gt;Compass points</title>
<path fill="none" stroke="black" d="M958.08,-1004.7C958.08,-996.98 958.08,-987.71 958.08,-979.11"/>
<polygon fill="black" stroke="black" points="961.58,-979.1 958.08,-969.1 954.58,-979.1 961.58,-979.1"/>
</g>
<!-- Euclidean vector -->
<g id="node27" class="node">
<title>Euclidean vector</title>
<g id="a_node27"><a xlink:href="https://en.wikipedia.org/wiki/Euclidean_vector" xlink:title="Euclidean vector">
<ellipse fill="lightskyblue" stroke="lightskyblue" cx="958.08" cy="-879" rx="71.49" ry="18"/>
<text text-anchor="middle" x="958.08" y="-875.3" font-family="Times New Roman,serif" font-size="14.00">Euclidean vector</text>
</a>
</g>
</g>
<!-- Compass points&#45;&gt;Euclidean vector -->
<g id="edge25" class="edge">
<title>Compass points&#45;&gt;Euclidean vector</title>
<path fill="none" stroke="black" d="M958.08,-932.7C958.08,-924.98 958.08,-915.71 958.08,-907.11"/>
<polygon fill="black" stroke="black" points="961.58,-907.1 958.08,-897.1 954.58,-907.1 961.58,-907.1"/>
</g>
<!-- Mathematics -->
<g id="node28" class="node">
<title>Mathematics</title>
<g id="a_node28"><a xlink:href="https://en.wikipedia.org/wiki/Mathematics" xlink:title="Mathematics">
<ellipse fill="lightskyblue" stroke="lightskyblue" cx="958.08" cy="-807" rx="56.59" ry="18"/>
<text text-anchor="middle" x="958.08" y="-803.3" font-family="Times New Roman,serif" font-size="14.00">Mathematics</text>
</a>
</g>
</g>
<!-- Euclidean vector&#45;&gt;Mathematics -->
<g id="edge26" class="edge">
<title>Euclidean vector&#45;&gt;Mathematics</title>
<path fill="none" stroke="black" d="M958.08,-860.7C958.08,-852.98 958.08,-843.71 958.08,-835.11"/>
<polygon fill="black" stroke="black" points="961.58,-835.1 958.08,-825.1 954.58,-835.1 961.58,-835.1"/>
</g>
<!-- Quantity -->
<g id="node29" class="node">
<title>Quantity</title>
<g id="a_node29"><a xlink:href="https://en.wikipedia.org/wiki/Quantity" xlink:title="Quantity">
<ellipse fill="lightskyblue" stroke="lightskyblue" cx="958.08" cy="-735" rx="41.69" ry="18"/>
<text text-anchor="middle" x="958.08" y="-731.3" font-family="Times New Roman,serif" font-size="14.00">Quantity</text>
</a>
</g>
</g>
<!-- Mathematics&#45;&gt;Quantity -->
<g id="edge27" class="edge">
<title>Mathematics&#45;&gt;Quantity</title>
<path fill="none" stroke="black" d="M958.08,-788.7C958.08,-780.98 958.08,-771.71 958.08,-763.11"/>
<polygon fill="black" stroke="black" points="961.58,-763.1 958.08,-753.1 954.58,-763.1 961.58,-763.1"/>
</g>
<!-- Counting -->
<g id="node30" class="node">
<title>Counting</title>
<g id="a_node30"><a xlink:href="https://en.wikipedia.org/wiki/Counting" xlink:title="Counting">
<ellipse fill="lightskyblue" stroke="lightskyblue" cx="958.08" cy="-663" rx="44.39" ry="18"/>
<text text-anchor="middle" x="958.08" y="-659.3" font-family="Times New Roman,serif" font-size="14.00">Counting</text>
</a>
</g>
</g>
<!-- Quantity&#45;&gt;Counting -->
<g id="edge28" class="edge">
<title>Quantity&#45;&gt;Counting</title>
<path fill="none" stroke="black" d="M958.08,-716.7C958.08,-708.98 958.08,-699.71 958.08,-691.11"/>
<polygon fill="black" stroke="black" points="961.58,-691.1 958.08,-681.1 954.58,-691.1 961.58,-691.1"/>
</g>
<!-- Number -->
<g id="node31" class="node">
<title>Number</title>
<g id="a_node31"><a xlink:href="https://en.wikipedia.org/wiki/Number" xlink:title="Number">
<ellipse fill="lightskyblue" stroke="lightskyblue" cx="958.08" cy="-591" rx="40.09" ry="18"/>
<text text-anchor="middle" x="958.08" y="-587.3" font-family="Times New Roman,serif" font-size="14.00">Number</text>
</a>
</g>
</g>
<!-- Counting&#45;&gt;Number -->
<g id="edge29" class="edge">
<title>Counting&#45;&gt;Number</title>
<path fill="none" stroke="black" d="M958.08,-644.7C958.08,-636.98 958.08,-627.71 958.08,-619.11"/>
<polygon fill="black" stroke="black" points="961.58,-619.1 958.08,-609.1 954.58,-619.1 961.58,-619.1"/>
</g>
<!-- Mathematical object -->
<g id="node32" class="node">
<title>Mathematical object</title>
<g id="a_node32"><a xlink:href="https://en.wikipedia.org/wiki/Mathematical_object" xlink:title="Mathematical object">
<ellipse fill="lightskyblue" stroke="lightskyblue" cx="958.08" cy="-519" rx="83.39" ry="18"/>
<text text-anchor="middle" x="958.08" y="-515.3" font-family="Times New Roman,serif" font-size="14.00">Mathematical object</text>
</a>
</g>
</g>
<!-- Number&#45;&gt;Mathematical object -->
<g id="edge30" class="edge">
<title>Number&#45;&gt;Mathematical object</title>
<path fill="none" stroke="black" d="M958.08,-572.7C958.08,-564.98 958.08,-555.71 958.08,-547.11"/>
<polygon fill="black" stroke="black" points="961.58,-547.1 958.08,-537.1 954.58,-547.1 961.58,-547.1"/>
</g>
<!-- Abstract concept -->
<g id="node33" class="node">
<title>Abstract concept</title>
<g id="a_node33"><a xlink:href="https://en.wikipedia.org/wiki/Abstract_concept" xlink:title="Abstract concept">
<ellipse fill="lightskyblue" stroke="lightskyblue" cx="958.08" cy="-447" rx="73.39" ry="18"/>
<text text-anchor="middle" x="958.08" y="-443.3" font-family="Times New Roman,serif" font-size="14.00">Abstract concept</text>
</a>
</g>
</g>
<!-- Mathematical object&#45;&gt;Abstract concept -->
<g id="edge31" class="edge">
<title>Mathematical object&#45;&gt;Abstract concept</title>
<path fill="none" stroke="black" d="M958.08,-500.7C958.08,-492.98 958.08,-483.71 958.08,-475.11"/>
<polygon fill="black" stroke="black" points="961.58,-475.1 958.08,-465.1 954.58,-475.1 961.58,-475.1"/>
</g>
<!-- Abstraction -->
<g id="node34" class="node">
<title>Abstraction</title>
<g id="a_node34"><a xlink:href="https://en.wikipedia.org/wiki/Abstraction" xlink:title="Abstraction">
<ellipse fill="lightskyblue" stroke="lightskyblue" cx="958.08" cy="-375" rx="53.09" ry="18"/>
<text text-anchor="middle" x="958.08" y="-371.3" font-family="Times New Roman,serif" font-size="14.00">Abstraction</text>
</a>
</g>
</g>
<!-- Abstract concept&#45;&gt;Abstraction -->
<g id="edge32" class="edge">
<title>Abstract concept&#45;&gt;Abstraction</title>
<path fill="none" stroke="black" d="M958.08,-428.7C958.08,-420.98 958.08,-411.71 958.08,-403.11"/>
<polygon fill="black" stroke="black" points="961.58,-403.1 958.08,-393.1 954.58,-403.1 961.58,-403.1"/>
</g>
<!-- Rule of inference -->
<g id="node35" class="node">
<title>Rule of inference</title>
<g id="a_node35"><a xlink:href="https://en.wikipedia.org/wiki/Rule_of_inference" xlink:title="Rule of inference">
<ellipse fill="lightskyblue" stroke="lightskyblue" cx="958.08" cy="-303" rx="72.59" ry="18"/>
<text text-anchor="middle" x="958.08" y="-299.3" font-family="Times New Roman,serif" font-size="14.00">Rule of inference</text>
</a>
</g>
</g>
<!-- Abstraction&#45;&gt;Rule of inference -->
<g id="edge33" class="edge">
<title>Abstraction&#45;&gt;Rule of inference</title>
<path fill="none" stroke="black" d="M958.08,-356.7C958.08,-348.98 958.08,-339.71 958.08,-331.11"/>
<polygon fill="black" stroke="black" points="961.58,-331.1 958.08,-321.1 954.58,-331.1 961.58,-331.1"/>
</g>
<!-- Logical form -->
<g id="node36" class="node">
<title>Logical form</title>
<g id="a_node36"><a xlink:href="https://en.wikipedia.org/wiki/Logical_form" xlink:title="Logical form">
<ellipse fill="lightskyblue" stroke="lightskyblue" cx="915.08" cy="-231" rx="57.69" ry="18"/>
<text text-anchor="middle" x="915.08" y="-227.3" font-family="Times New Roman,serif" font-size="14.00">Logical form</text>
</a>
</g>
</g>
<!-- Rule of inference&#45;&gt;Logical form -->
<g id="edge34" class="edge">
<title>Rule of inference&#45;&gt;Logical form</title>
<path fill="none" stroke="black" d="M947.67,-285.05C942.6,-276.8 936.4,-266.7 930.77,-257.54"/>
<polygon fill="black" stroke="black" points="933.61,-255.48 925.39,-248.79 927.65,-259.14 933.61,-255.48"/>
</g>
<!-- Logic -->
<g id="node37" class="node">
<title>Logic</title>
<g id="a_node37"><a xlink:href="https://en.wikipedia.org/wiki/Logic" xlink:title="Logic">
<ellipse fill="lightskyblue" stroke="lightskyblue" cx="958.08" cy="-159" rx="31.7" ry="18"/>
<text text-anchor="middle" x="958.08" y="-155.3" font-family="Times New Roman,serif" font-size="14.00">Logic</text>
</a>
</g>
</g>
<!-- Logical form&#45;&gt;Logic -->
<g id="edge35" class="edge">
<title>Logical form&#45;&gt;Logic</title>
<path fill="none" stroke="black" d="M925.49,-213.05C930.69,-204.59 937.08,-194.19 942.82,-184.84"/>
<polygon fill="black" stroke="black" points="945.81,-186.66 948.06,-176.31 939.85,-183 945.81,-186.66"/>
</g>
<!-- Logic&#45;&gt;Rule of inference -->
<g id="edge36" class="edge">
<title>Logic&#45;&gt;Rule of inference</title>
<path fill="none" stroke="black" d="M967.79,-176.55C973.16,-186.7 979.31,-200.16 982.08,-213 985.46,-228.64 985.46,-233.36 982.08,-249 980.12,-258.08 976.47,-267.48 972.6,-275.8"/>
<polygon fill="black" stroke="black" points="969.35,-274.47 968.03,-284.98 975.62,-277.58 969.35,-274.47"/>
</g>
<!-- Darvill -->
<g id="node38" class="node">
<title>Darvill</title>
<g id="a_node38"><a xlink:href="https://en.wikipedia.org/wiki/Darvill" xlink:title="Darvill">
<ellipse fill="#b0e2ff" stroke="#b0e2ff" cx="112.08" cy="-1167" rx="34.39" ry="18"/>
<text text-anchor="middle" x="112.08" y="-1163.3" font-family="Times New Roman,serif" font-size="14.00">Darvill</text>
</a>
</g>
</g>
<!-- Arthur Darvill -->
<g id="node39" class="node">
<title>Arthur Darvill</title>
<g id="a_node39"><a xlink:href="https://en.wikipedia.org/wiki/Arthur_Darvill" xlink:title="Arthur Darvill">
<ellipse fill="lightskyblue" stroke="lightskyblue" cx="112.08" cy="-1095" rx="59.59" ry="18"/>
<text text-anchor="middle" x="112.08" y="-1091.3" font-family="Times New Roman,serif" font-size="14.00">Arthur Darvill</text>
</a>
</g>
</g>
<!-- Darvill&#45;&gt;Arthur Darvill -->
<g id="edge37" class="edge">
<title>Darvill&#45;&gt;Arthur Darvill</title>
<path fill="none" stroke="black" d="M112.08,-1148.7C112.08,-1140.98 112.08,-1131.71 112.08,-1123.11"/>
<polygon fill="black" stroke="black" points="115.58,-1123.1 112.08,-1113.1 108.58,-1123.1 115.58,-1123.1"/>
</g>
<!-- Rory Williams -->
<g id="node40" class="node">
<title>Rory Williams</title>
<g id="a_node40"><a xlink:href="https://en.wikipedia.org/wiki/Rory_Williams" xlink:title="Rory Williams">
<ellipse fill="lightskyblue" stroke="lightskyblue" cx="112.08" cy="-1023" rx="63.09" ry="18"/>
<text text-anchor="middle" x="112.08" y="-1019.3" font-family="Times New Roman,serif" font-size="14.00">Rory Williams</text>
</a>
</g>
</g>
<!-- Arthur Darvill&#45;&gt;Rory Williams -->
<g id="edge38" class="edge">
<title>Arthur Darvill&#45;&gt;Rory Williams</title>
<path fill="none" stroke="black" d="M112.08,-1076.7C112.08,-1068.98 112.08,-1059.71 112.08,-1051.11"/>
<polygon fill="black" stroke="black" points="115.58,-1051.1 112.08,-1041.1 108.58,-1051.1 115.58,-1051.1"/>
</g>
<!-- Fictional character -->
<g id="node41" class="node">
<title>Fictional character</title>
<g id="a_node41"><a xlink:href="https://en.wikipedia.org/wiki/Fictional_character" xlink:title="Fictional character">
<ellipse fill="lightskyblue" stroke="lightskyblue" cx="113.08" cy="-951" rx="77.19" ry="18"/>
<text text-anchor="middle" x="113.08" y="-947.3" font-family="Times New Roman,serif" font-size="14.00">Fictional character</text>
</a>
</g>
</g>
<!-- Rory Williams&#45;&gt;Fictional character -->
<g id="edge39" class="edge">
<title>Rory Williams&#45;&gt;Fictional character</title>
<path fill="none" stroke="black" d="M112.33,-1004.7C112.44,-996.98 112.57,-987.71 112.69,-979.11"/>
<polygon fill="black" stroke="black" points="116.19,-979.15 112.84,-969.1 109.19,-979.05 116.19,-979.15"/>
</g>
<!-- Fiction -->
<g id="node42" class="node">
<title>Fiction</title>
<g id="a_node42"><a xlink:href="https://en.wikipedia.org/wiki/Fiction" xlink:title="Fiction">
<ellipse fill="lightskyblue" stroke="lightskyblue" cx="116.08" cy="-879" rx="36.29" ry="18"/>
<text text-anchor="middle" x="116.08" y="-875.3" font-family="Times New Roman,serif" font-size="14.00">Fiction</text>
</a>
</g>
</g>
<!-- Fictional character&#45;&gt;Fiction -->
<g id="edge40" class="edge">
<title>Fictional character&#45;&gt;Fiction</title>
<path fill="none" stroke="black" d="M113.82,-932.7C114.15,-924.98 114.55,-915.71 114.92,-907.11"/>
<polygon fill="black" stroke="black" points="118.42,-907.25 115.35,-897.1 111.42,-906.95 118.42,-907.25"/>
</g>
<!-- Creative work -->
<g id="node43" class="node">
<title>Creative work</title>
<g id="a_node43"><a xlink:href="https://en.wikipedia.org/wiki/Creative_work" xlink:title="Creative work">
<ellipse fill="lightskyblue" stroke="lightskyblue" cx="122.08" cy="-807" rx="61.99" ry="18"/>
<text text-anchor="middle" x="122.08" y="-803.3" font-family="Times New Roman,serif" font-size="14.00">Creative work</text>
</a>
</g>
</g>
<!-- Fiction&#45;&gt;Creative work -->
<g id="edge41" class="edge">
<title>Fiction&#45;&gt;Creative work</title>
<path fill="none" stroke="black" d="M117.56,-860.7C118.23,-852.98 119.02,-843.71 119.76,-835.11"/>
<polygon fill="black" stroke="black" points="123.25,-835.37 120.61,-825.1 116.27,-834.77 123.25,-835.37"/>
</g>
<!-- Creativity -->
<g id="node44" class="node">
<title>Creativity</title>
<g id="a_node44"><a xlink:href="https://en.wikipedia.org/wiki/Creativity" xlink:title="Creativity">
<ellipse fill="lightskyblue" stroke="lightskyblue" cx="134.08" cy="-735" rx="45.49" ry="18"/>
<text text-anchor="middle" x="134.08" y="-731.3" font-family="Times New Roman,serif" font-size="14.00">Creativity</text>
</a>
</g>
</g>
<!-- Creative work&#45;&gt;Creativity -->
<g id="edge42" class="edge">
<title>Creative work&#45;&gt;Creativity</title>
<path fill="none" stroke="black" d="M125.05,-788.7C126.37,-780.98 127.96,-771.71 129.43,-763.11"/>
<polygon fill="black" stroke="black" points="132.91,-763.55 131.15,-753.1 126.01,-762.37 132.91,-763.55"/>
</g>
<!-- Psychology -->
<g id="node45" class="node">
<title>Psychology</title>
<g id="a_node45"><a xlink:href="https://en.wikipedia.org/wiki/Psychology" xlink:title="Psychology">
<ellipse fill="lightskyblue" stroke="lightskyblue" cx="170.08" cy="-663" rx="53.89" ry="18"/>
<text text-anchor="middle" x="170.08" y="-659.3" font-family="Times New Roman,serif" font-size="14.00">Psychology</text>
</a>
</g>
</g>
<!-- Creativity&#45;&gt;Psychology -->
<g id="edge43" class="edge">
<title>Creativity&#45;&gt;Psychology</title>
<path fill="none" stroke="black" d="M142.8,-717.05C147,-708.89 152.13,-698.91 156.8,-689.82"/>
<polygon fill="black" stroke="black" points="159.99,-691.28 161.45,-680.79 153.76,-688.08 159.99,-691.28"/>
</g>
<!-- Psychology&#45;&gt;Science -->
<g id="edge44" class="edge">
<title>Psychology&#45;&gt;Science</title>
<path fill="none" stroke="black" d="M201.1,-648.17C226.92,-636.66 263.72,-620.25 290.88,-608.14"/>
<polygon fill="black" stroke="black" points="292.35,-611.32 300.05,-604.05 289.5,-604.93 292.35,-611.32"/>
</g>
<!-- The Strange Case of Dr. Jekyll and Mr. Hyde (1968 film) -->
<g id="node46" class="node">
<title>The Strange Case of Dr. Jekyll and Mr. Hyde (1968 film)</title>
<g id="a_node46"><a xlink:href="https://en.wikipedia.org/wiki/The_Strange_Case_of_Dr._Jekyll_and_Mr._Hyde_(1968_film)" xlink:title="The Strange Case of Dr. Jekyll and Mr. Hyde (1968 film)">
<ellipse fill="#b0e2ff" stroke="#b0e2ff" cx="217.08" cy="-1383" rx="217.16" ry="18"/>
<text text-anchor="middle" x="217.08" y="-1379.3" font-family="Times New Roman,serif" font-size="14.00">The Strange Case of Dr. Jekyll and Mr. Hyde (1968 film)</text>
</a>
</g>
</g>
<!-- Robert Louis Stevenson -->
<g id="node47" class="node">
<title>Robert Louis Stevenson</title>
<g id="a_node47"><a xlink:href="https://en.wikipedia.org/wiki/Robert_Louis_Stevenson" xlink:title="Robert Louis Stevenson">
<ellipse fill="lightskyblue" stroke="lightskyblue" cx="264.08" cy="-1311" rx="98.58" ry="18"/>
<text text-anchor="middle" x="264.08" y="-1307.3" font-family="Times New Roman,serif" font-size="14.00">Robert Louis Stevenson</text>
</a>
</g>
</g>
<!-- The Strange Case of Dr. Jekyll and Mr. Hyde (1968 film)&#45;&gt;Robert Louis Stevenson -->
<g id="edge45" class="edge">
<title>The Strange Case of Dr. Jekyll and Mr. Hyde (1968 film)&#45;&gt;Robert Louis Stevenson</title>
<path fill="none" stroke="black" d="M228.7,-1364.7C234.22,-1356.47 240.93,-1346.48 247.01,-1337.42"/>
<polygon fill="black" stroke="black" points="249.93,-1339.36 252.6,-1329.1 244.12,-1335.46 249.93,-1339.36"/>
</g>
<!-- Andrew Lang -->
<g id="node48" class="node">
<title>Andrew Lang</title>
<g id="a_node48"><a xlink:href="https://en.wikipedia.org/wiki/Andrew_Lang" xlink:title="Andrew Lang">
<ellipse fill="lightskyblue" stroke="lightskyblue" cx="288.08" cy="-1239" rx="59.59" ry="18"/>
<text text-anchor="middle" x="288.08" y="-1235.3" font-family="Times New Roman,serif" font-size="14.00">Andrew Lang</text>
</a>
</g>
</g>
<!-- Robert Louis Stevenson&#45;&gt;Andrew Lang -->
<g id="edge46" class="edge">
<title>Robert Louis Stevenson&#45;&gt;Andrew Lang</title>
<path fill="none" stroke="black" d="M270.01,-1292.7C272.69,-1284.9 275.91,-1275.51 278.88,-1266.83"/>
<polygon fill="black" stroke="black" points="282.28,-1267.7 282.22,-1257.1 275.66,-1265.43 282.28,-1267.7"/>
</g>
<!-- Fellow of the British Academy -->
<g id="node49" class="node">
<title>Fellow of the British Academy</title>
<g id="a_node49"><a xlink:href="https://en.wikipedia.org/wiki/Fellow_of_the_British_Academy" xlink:title="Fellow of the British Academy">
<ellipse fill="lightskyblue" stroke="lightskyblue" cx="288.08" cy="-1167" rx="121.58" ry="18"/>
<text text-anchor="middle" x="288.08" y="-1163.3" font-family="Times New Roman,serif" font-size="14.00">Fellow of the British Academy</text>
</a>
</g>
</g>
<!-- Andrew Lang&#45;&gt;Fellow of the British Academy -->
<g id="edge47" class="edge">
<title>Andrew Lang&#45;&gt;Fellow of the British Academy</title>
<path fill="none" stroke="black" d="M288.08,-1220.7C288.08,-1212.98 288.08,-1203.71 288.08,-1195.11"/>
<polygon fill="black" stroke="black" points="291.58,-1195.1 288.08,-1185.1 284.58,-1195.1 291.58,-1195.1"/>
</g>
<!-- Award -->
<g id="node50" class="node">
<title>Award</title>
<g id="a_node50"><a xlink:href="https://en.wikipedia.org/wiki/Award" xlink:title="Award">
<ellipse fill="lightskyblue" stroke="lightskyblue" cx="289.08" cy="-1095" rx="35.19" ry="18"/>
<text text-anchor="middle" x="289.08" y="-1091.3" font-family="Times New Roman,serif" font-size="14.00">Award</text>
</a>
</g>
</g>
<!-- Fellow of the British Academy&#45;&gt;Award -->
<g id="edge48" class="edge">
<title>Fellow of the British Academy&#45;&gt;Award</title>
<path fill="none" stroke="black" d="M288.33,-1148.7C288.44,-1140.98 288.57,-1131.71 288.69,-1123.11"/>
<polygon fill="black" stroke="black" points="292.19,-1123.15 288.84,-1113.1 285.19,-1123.05 292.19,-1123.15"/>
</g>
<!-- Recognition (sociology) -->
<g id="node51" class="node">
<title>Recognition (sociology)</title>
<g id="a_node51"><a xlink:href="https://en.wikipedia.org/wiki/Recognition_(sociology)" xlink:title="Recognition (sociology)">
<ellipse fill="lightskyblue" stroke="lightskyblue" cx="292.08" cy="-1023" rx="98.58" ry="18"/>
<text text-anchor="middle" x="292.08" y="-1019.3" font-family="Times New Roman,serif" font-size="14.00">Recognition (sociology)</text>
</a>
</g>
</g>
<!-- Award&#45;&gt;Recognition (sociology) -->
<g id="edge49" class="edge">
<title>Award&#45;&gt;Recognition (sociology)</title>
<path fill="none" stroke="black" d="M289.82,-1076.7C290.15,-1068.98 290.55,-1059.71 290.92,-1051.11"/>
<polygon fill="black" stroke="black" points="294.42,-1051.25 291.35,-1041.1 287.42,-1050.95 294.42,-1051.25"/>
</g>
<!-- Sociology -->
<g id="node52" class="node">
<title>Sociology</title>
<g id="a_node52"><a xlink:href="https://en.wikipedia.org/wiki/Sociology" xlink:title="Sociology">
<ellipse fill="lightskyblue" stroke="lightskyblue" cx="296.08" cy="-951" rx="48.19" ry="18"/>
<text text-anchor="middle" x="296.08" y="-947.3" font-family="Times New Roman,serif" font-size="14.00">Sociology</text>
</a>
</g>
</g>
<!-- Recognition (sociology)&#45;&gt;Sociology -->
<g id="edge50" class="edge">
<title>Recognition (sociology)&#45;&gt;Sociology</title>
<path fill="none" stroke="black" d="M293.07,-1004.7C293.51,-996.98 294.04,-987.71 294.53,-979.11"/>
<polygon fill="black" stroke="black" points="298.03,-979.29 295.1,-969.1 291.04,-978.89 298.03,-979.29"/>
</g>
<!-- Sociology&#45;&gt;Society -->
<g id="edge51" class="edge">
<title>Sociology&#45;&gt;Society</title>
<path fill="none" stroke="black" d="M303.58,-933.05C307.16,-924.97 311.53,-915.12 315.52,-906.11"/>
<polygon fill="black" stroke="black" points="318.8,-907.35 319.65,-896.79 312.4,-904.52 318.8,-907.35"/>
</g>
<!-- The Entombment of Christ (Lotto) -->
<g id="node53" class="node">
<title>The Entombment of Christ (Lotto)</title>
<g id="a_node53"><a xlink:href="https://en.wikipedia.org/wiki/The_Entombment_of_Christ_(Lotto)" xlink:title="The Entombment of Christ (Lotto)">
<ellipse fill="#b0e2ff" stroke="#b0e2ff" cx="772.08" cy="-1023" rx="136.48" ry="18"/>
<text text-anchor="middle" x="772.08" y="-1019.3" font-family="Times New Roman,serif" font-size="14.00">The Entombment of Christ (Lotto)</text>
</a>
</g>
</g>
<!-- Lorenzo Lotto -->
<g id="node54" class="node">
<title>Lorenzo Lotto</title>
<g id="a_node54"><a xlink:href="https://en.wikipedia.org/wiki/Lorenzo_Lotto" xlink:title="Lorenzo Lotto">
<ellipse fill="lightskyblue" stroke="lightskyblue" cx="696.08" cy="-951" rx="63.89" ry="18"/>
<text text-anchor="middle" x="696.08" y="-947.3" font-family="Times New Roman,serif" font-size="14.00">Lorenzo Lotto</text>
</a>
</g>
</g>
<!-- The Entombment of Christ (Lotto)&#45;&gt;Lorenzo Lotto -->
<g id="edge52" class="edge">
<title>The Entombment of Christ (Lotto)&#45;&gt;Lorenzo Lotto</title>
<path fill="none" stroke="black" d="M753.68,-1005.05C743.93,-996.07 731.8,-984.9 721.19,-975.12"/>
<polygon fill="black" stroke="black" points="723.51,-972.51 713.79,-968.31 718.77,-977.66 723.51,-972.51"/>
</g>
<!-- Italy -->
<g id="node55" class="node">
<title>Italy</title>
<g id="a_node55"><a xlink:href="https://en.wikipedia.org/wiki/Italy" xlink:title="Italy">
<ellipse fill="lightskyblue" stroke="lightskyblue" cx="633.08" cy="-879" rx="27" ry="18"/>
<text text-anchor="middle" x="633.08" y="-875.3" font-family="Times New Roman,serif" font-size="14.00">Italy</text>
</a>
</g>
</g>
<!-- Lorenzo Lotto&#45;&gt;Italy -->
<g id="edge53" class="edge">
<title>Lorenzo Lotto&#45;&gt;Italy</title>
<path fill="none" stroke="black" d="M681.15,-933.41C672.88,-924.22 662.48,-912.67 653.47,-902.66"/>
<polygon fill="black" stroke="black" points="655.91,-900.13 646.62,-895.04 650.7,-904.81 655.91,-900.13"/>
</g>
<!-- Northern Italy -->
<g id="node56" class="node">
<title>Northern Italy</title>
<g id="a_node56"><a xlink:href="https://en.wikipedia.org/wiki/Northern_Italy" xlink:title="Northern Italy">
<ellipse fill="lightskyblue" stroke="lightskyblue" cx="625.08" cy="-807" rx="61.19" ry="18"/>
<text text-anchor="middle" x="625.08" y="-803.3" font-family="Times New Roman,serif" font-size="14.00">Northern Italy</text>
</a>
</g>
</g>
<!-- Italy&#45;&gt;Northern Italy -->
<g id="edge54" class="edge">
<title>Italy&#45;&gt;Northern Italy</title>
<path fill="none" stroke="black" d="M631.1,-860.7C630.22,-852.98 629.16,-843.71 628.18,-835.11"/>
<polygon fill="black" stroke="black" points="631.65,-834.64 627.04,-825.1 624.69,-835.44 631.65,-834.64"/>
</g>
<!-- Region -->
<g id="node57" class="node">
<title>Region</title>
<g id="a_node57"><a xlink:href="https://en.wikipedia.org/wiki/Region" xlink:title="Region">
<ellipse fill="lightskyblue" stroke="lightskyblue" cx="500.08" cy="-735" rx="36.29" ry="18"/>
<text text-anchor="middle" x="500.08" y="-731.3" font-family="Times New Roman,serif" font-size="14.00">Region</text>
</a>
</g>
</g>
<!-- Northern Italy&#45;&gt;Region -->
<g id="edge55" class="edge">
<title>Northern Italy&#45;&gt;Region</title>
<path fill="none" stroke="black" d="M597.96,-790.81C578.65,-780 552.64,-765.43 532.28,-754.03"/>
<polygon fill="black" stroke="black" points="533.81,-750.87 523.37,-749.04 530.39,-756.98 533.81,-750.87"/>
</g>
<!-- Geography -->
<g id="node58" class="node">
<title>Geography</title>
<g id="a_node58"><a xlink:href="https://en.wikipedia.org/wiki/Geography" xlink:title="Geography">
<ellipse fill="lightskyblue" stroke="lightskyblue" cx="484.08" cy="-663" rx="51.19" ry="18"/>
<text text-anchor="middle" x="484.08" y="-659.3" font-family="Times New Roman,serif" font-size="14.00">Geography</text>
</a>
</g>
</g>
<!-- Region&#45;&gt;Geography -->
<g id="edge56" class="edge">
<title>Region&#45;&gt;Geography</title>
<path fill="none" stroke="black" d="M496.21,-717.05C494.43,-709.26 492.27,-699.82 490.27,-691.08"/>
<polygon fill="black" stroke="black" points="493.67,-690.24 488.03,-681.28 486.85,-691.8 493.67,-690.24"/>
</g>
<!-- Geography&#45;&gt;Science -->
<g id="edge57" class="edge">
<title>Geography&#45;&gt;Science</title>
<path fill="none" stroke="black" d="M453.44,-648.34C427.65,-636.84 390.73,-620.38 363.45,-608.22"/>
<polygon fill="black" stroke="black" points="364.8,-604.98 354.24,-604.11 361.95,-611.38 364.8,-604.98"/>
</g>
</g>
</svg>
