<?xml version="1.0" encoding="UTF-8" standalone="no"?>
<!DOCTYPE svg PUBLIC "-//W3C//DTD SVG 1.1//EN"
 "http://www.w3.org/Graphics/SVG/1.1/DTD/svg11.dtd">
<!-- Generated by graphviz version 2.46.0 (20210118.1747)
 -->
<!-- Title: unix Pages: 1 -->
<svg width="570pt" height="1150pt"
 viewBox="0.00 0.00 569.79 1150.00" xmlns="http://www.w3.org/2000/svg" xmlns:xlink="http://www.w3.org/1999/xlink">
<g id="graph0" class="graph" transform="scale(1 1) rotate(0) translate(4 1146)">
<title>unix</title>
<polygon fill="white" stroke="transparent" points="-4,4 -4,-1146 565.79,-1146 565.79,4 -4,4"/>
<text text-anchor="start" x="104.89" y="-54" font-family="Times New Roman,serif" font-size="20.00">Graph generated on 08/05/2021 19:41:23.</text>
<text text-anchor="start" x="104.89" y="-32" font-family="Times New Roman,serif" font-size="20.00">Checked 5 pages. Time took: 0.81 minutes.</text>
<text text-anchor="middle" x="280.89" y="-10" font-family="Times New Roman,serif" font-size="20.00">Number of pages drawn: 43</text>
<!-- Russia -->
<g id="node1" class="node">
<title>Russia</title>
<g id="a_node1"><a xlink:href="https://en.wikipedia.org/wiki/Russia" xlink:title="Russia">
<ellipse fill="#b0e2ff" stroke="#b0e2ff" cx="66.29" cy="-1124" rx="35.19" ry="18"/>
<text text-anchor="middle" x="66.29" y="-1120.3" font-family="Times New Roman,serif" font-size="14.00">Russia</text>
</a>
</g>
</g>
<!-- Eastern Europe -->
<g id="node2" class="node">
<title>Eastern Europe</title>
<g id="a_node2"><a xlink:href="https://en.wikipedia.org/wiki/Eastern_Europe" xlink:title="Eastern Europe">
<ellipse fill="lightskyblue" stroke="lightskyblue" cx="66.29" cy="-1052" rx="66.09" ry="18"/>
<text text-anchor="middle" x="66.29" y="-1048.3" font-family="Times New Roman,serif" font-size="14.00">Eastern Europe</text>
</a>
</g>
</g>
<!-- Russia&#45;&gt;Eastern Europe -->
<g id="edge1" class="edge">
<title>Russia&#45;&gt;Eastern Europe</title>
<path fill="none" stroke="black" d="M66.29,-1105.7C66.29,-1097.98 66.29,-1088.71 66.29,-1080.11"/>
<polygon fill="black" stroke="black" points="69.79,-1080.1 66.29,-1070.1 62.79,-1080.1 69.79,-1080.1"/>
</g>
<!-- Europe -->
<g id="node3" class="node">
<title>Europe</title>
<g id="a_node3"><a xlink:href="https://en.wikipedia.org/wiki/Europe" xlink:title="Europe">
<ellipse fill="lightskyblue" stroke="lightskyblue" cx="66.29" cy="-980" rx="37.09" ry="18"/>
<text text-anchor="middle" x="66.29" y="-976.3" font-family="Times New Roman,serif" font-size="14.00">Europe</text>
</a>
</g>
</g>
<!-- Eastern Europe&#45;&gt;Europe -->
<g id="edge2" class="edge">
<title>Eastern Europe&#45;&gt;Europe</title>
<path fill="none" stroke="black" d="M66.29,-1033.7C66.29,-1025.98 66.29,-1016.71 66.29,-1008.11"/>
<polygon fill="black" stroke="black" points="69.79,-1008.1 66.29,-998.1 62.79,-1008.1 69.79,-1008.1"/>
</g>
<!-- Continent -->
<g id="node4" class="node">
<title>Continent</title>
<g id="a_node4"><a xlink:href="https://en.wikipedia.org/wiki/Continent" xlink:title="Continent">
<ellipse fill="lightskyblue" stroke="lightskyblue" cx="66.29" cy="-908" rx="46.29" ry="18"/>
<text text-anchor="middle" x="66.29" y="-904.3" font-family="Times New Roman,serif" font-size="14.00">Continent</text>
</a>
</g>
</g>
<!-- Europe&#45;&gt;Continent -->
<g id="edge3" class="edge">
<title>Europe&#45;&gt;Continent</title>
<path fill="none" stroke="black" d="M66.29,-961.7C66.29,-953.98 66.29,-944.71 66.29,-936.11"/>
<polygon fill="black" stroke="black" points="69.79,-936.1 66.29,-926.1 62.79,-936.1 69.79,-936.1"/>
</g>
<!-- Landmass -->
<g id="node5" class="node">
<title>Landmass</title>
<g id="a_node5"><a xlink:href="https://en.wikipedia.org/wiki/Landmass" xlink:title="Landmass">
<ellipse fill="lightskyblue" stroke="lightskyblue" cx="66.29" cy="-836" rx="48.19" ry="18"/>
<text text-anchor="middle" x="66.29" y="-832.3" font-family="Times New Roman,serif" font-size="14.00">Landmass</text>
</a>
</g>
</g>
<!-- Continent&#45;&gt;Landmass -->
<g id="edge4" class="edge">
<title>Continent&#45;&gt;Landmass</title>
<path fill="none" stroke="black" d="M66.29,-889.7C66.29,-881.98 66.29,-872.71 66.29,-864.11"/>
<polygon fill="black" stroke="black" points="69.79,-864.1 66.29,-854.1 62.79,-864.1 69.79,-864.1"/>
</g>
<!-- Region -->
<g id="node6" class="node">
<title>Region</title>
<g id="a_node6"><a xlink:href="https://en.wikipedia.org/wiki/Region" xlink:title="Region">
<ellipse fill="lightskyblue" stroke="lightskyblue" cx="66.29" cy="-764" rx="36.29" ry="18"/>
<text text-anchor="middle" x="66.29" y="-760.3" font-family="Times New Roman,serif" font-size="14.00">Region</text>
</a>
</g>
</g>
<!-- Landmass&#45;&gt;Region -->
<g id="edge5" class="edge">
<title>Landmass&#45;&gt;Region</title>
<path fill="none" stroke="black" d="M66.29,-817.7C66.29,-809.98 66.29,-800.71 66.29,-792.11"/>
<polygon fill="black" stroke="black" points="69.79,-792.1 66.29,-782.1 62.79,-792.1 69.79,-792.1"/>
</g>
<!-- Geography -->
<g id="node7" class="node">
<title>Geography</title>
<g id="a_node7"><a xlink:href="https://en.wikipedia.org/wiki/Geography" xlink:title="Geography">
<ellipse fill="lightskyblue" stroke="lightskyblue" cx="66.29" cy="-692" rx="51.19" ry="18"/>
<text text-anchor="middle" x="66.29" y="-688.3" font-family="Times New Roman,serif" font-size="14.00">Geography</text>
</a>
</g>
</g>
<!-- Region&#45;&gt;Geography -->
<g id="edge6" class="edge">
<title>Region&#45;&gt;Geography</title>
<path fill="none" stroke="black" d="M66.29,-745.7C66.29,-737.98 66.29,-728.71 66.29,-720.11"/>
<polygon fill="black" stroke="black" points="69.79,-720.1 66.29,-710.1 62.79,-720.1 69.79,-720.1"/>
</g>
<!-- Science -->
<g id="node8" class="node">
<title>Science</title>
<g id="a_node8"><a xlink:href="https://en.wikipedia.org/wiki/Science" xlink:title="Science">
<ellipse fill="lightskyblue" stroke="lightskyblue" cx="219.29" cy="-620" rx="38.99" ry="18"/>
<text text-anchor="middle" x="219.29" y="-616.3" font-family="Times New Roman,serif" font-size="14.00">Science</text>
</a>
</g>
</g>
<!-- Geography&#45;&gt;Science -->
<g id="edge7" class="edge">
<title>Geography&#45;&gt;Science</title>
<path fill="none" stroke="black" d="M96.16,-677.34C121.1,-665.93 156.73,-649.62 183.25,-637.49"/>
<polygon fill="black" stroke="black" points="184.94,-640.57 192.58,-633.22 182.03,-634.2 184.94,-640.57"/>
</g>
<!-- Scientific method -->
<g id="node9" class="node">
<title>Scientific method</title>
<g id="a_node9"><a xlink:href="https://en.wikipedia.org/wiki/Scientific_method" xlink:title="Scientific method">
<ellipse fill="lightskyblue" stroke="lightskyblue" cx="219.29" cy="-548" rx="74.19" ry="18"/>
<text text-anchor="middle" x="219.29" y="-544.3" font-family="Times New Roman,serif" font-size="14.00">Scientific method</text>
</a>
</g>
</g>
<!-- Science&#45;&gt;Scientific method -->
<g id="edge8" class="edge">
<title>Science&#45;&gt;Scientific method</title>
<path fill="none" stroke="black" d="M219.29,-601.7C219.29,-593.98 219.29,-584.71 219.29,-576.11"/>
<polygon fill="black" stroke="black" points="222.79,-576.1 219.29,-566.1 215.79,-576.1 222.79,-576.1"/>
</g>
<!-- Empirical evidence -->
<g id="node10" class="node">
<title>Empirical evidence</title>
<g id="a_node10"><a xlink:href="https://en.wikipedia.org/wiki/Empirical_evidence" xlink:title="Empirical evidence">
<ellipse fill="lightskyblue" stroke="lightskyblue" cx="219.29" cy="-476" rx="79.09" ry="18"/>
<text text-anchor="middle" x="219.29" y="-472.3" font-family="Times New Roman,serif" font-size="14.00">Empirical evidence</text>
</a>
</g>
</g>
<!-- Scientific method&#45;&gt;Empirical evidence -->
<g id="edge9" class="edge">
<title>Scientific method&#45;&gt;Empirical evidence</title>
<path fill="none" stroke="black" d="M219.29,-529.7C219.29,-521.98 219.29,-512.71 219.29,-504.11"/>
<polygon fill="black" stroke="black" points="222.79,-504.1 219.29,-494.1 215.79,-504.1 222.79,-504.1"/>
</g>
<!-- Information -->
<g id="node11" class="node">
<title>Information</title>
<g id="a_node11"><a xlink:href="https://en.wikipedia.org/wiki/Information" xlink:title="Information">
<ellipse fill="lightskyblue" stroke="lightskyblue" cx="220.29" cy="-404" rx="53.09" ry="18"/>
<text text-anchor="middle" x="220.29" y="-400.3" font-family="Times New Roman,serif" font-size="14.00">Information</text>
</a>
</g>
</g>
<!-- Empirical evidence&#45;&gt;Information -->
<g id="edge10" class="edge">
<title>Empirical evidence&#45;&gt;Information</title>
<path fill="none" stroke="black" d="M219.54,-457.7C219.65,-449.98 219.78,-440.71 219.91,-432.11"/>
<polygon fill="black" stroke="black" points="223.41,-432.15 220.05,-422.1 216.41,-432.05 223.41,-432.15"/>
</g>
<!-- Uncertainty -->
<g id="node12" class="node">
<title>Uncertainty</title>
<g id="a_node12"><a xlink:href="https://en.wikipedia.org/wiki/Uncertainty" xlink:title="Uncertainty">
<ellipse fill="lightskyblue" stroke="lightskyblue" cx="227.29" cy="-332" rx="51.99" ry="18"/>
<text text-anchor="middle" x="227.29" y="-328.3" font-family="Times New Roman,serif" font-size="14.00">Uncertainty</text>
</a>
</g>
</g>
<!-- Information&#45;&gt;Uncertainty -->
<g id="edge11" class="edge">
<title>Information&#45;&gt;Uncertainty</title>
<path fill="none" stroke="black" d="M222.02,-385.7C222.8,-377.98 223.72,-368.71 224.58,-360.11"/>
<polygon fill="black" stroke="black" points="228.07,-360.4 225.58,-350.1 221.11,-359.71 228.07,-360.4"/>
</g>
<!-- Epistemology -->
<g id="node13" class="node">
<title>Epistemology</title>
<g id="a_node13"><a xlink:href="https://en.wikipedia.org/wiki/Epistemology" xlink:title="Epistemology">
<ellipse fill="lightskyblue" stroke="lightskyblue" cx="231.29" cy="-260" rx="60.39" ry="18"/>
<text text-anchor="middle" x="231.29" y="-256.3" font-family="Times New Roman,serif" font-size="14.00">Epistemology</text>
</a>
</g>
</g>
<!-- Uncertainty&#45;&gt;Epistemology -->
<g id="edge12" class="edge">
<title>Uncertainty&#45;&gt;Epistemology</title>
<path fill="none" stroke="black" d="M228.28,-313.7C228.72,-305.98 229.25,-296.71 229.74,-288.11"/>
<polygon fill="black" stroke="black" points="233.24,-288.29 230.32,-278.1 226.25,-287.89 233.24,-288.29"/>
</g>
<!-- Outline of philosophy -->
<g id="node14" class="node">
<title>Outline of philosophy</title>
<g id="a_node14"><a xlink:href="https://en.wikipedia.org/wiki/Outline_of_philosophy" xlink:title="Outline of philosophy">
<ellipse fill="lightskyblue" stroke="lightskyblue" cx="233.29" cy="-188" rx="89.88" ry="18"/>
<text text-anchor="middle" x="233.29" y="-184.3" font-family="Times New Roman,serif" font-size="14.00">Outline of philosophy</text>
</a>
</g>
</g>
<!-- Epistemology&#45;&gt;Outline of philosophy -->
<g id="edge13" class="edge">
<title>Epistemology&#45;&gt;Outline of philosophy</title>
<path fill="none" stroke="black" d="M231.79,-241.7C232.01,-233.98 232.27,-224.71 232.52,-216.11"/>
<polygon fill="black" stroke="black" points="236.02,-216.2 232.81,-206.1 229.02,-216 236.02,-216.2"/>
</g>
<!-- Philosophy -->
<g id="node15" class="node">
<title>Philosophy</title>
<g id="a_node15"><a xlink:href="https://en.wikipedia.org/wiki/Philosophy" xlink:title="Philosophy">
<ellipse fill="lightskyblue" stroke="lightskyblue" cx="300.29" cy="-116" rx="51.99" ry="18"/>
<text text-anchor="middle" x="300.29" y="-112.3" font-family="Times New Roman,serif" font-size="14.00">Philosophy</text>
</a>
</g>
</g>
<!-- Outline of philosophy&#45;&gt;Philosophy -->
<g id="edge14" class="edge">
<title>Outline of philosophy&#45;&gt;Philosophy</title>
<path fill="none" stroke="black" d="M249.51,-170.05C257.95,-161.24 268.39,-150.33 277.62,-140.69"/>
<polygon fill="black" stroke="black" points="280.3,-142.95 284.69,-133.31 275.24,-138.11 280.3,-142.95"/>
</g>
<!-- Space -->
<g id="node16" class="node">
<title>Space</title>
<g id="a_node16"><a xlink:href="https://en.wikipedia.org/wiki/Space" xlink:title="Space">
<ellipse fill="#b0e2ff" stroke="#b0e2ff" cx="216.29" cy="-1124" rx="33.29" ry="18"/>
<text text-anchor="middle" x="216.29" y="-1120.3" font-family="Times New Roman,serif" font-size="14.00">Space</text>
</a>
</g>
</g>
<!-- Physical body -->
<g id="node17" class="node">
<title>Physical body</title>
<g id="a_node17"><a xlink:href="https://en.wikipedia.org/wiki/Physical_body" xlink:title="Physical body">
<ellipse fill="lightskyblue" stroke="lightskyblue" cx="216.29" cy="-1052" rx="62.29" ry="18"/>
<text text-anchor="middle" x="216.29" y="-1048.3" font-family="Times New Roman,serif" font-size="14.00">Physical body</text>
</a>
</g>
</g>
<!-- Space&#45;&gt;Physical body -->
<g id="edge15" class="edge">
<title>Space&#45;&gt;Physical body</title>
<path fill="none" stroke="black" d="M216.29,-1105.7C216.29,-1097.98 216.29,-1088.71 216.29,-1080.11"/>
<polygon fill="black" stroke="black" points="219.79,-1080.1 216.29,-1070.1 212.79,-1080.1 219.79,-1080.1"/>
</g>
<!-- Classical mechanics -->
<g id="node18" class="node">
<title>Classical mechanics</title>
<g id="a_node18"><a xlink:href="https://en.wikipedia.org/wiki/Classical_mechanics" xlink:title="Classical mechanics">
<ellipse fill="lightskyblue" stroke="lightskyblue" cx="216.29" cy="-980" rx="83.39" ry="18"/>
<text text-anchor="middle" x="216.29" y="-976.3" font-family="Times New Roman,serif" font-size="14.00">Classical mechanics</text>
</a>
</g>
</g>
<!-- Physical body&#45;&gt;Classical mechanics -->
<g id="edge16" class="edge">
<title>Physical body&#45;&gt;Classical mechanics</title>
<path fill="none" stroke="black" d="M216.29,-1033.7C216.29,-1025.98 216.29,-1016.71 216.29,-1008.11"/>
<polygon fill="black" stroke="black" points="219.79,-1008.1 216.29,-998.1 212.79,-1008.1 219.79,-1008.1"/>
</g>
<!-- Physical theory -->
<g id="node19" class="node">
<title>Physical theory</title>
<g id="a_node19"><a xlink:href="https://en.wikipedia.org/wiki/Physical_theory" xlink:title="Physical theory">
<ellipse fill="lightskyblue" stroke="lightskyblue" cx="216.29" cy="-908" rx="66.09" ry="18"/>
<text text-anchor="middle" x="216.29" y="-904.3" font-family="Times New Roman,serif" font-size="14.00">Physical theory</text>
</a>
</g>
</g>
<!-- Classical mechanics&#45;&gt;Physical theory -->
<g id="edge17" class="edge">
<title>Classical mechanics&#45;&gt;Physical theory</title>
<path fill="none" stroke="black" d="M216.29,-961.7C216.29,-953.98 216.29,-944.71 216.29,-936.11"/>
<polygon fill="black" stroke="black" points="219.79,-936.1 216.29,-926.1 212.79,-936.1 219.79,-936.1"/>
</g>
<!-- Physics -->
<g id="node20" class="node">
<title>Physics</title>
<g id="a_node20"><a xlink:href="https://en.wikipedia.org/wiki/Physics" xlink:title="Physics">
<ellipse fill="lightskyblue" stroke="lightskyblue" cx="216.29" cy="-836" rx="38.99" ry="18"/>
<text text-anchor="middle" x="216.29" y="-832.3" font-family="Times New Roman,serif" font-size="14.00">Physics</text>
</a>
</g>
</g>
<!-- Physical theory&#45;&gt;Physics -->
<g id="edge18" class="edge">
<title>Physical theory&#45;&gt;Physics</title>
<path fill="none" stroke="black" d="M216.29,-889.7C216.29,-881.98 216.29,-872.71 216.29,-864.11"/>
<polygon fill="black" stroke="black" points="219.79,-864.1 216.29,-854.1 212.79,-864.1 219.79,-864.1"/>
</g>
<!-- Natural science -->
<g id="node21" class="node">
<title>Natural science</title>
<g id="a_node21"><a xlink:href="https://en.wikipedia.org/wiki/Natural_science" xlink:title="Natural science">
<ellipse fill="lightskyblue" stroke="lightskyblue" cx="216.29" cy="-764" rx="65.79" ry="18"/>
<text text-anchor="middle" x="216.29" y="-760.3" font-family="Times New Roman,serif" font-size="14.00">Natural science</text>
</a>
</g>
</g>
<!-- Physics&#45;&gt;Natural science -->
<g id="edge19" class="edge">
<title>Physics&#45;&gt;Natural science</title>
<path fill="none" stroke="black" d="M216.29,-817.7C216.29,-809.98 216.29,-800.71 216.29,-792.11"/>
<polygon fill="black" stroke="black" points="219.79,-792.1 216.29,-782.1 212.79,-792.1 219.79,-792.1"/>
</g>
<!-- Branches of science -->
<g id="node22" class="node">
<title>Branches of science</title>
<g id="a_node22"><a xlink:href="https://en.wikipedia.org/wiki/Branches_of_science" xlink:title="Branches of science">
<ellipse fill="lightskyblue" stroke="lightskyblue" cx="219.29" cy="-692" rx="83.69" ry="18"/>
<text text-anchor="middle" x="219.29" y="-688.3" font-family="Times New Roman,serif" font-size="14.00">Branches of science</text>
</a>
</g>
</g>
<!-- Natural science&#45;&gt;Branches of science -->
<g id="edge20" class="edge">
<title>Natural science&#45;&gt;Branches of science</title>
<path fill="none" stroke="black" d="M217.04,-745.7C217.37,-737.98 217.76,-728.71 218.13,-720.11"/>
<polygon fill="black" stroke="black" points="221.63,-720.25 218.56,-710.1 214.64,-719.95 221.63,-720.25"/>
</g>
<!-- Branches of science&#45;&gt;Science -->
<g id="edge21" class="edge">
<title>Branches of science&#45;&gt;Science</title>
<path fill="none" stroke="black" d="M219.29,-673.7C219.29,-665.98 219.29,-656.71 219.29,-648.11"/>
<polygon fill="black" stroke="black" points="222.79,-648.1 219.29,-638.1 215.79,-648.1 222.79,-648.1"/>
</g>
<!-- Art -->
<g id="node23" class="node">
<title>Art</title>
<g id="a_node23"><a xlink:href="https://en.wikipedia.org/wiki/Art" xlink:title="Art">
<ellipse fill="#b0e2ff" stroke="#b0e2ff" cx="395.29" cy="-908" rx="27" ry="18"/>
<text text-anchor="middle" x="395.29" y="-904.3" font-family="Times New Roman,serif" font-size="14.00">Art</text>
</a>
</g>
</g>
<!-- Human behavior -->
<g id="node24" class="node">
<title>Human behavior</title>
<g id="a_node24"><a xlink:href="https://en.wikipedia.org/wiki/Human_behavior" xlink:title="Human behavior">
<ellipse fill="lightskyblue" stroke="lightskyblue" cx="395.29" cy="-836" rx="70.39" ry="18"/>
<text text-anchor="middle" x="395.29" y="-832.3" font-family="Times New Roman,serif" font-size="14.00">Human behavior</text>
</a>
</g>
</g>
<!-- Art&#45;&gt;Human behavior -->
<g id="edge22" class="edge">
<title>Art&#45;&gt;Human behavior</title>
<path fill="none" stroke="black" d="M395.29,-889.7C395.29,-881.98 395.29,-872.71 395.29,-864.11"/>
<polygon fill="black" stroke="black" points="398.79,-864.1 395.29,-854.1 391.79,-864.1 398.79,-864.1"/>
</g>
<!-- Energy (psychological) -->
<g id="node25" class="node">
<title>Energy (psychological)</title>
<g id="a_node25"><a xlink:href="https://en.wikipedia.org/wiki/Energy_(psychological)" xlink:title="Energy (psychological)">
<ellipse fill="lightskyblue" stroke="lightskyblue" cx="395.29" cy="-764" rx="94.78" ry="18"/>
<text text-anchor="middle" x="395.29" y="-760.3" font-family="Times New Roman,serif" font-size="14.00">Energy (psychological)</text>
</a>
</g>
</g>
<!-- Human behavior&#45;&gt;Energy (psychological) -->
<g id="edge23" class="edge">
<title>Human behavior&#45;&gt;Energy (psychological)</title>
<path fill="none" stroke="black" d="M395.29,-817.7C395.29,-809.98 395.29,-800.71 395.29,-792.11"/>
<polygon fill="black" stroke="black" points="398.79,-792.1 395.29,-782.1 391.79,-792.1 398.79,-792.1"/>
</g>
<!-- Psychology -->
<g id="node26" class="node">
<title>Psychology</title>
<g id="a_node26"><a xlink:href="https://en.wikipedia.org/wiki/Psychology" xlink:title="Psychology">
<ellipse fill="lightskyblue" stroke="lightskyblue" cx="385.29" cy="-692" rx="53.89" ry="18"/>
<text text-anchor="middle" x="385.29" y="-688.3" font-family="Times New Roman,serif" font-size="14.00">Psychology</text>
</a>
</g>
</g>
<!-- Energy (psychological)&#45;&gt;Psychology -->
<g id="edge24" class="edge">
<title>Energy (psychological)&#45;&gt;Psychology</title>
<path fill="none" stroke="black" d="M392.82,-745.7C391.72,-737.98 390.4,-728.71 389.17,-720.11"/>
<polygon fill="black" stroke="black" points="392.62,-719.51 387.74,-710.1 385.69,-720.5 392.62,-719.51"/>
</g>
<!-- Psychology&#45;&gt;Science -->
<g id="edge25" class="edge">
<title>Psychology&#45;&gt;Science</title>
<path fill="none" stroke="black" d="M353.29,-677.5C325.61,-665.83 285.58,-648.95 256.48,-636.68"/>
<polygon fill="black" stroke="black" points="257.64,-633.37 247.07,-632.71 254.92,-639.82 257.64,-633.37"/>
</g>
<!-- LeBron James -->
<g id="node27" class="node">
<title>LeBron James</title>
<g id="a_node27"><a xlink:href="https://en.wikipedia.org/wiki/LeBron_James" xlink:title="LeBron James">
<ellipse fill="#b0e2ff" stroke="#b0e2ff" cx="364.29" cy="-620" rx="62.29" ry="18"/>
<text text-anchor="middle" x="364.29" y="-616.3" font-family="Times New Roman,serif" font-size="14.00">LeBron James</text>
</a>
</g>
</g>
<!-- Basketball -->
<g id="node28" class="node">
<title>Basketball</title>
<g id="a_node28"><a xlink:href="https://en.wikipedia.org/wiki/Basketball" xlink:title="Basketball">
<ellipse fill="lightskyblue" stroke="lightskyblue" cx="365.29" cy="-548" rx="48.19" ry="18"/>
<text text-anchor="middle" x="365.29" y="-544.3" font-family="Times New Roman,serif" font-size="14.00">Basketball</text>
</a>
</g>
</g>
<!-- LeBron James&#45;&gt;Basketball -->
<g id="edge26" class="edge">
<title>LeBron James&#45;&gt;Basketball</title>
<path fill="none" stroke="black" d="M364.54,-601.7C364.65,-593.98 364.78,-584.71 364.91,-576.11"/>
<polygon fill="black" stroke="black" points="368.41,-576.15 365.05,-566.1 361.41,-576.05 368.41,-576.15"/>
</g>
<!-- Team sport -->
<g id="node29" class="node">
<title>Team sport</title>
<g id="a_node29"><a xlink:href="https://en.wikipedia.org/wiki/Team_sport" xlink:title="Team sport">
<ellipse fill="lightskyblue" stroke="lightskyblue" cx="369.29" cy="-476" rx="52.79" ry="18"/>
<text text-anchor="middle" x="369.29" y="-472.3" font-family="Times New Roman,serif" font-size="14.00">Team sport</text>
</a>
</g>
</g>
<!-- Basketball&#45;&gt;Team sport -->
<g id="edge27" class="edge">
<title>Basketball&#45;&gt;Team sport</title>
<path fill="none" stroke="black" d="M366.28,-529.7C366.72,-521.98 367.25,-512.71 367.74,-504.11"/>
<polygon fill="black" stroke="black" points="371.24,-504.29 368.32,-494.1 364.25,-503.89 371.24,-504.29"/>
</g>
<!-- Sport -->
<g id="node30" class="node">
<title>Sport</title>
<g id="a_node30"><a xlink:href="https://en.wikipedia.org/wiki/Sport" xlink:title="Sport">
<ellipse fill="lightskyblue" stroke="lightskyblue" cx="369.29" cy="-404" rx="31.4" ry="18"/>
<text text-anchor="middle" x="369.29" y="-400.3" font-family="Times New Roman,serif" font-size="14.00">Sport</text>
</a>
</g>
</g>
<!-- Team sport&#45;&gt;Sport -->
<g id="edge28" class="edge">
<title>Team sport&#45;&gt;Sport</title>
<path fill="none" stroke="black" d="M369.29,-457.7C369.29,-449.98 369.29,-440.71 369.29,-432.11"/>
<polygon fill="black" stroke="black" points="372.79,-432.1 369.29,-422.1 365.79,-432.1 372.79,-432.1"/>
</g>
<!-- Competition -->
<g id="node31" class="node">
<title>Competition</title>
<g id="a_node31"><a xlink:href="https://en.wikipedia.org/wiki/Competition" xlink:title="Competition">
<ellipse fill="lightskyblue" stroke="lightskyblue" cx="369.29" cy="-332" rx="55.79" ry="18"/>
<text text-anchor="middle" x="369.29" y="-328.3" font-family="Times New Roman,serif" font-size="14.00">Competition</text>
</a>
</g>
</g>
<!-- Sport&#45;&gt;Competition -->
<g id="edge29" class="edge">
<title>Sport&#45;&gt;Competition</title>
<path fill="none" stroke="black" d="M369.29,-385.7C369.29,-377.98 369.29,-368.71 369.29,-360.11"/>
<polygon fill="black" stroke="black" points="372.79,-360.1 369.29,-350.1 365.79,-360.1 372.79,-360.1"/>
</g>
<!-- Goal -->
<g id="node32" class="node">
<title>Goal</title>
<g id="a_node32"><a xlink:href="https://en.wikipedia.org/wiki/Goal" xlink:title="Goal">
<ellipse fill="lightskyblue" stroke="lightskyblue" cx="369.29" cy="-260" rx="28.7" ry="18"/>
<text text-anchor="middle" x="369.29" y="-256.3" font-family="Times New Roman,serif" font-size="14.00">Goal</text>
</a>
</g>
</g>
<!-- Competition&#45;&gt;Goal -->
<g id="edge30" class="edge">
<title>Competition&#45;&gt;Goal</title>
<path fill="none" stroke="black" d="M369.29,-313.7C369.29,-305.98 369.29,-296.71 369.29,-288.11"/>
<polygon fill="black" stroke="black" points="372.79,-288.1 369.29,-278.1 365.79,-288.1 372.79,-288.1"/>
</g>
<!-- Idea -->
<g id="node33" class="node">
<title>Idea</title>
<g id="a_node33"><a xlink:href="https://en.wikipedia.org/wiki/Idea" xlink:title="Idea">
<ellipse fill="lightskyblue" stroke="lightskyblue" cx="369.29" cy="-188" rx="27" ry="18"/>
<text text-anchor="middle" x="369.29" y="-184.3" font-family="Times New Roman,serif" font-size="14.00">Idea</text>
</a>
</g>
</g>
<!-- Goal&#45;&gt;Idea -->
<g id="edge31" class="edge">
<title>Goal&#45;&gt;Idea</title>
<path fill="none" stroke="black" d="M369.29,-241.7C369.29,-233.98 369.29,-224.71 369.29,-216.11"/>
<polygon fill="black" stroke="black" points="372.79,-216.1 369.29,-206.1 365.79,-216.1 372.79,-216.1"/>
</g>
<!-- Idea&#45;&gt;Philosophy -->
<g id="edge32" class="edge">
<title>Idea&#45;&gt;Philosophy</title>
<path fill="none" stroke="black" d="M355,-172.5C345.91,-163.28 333.94,-151.14 323.52,-140.56"/>
<polygon fill="black" stroke="black" points="325.77,-137.86 316.26,-133.2 320.79,-142.78 325.77,-137.86"/>
</g>
<!-- Formula One -->
<g id="node34" class="node">
<title>Formula One</title>
<g id="a_node34"><a xlink:href="https://en.wikipedia.org/wiki/Formula_One" xlink:title="Formula One">
<ellipse fill="#b0e2ff" stroke="#b0e2ff" cx="503.29" cy="-620" rx="58.49" ry="18"/>
<text text-anchor="middle" x="503.29" y="-616.3" font-family="Times New Roman,serif" font-size="14.00">Formula One</text>
</a>
</g>
</g>
<!-- Auto racing -->
<g id="node35" class="node">
<title>Auto racing</title>
<g id="a_node35"><a xlink:href="https://en.wikipedia.org/wiki/Auto_racing" xlink:title="Auto racing">
<ellipse fill="lightskyblue" stroke="lightskyblue" cx="502.29" cy="-548" rx="53.09" ry="18"/>
<text text-anchor="middle" x="502.29" y="-544.3" font-family="Times New Roman,serif" font-size="14.00">Auto racing</text>
</a>
</g>
</g>
<!-- Formula One&#45;&gt;Auto racing -->
<g id="edge33" class="edge">
<title>Formula One&#45;&gt;Auto racing</title>
<path fill="none" stroke="black" d="M503.05,-601.7C502.94,-593.98 502.8,-584.71 502.68,-576.11"/>
<polygon fill="black" stroke="black" points="506.18,-576.05 502.54,-566.1 499.18,-576.15 506.18,-576.05"/>
</g>
<!-- Motorsport -->
<g id="node36" class="node">
<title>Motorsport</title>
<g id="a_node36"><a xlink:href="https://en.wikipedia.org/wiki/Motorsport" xlink:title="Motorsport">
<ellipse fill="lightskyblue" stroke="lightskyblue" cx="500.29" cy="-476" rx="52.79" ry="18"/>
<text text-anchor="middle" x="500.29" y="-472.3" font-family="Times New Roman,serif" font-size="14.00">Motorsport</text>
</a>
</g>
</g>
<!-- Auto racing&#45;&gt;Motorsport -->
<g id="edge34" class="edge">
<title>Auto racing&#45;&gt;Motorsport</title>
<path fill="none" stroke="black" d="M501.8,-529.7C501.58,-521.98 501.31,-512.71 501.07,-504.11"/>
<polygon fill="black" stroke="black" points="504.57,-504 500.78,-494.1 497.57,-504.2 504.57,-504"/>
</g>
<!-- Sports -->
<g id="node37" class="node">
<title>Sports</title>
<g id="a_node37"><a xlink:href="https://en.wikipedia.org/wiki/Sports" xlink:title="Sports">
<ellipse fill="lightskyblue" stroke="lightskyblue" cx="472.29" cy="-404" rx="35.19" ry="18"/>
<text text-anchor="middle" x="472.29" y="-400.3" font-family="Times New Roman,serif" font-size="14.00">Sports</text>
</a>
</g>
</g>
<!-- Motorsport&#45;&gt;Sports -->
<g id="edge35" class="edge">
<title>Motorsport&#45;&gt;Sports</title>
<path fill="none" stroke="black" d="M493.52,-458.05C490.28,-449.97 486.34,-440.12 482.74,-431.11"/>
<polygon fill="black" stroke="black" points="485.97,-429.77 479.01,-421.79 479.47,-432.37 485.97,-429.77"/>
</g>
<!-- Sports&#45;&gt;Competition -->
<g id="edge36" class="edge">
<title>Sports&#45;&gt;Competition</title>
<path fill="none" stroke="black" d="M451.94,-389.17C437.27,-379.19 417.18,-365.54 400.49,-354.2"/>
<polygon fill="black" stroke="black" points="402.35,-351.23 392.11,-348.51 398.41,-357.02 402.35,-351.23"/>
</g>
</g>
</svg>
