<?xml version="1.0" encoding="UTF-8" standalone="no"?>
<!DOCTYPE svg PUBLIC "-//W3C//DTD SVG 1.1//EN"
 "http://www.w3.org/Graphics/SVG/1.1/DTD/svg11.dtd">
<!-- Generated by graphviz version 2.46.0 (20210118.1747)
 -->
<!-- Title: unix Pages: 1 -->
<svg width="742pt" height="2662pt"
 viewBox="0.00 0.00 741.58 2662.00" xmlns="http://www.w3.org/2000/svg" xmlns:xlink="http://www.w3.org/1999/xlink">
<g id="graph0" class="graph" transform="scale(1 1) rotate(0) translate(4 2658)">
<title>unix</title>
<polygon fill="white" stroke="transparent" points="-4,4 -4,-2658 737.58,-2658 737.58,4 -4,4"/>
<text text-anchor="start" x="190.79" y="-54" font-family="Times New Roman,serif" font-size="20.00">Graph generated on 08/05/2021 19:35:32.</text>
<text text-anchor="start" x="190.79" y="-32" font-family="Times New Roman,serif" font-size="20.00">Checked 5 pages. Time took: 1.04 minutes.</text>
<text text-anchor="middle" x="366.79" y="-10" font-family="Times New Roman,serif" font-size="20.00">Number of pages drawn: 65</text>
<!-- Turbonilla venusta -->
<g id="node1" class="node">
<title>Turbonilla venusta</title>
<g id="a_node1"><a xlink:href="https://en.wikipedia.org/wiki/Turbonilla_venusta" xlink:title="Turbonilla venusta">
<ellipse fill="#b0e2ff" stroke="#b0e2ff" cx="77.34" cy="-980" rx="77.19" ry="18"/>
<text text-anchor="middle" x="77.34" y="-976.3" font-family="Times New Roman,serif" font-size="14.00">Turbonilla venusta</text>
</a>
</g>
</g>
<!-- Species -->
<g id="node2" class="node">
<title>Species</title>
<g id="a_node2"><a xlink:href="https://en.wikipedia.org/wiki/Species" xlink:title="Species">
<ellipse fill="lightskyblue" stroke="lightskyblue" cx="111.34" cy="-908" rx="38.99" ry="18"/>
<text text-anchor="middle" x="111.34" y="-904.3" font-family="Times New Roman,serif" font-size="14.00">Species</text>
</a>
</g>
</g>
<!-- Turbonilla venusta&#45;&gt;Species -->
<g id="edge1" class="edge">
<title>Turbonilla venusta&#45;&gt;Species</title>
<path fill="none" stroke="black" d="M85.57,-962.05C89.54,-953.89 94.39,-943.91 98.8,-934.82"/>
<polygon fill="black" stroke="black" points="101.97,-936.31 103.19,-925.79 95.67,-933.25 101.97,-936.31"/>
</g>
<!-- Biology -->
<g id="node3" class="node">
<title>Biology</title>
<g id="a_node3"><a xlink:href="https://en.wikipedia.org/wiki/Biology" xlink:title="Biology">
<ellipse fill="lightskyblue" stroke="lightskyblue" cx="283.34" cy="-836" rx="38.99" ry="18"/>
<text text-anchor="middle" x="283.34" y="-832.3" font-family="Times New Roman,serif" font-size="14.00">Biology</text>
</a>
</g>
</g>
<!-- Species&#45;&gt;Biology -->
<g id="edge2" class="edge">
<title>Species&#45;&gt;Biology</title>
<path fill="none" stroke="black" d="M139.75,-895.44C168.71,-883.65 213.82,-865.3 245.73,-852.31"/>
<polygon fill="black" stroke="black" points="247.24,-855.47 255.18,-848.46 244.6,-848.99 247.24,-855.47"/>
</g>
<!-- Natural science -->
<g id="node4" class="node">
<title>Natural science</title>
<g id="a_node4"><a xlink:href="https://en.wikipedia.org/wiki/Natural_science" xlink:title="Natural science">
<ellipse fill="lightskyblue" stroke="lightskyblue" cx="374.34" cy="-764" rx="65.79" ry="18"/>
<text text-anchor="middle" x="374.34" y="-760.3" font-family="Times New Roman,serif" font-size="14.00">Natural science</text>
</a>
</g>
</g>
<!-- Biology&#45;&gt;Natural science -->
<g id="edge3" class="edge">
<title>Biology&#45;&gt;Natural science</title>
<path fill="none" stroke="black" d="M302.64,-820.15C314.91,-810.72 331.04,-798.31 344.89,-787.66"/>
<polygon fill="black" stroke="black" points="347.37,-790.16 353.17,-781.29 343.11,-784.61 347.37,-790.16"/>
</g>
<!-- Branches of science -->
<g id="node5" class="node">
<title>Branches of science</title>
<g id="a_node5"><a xlink:href="https://en.wikipedia.org/wiki/Branches_of_science" xlink:title="Branches of science">
<ellipse fill="lightskyblue" stroke="lightskyblue" cx="420.34" cy="-692" rx="83.69" ry="18"/>
<text text-anchor="middle" x="420.34" y="-688.3" font-family="Times New Roman,serif" font-size="14.00">Branches of science</text>
</a>
</g>
</g>
<!-- Natural science&#45;&gt;Branches of science -->
<g id="edge4" class="edge">
<title>Natural science&#45;&gt;Branches of science</title>
<path fill="none" stroke="black" d="M385.48,-746.05C390.88,-737.84 397.48,-727.79 403.48,-718.66"/>
<polygon fill="black" stroke="black" points="406.42,-720.55 408.99,-710.28 400.57,-716.71 406.42,-720.55"/>
</g>
<!-- Science -->
<g id="node6" class="node">
<title>Science</title>
<g id="a_node6"><a xlink:href="https://en.wikipedia.org/wiki/Science" xlink:title="Science">
<ellipse fill="lightskyblue" stroke="lightskyblue" cx="420.34" cy="-620" rx="38.99" ry="18"/>
<text text-anchor="middle" x="420.34" y="-616.3" font-family="Times New Roman,serif" font-size="14.00">Science</text>
</a>
</g>
</g>
<!-- Branches of science&#45;&gt;Science -->
<g id="edge5" class="edge">
<title>Branches of science&#45;&gt;Science</title>
<path fill="none" stroke="black" d="M420.34,-673.7C420.34,-665.98 420.34,-656.71 420.34,-648.11"/>
<polygon fill="black" stroke="black" points="423.84,-648.1 420.34,-638.1 416.84,-648.1 423.84,-648.1"/>
</g>
<!-- Scientific method -->
<g id="node7" class="node">
<title>Scientific method</title>
<g id="a_node7"><a xlink:href="https://en.wikipedia.org/wiki/Scientific_method" xlink:title="Scientific method">
<ellipse fill="lightskyblue" stroke="lightskyblue" cx="420.34" cy="-548" rx="74.19" ry="18"/>
<text text-anchor="middle" x="420.34" y="-544.3" font-family="Times New Roman,serif" font-size="14.00">Scientific method</text>
</a>
</g>
</g>
<!-- Science&#45;&gt;Scientific method -->
<g id="edge6" class="edge">
<title>Science&#45;&gt;Scientific method</title>
<path fill="none" stroke="black" d="M420.34,-601.7C420.34,-593.98 420.34,-584.71 420.34,-576.11"/>
<polygon fill="black" stroke="black" points="423.84,-576.1 420.34,-566.1 416.84,-576.1 423.84,-576.1"/>
</g>
<!-- Empirical evidence -->
<g id="node8" class="node">
<title>Empirical evidence</title>
<g id="a_node8"><a xlink:href="https://en.wikipedia.org/wiki/Empirical_evidence" xlink:title="Empirical evidence">
<ellipse fill="lightskyblue" stroke="lightskyblue" cx="434.34" cy="-476" rx="79.09" ry="18"/>
<text text-anchor="middle" x="434.34" y="-472.3" font-family="Times New Roman,serif" font-size="14.00">Empirical evidence</text>
</a>
</g>
</g>
<!-- Scientific method&#45;&gt;Empirical evidence -->
<g id="edge7" class="edge">
<title>Scientific method&#45;&gt;Empirical evidence</title>
<path fill="none" stroke="black" d="M423.8,-529.7C425.35,-521.98 427.2,-512.71 428.92,-504.11"/>
<polygon fill="black" stroke="black" points="432.39,-504.6 430.92,-494.1 425.53,-503.22 432.39,-504.6"/>
</g>
<!-- Information -->
<g id="node9" class="node">
<title>Information</title>
<g id="a_node9"><a xlink:href="https://en.wikipedia.org/wiki/Information" xlink:title="Information">
<ellipse fill="lightskyblue" stroke="lightskyblue" cx="439.34" cy="-404" rx="53.09" ry="18"/>
<text text-anchor="middle" x="439.34" y="-400.3" font-family="Times New Roman,serif" font-size="14.00">Information</text>
</a>
</g>
</g>
<!-- Empirical evidence&#45;&gt;Information -->
<g id="edge8" class="edge">
<title>Empirical evidence&#45;&gt;Information</title>
<path fill="none" stroke="black" d="M435.58,-457.7C436.13,-449.98 436.79,-440.71 437.41,-432.11"/>
<polygon fill="black" stroke="black" points="440.9,-432.33 438.12,-422.1 433.92,-431.83 440.9,-432.33"/>
</g>
<!-- Uncertainty -->
<g id="node10" class="node">
<title>Uncertainty</title>
<g id="a_node10"><a xlink:href="https://en.wikipedia.org/wiki/Uncertainty" xlink:title="Uncertainty">
<ellipse fill="lightskyblue" stroke="lightskyblue" cx="442.34" cy="-332" rx="51.99" ry="18"/>
<text text-anchor="middle" x="442.34" y="-328.3" font-family="Times New Roman,serif" font-size="14.00">Uncertainty</text>
</a>
</g>
</g>
<!-- Information&#45;&gt;Uncertainty -->
<g id="edge9" class="edge">
<title>Information&#45;&gt;Uncertainty</title>
<path fill="none" stroke="black" d="M440.08,-385.7C440.42,-377.98 440.81,-368.71 441.18,-360.11"/>
<polygon fill="black" stroke="black" points="444.68,-360.25 441.61,-350.1 437.69,-359.95 444.68,-360.25"/>
</g>
<!-- Epistemology -->
<g id="node11" class="node">
<title>Epistemology</title>
<g id="a_node11"><a xlink:href="https://en.wikipedia.org/wiki/Epistemology" xlink:title="Epistemology">
<ellipse fill="lightskyblue" stroke="lightskyblue" cx="443.34" cy="-260" rx="60.39" ry="18"/>
<text text-anchor="middle" x="443.34" y="-256.3" font-family="Times New Roman,serif" font-size="14.00">Epistemology</text>
</a>
</g>
</g>
<!-- Uncertainty&#45;&gt;Epistemology -->
<g id="edge10" class="edge">
<title>Uncertainty&#45;&gt;Epistemology</title>
<path fill="none" stroke="black" d="M442.59,-313.7C442.7,-305.98 442.83,-296.71 442.96,-288.11"/>
<polygon fill="black" stroke="black" points="446.46,-288.15 443.1,-278.1 439.46,-288.05 446.46,-288.15"/>
</g>
<!-- Outline of philosophy -->
<g id="node12" class="node">
<title>Outline of philosophy</title>
<g id="a_node12"><a xlink:href="https://en.wikipedia.org/wiki/Outline_of_philosophy" xlink:title="Outline of philosophy">
<ellipse fill="lightskyblue" stroke="lightskyblue" cx="444.34" cy="-188" rx="89.88" ry="18"/>
<text text-anchor="middle" x="444.34" y="-184.3" font-family="Times New Roman,serif" font-size="14.00">Outline of philosophy</text>
</a>
</g>
</g>
<!-- Epistemology&#45;&gt;Outline of philosophy -->
<g id="edge11" class="edge">
<title>Epistemology&#45;&gt;Outline of philosophy</title>
<path fill="none" stroke="black" d="M443.59,-241.7C443.7,-233.98 443.83,-224.71 443.96,-216.11"/>
<polygon fill="black" stroke="black" points="447.46,-216.15 444.1,-206.1 440.46,-216.05 447.46,-216.15"/>
</g>
<!-- Philosophy -->
<g id="node13" class="node">
<title>Philosophy</title>
<g id="a_node13"><a xlink:href="https://en.wikipedia.org/wiki/Philosophy" xlink:title="Philosophy">
<ellipse fill="lightskyblue" stroke="lightskyblue" cx="522.34" cy="-116" rx="51.99" ry="18"/>
<text text-anchor="middle" x="522.34" y="-112.3" font-family="Times New Roman,serif" font-size="14.00">Philosophy</text>
</a>
</g>
</g>
<!-- Outline of philosophy&#45;&gt;Philosophy -->
<g id="edge12" class="edge">
<title>Outline of philosophy&#45;&gt;Philosophy</title>
<path fill="none" stroke="black" d="M463.22,-170.05C473.31,-161 485.87,-149.73 496.81,-139.91"/>
<polygon fill="black" stroke="black" points="499.33,-142.35 504.44,-133.07 494.66,-137.14 499.33,-142.35"/>
</g>
<!-- Frank Mooney -->
<g id="node14" class="node">
<title>Frank Mooney</title>
<g id="a_node14"><a xlink:href="https://en.wikipedia.org/wiki/Frank_Mooney" xlink:title="Frank Mooney">
<ellipse fill="#b0e2ff" stroke="#b0e2ff" cx="177.34" cy="-2636" rx="64.19" ry="18"/>
<text text-anchor="middle" x="177.34" y="-2632.3" font-family="Times New Roman,serif" font-size="14.00">Frank Mooney</text>
</a>
</g>
</g>
<!-- New Zealand -->
<g id="node15" class="node">
<title>New Zealand</title>
<g id="a_node15"><a xlink:href="https://en.wikipedia.org/wiki/New_Zealand" xlink:title="New Zealand">
<ellipse fill="lightskyblue" stroke="lightskyblue" cx="177.34" cy="-2564" rx="57.69" ry="18"/>
<text text-anchor="middle" x="177.34" y="-2560.3" font-family="Times New Roman,serif" font-size="14.00">New Zealand</text>
</a>
</g>
</g>
<!-- Frank Mooney&#45;&gt;New Zealand -->
<g id="edge13" class="edge">
<title>Frank Mooney&#45;&gt;New Zealand</title>
<path fill="none" stroke="black" d="M177.34,-2617.7C177.34,-2609.98 177.34,-2600.71 177.34,-2592.11"/>
<polygon fill="black" stroke="black" points="180.84,-2592.1 177.34,-2582.1 173.84,-2592.1 180.84,-2592.1"/>
</g>
<!-- Island country -->
<g id="node16" class="node">
<title>Island country</title>
<g id="a_node16"><a xlink:href="https://en.wikipedia.org/wiki/Island_country" xlink:title="Island country">
<ellipse fill="lightskyblue" stroke="lightskyblue" cx="177.34" cy="-2492" rx="63.09" ry="18"/>
<text text-anchor="middle" x="177.34" y="-2488.3" font-family="Times New Roman,serif" font-size="14.00">Island country</text>
</a>
</g>
</g>
<!-- New Zealand&#45;&gt;Island country -->
<g id="edge14" class="edge">
<title>New Zealand&#45;&gt;Island country</title>
<path fill="none" stroke="black" d="M177.34,-2545.7C177.34,-2537.98 177.34,-2528.71 177.34,-2520.11"/>
<polygon fill="black" stroke="black" points="180.84,-2520.1 177.34,-2510.1 173.84,-2520.1 180.84,-2520.1"/>
</g>
<!-- Country -->
<g id="node17" class="node">
<title>Country</title>
<g id="a_node17"><a xlink:href="https://en.wikipedia.org/wiki/Country" xlink:title="Country">
<ellipse fill="lightskyblue" stroke="lightskyblue" cx="177.34" cy="-2420" rx="40.09" ry="18"/>
<text text-anchor="middle" x="177.34" y="-2416.3" font-family="Times New Roman,serif" font-size="14.00">Country</text>
</a>
</g>
</g>
<!-- Island country&#45;&gt;Country -->
<g id="edge15" class="edge">
<title>Island country&#45;&gt;Country</title>
<path fill="none" stroke="black" d="M177.34,-2473.7C177.34,-2465.98 177.34,-2456.71 177.34,-2448.11"/>
<polygon fill="black" stroke="black" points="180.84,-2448.1 177.34,-2438.1 173.84,-2448.1 180.84,-2448.1"/>
</g>
<!-- Territory -->
<g id="node18" class="node">
<title>Territory</title>
<g id="a_node18"><a xlink:href="https://en.wikipedia.org/wiki/Territory" xlink:title="Territory">
<ellipse fill="lightskyblue" stroke="lightskyblue" cx="177.34" cy="-2348" rx="42.79" ry="18"/>
<text text-anchor="middle" x="177.34" y="-2344.3" font-family="Times New Roman,serif" font-size="14.00">Territory</text>
</a>
</g>
</g>
<!-- Country&#45;&gt;Territory -->
<g id="edge16" class="edge">
<title>Country&#45;&gt;Territory</title>
<path fill="none" stroke="black" d="M177.34,-2401.7C177.34,-2393.98 177.34,-2384.71 177.34,-2376.11"/>
<polygon fill="black" stroke="black" points="180.84,-2376.1 177.34,-2366.1 173.84,-2376.1 180.84,-2376.1"/>
</g>
<!-- Administrative division -->
<g id="node19" class="node">
<title>Administrative division</title>
<g id="a_node19"><a xlink:href="https://en.wikipedia.org/wiki/Administrative_division" xlink:title="Administrative division">
<ellipse fill="lightskyblue" stroke="lightskyblue" cx="195.34" cy="-2276" rx="93.68" ry="18"/>
<text text-anchor="middle" x="195.34" y="-2272.3" font-family="Times New Roman,serif" font-size="14.00">Administrative division</text>
</a>
</g>
</g>
<!-- Territory&#45;&gt;Administrative division -->
<g id="edge17" class="edge">
<title>Territory&#45;&gt;Administrative division</title>
<path fill="none" stroke="black" d="M181.7,-2330.05C183.7,-2322.26 186.13,-2312.82 188.38,-2304.08"/>
<polygon fill="black" stroke="black" points="191.8,-2304.83 190.9,-2294.28 185.02,-2303.09 191.8,-2304.83"/>
</g>
<!-- Sovereign state -->
<g id="node20" class="node">
<title>Sovereign state</title>
<g id="a_node20"><a xlink:href="https://en.wikipedia.org/wiki/Sovereign_state" xlink:title="Sovereign state">
<ellipse fill="lightskyblue" stroke="lightskyblue" cx="272.34" cy="-2204" rx="65.79" ry="18"/>
<text text-anchor="middle" x="272.34" y="-2200.3" font-family="Times New Roman,serif" font-size="14.00">Sovereign state</text>
</a>
</g>
</g>
<!-- Administrative division&#45;&gt;Sovereign state -->
<g id="edge18" class="edge">
<title>Administrative division&#45;&gt;Sovereign state</title>
<path fill="none" stroke="black" d="M213.98,-2258.05C223.8,-2249.13 235.98,-2238.06 246.67,-2228.34"/>
<polygon fill="black" stroke="black" points="249.1,-2230.86 254.14,-2221.55 244.39,-2225.68 249.1,-2230.86"/>
</g>
<!-- Political entity -->
<g id="node21" class="node">
<title>Political entity</title>
<g id="a_node21"><a xlink:href="https://en.wikipedia.org/wiki/Political_entity" xlink:title="Political entity">
<ellipse fill="lightskyblue" stroke="lightskyblue" cx="272.34" cy="-2132" rx="61.99" ry="18"/>
<text text-anchor="middle" x="272.34" y="-2128.3" font-family="Times New Roman,serif" font-size="14.00">Political entity</text>
</a>
</g>
</g>
<!-- Sovereign state&#45;&gt;Political entity -->
<g id="edge19" class="edge">
<title>Sovereign state&#45;&gt;Political entity</title>
<path fill="none" stroke="black" d="M272.34,-2185.7C272.34,-2177.98 272.34,-2168.71 272.34,-2160.11"/>
<polygon fill="black" stroke="black" points="275.84,-2160.1 272.34,-2150.1 268.84,-2160.1 275.84,-2160.1"/>
</g>
<!-- Collective identity -->
<g id="node22" class="node">
<title>Collective identity</title>
<g id="a_node22"><a xlink:href="https://en.wikipedia.org/wiki/Collective_identity" xlink:title="Collective identity">
<ellipse fill="lightskyblue" stroke="lightskyblue" cx="272.34" cy="-2060" rx="75.29" ry="18"/>
<text text-anchor="middle" x="272.34" y="-2056.3" font-family="Times New Roman,serif" font-size="14.00">Collective identity</text>
</a>
</g>
</g>
<!-- Political entity&#45;&gt;Collective identity -->
<g id="edge20" class="edge">
<title>Political entity&#45;&gt;Collective identity</title>
<path fill="none" stroke="black" d="M272.34,-2113.7C272.34,-2105.98 272.34,-2096.71 272.34,-2088.11"/>
<polygon fill="black" stroke="black" points="275.84,-2088.1 272.34,-2078.1 268.84,-2088.1 275.84,-2088.1"/>
</g>
<!-- Belongingness -->
<g id="node23" class="node">
<title>Belongingness</title>
<g id="a_node23"><a xlink:href="https://en.wikipedia.org/wiki/Belongingness" xlink:title="Belongingness">
<ellipse fill="lightskyblue" stroke="lightskyblue" cx="272.34" cy="-1988" rx="63.09" ry="18"/>
<text text-anchor="middle" x="272.34" y="-1984.3" font-family="Times New Roman,serif" font-size="14.00">Belongingness</text>
</a>
</g>
</g>
<!-- Collective identity&#45;&gt;Belongingness -->
<g id="edge21" class="edge">
<title>Collective identity&#45;&gt;Belongingness</title>
<path fill="none" stroke="black" d="M272.34,-2041.7C272.34,-2033.98 272.34,-2024.71 272.34,-2016.11"/>
<polygon fill="black" stroke="black" points="275.84,-2016.1 272.34,-2006.1 268.84,-2016.1 275.84,-2016.1"/>
</g>
<!-- Emotional -->
<g id="node24" class="node">
<title>Emotional</title>
<g id="a_node24"><a xlink:href="https://en.wikipedia.org/wiki/Emotional" xlink:title="Emotional">
<ellipse fill="lightskyblue" stroke="lightskyblue" cx="272.34" cy="-1916" rx="47.39" ry="18"/>
<text text-anchor="middle" x="272.34" y="-1912.3" font-family="Times New Roman,serif" font-size="14.00">Emotional</text>
</a>
</g>
</g>
<!-- Belongingness&#45;&gt;Emotional -->
<g id="edge22" class="edge">
<title>Belongingness&#45;&gt;Emotional</title>
<path fill="none" stroke="black" d="M272.34,-1969.7C272.34,-1961.98 272.34,-1952.71 272.34,-1944.11"/>
<polygon fill="black" stroke="black" points="275.84,-1944.1 272.34,-1934.1 268.84,-1944.1 275.84,-1944.1"/>
</g>
<!-- Pleasure -->
<g id="node25" class="node">
<title>Pleasure</title>
<g id="a_node25"><a xlink:href="https://en.wikipedia.org/wiki/Pleasure" xlink:title="Pleasure">
<ellipse fill="lightskyblue" stroke="lightskyblue" cx="272.34" cy="-1844" rx="40.89" ry="18"/>
<text text-anchor="middle" x="272.34" y="-1840.3" font-family="Times New Roman,serif" font-size="14.00">Pleasure</text>
</a>
</g>
</g>
<!-- Emotional&#45;&gt;Pleasure -->
<g id="edge23" class="edge">
<title>Emotional&#45;&gt;Pleasure</title>
<path fill="none" stroke="black" d="M272.34,-1897.7C272.34,-1889.98 272.34,-1880.71 272.34,-1872.11"/>
<polygon fill="black" stroke="black" points="275.84,-1872.1 272.34,-1862.1 268.84,-1872.1 275.84,-1872.1"/>
</g>
<!-- Ecstasy (emotion) -->
<g id="node26" class="node">
<title>Ecstasy (emotion)</title>
<g id="a_node26"><a xlink:href="https://en.wikipedia.org/wiki/Ecstasy_(emotion)" xlink:title="Ecstasy (emotion)">
<ellipse fill="lightskyblue" stroke="lightskyblue" cx="272.34" cy="-1772" rx="76.89" ry="18"/>
<text text-anchor="middle" x="272.34" y="-1768.3" font-family="Times New Roman,serif" font-size="14.00">Ecstasy (emotion)</text>
</a>
</g>
</g>
<!-- Pleasure&#45;&gt;Ecstasy (emotion) -->
<g id="edge24" class="edge">
<title>Pleasure&#45;&gt;Ecstasy (emotion)</title>
<path fill="none" stroke="black" d="M272.34,-1825.7C272.34,-1817.98 272.34,-1808.71 272.34,-1800.11"/>
<polygon fill="black" stroke="black" points="275.84,-1800.1 272.34,-1790.1 268.84,-1800.1 275.84,-1800.1"/>
</g>
<!-- Altered state of consciousness -->
<g id="node27" class="node">
<title>Altered state of consciousness</title>
<g id="a_node27"><a xlink:href="https://en.wikipedia.org/wiki/Altered_state_of_consciousness" xlink:title="Altered state of consciousness">
<ellipse fill="lightskyblue" stroke="lightskyblue" cx="272.34" cy="-1700" rx="122.38" ry="18"/>
<text text-anchor="middle" x="272.34" y="-1696.3" font-family="Times New Roman,serif" font-size="14.00">Altered state of consciousness</text>
</a>
</g>
</g>
<!-- Ecstasy (emotion)&#45;&gt;Altered state of consciousness -->
<g id="edge25" class="edge">
<title>Ecstasy (emotion)&#45;&gt;Altered state of consciousness</title>
<path fill="none" stroke="black" d="M272.34,-1753.7C272.34,-1745.98 272.34,-1736.71 272.34,-1728.11"/>
<polygon fill="black" stroke="black" points="275.84,-1728.1 272.34,-1718.1 268.84,-1728.1 275.84,-1728.1"/>
</g>
<!-- Hypnosis -->
<g id="node28" class="node">
<title>Hypnosis</title>
<g id="a_node28"><a xlink:href="https://en.wikipedia.org/wiki/Hypnosis" xlink:title="Hypnosis">
<ellipse fill="lightskyblue" stroke="lightskyblue" cx="272.34" cy="-1628" rx="45.49" ry="18"/>
<text text-anchor="middle" x="272.34" y="-1624.3" font-family="Times New Roman,serif" font-size="14.00">Hypnosis</text>
</a>
</g>
</g>
<!-- Altered state of consciousness&#45;&gt;Hypnosis -->
<g id="edge26" class="edge">
<title>Altered state of consciousness&#45;&gt;Hypnosis</title>
<path fill="none" stroke="black" d="M272.34,-1681.7C272.34,-1673.98 272.34,-1664.71 272.34,-1656.11"/>
<polygon fill="black" stroke="black" points="275.84,-1656.1 272.34,-1646.1 268.84,-1656.1 275.84,-1656.1"/>
</g>
<!-- Attention -->
<g id="node29" class="node">
<title>Attention</title>
<g id="a_node29"><a xlink:href="https://en.wikipedia.org/wiki/Attention" xlink:title="Attention">
<ellipse fill="lightskyblue" stroke="lightskyblue" cx="272.34" cy="-1556" rx="44.39" ry="18"/>
<text text-anchor="middle" x="272.34" y="-1552.3" font-family="Times New Roman,serif" font-size="14.00">Attention</text>
</a>
</g>
</g>
<!-- Hypnosis&#45;&gt;Attention -->
<g id="edge27" class="edge">
<title>Hypnosis&#45;&gt;Attention</title>
<path fill="none" stroke="black" d="M272.34,-1609.7C272.34,-1601.98 272.34,-1592.71 272.34,-1584.11"/>
<polygon fill="black" stroke="black" points="275.84,-1584.1 272.34,-1574.1 268.84,-1584.1 275.84,-1584.1"/>
</g>
<!-- Cognition -->
<g id="node30" class="node">
<title>Cognition</title>
<g id="a_node30"><a xlink:href="https://en.wikipedia.org/wiki/Cognition" xlink:title="Cognition">
<ellipse fill="lightskyblue" stroke="lightskyblue" cx="272.34" cy="-1484" rx="46.29" ry="18"/>
<text text-anchor="middle" x="272.34" y="-1480.3" font-family="Times New Roman,serif" font-size="14.00">Cognition</text>
</a>
</g>
</g>
<!-- Attention&#45;&gt;Cognition -->
<g id="edge28" class="edge">
<title>Attention&#45;&gt;Cognition</title>
<path fill="none" stroke="black" d="M272.34,-1537.7C272.34,-1529.98 272.34,-1520.71 272.34,-1512.11"/>
<polygon fill="black" stroke="black" points="275.84,-1512.1 272.34,-1502.1 268.84,-1512.1 275.84,-1512.1"/>
</g>
<!-- Intellectual function -->
<g id="node31" class="node">
<title>Intellectual function</title>
<g id="a_node31"><a xlink:href="https://en.wikipedia.org/wiki/Intellectual_function" xlink:title="Intellectual function">
<ellipse fill="lightskyblue" stroke="lightskyblue" cx="272.34" cy="-1412" rx="81.49" ry="18"/>
<text text-anchor="middle" x="272.34" y="-1408.3" font-family="Times New Roman,serif" font-size="14.00">Intellectual function</text>
</a>
</g>
</g>
<!-- Cognition&#45;&gt;Intellectual function -->
<g id="edge29" class="edge">
<title>Cognition&#45;&gt;Intellectual function</title>
<path fill="none" stroke="black" d="M272.34,-1465.7C272.34,-1457.98 272.34,-1448.71 272.34,-1440.11"/>
<polygon fill="black" stroke="black" points="275.84,-1440.1 272.34,-1430.1 268.84,-1440.1 275.84,-1440.1"/>
</g>
<!-- Reason -->
<g id="node32" class="node">
<title>Reason</title>
<g id="a_node32"><a xlink:href="https://en.wikipedia.org/wiki/Reason" xlink:title="Reason">
<ellipse fill="lightskyblue" stroke="lightskyblue" cx="272.34" cy="-1340" rx="38.19" ry="18"/>
<text text-anchor="middle" x="272.34" y="-1336.3" font-family="Times New Roman,serif" font-size="14.00">Reason</text>
</a>
</g>
</g>
<!-- Intellectual function&#45;&gt;Reason -->
<g id="edge30" class="edge">
<title>Intellectual function&#45;&gt;Reason</title>
<path fill="none" stroke="black" d="M272.34,-1393.7C272.34,-1385.98 272.34,-1376.71 272.34,-1368.11"/>
<polygon fill="black" stroke="black" points="275.84,-1368.1 272.34,-1358.1 268.84,-1368.1 275.84,-1368.1"/>
</g>
<!-- Consciousness -->
<g id="node33" class="node">
<title>Consciousness</title>
<g id="a_node33"><a xlink:href="https://en.wikipedia.org/wiki/Consciousness" xlink:title="Consciousness">
<ellipse fill="lightskyblue" stroke="lightskyblue" cx="272.34" cy="-1268" rx="65.79" ry="18"/>
<text text-anchor="middle" x="272.34" y="-1264.3" font-family="Times New Roman,serif" font-size="14.00">Consciousness</text>
</a>
</g>
</g>
<!-- Reason&#45;&gt;Consciousness -->
<g id="edge31" class="edge">
<title>Reason&#45;&gt;Consciousness</title>
<path fill="none" stroke="black" d="M272.34,-1321.7C272.34,-1313.98 272.34,-1304.71 272.34,-1296.11"/>
<polygon fill="black" stroke="black" points="275.84,-1296.1 272.34,-1286.1 268.84,-1296.1 275.84,-1296.1"/>
</g>
<!-- Sentience -->
<g id="node34" class="node">
<title>Sentience</title>
<g id="a_node34"><a xlink:href="https://en.wikipedia.org/wiki/Sentience" xlink:title="Sentience">
<ellipse fill="lightskyblue" stroke="lightskyblue" cx="272.34" cy="-1196" rx="45.49" ry="18"/>
<text text-anchor="middle" x="272.34" y="-1192.3" font-family="Times New Roman,serif" font-size="14.00">Sentience</text>
</a>
</g>
</g>
<!-- Consciousness&#45;&gt;Sentience -->
<g id="edge32" class="edge">
<title>Consciousness&#45;&gt;Sentience</title>
<path fill="none" stroke="black" d="M272.34,-1249.7C272.34,-1241.98 272.34,-1232.71 272.34,-1224.11"/>
<polygon fill="black" stroke="black" points="275.84,-1224.1 272.34,-1214.1 268.84,-1224.1 275.84,-1224.1"/>
</g>
<!-- Feeling -->
<g id="node35" class="node">
<title>Feeling</title>
<g id="a_node35"><a xlink:href="https://en.wikipedia.org/wiki/Feeling" xlink:title="Feeling">
<ellipse fill="lightskyblue" stroke="lightskyblue" cx="272.34" cy="-1124" rx="36.29" ry="18"/>
<text text-anchor="middle" x="272.34" y="-1120.3" font-family="Times New Roman,serif" font-size="14.00">Feeling</text>
</a>
</g>
</g>
<!-- Sentience&#45;&gt;Feeling -->
<g id="edge33" class="edge">
<title>Sentience&#45;&gt;Feeling</title>
<path fill="none" stroke="black" d="M272.34,-1177.7C272.34,-1169.98 272.34,-1160.71 272.34,-1152.11"/>
<polygon fill="black" stroke="black" points="275.84,-1152.1 272.34,-1142.1 268.84,-1152.1 275.84,-1152.1"/>
</g>
<!-- Touch -->
<g id="node36" class="node">
<title>Touch</title>
<g id="a_node36"><a xlink:href="https://en.wikipedia.org/wiki/Touch" xlink:title="Touch">
<ellipse fill="lightskyblue" stroke="lightskyblue" cx="272.34" cy="-1052" rx="34.39" ry="18"/>
<text text-anchor="middle" x="272.34" y="-1048.3" font-family="Times New Roman,serif" font-size="14.00">Touch</text>
</a>
</g>
</g>
<!-- Feeling&#45;&gt;Touch -->
<g id="edge34" class="edge">
<title>Feeling&#45;&gt;Touch</title>
<path fill="none" stroke="black" d="M272.34,-1105.7C272.34,-1097.98 272.34,-1088.71 272.34,-1080.11"/>
<polygon fill="black" stroke="black" points="275.84,-1080.1 272.34,-1070.1 268.84,-1080.1 275.84,-1080.1"/>
</g>
<!-- Sensory nervous system -->
<g id="node37" class="node">
<title>Sensory nervous system</title>
<g id="a_node37"><a xlink:href="https://en.wikipedia.org/wiki/Sensory_nervous_system" xlink:title="Sensory nervous system">
<ellipse fill="lightskyblue" stroke="lightskyblue" cx="272.34" cy="-980" rx="99.38" ry="18"/>
<text text-anchor="middle" x="272.34" y="-976.3" font-family="Times New Roman,serif" font-size="14.00">Sensory nervous system</text>
</a>
</g>
</g>
<!-- Touch&#45;&gt;Sensory nervous system -->
<g id="edge35" class="edge">
<title>Touch&#45;&gt;Sensory nervous system</title>
<path fill="none" stroke="black" d="M272.34,-1033.7C272.34,-1025.98 272.34,-1016.71 272.34,-1008.11"/>
<polygon fill="black" stroke="black" points="275.84,-1008.1 272.34,-998.1 268.84,-1008.1 275.84,-1008.1"/>
</g>
<!-- Nervous system -->
<g id="node38" class="node">
<title>Nervous system</title>
<g id="a_node38"><a xlink:href="https://en.wikipedia.org/wiki/Nervous_system" xlink:title="Nervous system">
<ellipse fill="lightskyblue" stroke="lightskyblue" cx="272.34" cy="-908" rx="69.59" ry="18"/>
<text text-anchor="middle" x="272.34" y="-904.3" font-family="Times New Roman,serif" font-size="14.00">Nervous system</text>
</a>
</g>
</g>
<!-- Sensory nervous system&#45;&gt;Nervous system -->
<g id="edge36" class="edge">
<title>Sensory nervous system&#45;&gt;Nervous system</title>
<path fill="none" stroke="black" d="M272.34,-961.7C272.34,-953.98 272.34,-944.71 272.34,-936.11"/>
<polygon fill="black" stroke="black" points="275.84,-936.1 272.34,-926.1 268.84,-936.1 275.84,-936.1"/>
</g>
<!-- Nervous system&#45;&gt;Biology -->
<g id="edge37" class="edge">
<title>Nervous system&#45;&gt;Biology</title>
<path fill="none" stroke="black" d="M275.06,-889.7C276.27,-881.98 277.73,-872.71 279.08,-864.11"/>
<polygon fill="black" stroke="black" points="282.56,-864.53 280.66,-854.1 275.65,-863.44 282.56,-864.53"/>
</g>
<!-- Kohlmeyeriella -->
<g id="node39" class="node">
<title>Kohlmeyeriella</title>
<g id="a_node39"><a xlink:href="https://en.wikipedia.org/wiki/Kohlmeyeriella" xlink:title="Kohlmeyeriella">
<ellipse fill="#b0e2ff" stroke="#b0e2ff" cx="460.34" cy="-1124" rx="63.89" ry="18"/>
<text text-anchor="middle" x="460.34" y="-1120.3" font-family="Times New Roman,serif" font-size="14.00">Kohlmeyeriella</text>
</a>
</g>
</g>
<!-- Genus -->
<g id="node40" class="node">
<title>Genus</title>
<g id="a_node40"><a xlink:href="https://en.wikipedia.org/wiki/Genus" xlink:title="Genus">
<ellipse fill="lightskyblue" stroke="lightskyblue" cx="460.34" cy="-1052" rx="34.39" ry="18"/>
<text text-anchor="middle" x="460.34" y="-1048.3" font-family="Times New Roman,serif" font-size="14.00">Genus</text>
</a>
</g>
</g>
<!-- Kohlmeyeriella&#45;&gt;Genus -->
<g id="edge38" class="edge">
<title>Kohlmeyeriella&#45;&gt;Genus</title>
<path fill="none" stroke="black" d="M460.34,-1105.7C460.34,-1097.98 460.34,-1088.71 460.34,-1080.11"/>
<polygon fill="black" stroke="black" points="463.84,-1080.1 460.34,-1070.1 456.84,-1080.1 463.84,-1080.1"/>
</g>
<!-- Taxonomic rank -->
<g id="node41" class="node">
<title>Taxonomic rank</title>
<g id="a_node41"><a xlink:href="https://en.wikipedia.org/wiki/Taxonomic_rank" xlink:title="Taxonomic rank">
<ellipse fill="lightskyblue" stroke="lightskyblue" cx="460.34" cy="-980" rx="70.39" ry="18"/>
<text text-anchor="middle" x="460.34" y="-976.3" font-family="Times New Roman,serif" font-size="14.00">Taxonomic rank</text>
</a>
</g>
</g>
<!-- Genus&#45;&gt;Taxonomic rank -->
<g id="edge39" class="edge">
<title>Genus&#45;&gt;Taxonomic rank</title>
<path fill="none" stroke="black" d="M460.34,-1033.7C460.34,-1025.98 460.34,-1016.71 460.34,-1008.11"/>
<polygon fill="black" stroke="black" points="463.84,-1008.1 460.34,-998.1 456.84,-1008.1 463.84,-1008.1"/>
</g>
<!-- Biological classification -->
<g id="node42" class="node">
<title>Biological classification</title>
<g id="a_node42"><a xlink:href="https://en.wikipedia.org/wiki/Biological_classification" xlink:title="Biological classification">
<ellipse fill="lightskyblue" stroke="lightskyblue" cx="456.34" cy="-908" rx="96.38" ry="18"/>
<text text-anchor="middle" x="456.34" y="-904.3" font-family="Times New Roman,serif" font-size="14.00">Biological classification</text>
</a>
</g>
</g>
<!-- Taxonomic rank&#45;&gt;Biological classification -->
<g id="edge40" class="edge">
<title>Taxonomic rank&#45;&gt;Biological classification</title>
<path fill="none" stroke="black" d="M459.35,-961.7C458.91,-953.98 458.38,-944.71 457.89,-936.11"/>
<polygon fill="black" stroke="black" points="461.39,-935.89 457.32,-926.1 454.4,-936.29 461.39,-935.89"/>
</g>
<!-- Biological classification&#45;&gt;Biology -->
<g id="edge41" class="edge">
<title>Biological classification&#45;&gt;Biology</title>
<path fill="none" stroke="black" d="M417.95,-891.46C389.06,-879.78 349.68,-863.84 320.98,-852.23"/>
<polygon fill="black" stroke="black" points="322.27,-848.97 311.68,-848.47 319.64,-855.46 322.27,-848.97"/>
</g>
<!-- Erich Kleinschuster -->
<g id="node43" class="node">
<title>Erich Kleinschuster</title>
<g id="a_node43"><a xlink:href="https://en.wikipedia.org/wiki/Erich_Kleinschuster" xlink:title="Erich Kleinschuster">
<ellipse fill="#b0e2ff" stroke="#b0e2ff" cx="651.34" cy="-908" rx="81.49" ry="18"/>
<text text-anchor="middle" x="651.34" y="-904.3" font-family="Times New Roman,serif" font-size="14.00">Erich Kleinschuster</text>
</a>
</g>
</g>
<!-- Graz -->
<g id="node44" class="node">
<title>Graz</title>
<g id="a_node44"><a xlink:href="https://en.wikipedia.org/wiki/Graz" xlink:title="Graz">
<ellipse fill="lightskyblue" stroke="lightskyblue" cx="648.34" cy="-836" rx="28.7" ry="18"/>
<text text-anchor="middle" x="648.34" y="-832.3" font-family="Times New Roman,serif" font-size="14.00">Graz</text>
</a>
</g>
</g>
<!-- Erich Kleinschuster&#45;&gt;Graz -->
<g id="edge42" class="edge">
<title>Erich Kleinschuster&#45;&gt;Graz</title>
<path fill="none" stroke="black" d="M650.6,-889.7C650.27,-881.98 649.87,-872.71 649.51,-864.11"/>
<polygon fill="black" stroke="black" points="653,-863.95 649.08,-854.1 646.01,-864.25 653,-863.95"/>
</g>
<!-- Slovene language -->
<g id="node45" class="node">
<title>Slovene language</title>
<g id="a_node45"><a xlink:href="https://en.wikipedia.org/wiki/Slovene_language" xlink:title="Slovene language">
<ellipse fill="lightskyblue" stroke="lightskyblue" cx="645.34" cy="-764" rx="73.39" ry="18"/>
<text text-anchor="middle" x="645.34" y="-760.3" font-family="Times New Roman,serif" font-size="14.00">Slovene language</text>
</a>
</g>
</g>
<!-- Graz&#45;&gt;Slovene language -->
<g id="edge43" class="edge">
<title>Graz&#45;&gt;Slovene language</title>
<path fill="none" stroke="black" d="M647.6,-817.7C647.27,-809.98 646.87,-800.71 646.51,-792.11"/>
<polygon fill="black" stroke="black" points="650,-791.95 646.08,-782.1 643.01,-792.25 650,-791.95"/>
</g>
<!-- South Slavic languages -->
<g id="node46" class="node">
<title>South Slavic languages</title>
<g id="a_node46"><a xlink:href="https://en.wikipedia.org/wiki/South_Slavic_languages" xlink:title="South Slavic languages">
<ellipse fill="lightskyblue" stroke="lightskyblue" cx="639.34" cy="-692" rx="94.48" ry="18"/>
<text text-anchor="middle" x="639.34" y="-688.3" font-family="Times New Roman,serif" font-size="14.00">South Slavic languages</text>
</a>
</g>
</g>
<!-- Slovene language&#45;&gt;South Slavic languages -->
<g id="edge44" class="edge">
<title>Slovene language&#45;&gt;South Slavic languages</title>
<path fill="none" stroke="black" d="M643.86,-745.7C643.2,-737.98 642.4,-728.71 641.67,-720.11"/>
<polygon fill="black" stroke="black" points="645.15,-719.77 640.81,-710.1 638.18,-720.37 645.15,-719.77"/>
</g>
<!-- Slavic languages -->
<g id="node47" class="node">
<title>Slavic languages</title>
<g id="a_node47"><a xlink:href="https://en.wikipedia.org/wiki/Slavic_languages" xlink:title="Slavic languages">
<ellipse fill="lightskyblue" stroke="lightskyblue" cx="627.34" cy="-620" rx="70.39" ry="18"/>
<text text-anchor="middle" x="627.34" y="-616.3" font-family="Times New Roman,serif" font-size="14.00">Slavic languages</text>
</a>
</g>
</g>
<!-- South Slavic languages&#45;&gt;Slavic languages -->
<g id="edge45" class="edge">
<title>South Slavic languages&#45;&gt;Slavic languages</title>
<path fill="none" stroke="black" d="M636.38,-673.7C635.05,-665.98 633.47,-656.71 631.99,-648.11"/>
<polygon fill="black" stroke="black" points="635.41,-647.37 630.28,-638.1 628.52,-648.55 635.41,-647.37"/>
</g>
<!-- Indo&#45;European languages -->
<g id="node48" class="node">
<title>Indo&#45;European languages</title>
<g id="a_node48"><a xlink:href="https://en.wikipedia.org/wiki/Indo-European_languages" xlink:title="Indo&#45;European languages">
<ellipse fill="lightskyblue" stroke="lightskyblue" cx="615.34" cy="-548" rx="102.88" ry="18"/>
<text text-anchor="middle" x="615.34" y="-544.3" font-family="Times New Roman,serif" font-size="14.00">Indo&#45;European languages</text>
</a>
</g>
</g>
<!-- Slavic languages&#45;&gt;Indo&#45;European languages -->
<g id="edge46" class="edge">
<title>Slavic languages&#45;&gt;Indo&#45;European languages</title>
<path fill="none" stroke="black" d="M624.38,-601.7C623.05,-593.98 621.47,-584.71 619.99,-576.11"/>
<polygon fill="black" stroke="black" points="623.41,-575.37 618.28,-566.1 616.52,-576.55 623.41,-575.37"/>
</g>
<!-- Language family -->
<g id="node49" class="node">
<title>Language family</title>
<g id="a_node49"><a xlink:href="https://en.wikipedia.org/wiki/Language_family" xlink:title="Language family">
<ellipse fill="lightskyblue" stroke="lightskyblue" cx="608.34" cy="-476" rx="69.59" ry="18"/>
<text text-anchor="middle" x="608.34" y="-472.3" font-family="Times New Roman,serif" font-size="14.00">Language family</text>
</a>
</g>
</g>
<!-- Indo&#45;European languages&#45;&gt;Language family -->
<g id="edge47" class="edge">
<title>Indo&#45;European languages&#45;&gt;Language family</title>
<path fill="none" stroke="black" d="M613.61,-529.7C612.84,-521.98 611.91,-512.71 611.05,-504.11"/>
<polygon fill="black" stroke="black" points="614.53,-503.71 610.05,-494.1 607.57,-504.4 614.53,-503.71"/>
</g>
<!-- Language -->
<g id="node50" class="node">
<title>Language</title>
<g id="a_node50"><a xlink:href="https://en.wikipedia.org/wiki/Language" xlink:title="Language">
<ellipse fill="lightskyblue" stroke="lightskyblue" cx="606.34" cy="-404" rx="45.49" ry="18"/>
<text text-anchor="middle" x="606.34" y="-400.3" font-family="Times New Roman,serif" font-size="14.00">Language</text>
</a>
</g>
</g>
<!-- Language family&#45;&gt;Language -->
<g id="edge48" class="edge">
<title>Language family&#45;&gt;Language</title>
<path fill="none" stroke="black" d="M607.85,-457.7C607.63,-449.98 607.36,-440.71 607.12,-432.11"/>
<polygon fill="black" stroke="black" points="610.62,-432 606.83,-422.1 603.62,-432.2 610.62,-432"/>
</g>
<!-- Writing -->
<g id="node51" class="node">
<title>Writing</title>
<g id="a_node51"><a xlink:href="https://en.wikipedia.org/wiki/Writing" xlink:title="Writing">
<ellipse fill="lightskyblue" stroke="lightskyblue" cx="606.34" cy="-332" rx="37.89" ry="18"/>
<text text-anchor="middle" x="606.34" y="-328.3" font-family="Times New Roman,serif" font-size="14.00">Writing</text>
</a>
</g>
</g>
<!-- Language&#45;&gt;Writing -->
<g id="edge49" class="edge">
<title>Language&#45;&gt;Writing</title>
<path fill="none" stroke="black" d="M606.34,-385.7C606.34,-377.98 606.34,-368.71 606.34,-360.11"/>
<polygon fill="black" stroke="black" points="609.84,-360.1 606.34,-350.1 602.84,-360.1 609.84,-360.1"/>
</g>
<!-- Communication -->
<g id="node52" class="node">
<title>Communication</title>
<g id="a_node52"><a xlink:href="https://en.wikipedia.org/wiki/Communication" xlink:title="Communication">
<ellipse fill="lightskyblue" stroke="lightskyblue" cx="604.34" cy="-260" rx="68.49" ry="18"/>
<text text-anchor="middle" x="604.34" y="-256.3" font-family="Times New Roman,serif" font-size="14.00">Communication</text>
</a>
</g>
</g>
<!-- Writing&#45;&gt;Communication -->
<g id="edge50" class="edge">
<title>Writing&#45;&gt;Communication</title>
<path fill="none" stroke="black" d="M605.85,-313.7C605.63,-305.98 605.36,-296.71 605.12,-288.11"/>
<polygon fill="black" stroke="black" points="608.62,-288 604.83,-278.1 601.62,-288.2 608.62,-288"/>
</g>
<!-- Semantics -->
<g id="node53" class="node">
<title>Semantics</title>
<g id="a_node53"><a xlink:href="https://en.wikipedia.org/wiki/Semantics" xlink:title="Semantics">
<ellipse fill="lightskyblue" stroke="lightskyblue" cx="600.34" cy="-188" rx="48.19" ry="18"/>
<text text-anchor="middle" x="600.34" y="-184.3" font-family="Times New Roman,serif" font-size="14.00">Semantics</text>
</a>
</g>
</g>
<!-- Communication&#45;&gt;Semantics -->
<g id="edge51" class="edge">
<title>Communication&#45;&gt;Semantics</title>
<path fill="none" stroke="black" d="M603.35,-241.7C602.91,-233.98 602.38,-224.71 601.89,-216.11"/>
<polygon fill="black" stroke="black" points="605.39,-215.89 601.32,-206.1 598.4,-216.29 605.39,-215.89"/>
</g>
<!-- Semantics&#45;&gt;Philosophy -->
<g id="edge52" class="edge">
<title>Semantics&#45;&gt;Philosophy</title>
<path fill="none" stroke="black" d="M582.64,-171.12C572.35,-161.87 559.19,-150.07 547.79,-139.84"/>
<polygon fill="black" stroke="black" points="550.02,-137.14 540.24,-133.06 545.35,-142.35 550.02,-137.14"/>
</g>
<!-- Bill Mather&#45;Brown -->
<g id="node54" class="node">
<title>Bill Mather&#45;Brown</title>
<g id="a_node54"><a xlink:href="https://en.wikipedia.org/wiki/Bill_Mather-Brown" xlink:title="Bill Mather&#45;Brown">
<ellipse fill="#b0e2ff" stroke="#b0e2ff" cx="367.34" cy="-2564" rx="77.19" ry="18"/>
<text text-anchor="middle" x="367.34" y="-2560.3" font-family="Times New Roman,serif" font-size="14.00">Bill Mather&#45;Brown</text>
</a>
</g>
</g>
<!-- Fremantle -->
<g id="node55" class="node">
<title>Fremantle</title>
<g id="a_node55"><a xlink:href="https://en.wikipedia.org/wiki/Fremantle" xlink:title="Fremantle">
<ellipse fill="lightskyblue" stroke="lightskyblue" cx="367.34" cy="-2492" rx="46.29" ry="18"/>
<text text-anchor="middle" x="367.34" y="-2488.3" font-family="Times New Roman,serif" font-size="14.00">Fremantle</text>
</a>
</g>
</g>
<!-- Bill Mather&#45;Brown&#45;&gt;Fremantle -->
<g id="edge53" class="edge">
<title>Bill Mather&#45;Brown&#45;&gt;Fremantle</title>
<path fill="none" stroke="black" d="M367.34,-2545.7C367.34,-2537.98 367.34,-2528.71 367.34,-2520.11"/>
<polygon fill="black" stroke="black" points="370.84,-2520.1 367.34,-2510.1 363.84,-2520.1 370.84,-2520.1"/>
</g>
<!-- Western Australia -->
<g id="node56" class="node">
<title>Western Australia</title>
<g id="a_node56"><a xlink:href="https://en.wikipedia.org/wiki/Western_Australia" xlink:title="Western Australia">
<ellipse fill="lightskyblue" stroke="lightskyblue" cx="367.34" cy="-2420" rx="75.29" ry="18"/>
<text text-anchor="middle" x="367.34" y="-2416.3" font-family="Times New Roman,serif" font-size="14.00">Western Australia</text>
</a>
</g>
</g>
<!-- Fremantle&#45;&gt;Western Australia -->
<g id="edge54" class="edge">
<title>Fremantle&#45;&gt;Western Australia</title>
<path fill="none" stroke="black" d="M367.34,-2473.7C367.34,-2465.98 367.34,-2456.71 367.34,-2448.11"/>
<polygon fill="black" stroke="black" points="370.84,-2448.1 367.34,-2438.1 363.84,-2448.1 370.84,-2448.1"/>
</g>
<!-- States and territories of Australia -->
<g id="node57" class="node">
<title>States and territories of Australia</title>
<g id="a_node57"><a xlink:href="https://en.wikipedia.org/wiki/States_and_territories_of_Australia" xlink:title="States and territories of Australia">
<ellipse fill="lightskyblue" stroke="lightskyblue" cx="367.34" cy="-2348" rx="129.18" ry="18"/>
<text text-anchor="middle" x="367.34" y="-2344.3" font-family="Times New Roman,serif" font-size="14.00">States and territories of Australia</text>
</a>
</g>
</g>
<!-- Western Australia&#45;&gt;States and territories of Australia -->
<g id="edge55" class="edge">
<title>Western Australia&#45;&gt;States and territories of Australia</title>
<path fill="none" stroke="black" d="M367.34,-2401.7C367.34,-2393.98 367.34,-2384.71 367.34,-2376.11"/>
<polygon fill="black" stroke="black" points="370.84,-2376.1 367.34,-2366.1 363.84,-2376.1 370.84,-2376.1"/>
</g>
<!-- Australia -->
<g id="node58" class="node">
<title>Australia</title>
<g id="a_node58"><a xlink:href="https://en.wikipedia.org/wiki/Australia" xlink:title="Australia">
<ellipse fill="lightskyblue" stroke="lightskyblue" cx="358.34" cy="-2276" rx="42.49" ry="18"/>
<text text-anchor="middle" x="358.34" y="-2272.3" font-family="Times New Roman,serif" font-size="14.00">Australia</text>
</a>
</g>
</g>
<!-- States and territories of Australia&#45;&gt;Australia -->
<g id="edge56" class="edge">
<title>States and territories of Australia&#45;&gt;Australia</title>
<path fill="none" stroke="black" d="M365.12,-2329.7C364.13,-2321.98 362.93,-2312.71 361.83,-2304.11"/>
<polygon fill="black" stroke="black" points="365.29,-2303.58 360.54,-2294.1 358.35,-2304.47 365.29,-2303.58"/>
</g>
<!-- Australia&#45;&gt;Sovereign state -->
<g id="edge57" class="edge">
<title>Australia&#45;&gt;Sovereign state</title>
<path fill="none" stroke="black" d="M339.68,-2259.81C328.25,-2250.51 313.41,-2238.42 300.56,-2227.97"/>
<polygon fill="black" stroke="black" points="302.43,-2224.98 292.47,-2221.38 298.01,-2230.41 302.43,-2224.98"/>
</g>
</g>
</svg>
