<?xml version="1.0" encoding="UTF-8" standalone="no"?>
<!DOCTYPE svg PUBLIC "-//W3C//DTD SVG 1.1//EN"
 "http://www.w3.org/Graphics/SVG/1.1/DTD/svg11.dtd">
<!-- Generated by graphviz version 2.46.0 (20210118.1747)
 -->
<!-- Title: unix Pages: 1 -->
<svg width="1256pt" height="1222pt"
 viewBox="0.00 0.00 1255.98 1222.00" xmlns="http://www.w3.org/2000/svg" xmlns:xlink="http://www.w3.org/1999/xlink">
<g id="graph0" class="graph" transform="scale(1 1) rotate(0) translate(4 1218)">
<title>unix</title>
<polygon fill="white" stroke="transparent" points="-4,4 -4,-1218 1251.98,-1218 1251.98,4 -4,4"/>
<text text-anchor="start" x="447.99" y="-54" font-family="Times New Roman,serif" font-size="20.00">Graph generated on 09/05/2021 14:59:12.</text>
<text text-anchor="start" x="447.99" y="-32" font-family="Times New Roman,serif" font-size="20.00">Checked 6 pages. Time took: 1.05 minutes.</text>
<text text-anchor="middle" x="623.99" y="-10" font-family="Times New Roman,serif" font-size="20.00">Number of pages drawn: 59</text>
<!-- Little Summer Island -->
<g id="node1" class="node">
<title>Little Summer Island</title>
<g id="a_node1"><a xlink:href="https://en.wikipedia.org/wiki/Little_Summer_Island" xlink:title="Little Summer Island">
<ellipse fill="#b0e2ff" stroke="#b0e2ff" cx="85.79" cy="-1196" rx="85.59" ry="18"/>
<text text-anchor="middle" x="85.79" y="-1192.3" font-family="Times New Roman,serif" font-size="14.00">Little Summer Island</text>
</a>
</g>
</g>
<!-- Lake Michigan -->
<g id="node2" class="node">
<title>Lake Michigan</title>
<g id="a_node2"><a xlink:href="https://en.wikipedia.org/wiki/Lake_Michigan" xlink:title="Lake Michigan">
<ellipse fill="lightskyblue" stroke="lightskyblue" cx="85.79" cy="-1124" rx="63.89" ry="18"/>
<text text-anchor="middle" x="85.79" y="-1120.3" font-family="Times New Roman,serif" font-size="14.00">Lake Michigan</text>
</a>
</g>
</g>
<!-- Little Summer Island&#45;&gt;Lake Michigan -->
<g id="edge1" class="edge">
<title>Little Summer Island&#45;&gt;Lake Michigan</title>
<path fill="none" stroke="black" d="M85.79,-1177.7C85.79,-1169.98 85.79,-1160.71 85.79,-1152.11"/>
<polygon fill="black" stroke="black" points="89.29,-1152.1 85.79,-1142.1 82.29,-1152.1 89.29,-1152.1"/>
</g>
<!-- Great Lakes -->
<g id="node3" class="node">
<title>Great Lakes</title>
<g id="a_node3"><a xlink:href="https://en.wikipedia.org/wiki/Great_Lakes" xlink:title="Great Lakes">
<ellipse fill="lightskyblue" stroke="lightskyblue" cx="85.79" cy="-1052" rx="54.69" ry="18"/>
<text text-anchor="middle" x="85.79" y="-1048.3" font-family="Times New Roman,serif" font-size="14.00">Great Lakes</text>
</a>
</g>
</g>
<!-- Lake Michigan&#45;&gt;Great Lakes -->
<g id="edge2" class="edge">
<title>Lake Michigan&#45;&gt;Great Lakes</title>
<path fill="none" stroke="black" d="M85.79,-1105.7C85.79,-1097.98 85.79,-1088.71 85.79,-1080.11"/>
<polygon fill="black" stroke="black" points="89.29,-1080.1 85.79,-1070.1 82.29,-1080.1 89.29,-1080.1"/>
</g>
<!-- Fresh water -->
<g id="node4" class="node">
<title>Fresh water</title>
<g id="a_node4"><a xlink:href="https://en.wikipedia.org/wiki/Fresh_water" xlink:title="Fresh water">
<ellipse fill="lightskyblue" stroke="lightskyblue" cx="85.79" cy="-980" rx="53.09" ry="18"/>
<text text-anchor="middle" x="85.79" y="-976.3" font-family="Times New Roman,serif" font-size="14.00">Fresh water</text>
</a>
</g>
</g>
<!-- Great Lakes&#45;&gt;Fresh water -->
<g id="edge3" class="edge">
<title>Great Lakes&#45;&gt;Fresh water</title>
<path fill="none" stroke="black" d="M85.79,-1033.7C85.79,-1025.98 85.79,-1016.71 85.79,-1008.11"/>
<polygon fill="black" stroke="black" points="89.29,-1008.1 85.79,-998.1 82.29,-1008.1 89.29,-1008.1"/>
</g>
<!-- Water -->
<g id="node5" class="node">
<title>Water</title>
<g id="a_node5"><a xlink:href="https://en.wikipedia.org/wiki/Water" xlink:title="Water">
<ellipse fill="lightskyblue" stroke="lightskyblue" cx="101.79" cy="-908" rx="32.49" ry="18"/>
<text text-anchor="middle" x="101.79" y="-904.3" font-family="Times New Roman,serif" font-size="14.00">Water</text>
</a>
</g>
</g>
<!-- Fresh water&#45;&gt;Water -->
<g id="edge4" class="edge">
<title>Fresh water&#45;&gt;Water</title>
<path fill="none" stroke="black" d="M89.75,-961.7C91.51,-953.98 93.63,-944.71 95.6,-936.11"/>
<polygon fill="black" stroke="black" points="99.07,-936.63 97.88,-926.1 92.24,-935.07 99.07,-936.63"/>
</g>
<!-- Inorganic compound -->
<g id="node6" class="node">
<title>Inorganic compound</title>
<g id="a_node6"><a xlink:href="https://en.wikipedia.org/wiki/Inorganic_compound" xlink:title="Inorganic compound">
<ellipse fill="lightskyblue" stroke="lightskyblue" cx="134.79" cy="-836" rx="87.18" ry="18"/>
<text text-anchor="middle" x="134.79" y="-832.3" font-family="Times New Roman,serif" font-size="14.00">Inorganic compound</text>
</a>
</g>
</g>
<!-- Water&#45;&gt;Inorganic compound -->
<g id="edge5" class="edge">
<title>Water&#45;&gt;Inorganic compound</title>
<path fill="none" stroke="black" d="M109.61,-890.41C113.46,-882.25 118.19,-872.22 122.5,-863.07"/>
<polygon fill="black" stroke="black" points="125.7,-864.49 126.8,-853.96 119.37,-861.51 125.7,-864.49"/>
</g>
<!-- Chemistry -->
<g id="node7" class="node">
<title>Chemistry</title>
<g id="a_node7"><a xlink:href="https://en.wikipedia.org/wiki/Chemistry" xlink:title="Chemistry">
<ellipse fill="lightskyblue" stroke="lightskyblue" cx="200.79" cy="-764" rx="48.19" ry="18"/>
<text text-anchor="middle" x="200.79" y="-760.3" font-family="Times New Roman,serif" font-size="14.00">Chemistry</text>
</a>
</g>
</g>
<!-- Inorganic compound&#45;&gt;Chemistry -->
<g id="edge6" class="edge">
<title>Inorganic compound&#45;&gt;Chemistry</title>
<path fill="none" stroke="black" d="M150.77,-818.05C159.08,-809.24 169.37,-798.33 178.45,-788.69"/>
<polygon fill="black" stroke="black" points="181.1,-790.98 185.42,-781.31 176.01,-786.18 181.1,-790.98"/>
</g>
<!-- Scientific discipline -->
<g id="node8" class="node">
<title>Scientific discipline</title>
<g id="a_node8"><a xlink:href="https://en.wikipedia.org/wiki/Scientific_discipline" xlink:title="Scientific discipline">
<ellipse fill="lightskyblue" stroke="lightskyblue" cx="205.79" cy="-692" rx="81.49" ry="18"/>
<text text-anchor="middle" x="205.79" y="-688.3" font-family="Times New Roman,serif" font-size="14.00">Scientific discipline</text>
</a>
</g>
</g>
<!-- Chemistry&#45;&gt;Scientific discipline -->
<g id="edge7" class="edge">
<title>Chemistry&#45;&gt;Scientific discipline</title>
<path fill="none" stroke="black" d="M202.03,-745.7C202.58,-737.98 203.24,-728.71 203.86,-720.11"/>
<polygon fill="black" stroke="black" points="207.35,-720.33 204.57,-710.1 200.37,-719.83 207.35,-720.33"/>
</g>
<!-- Science -->
<g id="node9" class="node">
<title>Science</title>
<g id="a_node9"><a xlink:href="https://en.wikipedia.org/wiki/Science" xlink:title="Science">
<ellipse fill="lightskyblue" stroke="lightskyblue" cx="455.79" cy="-620" rx="38.99" ry="18"/>
<text text-anchor="middle" x="455.79" y="-616.3" font-family="Times New Roman,serif" font-size="14.00">Science</text>
</a>
</g>
</g>
<!-- Scientific discipline&#45;&gt;Science -->
<g id="edge8" class="edge">
<title>Scientific discipline&#45;&gt;Science</title>
<path fill="none" stroke="black" d="M253.99,-677.5C300.2,-664.57 369.26,-645.23 413.41,-632.87"/>
<polygon fill="black" stroke="black" points="414.57,-636.18 423.25,-630.11 412.68,-629.44 414.57,-636.18"/>
</g>
<!-- Scientific method -->
<g id="node10" class="node">
<title>Scientific method</title>
<g id="a_node10"><a xlink:href="https://en.wikipedia.org/wiki/Scientific_method" xlink:title="Scientific method">
<ellipse fill="lightskyblue" stroke="lightskyblue" cx="455.79" cy="-548" rx="74.19" ry="18"/>
<text text-anchor="middle" x="455.79" y="-544.3" font-family="Times New Roman,serif" font-size="14.00">Scientific method</text>
</a>
</g>
</g>
<!-- Science&#45;&gt;Scientific method -->
<g id="edge9" class="edge">
<title>Science&#45;&gt;Scientific method</title>
<path fill="none" stroke="black" d="M455.79,-601.7C455.79,-593.98 455.79,-584.71 455.79,-576.11"/>
<polygon fill="black" stroke="black" points="459.29,-576.1 455.79,-566.1 452.29,-576.1 459.29,-576.1"/>
</g>
<!-- Empirical evidence -->
<g id="node11" class="node">
<title>Empirical evidence</title>
<g id="a_node11"><a xlink:href="https://en.wikipedia.org/wiki/Empirical_evidence" xlink:title="Empirical evidence">
<ellipse fill="lightskyblue" stroke="lightskyblue" cx="455.79" cy="-476" rx="79.09" ry="18"/>
<text text-anchor="middle" x="455.79" y="-472.3" font-family="Times New Roman,serif" font-size="14.00">Empirical evidence</text>
</a>
</g>
</g>
<!-- Scientific method&#45;&gt;Empirical evidence -->
<g id="edge10" class="edge">
<title>Scientific method&#45;&gt;Empirical evidence</title>
<path fill="none" stroke="black" d="M455.79,-529.7C455.79,-521.98 455.79,-512.71 455.79,-504.11"/>
<polygon fill="black" stroke="black" points="459.29,-504.1 455.79,-494.1 452.29,-504.1 459.29,-504.1"/>
</g>
<!-- Information -->
<g id="node12" class="node">
<title>Information</title>
<g id="a_node12"><a xlink:href="https://en.wikipedia.org/wiki/Information" xlink:title="Information">
<ellipse fill="lightskyblue" stroke="lightskyblue" cx="455.79" cy="-404" rx="53.09" ry="18"/>
<text text-anchor="middle" x="455.79" y="-400.3" font-family="Times New Roman,serif" font-size="14.00">Information</text>
</a>
</g>
</g>
<!-- Empirical evidence&#45;&gt;Information -->
<g id="edge11" class="edge">
<title>Empirical evidence&#45;&gt;Information</title>
<path fill="none" stroke="black" d="M455.79,-457.7C455.79,-449.98 455.79,-440.71 455.79,-432.11"/>
<polygon fill="black" stroke="black" points="459.29,-432.1 455.79,-422.1 452.29,-432.1 459.29,-432.1"/>
</g>
<!-- Uncertainty -->
<g id="node13" class="node">
<title>Uncertainty</title>
<g id="a_node13"><a xlink:href="https://en.wikipedia.org/wiki/Uncertainty" xlink:title="Uncertainty">
<ellipse fill="lightskyblue" stroke="lightskyblue" cx="455.79" cy="-332" rx="51.99" ry="18"/>
<text text-anchor="middle" x="455.79" y="-328.3" font-family="Times New Roman,serif" font-size="14.00">Uncertainty</text>
</a>
</g>
</g>
<!-- Information&#45;&gt;Uncertainty -->
<g id="edge12" class="edge">
<title>Information&#45;&gt;Uncertainty</title>
<path fill="none" stroke="black" d="M455.79,-385.7C455.79,-377.98 455.79,-368.71 455.79,-360.11"/>
<polygon fill="black" stroke="black" points="459.29,-360.1 455.79,-350.1 452.29,-360.1 459.29,-360.1"/>
</g>
<!-- Epistemology -->
<g id="node14" class="node">
<title>Epistemology</title>
<g id="a_node14"><a xlink:href="https://en.wikipedia.org/wiki/Epistemology" xlink:title="Epistemology">
<ellipse fill="lightskyblue" stroke="lightskyblue" cx="455.79" cy="-260" rx="60.39" ry="18"/>
<text text-anchor="middle" x="455.79" y="-256.3" font-family="Times New Roman,serif" font-size="14.00">Epistemology</text>
</a>
</g>
</g>
<!-- Uncertainty&#45;&gt;Epistemology -->
<g id="edge13" class="edge">
<title>Uncertainty&#45;&gt;Epistemology</title>
<path fill="none" stroke="black" d="M455.79,-313.7C455.79,-305.98 455.79,-296.71 455.79,-288.11"/>
<polygon fill="black" stroke="black" points="459.29,-288.1 455.79,-278.1 452.29,-288.1 459.29,-288.1"/>
</g>
<!-- Outline of philosophy -->
<g id="node15" class="node">
<title>Outline of philosophy</title>
<g id="a_node15"><a xlink:href="https://en.wikipedia.org/wiki/Outline_of_philosophy" xlink:title="Outline of philosophy">
<ellipse fill="lightskyblue" stroke="lightskyblue" cx="455.79" cy="-188" rx="89.88" ry="18"/>
<text text-anchor="middle" x="455.79" y="-184.3" font-family="Times New Roman,serif" font-size="14.00">Outline of philosophy</text>
</a>
</g>
</g>
<!-- Epistemology&#45;&gt;Outline of philosophy -->
<g id="edge14" class="edge">
<title>Epistemology&#45;&gt;Outline of philosophy</title>
<path fill="none" stroke="black" d="M455.79,-241.7C455.79,-233.98 455.79,-224.71 455.79,-216.11"/>
<polygon fill="black" stroke="black" points="459.29,-216.1 455.79,-206.1 452.29,-216.1 459.29,-216.1"/>
</g>
<!-- Philosophy -->
<g id="node16" class="node">
<title>Philosophy</title>
<g id="a_node16"><a xlink:href="https://en.wikipedia.org/wiki/Philosophy" xlink:title="Philosophy">
<ellipse fill="lightskyblue" stroke="lightskyblue" cx="455.79" cy="-116" rx="51.99" ry="18"/>
<text text-anchor="middle" x="455.79" y="-112.3" font-family="Times New Roman,serif" font-size="14.00">Philosophy</text>
</a>
</g>
</g>
<!-- Outline of philosophy&#45;&gt;Philosophy -->
<g id="edge15" class="edge">
<title>Outline of philosophy&#45;&gt;Philosophy</title>
<path fill="none" stroke="black" d="M455.79,-169.7C455.79,-161.98 455.79,-152.71 455.79,-144.11"/>
<polygon fill="black" stroke="black" points="459.29,-144.1 455.79,-134.1 452.29,-144.1 459.29,-144.1"/>
</g>
<!-- Ninian E. Whiteside -->
<g id="node17" class="node">
<title>Ninian E. Whiteside</title>
<g id="a_node17"><a xlink:href="https://en.wikipedia.org/wiki/Ninian_E._Whiteside" xlink:title="Ninian E. Whiteside">
<ellipse fill="#b0e2ff" stroke="#b0e2ff" cx="905.79" cy="-1196" rx="82.59" ry="18"/>
<text text-anchor="middle" x="905.79" y="-1192.3" font-family="Times New Roman,serif" font-size="14.00">Ninian E. Whiteside</text>
</a>
</g>
</g>
<!-- United States -->
<g id="node18" class="node">
<title>United States</title>
<g id="a_node18"><a xlink:href="https://en.wikipedia.org/wiki/United_States" xlink:title="United States">
<ellipse fill="lightskyblue" stroke="lightskyblue" cx="905.79" cy="-1124" rx="59.29" ry="18"/>
<text text-anchor="middle" x="905.79" y="-1120.3" font-family="Times New Roman,serif" font-size="14.00">United States</text>
</a>
</g>
</g>
<!-- Ninian E. Whiteside&#45;&gt;United States -->
<g id="edge16" class="edge">
<title>Ninian E. Whiteside&#45;&gt;United States</title>
<path fill="none" stroke="black" d="M905.79,-1177.7C905.79,-1169.98 905.79,-1160.71 905.79,-1152.11"/>
<polygon fill="black" stroke="black" points="909.29,-1152.1 905.79,-1142.1 902.29,-1152.1 909.29,-1152.1"/>
</g>
<!-- Continental United States -->
<g id="node19" class="node">
<title>Continental United States</title>
<g id="a_node19"><a xlink:href="https://en.wikipedia.org/wiki/Continental_United_States" xlink:title="Continental United States">
<ellipse fill="lightskyblue" stroke="lightskyblue" cx="884.79" cy="-1052" rx="102.88" ry="18"/>
<text text-anchor="middle" x="884.79" y="-1048.3" font-family="Times New Roman,serif" font-size="14.00">Continental United States</text>
</a>
</g>
</g>
<!-- United States&#45;&gt;Continental United States -->
<g id="edge17" class="edge">
<title>United States&#45;&gt;Continental United States</title>
<path fill="none" stroke="black" d="M900.71,-1106.05C898.37,-1098.26 895.54,-1088.82 892.92,-1080.08"/>
<polygon fill="black" stroke="black" points="896.2,-1078.85 889.97,-1070.28 889.5,-1080.86 896.2,-1078.85"/>
</g>
<!-- U.S. state -->
<g id="node20" class="node">
<title>U.S. state</title>
<g id="a_node20"><a xlink:href="https://en.wikipedia.org/wiki/U.S._state" xlink:title="U.S. state">
<ellipse fill="lightskyblue" stroke="lightskyblue" cx="938.79" cy="-980" rx="46.29" ry="18"/>
<text text-anchor="middle" x="938.79" y="-976.3" font-family="Times New Roman,serif" font-size="14.00">U.S. state</text>
</a>
</g>
</g>
<!-- Continental United States&#45;&gt;U.S. state -->
<g id="edge18" class="edge">
<title>Continental United States&#45;&gt;U.S. state</title>
<path fill="none" stroke="black" d="M897.86,-1034.05C904.36,-1025.63 912.35,-1015.28 919.53,-1005.97"/>
<polygon fill="black" stroke="black" points="922.5,-1007.84 925.84,-997.79 916.96,-1003.57 922.5,-1007.84"/>
</g>
<!-- U.S. state&#45;&gt;United States -->
<g id="edge19" class="edge">
<title>U.S. state&#45;&gt;United States</title>
<path fill="none" stroke="black" d="M962.51,-995.52C975.25,-1004.77 989.75,-1018.02 996.79,-1034 1003.25,-1048.64 1004.77,-1056.13 996.79,-1070 987.41,-1086.32 970.86,-1098.08 954.43,-1106.31"/>
<polygon fill="black" stroke="black" points="952.95,-1103.14 945.35,-1110.53 955.9,-1109.49 952.95,-1103.14"/>
</g>
<!-- Anderson Union High School -->
<g id="node21" class="node">
<title>Anderson Union High School</title>
<g id="a_node21"><a xlink:href="https://en.wikipedia.org/wiki/Anderson_Union_High_School" xlink:title="Anderson Union High School">
<ellipse fill="#b0e2ff" stroke="#b0e2ff" cx="347.79" cy="-1196" rx="118.08" ry="18"/>
<text text-anchor="middle" x="347.79" y="-1192.3" font-family="Times New Roman,serif" font-size="14.00">Anderson Union High School</text>
</a>
</g>
</g>
<!-- Secondary school -->
<g id="node22" class="node">
<title>Secondary school</title>
<g id="a_node22"><a xlink:href="https://en.wikipedia.org/wiki/Secondary_school" xlink:title="Secondary school">
<ellipse fill="lightskyblue" stroke="lightskyblue" cx="347.79" cy="-1124" rx="76.89" ry="18"/>
<text text-anchor="middle" x="347.79" y="-1120.3" font-family="Times New Roman,serif" font-size="14.00">Secondary school</text>
</a>
</g>
</g>
<!-- Anderson Union High School&#45;&gt;Secondary school -->
<g id="edge20" class="edge">
<title>Anderson Union High School&#45;&gt;Secondary school</title>
<path fill="none" stroke="black" d="M347.79,-1177.7C347.79,-1169.98 347.79,-1160.71 347.79,-1152.11"/>
<polygon fill="black" stroke="black" points="351.29,-1152.1 347.79,-1142.1 344.29,-1152.1 351.29,-1152.1"/>
</g>
<!-- Secondary education -->
<g id="node23" class="node">
<title>Secondary education</title>
<g id="a_node23"><a xlink:href="https://en.wikipedia.org/wiki/Secondary_education" xlink:title="Secondary education">
<ellipse fill="lightskyblue" stroke="lightskyblue" cx="347.79" cy="-1052" rx="87.18" ry="18"/>
<text text-anchor="middle" x="347.79" y="-1048.3" font-family="Times New Roman,serif" font-size="14.00">Secondary education</text>
</a>
</g>
</g>
<!-- Secondary school&#45;&gt;Secondary education -->
<g id="edge21" class="edge">
<title>Secondary school&#45;&gt;Secondary education</title>
<path fill="none" stroke="black" d="M347.79,-1105.7C347.79,-1097.98 347.79,-1088.71 347.79,-1080.11"/>
<polygon fill="black" stroke="black" points="351.29,-1080.1 347.79,-1070.1 344.29,-1080.1 351.29,-1080.1"/>
</g>
<!-- International Standard Classification of Education -->
<g id="node24" class="node">
<title>International Standard Classification of Education</title>
<g id="a_node24"><a xlink:href="https://en.wikipedia.org/wiki/International_Standard_Classification_of_Education" xlink:title="International Standard Classification of Education">
<ellipse fill="lightskyblue" stroke="lightskyblue" cx="347.79" cy="-980" rx="190.37" ry="18"/>
<text text-anchor="middle" x="347.79" y="-976.3" font-family="Times New Roman,serif" font-size="14.00">International Standard Classification of Education</text>
</a>
</g>
</g>
<!-- Secondary education&#45;&gt;International Standard Classification of Education -->
<g id="edge22" class="edge">
<title>Secondary education&#45;&gt;International Standard Classification of Education</title>
<path fill="none" stroke="black" d="M347.79,-1033.7C347.79,-1025.98 347.79,-1016.71 347.79,-1008.11"/>
<polygon fill="black" stroke="black" points="351.29,-1008.1 347.79,-998.1 344.29,-1008.1 351.29,-1008.1"/>
</g>
<!-- Education -->
<g id="node25" class="node">
<title>Education</title>
<g id="a_node25"><a xlink:href="https://en.wikipedia.org/wiki/Education" xlink:title="Education">
<ellipse fill="lightskyblue" stroke="lightskyblue" cx="348.79" cy="-908" rx="47.39" ry="18"/>
<text text-anchor="middle" x="348.79" y="-904.3" font-family="Times New Roman,serif" font-size="14.00">Education</text>
</a>
</g>
</g>
<!-- International Standard Classification of Education&#45;&gt;Education -->
<g id="edge23" class="edge">
<title>International Standard Classification of Education&#45;&gt;Education</title>
<path fill="none" stroke="black" d="M348.04,-961.7C348.15,-953.98 348.28,-944.71 348.41,-936.11"/>
<polygon fill="black" stroke="black" points="351.9,-936.15 348.55,-926.1 344.91,-936.05 351.9,-936.15"/>
</g>
<!-- Learning -->
<g id="node26" class="node">
<title>Learning</title>
<g id="a_node26"><a xlink:href="https://en.wikipedia.org/wiki/Learning" xlink:title="Learning">
<ellipse fill="lightskyblue" stroke="lightskyblue" cx="382.79" cy="-836" rx="42.49" ry="18"/>
<text text-anchor="middle" x="382.79" y="-832.3" font-family="Times New Roman,serif" font-size="14.00">Learning</text>
</a>
</g>
</g>
<!-- Education&#45;&gt;Learning -->
<g id="edge24" class="edge">
<title>Education&#45;&gt;Learning</title>
<path fill="none" stroke="black" d="M357.02,-890.05C360.99,-881.89 365.84,-871.91 370.25,-862.82"/>
<polygon fill="black" stroke="black" points="373.42,-864.31 374.64,-853.79 367.12,-861.25 373.42,-864.31"/>
</g>
<!-- Understanding -->
<g id="node27" class="node">
<title>Understanding</title>
<g id="a_node27"><a xlink:href="https://en.wikipedia.org/wiki/Understanding" xlink:title="Understanding">
<ellipse fill="lightskyblue" stroke="lightskyblue" cx="384.79" cy="-764" rx="63.89" ry="18"/>
<text text-anchor="middle" x="384.79" y="-760.3" font-family="Times New Roman,serif" font-size="14.00">Understanding</text>
</a>
</g>
</g>
<!-- Learning&#45;&gt;Understanding -->
<g id="edge25" class="edge">
<title>Learning&#45;&gt;Understanding</title>
<path fill="none" stroke="black" d="M383.29,-817.7C383.51,-809.98 383.77,-800.71 384.02,-792.11"/>
<polygon fill="black" stroke="black" points="387.52,-792.2 384.3,-782.1 380.52,-792 387.52,-792.2"/>
</g>
<!-- Psychological -->
<g id="node28" class="node">
<title>Psychological</title>
<g id="a_node28"><a xlink:href="https://en.wikipedia.org/wiki/Psychological" xlink:title="Psychological">
<ellipse fill="lightskyblue" stroke="lightskyblue" cx="385.79" cy="-692" rx="61.99" ry="18"/>
<text text-anchor="middle" x="385.79" y="-688.3" font-family="Times New Roman,serif" font-size="14.00">Psychological</text>
</a>
</g>
</g>
<!-- Understanding&#45;&gt;Psychological -->
<g id="edge26" class="edge">
<title>Understanding&#45;&gt;Psychological</title>
<path fill="none" stroke="black" d="M385.04,-745.7C385.15,-737.98 385.28,-728.71 385.41,-720.11"/>
<polygon fill="black" stroke="black" points="388.9,-720.15 385.55,-710.1 381.91,-720.05 388.9,-720.15"/>
</g>
<!-- Psychological&#45;&gt;Science -->
<g id="edge27" class="edge">
<title>Psychological&#45;&gt;Science</title>
<path fill="none" stroke="black" d="M402.38,-674.41C411.4,-665.39 422.7,-654.09 432.59,-644.21"/>
<polygon fill="black" stroke="black" points="435.21,-646.53 439.8,-636.99 430.26,-641.58 435.21,-646.53"/>
</g>
<!-- Constituency NA&#45;265 -->
<g id="node29" class="node">
<title>Constituency NA&#45;265</title>
<g id="a_node29"><a xlink:href="https://en.wikipedia.org/wiki/Constituency_NA-265" xlink:title="Constituency NA&#45;265">
<ellipse fill="#b0e2ff" stroke="#b0e2ff" cx="1125.79" cy="-1196" rx="89.88" ry="18"/>
<text text-anchor="middle" x="1125.79" y="-1192.3" font-family="Times New Roman,serif" font-size="14.00">Constituency NA&#45;265</text>
</a>
</g>
</g>
<!-- National Assembly of Pakistan -->
<g id="node30" class="node">
<title>National Assembly of Pakistan</title>
<g id="a_node30"><a xlink:href="https://en.wikipedia.org/wiki/National_Assembly_of_Pakistan" xlink:title="National Assembly of Pakistan">
<ellipse fill="lightskyblue" stroke="lightskyblue" cx="1125.79" cy="-1124" rx="122.38" ry="18"/>
<text text-anchor="middle" x="1125.79" y="-1120.3" font-family="Times New Roman,serif" font-size="14.00">National Assembly of Pakistan</text>
</a>
</g>
</g>
<!-- Constituency NA&#45;265&#45;&gt;National Assembly of Pakistan -->
<g id="edge28" class="edge">
<title>Constituency NA&#45;265&#45;&gt;National Assembly of Pakistan</title>
<path fill="none" stroke="black" d="M1125.79,-1177.7C1125.79,-1169.98 1125.79,-1160.71 1125.79,-1152.11"/>
<polygon fill="black" stroke="black" points="1129.29,-1152.1 1125.79,-1142.1 1122.29,-1152.1 1129.29,-1152.1"/>
</g>
<!-- Lower house -->
<g id="node31" class="node">
<title>Lower house</title>
<g id="a_node31"><a xlink:href="https://en.wikipedia.org/wiki/Lower_house" xlink:title="Lower house">
<ellipse fill="lightskyblue" stroke="lightskyblue" cx="1125.79" cy="-1052" rx="57.69" ry="18"/>
<text text-anchor="middle" x="1125.79" y="-1048.3" font-family="Times New Roman,serif" font-size="14.00">Lower house</text>
</a>
</g>
</g>
<!-- National Assembly of Pakistan&#45;&gt;Lower house -->
<g id="edge29" class="edge">
<title>National Assembly of Pakistan&#45;&gt;Lower house</title>
<path fill="none" stroke="black" d="M1125.79,-1105.7C1125.79,-1097.98 1125.79,-1088.71 1125.79,-1080.11"/>
<polygon fill="black" stroke="black" points="1129.29,-1080.1 1125.79,-1070.1 1122.29,-1080.1 1129.29,-1080.1"/>
</g>
<!-- Debate chamber -->
<g id="node32" class="node">
<title>Debate chamber</title>
<g id="a_node32"><a xlink:href="https://en.wikipedia.org/wiki/Debate_chamber" xlink:title="Debate chamber">
<ellipse fill="lightskyblue" stroke="lightskyblue" cx="1125.79" cy="-980" rx="69.59" ry="18"/>
<text text-anchor="middle" x="1125.79" y="-976.3" font-family="Times New Roman,serif" font-size="14.00">Debate chamber</text>
</a>
</g>
</g>
<!-- Lower house&#45;&gt;Debate chamber -->
<g id="edge30" class="edge">
<title>Lower house&#45;&gt;Debate chamber</title>
<path fill="none" stroke="black" d="M1125.79,-1033.7C1125.79,-1025.98 1125.79,-1016.71 1125.79,-1008.11"/>
<polygon fill="black" stroke="black" points="1129.29,-1008.1 1125.79,-998.1 1122.29,-1008.1 1129.29,-1008.1"/>
</g>
<!-- Debate -->
<g id="node33" class="node">
<title>Debate</title>
<g id="a_node33"><a xlink:href="https://en.wikipedia.org/wiki/Debate" xlink:title="Debate">
<ellipse fill="lightskyblue" stroke="lightskyblue" cx="1125.79" cy="-908" rx="36.29" ry="18"/>
<text text-anchor="middle" x="1125.79" y="-904.3" font-family="Times New Roman,serif" font-size="14.00">Debate</text>
</a>
</g>
</g>
<!-- Debate chamber&#45;&gt;Debate -->
<g id="edge31" class="edge">
<title>Debate chamber&#45;&gt;Debate</title>
<path fill="none" stroke="black" d="M1125.79,-961.7C1125.79,-953.98 1125.79,-944.71 1125.79,-936.11"/>
<polygon fill="black" stroke="black" points="1129.29,-936.1 1125.79,-926.1 1122.29,-936.1 1129.29,-936.1"/>
</g>
<!-- Argument -->
<g id="node34" class="node">
<title>Argument</title>
<g id="a_node34"><a xlink:href="https://en.wikipedia.org/wiki/Argument" xlink:title="Argument">
<ellipse fill="lightskyblue" stroke="lightskyblue" cx="1125.79" cy="-836" rx="46.29" ry="18"/>
<text text-anchor="middle" x="1125.79" y="-832.3" font-family="Times New Roman,serif" font-size="14.00">Argument</text>
</a>
</g>
</g>
<!-- Debate&#45;&gt;Argument -->
<g id="edge32" class="edge">
<title>Debate&#45;&gt;Argument</title>
<path fill="none" stroke="black" d="M1125.79,-889.7C1125.79,-881.98 1125.79,-872.71 1125.79,-864.11"/>
<polygon fill="black" stroke="black" points="1129.29,-864.1 1125.79,-854.1 1122.29,-864.1 1129.29,-864.1"/>
</g>
<!-- Logic -->
<g id="node35" class="node">
<title>Logic</title>
<g id="a_node35"><a xlink:href="https://en.wikipedia.org/wiki/Logic" xlink:title="Logic">
<ellipse fill="lightskyblue" stroke="lightskyblue" cx="1125.79" cy="-764" rx="31.7" ry="18"/>
<text text-anchor="middle" x="1125.79" y="-760.3" font-family="Times New Roman,serif" font-size="14.00">Logic</text>
</a>
</g>
</g>
<!-- Argument&#45;&gt;Logic -->
<g id="edge33" class="edge">
<title>Argument&#45;&gt;Logic</title>
<path fill="none" stroke="black" d="M1125.79,-817.7C1125.79,-809.98 1125.79,-800.71 1125.79,-792.11"/>
<polygon fill="black" stroke="black" points="1129.29,-792.1 1125.79,-782.1 1122.29,-792.1 1129.29,-792.1"/>
</g>
<!-- Rule of inference -->
<g id="node36" class="node">
<title>Rule of inference</title>
<g id="a_node36"><a xlink:href="https://en.wikipedia.org/wiki/Rule_of_inference" xlink:title="Rule of inference">
<ellipse fill="lightskyblue" stroke="lightskyblue" cx="1075.79" cy="-692" rx="72.59" ry="18"/>
<text text-anchor="middle" x="1075.79" y="-688.3" font-family="Times New Roman,serif" font-size="14.00">Rule of inference</text>
</a>
</g>
</g>
<!-- Logic&#45;&gt;Rule of inference -->
<g id="edge34" class="edge">
<title>Logic&#45;&gt;Rule of inference</title>
<path fill="none" stroke="black" d="M1114.45,-747.12C1108.3,-738.51 1100.55,-727.67 1093.62,-717.96"/>
<polygon fill="black" stroke="black" points="1096.45,-715.9 1087.79,-709.8 1090.75,-719.97 1096.45,-715.9"/>
</g>
<!-- Logical form -->
<g id="node37" class="node">
<title>Logical form</title>
<g id="a_node37"><a xlink:href="https://en.wikipedia.org/wiki/Logical_form" xlink:title="Logical form">
<ellipse fill="lightskyblue" stroke="lightskyblue" cx="1125.79" cy="-620" rx="57.69" ry="18"/>
<text text-anchor="middle" x="1125.79" y="-616.3" font-family="Times New Roman,serif" font-size="14.00">Logical form</text>
</a>
</g>
</g>
<!-- Rule of inference&#45;&gt;Logical form -->
<g id="edge35" class="edge">
<title>Rule of inference&#45;&gt;Logical form</title>
<path fill="none" stroke="black" d="M1087.9,-674.05C1093.91,-665.63 1101.31,-655.28 1107.96,-645.97"/>
<polygon fill="black" stroke="black" points="1110.84,-647.96 1113.8,-637.79 1105.14,-643.89 1110.84,-647.96"/>
</g>
<!-- Logical form&#45;&gt;Logic -->
<g id="edge36" class="edge">
<title>Logical form&#45;&gt;Logic</title>
<path fill="none" stroke="black" d="M1139.02,-637.56C1146.1,-647.5 1154.1,-660.75 1157.79,-674 1162.08,-689.41 1162.08,-694.59 1157.79,-710 1154.97,-720.14 1149.62,-730.29 1144.09,-738.94"/>
<polygon fill="black" stroke="black" points="1141.09,-737.12 1138.36,-747.36 1146.88,-741.06 1141.09,-737.12"/>
</g>
<!-- Mihăiță Székely -->
<g id="node38" class="node">
<title>Mihăiță Székely</title>
<g id="a_node38"><a xlink:href="https://en.wikipedia.org/wiki/Mih%C4%83i%C8%9B%C4%83_Sz%C3%A9kely" xlink:title="Mihăiță Székely">
<ellipse fill="#b0e2ff" stroke="#b0e2ff" cx="553.79" cy="-1196" rx="67.69" ry="18"/>
<text text-anchor="middle" x="553.79" y="-1192.3" font-family="Times New Roman,serif" font-size="14.00">Mihăiță Székely</text>
</a>
</g>
</g>
<!-- Romania -->
<g id="node39" class="node">
<title>Romania</title>
<g id="a_node39"><a xlink:href="https://en.wikipedia.org/wiki/Romania" xlink:title="Romania">
<ellipse fill="lightskyblue" stroke="lightskyblue" cx="553.79" cy="-1124" rx="42.79" ry="18"/>
<text text-anchor="middle" x="553.79" y="-1120.3" font-family="Times New Roman,serif" font-size="14.00">Romania</text>
</a>
</g>
</g>
<!-- Mihăiță Székely&#45;&gt;Romania -->
<g id="edge37" class="edge">
<title>Mihăiță Székely&#45;&gt;Romania</title>
<path fill="none" stroke="black" d="M553.79,-1177.7C553.79,-1169.98 553.79,-1160.71 553.79,-1152.11"/>
<polygon fill="black" stroke="black" points="557.29,-1152.1 553.79,-1142.1 550.29,-1152.1 557.29,-1152.1"/>
</g>
<!-- Central Europe -->
<g id="node40" class="node">
<title>Central Europe</title>
<g id="a_node40"><a xlink:href="https://en.wikipedia.org/wiki/Central_Europe" xlink:title="Central Europe">
<ellipse fill="lightskyblue" stroke="lightskyblue" cx="553.79" cy="-1052" rx="65.79" ry="18"/>
<text text-anchor="middle" x="553.79" y="-1048.3" font-family="Times New Roman,serif" font-size="14.00">Central Europe</text>
</a>
</g>
</g>
<!-- Romania&#45;&gt;Central Europe -->
<g id="edge38" class="edge">
<title>Romania&#45;&gt;Central Europe</title>
<path fill="none" stroke="black" d="M553.79,-1105.7C553.79,-1097.98 553.79,-1088.71 553.79,-1080.11"/>
<polygon fill="black" stroke="black" points="557.29,-1080.1 553.79,-1070.1 550.29,-1080.1 557.29,-1080.1"/>
</g>
<!-- Europe -->
<g id="node41" class="node">
<title>Europe</title>
<g id="a_node41"><a xlink:href="https://en.wikipedia.org/wiki/Europe" xlink:title="Europe">
<ellipse fill="lightskyblue" stroke="lightskyblue" cx="592.79" cy="-980" rx="37.09" ry="18"/>
<text text-anchor="middle" x="592.79" y="-976.3" font-family="Times New Roman,serif" font-size="14.00">Europe</text>
</a>
</g>
</g>
<!-- Central Europe&#45;&gt;Europe -->
<g id="edge39" class="edge">
<title>Central Europe&#45;&gt;Europe</title>
<path fill="none" stroke="black" d="M563.23,-1034.05C567.83,-1025.8 573.46,-1015.7 578.56,-1006.54"/>
<polygon fill="black" stroke="black" points="581.63,-1008.23 583.44,-997.79 575.51,-1004.82 581.63,-1008.23"/>
</g>
<!-- Continent -->
<g id="node42" class="node">
<title>Continent</title>
<g id="a_node42"><a xlink:href="https://en.wikipedia.org/wiki/Continent" xlink:title="Continent">
<ellipse fill="lightskyblue" stroke="lightskyblue" cx="568.79" cy="-908" rx="46.29" ry="18"/>
<text text-anchor="middle" x="568.79" y="-904.3" font-family="Times New Roman,serif" font-size="14.00">Continent</text>
</a>
</g>
</g>
<!-- Europe&#45;&gt;Continent -->
<g id="edge40" class="edge">
<title>Europe&#45;&gt;Continent</title>
<path fill="none" stroke="black" d="M586.98,-962.05C584.28,-954.18 581,-944.62 577.98,-935.79"/>
<polygon fill="black" stroke="black" points="581.27,-934.6 574.72,-926.28 574.65,-936.87 581.27,-934.6"/>
</g>
<!-- Landmass -->
<g id="node43" class="node">
<title>Landmass</title>
<g id="a_node43"><a xlink:href="https://en.wikipedia.org/wiki/Landmass" xlink:title="Landmass">
<ellipse fill="lightskyblue" stroke="lightskyblue" cx="557.79" cy="-836" rx="48.19" ry="18"/>
<text text-anchor="middle" x="557.79" y="-832.3" font-family="Times New Roman,serif" font-size="14.00">Landmass</text>
</a>
</g>
</g>
<!-- Continent&#45;&gt;Landmass -->
<g id="edge41" class="edge">
<title>Continent&#45;&gt;Landmass</title>
<path fill="none" stroke="black" d="M566.07,-889.7C564.86,-881.98 563.4,-872.71 562.05,-864.11"/>
<polygon fill="black" stroke="black" points="565.49,-863.44 560.48,-854.1 558.58,-864.53 565.49,-863.44"/>
</g>
<!-- Region -->
<g id="node44" class="node">
<title>Region</title>
<g id="a_node44"><a xlink:href="https://en.wikipedia.org/wiki/Region" xlink:title="Region">
<ellipse fill="lightskyblue" stroke="lightskyblue" cx="546.79" cy="-764" rx="36.29" ry="18"/>
<text text-anchor="middle" x="546.79" y="-760.3" font-family="Times New Roman,serif" font-size="14.00">Region</text>
</a>
</g>
</g>
<!-- Landmass&#45;&gt;Region -->
<g id="edge42" class="edge">
<title>Landmass&#45;&gt;Region</title>
<path fill="none" stroke="black" d="M555.07,-817.7C553.86,-809.98 552.4,-800.71 551.05,-792.11"/>
<polygon fill="black" stroke="black" points="554.49,-791.44 549.48,-782.1 547.58,-792.53 554.49,-791.44"/>
</g>
<!-- Geography -->
<g id="node45" class="node">
<title>Geography</title>
<g id="a_node45"><a xlink:href="https://en.wikipedia.org/wiki/Geography" xlink:title="Geography">
<ellipse fill="lightskyblue" stroke="lightskyblue" cx="525.79" cy="-692" rx="51.19" ry="18"/>
<text text-anchor="middle" x="525.79" y="-688.3" font-family="Times New Roman,serif" font-size="14.00">Geography</text>
</a>
</g>
</g>
<!-- Region&#45;&gt;Geography -->
<g id="edge43" class="edge">
<title>Region&#45;&gt;Geography</title>
<path fill="none" stroke="black" d="M541.71,-746.05C539.37,-738.26 536.54,-728.82 533.92,-720.08"/>
<polygon fill="black" stroke="black" points="537.2,-718.85 530.97,-710.28 530.5,-720.86 537.2,-718.85"/>
</g>
<!-- Geography&#45;&gt;Science -->
<g id="edge44" class="edge">
<title>Geography&#45;&gt;Science</title>
<path fill="none" stroke="black" d="M509.56,-674.76C500.42,-665.62 488.85,-654.06 478.79,-644"/>
<polygon fill="black" stroke="black" points="481,-641.26 471.46,-636.67 476.05,-646.21 481,-641.26"/>
</g>
<!-- Proneuronema -->
<g id="node46" class="node">
<title>Proneuronema</title>
<g id="a_node46"><a xlink:href="https://en.wikipedia.org/wiki/Proneuronema" xlink:title="Proneuronema">
<ellipse fill="#b0e2ff" stroke="#b0e2ff" cx="700.79" cy="-1052" rx="63.89" ry="18"/>
<text text-anchor="middle" x="700.79" y="-1048.3" font-family="Times New Roman,serif" font-size="14.00">Proneuronema</text>
</a>
</g>
</g>
<!-- Extinct -->
<g id="node47" class="node">
<title>Extinct</title>
<g id="a_node47"><a xlink:href="https://en.wikipedia.org/wiki/Extinct" xlink:title="Extinct">
<ellipse fill="lightskyblue" stroke="lightskyblue" cx="700.79" cy="-980" rx="36.29" ry="18"/>
<text text-anchor="middle" x="700.79" y="-976.3" font-family="Times New Roman,serif" font-size="14.00">Extinct</text>
</a>
</g>
</g>
<!-- Proneuronema&#45;&gt;Extinct -->
<g id="edge45" class="edge">
<title>Proneuronema&#45;&gt;Extinct</title>
<path fill="none" stroke="black" d="M700.79,-1033.7C700.79,-1025.98 700.79,-1016.71 700.79,-1008.11"/>
<polygon fill="black" stroke="black" points="704.29,-1008.1 700.79,-998.1 697.29,-1008.1 704.29,-1008.1"/>
</g>
<!-- Organism -->
<g id="node48" class="node">
<title>Organism</title>
<g id="a_node48"><a xlink:href="https://en.wikipedia.org/wiki/Organism" xlink:title="Organism">
<ellipse fill="lightskyblue" stroke="lightskyblue" cx="699.79" cy="-908" rx="46.29" ry="18"/>
<text text-anchor="middle" x="699.79" y="-904.3" font-family="Times New Roman,serif" font-size="14.00">Organism</text>
</a>
</g>
</g>
<!-- Extinct&#45;&gt;Organism -->
<g id="edge46" class="edge">
<title>Extinct&#45;&gt;Organism</title>
<path fill="none" stroke="black" d="M700.55,-961.7C700.43,-953.98 700.3,-944.71 700.18,-936.11"/>
<polygon fill="black" stroke="black" points="703.68,-936.05 700.04,-926.1 696.68,-936.15 703.68,-936.05"/>
</g>
<!-- Biology -->
<g id="node49" class="node">
<title>Biology</title>
<g id="a_node49"><a xlink:href="https://en.wikipedia.org/wiki/Biology" xlink:title="Biology">
<ellipse fill="lightskyblue" stroke="lightskyblue" cx="699.79" cy="-836" rx="38.99" ry="18"/>
<text text-anchor="middle" x="699.79" y="-832.3" font-family="Times New Roman,serif" font-size="14.00">Biology</text>
</a>
</g>
</g>
<!-- Organism&#45;&gt;Biology -->
<g id="edge47" class="edge">
<title>Organism&#45;&gt;Biology</title>
<path fill="none" stroke="black" d="M699.79,-889.7C699.79,-881.98 699.79,-872.71 699.79,-864.11"/>
<polygon fill="black" stroke="black" points="703.29,-864.1 699.79,-854.1 696.29,-864.1 703.29,-864.1"/>
</g>
<!-- Natural science -->
<g id="node50" class="node">
<title>Natural science</title>
<g id="a_node50"><a xlink:href="https://en.wikipedia.org/wiki/Natural_science" xlink:title="Natural science">
<ellipse fill="lightskyblue" stroke="lightskyblue" cx="699.79" cy="-764" rx="65.79" ry="18"/>
<text text-anchor="middle" x="699.79" y="-760.3" font-family="Times New Roman,serif" font-size="14.00">Natural science</text>
</a>
</g>
</g>
<!-- Biology&#45;&gt;Natural science -->
<g id="edge48" class="edge">
<title>Biology&#45;&gt;Natural science</title>
<path fill="none" stroke="black" d="M699.79,-817.7C699.79,-809.98 699.79,-800.71 699.79,-792.11"/>
<polygon fill="black" stroke="black" points="703.29,-792.1 699.79,-782.1 696.29,-792.1 703.29,-792.1"/>
</g>
<!-- Branches of science -->
<g id="node51" class="node">
<title>Branches of science</title>
<g id="a_node51"><a xlink:href="https://en.wikipedia.org/wiki/Branches_of_science" xlink:title="Branches of science">
<ellipse fill="lightskyblue" stroke="lightskyblue" cx="682.79" cy="-692" rx="83.69" ry="18"/>
<text text-anchor="middle" x="682.79" y="-688.3" font-family="Times New Roman,serif" font-size="14.00">Branches of science</text>
</a>
</g>
</g>
<!-- Natural science&#45;&gt;Branches of science -->
<g id="edge49" class="edge">
<title>Natural science&#45;&gt;Branches of science</title>
<path fill="none" stroke="black" d="M695.59,-745.7C693.7,-737.9 691.42,-728.51 689.31,-719.83"/>
<polygon fill="black" stroke="black" points="692.71,-719 686.95,-710.1 685.91,-720.65 692.71,-719"/>
</g>
<!-- Branches of science&#45;&gt;Science -->
<g id="edge50" class="edge">
<title>Branches of science&#45;&gt;Science</title>
<path fill="none" stroke="black" d="M636.86,-676.83C595.89,-664.2 536.47,-645.88 497.01,-633.71"/>
<polygon fill="black" stroke="black" points="498.01,-630.36 487.43,-630.76 495.95,-637.05 498.01,-630.36"/>
</g>
</g>
</svg>
