<?xml version="1.0" encoding="UTF-8" standalone="no"?>
<!DOCTYPE svg PUBLIC "-//W3C//DTD SVG 1.1//EN"
 "http://www.w3.org/Graphics/SVG/1.1/DTD/svg11.dtd">
<!-- Generated by graphviz version 2.46.0 (20210118.1747)
 -->
<!-- Title: unix Pages: 1 -->
<svg width="1095pt" height="1726pt"
 viewBox="0.00 0.00 1095.43 1726.00" xmlns="http://www.w3.org/2000/svg" xmlns:xlink="http://www.w3.org/1999/xlink">
<g id="graph0" class="graph" transform="scale(1 1) rotate(0) translate(4 1722)">
<title>unix</title>
<polygon fill="white" stroke="transparent" points="-4,4 -4,-1722 1091.43,-1722 1091.43,4 -4,4"/>
<text text-anchor="start" x="367.72" y="-54" font-family="Times New Roman,serif" font-size="20.00">Graph generated on 09/05/2021 14:04:03.</text>
<text text-anchor="start" x="367.72" y="-32" font-family="Times New Roman,serif" font-size="20.00">Checked 6 pages. Time took: 1.10 minutes.</text>
<text text-anchor="middle" x="543.72" y="-10" font-family="Times New Roman,serif" font-size="20.00">Number of pages drawn: 68</text>
<!-- Saint Mary&#39;s College (Shillong) -->
<g id="node1" class="node">
<title>Saint Mary&#39;s College (Shillong)</title>
<g id="a_node1"><a xlink:href="https://en.wikipedia.org/wiki/Saint_Mary%27s_College_(Shillong)" xlink:title="Saint Mary&#39;s College (Shillong)">
<ellipse fill="#b0e2ff" stroke="#b0e2ff" cx="608.99" cy="-980" rx="123.48" ry="18"/>
<text text-anchor="middle" x="608.99" y="-976.3" font-family="Times New Roman,serif" font-size="14.00">Saint Mary&#39;s College (Shillong)</text>
</a>
</g>
</g>
<!-- Shillong -->
<g id="node2" class="node">
<title>Shillong</title>
<g id="a_node2"><a xlink:href="https://en.wikipedia.org/wiki/Shillong" xlink:title="Shillong">
<ellipse fill="lightskyblue" stroke="lightskyblue" cx="608.99" cy="-908" rx="40.09" ry="18"/>
<text text-anchor="middle" x="608.99" y="-904.3" font-family="Times New Roman,serif" font-size="14.00">Shillong</text>
</a>
</g>
</g>
<!-- Saint Mary&#39;s College (Shillong)&#45;&gt;Shillong -->
<g id="edge1" class="edge">
<title>Saint Mary&#39;s College (Shillong)&#45;&gt;Shillong</title>
<path fill="none" stroke="black" d="M608.99,-961.7C608.99,-953.98 608.99,-944.71 608.99,-936.11"/>
<polygon fill="black" stroke="black" points="612.49,-936.1 608.99,-926.1 605.49,-936.1 612.49,-936.1"/>
</g>
<!-- Hill station -->
<g id="node3" class="node">
<title>Hill station</title>
<g id="a_node3"><a xlink:href="https://en.wikipedia.org/wiki/Hill_station" xlink:title="Hill station">
<ellipse fill="lightskyblue" stroke="lightskyblue" cx="608.99" cy="-836" rx="49.29" ry="18"/>
<text text-anchor="middle" x="608.99" y="-832.3" font-family="Times New Roman,serif" font-size="14.00">Hill station</text>
</a>
</g>
</g>
<!-- Shillong&#45;&gt;Hill station -->
<g id="edge2" class="edge">
<title>Shillong&#45;&gt;Hill station</title>
<path fill="none" stroke="black" d="M608.99,-889.7C608.99,-881.98 608.99,-872.71 608.99,-864.11"/>
<polygon fill="black" stroke="black" points="612.49,-864.1 608.99,-854.1 605.49,-864.1 612.49,-864.1"/>
</g>
<!-- Elevation -->
<g id="node4" class="node">
<title>Elevation</title>
<g id="a_node4"><a xlink:href="https://en.wikipedia.org/wiki/Elevation" xlink:title="Elevation">
<ellipse fill="lightskyblue" stroke="lightskyblue" cx="608.99" cy="-764" rx="44.39" ry="18"/>
<text text-anchor="middle" x="608.99" y="-760.3" font-family="Times New Roman,serif" font-size="14.00">Elevation</text>
</a>
</g>
</g>
<!-- Hill station&#45;&gt;Elevation -->
<g id="edge3" class="edge">
<title>Hill station&#45;&gt;Elevation</title>
<path fill="none" stroke="black" d="M608.99,-817.7C608.99,-809.98 608.99,-800.71 608.99,-792.11"/>
<polygon fill="black" stroke="black" points="612.49,-792.1 608.99,-782.1 605.49,-792.1 612.49,-792.1"/>
</g>
<!-- Geographic -->
<g id="node5" class="node">
<title>Geographic</title>
<g id="a_node5"><a xlink:href="https://en.wikipedia.org/wiki/Geographic" xlink:title="Geographic">
<ellipse fill="lightskyblue" stroke="lightskyblue" cx="601.99" cy="-692" rx="53.09" ry="18"/>
<text text-anchor="middle" x="601.99" y="-688.3" font-family="Times New Roman,serif" font-size="14.00">Geographic</text>
</a>
</g>
</g>
<!-- Elevation&#45;&gt;Geographic -->
<g id="edge4" class="edge">
<title>Elevation&#45;&gt;Geographic</title>
<path fill="none" stroke="black" d="M607.26,-745.7C606.49,-737.98 605.56,-728.71 604.7,-720.11"/>
<polygon fill="black" stroke="black" points="608.18,-719.71 603.7,-710.1 601.21,-720.4 608.18,-719.71"/>
</g>
<!-- Science -->
<g id="node6" class="node">
<title>Science</title>
<g id="a_node6"><a xlink:href="https://en.wikipedia.org/wiki/Science" xlink:title="Science">
<ellipse fill="lightskyblue" stroke="lightskyblue" cx="568.99" cy="-620" rx="38.99" ry="18"/>
<text text-anchor="middle" x="568.99" y="-616.3" font-family="Times New Roman,serif" font-size="14.00">Science</text>
</a>
</g>
</g>
<!-- Geographic&#45;&gt;Science -->
<g id="edge5" class="edge">
<title>Geographic&#45;&gt;Science</title>
<path fill="none" stroke="black" d="M594,-674.05C590.19,-665.97 585.55,-656.12 581.3,-647.11"/>
<polygon fill="black" stroke="black" points="584.34,-645.34 576.91,-637.79 578,-648.33 584.34,-645.34"/>
</g>
<!-- Scientific method -->
<g id="node7" class="node">
<title>Scientific method</title>
<g id="a_node7"><a xlink:href="https://en.wikipedia.org/wiki/Scientific_method" xlink:title="Scientific method">
<ellipse fill="lightskyblue" stroke="lightskyblue" cx="542.99" cy="-548" rx="74.19" ry="18"/>
<text text-anchor="middle" x="542.99" y="-544.3" font-family="Times New Roman,serif" font-size="14.00">Scientific method</text>
</a>
</g>
</g>
<!-- Science&#45;&gt;Scientific method -->
<g id="edge6" class="edge">
<title>Science&#45;&gt;Scientific method</title>
<path fill="none" stroke="black" d="M562.7,-602.05C559.77,-594.18 556.22,-584.62 552.94,-575.79"/>
<polygon fill="black" stroke="black" points="556.17,-574.43 549.41,-566.28 549.61,-576.87 556.17,-574.43"/>
</g>
<!-- Empirical evidence -->
<g id="node8" class="node">
<title>Empirical evidence</title>
<g id="a_node8"><a xlink:href="https://en.wikipedia.org/wiki/Empirical_evidence" xlink:title="Empirical evidence">
<ellipse fill="lightskyblue" stroke="lightskyblue" cx="494.99" cy="-476" rx="79.09" ry="18"/>
<text text-anchor="middle" x="494.99" y="-472.3" font-family="Times New Roman,serif" font-size="14.00">Empirical evidence</text>
</a>
</g>
</g>
<!-- Scientific method&#45;&gt;Empirical evidence -->
<g id="edge7" class="edge">
<title>Scientific method&#45;&gt;Empirical evidence</title>
<path fill="none" stroke="black" d="M531.37,-530.05C525.74,-521.84 518.85,-511.79 512.59,-502.66"/>
<polygon fill="black" stroke="black" points="515.38,-500.54 506.84,-494.28 509.61,-504.5 515.38,-500.54"/>
</g>
<!-- Information -->
<g id="node9" class="node">
<title>Information</title>
<g id="a_node9"><a xlink:href="https://en.wikipedia.org/wiki/Information" xlink:title="Information">
<ellipse fill="lightskyblue" stroke="lightskyblue" cx="491.99" cy="-404" rx="53.09" ry="18"/>
<text text-anchor="middle" x="491.99" y="-400.3" font-family="Times New Roman,serif" font-size="14.00">Information</text>
</a>
</g>
</g>
<!-- Empirical evidence&#45;&gt;Information -->
<g id="edge8" class="edge">
<title>Empirical evidence&#45;&gt;Information</title>
<path fill="none" stroke="black" d="M494.25,-457.7C493.92,-449.98 493.52,-440.71 493.15,-432.11"/>
<polygon fill="black" stroke="black" points="496.65,-431.95 492.72,-422.1 489.66,-432.25 496.65,-431.95"/>
</g>
<!-- Uncertainty -->
<g id="node10" class="node">
<title>Uncertainty</title>
<g id="a_node10"><a xlink:href="https://en.wikipedia.org/wiki/Uncertainty" xlink:title="Uncertainty">
<ellipse fill="lightskyblue" stroke="lightskyblue" cx="491.99" cy="-332" rx="51.99" ry="18"/>
<text text-anchor="middle" x="491.99" y="-328.3" font-family="Times New Roman,serif" font-size="14.00">Uncertainty</text>
</a>
</g>
</g>
<!-- Information&#45;&gt;Uncertainty -->
<g id="edge9" class="edge">
<title>Information&#45;&gt;Uncertainty</title>
<path fill="none" stroke="black" d="M491.99,-385.7C491.99,-377.98 491.99,-368.71 491.99,-360.11"/>
<polygon fill="black" stroke="black" points="495.49,-360.1 491.99,-350.1 488.49,-360.1 495.49,-360.1"/>
</g>
<!-- Epistemology -->
<g id="node11" class="node">
<title>Epistemology</title>
<g id="a_node11"><a xlink:href="https://en.wikipedia.org/wiki/Epistemology" xlink:title="Epistemology">
<ellipse fill="lightskyblue" stroke="lightskyblue" cx="486.99" cy="-260" rx="60.39" ry="18"/>
<text text-anchor="middle" x="486.99" y="-256.3" font-family="Times New Roman,serif" font-size="14.00">Epistemology</text>
</a>
</g>
</g>
<!-- Uncertainty&#45;&gt;Epistemology -->
<g id="edge10" class="edge">
<title>Uncertainty&#45;&gt;Epistemology</title>
<path fill="none" stroke="black" d="M490.75,-313.7C490.2,-305.98 489.54,-296.71 488.93,-288.11"/>
<polygon fill="black" stroke="black" points="492.42,-287.83 488.21,-278.1 485.43,-288.33 492.42,-287.83"/>
</g>
<!-- Outline of philosophy -->
<g id="node12" class="node">
<title>Outline of philosophy</title>
<g id="a_node12"><a xlink:href="https://en.wikipedia.org/wiki/Outline_of_philosophy" xlink:title="Outline of philosophy">
<ellipse fill="lightskyblue" stroke="lightskyblue" cx="484.99" cy="-188" rx="89.88" ry="18"/>
<text text-anchor="middle" x="484.99" y="-184.3" font-family="Times New Roman,serif" font-size="14.00">Outline of philosophy</text>
</a>
</g>
</g>
<!-- Epistemology&#45;&gt;Outline of philosophy -->
<g id="edge11" class="edge">
<title>Epistemology&#45;&gt;Outline of philosophy</title>
<path fill="none" stroke="black" d="M486.5,-241.7C486.28,-233.98 486.01,-224.71 485.77,-216.11"/>
<polygon fill="black" stroke="black" points="489.26,-216 485.48,-206.1 482.27,-216.2 489.26,-216"/>
</g>
<!-- Philosophy -->
<g id="node13" class="node">
<title>Philosophy</title>
<g id="a_node13"><a xlink:href="https://en.wikipedia.org/wiki/Philosophy" xlink:title="Philosophy">
<ellipse fill="lightskyblue" stroke="lightskyblue" cx="406.99" cy="-116" rx="51.99" ry="18"/>
<text text-anchor="middle" x="406.99" y="-112.3" font-family="Times New Roman,serif" font-size="14.00">Philosophy</text>
</a>
</g>
</g>
<!-- Outline of philosophy&#45;&gt;Philosophy -->
<g id="edge12" class="edge">
<title>Outline of philosophy&#45;&gt;Philosophy</title>
<path fill="none" stroke="black" d="M466.11,-170.05C456.02,-161 443.47,-149.73 432.52,-139.91"/>
<polygon fill="black" stroke="black" points="434.67,-137.14 424.89,-133.07 430,-142.35 434.67,-137.14"/>
</g>
<!-- Cordance -->
<g id="node14" class="node">
<title>Cordance</title>
<g id="a_node14"><a xlink:href="https://en.wikipedia.org/wiki/Cordance" xlink:title="Cordance">
<ellipse fill="#b0e2ff" stroke="#b0e2ff" cx="797.99" cy="-1340" rx="46.29" ry="18"/>
<text text-anchor="middle" x="797.99" y="-1336.3" font-family="Times New Roman,serif" font-size="14.00">Cordance</text>
</a>
</g>
</g>
<!-- Quantitative electroencephalography -->
<g id="node15" class="node">
<title>Quantitative electroencephalography</title>
<g id="a_node15"><a xlink:href="https://en.wikipedia.org/wiki/Quantitative_electroencephalography" xlink:title="Quantitative electroencephalography">
<ellipse fill="lightskyblue" stroke="lightskyblue" cx="797.99" cy="-1268" rx="141.88" ry="18"/>
<text text-anchor="middle" x="797.99" y="-1264.3" font-family="Times New Roman,serif" font-size="14.00">Quantitative electroencephalography</text>
</a>
</g>
</g>
<!-- Cordance&#45;&gt;Quantitative electroencephalography -->
<g id="edge13" class="edge">
<title>Cordance&#45;&gt;Quantitative electroencephalography</title>
<path fill="none" stroke="black" d="M797.99,-1321.7C797.99,-1313.98 797.99,-1304.71 797.99,-1296.11"/>
<polygon fill="black" stroke="black" points="801.49,-1296.1 797.99,-1286.1 794.49,-1296.1 801.49,-1296.1"/>
</g>
<!-- Electroencephalography -->
<g id="node16" class="node">
<title>Electroencephalography</title>
<g id="a_node16"><a xlink:href="https://en.wikipedia.org/wiki/Electroencephalography" xlink:title="Electroencephalography">
<ellipse fill="lightskyblue" stroke="lightskyblue" cx="806.99" cy="-1196" rx="98.28" ry="18"/>
<text text-anchor="middle" x="806.99" y="-1192.3" font-family="Times New Roman,serif" font-size="14.00">Electroencephalography</text>
</a>
</g>
</g>
<!-- Quantitative electroencephalography&#45;&gt;Electroencephalography -->
<g id="edge14" class="edge">
<title>Quantitative electroencephalography&#45;&gt;Electroencephalography</title>
<path fill="none" stroke="black" d="M800.22,-1249.7C801.21,-1241.98 802.4,-1232.71 803.5,-1224.11"/>
<polygon fill="black" stroke="black" points="806.99,-1224.47 804.79,-1214.1 800.04,-1223.58 806.99,-1224.47"/>
</g>
<!-- Electrophysiology -->
<g id="node17" class="node">
<title>Electrophysiology</title>
<g id="a_node17"><a xlink:href="https://en.wikipedia.org/wiki/Electrophysiology" xlink:title="Electrophysiology">
<ellipse fill="lightskyblue" stroke="lightskyblue" cx="816.99" cy="-1124" rx="76.89" ry="18"/>
<text text-anchor="middle" x="816.99" y="-1120.3" font-family="Times New Roman,serif" font-size="14.00">Electrophysiology</text>
</a>
</g>
</g>
<!-- Electroencephalography&#45;&gt;Electrophysiology -->
<g id="edge15" class="edge">
<title>Electroencephalography&#45;&gt;Electrophysiology</title>
<path fill="none" stroke="black" d="M809.46,-1177.7C810.56,-1169.98 811.89,-1160.71 813.12,-1152.11"/>
<polygon fill="black" stroke="black" points="816.6,-1152.5 814.55,-1142.1 809.67,-1151.51 816.6,-1152.5"/>
</g>
<!-- Physiology -->
<g id="node18" class="node">
<title>Physiology</title>
<g id="a_node18"><a xlink:href="https://en.wikipedia.org/wiki/Physiology" xlink:title="Physiology">
<ellipse fill="lightskyblue" stroke="lightskyblue" cx="817.99" cy="-1052" rx="51.19" ry="18"/>
<text text-anchor="middle" x="817.99" y="-1048.3" font-family="Times New Roman,serif" font-size="14.00">Physiology</text>
</a>
</g>
</g>
<!-- Electrophysiology&#45;&gt;Physiology -->
<g id="edge16" class="edge">
<title>Electrophysiology&#45;&gt;Physiology</title>
<path fill="none" stroke="black" d="M817.24,-1105.7C817.35,-1097.98 817.48,-1088.71 817.6,-1080.11"/>
<polygon fill="black" stroke="black" points="821.1,-1080.15 817.75,-1070.1 814.1,-1080.05 821.1,-1080.15"/>
</g>
<!-- Function (biology) -->
<g id="node19" class="node">
<title>Function (biology)</title>
<g id="a_node19"><a xlink:href="https://en.wikipedia.org/wiki/Function_(biology)" xlink:title="Function (biology)">
<ellipse fill="lightskyblue" stroke="lightskyblue" cx="828.99" cy="-980" rx="78.79" ry="18"/>
<text text-anchor="middle" x="828.99" y="-976.3" font-family="Times New Roman,serif" font-size="14.00">Function (biology)</text>
</a>
</g>
</g>
<!-- Physiology&#45;&gt;Function (biology) -->
<g id="edge17" class="edge">
<title>Physiology&#45;&gt;Function (biology)</title>
<path fill="none" stroke="black" d="M820.71,-1033.7C821.92,-1025.98 823.38,-1016.71 824.73,-1008.11"/>
<polygon fill="black" stroke="black" points="828.21,-1008.53 826.3,-998.1 821.29,-1007.44 828.21,-1008.53"/>
</g>
<!-- Evolutionary biology -->
<g id="node20" class="node">
<title>Evolutionary biology</title>
<g id="a_node20"><a xlink:href="https://en.wikipedia.org/wiki/Evolutionary_biology" xlink:title="Evolutionary biology">
<ellipse fill="lightskyblue" stroke="lightskyblue" cx="828.99" cy="-908" rx="86.38" ry="18"/>
<text text-anchor="middle" x="828.99" y="-904.3" font-family="Times New Roman,serif" font-size="14.00">Evolutionary biology</text>
</a>
</g>
</g>
<!-- Function (biology)&#45;&gt;Evolutionary biology -->
<g id="edge18" class="edge">
<title>Function (biology)&#45;&gt;Evolutionary biology</title>
<path fill="none" stroke="black" d="M828.99,-961.7C828.99,-953.98 828.99,-944.71 828.99,-936.11"/>
<polygon fill="black" stroke="black" points="832.49,-936.1 828.99,-926.1 825.49,-936.1 832.49,-936.1"/>
</g>
<!-- Biology -->
<g id="node21" class="node">
<title>Biology</title>
<g id="a_node21"><a xlink:href="https://en.wikipedia.org/wiki/Biology" xlink:title="Biology">
<ellipse fill="lightskyblue" stroke="lightskyblue" cx="828.99" cy="-836" rx="38.99" ry="18"/>
<text text-anchor="middle" x="828.99" y="-832.3" font-family="Times New Roman,serif" font-size="14.00">Biology</text>
</a>
</g>
</g>
<!-- Evolutionary biology&#45;&gt;Biology -->
<g id="edge19" class="edge">
<title>Evolutionary biology&#45;&gt;Biology</title>
<path fill="none" stroke="black" d="M828.99,-889.7C828.99,-881.98 828.99,-872.71 828.99,-864.11"/>
<polygon fill="black" stroke="black" points="832.49,-864.1 828.99,-854.1 825.49,-864.1 832.49,-864.1"/>
</g>
<!-- Natural science -->
<g id="node22" class="node">
<title>Natural science</title>
<g id="a_node22"><a xlink:href="https://en.wikipedia.org/wiki/Natural_science" xlink:title="Natural science">
<ellipse fill="lightskyblue" stroke="lightskyblue" cx="808.99" cy="-764" rx="65.79" ry="18"/>
<text text-anchor="middle" x="808.99" y="-760.3" font-family="Times New Roman,serif" font-size="14.00">Natural science</text>
</a>
</g>
</g>
<!-- Biology&#45;&gt;Natural science -->
<g id="edge20" class="edge">
<title>Biology&#45;&gt;Natural science</title>
<path fill="none" stroke="black" d="M824.15,-818.05C821.92,-810.26 819.23,-800.82 816.73,-792.08"/>
<polygon fill="black" stroke="black" points="820.04,-790.93 813.93,-782.28 813.31,-792.85 820.04,-790.93"/>
</g>
<!-- Branches of science -->
<g id="node23" class="node">
<title>Branches of science</title>
<g id="a_node23"><a xlink:href="https://en.wikipedia.org/wiki/Branches_of_science" xlink:title="Branches of science">
<ellipse fill="lightskyblue" stroke="lightskyblue" cx="795.99" cy="-692" rx="83.69" ry="18"/>
<text text-anchor="middle" x="795.99" y="-688.3" font-family="Times New Roman,serif" font-size="14.00">Branches of science</text>
</a>
</g>
</g>
<!-- Natural science&#45;&gt;Branches of science -->
<g id="edge21" class="edge">
<title>Natural science&#45;&gt;Branches of science</title>
<path fill="none" stroke="black" d="M805.78,-745.7C804.34,-737.98 802.62,-728.71 801.03,-720.11"/>
<polygon fill="black" stroke="black" points="804.43,-719.3 799.17,-710.1 797.55,-720.58 804.43,-719.3"/>
</g>
<!-- Branches of science&#45;&gt;Science -->
<g id="edge22" class="edge">
<title>Branches of science&#45;&gt;Science</title>
<path fill="none" stroke="black" d="M750.05,-676.83C709.09,-664.2 649.66,-645.88 610.2,-633.71"/>
<polygon fill="black" stroke="black" points="611.21,-630.36 600.63,-630.76 609.15,-637.05 611.21,-630.36"/>
</g>
<!-- Hōjō Tokimura -->
<g id="node24" class="node">
<title>Hōjō Tokimura</title>
<g id="a_node24"><a xlink:href="https://en.wikipedia.org/wiki/H%C5%8Dj%C5%8D_Tokimura" xlink:title="Hōjō Tokimura">
<ellipse fill="#b0e2ff" stroke="#b0e2ff" cx="1000.99" cy="-1700" rx="66.09" ry="18"/>
<text text-anchor="middle" x="1000.99" y="-1696.3" font-family="Times New Roman,serif" font-size="14.00">Hōjō Tokimura</text>
</a>
</g>
</g>
<!-- Kamakura shogunate -->
<g id="node25" class="node">
<title>Kamakura shogunate</title>
<g id="a_node25"><a xlink:href="https://en.wikipedia.org/wiki/Kamakura_shogunate" xlink:title="Kamakura shogunate">
<ellipse fill="lightskyblue" stroke="lightskyblue" cx="1000.99" cy="-1628" rx="86.38" ry="18"/>
<text text-anchor="middle" x="1000.99" y="-1624.3" font-family="Times New Roman,serif" font-size="14.00">Kamakura shogunate</text>
</a>
</g>
</g>
<!-- Hōjō Tokimura&#45;&gt;Kamakura shogunate -->
<g id="edge23" class="edge">
<title>Hōjō Tokimura&#45;&gt;Kamakura shogunate</title>
<path fill="none" stroke="black" d="M1000.99,-1681.7C1000.99,-1673.98 1000.99,-1664.71 1000.99,-1656.11"/>
<polygon fill="black" stroke="black" points="1004.49,-1656.1 1000.99,-1646.1 997.49,-1656.1 1004.49,-1656.1"/>
</g>
<!-- Feudal -->
<g id="node26" class="node">
<title>Feudal</title>
<g id="a_node26"><a xlink:href="https://en.wikipedia.org/wiki/Feudal" xlink:title="Feudal">
<ellipse fill="lightskyblue" stroke="lightskyblue" cx="1000.99" cy="-1556" rx="35.19" ry="18"/>
<text text-anchor="middle" x="1000.99" y="-1552.3" font-family="Times New Roman,serif" font-size="14.00">Feudal</text>
</a>
</g>
</g>
<!-- Kamakura shogunate&#45;&gt;Feudal -->
<g id="edge24" class="edge">
<title>Kamakura shogunate&#45;&gt;Feudal</title>
<path fill="none" stroke="black" d="M1000.99,-1609.7C1000.99,-1601.98 1000.99,-1592.71 1000.99,-1584.11"/>
<polygon fill="black" stroke="black" points="1004.49,-1584.1 1000.99,-1574.1 997.49,-1584.1 1004.49,-1584.1"/>
</g>
<!-- Medieval Europe -->
<g id="node27" class="node">
<title>Medieval Europe</title>
<g id="a_node27"><a xlink:href="https://en.wikipedia.org/wiki/Medieval_Europe" xlink:title="Medieval Europe">
<ellipse fill="lightskyblue" stroke="lightskyblue" cx="1000.99" cy="-1484" rx="72.29" ry="18"/>
<text text-anchor="middle" x="1000.99" y="-1480.3" font-family="Times New Roman,serif" font-size="14.00">Medieval Europe</text>
</a>
</g>
</g>
<!-- Feudal&#45;&gt;Medieval Europe -->
<g id="edge25" class="edge">
<title>Feudal&#45;&gt;Medieval Europe</title>
<path fill="none" stroke="black" d="M1000.99,-1537.7C1000.99,-1529.98 1000.99,-1520.71 1000.99,-1512.11"/>
<polygon fill="black" stroke="black" points="1004.49,-1512.1 1000.99,-1502.1 997.49,-1512.1 1004.49,-1512.1"/>
</g>
<!-- History of Europe -->
<g id="node28" class="node">
<title>History of Europe</title>
<g id="a_node28"><a xlink:href="https://en.wikipedia.org/wiki/History_of_Europe" xlink:title="History of Europe">
<ellipse fill="lightskyblue" stroke="lightskyblue" cx="1000.99" cy="-1412" rx="76.89" ry="18"/>
<text text-anchor="middle" x="1000.99" y="-1408.3" font-family="Times New Roman,serif" font-size="14.00">History of Europe</text>
</a>
</g>
</g>
<!-- Medieval Europe&#45;&gt;History of Europe -->
<g id="edge26" class="edge">
<title>Medieval Europe&#45;&gt;History of Europe</title>
<path fill="none" stroke="black" d="M1000.99,-1465.7C1000.99,-1457.98 1000.99,-1448.71 1000.99,-1440.11"/>
<polygon fill="black" stroke="black" points="1004.49,-1440.1 1000.99,-1430.1 997.49,-1440.1 1004.49,-1440.1"/>
</g>
<!-- Neolithic Europe -->
<g id="node29" class="node">
<title>Neolithic Europe</title>
<g id="a_node29"><a xlink:href="https://en.wikipedia.org/wiki/Neolithic_Europe" xlink:title="Neolithic Europe">
<ellipse fill="lightskyblue" stroke="lightskyblue" cx="1000.99" cy="-1340" rx="71.49" ry="18"/>
<text text-anchor="middle" x="1000.99" y="-1336.3" font-family="Times New Roman,serif" font-size="14.00">Neolithic Europe</text>
</a>
</g>
</g>
<!-- History of Europe&#45;&gt;Neolithic Europe -->
<g id="edge27" class="edge">
<title>History of Europe&#45;&gt;Neolithic Europe</title>
<path fill="none" stroke="black" d="M1000.99,-1393.7C1000.99,-1385.98 1000.99,-1376.71 1000.99,-1368.11"/>
<polygon fill="black" stroke="black" points="1004.49,-1368.1 1000.99,-1358.1 997.49,-1368.1 1004.49,-1368.1"/>
</g>
<!-- Neolithic -->
<g id="node30" class="node">
<title>Neolithic</title>
<g id="a_node30"><a xlink:href="https://en.wikipedia.org/wiki/Neolithic" xlink:title="Neolithic">
<ellipse fill="lightskyblue" stroke="lightskyblue" cx="1000.99" cy="-1268" rx="42.79" ry="18"/>
<text text-anchor="middle" x="1000.99" y="-1264.3" font-family="Times New Roman,serif" font-size="14.00">Neolithic</text>
</a>
</g>
</g>
<!-- Neolithic Europe&#45;&gt;Neolithic -->
<g id="edge28" class="edge">
<title>Neolithic Europe&#45;&gt;Neolithic</title>
<path fill="none" stroke="black" d="M1000.99,-1321.7C1000.99,-1313.98 1000.99,-1304.71 1000.99,-1296.11"/>
<polygon fill="black" stroke="black" points="1004.49,-1296.1 1000.99,-1286.1 997.49,-1296.1 1004.49,-1296.1"/>
</g>
<!-- Stone Age -->
<g id="node31" class="node">
<title>Stone Age</title>
<g id="a_node31"><a xlink:href="https://en.wikipedia.org/wiki/Stone_Age" xlink:title="Stone Age">
<ellipse fill="lightskyblue" stroke="lightskyblue" cx="990.99" cy="-1196" rx="48.99" ry="18"/>
<text text-anchor="middle" x="990.99" y="-1192.3" font-family="Times New Roman,serif" font-size="14.00">Stone Age</text>
</a>
</g>
</g>
<!-- Neolithic&#45;&gt;Stone Age -->
<g id="edge29" class="edge">
<title>Neolithic&#45;&gt;Stone Age</title>
<path fill="none" stroke="black" d="M998.52,-1249.7C997.42,-1241.98 996.09,-1232.71 994.86,-1224.11"/>
<polygon fill="black" stroke="black" points="998.31,-1223.51 993.43,-1214.1 991.38,-1224.5 998.31,-1223.51"/>
</g>
<!-- Prehistory -->
<g id="node32" class="node">
<title>Prehistory</title>
<g id="a_node32"><a xlink:href="https://en.wikipedia.org/wiki/Prehistory" xlink:title="Prehistory">
<ellipse fill="lightskyblue" stroke="lightskyblue" cx="987.99" cy="-1124" rx="48.19" ry="18"/>
<text text-anchor="middle" x="987.99" y="-1120.3" font-family="Times New Roman,serif" font-size="14.00">Prehistory</text>
</a>
</g>
</g>
<!-- Stone Age&#45;&gt;Prehistory -->
<g id="edge30" class="edge">
<title>Stone Age&#45;&gt;Prehistory</title>
<path fill="none" stroke="black" d="M990.25,-1177.7C989.92,-1169.98 989.52,-1160.71 989.15,-1152.11"/>
<polygon fill="black" stroke="black" points="992.65,-1151.95 988.72,-1142.1 985.66,-1152.25 992.65,-1151.95"/>
</g>
<!-- Human history -->
<g id="node33" class="node">
<title>Human history</title>
<g id="a_node33"><a xlink:href="https://en.wikipedia.org/wiki/Human_history" xlink:title="Human history">
<ellipse fill="lightskyblue" stroke="lightskyblue" cx="982.99" cy="-1052" rx="63.89" ry="18"/>
<text text-anchor="middle" x="982.99" y="-1048.3" font-family="Times New Roman,serif" font-size="14.00">Human history</text>
</a>
</g>
</g>
<!-- Prehistory&#45;&gt;Human history -->
<g id="edge31" class="edge">
<title>Prehistory&#45;&gt;Human history</title>
<path fill="none" stroke="black" d="M986.75,-1105.7C986.2,-1097.98 985.54,-1088.71 984.93,-1080.11"/>
<polygon fill="black" stroke="black" points="988.42,-1079.83 984.21,-1070.1 981.43,-1080.33 988.42,-1079.83"/>
</g>
<!-- Human -->
<g id="node34" class="node">
<title>Human</title>
<g id="a_node34"><a xlink:href="https://en.wikipedia.org/wiki/Human" xlink:title="Human">
<ellipse fill="lightskyblue" stroke="lightskyblue" cx="979.99" cy="-980" rx="36.29" ry="18"/>
<text text-anchor="middle" x="979.99" y="-976.3" font-family="Times New Roman,serif" font-size="14.00">Human</text>
</a>
</g>
</g>
<!-- Human history&#45;&gt;Human -->
<g id="edge32" class="edge">
<title>Human history&#45;&gt;Human</title>
<path fill="none" stroke="black" d="M982.25,-1033.7C981.92,-1025.98 981.52,-1016.71 981.15,-1008.11"/>
<polygon fill="black" stroke="black" points="984.65,-1007.95 980.72,-998.1 977.66,-1008.25 984.65,-1007.95"/>
</g>
<!-- Species -->
<g id="node35" class="node">
<title>Species</title>
<g id="a_node35"><a xlink:href="https://en.wikipedia.org/wiki/Species" xlink:title="Species">
<ellipse fill="lightskyblue" stroke="lightskyblue" cx="974.99" cy="-908" rx="38.99" ry="18"/>
<text text-anchor="middle" x="974.99" y="-904.3" font-family="Times New Roman,serif" font-size="14.00">Species</text>
</a>
</g>
</g>
<!-- Human&#45;&gt;Species -->
<g id="edge33" class="edge">
<title>Human&#45;&gt;Species</title>
<path fill="none" stroke="black" d="M978.75,-961.7C978.2,-953.98 977.54,-944.71 976.93,-936.11"/>
<polygon fill="black" stroke="black" points="980.42,-935.83 976.21,-926.1 973.43,-936.33 980.42,-935.83"/>
</g>
<!-- Species&#45;&gt;Biology -->
<g id="edge34" class="edge">
<title>Species&#45;&gt;Biology</title>
<path fill="none" stroke="black" d="M948.89,-894.49C925.37,-883.21 890.58,-866.53 864.53,-854.04"/>
<polygon fill="black" stroke="black" points="865.89,-850.81 855.36,-849.64 862.86,-857.12 865.89,-850.81"/>
</g>
<!-- XEFB&#45;TDT -->
<g id="node36" class="node">
<title>XEFB&#45;TDT</title>
<g id="a_node36"><a xlink:href="https://en.wikipedia.org/wiki/XEFB-TDT" xlink:title="XEFB&#45;TDT">
<ellipse fill="#b0e2ff" stroke="#b0e2ff" cx="299.99" cy="-836" rx="54.69" ry="18"/>
<text text-anchor="middle" x="299.99" y="-832.3" font-family="Times New Roman,serif" font-size="14.00">XEFB&#45;TDT</text>
</a>
</g>
</g>
<!-- Monterrey -->
<g id="node37" class="node">
<title>Monterrey</title>
<g id="a_node37"><a xlink:href="https://en.wikipedia.org/wiki/Monterrey" xlink:title="Monterrey">
<ellipse fill="lightskyblue" stroke="lightskyblue" cx="299.99" cy="-764" rx="48.19" ry="18"/>
<text text-anchor="middle" x="299.99" y="-760.3" font-family="Times New Roman,serif" font-size="14.00">Monterrey</text>
</a>
</g>
</g>
<!-- XEFB&#45;TDT&#45;&gt;Monterrey -->
<g id="edge35" class="edge">
<title>XEFB&#45;TDT&#45;&gt;Monterrey</title>
<path fill="none" stroke="black" d="M299.99,-817.7C299.99,-809.98 299.99,-800.71 299.99,-792.11"/>
<polygon fill="black" stroke="black" points="303.49,-792.1 299.99,-782.1 296.49,-792.1 303.49,-792.1"/>
</g>
<!-- Mexico -->
<g id="node38" class="node">
<title>Mexico</title>
<g id="a_node38"><a xlink:href="https://en.wikipedia.org/wiki/Mexico" xlink:title="Mexico">
<ellipse fill="lightskyblue" stroke="lightskyblue" cx="304.99" cy="-692" rx="38.19" ry="18"/>
<text text-anchor="middle" x="304.99" y="-688.3" font-family="Times New Roman,serif" font-size="14.00">Mexico</text>
</a>
</g>
</g>
<!-- Monterrey&#45;&gt;Mexico -->
<g id="edge36" class="edge">
<title>Monterrey&#45;&gt;Mexico</title>
<path fill="none" stroke="black" d="M301.23,-745.7C301.78,-737.98 302.44,-728.71 303.05,-720.11"/>
<polygon fill="black" stroke="black" points="306.55,-720.33 303.77,-710.1 299.57,-719.83 306.55,-720.33"/>
</g>
<!-- Nahuan languages -->
<g id="node39" class="node">
<title>Nahuan languages</title>
<g id="a_node39"><a xlink:href="https://en.wikipedia.org/wiki/Nahuan_languages" xlink:title="Nahuan languages">
<ellipse fill="lightskyblue" stroke="lightskyblue" cx="313.99" cy="-620" rx="75.29" ry="18"/>
<text text-anchor="middle" x="313.99" y="-616.3" font-family="Times New Roman,serif" font-size="14.00">Nahuan languages</text>
</a>
</g>
</g>
<!-- Mexico&#45;&gt;Nahuan languages -->
<g id="edge37" class="edge">
<title>Mexico&#45;&gt;Nahuan languages</title>
<path fill="none" stroke="black" d="M307.22,-673.7C308.21,-665.98 309.4,-656.71 310.5,-648.11"/>
<polygon fill="black" stroke="black" points="313.99,-648.47 311.79,-638.1 307.04,-647.58 313.99,-648.47"/>
</g>
<!-- Uto&#45;Aztecan languages -->
<g id="node40" class="node">
<title>Uto&#45;Aztecan languages</title>
<g id="a_node40"><a xlink:href="https://en.wikipedia.org/wiki/Uto-Aztecan_languages" xlink:title="Uto&#45;Aztecan languages">
<ellipse fill="lightskyblue" stroke="lightskyblue" cx="318.99" cy="-548" rx="94.48" ry="18"/>
<text text-anchor="middle" x="318.99" y="-544.3" font-family="Times New Roman,serif" font-size="14.00">Uto&#45;Aztecan languages</text>
</a>
</g>
</g>
<!-- Nahuan languages&#45;&gt;Uto&#45;Aztecan languages -->
<g id="edge38" class="edge">
<title>Nahuan languages&#45;&gt;Uto&#45;Aztecan languages</title>
<path fill="none" stroke="black" d="M315.23,-601.7C315.78,-593.98 316.44,-584.71 317.05,-576.11"/>
<polygon fill="black" stroke="black" points="320.55,-576.33 317.77,-566.1 313.57,-575.83 320.55,-576.33"/>
</g>
<!-- Language family -->
<g id="node41" class="node">
<title>Language family</title>
<g id="a_node41"><a xlink:href="https://en.wikipedia.org/wiki/Language_family" xlink:title="Language family">
<ellipse fill="lightskyblue" stroke="lightskyblue" cx="318.99" cy="-476" rx="69.59" ry="18"/>
<text text-anchor="middle" x="318.99" y="-472.3" font-family="Times New Roman,serif" font-size="14.00">Language family</text>
</a>
</g>
</g>
<!-- Uto&#45;Aztecan languages&#45;&gt;Language family -->
<g id="edge39" class="edge">
<title>Uto&#45;Aztecan languages&#45;&gt;Language family</title>
<path fill="none" stroke="black" d="M318.99,-529.7C318.99,-521.98 318.99,-512.71 318.99,-504.11"/>
<polygon fill="black" stroke="black" points="322.49,-504.1 318.99,-494.1 315.49,-504.1 322.49,-504.1"/>
</g>
<!-- Language -->
<g id="node42" class="node">
<title>Language</title>
<g id="a_node42"><a xlink:href="https://en.wikipedia.org/wiki/Language" xlink:title="Language">
<ellipse fill="lightskyblue" stroke="lightskyblue" cx="323.99" cy="-404" rx="45.49" ry="18"/>
<text text-anchor="middle" x="323.99" y="-400.3" font-family="Times New Roman,serif" font-size="14.00">Language</text>
</a>
</g>
</g>
<!-- Language family&#45;&gt;Language -->
<g id="edge40" class="edge">
<title>Language family&#45;&gt;Language</title>
<path fill="none" stroke="black" d="M320.23,-457.7C320.78,-449.98 321.44,-440.71 322.05,-432.11"/>
<polygon fill="black" stroke="black" points="325.55,-432.33 322.77,-422.1 318.57,-431.83 325.55,-432.33"/>
</g>
<!-- Writing -->
<g id="node43" class="node">
<title>Writing</title>
<g id="a_node43"><a xlink:href="https://en.wikipedia.org/wiki/Writing" xlink:title="Writing">
<ellipse fill="lightskyblue" stroke="lightskyblue" cx="326.99" cy="-332" rx="37.89" ry="18"/>
<text text-anchor="middle" x="326.99" y="-328.3" font-family="Times New Roman,serif" font-size="14.00">Writing</text>
</a>
</g>
</g>
<!-- Language&#45;&gt;Writing -->
<g id="edge41" class="edge">
<title>Language&#45;&gt;Writing</title>
<path fill="none" stroke="black" d="M324.73,-385.7C325.06,-377.98 325.46,-368.71 325.83,-360.11"/>
<polygon fill="black" stroke="black" points="329.33,-360.25 326.26,-350.1 322.33,-359.95 329.33,-360.25"/>
</g>
<!-- Communication -->
<g id="node44" class="node">
<title>Communication</title>
<g id="a_node44"><a xlink:href="https://en.wikipedia.org/wiki/Communication" xlink:title="Communication">
<ellipse fill="lightskyblue" stroke="lightskyblue" cx="327.99" cy="-260" rx="68.49" ry="18"/>
<text text-anchor="middle" x="327.99" y="-256.3" font-family="Times New Roman,serif" font-size="14.00">Communication</text>
</a>
</g>
</g>
<!-- Writing&#45;&gt;Communication -->
<g id="edge42" class="edge">
<title>Writing&#45;&gt;Communication</title>
<path fill="none" stroke="black" d="M327.24,-313.7C327.35,-305.98 327.48,-296.71 327.6,-288.11"/>
<polygon fill="black" stroke="black" points="331.1,-288.15 327.75,-278.1 324.1,-288.05 331.1,-288.15"/>
</g>
<!-- Semantics -->
<g id="node45" class="node">
<title>Semantics</title>
<g id="a_node45"><a xlink:href="https://en.wikipedia.org/wiki/Semantics" xlink:title="Semantics">
<ellipse fill="lightskyblue" stroke="lightskyblue" cx="328.99" cy="-188" rx="48.19" ry="18"/>
<text text-anchor="middle" x="328.99" y="-184.3" font-family="Times New Roman,serif" font-size="14.00">Semantics</text>
</a>
</g>
</g>
<!-- Communication&#45;&gt;Semantics -->
<g id="edge43" class="edge">
<title>Communication&#45;&gt;Semantics</title>
<path fill="none" stroke="black" d="M328.24,-241.7C328.35,-233.98 328.48,-224.71 328.6,-216.11"/>
<polygon fill="black" stroke="black" points="332.1,-216.15 328.75,-206.1 325.1,-216.05 332.1,-216.15"/>
</g>
<!-- Semantics&#45;&gt;Philosophy -->
<g id="edge44" class="edge">
<title>Semantics&#45;&gt;Philosophy</title>
<path fill="none" stroke="black" d="M346.69,-171.12C356.99,-161.87 370.15,-150.07 381.54,-139.84"/>
<polygon fill="black" stroke="black" points="383.99,-142.35 389.09,-133.06 379.31,-137.14 383.99,-142.35"/>
</g>
<!-- Apostolos Papadopoulos -->
<g id="node46" class="node">
<title>Apostolos Papadopoulos</title>
<g id="a_node46"><a xlink:href="https://en.wikipedia.org/wiki/Apostolos_Papadopoulos" xlink:title="Apostolos Papadopoulos">
<ellipse fill="#b0e2ff" stroke="#b0e2ff" cx="103.99" cy="-836" rx="103.98" ry="18"/>
<text text-anchor="middle" x="103.99" y="-832.3" font-family="Times New Roman,serif" font-size="14.00">Apostolos Papadopoulos</text>
</a>
</g>
</g>
<!-- Magnesia (regional unit) -->
<g id="node47" class="node">
<title>Magnesia (regional unit)</title>
<g id="a_node47"><a xlink:href="https://en.wikipedia.org/wiki/Magnesia_(regional_unit)" xlink:title="Magnesia (regional unit)">
<ellipse fill="lightskyblue" stroke="lightskyblue" cx="103.99" cy="-764" rx="96.68" ry="18"/>
<text text-anchor="middle" x="103.99" y="-760.3" font-family="Times New Roman,serif" font-size="14.00">Magnesia (regional unit)</text>
</a>
</g>
</g>
<!-- Apostolos Papadopoulos&#45;&gt;Magnesia (regional unit) -->
<g id="edge45" class="edge">
<title>Apostolos Papadopoulos&#45;&gt;Magnesia (regional unit)</title>
<path fill="none" stroke="black" d="M103.99,-817.7C103.99,-809.98 103.99,-800.71 103.99,-792.11"/>
<polygon fill="black" stroke="black" points="107.49,-792.1 103.99,-782.1 100.49,-792.1 107.49,-792.1"/>
</g>
<!-- Ancient Greek -->
<g id="node48" class="node">
<title>Ancient Greek</title>
<g id="a_node48"><a xlink:href="https://en.wikipedia.org/wiki/Ancient_Greek" xlink:title="Ancient Greek">
<ellipse fill="lightskyblue" stroke="lightskyblue" cx="103.99" cy="-692" rx="63.09" ry="18"/>
<text text-anchor="middle" x="103.99" y="-688.3" font-family="Times New Roman,serif" font-size="14.00">Ancient Greek</text>
</a>
</g>
</g>
<!-- Magnesia (regional unit)&#45;&gt;Ancient Greek -->
<g id="edge46" class="edge">
<title>Magnesia (regional unit)&#45;&gt;Ancient Greek</title>
<path fill="none" stroke="black" d="M103.99,-745.7C103.99,-737.98 103.99,-728.71 103.99,-720.11"/>
<polygon fill="black" stroke="black" points="107.49,-720.1 103.99,-710.1 100.49,-720.1 107.49,-720.1"/>
</g>
<!-- Greek language -->
<g id="node49" class="node">
<title>Greek language</title>
<g id="a_node49"><a xlink:href="https://en.wikipedia.org/wiki/Greek_language" xlink:title="Greek language">
<ellipse fill="lightskyblue" stroke="lightskyblue" cx="103.99" cy="-620" rx="66.09" ry="18"/>
<text text-anchor="middle" x="103.99" y="-616.3" font-family="Times New Roman,serif" font-size="14.00">Greek language</text>
</a>
</g>
</g>
<!-- Ancient Greek&#45;&gt;Greek language -->
<g id="edge47" class="edge">
<title>Ancient Greek&#45;&gt;Greek language</title>
<path fill="none" stroke="black" d="M103.99,-673.7C103.99,-665.98 103.99,-656.71 103.99,-648.11"/>
<polygon fill="black" stroke="black" points="107.49,-648.1 103.99,-638.1 100.49,-648.1 107.49,-648.1"/>
</g>
<!-- Indo&#45;European languages -->
<g id="node50" class="node">
<title>Indo&#45;European languages</title>
<g id="a_node50"><a xlink:href="https://en.wikipedia.org/wiki/Indo-European_languages" xlink:title="Indo&#45;European languages">
<ellipse fill="lightskyblue" stroke="lightskyblue" cx="103.99" cy="-548" rx="102.88" ry="18"/>
<text text-anchor="middle" x="103.99" y="-544.3" font-family="Times New Roman,serif" font-size="14.00">Indo&#45;European languages</text>
</a>
</g>
</g>
<!-- Greek language&#45;&gt;Indo&#45;European languages -->
<g id="edge48" class="edge">
<title>Greek language&#45;&gt;Indo&#45;European languages</title>
<path fill="none" stroke="black" d="M103.99,-601.7C103.99,-593.98 103.99,-584.71 103.99,-576.11"/>
<polygon fill="black" stroke="black" points="107.49,-576.1 103.99,-566.1 100.49,-576.1 107.49,-576.1"/>
</g>
<!-- Indo&#45;European languages&#45;&gt;Language family -->
<g id="edge49" class="edge">
<title>Indo&#45;European languages&#45;&gt;Language family</title>
<path fill="none" stroke="black" d="M150.38,-531.9C184.91,-520.66 232.03,-505.31 267.68,-493.71"/>
<polygon fill="black" stroke="black" points="268.99,-496.96 277.41,-490.54 266.82,-490.3 268.99,-496.96"/>
</g>
<!-- Charles Ashleigh -->
<g id="node51" class="node">
<title>Charles Ashleigh</title>
<g id="a_node51"><a xlink:href="https://en.wikipedia.org/wiki/Charles_Ashleigh" xlink:title="Charles Ashleigh">
<ellipse fill="#b0e2ff" stroke="#b0e2ff" cx="418.99" cy="-1268" rx="71.49" ry="18"/>
<text text-anchor="middle" x="418.99" y="-1264.3" font-family="Times New Roman,serif" font-size="14.00">Charles Ashleigh</text>
</a>
</g>
</g>
<!-- English people -->
<g id="node52" class="node">
<title>English people</title>
<g id="a_node52"><a xlink:href="https://en.wikipedia.org/wiki/English_people" xlink:title="English people">
<ellipse fill="lightskyblue" stroke="lightskyblue" cx="418.99" cy="-1196" rx="63.89" ry="18"/>
<text text-anchor="middle" x="418.99" y="-1192.3" font-family="Times New Roman,serif" font-size="14.00">English people</text>
</a>
</g>
</g>
<!-- Charles Ashleigh&#45;&gt;English people -->
<g id="edge50" class="edge">
<title>Charles Ashleigh&#45;&gt;English people</title>
<path fill="none" stroke="black" d="M418.99,-1249.7C418.99,-1241.98 418.99,-1232.71 418.99,-1224.11"/>
<polygon fill="black" stroke="black" points="422.49,-1224.1 418.99,-1214.1 415.49,-1224.1 422.49,-1224.1"/>
</g>
<!-- Ethnic group -->
<g id="node53" class="node">
<title>Ethnic group</title>
<g id="a_node53"><a xlink:href="https://en.wikipedia.org/wiki/Ethnic_group" xlink:title="Ethnic group">
<ellipse fill="lightskyblue" stroke="lightskyblue" cx="418.99" cy="-1124" rx="57.69" ry="18"/>
<text text-anchor="middle" x="418.99" y="-1120.3" font-family="Times New Roman,serif" font-size="14.00">Ethnic group</text>
</a>
</g>
</g>
<!-- English people&#45;&gt;Ethnic group -->
<g id="edge51" class="edge">
<title>English people&#45;&gt;Ethnic group</title>
<path fill="none" stroke="black" d="M418.99,-1177.7C418.99,-1169.98 418.99,-1160.71 418.99,-1152.11"/>
<polygon fill="black" stroke="black" points="422.49,-1152.1 418.99,-1142.1 415.49,-1152.1 422.49,-1152.1"/>
</g>
<!-- Identity (social science) -->
<g id="node54" class="node">
<title>Identity (social science)</title>
<g id="a_node54"><a xlink:href="https://en.wikipedia.org/wiki/Identity_(social_science)" xlink:title="Identity (social science)">
<ellipse fill="lightskyblue" stroke="lightskyblue" cx="418.99" cy="-1052" rx="96.68" ry="18"/>
<text text-anchor="middle" x="418.99" y="-1048.3" font-family="Times New Roman,serif" font-size="14.00">Identity (social science)</text>
</a>
</g>
</g>
<!-- Ethnic group&#45;&gt;Identity (social science) -->
<g id="edge52" class="edge">
<title>Ethnic group&#45;&gt;Identity (social science)</title>
<path fill="none" stroke="black" d="M418.99,-1105.7C418.99,-1097.98 418.99,-1088.71 418.99,-1080.11"/>
<polygon fill="black" stroke="black" points="422.49,-1080.1 418.99,-1070.1 415.49,-1080.1 422.49,-1080.1"/>
</g>
<!-- Self&#45;image -->
<g id="node55" class="node">
<title>Self&#45;image</title>
<g id="a_node55"><a xlink:href="https://en.wikipedia.org/wiki/Self-image" xlink:title="Self&#45;image">
<ellipse fill="lightskyblue" stroke="lightskyblue" cx="418.99" cy="-980" rx="48.99" ry="18"/>
<text text-anchor="middle" x="418.99" y="-976.3" font-family="Times New Roman,serif" font-size="14.00">Self&#45;image</text>
</a>
</g>
</g>
<!-- Identity (social science)&#45;&gt;Self&#45;image -->
<g id="edge53" class="edge">
<title>Identity (social science)&#45;&gt;Self&#45;image</title>
<path fill="none" stroke="black" d="M418.99,-1033.7C418.99,-1025.98 418.99,-1016.71 418.99,-1008.11"/>
<polygon fill="black" stroke="black" points="422.49,-1008.1 418.99,-998.1 415.49,-1008.1 422.49,-1008.1"/>
</g>
<!-- Self&#45;schema -->
<g id="node56" class="node">
<title>Self&#45;schema</title>
<g id="a_node56"><a xlink:href="https://en.wikipedia.org/wiki/Self-schema" xlink:title="Self&#45;schema">
<ellipse fill="lightskyblue" stroke="lightskyblue" cx="428.99" cy="-908" rx="55.49" ry="18"/>
<text text-anchor="middle" x="428.99" y="-904.3" font-family="Times New Roman,serif" font-size="14.00">Self&#45;schema</text>
</a>
</g>
</g>
<!-- Self&#45;image&#45;&gt;Self&#45;schema -->
<g id="edge54" class="edge">
<title>Self&#45;image&#45;&gt;Self&#45;schema</title>
<path fill="none" stroke="black" d="M421.46,-961.7C422.56,-953.98 423.89,-944.71 425.12,-936.11"/>
<polygon fill="black" stroke="black" points="428.6,-936.5 426.55,-926.1 421.67,-935.51 428.6,-936.5"/>
</g>
<!-- Beliefs -->
<g id="node57" class="node">
<title>Beliefs</title>
<g id="a_node57"><a xlink:href="https://en.wikipedia.org/wiki/Beliefs" xlink:title="Beliefs">
<ellipse fill="lightskyblue" stroke="lightskyblue" cx="437.99" cy="-836" rx="35.19" ry="18"/>
<text text-anchor="middle" x="437.99" y="-832.3" font-family="Times New Roman,serif" font-size="14.00">Beliefs</text>
</a>
</g>
</g>
<!-- Self&#45;schema&#45;&gt;Beliefs -->
<g id="edge55" class="edge">
<title>Self&#45;schema&#45;&gt;Beliefs</title>
<path fill="none" stroke="black" d="M431.22,-889.7C432.21,-881.98 433.4,-872.71 434.5,-864.11"/>
<polygon fill="black" stroke="black" points="437.99,-864.47 435.79,-854.1 431.04,-863.58 437.99,-864.47"/>
</g>
<!-- Attitude (psychology) -->
<g id="node58" class="node">
<title>Attitude (psychology)</title>
<g id="a_node58"><a xlink:href="https://en.wikipedia.org/wiki/Attitude_(psychology)" xlink:title="Attitude (psychology)">
<ellipse fill="lightskyblue" stroke="lightskyblue" cx="455.99" cy="-764" rx="90.18" ry="18"/>
<text text-anchor="middle" x="455.99" y="-760.3" font-family="Times New Roman,serif" font-size="14.00">Attitude (psychology)</text>
</a>
</g>
</g>
<!-- Beliefs&#45;&gt;Attitude (psychology) -->
<g id="edge56" class="edge">
<title>Beliefs&#45;&gt;Attitude (psychology)</title>
<path fill="none" stroke="black" d="M442.35,-818.05C444.35,-810.26 446.78,-800.82 449.03,-792.08"/>
<polygon fill="black" stroke="black" points="452.45,-792.83 451.55,-782.28 445.67,-791.09 452.45,-792.83"/>
</g>
<!-- Psychology -->
<g id="node59" class="node">
<title>Psychology</title>
<g id="a_node59"><a xlink:href="https://en.wikipedia.org/wiki/Psychology" xlink:title="Psychology">
<ellipse fill="lightskyblue" stroke="lightskyblue" cx="462.99" cy="-692" rx="53.89" ry="18"/>
<text text-anchor="middle" x="462.99" y="-688.3" font-family="Times New Roman,serif" font-size="14.00">Psychology</text>
</a>
</g>
</g>
<!-- Attitude (psychology)&#45;&gt;Psychology -->
<g id="edge57" class="edge">
<title>Attitude (psychology)&#45;&gt;Psychology</title>
<path fill="none" stroke="black" d="M457.72,-745.7C458.49,-737.98 459.42,-728.71 460.28,-720.11"/>
<polygon fill="black" stroke="black" points="463.77,-720.4 461.28,-710.1 456.8,-719.71 463.77,-720.4"/>
</g>
<!-- Psychology&#45;&gt;Science -->
<g id="edge58" class="edge">
<title>Psychology&#45;&gt;Science</title>
<path fill="none" stroke="black" d="M486.25,-675.64C501.82,-665.36 522.45,-651.73 539.22,-640.66"/>
<polygon fill="black" stroke="black" points="541.17,-643.57 547.59,-635.14 537.31,-637.73 541.17,-643.57"/>
</g>
</g>
</svg>
