<?xml version="1.0" encoding="UTF-8" standalone="no"?>
<!DOCTYPE svg PUBLIC "-//W3C//DTD SVG 1.1//EN"
 "http://www.w3.org/Graphics/SVG/1.1/DTD/svg11.dtd">
<!-- Generated by graphviz version 2.46.0 (20210118.1747)
 -->
<!-- Title: unix Pages: 1 -->
<svg width="1041pt" height="1870pt"
 viewBox="0.00 0.00 1040.73 1870.00" xmlns="http://www.w3.org/2000/svg" xmlns:xlink="http://www.w3.org/1999/xlink">
<g id="graph0" class="graph" transform="scale(1 1) rotate(0) translate(4 1866)">
<title>unix</title>
<polygon fill="white" stroke="transparent" points="-4,4 -4,-1866 1036.73,-1866 1036.73,4 -4,4"/>
<text text-anchor="start" x="340.37" y="-54" font-family="Times New Roman,serif" font-size="20.00">Graph generated on 09/05/2021 14:53:42.</text>
<text text-anchor="start" x="340.37" y="-32" font-family="Times New Roman,serif" font-size="20.00">Checked 7 pages. Time took: 1.22 minutes.</text>
<text text-anchor="middle" x="516.37" y="-10" font-family="Times New Roman,serif" font-size="20.00">Number of pages drawn: 76</text>
<!-- KFST (AM) -->
<g id="node1" class="node">
<title>KFST (AM)</title>
<g id="a_node1"><a xlink:href="https://en.wikipedia.org/wiki/KFST_(AM)" xlink:title="KFST (AM)">
<ellipse fill="#b0e2ff" stroke="#b0e2ff" cx="511.09" cy="-1124" rx="55.79" ry="18"/>
<text text-anchor="middle" x="511.09" y="-1120.3" font-family="Times New Roman,serif" font-size="14.00">KFST (AM)</text>
</a>
</g>
</g>
<!-- Radio station -->
<g id="node2" class="node">
<title>Radio station</title>
<g id="a_node2"><a xlink:href="https://en.wikipedia.org/wiki/Radio_station" xlink:title="Radio station">
<ellipse fill="lightskyblue" stroke="lightskyblue" cx="511.09" cy="-1052" rx="59.29" ry="18"/>
<text text-anchor="middle" x="511.09" y="-1048.3" font-family="Times New Roman,serif" font-size="14.00">Radio station</text>
</a>
</g>
</g>
<!-- KFST (AM)&#45;&gt;Radio station -->
<g id="edge1" class="edge">
<title>KFST (AM)&#45;&gt;Radio station</title>
<path fill="none" stroke="black" d="M511.09,-1105.7C511.09,-1097.98 511.09,-1088.71 511.09,-1080.11"/>
<polygon fill="black" stroke="black" points="514.59,-1080.1 511.09,-1070.1 507.59,-1080.1 514.59,-1080.1"/>
</g>
<!-- Audio signal -->
<g id="node3" class="node">
<title>Audio signal</title>
<g id="a_node3"><a xlink:href="https://en.wikipedia.org/wiki/Audio_signal" xlink:title="Audio signal">
<ellipse fill="lightskyblue" stroke="lightskyblue" cx="522.09" cy="-980" rx="55.79" ry="18"/>
<text text-anchor="middle" x="522.09" y="-976.3" font-family="Times New Roman,serif" font-size="14.00">Audio signal</text>
</a>
</g>
</g>
<!-- Radio station&#45;&gt;Audio signal -->
<g id="edge2" class="edge">
<title>Radio station&#45;&gt;Audio signal</title>
<path fill="none" stroke="black" d="M513.81,-1033.7C515.02,-1025.98 516.48,-1016.71 517.83,-1008.11"/>
<polygon fill="black" stroke="black" points="521.31,-1008.53 519.4,-998.1 514.39,-1007.44 521.31,-1008.53"/>
</g>
<!-- Sound -->
<g id="node4" class="node">
<title>Sound</title>
<g id="a_node4"><a xlink:href="https://en.wikipedia.org/wiki/Sound" xlink:title="Sound">
<ellipse fill="lightskyblue" stroke="lightskyblue" cx="531.09" cy="-908" rx="34.39" ry="18"/>
<text text-anchor="middle" x="531.09" y="-904.3" font-family="Times New Roman,serif" font-size="14.00">Sound</text>
</a>
</g>
</g>
<!-- Audio signal&#45;&gt;Sound -->
<g id="edge3" class="edge">
<title>Audio signal&#45;&gt;Sound</title>
<path fill="none" stroke="black" d="M524.31,-961.7C525.31,-953.98 526.5,-944.71 527.6,-936.11"/>
<polygon fill="black" stroke="black" points="531.09,-936.47 528.89,-926.1 524.14,-935.58 531.09,-936.47"/>
</g>
<!-- Physics -->
<g id="node5" class="node">
<title>Physics</title>
<g id="a_node5"><a xlink:href="https://en.wikipedia.org/wiki/Physics" xlink:title="Physics">
<ellipse fill="lightskyblue" stroke="lightskyblue" cx="582.09" cy="-836" rx="38.99" ry="18"/>
<text text-anchor="middle" x="582.09" y="-832.3" font-family="Times New Roman,serif" font-size="14.00">Physics</text>
</a>
</g>
</g>
<!-- Sound&#45;&gt;Physics -->
<g id="edge4" class="edge">
<title>Sound&#45;&gt;Physics</title>
<path fill="none" stroke="black" d="M542.92,-890.76C549.2,-882.14 557.05,-871.36 564.07,-861.73"/>
<polygon fill="black" stroke="black" points="566.91,-863.78 569.97,-853.63 561.25,-859.65 566.91,-863.78"/>
</g>
<!-- Natural science -->
<g id="node6" class="node">
<title>Natural science</title>
<g id="a_node6"><a xlink:href="https://en.wikipedia.org/wiki/Natural_science" xlink:title="Natural science">
<ellipse fill="lightskyblue" stroke="lightskyblue" cx="582.09" cy="-764" rx="65.79" ry="18"/>
<text text-anchor="middle" x="582.09" y="-760.3" font-family="Times New Roman,serif" font-size="14.00">Natural science</text>
</a>
</g>
</g>
<!-- Physics&#45;&gt;Natural science -->
<g id="edge5" class="edge">
<title>Physics&#45;&gt;Natural science</title>
<path fill="none" stroke="black" d="M582.09,-817.7C582.09,-809.98 582.09,-800.71 582.09,-792.11"/>
<polygon fill="black" stroke="black" points="585.59,-792.1 582.09,-782.1 578.59,-792.1 585.59,-792.1"/>
</g>
<!-- Branches of science -->
<g id="node7" class="node">
<title>Branches of science</title>
<g id="a_node7"><a xlink:href="https://en.wikipedia.org/wiki/Branches_of_science" xlink:title="Branches of science">
<ellipse fill="lightskyblue" stroke="lightskyblue" cx="582.09" cy="-692" rx="83.69" ry="18"/>
<text text-anchor="middle" x="582.09" y="-688.3" font-family="Times New Roman,serif" font-size="14.00">Branches of science</text>
</a>
</g>
</g>
<!-- Natural science&#45;&gt;Branches of science -->
<g id="edge6" class="edge">
<title>Natural science&#45;&gt;Branches of science</title>
<path fill="none" stroke="black" d="M582.09,-745.7C582.09,-737.98 582.09,-728.71 582.09,-720.11"/>
<polygon fill="black" stroke="black" points="585.59,-720.1 582.09,-710.1 578.59,-720.1 585.59,-720.1"/>
</g>
<!-- Science -->
<g id="node8" class="node">
<title>Science</title>
<g id="a_node8"><a xlink:href="https://en.wikipedia.org/wiki/Science" xlink:title="Science">
<ellipse fill="lightskyblue" stroke="lightskyblue" cx="422.09" cy="-620" rx="38.99" ry="18"/>
<text text-anchor="middle" x="422.09" y="-616.3" font-family="Times New Roman,serif" font-size="14.00">Science</text>
</a>
</g>
</g>
<!-- Branches of science&#45;&gt;Science -->
<g id="edge7" class="edge">
<title>Branches of science&#45;&gt;Science</title>
<path fill="none" stroke="black" d="M546.98,-675.64C520.84,-664.2 485.26,-648.64 458.76,-637.04"/>
<polygon fill="black" stroke="black" points="460,-633.77 449.44,-632.97 457.2,-640.18 460,-633.77"/>
</g>
<!-- Scientific method -->
<g id="node9" class="node">
<title>Scientific method</title>
<g id="a_node9"><a xlink:href="https://en.wikipedia.org/wiki/Scientific_method" xlink:title="Scientific method">
<ellipse fill="lightskyblue" stroke="lightskyblue" cx="427.09" cy="-548" rx="74.19" ry="18"/>
<text text-anchor="middle" x="427.09" y="-544.3" font-family="Times New Roman,serif" font-size="14.00">Scientific method</text>
</a>
</g>
</g>
<!-- Science&#45;&gt;Scientific method -->
<g id="edge8" class="edge">
<title>Science&#45;&gt;Scientific method</title>
<path fill="none" stroke="black" d="M423.33,-601.7C423.88,-593.98 424.54,-584.71 425.15,-576.11"/>
<polygon fill="black" stroke="black" points="428.65,-576.33 425.87,-566.1 421.66,-575.83 428.65,-576.33"/>
</g>
<!-- Empirical evidence -->
<g id="node10" class="node">
<title>Empirical evidence</title>
<g id="a_node10"><a xlink:href="https://en.wikipedia.org/wiki/Empirical_evidence" xlink:title="Empirical evidence">
<ellipse fill="lightskyblue" stroke="lightskyblue" cx="429.09" cy="-476" rx="79.09" ry="18"/>
<text text-anchor="middle" x="429.09" y="-472.3" font-family="Times New Roman,serif" font-size="14.00">Empirical evidence</text>
</a>
</g>
</g>
<!-- Scientific method&#45;&gt;Empirical evidence -->
<g id="edge9" class="edge">
<title>Scientific method&#45;&gt;Empirical evidence</title>
<path fill="none" stroke="black" d="M427.58,-529.7C427.8,-521.98 428.07,-512.71 428.32,-504.11"/>
<polygon fill="black" stroke="black" points="431.81,-504.2 428.6,-494.1 424.82,-504 431.81,-504.2"/>
</g>
<!-- Information -->
<g id="node11" class="node">
<title>Information</title>
<g id="a_node11"><a xlink:href="https://en.wikipedia.org/wiki/Information" xlink:title="Information">
<ellipse fill="lightskyblue" stroke="lightskyblue" cx="436.09" cy="-404" rx="53.09" ry="18"/>
<text text-anchor="middle" x="436.09" y="-400.3" font-family="Times New Roman,serif" font-size="14.00">Information</text>
</a>
</g>
</g>
<!-- Empirical evidence&#45;&gt;Information -->
<g id="edge10" class="edge">
<title>Empirical evidence&#45;&gt;Information</title>
<path fill="none" stroke="black" d="M430.82,-457.7C431.59,-449.98 432.52,-440.71 433.38,-432.11"/>
<polygon fill="black" stroke="black" points="436.87,-432.4 434.38,-422.1 429.9,-431.71 436.87,-432.4"/>
</g>
<!-- Uncertainty -->
<g id="node12" class="node">
<title>Uncertainty</title>
<g id="a_node12"><a xlink:href="https://en.wikipedia.org/wiki/Uncertainty" xlink:title="Uncertainty">
<ellipse fill="lightskyblue" stroke="lightskyblue" cx="440.09" cy="-332" rx="51.99" ry="18"/>
<text text-anchor="middle" x="440.09" y="-328.3" font-family="Times New Roman,serif" font-size="14.00">Uncertainty</text>
</a>
</g>
</g>
<!-- Information&#45;&gt;Uncertainty -->
<g id="edge11" class="edge">
<title>Information&#45;&gt;Uncertainty</title>
<path fill="none" stroke="black" d="M437.08,-385.7C437.52,-377.98 438.05,-368.71 438.54,-360.11"/>
<polygon fill="black" stroke="black" points="442.04,-360.29 439.11,-350.1 435.05,-359.89 442.04,-360.29"/>
</g>
<!-- Epistemology -->
<g id="node13" class="node">
<title>Epistemology</title>
<g id="a_node13"><a xlink:href="https://en.wikipedia.org/wiki/Epistemology" xlink:title="Epistemology">
<ellipse fill="lightskyblue" stroke="lightskyblue" cx="442.09" cy="-260" rx="60.39" ry="18"/>
<text text-anchor="middle" x="442.09" y="-256.3" font-family="Times New Roman,serif" font-size="14.00">Epistemology</text>
</a>
</g>
</g>
<!-- Uncertainty&#45;&gt;Epistemology -->
<g id="edge12" class="edge">
<title>Uncertainty&#45;&gt;Epistemology</title>
<path fill="none" stroke="black" d="M440.58,-313.7C440.8,-305.98 441.07,-296.71 441.32,-288.11"/>
<polygon fill="black" stroke="black" points="444.81,-288.2 441.6,-278.1 437.82,-288 444.81,-288.2"/>
</g>
<!-- Outline of philosophy -->
<g id="node14" class="node">
<title>Outline of philosophy</title>
<g id="a_node14"><a xlink:href="https://en.wikipedia.org/wiki/Outline_of_philosophy" xlink:title="Outline of philosophy">
<ellipse fill="lightskyblue" stroke="lightskyblue" cx="443.09" cy="-188" rx="89.88" ry="18"/>
<text text-anchor="middle" x="443.09" y="-184.3" font-family="Times New Roman,serif" font-size="14.00">Outline of philosophy</text>
</a>
</g>
</g>
<!-- Epistemology&#45;&gt;Outline of philosophy -->
<g id="edge13" class="edge">
<title>Epistemology&#45;&gt;Outline of philosophy</title>
<path fill="none" stroke="black" d="M442.34,-241.7C442.45,-233.98 442.58,-224.71 442.7,-216.11"/>
<polygon fill="black" stroke="black" points="446.2,-216.15 442.85,-206.1 439.2,-216.05 446.2,-216.15"/>
</g>
<!-- Philosophy -->
<g id="node15" class="node">
<title>Philosophy</title>
<g id="a_node15"><a xlink:href="https://en.wikipedia.org/wiki/Philosophy" xlink:title="Philosophy">
<ellipse fill="lightskyblue" stroke="lightskyblue" cx="510.09" cy="-116" rx="51.99" ry="18"/>
<text text-anchor="middle" x="510.09" y="-112.3" font-family="Times New Roman,serif" font-size="14.00">Philosophy</text>
</a>
</g>
</g>
<!-- Outline of philosophy&#45;&gt;Philosophy -->
<g id="edge14" class="edge">
<title>Outline of philosophy&#45;&gt;Philosophy</title>
<path fill="none" stroke="black" d="M459.31,-170.05C467.74,-161.24 478.19,-150.33 487.41,-140.69"/>
<polygon fill="black" stroke="black" points="490.1,-142.95 494.48,-133.31 485.04,-138.11 490.1,-142.95"/>
</g>
<!-- 1957 Modena Grand Prix -->
<g id="node16" class="node">
<title>1957 Modena Grand Prix</title>
<g id="a_node16"><a xlink:href="https://en.wikipedia.org/wiki/1957_Modena_Grand_Prix" xlink:title="1957 Modena Grand Prix">
<ellipse fill="#b0e2ff" stroke="#b0e2ff" cx="582.09" cy="-620" rx="102.88" ry="18"/>
<text text-anchor="middle" x="582.09" y="-616.3" font-family="Times New Roman,serif" font-size="14.00">1957 Modena Grand Prix</text>
</a>
</g>
</g>
<!-- Auto racing -->
<g id="node17" class="node">
<title>Auto racing</title>
<g id="a_node17"><a xlink:href="https://en.wikipedia.org/wiki/Auto_racing" xlink:title="Auto racing">
<ellipse fill="lightskyblue" stroke="lightskyblue" cx="581.09" cy="-548" rx="53.09" ry="18"/>
<text text-anchor="middle" x="581.09" y="-544.3" font-family="Times New Roman,serif" font-size="14.00">Auto racing</text>
</a>
</g>
</g>
<!-- 1957 Modena Grand Prix&#45;&gt;Auto racing -->
<g id="edge15" class="edge">
<title>1957 Modena Grand Prix&#45;&gt;Auto racing</title>
<path fill="none" stroke="black" d="M581.84,-601.7C581.73,-593.98 581.6,-584.71 581.48,-576.11"/>
<polygon fill="black" stroke="black" points="584.98,-576.05 581.33,-566.1 577.98,-576.15 584.98,-576.05"/>
</g>
<!-- Motorsport -->
<g id="node18" class="node">
<title>Motorsport</title>
<g id="a_node18"><a xlink:href="https://en.wikipedia.org/wiki/Motorsport" xlink:title="Motorsport">
<ellipse fill="lightskyblue" stroke="lightskyblue" cx="580.09" cy="-476" rx="52.79" ry="18"/>
<text text-anchor="middle" x="580.09" y="-472.3" font-family="Times New Roman,serif" font-size="14.00">Motorsport</text>
</a>
</g>
</g>
<!-- Auto racing&#45;&gt;Motorsport -->
<g id="edge16" class="edge">
<title>Auto racing&#45;&gt;Motorsport</title>
<path fill="none" stroke="black" d="M580.84,-529.7C580.73,-521.98 580.6,-512.71 580.48,-504.11"/>
<polygon fill="black" stroke="black" points="583.98,-504.05 580.33,-494.1 576.98,-504.15 583.98,-504.05"/>
</g>
<!-- Sports -->
<g id="node19" class="node">
<title>Sports</title>
<g id="a_node19"><a xlink:href="https://en.wikipedia.org/wiki/Sports" xlink:title="Sports">
<ellipse fill="lightskyblue" stroke="lightskyblue" cx="579.09" cy="-404" rx="35.19" ry="18"/>
<text text-anchor="middle" x="579.09" y="-400.3" font-family="Times New Roman,serif" font-size="14.00">Sports</text>
</a>
</g>
</g>
<!-- Motorsport&#45;&gt;Sports -->
<g id="edge17" class="edge">
<title>Motorsport&#45;&gt;Sports</title>
<path fill="none" stroke="black" d="M579.84,-457.7C579.73,-449.98 579.6,-440.71 579.48,-432.11"/>
<polygon fill="black" stroke="black" points="582.98,-432.05 579.33,-422.1 575.98,-432.15 582.98,-432.05"/>
</g>
<!-- Competition -->
<g id="node20" class="node">
<title>Competition</title>
<g id="a_node20"><a xlink:href="https://en.wikipedia.org/wiki/Competition" xlink:title="Competition">
<ellipse fill="lightskyblue" stroke="lightskyblue" cx="579.09" cy="-332" rx="55.79" ry="18"/>
<text text-anchor="middle" x="579.09" y="-328.3" font-family="Times New Roman,serif" font-size="14.00">Competition</text>
</a>
</g>
</g>
<!-- Sports&#45;&gt;Competition -->
<g id="edge18" class="edge">
<title>Sports&#45;&gt;Competition</title>
<path fill="none" stroke="black" d="M579.09,-385.7C579.09,-377.98 579.09,-368.71 579.09,-360.11"/>
<polygon fill="black" stroke="black" points="582.59,-360.1 579.09,-350.1 575.59,-360.1 582.59,-360.1"/>
</g>
<!-- Goal -->
<g id="node21" class="node">
<title>Goal</title>
<g id="a_node21"><a xlink:href="https://en.wikipedia.org/wiki/Goal" xlink:title="Goal">
<ellipse fill="lightskyblue" stroke="lightskyblue" cx="579.09" cy="-260" rx="28.7" ry="18"/>
<text text-anchor="middle" x="579.09" y="-256.3" font-family="Times New Roman,serif" font-size="14.00">Goal</text>
</a>
</g>
</g>
<!-- Competition&#45;&gt;Goal -->
<g id="edge19" class="edge">
<title>Competition&#45;&gt;Goal</title>
<path fill="none" stroke="black" d="M579.09,-313.7C579.09,-305.98 579.09,-296.71 579.09,-288.11"/>
<polygon fill="black" stroke="black" points="582.59,-288.1 579.09,-278.1 575.59,-288.1 582.59,-288.1"/>
</g>
<!-- Idea -->
<g id="node22" class="node">
<title>Idea</title>
<g id="a_node22"><a xlink:href="https://en.wikipedia.org/wiki/Idea" xlink:title="Idea">
<ellipse fill="lightskyblue" stroke="lightskyblue" cx="578.09" cy="-188" rx="27" ry="18"/>
<text text-anchor="middle" x="578.09" y="-184.3" font-family="Times New Roman,serif" font-size="14.00">Idea</text>
</a>
</g>
</g>
<!-- Goal&#45;&gt;Idea -->
<g id="edge20" class="edge">
<title>Goal&#45;&gt;Idea</title>
<path fill="none" stroke="black" d="M578.84,-241.7C578.73,-233.98 578.6,-224.71 578.48,-216.11"/>
<polygon fill="black" stroke="black" points="581.98,-216.05 578.33,-206.1 574.98,-216.15 581.98,-216.05"/>
</g>
<!-- Idea&#45;&gt;Philosophy -->
<g id="edge21" class="edge">
<title>Idea&#45;&gt;Philosophy</title>
<path fill="none" stroke="black" d="M564,-172.5C555.05,-163.28 543.25,-151.14 532.98,-140.56"/>
<polygon fill="black" stroke="black" points="535.3,-137.93 525.83,-133.2 530.28,-142.81 535.3,-137.93"/>
</g>
<!-- Lawson (store) -->
<g id="node23" class="node">
<title>Lawson (store)</title>
<g id="a_node23"><a xlink:href="https://en.wikipedia.org/wiki/Lawson_(store)" xlink:title="Lawson (store)">
<ellipse fill="#b0e2ff" stroke="#b0e2ff" cx="967.09" cy="-1196" rx="65.79" ry="18"/>
<text text-anchor="middle" x="967.09" y="-1192.3" font-family="Times New Roman,serif" font-size="14.00">Lawson (store)</text>
</a>
</g>
</g>
<!-- Konbini -->
<g id="node24" class="node">
<title>Konbini</title>
<g id="a_node24"><a xlink:href="https://en.wikipedia.org/wiki/Konbini" xlink:title="Konbini">
<ellipse fill="lightskyblue" stroke="lightskyblue" cx="942.09" cy="-1124" rx="39.79" ry="18"/>
<text text-anchor="middle" x="942.09" y="-1120.3" font-family="Times New Roman,serif" font-size="14.00">Konbini</text>
</a>
</g>
</g>
<!-- Lawson (store)&#45;&gt;Konbini -->
<g id="edge22" class="edge">
<title>Lawson (store)&#45;&gt;Konbini</title>
<path fill="none" stroke="black" d="M961.04,-1178.05C958.22,-1170.18 954.81,-1160.62 951.66,-1151.79"/>
<polygon fill="black" stroke="black" points="954.92,-1150.52 948.26,-1142.28 948.33,-1152.87 954.92,-1150.52"/>
</g>
<!-- Retail -->
<g id="node25" class="node">
<title>Retail</title>
<g id="a_node25"><a xlink:href="https://en.wikipedia.org/wiki/Retail" xlink:title="Retail">
<ellipse fill="lightskyblue" stroke="lightskyblue" cx="930.09" cy="-1052" rx="31.4" ry="18"/>
<text text-anchor="middle" x="930.09" y="-1048.3" font-family="Times New Roman,serif" font-size="14.00">Retail</text>
</a>
</g>
</g>
<!-- Konbini&#45;&gt;Retail -->
<g id="edge23" class="edge">
<title>Konbini&#45;&gt;Retail</title>
<path fill="none" stroke="black" d="M939.12,-1105.7C937.8,-1097.98 936.21,-1088.71 934.74,-1080.11"/>
<polygon fill="black" stroke="black" points="938.16,-1079.37 933.02,-1070.1 931.26,-1080.55 938.16,-1079.37"/>
</g>
<!-- Consumer goods -->
<g id="node26" class="node">
<title>Consumer goods</title>
<g id="a_node26"><a xlink:href="https://en.wikipedia.org/wiki/Consumer_goods" xlink:title="Consumer goods">
<ellipse fill="lightskyblue" stroke="lightskyblue" cx="905.09" cy="-980" rx="73.39" ry="18"/>
<text text-anchor="middle" x="905.09" y="-976.3" font-family="Times New Roman,serif" font-size="14.00">Consumer goods</text>
</a>
</g>
</g>
<!-- Retail&#45;&gt;Consumer goods -->
<g id="edge24" class="edge">
<title>Retail&#45;&gt;Consumer goods</title>
<path fill="none" stroke="black" d="M924.04,-1034.05C921.22,-1026.18 917.81,-1016.62 914.66,-1007.79"/>
<polygon fill="black" stroke="black" points="917.92,-1006.52 911.26,-998.28 911.33,-1008.87 917.92,-1006.52"/>
</g>
<!-- Commodity -->
<g id="node27" class="node">
<title>Commodity</title>
<g id="a_node27"><a xlink:href="https://en.wikipedia.org/wiki/Commodity" xlink:title="Commodity">
<ellipse fill="lightskyblue" stroke="lightskyblue" cx="835.09" cy="-908" rx="53.89" ry="18"/>
<text text-anchor="middle" x="835.09" y="-904.3" font-family="Times New Roman,serif" font-size="14.00">Commodity</text>
</a>
</g>
</g>
<!-- Consumer goods&#45;&gt;Commodity -->
<g id="edge25" class="edge">
<title>Consumer goods&#45;&gt;Commodity</title>
<path fill="none" stroke="black" d="M888.5,-962.41C879.61,-953.52 868.5,-942.41 858.72,-932.63"/>
<polygon fill="black" stroke="black" points="861.11,-930.07 851.56,-925.47 856.16,-935.02 861.11,-930.07"/>
</g>
<!-- Economics -->
<g id="node28" class="node">
<title>Economics</title>
<g id="a_node28"><a xlink:href="https://en.wikipedia.org/wiki/Economics" xlink:title="Economics">
<ellipse fill="lightskyblue" stroke="lightskyblue" cx="809.09" cy="-836" rx="51.99" ry="18"/>
<text text-anchor="middle" x="809.09" y="-832.3" font-family="Times New Roman,serif" font-size="14.00">Economics</text>
</a>
</g>
</g>
<!-- Commodity&#45;&gt;Economics -->
<g id="edge26" class="edge">
<title>Commodity&#45;&gt;Economics</title>
<path fill="none" stroke="black" d="M828.8,-890.05C825.87,-882.18 822.32,-872.62 819.04,-863.79"/>
<polygon fill="black" stroke="black" points="822.27,-862.43 815.51,-854.28 815.71,-864.87 822.27,-862.43"/>
</g>
<!-- Social science -->
<g id="node29" class="node">
<title>Social science</title>
<g id="a_node29"><a xlink:href="https://en.wikipedia.org/wiki/Social_science" xlink:title="Social science">
<ellipse fill="lightskyblue" stroke="lightskyblue" cx="783.09" cy="-764" rx="62.29" ry="18"/>
<text text-anchor="middle" x="783.09" y="-760.3" font-family="Times New Roman,serif" font-size="14.00">Social science</text>
</a>
</g>
</g>
<!-- Economics&#45;&gt;Social science -->
<g id="edge27" class="edge">
<title>Economics&#45;&gt;Social science</title>
<path fill="none" stroke="black" d="M802.8,-818.05C799.87,-810.18 796.32,-800.62 793.04,-791.79"/>
<polygon fill="black" stroke="black" points="796.27,-790.43 789.51,-782.28 789.71,-792.87 796.27,-790.43"/>
</g>
<!-- Social science&#45;&gt;Branches of science -->
<g id="edge28" class="edge">
<title>Social science&#45;&gt;Branches of science</title>
<path fill="none" stroke="black" d="M744.81,-749.67C713.26,-738.68 668.23,-723 633.54,-710.92"/>
<polygon fill="black" stroke="black" points="634.64,-707.59 624.04,-707.61 632.34,-714.2 634.64,-707.59"/>
</g>
<!-- George S. Myers (judge) -->
<g id="node30" class="node">
<title>George S. Myers (judge)</title>
<g id="a_node30"><a xlink:href="https://en.wikipedia.org/wiki/George_S._Myers_(judge)" xlink:title="George S. Myers (judge)">
<ellipse fill="#b0e2ff" stroke="#b0e2ff" cx="323.09" cy="-1052" rx="100.98" ry="18"/>
<text text-anchor="middle" x="323.09" y="-1048.3" font-family="Times New Roman,serif" font-size="14.00">George S. Myers (judge)</text>
</a>
</g>
</g>
<!-- United States Democratic Party -->
<g id="node31" class="node">
<title>United States Democratic Party</title>
<g id="a_node31"><a xlink:href="https://en.wikipedia.org/wiki/United_States_Democratic_Party" xlink:title="United States Democratic Party">
<ellipse fill="lightskyblue" stroke="lightskyblue" cx="323.09" cy="-980" rx="124.58" ry="18"/>
<text text-anchor="middle" x="323.09" y="-976.3" font-family="Times New Roman,serif" font-size="14.00">United States Democratic Party</text>
</a>
</g>
</g>
<!-- George S. Myers (judge)&#45;&gt;United States Democratic Party -->
<g id="edge29" class="edge">
<title>George S. Myers (judge)&#45;&gt;United States Democratic Party</title>
<path fill="none" stroke="black" d="M323.09,-1033.7C323.09,-1025.98 323.09,-1016.71 323.09,-1008.11"/>
<polygon fill="black" stroke="black" points="326.59,-1008.1 323.09,-998.1 319.59,-1008.1 326.59,-1008.1"/>
</g>
<!-- Two&#45;party system -->
<g id="node32" class="node">
<title>Two&#45;party system</title>
<g id="a_node32"><a xlink:href="https://en.wikipedia.org/wiki/Two-party_system" xlink:title="Two&#45;party system">
<ellipse fill="lightskyblue" stroke="lightskyblue" cx="323.09" cy="-908" rx="77.19" ry="18"/>
<text text-anchor="middle" x="323.09" y="-904.3" font-family="Times New Roman,serif" font-size="14.00">Two&#45;party system</text>
</a>
</g>
</g>
<!-- United States Democratic Party&#45;&gt;Two&#45;party system -->
<g id="edge30" class="edge">
<title>United States Democratic Party&#45;&gt;Two&#45;party system</title>
<path fill="none" stroke="black" d="M323.09,-961.7C323.09,-953.98 323.09,-944.71 323.09,-936.11"/>
<polygon fill="black" stroke="black" points="326.59,-936.1 323.09,-926.1 319.59,-936.1 326.59,-936.1"/>
</g>
<!-- Politics -->
<g id="node33" class="node">
<title>Politics</title>
<g id="a_node33"><a xlink:href="https://en.wikipedia.org/wiki/Politics" xlink:title="Politics">
<ellipse fill="lightskyblue" stroke="lightskyblue" cx="323.09" cy="-836" rx="37.89" ry="18"/>
<text text-anchor="middle" x="323.09" y="-832.3" font-family="Times New Roman,serif" font-size="14.00">Politics</text>
</a>
</g>
</g>
<!-- Two&#45;party system&#45;&gt;Politics -->
<g id="edge31" class="edge">
<title>Two&#45;party system&#45;&gt;Politics</title>
<path fill="none" stroke="black" d="M323.09,-889.7C323.09,-881.98 323.09,-872.71 323.09,-864.11"/>
<polygon fill="black" stroke="black" points="326.59,-864.1 323.09,-854.1 319.59,-864.1 326.59,-864.1"/>
</g>
<!-- Decision&#45;making -->
<g id="node34" class="node">
<title>Decision&#45;making</title>
<g id="a_node34"><a xlink:href="https://en.wikipedia.org/wiki/Decision-making" xlink:title="Decision&#45;making">
<ellipse fill="lightskyblue" stroke="lightskyblue" cx="323.09" cy="-764" rx="71.49" ry="18"/>
<text text-anchor="middle" x="323.09" y="-760.3" font-family="Times New Roman,serif" font-size="14.00">Decision&#45;making</text>
</a>
</g>
</g>
<!-- Politics&#45;&gt;Decision&#45;making -->
<g id="edge32" class="edge">
<title>Politics&#45;&gt;Decision&#45;making</title>
<path fill="none" stroke="black" d="M323.09,-817.7C323.09,-809.98 323.09,-800.71 323.09,-792.11"/>
<polygon fill="black" stroke="black" points="326.59,-792.1 323.09,-782.1 319.59,-792.1 326.59,-792.1"/>
</g>
<!-- Psychology -->
<g id="node35" class="node">
<title>Psychology</title>
<g id="a_node35"><a xlink:href="https://en.wikipedia.org/wiki/Psychology" xlink:title="Psychology">
<ellipse fill="lightskyblue" stroke="lightskyblue" cx="323.09" cy="-692" rx="53.89" ry="18"/>
<text text-anchor="middle" x="323.09" y="-688.3" font-family="Times New Roman,serif" font-size="14.00">Psychology</text>
</a>
</g>
</g>
<!-- Decision&#45;making&#45;&gt;Psychology -->
<g id="edge33" class="edge">
<title>Decision&#45;making&#45;&gt;Psychology</title>
<path fill="none" stroke="black" d="M323.09,-745.7C323.09,-737.98 323.09,-728.71 323.09,-720.11"/>
<polygon fill="black" stroke="black" points="326.59,-720.1 323.09,-710.1 319.59,-720.1 326.59,-720.1"/>
</g>
<!-- Psychology&#45;&gt;Science -->
<g id="edge34" class="edge">
<title>Psychology&#45;&gt;Science</title>
<path fill="none" stroke="black" d="M345.06,-675.46C359.29,-665.41 377.96,-652.2 393.36,-641.31"/>
<polygon fill="black" stroke="black" points="395.39,-644.17 401.53,-635.54 391.35,-638.45 395.39,-644.17"/>
</g>
<!-- Typhoon Chuck -->
<g id="node36" class="node">
<title>Typhoon Chuck</title>
<g id="a_node36"><a xlink:href="https://en.wikipedia.org/wiki/Typhoon_Chuck" xlink:title="Typhoon Chuck">
<ellipse fill="#b0e2ff" stroke="#b0e2ff" cx="800.09" cy="-1412" rx="70.69" ry="18"/>
<text text-anchor="middle" x="800.09" y="-1408.3" font-family="Times New Roman,serif" font-size="14.00">Typhoon Chuck</text>
</a>
</g>
</g>
<!-- Tropical cyclone -->
<g id="node37" class="node">
<title>Tropical cyclone</title>
<g id="a_node37"><a xlink:href="https://en.wikipedia.org/wiki/Tropical_cyclone" xlink:title="Tropical cyclone">
<ellipse fill="lightskyblue" stroke="lightskyblue" cx="800.09" cy="-1340" rx="72.29" ry="18"/>
<text text-anchor="middle" x="800.09" y="-1336.3" font-family="Times New Roman,serif" font-size="14.00">Tropical cyclone</text>
</a>
</g>
</g>
<!-- Typhoon Chuck&#45;&gt;Tropical cyclone -->
<g id="edge35" class="edge">
<title>Typhoon Chuck&#45;&gt;Tropical cyclone</title>
<path fill="none" stroke="black" d="M800.09,-1393.7C800.09,-1385.98 800.09,-1376.71 800.09,-1368.11"/>
<polygon fill="black" stroke="black" points="803.59,-1368.1 800.09,-1358.1 796.59,-1368.1 803.59,-1368.1"/>
</g>
<!-- Storm -->
<g id="node38" class="node">
<title>Storm</title>
<g id="a_node38"><a xlink:href="https://en.wikipedia.org/wiki/Storm" xlink:title="Storm">
<ellipse fill="lightskyblue" stroke="lightskyblue" cx="800.09" cy="-1268" rx="33.29" ry="18"/>
<text text-anchor="middle" x="800.09" y="-1264.3" font-family="Times New Roman,serif" font-size="14.00">Storm</text>
</a>
</g>
</g>
<!-- Tropical cyclone&#45;&gt;Storm -->
<g id="edge36" class="edge">
<title>Tropical cyclone&#45;&gt;Storm</title>
<path fill="none" stroke="black" d="M800.09,-1321.7C800.09,-1313.98 800.09,-1304.71 800.09,-1296.11"/>
<polygon fill="black" stroke="black" points="803.59,-1296.1 800.09,-1286.1 796.59,-1296.1 803.59,-1296.1"/>
</g>
<!-- Natural environment -->
<g id="node39" class="node">
<title>Natural environment</title>
<g id="a_node39"><a xlink:href="https://en.wikipedia.org/wiki/Natural_environment" xlink:title="Natural environment">
<ellipse fill="lightskyblue" stroke="lightskyblue" cx="800.09" cy="-1196" rx="83.39" ry="18"/>
<text text-anchor="middle" x="800.09" y="-1192.3" font-family="Times New Roman,serif" font-size="14.00">Natural environment</text>
</a>
</g>
</g>
<!-- Storm&#45;&gt;Natural environment -->
<g id="edge37" class="edge">
<title>Storm&#45;&gt;Natural environment</title>
<path fill="none" stroke="black" d="M800.09,-1249.7C800.09,-1241.98 800.09,-1232.71 800.09,-1224.11"/>
<polygon fill="black" stroke="black" points="803.59,-1224.1 800.09,-1214.1 796.59,-1224.1 803.59,-1224.1"/>
</g>
<!-- Life -->
<g id="node40" class="node">
<title>Life</title>
<g id="a_node40"><a xlink:href="https://en.wikipedia.org/wiki/Life" xlink:title="Life">
<ellipse fill="lightskyblue" stroke="lightskyblue" cx="800.09" cy="-1124" rx="27" ry="18"/>
<text text-anchor="middle" x="800.09" y="-1120.3" font-family="Times New Roman,serif" font-size="14.00">Life</text>
</a>
</g>
</g>
<!-- Natural environment&#45;&gt;Life -->
<g id="edge38" class="edge">
<title>Natural environment&#45;&gt;Life</title>
<path fill="none" stroke="black" d="M800.09,-1177.7C800.09,-1169.98 800.09,-1160.71 800.09,-1152.11"/>
<polygon fill="black" stroke="black" points="803.59,-1152.1 800.09,-1142.1 796.59,-1152.1 803.59,-1152.1"/>
</g>
<!-- Physical entities -->
<g id="node41" class="node">
<title>Physical entities</title>
<g id="a_node41"><a xlink:href="https://en.wikipedia.org/wiki/Physical_entities" xlink:title="Physical entities">
<ellipse fill="lightskyblue" stroke="lightskyblue" cx="800.09" cy="-1052" rx="68.49" ry="18"/>
<text text-anchor="middle" x="800.09" y="-1048.3" font-family="Times New Roman,serif" font-size="14.00">Physical entities</text>
</a>
</g>
</g>
<!-- Life&#45;&gt;Physical entities -->
<g id="edge39" class="edge">
<title>Life&#45;&gt;Physical entities</title>
<path fill="none" stroke="black" d="M800.09,-1105.7C800.09,-1097.98 800.09,-1088.71 800.09,-1080.11"/>
<polygon fill="black" stroke="black" points="803.59,-1080.1 800.09,-1070.1 796.59,-1080.1 803.59,-1080.1"/>
</g>
<!-- Classical mechanics -->
<g id="node42" class="node">
<title>Classical mechanics</title>
<g id="a_node42"><a xlink:href="https://en.wikipedia.org/wiki/Classical_mechanics" xlink:title="Classical mechanics">
<ellipse fill="lightskyblue" stroke="lightskyblue" cx="679.09" cy="-980" rx="83.39" ry="18"/>
<text text-anchor="middle" x="679.09" y="-976.3" font-family="Times New Roman,serif" font-size="14.00">Classical mechanics</text>
</a>
</g>
</g>
<!-- Physical entities&#45;&gt;Classical mechanics -->
<g id="edge40" class="edge">
<title>Physical entities&#45;&gt;Classical mechanics</title>
<path fill="none" stroke="black" d="M772.94,-1035.29C756.05,-1025.52 734.12,-1012.84 715.71,-1002.19"/>
<polygon fill="black" stroke="black" points="717.4,-999.12 706.99,-997.14 713.9,-1005.18 717.4,-999.12"/>
</g>
<!-- Physical theory -->
<g id="node43" class="node">
<title>Physical theory</title>
<g id="a_node43"><a xlink:href="https://en.wikipedia.org/wiki/Physical_theory" xlink:title="Physical theory">
<ellipse fill="lightskyblue" stroke="lightskyblue" cx="669.09" cy="-908" rx="66.09" ry="18"/>
<text text-anchor="middle" x="669.09" y="-904.3" font-family="Times New Roman,serif" font-size="14.00">Physical theory</text>
</a>
</g>
</g>
<!-- Classical mechanics&#45;&gt;Physical theory -->
<g id="edge41" class="edge">
<title>Classical mechanics&#45;&gt;Physical theory</title>
<path fill="none" stroke="black" d="M676.62,-961.7C675.52,-953.98 674.19,-944.71 672.96,-936.11"/>
<polygon fill="black" stroke="black" points="676.41,-935.51 671.53,-926.1 669.48,-936.5 676.41,-935.51"/>
</g>
<!-- Physical theory&#45;&gt;Physics -->
<g id="edge42" class="edge">
<title>Physical theory&#45;&gt;Physics</title>
<path fill="none" stroke="black" d="M648.91,-890.76C636.97,-881.16 621.7,-868.87 608.77,-858.47"/>
<polygon fill="black" stroke="black" points="610.66,-855.49 600.67,-851.95 606.27,-860.95 610.66,-855.49"/>
</g>
<!-- Atula Thiri Maha Yaza Dewi -->
<g id="node44" class="node">
<title>Atula Thiri Maha Yaza Dewi</title>
<g id="a_node44"><a xlink:href="https://en.wikipedia.org/wiki/Atula_Thiri_Maha_Yaza_Dewi" xlink:title="Atula Thiri Maha Yaza Dewi">
<ellipse fill="#b0e2ff" stroke="#b0e2ff" cx="113.09" cy="-1412" rx="113.18" ry="18"/>
<text text-anchor="middle" x="113.09" y="-1408.3" font-family="Times New Roman,serif" font-size="14.00">Atula Thiri Maha Yaza Dewi</text>
</a>
</g>
</g>
<!-- Queen consort -->
<g id="node45" class="node">
<title>Queen consort</title>
<g id="a_node45"><a xlink:href="https://en.wikipedia.org/wiki/Queen_consort" xlink:title="Queen consort">
<ellipse fill="lightskyblue" stroke="lightskyblue" cx="113.09" cy="-1340" rx="64.19" ry="18"/>
<text text-anchor="middle" x="113.09" y="-1336.3" font-family="Times New Roman,serif" font-size="14.00">Queen consort</text>
</a>
</g>
</g>
<!-- Atula Thiri Maha Yaza Dewi&#45;&gt;Queen consort -->
<g id="edge43" class="edge">
<title>Atula Thiri Maha Yaza Dewi&#45;&gt;Queen consort</title>
<path fill="none" stroke="black" d="M113.09,-1393.7C113.09,-1385.98 113.09,-1376.71 113.09,-1368.11"/>
<polygon fill="black" stroke="black" points="116.59,-1368.1 113.09,-1358.1 109.59,-1368.1 116.59,-1368.1"/>
</g>
<!-- King -->
<g id="node46" class="node">
<title>King</title>
<g id="a_node46"><a xlink:href="https://en.wikipedia.org/wiki/King" xlink:title="King">
<ellipse fill="lightskyblue" stroke="lightskyblue" cx="113.09" cy="-1268" rx="27.9" ry="18"/>
<text text-anchor="middle" x="113.09" y="-1264.3" font-family="Times New Roman,serif" font-size="14.00">King</text>
</a>
</g>
</g>
<!-- Queen consort&#45;&gt;King -->
<g id="edge44" class="edge">
<title>Queen consort&#45;&gt;King</title>
<path fill="none" stroke="black" d="M113.09,-1321.7C113.09,-1313.98 113.09,-1304.71 113.09,-1296.11"/>
<polygon fill="black" stroke="black" points="116.59,-1296.1 113.09,-1286.1 109.59,-1296.1 116.59,-1296.1"/>
</g>
<!-- Monarch -->
<g id="node47" class="node">
<title>Monarch</title>
<g id="a_node47"><a xlink:href="https://en.wikipedia.org/wiki/Monarch" xlink:title="Monarch">
<ellipse fill="lightskyblue" stroke="lightskyblue" cx="113.09" cy="-1196" rx="43.59" ry="18"/>
<text text-anchor="middle" x="113.09" y="-1192.3" font-family="Times New Roman,serif" font-size="14.00">Monarch</text>
</a>
</g>
</g>
<!-- King&#45;&gt;Monarch -->
<g id="edge45" class="edge">
<title>King&#45;&gt;Monarch</title>
<path fill="none" stroke="black" d="M113.09,-1249.7C113.09,-1241.98 113.09,-1232.71 113.09,-1224.11"/>
<polygon fill="black" stroke="black" points="116.59,-1224.1 113.09,-1214.1 109.59,-1224.1 116.59,-1224.1"/>
</g>
<!-- Head of state -->
<g id="node48" class="node">
<title>Head of state</title>
<g id="a_node48"><a xlink:href="https://en.wikipedia.org/wiki/Head_of_state" xlink:title="Head of state">
<ellipse fill="lightskyblue" stroke="lightskyblue" cx="113.09" cy="-1124" rx="59.29" ry="18"/>
<text text-anchor="middle" x="113.09" y="-1120.3" font-family="Times New Roman,serif" font-size="14.00">Head of state</text>
</a>
</g>
</g>
<!-- Monarch&#45;&gt;Head of state -->
<g id="edge46" class="edge">
<title>Monarch&#45;&gt;Head of state</title>
<path fill="none" stroke="black" d="M113.09,-1177.7C113.09,-1169.98 113.09,-1160.71 113.09,-1152.11"/>
<polygon fill="black" stroke="black" points="116.59,-1152.1 113.09,-1142.1 109.59,-1152.1 116.59,-1152.1"/>
</g>
<!-- Persona -->
<g id="node49" class="node">
<title>Persona</title>
<g id="a_node49"><a xlink:href="https://en.wikipedia.org/wiki/Persona" xlink:title="Persona">
<ellipse fill="lightskyblue" stroke="lightskyblue" cx="113.09" cy="-1052" rx="40.09" ry="18"/>
<text text-anchor="middle" x="113.09" y="-1048.3" font-family="Times New Roman,serif" font-size="14.00">Persona</text>
</a>
</g>
</g>
<!-- Head of state&#45;&gt;Persona -->
<g id="edge47" class="edge">
<title>Head of state&#45;&gt;Persona</title>
<path fill="none" stroke="black" d="M113.09,-1105.7C113.09,-1097.98 113.09,-1088.71 113.09,-1080.11"/>
<polygon fill="black" stroke="black" points="116.59,-1080.1 113.09,-1070.1 109.59,-1080.1 116.59,-1080.1"/>
</g>
<!-- Character (arts) -->
<g id="node50" class="node">
<title>Character (arts)</title>
<g id="a_node50"><a xlink:href="https://en.wikipedia.org/wiki/Character_(arts)" xlink:title="Character (arts)">
<ellipse fill="lightskyblue" stroke="lightskyblue" cx="113.09" cy="-980" rx="67.69" ry="18"/>
<text text-anchor="middle" x="113.09" y="-976.3" font-family="Times New Roman,serif" font-size="14.00">Character (arts)</text>
</a>
</g>
</g>
<!-- Persona&#45;&gt;Character (arts) -->
<g id="edge48" class="edge">
<title>Persona&#45;&gt;Character (arts)</title>
<path fill="none" stroke="black" d="M113.09,-1033.7C113.09,-1025.98 113.09,-1016.71 113.09,-1008.11"/>
<polygon fill="black" stroke="black" points="116.59,-1008.1 113.09,-998.1 109.59,-1008.1 116.59,-1008.1"/>
</g>
<!-- Fiction -->
<g id="node51" class="node">
<title>Fiction</title>
<g id="a_node51"><a xlink:href="https://en.wikipedia.org/wiki/Fiction" xlink:title="Fiction">
<ellipse fill="lightskyblue" stroke="lightskyblue" cx="123.09" cy="-908" rx="36.29" ry="18"/>
<text text-anchor="middle" x="123.09" y="-904.3" font-family="Times New Roman,serif" font-size="14.00">Fiction</text>
</a>
</g>
</g>
<!-- Character (arts)&#45;&gt;Fiction -->
<g id="edge49" class="edge">
<title>Character (arts)&#45;&gt;Fiction</title>
<path fill="none" stroke="black" d="M115.56,-961.7C116.66,-953.98 117.99,-944.71 119.22,-936.11"/>
<polygon fill="black" stroke="black" points="122.7,-936.5 120.65,-926.1 115.77,-935.51 122.7,-936.5"/>
</g>
<!-- Creative work -->
<g id="node52" class="node">
<title>Creative work</title>
<g id="a_node52"><a xlink:href="https://en.wikipedia.org/wiki/Creative_work" xlink:title="Creative work">
<ellipse fill="lightskyblue" stroke="lightskyblue" cx="160.09" cy="-836" rx="61.99" ry="18"/>
<text text-anchor="middle" x="160.09" y="-832.3" font-family="Times New Roman,serif" font-size="14.00">Creative work</text>
</a>
</g>
</g>
<!-- Fiction&#45;&gt;Creative work -->
<g id="edge50" class="edge">
<title>Fiction&#45;&gt;Creative work</title>
<path fill="none" stroke="black" d="M131.86,-890.41C136.17,-882.25 141.47,-872.22 146.31,-863.07"/>
<polygon fill="black" stroke="black" points="149.55,-864.43 151.13,-853.96 143.36,-861.16 149.55,-864.43"/>
</g>
<!-- Creativity -->
<g id="node53" class="node">
<title>Creativity</title>
<g id="a_node53"><a xlink:href="https://en.wikipedia.org/wiki/Creativity" xlink:title="Creativity">
<ellipse fill="lightskyblue" stroke="lightskyblue" cx="179.09" cy="-764" rx="45.49" ry="18"/>
<text text-anchor="middle" x="179.09" y="-760.3" font-family="Times New Roman,serif" font-size="14.00">Creativity</text>
</a>
</g>
</g>
<!-- Creative work&#45;&gt;Creativity -->
<g id="edge51" class="edge">
<title>Creative work&#45;&gt;Creativity</title>
<path fill="none" stroke="black" d="M164.79,-817.7C166.9,-809.9 169.45,-800.51 171.81,-791.83"/>
<polygon fill="black" stroke="black" points="175.21,-792.67 174.45,-782.1 168.45,-790.84 175.21,-792.67"/>
</g>
<!-- Creativity&#45;&gt;Psychology -->
<g id="edge52" class="edge">
<title>Creativity&#45;&gt;Psychology</title>
<path fill="none" stroke="black" d="M206.85,-749.5C229.03,-738.72 260.35,-723.5 284.89,-711.57"/>
<polygon fill="black" stroke="black" points="286.46,-714.7 293.93,-707.18 283.4,-708.4 286.46,-714.7"/>
</g>
<!-- Scott Municipal Airport -->
<g id="node54" class="node">
<title>Scott Municipal Airport</title>
<g id="a_node54"><a xlink:href="https://en.wikipedia.org/wiki/Scott_Municipal_Airport" xlink:title="Scott Municipal Airport">
<ellipse fill="#b0e2ff" stroke="#b0e2ff" cx="651.09" cy="-1844" rx="96.68" ry="18"/>
<text text-anchor="middle" x="651.09" y="-1840.3" font-family="Times New Roman,serif" font-size="14.00">Scott Municipal Airport</text>
</a>
</g>
</g>
<!-- Airport -->
<g id="node55" class="node">
<title>Airport</title>
<g id="a_node55"><a xlink:href="https://en.wikipedia.org/wiki/Airport" xlink:title="Airport">
<ellipse fill="lightskyblue" stroke="lightskyblue" cx="651.09" cy="-1772" rx="37.09" ry="18"/>
<text text-anchor="middle" x="651.09" y="-1768.3" font-family="Times New Roman,serif" font-size="14.00">Airport</text>
</a>
</g>
</g>
<!-- Scott Municipal Airport&#45;&gt;Airport -->
<g id="edge53" class="edge">
<title>Scott Municipal Airport&#45;&gt;Airport</title>
<path fill="none" stroke="black" d="M651.09,-1825.7C651.09,-1817.98 651.09,-1808.71 651.09,-1800.11"/>
<polygon fill="black" stroke="black" points="654.59,-1800.1 651.09,-1790.1 647.59,-1800.1 654.59,-1800.1"/>
</g>
<!-- Aerodrome -->
<g id="node56" class="node">
<title>Aerodrome</title>
<g id="a_node56"><a xlink:href="https://en.wikipedia.org/wiki/Aerodrome" xlink:title="Aerodrome">
<ellipse fill="lightskyblue" stroke="lightskyblue" cx="651.09" cy="-1700" rx="51.99" ry="18"/>
<text text-anchor="middle" x="651.09" y="-1696.3" font-family="Times New Roman,serif" font-size="14.00">Aerodrome</text>
</a>
</g>
</g>
<!-- Airport&#45;&gt;Aerodrome -->
<g id="edge54" class="edge">
<title>Airport&#45;&gt;Aerodrome</title>
<path fill="none" stroke="black" d="M651.09,-1753.7C651.09,-1745.98 651.09,-1736.71 651.09,-1728.11"/>
<polygon fill="black" stroke="black" points="654.59,-1728.1 651.09,-1718.1 647.59,-1728.1 654.59,-1728.1"/>
</g>
<!-- Air cargo -->
<g id="node57" class="node">
<title>Air cargo</title>
<g id="a_node57"><a xlink:href="https://en.wikipedia.org/wiki/Air_cargo" xlink:title="Air cargo">
<ellipse fill="lightskyblue" stroke="lightskyblue" cx="651.09" cy="-1628" rx="44.69" ry="18"/>
<text text-anchor="middle" x="651.09" y="-1624.3" font-family="Times New Roman,serif" font-size="14.00">Air cargo</text>
</a>
</g>
</g>
<!-- Aerodrome&#45;&gt;Air cargo -->
<g id="edge55" class="edge">
<title>Aerodrome&#45;&gt;Air cargo</title>
<path fill="none" stroke="black" d="M651.09,-1681.7C651.09,-1673.98 651.09,-1664.71 651.09,-1656.11"/>
<polygon fill="black" stroke="black" points="654.59,-1656.1 651.09,-1646.1 647.59,-1656.1 654.59,-1656.1"/>
</g>
<!-- Aircraft -->
<g id="node58" class="node">
<title>Aircraft</title>
<g id="a_node58"><a xlink:href="https://en.wikipedia.org/wiki/Aircraft" xlink:title="Aircraft">
<ellipse fill="lightskyblue" stroke="lightskyblue" cx="651.09" cy="-1556" rx="38.19" ry="18"/>
<text text-anchor="middle" x="651.09" y="-1552.3" font-family="Times New Roman,serif" font-size="14.00">Aircraft</text>
</a>
</g>
</g>
<!-- Air cargo&#45;&gt;Aircraft -->
<g id="edge56" class="edge">
<title>Air cargo&#45;&gt;Aircraft</title>
<path fill="none" stroke="black" d="M651.09,-1609.7C651.09,-1601.98 651.09,-1592.71 651.09,-1584.11"/>
<polygon fill="black" stroke="black" points="654.59,-1584.1 651.09,-1574.1 647.59,-1584.1 654.59,-1584.1"/>
</g>
<!-- Vehicle -->
<g id="node59" class="node">
<title>Vehicle</title>
<g id="a_node59"><a xlink:href="https://en.wikipedia.org/wiki/Vehicle" xlink:title="Vehicle">
<ellipse fill="lightskyblue" stroke="lightskyblue" cx="651.09" cy="-1484" rx="37.89" ry="18"/>
<text text-anchor="middle" x="651.09" y="-1480.3" font-family="Times New Roman,serif" font-size="14.00">Vehicle</text>
</a>
</g>
</g>
<!-- Aircraft&#45;&gt;Vehicle -->
<g id="edge57" class="edge">
<title>Aircraft&#45;&gt;Vehicle</title>
<path fill="none" stroke="black" d="M651.09,-1537.7C651.09,-1529.98 651.09,-1520.71 651.09,-1512.11"/>
<polygon fill="black" stroke="black" points="654.59,-1512.1 651.09,-1502.1 647.59,-1512.1 654.59,-1512.1"/>
</g>
<!-- Machine -->
<g id="node60" class="node">
<title>Machine</title>
<g id="a_node60"><a xlink:href="https://en.wikipedia.org/wiki/Machine" xlink:title="Machine">
<ellipse fill="lightskyblue" stroke="lightskyblue" cx="651.09" cy="-1412" rx="41.69" ry="18"/>
<text text-anchor="middle" x="651.09" y="-1408.3" font-family="Times New Roman,serif" font-size="14.00">Machine</text>
</a>
</g>
</g>
<!-- Vehicle&#45;&gt;Machine -->
<g id="edge58" class="edge">
<title>Vehicle&#45;&gt;Machine</title>
<path fill="none" stroke="black" d="M651.09,-1465.7C651.09,-1457.98 651.09,-1448.71 651.09,-1440.11"/>
<polygon fill="black" stroke="black" points="654.59,-1440.1 651.09,-1430.1 647.59,-1440.1 654.59,-1440.1"/>
</g>
<!-- Human&#45;made -->
<g id="node61" class="node">
<title>Human&#45;made</title>
<g id="a_node61"><a xlink:href="https://en.wikipedia.org/wiki/Human-made" xlink:title="Human&#45;made">
<ellipse fill="lightskyblue" stroke="lightskyblue" cx="651.09" cy="-1340" rx="59.29" ry="18"/>
<text text-anchor="middle" x="651.09" y="-1336.3" font-family="Times New Roman,serif" font-size="14.00">Human&#45;made</text>
</a>
</g>
</g>
<!-- Machine&#45;&gt;Human&#45;made -->
<g id="edge59" class="edge">
<title>Machine&#45;&gt;Human&#45;made</title>
<path fill="none" stroke="black" d="M651.09,-1393.7C651.09,-1385.98 651.09,-1376.71 651.09,-1368.11"/>
<polygon fill="black" stroke="black" points="654.59,-1368.1 651.09,-1358.1 647.59,-1368.1 654.59,-1368.1"/>
</g>
<!-- Nature -->
<g id="node62" class="node">
<title>Nature</title>
<g id="a_node62"><a xlink:href="https://en.wikipedia.org/wiki/Nature" xlink:title="Nature">
<ellipse fill="lightskyblue" stroke="lightskyblue" cx="651.09" cy="-1268" rx="34.39" ry="18"/>
<text text-anchor="middle" x="651.09" y="-1264.3" font-family="Times New Roman,serif" font-size="14.00">Nature</text>
</a>
</g>
</g>
<!-- Human&#45;made&#45;&gt;Nature -->
<g id="edge60" class="edge">
<title>Human&#45;made&#45;&gt;Nature</title>
<path fill="none" stroke="black" d="M651.09,-1321.7C651.09,-1313.98 651.09,-1304.71 651.09,-1296.11"/>
<polygon fill="black" stroke="black" points="654.59,-1296.1 651.09,-1286.1 647.59,-1296.1 654.59,-1296.1"/>
</g>
<!-- Universe -->
<g id="node63" class="node">
<title>Universe</title>
<g id="a_node63"><a xlink:href="https://en.wikipedia.org/wiki/Universe" xlink:title="Universe">
<ellipse fill="lightskyblue" stroke="lightskyblue" cx="651.09" cy="-1196" rx="42.49" ry="18"/>
<text text-anchor="middle" x="651.09" y="-1192.3" font-family="Times New Roman,serif" font-size="14.00">Universe</text>
</a>
</g>
</g>
<!-- Nature&#45;&gt;Universe -->
<g id="edge61" class="edge">
<title>Nature&#45;&gt;Universe</title>
<path fill="none" stroke="black" d="M651.09,-1249.7C651.09,-1241.98 651.09,-1232.71 651.09,-1224.11"/>
<polygon fill="black" stroke="black" points="654.59,-1224.1 651.09,-1214.1 647.59,-1224.1 654.59,-1224.1"/>
</g>
<!-- Space -->
<g id="node64" class="node">
<title>Space</title>
<g id="a_node64"><a xlink:href="https://en.wikipedia.org/wiki/Space" xlink:title="Space">
<ellipse fill="lightskyblue" stroke="lightskyblue" cx="651.09" cy="-1124" rx="33.29" ry="18"/>
<text text-anchor="middle" x="651.09" y="-1120.3" font-family="Times New Roman,serif" font-size="14.00">Space</text>
</a>
</g>
</g>
<!-- Universe&#45;&gt;Space -->
<g id="edge62" class="edge">
<title>Universe&#45;&gt;Space</title>
<path fill="none" stroke="black" d="M651.09,-1177.7C651.09,-1169.98 651.09,-1160.71 651.09,-1152.11"/>
<polygon fill="black" stroke="black" points="654.59,-1152.1 651.09,-1142.1 647.59,-1152.1 654.59,-1152.1"/>
</g>
<!-- Physical body -->
<g id="node65" class="node">
<title>Physical body</title>
<g id="a_node65"><a xlink:href="https://en.wikipedia.org/wiki/Physical_body" xlink:title="Physical body">
<ellipse fill="lightskyblue" stroke="lightskyblue" cx="651.09" cy="-1052" rx="62.29" ry="18"/>
<text text-anchor="middle" x="651.09" y="-1048.3" font-family="Times New Roman,serif" font-size="14.00">Physical body</text>
</a>
</g>
</g>
<!-- Space&#45;&gt;Physical body -->
<g id="edge63" class="edge">
<title>Space&#45;&gt;Physical body</title>
<path fill="none" stroke="black" d="M651.09,-1105.7C651.09,-1097.98 651.09,-1088.71 651.09,-1080.11"/>
<polygon fill="black" stroke="black" points="654.59,-1080.1 651.09,-1070.1 647.59,-1080.1 654.59,-1080.1"/>
</g>
<!-- Physical body&#45;&gt;Classical mechanics -->
<g id="edge64" class="edge">
<title>Physical body&#45;&gt;Classical mechanics</title>
<path fill="none" stroke="black" d="M657.87,-1034.05C661.02,-1026.18 664.84,-1016.62 668.37,-1007.79"/>
<polygon fill="black" stroke="black" points="671.72,-1008.86 672.18,-998.28 665.22,-1006.26 671.72,-1008.86"/>
</g>
</g>
</svg>
