<?xml version="1.0" encoding="UTF-8" standalone="no"?>
<!DOCTYPE svg PUBLIC "-//W3C//DTD SVG 1.1//EN"
 "http://www.w3.org/Graphics/SVG/1.1/DTD/svg11.dtd">
<!-- Generated by graphviz version 2.46.0 (20210118.1747)
 -->
<!-- Title: unix_try Pages: 1 -->
<svg width="720pt" height="252pt"
 viewBox="0.00 0.00 720.00 251.75" xmlns="http://www.w3.org/2000/svg" xmlns:xlink="http://www.w3.org/1999/xlink">
<g id="graph0" class="graph" transform="scale(0.55 0.55) rotate(0) translate(4 450)">
<title>unix_try</title>
<polygon fill="white" stroke="transparent" points="-4,4 -4,-450 1294.43,-450 1294.43,4 -4,4"/>
<text text-anchor="start" x="466.22" y="-32" font-family="Times New Roman,serif" font-size="20.00">Graph generated on 09/05/2021 14:25:59.</text>
<text text-anchor="middle" x="645.22" y="-10" font-family="Times New Roman,serif" font-size="20.00">Checked 100 pages. Time took: 69 minutes.</text>
<!-- Nicholas I -->
<g id="node1" class="node">
<title>Nicholas I</title>
<g id="a_node1"><a xlink:href="https://en.wikipedia.org/wiki/Nicholas_I_of_Russia" xlink:title="Nicholas I of Russia">
<ellipse fill="lightskyblue" stroke="lightskyblue" cx="789.09" cy="-428" rx="118.08" ry="18"/>
<text text-anchor="middle" x="789.09" y="-424.3" font-family="Courier,monospace" font-weight="bold" font-style="oblique" font-size="14.00">Nicholas I of Russia</text>
</a>
</g>
</g>
<!-- Alexander II -->
<g id="node2" class="node">
<title>Alexander II</title>
<ellipse fill="lightskyblue" stroke="lightskyblue" cx="499.09" cy="-341" rx="55.79" ry="18"/>
<text text-anchor="middle" x="499.09" y="-337.3" font-family="Times New Roman,serif" font-size="14.00">Alexander II</text>
</g>
<!-- Nicholas I&#45;&gt;Alexander II -->
<g id="edge1" class="edge">
<title>Nicholas I&#45;&gt;Alexander II</title>
<path fill="none" stroke="black" d="M688.7,-418.43C653.26,-413.29 613.66,-405.09 579.09,-392 561.08,-385.18 542.73,-374.08 528.16,-364.06"/>
<polygon fill="black" stroke="black" points="529.8,-360.93 519.62,-358.02 525.76,-366.65 529.8,-360.93"/>
<text text-anchor="middle" x="648.59" y="-380.8" font-family="Times New Roman,serif" font-size="14.00">Nicholas I&#45;&gt;Alexander II</text>
</g>
<!-- Grand Duke Michael -->
<g id="node3" class="node">
<title>Grand Duke Michael</title>
<ellipse fill="lightskyblue" stroke="lightskyblue" cx="668.09" cy="-341" rx="94.78" ry="18"/>
<text text-anchor="middle" x="668.09" y="-337.3" font-family="Times,serif" font-weight="bold" font-size="14.00">Grand Duke Michael</text>
</g>
<!-- Nicholas I&#45;&gt;Grand Duke Michael -->
<g id="edge2" class="edge">
<title>Nicholas I&#45;&gt;Grand Duke Michael</title>
<path fill="none" stroke="black" d="M765.19,-410.21C746.5,-397.08 720.37,-378.72 699.91,-364.35"/>
<polygon fill="black" stroke="black" points="701.73,-361.35 691.54,-358.47 697.71,-367.08 701.73,-361.35"/>
</g>
<!-- Maria, Duchess of Leuchtenberg -->
<g id="node4" class="node">
<title>Maria, Duchess of Leuchtenberg</title>
<ellipse fill="lightskyblue" stroke="lightskyblue" cx="910.09" cy="-341" rx="129.18" ry="18"/>
<text text-anchor="middle" x="910.09" y="-337.3" font-family="Times New Roman,serif" font-size="14.00">Maria, Duchess of Leuchtenberg</text>
</g>
<!-- Nicholas I&#45;&gt;Maria, Duchess of Leuchtenberg -->
<g id="edge3" class="edge">
<title>Nicholas I&#45;&gt;Maria, Duchess of Leuchtenberg</title>
<path fill="none" stroke="black" d="M813,-410.21C831.56,-397.17 857.48,-378.96 877.87,-364.63"/>
<polygon fill="black" stroke="black" points="880.07,-367.37 886.24,-358.76 876.04,-361.64 880.07,-367.37"/>
</g>
<!-- Olga, Queen of Württemberg -->
<g id="node5" class="node">
<title>Olga, Queen of Württemberg</title>
<ellipse fill="lightskyblue" stroke="lightskyblue" cx="1174.09" cy="-341" rx="116.18" ry="18"/>
<text text-anchor="middle" x="1174.09" y="-337.3" font-family="Times New Roman,serif" font-size="14.00">Olga, Queen of Württemberg</text>
</g>
<!-- Nicholas I&#45;&gt;Olga, Queen of Württemberg -->
<g id="edge4" class="edge">
<title>Nicholas I&#45;&gt;Olga, Queen of Württemberg</title>
<path fill="none" stroke="black" d="M853.53,-412.77C921.61,-397.74 1028.8,-374.08 1100.25,-358.3"/>
<polygon fill="black" stroke="black" points="1101.07,-361.71 1110.08,-356.13 1099.56,-354.87 1101.07,-361.71"/>
</g>
<!-- Grand Duchess Alexandra -->
<g id="node6" class="node">
<title>Grand Duchess Alexandra</title>
<ellipse fill="lightskyblue" stroke="lightskyblue" cx="294.09" cy="-268" rx="106.68" ry="18"/>
<text text-anchor="middle" x="294.09" y="-264.3" font-family="Times New Roman,serif" font-size="14.00">Grand Duchess Alexandra</text>
</g>
<!-- Alexander II&#45;&gt;Grand Duchess Alexandra -->
<g id="edge5" class="edge">
<title>Alexander II&#45;&gt;Grand Duchess Alexandra</title>
<path fill="none" stroke="black" d="M462.44,-327.31C430.76,-316.33 384.51,-300.32 348.5,-287.84"/>
<polygon fill="black" stroke="black" points="349.23,-284.39 338.64,-284.43 346.94,-291.01 349.23,-284.39"/>
</g>
<!-- Tsarevich Nicholas -->
<g id="node7" class="node">
<title>Tsarevich Nicholas</title>
<ellipse fill="lightskyblue" stroke="lightskyblue" cx="499.09" cy="-268" rx="80.69" ry="18"/>
<text text-anchor="middle" x="499.09" y="-264.3" font-family="Times New Roman,serif" font-size="14.00">Tsarevich Nicholas</text>
</g>
<!-- Alexander II&#45;&gt;Tsarevich Nicholas -->
<g id="edge6" class="edge">
<title>Alexander II&#45;&gt;Tsarevich Nicholas</title>
<path fill="none" stroke="black" d="M499.09,-322.81C499.09,-314.79 499.09,-305.05 499.09,-296.07"/>
<polygon fill="black" stroke="black" points="502.59,-296.03 499.09,-286.03 495.59,-296.03 502.59,-296.03"/>
</g>
<!-- Alexander III -->
<g id="node8" class="node">
<title>Alexander III</title>
<ellipse fill="lightskyblue" stroke="lightskyblue" cx="656.09" cy="-268" rx="58.49" ry="18"/>
<text text-anchor="middle" x="656.09" y="-264.3" font-family="Times New Roman,serif" font-size="14.00">Alexander III</text>
</g>
<!-- Alexander II&#45;&gt;Alexander III -->
<g id="edge7" class="edge">
<title>Alexander II&#45;&gt;Alexander III</title>
<path fill="none" stroke="black" d="M530.11,-325.97C554.47,-314.96 588.59,-299.53 615.18,-287.5"/>
<polygon fill="black" stroke="black" points="616.93,-290.55 624.6,-283.24 614.05,-284.17 616.93,-290.55"/>
</g>
<!-- Nicholas II -->
<g id="node9" class="node">
<title>Nicholas II</title>
<ellipse fill="lightskyblue" stroke="lightskyblue" cx="493.09" cy="-181" rx="50.89" ry="18"/>
<text text-anchor="middle" x="493.09" y="-177.3" font-family="Times New Roman,serif" font-size="14.00">Nicholas II</text>
</g>
<!-- Alexander III&#45;&gt;Nicholas II -->
<g id="edge8" class="edge">
<title>Alexander III&#45;&gt;Nicholas II</title>
<path fill="none" stroke="red" d="M627.7,-252.19C600.46,-237.99 559.19,-216.47 529.53,-201"/>
<polygon fill="red" stroke="red" points="530.83,-197.73 520.35,-196.21 527.59,-203.94 530.83,-197.73"/>
<text text-anchor="middle" x="605.09" y="-220.8" font-family="Times New Roman,serif" font-size="14.00">the last</text>
</g>
<!-- Grand Duke Alexander -->
<g id="node10" class="node">
<title>Grand Duke Alexander</title>
<ellipse fill="lightskyblue" stroke="lightskyblue" cx="656.09" cy="-181" rx="94.48" ry="18"/>
<text text-anchor="middle" x="656.09" y="-177.3" font-family="Times New Roman,serif" font-size="14.00">Grand Duke Alexander</text>
</g>
<!-- Alexander III&#45;&gt;Grand Duke Alexander -->
<g id="edge9" class="edge">
<title>Alexander III&#45;&gt;Grand Duke Alexander</title>
<path fill="none" stroke="black" d="M656.09,-249.8C656.09,-238.16 656.09,-222.55 656.09,-209.24"/>
<polygon fill="black" stroke="black" points="659.59,-209.18 656.09,-199.18 652.59,-209.18 659.59,-209.18"/>
</g>
<!-- Grand Duke George -->
<g id="node11" class="node">
<title>Grand Duke George</title>
<ellipse fill="lightskyblue" stroke="lightskyblue" cx="853.09" cy="-181" rx="84.49" ry="18"/>
<text text-anchor="middle" x="853.09" y="-177.3" font-family="Times New Roman,serif" font-size="14.00">Grand Duke George</text>
</g>
<!-- Alexander III&#45;&gt;Grand Duke George -->
<g id="edge10" class="edge">
<title>Alexander III&#45;&gt;Grand Duke George</title>
<path fill="none" stroke="black" d="M688.62,-252.96C721.23,-238.9 771.68,-217.13 808.11,-201.41"/>
<polygon fill="black" stroke="black" points="809.72,-204.53 817.51,-197.35 806.94,-198.1 809.72,-204.53"/>
</g>
<!-- Grand Duchess Olga -->
<g id="node12" class="node">
<title>Grand Duchess Olga</title>
<ellipse fill="lightskyblue" stroke="lightskyblue" cx="87.09" cy="-94" rx="87.18" ry="18"/>
<text text-anchor="middle" x="87.09" y="-90.3" font-family="Times New Roman,serif" font-size="14.00">Grand Duchess Olga</text>
</g>
<!-- Nicholas II&#45;&gt;Grand Duchess Olga -->
<g id="edge11" class="edge">
<title>Nicholas II&#45;&gt;Grand Duchess Olga</title>
<path fill="none" stroke="black" d="M450.41,-171.06C380.37,-156.4 240.43,-127.1 156.14,-109.46"/>
<polygon fill="black" stroke="black" points="156.65,-105.99 146.15,-107.36 155.22,-112.84 156.65,-105.99"/>
</g>
<!-- Grand Duchess Tatiana -->
<g id="node13" class="node">
<title>Grand Duchess Tatiana</title>
<ellipse fill="lightskyblue" stroke="lightskyblue" cx="288.09" cy="-94" rx="96.38" ry="18"/>
<text text-anchor="middle" x="288.09" y="-90.3" font-family="Times New Roman,serif" font-size="14.00">Grand Duchess Tatiana</text>
</g>
<!-- Nicholas II&#45;&gt;Grand Duchess Tatiana -->
<g id="edge12" class="edge">
<title>Nicholas II&#45;&gt;Grand Duchess Tatiana</title>
<path fill="none" stroke="black" d="M461.51,-166.91C427.86,-152.95 374.21,-130.71 335.49,-114.65"/>
<polygon fill="black" stroke="black" points="336.56,-111.31 325.99,-110.71 333.88,-117.78 336.56,-111.31"/>
</g>
<!-- Grand Duchess Maria -->
<g id="node14" class="node">
<title>Grand Duchess Maria</title>
<ellipse fill="lightskyblue" stroke="lightskyblue" cx="493.09" cy="-94" rx="90.18" ry="18"/>
<text text-anchor="middle" x="493.09" y="-90.3" font-family="Times New Roman,serif" font-size="14.00">Grand Duchess Maria</text>
</g>
<!-- Nicholas II&#45;&gt;Grand Duchess Maria -->
<g id="edge13" class="edge">
<title>Nicholas II&#45;&gt;Grand Duchess Maria</title>
<path fill="none" stroke="black" d="M493.09,-162.8C493.09,-151.16 493.09,-135.55 493.09,-122.24"/>
<polygon fill="black" stroke="black" points="496.59,-122.18 493.09,-112.18 489.59,-122.18 496.59,-122.18"/>
</g>
<!-- Grand Duchess Anastasia -->
<g id="node15" class="node">
<title>Grand Duchess Anastasia</title>
<ellipse fill="lightskyblue" stroke="lightskyblue" cx="706.09" cy="-94" rx="104.78" ry="18"/>
<text text-anchor="middle" x="706.09" y="-90.3" font-family="Times New Roman,serif" font-size="14.00">Grand Duchess Anastasia</text>
</g>
<!-- Nicholas II&#45;&gt;Grand Duchess Anastasia -->
<g id="edge14" class="edge">
<title>Nicholas II&#45;&gt;Grand Duchess Anastasia</title>
<path fill="none" stroke="black" d="M525.44,-167.09C560.46,-153.12 616.7,-130.67 657.14,-114.54"/>
<polygon fill="black" stroke="black" points="658.55,-117.74 666.54,-110.78 655.95,-111.24 658.55,-117.74"/>
<text text-anchor="middle" x="626.09" y="-133.8" font-family="Times New Roman,serif" font-size="14.00">label</text>
<text text-anchor="middle" x="634.54" y="-114.58" font-family="Times New Roman,serif" font-size="14.00">head label_</text>
<text text-anchor="middle" x="536.94" y="-155.89" font-family="Times New Roman,serif" font-size="14.00">tail label</text>
</g>
<!-- Tsesarevich Alexei -->
<g id="node16" class="node">
<title>Tsesarevich Alexei</title>
<ellipse fill="lightskyblue" stroke="lightskyblue" cx="908.09" cy="-94" rx="79.09" ry="18"/>
<text text-anchor="middle" x="908.09" y="-90.3" font-family="Times New Roman,serif" font-size="14.00">Tsesarevich Alexei</text>
</g>
<!-- Nicholas II&#45;&gt;Tsesarevich Alexei -->
<g id="edge15" class="edge">
<title>Nicholas II&#45;&gt;Tsesarevich Alexei</title>
<path fill="none" stroke="black" d="M530.73,-168.79C538.11,-166.75 545.82,-164.72 553.09,-163 582.48,-156.04 790.43,-117.7 820.09,-112 826.56,-110.76 833.3,-109.46 840.03,-108.16"/>
<polygon fill="black" stroke="black" points="840.72,-111.6 849.87,-106.26 839.39,-104.72 840.72,-111.6"/>
</g>
</g>
</svg>
