<?xml version="1.0" encoding="UTF-8" standalone="no"?>
<!DOCTYPE svg PUBLIC "-//W3C//DTD SVG 1.1//EN"
 "http://www.w3.org/Graphics/SVG/1.1/DTD/svg11.dtd">
<!-- Generated by graphviz version 2.46.0 (20210118.1747)
 -->
<!-- Title: unix Pages: 1 -->
<svg width="130pt" height="116pt"
 viewBox="0.00 0.00 130.19 116.00" xmlns="http://www.w3.org/2000/svg" xmlns:xlink="http://www.w3.org/1999/xlink">
<g id="graph0" class="graph" transform="scale(1 1) rotate(0) translate(4 112)">
<title>unix</title>
<polygon fill="white" stroke="transparent" points="-4,4 -4,-112 126.19,-112 126.19,4 -4,4"/>
<!-- Carbon fibers -->
<g id="node1" class="node">
<title>Carbon fibers</title>
<g id="a_node1"><a xlink:href="https://en.wikipedia.org/wiki/Carbon_fibers" xlink:title="Carbon fibers">
<ellipse fill="#b0e2ff" stroke="#b0e2ff" cx="61.09" cy="-90" rx="61.19" ry="18"/>
<text text-anchor="middle" x="61.09" y="-86.3" font-family="Times New Roman,serif" font-size="14.00">Carbon fibers</text>
</a>
</g>
</g>
<!-- Fiber -->
<g id="node2" class="node">
<title>Fiber</title>
<g id="a_node2"><a xlink:href="https://en.wikipedia.org/wiki/Fiber" xlink:title="Fiber">
<ellipse fill="lightskyblue" stroke="lightskyblue" cx="61.09" cy="-18" rx="29.8" ry="18"/>
<text text-anchor="middle" x="61.09" y="-14.3" font-family="Times New Roman,serif" font-size="14.00">Fiber</text>
</a>
</g>
</g>
<!-- Carbon fibers&#45;&gt;Fiber -->
<g id="edge1" class="edge">
<title>Carbon fibers&#45;&gt;Fiber</title>
<path fill="none" stroke="black" d="M55.22,-72.05C54.39,-64.23 54.15,-54.75 54.5,-45.98"/>
<polygon fill="black" stroke="black" points="58.01,-46.01 55.23,-35.79 51.03,-45.51 58.01,-46.01"/>
</g>
<!-- Fiber&#45;&gt;Carbon fibers -->
<g id="edge2" class="edge">
<title>Fiber&#45;&gt;Carbon fibers</title>
<path fill="none" stroke="black" d="M66.96,-35.79C67.79,-43.59 68.04,-53.07 67.69,-61.85"/>
<polygon fill="black" stroke="black" points="64.18,-61.83 66.97,-72.05 71.17,-62.33 64.18,-61.83"/>
</g>
</g>
</svg>
