<?xml version="1.0" encoding="UTF-8" standalone="no"?>
<!DOCTYPE svg PUBLIC "-//W3C//DTD SVG 1.1//EN"
 "http://www.w3.org/Graphics/SVG/1.1/DTD/svg11.dtd">
<!-- Generated by graphviz version 2.46.0 (20210118.1747)
 -->
<!-- Title: unix Pages: 1 -->
<svg width="277pt" height="1268pt"
 viewBox="0.00 0.00 277.13 1268.00" xmlns="http://www.w3.org/2000/svg" xmlns:xlink="http://www.w3.org/1999/xlink">
<g id="graph0" class="graph" transform="scale(1 1) rotate(0) translate(4 1264)">
<title>unix</title>
<polygon fill="white" stroke="transparent" points="-4,4 -4,-1264 273.13,-1264 273.13,4 -4,4"/>
<!-- Philosophy -->
<g id="node1" class="node">
<title>Philosophy</title>
<g id="a_node1"><a xlink:href="https://en.wikipedia.org/wiki/Philosophy" xlink:title="Philosophy">
<ellipse fill="#b0e2ff" stroke="#b0e2ff" cx="179.44" cy="-1242" rx="51.99" ry="18"/>
<text text-anchor="middle" x="179.44" y="-1238.3" font-family="Times New Roman,serif" font-size="14.00">Philosophy</text>
</a>
</g>
</g>
<!-- Reason -->
<g id="node2" class="node">
<title>Reason</title>
<g id="a_node2"><a xlink:href="https://en.wikipedia.org/wiki/Reason" xlink:title="Reason">
<ellipse fill="lightskyblue" stroke="lightskyblue" cx="146.44" cy="-1170" rx="38.19" ry="18"/>
<text text-anchor="middle" x="146.44" y="-1166.3" font-family="Times New Roman,serif" font-size="14.00">Reason</text>
</a>
</g>
</g>
<!-- Philosophy&#45;&gt;Reason -->
<g id="edge1" class="edge">
<title>Philosophy&#45;&gt;Reason</title>
<path fill="none" stroke="black" d="M171.45,-1224.05C167.64,-1215.97 163,-1206.12 158.75,-1197.11"/>
<polygon fill="black" stroke="black" points="161.79,-1195.34 154.36,-1187.79 155.45,-1198.33 161.79,-1195.34"/>
</g>
<!-- Consciousness -->
<g id="node3" class="node">
<title>Consciousness</title>
<g id="a_node3"><a xlink:href="https://en.wikipedia.org/wiki/Consciousness" xlink:title="Consciousness">
<ellipse fill="lightskyblue" stroke="lightskyblue" cx="130.44" cy="-1098" rx="65.79" ry="18"/>
<text text-anchor="middle" x="130.44" y="-1094.3" font-family="Times New Roman,serif" font-size="14.00">Consciousness</text>
</a>
</g>
</g>
<!-- Reason&#45;&gt;Consciousness -->
<g id="edge2" class="edge">
<title>Reason&#45;&gt;Consciousness</title>
<path fill="none" stroke="black" d="M142.57,-1152.05C140.79,-1144.26 138.63,-1134.82 136.63,-1126.08"/>
<polygon fill="black" stroke="black" points="140.03,-1125.24 134.39,-1116.28 133.21,-1126.8 140.03,-1125.24"/>
</g>
<!-- Sentience -->
<g id="node4" class="node">
<title>Sentience</title>
<g id="a_node4"><a xlink:href="https://en.wikipedia.org/wiki/Sentience" xlink:title="Sentience">
<ellipse fill="lightskyblue" stroke="lightskyblue" cx="126.44" cy="-1026" rx="45.49" ry="18"/>
<text text-anchor="middle" x="126.44" y="-1022.3" font-family="Times New Roman,serif" font-size="14.00">Sentience</text>
</a>
</g>
</g>
<!-- Consciousness&#45;&gt;Sentience -->
<g id="edge3" class="edge">
<title>Consciousness&#45;&gt;Sentience</title>
<path fill="none" stroke="black" d="M129.45,-1079.7C129.01,-1071.98 128.48,-1062.71 127.99,-1054.11"/>
<polygon fill="black" stroke="black" points="131.48,-1053.89 127.42,-1044.1 124.49,-1054.29 131.48,-1053.89"/>
</g>
<!-- Feeling -->
<g id="node5" class="node">
<title>Feeling</title>
<g id="a_node5"><a xlink:href="https://en.wikipedia.org/wiki/Feeling" xlink:title="Feeling">
<ellipse fill="lightskyblue" stroke="lightskyblue" cx="118.44" cy="-954" rx="36.29" ry="18"/>
<text text-anchor="middle" x="118.44" y="-950.3" font-family="Times New Roman,serif" font-size="14.00">Feeling</text>
</a>
</g>
</g>
<!-- Sentience&#45;&gt;Feeling -->
<g id="edge4" class="edge">
<title>Sentience&#45;&gt;Feeling</title>
<path fill="none" stroke="black" d="M124.46,-1007.7C123.58,-999.98 122.52,-990.71 121.54,-982.11"/>
<polygon fill="black" stroke="black" points="125.01,-981.64 120.4,-972.1 118.05,-982.44 125.01,-981.64"/>
</g>
<!-- Touch -->
<g id="node6" class="node">
<title>Touch</title>
<g id="a_node6"><a xlink:href="https://en.wikipedia.org/wiki/Touch" xlink:title="Touch">
<ellipse fill="lightskyblue" stroke="lightskyblue" cx="102.44" cy="-882" rx="34.39" ry="18"/>
<text text-anchor="middle" x="102.44" y="-878.3" font-family="Times New Roman,serif" font-size="14.00">Touch</text>
</a>
</g>
</g>
<!-- Feeling&#45;&gt;Touch -->
<g id="edge5" class="edge">
<title>Feeling&#45;&gt;Touch</title>
<path fill="none" stroke="black" d="M114.57,-936.05C112.79,-928.26 110.63,-918.82 108.63,-910.08"/>
<polygon fill="black" stroke="black" points="112.03,-909.24 106.39,-900.28 105.21,-910.8 112.03,-909.24"/>
</g>
<!-- Sensory nervous system -->
<g id="node7" class="node">
<title>Sensory nervous system</title>
<g id="a_node7"><a xlink:href="https://en.wikipedia.org/wiki/Sensory_nervous_system" xlink:title="Sensory nervous system">
<ellipse fill="lightskyblue" stroke="lightskyblue" cx="99.44" cy="-810" rx="99.38" ry="18"/>
<text text-anchor="middle" x="99.44" y="-806.3" font-family="Times New Roman,serif" font-size="14.00">Sensory nervous system</text>
</a>
</g>
</g>
<!-- Touch&#45;&gt;Sensory nervous system -->
<g id="edge6" class="edge">
<title>Touch&#45;&gt;Sensory nervous system</title>
<path fill="none" stroke="black" d="M101.7,-863.7C101.37,-855.98 100.97,-846.71 100.6,-838.11"/>
<polygon fill="black" stroke="black" points="104.1,-837.95 100.17,-828.1 97.11,-838.25 104.1,-837.95"/>
</g>
<!-- Nervous system -->
<g id="node8" class="node">
<title>Nervous system</title>
<g id="a_node8"><a xlink:href="https://en.wikipedia.org/wiki/Nervous_system" xlink:title="Nervous system">
<ellipse fill="lightskyblue" stroke="lightskyblue" cx="101.44" cy="-738" rx="69.59" ry="18"/>
<text text-anchor="middle" x="101.44" y="-734.3" font-family="Times New Roman,serif" font-size="14.00">Nervous system</text>
</a>
</g>
</g>
<!-- Sensory nervous system&#45;&gt;Nervous system -->
<g id="edge7" class="edge">
<title>Sensory nervous system&#45;&gt;Nervous system</title>
<path fill="none" stroke="black" d="M99.94,-791.7C100.16,-783.98 100.42,-774.71 100.67,-766.11"/>
<polygon fill="black" stroke="black" points="104.17,-766.2 100.95,-756.1 97.17,-766 104.17,-766.2"/>
</g>
<!-- Biology -->
<g id="node9" class="node">
<title>Biology</title>
<g id="a_node9"><a xlink:href="https://en.wikipedia.org/wiki/Biology" xlink:title="Biology">
<ellipse fill="lightskyblue" stroke="lightskyblue" cx="105.44" cy="-666" rx="38.99" ry="18"/>
<text text-anchor="middle" x="105.44" y="-662.3" font-family="Times New Roman,serif" font-size="14.00">Biology</text>
</a>
</g>
</g>
<!-- Nervous system&#45;&gt;Biology -->
<g id="edge8" class="edge">
<title>Nervous system&#45;&gt;Biology</title>
<path fill="none" stroke="black" d="M102.43,-719.7C102.87,-711.98 103.4,-702.71 103.89,-694.11"/>
<polygon fill="black" stroke="black" points="107.39,-694.29 104.46,-684.1 100.4,-693.89 107.39,-694.29"/>
</g>
<!-- Natural science -->
<g id="node10" class="node">
<title>Natural science</title>
<g id="a_node10"><a xlink:href="https://en.wikipedia.org/wiki/Natural_science" xlink:title="Natural science">
<ellipse fill="lightskyblue" stroke="lightskyblue" cx="112.44" cy="-594" rx="65.79" ry="18"/>
<text text-anchor="middle" x="112.44" y="-590.3" font-family="Times New Roman,serif" font-size="14.00">Natural science</text>
</a>
</g>
</g>
<!-- Biology&#45;&gt;Natural science -->
<g id="edge9" class="edge">
<title>Biology&#45;&gt;Natural science</title>
<path fill="none" stroke="black" d="M107.17,-647.7C107.94,-639.98 108.87,-630.71 109.73,-622.11"/>
<polygon fill="black" stroke="black" points="113.22,-622.4 110.73,-612.1 106.25,-621.71 113.22,-622.4"/>
</g>
<!-- Branches of science -->
<g id="node11" class="node">
<title>Branches of science</title>
<g id="a_node11"><a xlink:href="https://en.wikipedia.org/wiki/Branches_of_science" xlink:title="Branches of science">
<ellipse fill="lightskyblue" stroke="lightskyblue" cx="113.44" cy="-522" rx="83.69" ry="18"/>
<text text-anchor="middle" x="113.44" y="-518.3" font-family="Times New Roman,serif" font-size="14.00">Branches of science</text>
</a>
</g>
</g>
<!-- Natural science&#45;&gt;Branches of science -->
<g id="edge10" class="edge">
<title>Natural science&#45;&gt;Branches of science</title>
<path fill="none" stroke="black" d="M112.69,-575.7C112.8,-567.98 112.93,-558.71 113.05,-550.11"/>
<polygon fill="black" stroke="black" points="116.55,-550.15 113.2,-540.1 109.55,-550.05 116.55,-550.15"/>
</g>
<!-- Science -->
<g id="node12" class="node">
<title>Science</title>
<g id="a_node12"><a xlink:href="https://en.wikipedia.org/wiki/Science" xlink:title="Science">
<ellipse fill="lightskyblue" stroke="lightskyblue" cx="114.44" cy="-450" rx="38.99" ry="18"/>
<text text-anchor="middle" x="114.44" y="-446.3" font-family="Times New Roman,serif" font-size="14.00">Science</text>
</a>
</g>
</g>
<!-- Branches of science&#45;&gt;Science -->
<g id="edge11" class="edge">
<title>Branches of science&#45;&gt;Science</title>
<path fill="none" stroke="black" d="M113.69,-503.7C113.8,-495.98 113.93,-486.71 114.05,-478.11"/>
<polygon fill="black" stroke="black" points="117.55,-478.15 114.2,-468.1 110.55,-478.05 117.55,-478.15"/>
</g>
<!-- Scientific method -->
<g id="node13" class="node">
<title>Scientific method</title>
<g id="a_node13"><a xlink:href="https://en.wikipedia.org/wiki/Scientific_method" xlink:title="Scientific method">
<ellipse fill="lightskyblue" stroke="lightskyblue" cx="116.44" cy="-378" rx="74.19" ry="18"/>
<text text-anchor="middle" x="116.44" y="-374.3" font-family="Times New Roman,serif" font-size="14.00">Scientific method</text>
</a>
</g>
</g>
<!-- Science&#45;&gt;Scientific method -->
<g id="edge12" class="edge">
<title>Science&#45;&gt;Scientific method</title>
<path fill="none" stroke="black" d="M114.94,-431.7C115.16,-423.98 115.42,-414.71 115.67,-406.11"/>
<polygon fill="black" stroke="black" points="119.17,-406.2 115.95,-396.1 112.17,-406 119.17,-406.2"/>
</g>
<!-- Empirical evidence -->
<g id="node14" class="node">
<title>Empirical evidence</title>
<g id="a_node14"><a xlink:href="https://en.wikipedia.org/wiki/Empirical_evidence" xlink:title="Empirical evidence">
<ellipse fill="lightskyblue" stroke="lightskyblue" cx="118.44" cy="-306" rx="79.09" ry="18"/>
<text text-anchor="middle" x="118.44" y="-302.3" font-family="Times New Roman,serif" font-size="14.00">Empirical evidence</text>
</a>
</g>
</g>
<!-- Scientific method&#45;&gt;Empirical evidence -->
<g id="edge13" class="edge">
<title>Scientific method&#45;&gt;Empirical evidence</title>
<path fill="none" stroke="black" d="M116.94,-359.7C117.16,-351.98 117.42,-342.71 117.67,-334.11"/>
<polygon fill="black" stroke="black" points="121.17,-334.2 117.95,-324.1 114.17,-334 121.17,-334.2"/>
</g>
<!-- Information -->
<g id="node15" class="node">
<title>Information</title>
<g id="a_node15"><a xlink:href="https://en.wikipedia.org/wiki/Information" xlink:title="Information">
<ellipse fill="lightskyblue" stroke="lightskyblue" cx="123.44" cy="-234" rx="53.09" ry="18"/>
<text text-anchor="middle" x="123.44" y="-230.3" font-family="Times New Roman,serif" font-size="14.00">Information</text>
</a>
</g>
</g>
<!-- Empirical evidence&#45;&gt;Information -->
<g id="edge14" class="edge">
<title>Empirical evidence&#45;&gt;Information</title>
<path fill="none" stroke="black" d="M119.68,-287.7C120.23,-279.98 120.89,-270.71 121.5,-262.11"/>
<polygon fill="black" stroke="black" points="125,-262.33 122.22,-252.1 118.02,-261.83 125,-262.33"/>
</g>
<!-- Uncertainty -->
<g id="node16" class="node">
<title>Uncertainty</title>
<g id="a_node16"><a xlink:href="https://en.wikipedia.org/wiki/Uncertainty" xlink:title="Uncertainty">
<ellipse fill="lightskyblue" stroke="lightskyblue" cx="132.44" cy="-162" rx="51.99" ry="18"/>
<text text-anchor="middle" x="132.44" y="-158.3" font-family="Times New Roman,serif" font-size="14.00">Uncertainty</text>
</a>
</g>
</g>
<!-- Information&#45;&gt;Uncertainty -->
<g id="edge15" class="edge">
<title>Information&#45;&gt;Uncertainty</title>
<path fill="none" stroke="black" d="M125.67,-215.7C126.66,-207.98 127.85,-198.71 128.96,-190.11"/>
<polygon fill="black" stroke="black" points="132.44,-190.47 130.24,-180.1 125.5,-189.58 132.44,-190.47"/>
</g>
<!-- Epistemology -->
<g id="node17" class="node">
<title>Epistemology</title>
<g id="a_node17"><a xlink:href="https://en.wikipedia.org/wiki/Epistemology" xlink:title="Epistemology">
<ellipse fill="lightskyblue" stroke="lightskyblue" cx="135.44" cy="-90" rx="60.39" ry="18"/>
<text text-anchor="middle" x="135.44" y="-86.3" font-family="Times New Roman,serif" font-size="14.00">Epistemology</text>
</a>
</g>
</g>
<!-- Uncertainty&#45;&gt;Epistemology -->
<g id="edge16" class="edge">
<title>Uncertainty&#45;&gt;Epistemology</title>
<path fill="none" stroke="black" d="M133.18,-143.7C133.51,-135.98 133.91,-126.71 134.28,-118.11"/>
<polygon fill="black" stroke="black" points="137.78,-118.25 134.71,-108.1 130.78,-117.95 137.78,-118.25"/>
</g>
<!-- Outline of philosophy -->
<g id="node18" class="node">
<title>Outline of philosophy</title>
<g id="a_node18"><a xlink:href="https://en.wikipedia.org/wiki/Outline_of_philosophy" xlink:title="Outline of philosophy">
<ellipse fill="lightskyblue" stroke="lightskyblue" cx="179.44" cy="-18" rx="89.88" ry="18"/>
<text text-anchor="middle" x="179.44" y="-14.3" font-family="Times New Roman,serif" font-size="14.00">Outline of philosophy</text>
</a>
</g>
</g>
<!-- Epistemology&#45;&gt;Outline of philosophy -->
<g id="edge17" class="edge">
<title>Epistemology&#45;&gt;Outline of philosophy</title>
<path fill="none" stroke="black" d="M146.09,-72.05C151.2,-63.92 157.44,-54 163.13,-44.94"/>
<polygon fill="black" stroke="black" points="166.22,-46.6 168.58,-36.28 160.3,-42.88 166.22,-46.6"/>
</g>
<!-- Outline of philosophy&#45;&gt;Philosophy -->
<g id="edge18" class="edge">
<title>Outline of philosophy&#45;&gt;Philosophy</title>
<path fill="none" stroke="black" d="M189.18,-36.32C202.95,-62.47 226.44,-114 226.44,-161 226.44,-1099 226.44,-1099 226.44,-1099 226.44,-1141.28 207.43,-1187.21 193.59,-1215.05"/>
<polygon fill="black" stroke="black" points="190.4,-1213.62 188.95,-1224.11 196.63,-1216.81 190.4,-1213.62"/>
</g>
</g>
</svg>
