<?xml version="1.0" encoding="UTF-8" standalone="no"?>
<!DOCTYPE svg PUBLIC "-//W3C//DTD SVG 1.1//EN"
 "http://www.w3.org/Graphics/SVG/1.1/DTD/svg11.dtd">
<!-- Generated by graphviz version 2.46.0 (20210118.1747)
 -->
<!-- Title: unix Pages: 1 -->
<svg width="235pt" height="188pt"
 viewBox="0.00 0.00 234.84 188.00" xmlns="http://www.w3.org/2000/svg" xmlns:xlink="http://www.w3.org/1999/xlink">
<g id="graph0" class="graph" transform="scale(1 1) rotate(0) translate(4 184)">
<title>unix</title>
<polygon fill="white" stroke="transparent" points="-4,4 -4,-184 230.84,-184 230.84,4 -4,4"/>
<!-- United States -->
<g id="node1" class="node">
<title>United States</title>
<g id="a_node1"><a xlink:href="https://en.wikipedia.org/wiki/United_States" xlink:title="United States">
<ellipse fill="#b0e2ff" stroke="#b0e2ff" cx="167.69" cy="-162" rx="59.29" ry="18"/>
<text text-anchor="middle" x="167.69" y="-158.3" font-family="Times New Roman,serif" font-size="14.00">United States</text>
</a>
</g>
</g>
<!-- Continental United States -->
<g id="node2" class="node">
<title>Continental United States</title>
<g id="a_node2"><a xlink:href="https://en.wikipedia.org/wiki/Continental_United_States" xlink:title="Continental United States">
<ellipse fill="lightskyblue" stroke="lightskyblue" cx="102.69" cy="-90" rx="102.88" ry="18"/>
<text text-anchor="middle" x="102.69" y="-86.3" font-family="Times New Roman,serif" font-size="14.00">Continental United States</text>
</a>
</g>
</g>
<!-- United States&#45;&gt;Continental United States -->
<g id="edge1" class="edge">
<title>United States&#45;&gt;Continental United States</title>
<path fill="none" stroke="black" d="M152.29,-144.41C144.23,-135.73 134.21,-124.95 125.29,-115.34"/>
<polygon fill="black" stroke="black" points="127.81,-112.9 118.44,-107.96 122.68,-117.67 127.81,-112.9"/>
</g>
<!-- U.S. state -->
<g id="node3" class="node">
<title>U.S. state</title>
<g id="a_node3"><a xlink:href="https://en.wikipedia.org/wiki/U.S._state" xlink:title="U.S. state">
<ellipse fill="lightskyblue" stroke="lightskyblue" cx="167.69" cy="-18" rx="46.29" ry="18"/>
<text text-anchor="middle" x="167.69" y="-14.3" font-family="Times New Roman,serif" font-size="14.00">U.S. state</text>
</a>
</g>
</g>
<!-- Continental United States&#45;&gt;U.S. state -->
<g id="edge2" class="edge">
<title>Continental United States&#45;&gt;U.S. state</title>
<path fill="none" stroke="black" d="M118.43,-72.05C126.61,-63.24 136.74,-52.33 145.69,-42.69"/>
<polygon fill="black" stroke="black" points="148.31,-45.02 152.55,-35.31 143.18,-40.25 148.31,-45.02"/>
</g>
<!-- U.S. state&#45;&gt;United States -->
<g id="edge3" class="edge">
<title>U.S. state&#45;&gt;United States</title>
<path fill="none" stroke="black" d="M187,-34.46C197.36,-44.03 209.11,-57.28 214.69,-72 220.37,-86.96 220.37,-93.04 214.69,-108 210.55,-118.92 203.01,-129.02 195.17,-137.42"/>
<polygon fill="black" stroke="black" points="192.57,-135.08 187.98,-144.63 197.52,-140.03 192.57,-135.08"/>
</g>
</g>
</svg>
