<?xml version="1.0" encoding="UTF-8" standalone="no"?>
<!DOCTYPE svg PUBLIC "-//W3C//DTD SVG 1.1//EN"
 "http://www.w3.org/Graphics/SVG/1.1/DTD/svg11.dtd">
<!-- Generated by graphviz version 2.46.0 (20210118.1747)
 -->
<!-- Title: unix Pages: 1 -->
<svg width="865pt" height="2014pt"
 viewBox="0.00 0.00 865.42 2014.00" xmlns="http://www.w3.org/2000/svg" xmlns:xlink="http://www.w3.org/1999/xlink">
<g id="graph0" class="graph" transform="scale(1 1) rotate(0) translate(4 2010)">
<title>unix</title>
<polygon fill="white" stroke="transparent" points="-4,4 -4,-2010 861.42,-2010 861.42,4 -4,4"/>
<text text-anchor="start" x="252.71" y="-54" font-family="Times New Roman,serif" font-size="20.00">Graph generated on 09/05/2021 14:07:21.</text>
<text text-anchor="start" x="252.71" y="-32" font-family="Times New Roman,serif" font-size="20.00">Checked 5 pages. Time took: 1.09 minutes.</text>
<text text-anchor="middle" x="428.71" y="-10" font-family="Times New Roman,serif" font-size="20.00">Number of pages drawn: 69</text>
<!-- Kayunga Hospital -->
<g id="node1" class="node">
<title>Kayunga Hospital</title>
<g id="a_node1"><a xlink:href="https://en.wikipedia.org/wiki/Kayunga_Hospital" xlink:title="Kayunga Hospital">
<ellipse fill="#b0e2ff" stroke="#b0e2ff" cx="667.64" cy="-1988" rx="75.29" ry="18"/>
<text text-anchor="middle" x="667.64" y="-1984.3" font-family="Times New Roman,serif" font-size="14.00">Kayunga Hospital</text>
</a>
</g>
</g>
<!-- Public hospital -->
<g id="node2" class="node">
<title>Public hospital</title>
<g id="a_node2"><a xlink:href="https://en.wikipedia.org/wiki/Public_hospital" xlink:title="Public hospital">
<ellipse fill="lightskyblue" stroke="lightskyblue" cx="667.64" cy="-1916" rx="64.19" ry="18"/>
<text text-anchor="middle" x="667.64" y="-1912.3" font-family="Times New Roman,serif" font-size="14.00">Public hospital</text>
</a>
</g>
</g>
<!-- Kayunga Hospital&#45;&gt;Public hospital -->
<g id="edge1" class="edge">
<title>Kayunga Hospital&#45;&gt;Public hospital</title>
<path fill="none" stroke="black" d="M667.64,-1969.7C667.64,-1961.98 667.64,-1952.71 667.64,-1944.11"/>
<polygon fill="black" stroke="black" points="671.14,-1944.1 667.64,-1934.1 664.14,-1944.1 671.14,-1944.1"/>
</g>
<!-- Hospital -->
<g id="node3" class="node">
<title>Hospital</title>
<g id="a_node3"><a xlink:href="https://en.wikipedia.org/wiki/Hospital" xlink:title="Hospital">
<ellipse fill="lightskyblue" stroke="lightskyblue" cx="667.64" cy="-1844" rx="40.89" ry="18"/>
<text text-anchor="middle" x="667.64" y="-1840.3" font-family="Times New Roman,serif" font-size="14.00">Hospital</text>
</a>
</g>
</g>
<!-- Public hospital&#45;&gt;Hospital -->
<g id="edge2" class="edge">
<title>Public hospital&#45;&gt;Hospital</title>
<path fill="none" stroke="black" d="M667.64,-1897.7C667.64,-1889.98 667.64,-1880.71 667.64,-1872.11"/>
<polygon fill="black" stroke="black" points="671.14,-1872.1 667.64,-1862.1 664.14,-1872.1 671.14,-1872.1"/>
</g>
<!-- Health care -->
<g id="node4" class="node">
<title>Health care</title>
<g id="a_node4"><a xlink:href="https://en.wikipedia.org/wiki/Health_care" xlink:title="Health care">
<ellipse fill="lightskyblue" stroke="lightskyblue" cx="667.64" cy="-1772" rx="51.19" ry="18"/>
<text text-anchor="middle" x="667.64" y="-1768.3" font-family="Times New Roman,serif" font-size="14.00">Health care</text>
</a>
</g>
</g>
<!-- Hospital&#45;&gt;Health care -->
<g id="edge3" class="edge">
<title>Hospital&#45;&gt;Health care</title>
<path fill="none" stroke="black" d="M667.64,-1825.7C667.64,-1817.98 667.64,-1808.71 667.64,-1800.11"/>
<polygon fill="black" stroke="black" points="671.14,-1800.1 667.64,-1790.1 664.14,-1800.1 671.14,-1800.1"/>
</g>
<!-- Health -->
<g id="node5" class="node">
<title>Health</title>
<g id="a_node5"><a xlink:href="https://en.wikipedia.org/wiki/Health" xlink:title="Health">
<ellipse fill="lightskyblue" stroke="lightskyblue" cx="667.64" cy="-1700" rx="33.6" ry="18"/>
<text text-anchor="middle" x="667.64" y="-1696.3" font-family="Times New Roman,serif" font-size="14.00">Health</text>
</a>
</g>
</g>
<!-- Health care&#45;&gt;Health -->
<g id="edge4" class="edge">
<title>Health care&#45;&gt;Health</title>
<path fill="none" stroke="black" d="M667.64,-1753.7C667.64,-1745.98 667.64,-1736.71 667.64,-1728.11"/>
<polygon fill="black" stroke="black" points="671.14,-1728.1 667.64,-1718.1 664.14,-1728.1 671.14,-1728.1"/>
</g>
<!-- Mental health -->
<g id="node6" class="node">
<title>Mental health</title>
<g id="a_node6"><a xlink:href="https://en.wikipedia.org/wiki/Mental_health" xlink:title="Mental health">
<ellipse fill="lightskyblue" stroke="lightskyblue" cx="667.64" cy="-1628" rx="58.49" ry="18"/>
<text text-anchor="middle" x="667.64" y="-1624.3" font-family="Times New Roman,serif" font-size="14.00">Mental health</text>
</a>
</g>
</g>
<!-- Health&#45;&gt;Mental health -->
<g id="edge5" class="edge">
<title>Health&#45;&gt;Mental health</title>
<path fill="none" stroke="black" d="M667.64,-1681.7C667.64,-1673.98 667.64,-1664.71 667.64,-1656.11"/>
<polygon fill="black" stroke="black" points="671.14,-1656.1 667.64,-1646.1 664.14,-1656.1 671.14,-1656.1"/>
</g>
<!-- World Health Organization -->
<g id="node7" class="node">
<title>World Health Organization</title>
<g id="a_node7"><a xlink:href="https://en.wikipedia.org/wiki/World_Health_Organization" xlink:title="World Health Organization">
<ellipse fill="lightskyblue" stroke="lightskyblue" cx="667.64" cy="-1556" rx="107.78" ry="18"/>
<text text-anchor="middle" x="667.64" y="-1552.3" font-family="Times New Roman,serif" font-size="14.00">World Health Organization</text>
</a>
</g>
</g>
<!-- Mental health&#45;&gt;World Health Organization -->
<g id="edge6" class="edge">
<title>Mental health&#45;&gt;World Health Organization</title>
<path fill="none" stroke="black" d="M667.64,-1609.7C667.64,-1601.98 667.64,-1592.71 667.64,-1584.11"/>
<polygon fill="black" stroke="black" points="671.14,-1584.1 667.64,-1574.1 664.14,-1584.1 671.14,-1584.1"/>
</g>
<!-- List of specialized agencies of the United Nations -->
<g id="node8" class="node">
<title>List of specialized agencies of the United Nations</title>
<g id="a_node8"><a xlink:href="https://en.wikipedia.org/wiki/List_of_specialized_agencies_of_the_United_Nations" xlink:title="List of specialized agencies of the United Nations">
<ellipse fill="lightskyblue" stroke="lightskyblue" cx="667.64" cy="-1484" rx="189.57" ry="18"/>
<text text-anchor="middle" x="667.64" y="-1480.3" font-family="Times New Roman,serif" font-size="14.00">List of specialized agencies of the United Nations</text>
</a>
</g>
</g>
<!-- World Health Organization&#45;&gt;List of specialized agencies of the United Nations -->
<g id="edge7" class="edge">
<title>World Health Organization&#45;&gt;List of specialized agencies of the United Nations</title>
<path fill="none" stroke="black" d="M667.64,-1537.7C667.64,-1529.98 667.64,-1520.71 667.64,-1512.11"/>
<polygon fill="black" stroke="black" points="671.14,-1512.1 667.64,-1502.1 664.14,-1512.1 671.14,-1512.1"/>
</g>
<!-- United Nations -->
<g id="node9" class="node">
<title>United Nations</title>
<g id="a_node9"><a xlink:href="https://en.wikipedia.org/wiki/United_Nations" xlink:title="United Nations">
<ellipse fill="lightskyblue" stroke="lightskyblue" cx="664.64" cy="-1412" rx="64.99" ry="18"/>
<text text-anchor="middle" x="664.64" y="-1408.3" font-family="Times New Roman,serif" font-size="14.00">United Nations</text>
</a>
</g>
</g>
<!-- List of specialized agencies of the United Nations&#45;&gt;United Nations -->
<g id="edge8" class="edge">
<title>List of specialized agencies of the United Nations&#45;&gt;United Nations</title>
<path fill="none" stroke="black" d="M666.9,-1465.7C666.57,-1457.98 666.17,-1448.71 665.8,-1440.11"/>
<polygon fill="black" stroke="black" points="669.3,-1439.95 665.37,-1430.1 662.3,-1440.25 669.3,-1439.95"/>
</g>
<!-- Intergovernmental organization -->
<g id="node10" class="node">
<title>Intergovernmental organization</title>
<g id="a_node10"><a xlink:href="https://en.wikipedia.org/wiki/Intergovernmental_organization" xlink:title="Intergovernmental organization">
<ellipse fill="lightskyblue" stroke="lightskyblue" cx="663.64" cy="-1340" rx="122.38" ry="18"/>
<text text-anchor="middle" x="663.64" y="-1336.3" font-family="Times New Roman,serif" font-size="14.00">Intergovernmental organization</text>
</a>
</g>
</g>
<!-- United Nations&#45;&gt;Intergovernmental organization -->
<g id="edge9" class="edge">
<title>United Nations&#45;&gt;Intergovernmental organization</title>
<path fill="none" stroke="black" d="M664.39,-1393.7C664.28,-1385.98 664.15,-1376.71 664.03,-1368.11"/>
<polygon fill="black" stroke="black" points="667.53,-1368.05 663.88,-1358.1 660.53,-1368.15 667.53,-1368.05"/>
</g>
<!-- Group of Seven -->
<g id="node11" class="node">
<title>Group of Seven</title>
<g id="a_node11"><a xlink:href="https://en.wikipedia.org/wiki/Group_of_Seven" xlink:title="Group of Seven">
<ellipse fill="lightskyblue" stroke="lightskyblue" cx="658.64" cy="-1268" rx="69.59" ry="18"/>
<text text-anchor="middle" x="658.64" y="-1264.3" font-family="Times New Roman,serif" font-size="14.00">Group of Seven</text>
</a>
</g>
</g>
<!-- Intergovernmental organization&#45;&gt;Group of Seven -->
<g id="edge10" class="edge">
<title>Intergovernmental organization&#45;&gt;Group of Seven</title>
<path fill="none" stroke="black" d="M662.4,-1321.7C661.85,-1313.98 661.19,-1304.71 660.58,-1296.11"/>
<polygon fill="black" stroke="black" points="664.06,-1295.83 659.86,-1286.1 657.08,-1296.33 664.06,-1295.83"/>
</g>
<!-- International organization -->
<g id="node12" class="node">
<title>International organization</title>
<g id="a_node12"><a xlink:href="https://en.wikipedia.org/wiki/International_organization" xlink:title="International organization">
<ellipse fill="lightskyblue" stroke="lightskyblue" cx="657.64" cy="-1196" rx="101.28" ry="18"/>
<text text-anchor="middle" x="657.64" y="-1192.3" font-family="Times New Roman,serif" font-size="14.00">International organization</text>
</a>
</g>
</g>
<!-- Group of Seven&#45;&gt;International organization -->
<g id="edge11" class="edge">
<title>Group of Seven&#45;&gt;International organization</title>
<path fill="none" stroke="black" d="M658.39,-1249.7C658.28,-1241.98 658.15,-1232.71 658.03,-1224.11"/>
<polygon fill="black" stroke="black" points="661.53,-1224.05 657.88,-1214.1 654.53,-1224.15 661.53,-1224.05"/>
</g>
<!-- Treaty -->
<g id="node13" class="node">
<title>Treaty</title>
<g id="a_node13"><a xlink:href="https://en.wikipedia.org/wiki/Treaty" xlink:title="Treaty">
<ellipse fill="lightskyblue" stroke="lightskyblue" cx="633.64" cy="-1124" rx="34.39" ry="18"/>
<text text-anchor="middle" x="633.64" y="-1120.3" font-family="Times New Roman,serif" font-size="14.00">Treaty</text>
</a>
</g>
</g>
<!-- International organization&#45;&gt;Treaty -->
<g id="edge12" class="edge">
<title>International organization&#45;&gt;Treaty</title>
<path fill="none" stroke="black" d="M651.71,-1177.7C649.03,-1169.9 645.81,-1160.51 642.84,-1151.83"/>
<polygon fill="black" stroke="black" points="646.06,-1150.43 639.5,-1142.1 639.44,-1152.7 646.06,-1150.43"/>
</g>
<!-- International law -->
<g id="node14" class="node">
<title>International law</title>
<g id="a_node14"><a xlink:href="https://en.wikipedia.org/wiki/International_law" xlink:title="International law">
<ellipse fill="lightskyblue" stroke="lightskyblue" cx="621.64" cy="-1052" rx="69.59" ry="18"/>
<text text-anchor="middle" x="621.64" y="-1048.3" font-family="Times New Roman,serif" font-size="14.00">International law</text>
</a>
</g>
</g>
<!-- Treaty&#45;&gt;International law -->
<g id="edge13" class="edge">
<title>Treaty&#45;&gt;International law</title>
<path fill="none" stroke="black" d="M630.73,-1106.05C629.41,-1098.35 627.82,-1089.03 626.33,-1080.36"/>
<polygon fill="black" stroke="black" points="629.74,-1079.54 624.6,-1070.28 622.84,-1080.72 629.74,-1079.54"/>
</g>
<!-- Nation -->
<g id="node15" class="node">
<title>Nation</title>
<g id="a_node15"><a xlink:href="https://en.wikipedia.org/wiki/Nation" xlink:title="Nation">
<ellipse fill="lightskyblue" stroke="lightskyblue" cx="586.64" cy="-980" rx="34.39" ry="18"/>
<text text-anchor="middle" x="586.64" y="-976.3" font-family="Times New Roman,serif" font-size="14.00">Nation</text>
</a>
</g>
</g>
<!-- International law&#45;&gt;Nation -->
<g id="edge14" class="edge">
<title>International law&#45;&gt;Nation</title>
<path fill="none" stroke="black" d="M613.17,-1034.05C609.08,-1025.89 604.1,-1015.91 599.55,-1006.82"/>
<polygon fill="black" stroke="black" points="602.64,-1005.17 595.03,-997.79 596.38,-1008.3 602.64,-1005.17"/>
</g>
<!-- Community -->
<g id="node16" class="node">
<title>Community</title>
<g id="a_node16"><a xlink:href="https://en.wikipedia.org/wiki/Community" xlink:title="Community">
<ellipse fill="lightskyblue" stroke="lightskyblue" cx="554.64" cy="-908" rx="53.09" ry="18"/>
<text text-anchor="middle" x="554.64" y="-904.3" font-family="Times New Roman,serif" font-size="14.00">Community</text>
</a>
</g>
</g>
<!-- Nation&#45;&gt;Community -->
<g id="edge15" class="edge">
<title>Nation&#45;&gt;Community</title>
<path fill="none" stroke="black" d="M579.06,-962.41C575.32,-954.25 570.74,-944.22 566.56,-935.07"/>
<polygon fill="black" stroke="black" points="569.73,-933.6 562.39,-925.96 563.37,-936.51 569.73,-933.6"/>
</g>
<!-- Social unit -->
<g id="node17" class="node">
<title>Social unit</title>
<g id="a_node17"><a xlink:href="https://en.wikipedia.org/wiki/Social_unit" xlink:title="Social unit">
<ellipse fill="lightskyblue" stroke="lightskyblue" cx="553.64" cy="-836" rx="48.99" ry="18"/>
<text text-anchor="middle" x="553.64" y="-832.3" font-family="Times New Roman,serif" font-size="14.00">Social unit</text>
</a>
</g>
</g>
<!-- Community&#45;&gt;Social unit -->
<g id="edge16" class="edge">
<title>Community&#45;&gt;Social unit</title>
<path fill="none" stroke="black" d="M554.39,-889.7C554.28,-881.98 554.15,-872.71 554.03,-864.11"/>
<polygon fill="black" stroke="black" points="557.53,-864.05 553.88,-854.1 550.53,-864.15 557.53,-864.05"/>
</g>
<!-- Social science -->
<g id="node18" class="node">
<title>Social science</title>
<g id="a_node18"><a xlink:href="https://en.wikipedia.org/wiki/Social_science" xlink:title="Social science">
<ellipse fill="lightskyblue" stroke="lightskyblue" cx="375.64" cy="-764" rx="62.29" ry="18"/>
<text text-anchor="middle" x="375.64" y="-760.3" font-family="Times New Roman,serif" font-size="14.00">Social science</text>
</a>
</g>
</g>
<!-- Social unit&#45;&gt;Social science -->
<g id="edge17" class="edge">
<title>Social unit&#45;&gt;Social science</title>
<path fill="none" stroke="black" d="M521.41,-822.32C493.17,-811.22 451.85,-794.97 420.41,-782.6"/>
<polygon fill="black" stroke="black" points="421.58,-779.3 410.99,-778.9 419.02,-785.82 421.58,-779.3"/>
</g>
<!-- Branches of science -->
<g id="node19" class="node">
<title>Branches of science</title>
<g id="a_node19"><a xlink:href="https://en.wikipedia.org/wiki/Branches_of_science" xlink:title="Branches of science">
<ellipse fill="lightskyblue" stroke="lightskyblue" cx="280.64" cy="-692" rx="83.69" ry="18"/>
<text text-anchor="middle" x="280.64" y="-688.3" font-family="Times New Roman,serif" font-size="14.00">Branches of science</text>
</a>
</g>
</g>
<!-- Social science&#45;&gt;Branches of science -->
<g id="edge18" class="edge">
<title>Social science&#45;&gt;Branches of science</title>
<path fill="none" stroke="black" d="M353.61,-746.76C340.99,-737.47 324.96,-725.66 311.15,-715.48"/>
<polygon fill="black" stroke="black" points="313.01,-712.5 302.88,-709.39 308.86,-718.14 313.01,-712.5"/>
</g>
<!-- Science -->
<g id="node20" class="node">
<title>Science</title>
<g id="a_node20"><a xlink:href="https://en.wikipedia.org/wiki/Science" xlink:title="Science">
<ellipse fill="lightskyblue" stroke="lightskyblue" cx="280.64" cy="-620" rx="38.99" ry="18"/>
<text text-anchor="middle" x="280.64" y="-616.3" font-family="Times New Roman,serif" font-size="14.00">Science</text>
</a>
</g>
</g>
<!-- Branches of science&#45;&gt;Science -->
<g id="edge19" class="edge">
<title>Branches of science&#45;&gt;Science</title>
<path fill="none" stroke="black" d="M280.64,-673.7C280.64,-665.98 280.64,-656.71 280.64,-648.11"/>
<polygon fill="black" stroke="black" points="284.14,-648.1 280.64,-638.1 277.14,-648.1 284.14,-648.1"/>
</g>
<!-- Scientific method -->
<g id="node21" class="node">
<title>Scientific method</title>
<g id="a_node21"><a xlink:href="https://en.wikipedia.org/wiki/Scientific_method" xlink:title="Scientific method">
<ellipse fill="lightskyblue" stroke="lightskyblue" cx="280.64" cy="-548" rx="74.19" ry="18"/>
<text text-anchor="middle" x="280.64" y="-544.3" font-family="Times New Roman,serif" font-size="14.00">Scientific method</text>
</a>
</g>
</g>
<!-- Science&#45;&gt;Scientific method -->
<g id="edge20" class="edge">
<title>Science&#45;&gt;Scientific method</title>
<path fill="none" stroke="black" d="M280.64,-601.7C280.64,-593.98 280.64,-584.71 280.64,-576.11"/>
<polygon fill="black" stroke="black" points="284.14,-576.1 280.64,-566.1 277.14,-576.1 284.14,-576.1"/>
</g>
<!-- Empirical evidence -->
<g id="node22" class="node">
<title>Empirical evidence</title>
<g id="a_node22"><a xlink:href="https://en.wikipedia.org/wiki/Empirical_evidence" xlink:title="Empirical evidence">
<ellipse fill="lightskyblue" stroke="lightskyblue" cx="329.64" cy="-476" rx="79.09" ry="18"/>
<text text-anchor="middle" x="329.64" y="-472.3" font-family="Times New Roman,serif" font-size="14.00">Empirical evidence</text>
</a>
</g>
</g>
<!-- Scientific method&#45;&gt;Empirical evidence -->
<g id="edge21" class="edge">
<title>Scientific method&#45;&gt;Empirical evidence</title>
<path fill="none" stroke="black" d="M292.5,-530.05C298.25,-521.84 305.29,-511.79 311.68,-502.66"/>
<polygon fill="black" stroke="black" points="314.68,-504.47 317.55,-494.28 308.94,-500.46 314.68,-504.47"/>
</g>
<!-- Information -->
<g id="node23" class="node">
<title>Information</title>
<g id="a_node23"><a xlink:href="https://en.wikipedia.org/wiki/Information" xlink:title="Information">
<ellipse fill="lightskyblue" stroke="lightskyblue" cx="354.64" cy="-404" rx="53.09" ry="18"/>
<text text-anchor="middle" x="354.64" y="-400.3" font-family="Times New Roman,serif" font-size="14.00">Information</text>
</a>
</g>
</g>
<!-- Empirical evidence&#45;&gt;Information -->
<g id="edge22" class="edge">
<title>Empirical evidence&#45;&gt;Information</title>
<path fill="none" stroke="black" d="M335.82,-457.7C338.63,-449.81 342.03,-440.3 345.16,-431.55"/>
<polygon fill="black" stroke="black" points="348.46,-432.7 348.53,-422.1 341.87,-430.34 348.46,-432.7"/>
</g>
<!-- Uncertainty -->
<g id="node24" class="node">
<title>Uncertainty</title>
<g id="a_node24"><a xlink:href="https://en.wikipedia.org/wiki/Uncertainty" xlink:title="Uncertainty">
<ellipse fill="lightskyblue" stroke="lightskyblue" cx="366.64" cy="-332" rx="51.99" ry="18"/>
<text text-anchor="middle" x="366.64" y="-328.3" font-family="Times New Roman,serif" font-size="14.00">Uncertainty</text>
</a>
</g>
</g>
<!-- Information&#45;&gt;Uncertainty -->
<g id="edge23" class="edge">
<title>Information&#45;&gt;Uncertainty</title>
<path fill="none" stroke="black" d="M357.61,-385.7C358.93,-377.98 360.52,-368.71 361.99,-360.11"/>
<polygon fill="black" stroke="black" points="365.47,-360.55 363.71,-350.1 358.57,-359.37 365.47,-360.55"/>
</g>
<!-- Epistemology -->
<g id="node25" class="node">
<title>Epistemology</title>
<g id="a_node25"><a xlink:href="https://en.wikipedia.org/wiki/Epistemology" xlink:title="Epistemology">
<ellipse fill="lightskyblue" stroke="lightskyblue" cx="372.64" cy="-260" rx="60.39" ry="18"/>
<text text-anchor="middle" x="372.64" y="-256.3" font-family="Times New Roman,serif" font-size="14.00">Epistemology</text>
</a>
</g>
</g>
<!-- Uncertainty&#45;&gt;Epistemology -->
<g id="edge24" class="edge">
<title>Uncertainty&#45;&gt;Epistemology</title>
<path fill="none" stroke="black" d="M368.12,-313.7C368.78,-305.98 369.58,-296.71 370.32,-288.11"/>
<polygon fill="black" stroke="black" points="373.81,-288.37 371.17,-278.1 366.83,-287.77 373.81,-288.37"/>
</g>
<!-- Outline of philosophy -->
<g id="node26" class="node">
<title>Outline of philosophy</title>
<g id="a_node26"><a xlink:href="https://en.wikipedia.org/wiki/Outline_of_philosophy" xlink:title="Outline of philosophy">
<ellipse fill="lightskyblue" stroke="lightskyblue" cx="375.64" cy="-188" rx="89.88" ry="18"/>
<text text-anchor="middle" x="375.64" y="-184.3" font-family="Times New Roman,serif" font-size="14.00">Outline of philosophy</text>
</a>
</g>
</g>
<!-- Epistemology&#45;&gt;Outline of philosophy -->
<g id="edge25" class="edge">
<title>Epistemology&#45;&gt;Outline of philosophy</title>
<path fill="none" stroke="black" d="M373.38,-241.7C373.71,-233.98 374.11,-224.71 374.48,-216.11"/>
<polygon fill="black" stroke="black" points="377.98,-216.25 374.91,-206.1 370.98,-215.95 377.98,-216.25"/>
</g>
<!-- Philosophy -->
<g id="node27" class="node">
<title>Philosophy</title>
<g id="a_node27"><a xlink:href="https://en.wikipedia.org/wiki/Philosophy" xlink:title="Philosophy">
<ellipse fill="lightskyblue" stroke="lightskyblue" cx="442.64" cy="-116" rx="51.99" ry="18"/>
<text text-anchor="middle" x="442.64" y="-112.3" font-family="Times New Roman,serif" font-size="14.00">Philosophy</text>
</a>
</g>
</g>
<!-- Outline of philosophy&#45;&gt;Philosophy -->
<g id="edge26" class="edge">
<title>Outline of philosophy&#45;&gt;Philosophy</title>
<path fill="none" stroke="black" d="M391.86,-170.05C400.29,-161.24 410.74,-150.33 419.96,-140.69"/>
<polygon fill="black" stroke="black" points="422.65,-142.95 427.03,-133.31 417.59,-138.11 422.65,-142.95"/>
</g>
<!-- James Morris (golfer) -->
<g id="node28" class="node">
<title>James Morris (golfer)</title>
<g id="a_node28"><a xlink:href="https://en.wikipedia.org/wiki/James_Morris_(golfer)" xlink:title="James Morris (golfer)">
<ellipse fill="#b0e2ff" stroke="#b0e2ff" cx="290.64" cy="-1124" rx="89.08" ry="18"/>
<text text-anchor="middle" x="290.64" y="-1120.3" font-family="Times New Roman,serif" font-size="14.00">James Morris (golfer)</text>
</a>
</g>
</g>
<!-- Professional golfer -->
<g id="node29" class="node">
<title>Professional golfer</title>
<g id="a_node29"><a xlink:href="https://en.wikipedia.org/wiki/Professional_golfer" xlink:title="Professional golfer">
<ellipse fill="lightskyblue" stroke="lightskyblue" cx="287.64" cy="-1052" rx="79.09" ry="18"/>
<text text-anchor="middle" x="287.64" y="-1048.3" font-family="Times New Roman,serif" font-size="14.00">Professional golfer</text>
</a>
</g>
</g>
<!-- James Morris (golfer)&#45;&gt;Professional golfer -->
<g id="edge27" class="edge">
<title>James Morris (golfer)&#45;&gt;Professional golfer</title>
<path fill="none" stroke="black" d="M289.9,-1105.7C289.57,-1097.98 289.17,-1088.71 288.8,-1080.11"/>
<polygon fill="black" stroke="black" points="292.3,-1079.95 288.37,-1070.1 285.3,-1080.25 292.3,-1079.95"/>
</g>
<!-- Payment -->
<g id="node30" class="node">
<title>Payment</title>
<g id="a_node30"><a xlink:href="https://en.wikipedia.org/wiki/Payment" xlink:title="Payment">
<ellipse fill="lightskyblue" stroke="lightskyblue" cx="294.64" cy="-980" rx="42.49" ry="18"/>
<text text-anchor="middle" x="294.64" y="-976.3" font-family="Times New Roman,serif" font-size="14.00">Payment</text>
</a>
</g>
</g>
<!-- Professional golfer&#45;&gt;Payment -->
<g id="edge28" class="edge">
<title>Professional golfer&#45;&gt;Payment</title>
<path fill="none" stroke="black" d="M289.37,-1033.7C290.14,-1025.98 291.07,-1016.71 291.93,-1008.11"/>
<polygon fill="black" stroke="black" points="295.42,-1008.4 292.93,-998.1 288.45,-1007.71 295.42,-1008.4"/>
</g>
<!-- Value (economics) -->
<g id="node31" class="node">
<title>Value (economics)</title>
<g id="a_node31"><a xlink:href="https://en.wikipedia.org/wiki/Value_(economics)" xlink:title="Value (economics)">
<ellipse fill="lightskyblue" stroke="lightskyblue" cx="299.64" cy="-908" rx="79.09" ry="18"/>
<text text-anchor="middle" x="299.64" y="-904.3" font-family="Times New Roman,serif" font-size="14.00">Value (economics)</text>
</a>
</g>
</g>
<!-- Payment&#45;&gt;Value (economics) -->
<g id="edge29" class="edge">
<title>Payment&#45;&gt;Value (economics)</title>
<path fill="none" stroke="black" d="M295.88,-961.7C296.43,-953.98 297.09,-944.71 297.7,-936.11"/>
<polygon fill="black" stroke="black" points="301.2,-936.33 298.42,-926.1 294.21,-935.83 301.2,-936.33"/>
</g>
<!-- Economics -->
<g id="node32" class="node">
<title>Economics</title>
<g id="a_node32"><a xlink:href="https://en.wikipedia.org/wiki/Economics" xlink:title="Economics">
<ellipse fill="lightskyblue" stroke="lightskyblue" cx="302.64" cy="-836" rx="51.99" ry="18"/>
<text text-anchor="middle" x="302.64" y="-832.3" font-family="Times New Roman,serif" font-size="14.00">Economics</text>
</a>
</g>
</g>
<!-- Value (economics)&#45;&gt;Economics -->
<g id="edge30" class="edge">
<title>Value (economics)&#45;&gt;Economics</title>
<path fill="none" stroke="black" d="M300.38,-889.7C300.71,-881.98 301.11,-872.71 301.48,-864.11"/>
<polygon fill="black" stroke="black" points="304.98,-864.25 301.91,-854.1 297.98,-863.95 304.98,-864.25"/>
</g>
<!-- Economics&#45;&gt;Social science -->
<g id="edge31" class="edge">
<title>Economics&#45;&gt;Social science</title>
<path fill="none" stroke="black" d="M319.57,-818.76C328.99,-809.73 340.89,-798.33 351.29,-788.35"/>
<polygon fill="black" stroke="black" points="353.75,-790.84 358.55,-781.39 348.91,-785.78 353.75,-790.84"/>
</g>
<!-- Matthew 4˸21 -->
<g id="node33" class="node">
<title>Matthew 4˸21</title>
<g id="a_node33"><a xlink:href="https://en.wikipedia.org/wiki/Matthew_4:21" xlink:title="Matthew 4˸21">
<ellipse fill="#b0e2ff" stroke="#b0e2ff" cx="378.64" cy="-1628" rx="59.59" ry="18"/>
<text text-anchor="middle" x="378.64" y="-1624.3" font-family="Times New Roman,serif" font-size="14.00">Matthew 4˸21</text>
</a>
</g>
</g>
<!-- Matthew 4 -->
<g id="node34" class="node">
<title>Matthew 4</title>
<g id="a_node34"><a xlink:href="https://en.wikipedia.org/wiki/Matthew_4" xlink:title="Matthew 4">
<ellipse fill="lightskyblue" stroke="lightskyblue" cx="378.64" cy="-1556" rx="48.99" ry="18"/>
<text text-anchor="middle" x="378.64" y="-1552.3" font-family="Times New Roman,serif" font-size="14.00">Matthew 4</text>
</a>
</g>
</g>
<!-- Matthew 4˸21&#45;&gt;Matthew 4 -->
<g id="edge32" class="edge">
<title>Matthew 4˸21&#45;&gt;Matthew 4</title>
<path fill="none" stroke="black" d="M378.64,-1609.7C378.64,-1601.98 378.64,-1592.71 378.64,-1584.11"/>
<polygon fill="black" stroke="black" points="382.14,-1584.1 378.64,-1574.1 375.14,-1584.1 382.14,-1584.1"/>
</g>
<!-- Gospel of Matthew -->
<g id="node35" class="node">
<title>Gospel of Matthew</title>
<g id="a_node35"><a xlink:href="https://en.wikipedia.org/wiki/Gospel_of_Matthew" xlink:title="Gospel of Matthew">
<ellipse fill="lightskyblue" stroke="lightskyblue" cx="378.64" cy="-1484" rx="81.49" ry="18"/>
<text text-anchor="middle" x="378.64" y="-1480.3" font-family="Times New Roman,serif" font-size="14.00">Gospel of Matthew</text>
</a>
</g>
</g>
<!-- Matthew 4&#45;&gt;Gospel of Matthew -->
<g id="edge33" class="edge">
<title>Matthew 4&#45;&gt;Gospel of Matthew</title>
<path fill="none" stroke="black" d="M378.64,-1537.7C378.64,-1529.98 378.64,-1520.71 378.64,-1512.11"/>
<polygon fill="black" stroke="black" points="382.14,-1512.1 378.64,-1502.1 375.14,-1512.1 382.14,-1512.1"/>
</g>
<!-- Synoptic Gospels -->
<g id="node36" class="node">
<title>Synoptic Gospels</title>
<g id="a_node36"><a xlink:href="https://en.wikipedia.org/wiki/Synoptic_Gospels" xlink:title="Synoptic Gospels">
<ellipse fill="lightskyblue" stroke="lightskyblue" cx="379.64" cy="-1412" rx="76.09" ry="18"/>
<text text-anchor="middle" x="379.64" y="-1408.3" font-family="Times New Roman,serif" font-size="14.00">Synoptic Gospels</text>
</a>
</g>
</g>
<!-- Gospel of Matthew&#45;&gt;Synoptic Gospels -->
<g id="edge34" class="edge">
<title>Gospel of Matthew&#45;&gt;Synoptic Gospels</title>
<path fill="none" stroke="black" d="M378.89,-1465.7C379,-1457.98 379.13,-1448.71 379.25,-1440.11"/>
<polygon fill="black" stroke="black" points="382.75,-1440.15 379.4,-1430.1 375.75,-1440.05 382.75,-1440.15"/>
</g>
<!-- Gospel -->
<g id="node37" class="node">
<title>Gospel</title>
<g id="a_node37"><a xlink:href="https://en.wikipedia.org/wiki/Gospel" xlink:title="Gospel">
<ellipse fill="lightskyblue" stroke="lightskyblue" cx="422.64" cy="-1340" rx="37.09" ry="18"/>
<text text-anchor="middle" x="422.64" y="-1336.3" font-family="Times New Roman,serif" font-size="14.00">Gospel</text>
</a>
</g>
</g>
<!-- Synoptic Gospels&#45;&gt;Gospel -->
<g id="edge35" class="edge">
<title>Synoptic Gospels&#45;&gt;Gospel</title>
<path fill="none" stroke="black" d="M390.05,-1394.05C395.12,-1385.8 401.32,-1375.7 406.95,-1366.54"/>
<polygon fill="black" stroke="black" points="410.07,-1368.14 412.33,-1357.79 404.11,-1364.48 410.07,-1368.14"/>
</g>
<!-- Christianity -->
<g id="node38" class="node">
<title>Christianity</title>
<g id="a_node38"><a xlink:href="https://en.wikipedia.org/wiki/Christianity" xlink:title="Christianity">
<ellipse fill="lightskyblue" stroke="lightskyblue" cx="422.64" cy="-1268" rx="51.99" ry="18"/>
<text text-anchor="middle" x="422.64" y="-1264.3" font-family="Times New Roman,serif" font-size="14.00">Christianity</text>
</a>
</g>
</g>
<!-- Gospel&#45;&gt;Christianity -->
<g id="edge36" class="edge">
<title>Gospel&#45;&gt;Christianity</title>
<path fill="none" stroke="black" d="M422.64,-1321.7C422.64,-1313.98 422.64,-1304.71 422.64,-1296.11"/>
<polygon fill="black" stroke="black" points="426.14,-1296.1 422.64,-1286.1 419.14,-1296.1 426.14,-1296.1"/>
</g>
<!-- Abrahamic religions -->
<g id="node39" class="node">
<title>Abrahamic religions</title>
<g id="a_node39"><a xlink:href="https://en.wikipedia.org/wiki/Abrahamic_religions" xlink:title="Abrahamic religions">
<ellipse fill="lightskyblue" stroke="lightskyblue" cx="433.64" cy="-1196" rx="83.39" ry="18"/>
<text text-anchor="middle" x="433.64" y="-1192.3" font-family="Times New Roman,serif" font-size="14.00">Abrahamic religions</text>
</a>
</g>
</g>
<!-- Christianity&#45;&gt;Abrahamic religions -->
<g id="edge37" class="edge">
<title>Christianity&#45;&gt;Abrahamic religions</title>
<path fill="none" stroke="black" d="M425.36,-1249.7C426.57,-1241.98 428.03,-1232.71 429.38,-1224.11"/>
<polygon fill="black" stroke="black" points="432.86,-1224.53 430.95,-1214.1 425.94,-1223.44 432.86,-1224.53"/>
</g>
<!-- Religion -->
<g id="node40" class="node">
<title>Religion</title>
<g id="a_node40"><a xlink:href="https://en.wikipedia.org/wiki/Religion" xlink:title="Religion">
<ellipse fill="lightskyblue" stroke="lightskyblue" cx="442.64" cy="-1124" rx="40.09" ry="18"/>
<text text-anchor="middle" x="442.64" y="-1120.3" font-family="Times New Roman,serif" font-size="14.00">Religion</text>
</a>
</g>
</g>
<!-- Abrahamic religions&#45;&gt;Religion -->
<g id="edge38" class="edge">
<title>Abrahamic religions&#45;&gt;Religion</title>
<path fill="none" stroke="black" d="M435.86,-1177.7C436.86,-1169.98 438.05,-1160.71 439.15,-1152.11"/>
<polygon fill="black" stroke="black" points="442.64,-1152.47 440.44,-1142.1 435.69,-1151.58 442.64,-1152.47"/>
</g>
<!-- Social system -->
<g id="node41" class="node">
<title>Social system</title>
<g id="a_node41"><a xlink:href="https://en.wikipedia.org/wiki/Social_system" xlink:title="Social system">
<ellipse fill="lightskyblue" stroke="lightskyblue" cx="445.64" cy="-1052" rx="61.19" ry="18"/>
<text text-anchor="middle" x="445.64" y="-1048.3" font-family="Times New Roman,serif" font-size="14.00">Social system</text>
</a>
</g>
</g>
<!-- Religion&#45;&gt;Social system -->
<g id="edge39" class="edge">
<title>Religion&#45;&gt;Social system</title>
<path fill="none" stroke="black" d="M443.38,-1105.7C443.71,-1097.98 444.11,-1088.71 444.48,-1080.11"/>
<polygon fill="black" stroke="black" points="447.98,-1080.25 444.91,-1070.1 440.98,-1079.95 447.98,-1080.25"/>
</g>
<!-- Sociology -->
<g id="node42" class="node">
<title>Sociology</title>
<g id="a_node42"><a xlink:href="https://en.wikipedia.org/wiki/Sociology" xlink:title="Sociology">
<ellipse fill="lightskyblue" stroke="lightskyblue" cx="443.64" cy="-980" rx="48.19" ry="18"/>
<text text-anchor="middle" x="443.64" y="-976.3" font-family="Times New Roman,serif" font-size="14.00">Sociology</text>
</a>
</g>
</g>
<!-- Social system&#45;&gt;Sociology -->
<g id="edge40" class="edge">
<title>Social system&#45;&gt;Sociology</title>
<path fill="none" stroke="black" d="M445.15,-1033.7C444.92,-1025.98 444.66,-1016.71 444.41,-1008.11"/>
<polygon fill="black" stroke="black" points="447.91,-1008 444.13,-998.1 440.92,-1008.2 447.91,-1008"/>
</g>
<!-- Society -->
<g id="node43" class="node">
<title>Society</title>
<g id="a_node43"><a xlink:href="https://en.wikipedia.org/wiki/Society" xlink:title="Society">
<ellipse fill="lightskyblue" stroke="lightskyblue" cx="441.64" cy="-908" rx="38.19" ry="18"/>
<text text-anchor="middle" x="441.64" y="-904.3" font-family="Times New Roman,serif" font-size="14.00">Society</text>
</a>
</g>
</g>
<!-- Sociology&#45;&gt;Society -->
<g id="edge41" class="edge">
<title>Sociology&#45;&gt;Society</title>
<path fill="none" stroke="black" d="M443.15,-961.7C442.92,-953.98 442.66,-944.71 442.41,-936.11"/>
<polygon fill="black" stroke="black" points="445.91,-936 442.13,-926.1 438.92,-936.2 445.91,-936"/>
</g>
<!-- Social group -->
<g id="node44" class="node">
<title>Social group</title>
<g id="a_node44"><a xlink:href="https://en.wikipedia.org/wiki/Social_group" xlink:title="Social group">
<ellipse fill="lightskyblue" stroke="lightskyblue" cx="429.64" cy="-836" rx="57.39" ry="18"/>
<text text-anchor="middle" x="429.64" y="-832.3" font-family="Times New Roman,serif" font-size="14.00">Social group</text>
</a>
</g>
</g>
<!-- Society&#45;&gt;Social group -->
<g id="edge42" class="edge">
<title>Society&#45;&gt;Social group</title>
<path fill="none" stroke="black" d="M438.67,-889.7C437.35,-881.98 435.76,-872.71 434.29,-864.11"/>
<polygon fill="black" stroke="black" points="437.71,-863.37 432.57,-854.1 430.81,-864.55 437.71,-863.37"/>
</g>
<!-- Social group&#45;&gt;Social science -->
<g id="edge43" class="edge">
<title>Social group&#45;&gt;Social science</title>
<path fill="none" stroke="black" d="M416.84,-818.41C410.28,-809.91 402.16,-799.37 394.86,-789.91"/>
<polygon fill="black" stroke="black" points="397.6,-787.74 388.72,-781.96 392.06,-792.01 397.6,-787.74"/>
</g>
<!-- 2013 LPGA Championship -->
<g id="node45" class="node">
<title>2013 LPGA Championship</title>
<g id="a_node45"><a xlink:href="https://en.wikipedia.org/wiki/2013_LPGA_Championship" xlink:title="2013 LPGA Championship">
<ellipse fill="#b0e2ff" stroke="#b0e2ff" cx="514.64" cy="-692" rx="109.68" ry="18"/>
<text text-anchor="middle" x="514.64" y="-688.3" font-family="Times New Roman,serif" font-size="14.00">2013 LPGA Championship</text>
</a>
</g>
</g>
<!-- LPGA Championship -->
<g id="node46" class="node">
<title>LPGA Championship</title>
<g id="a_node46"><a xlink:href="https://en.wikipedia.org/wiki/LPGA_Championship" xlink:title="LPGA Championship">
<ellipse fill="lightskyblue" stroke="lightskyblue" cx="514.64" cy="-620" rx="89.88" ry="18"/>
<text text-anchor="middle" x="514.64" y="-616.3" font-family="Times New Roman,serif" font-size="14.00">LPGA Championship</text>
</a>
</g>
</g>
<!-- 2013 LPGA Championship&#45;&gt;LPGA Championship -->
<g id="edge44" class="edge">
<title>2013 LPGA Championship&#45;&gt;LPGA Championship</title>
<path fill="none" stroke="black" d="M514.64,-673.7C514.64,-665.98 514.64,-656.71 514.64,-648.11"/>
<polygon fill="black" stroke="black" points="518.14,-648.1 514.64,-638.1 511.14,-648.1 518.14,-648.1"/>
</g>
<!-- Women&#39;s major golf championships -->
<g id="node47" class="node">
<title>Women&#39;s major golf championships</title>
<g id="a_node47"><a xlink:href="https://en.wikipedia.org/wiki/Women%27s_major_golf_championships" xlink:title="Women&#39;s major golf championships">
<ellipse fill="lightskyblue" stroke="lightskyblue" cx="514.64" cy="-548" rx="141.88" ry="18"/>
<text text-anchor="middle" x="514.64" y="-544.3" font-family="Times New Roman,serif" font-size="14.00">Women&#39;s major golf championships</text>
</a>
</g>
</g>
<!-- LPGA Championship&#45;&gt;Women&#39;s major golf championships -->
<g id="edge45" class="edge">
<title>LPGA Championship&#45;&gt;Women&#39;s major golf championships</title>
<path fill="none" stroke="black" d="M514.64,-601.7C514.64,-593.98 514.64,-584.71 514.64,-576.11"/>
<polygon fill="black" stroke="black" points="518.14,-576.1 514.64,-566.1 511.14,-576.1 518.14,-576.1"/>
</g>
<!-- Golf -->
<g id="node48" class="node">
<title>Golf</title>
<g id="a_node48"><a xlink:href="https://en.wikipedia.org/wiki/Golf" xlink:title="Golf">
<ellipse fill="lightskyblue" stroke="lightskyblue" cx="513.64" cy="-476" rx="27.1" ry="18"/>
<text text-anchor="middle" x="513.64" y="-472.3" font-family="Times New Roman,serif" font-size="14.00">Golf</text>
</a>
</g>
</g>
<!-- Women&#39;s major golf championships&#45;&gt;Golf -->
<g id="edge46" class="edge">
<title>Women&#39;s major golf championships&#45;&gt;Golf</title>
<path fill="none" stroke="black" d="M514.39,-529.7C514.28,-521.98 514.15,-512.71 514.03,-504.11"/>
<polygon fill="black" stroke="black" points="517.53,-504.05 513.88,-494.1 510.53,-504.15 517.53,-504.05"/>
</g>
<!-- Sport -->
<g id="node49" class="node">
<title>Sport</title>
<g id="a_node49"><a xlink:href="https://en.wikipedia.org/wiki/Sport" xlink:title="Sport">
<ellipse fill="lightskyblue" stroke="lightskyblue" cx="513.64" cy="-404" rx="31.4" ry="18"/>
<text text-anchor="middle" x="513.64" y="-400.3" font-family="Times New Roman,serif" font-size="14.00">Sport</text>
</a>
</g>
</g>
<!-- Golf&#45;&gt;Sport -->
<g id="edge47" class="edge">
<title>Golf&#45;&gt;Sport</title>
<path fill="none" stroke="black" d="M513.64,-457.7C513.64,-449.98 513.64,-440.71 513.64,-432.11"/>
<polygon fill="black" stroke="black" points="517.14,-432.1 513.64,-422.1 510.14,-432.1 517.14,-432.1"/>
</g>
<!-- Competition -->
<g id="node50" class="node">
<title>Competition</title>
<g id="a_node50"><a xlink:href="https://en.wikipedia.org/wiki/Competition" xlink:title="Competition">
<ellipse fill="lightskyblue" stroke="lightskyblue" cx="513.64" cy="-332" rx="55.79" ry="18"/>
<text text-anchor="middle" x="513.64" y="-328.3" font-family="Times New Roman,serif" font-size="14.00">Competition</text>
</a>
</g>
</g>
<!-- Sport&#45;&gt;Competition -->
<g id="edge48" class="edge">
<title>Sport&#45;&gt;Competition</title>
<path fill="none" stroke="black" d="M513.64,-385.7C513.64,-377.98 513.64,-368.71 513.64,-360.11"/>
<polygon fill="black" stroke="black" points="517.14,-360.1 513.64,-350.1 510.14,-360.1 517.14,-360.1"/>
</g>
<!-- Goal -->
<g id="node51" class="node">
<title>Goal</title>
<g id="a_node51"><a xlink:href="https://en.wikipedia.org/wiki/Goal" xlink:title="Goal">
<ellipse fill="lightskyblue" stroke="lightskyblue" cx="512.64" cy="-260" rx="28.7" ry="18"/>
<text text-anchor="middle" x="512.64" y="-256.3" font-family="Times New Roman,serif" font-size="14.00">Goal</text>
</a>
</g>
</g>
<!-- Competition&#45;&gt;Goal -->
<g id="edge49" class="edge">
<title>Competition&#45;&gt;Goal</title>
<path fill="none" stroke="black" d="M513.39,-313.7C513.28,-305.98 513.15,-296.71 513.03,-288.11"/>
<polygon fill="black" stroke="black" points="516.53,-288.05 512.88,-278.1 509.53,-288.15 516.53,-288.05"/>
</g>
<!-- Idea -->
<g id="node52" class="node">
<title>Idea</title>
<g id="a_node52"><a xlink:href="https://en.wikipedia.org/wiki/Idea" xlink:title="Idea">
<ellipse fill="lightskyblue" stroke="lightskyblue" cx="512.64" cy="-188" rx="27" ry="18"/>
<text text-anchor="middle" x="512.64" y="-184.3" font-family="Times New Roman,serif" font-size="14.00">Idea</text>
</a>
</g>
</g>
<!-- Goal&#45;&gt;Idea -->
<g id="edge50" class="edge">
<title>Goal&#45;&gt;Idea</title>
<path fill="none" stroke="black" d="M512.64,-241.7C512.64,-233.98 512.64,-224.71 512.64,-216.11"/>
<polygon fill="black" stroke="black" points="516.14,-216.1 512.64,-206.1 509.14,-216.1 516.14,-216.1"/>
</g>
<!-- Idea&#45;&gt;Philosophy -->
<g id="edge51" class="edge">
<title>Idea&#45;&gt;Philosophy</title>
<path fill="none" stroke="black" d="M498.14,-172.5C488.92,-163.28 476.78,-151.14 466.2,-140.56"/>
<polygon fill="black" stroke="black" points="468.38,-137.79 458.84,-133.2 463.43,-142.74 468.38,-137.79"/>
</g>
<!-- Silane quats -->
<g id="node53" class="node">
<title>Silane quats</title>
<g id="a_node53"><a xlink:href="https://en.wikipedia.org/wiki/Silane_quats" xlink:title="Silane quats">
<ellipse fill="#b0e2ff" stroke="#b0e2ff" cx="117.64" cy="-1412" rx="53.89" ry="18"/>
<text text-anchor="middle" x="117.64" y="-1408.3" font-family="Times New Roman,serif" font-size="14.00">Silane quats</text>
</a>
</g>
</g>
<!-- Quaternary ammonium cation -->
<g id="node54" class="node">
<title>Quaternary ammonium cation</title>
<g id="a_node54"><a xlink:href="https://en.wikipedia.org/wiki/Quaternary_ammonium_cation" xlink:title="Quaternary ammonium cation">
<ellipse fill="lightskyblue" stroke="lightskyblue" cx="117.64" cy="-1340" rx="117.78" ry="18"/>
<text text-anchor="middle" x="117.64" y="-1336.3" font-family="Times New Roman,serif" font-size="14.00">Quaternary ammonium cation</text>
</a>
</g>
</g>
<!-- Silane quats&#45;&gt;Quaternary ammonium cation -->
<g id="edge52" class="edge">
<title>Silane quats&#45;&gt;Quaternary ammonium cation</title>
<path fill="none" stroke="black" d="M117.64,-1393.7C117.64,-1385.98 117.64,-1376.71 117.64,-1368.11"/>
<polygon fill="black" stroke="black" points="121.14,-1368.1 117.64,-1358.1 114.14,-1368.1 121.14,-1368.1"/>
</g>
<!-- Polyatomic ion -->
<g id="node55" class="node">
<title>Polyatomic ion</title>
<g id="a_node55"><a xlink:href="https://en.wikipedia.org/wiki/Polyatomic_ion" xlink:title="Polyatomic ion">
<ellipse fill="lightskyblue" stroke="lightskyblue" cx="117.64" cy="-1268" rx="65.79" ry="18"/>
<text text-anchor="middle" x="117.64" y="-1264.3" font-family="Times New Roman,serif" font-size="14.00">Polyatomic ion</text>
</a>
</g>
</g>
<!-- Quaternary ammonium cation&#45;&gt;Polyatomic ion -->
<g id="edge53" class="edge">
<title>Quaternary ammonium cation&#45;&gt;Polyatomic ion</title>
<path fill="none" stroke="black" d="M117.64,-1321.7C117.64,-1313.98 117.64,-1304.71 117.64,-1296.11"/>
<polygon fill="black" stroke="black" points="121.14,-1296.1 117.64,-1286.1 114.14,-1296.1 121.14,-1296.1"/>
</g>
<!-- Covalent bond -->
<g id="node56" class="node">
<title>Covalent bond</title>
<g id="a_node56"><a xlink:href="https://en.wikipedia.org/wiki/Covalent_bond" xlink:title="Covalent bond">
<ellipse fill="lightskyblue" stroke="lightskyblue" cx="117.64" cy="-1196" rx="64.19" ry="18"/>
<text text-anchor="middle" x="117.64" y="-1192.3" font-family="Times New Roman,serif" font-size="14.00">Covalent bond</text>
</a>
</g>
</g>
<!-- Polyatomic ion&#45;&gt;Covalent bond -->
<g id="edge54" class="edge">
<title>Polyatomic ion&#45;&gt;Covalent bond</title>
<path fill="none" stroke="black" d="M117.64,-1249.7C117.64,-1241.98 117.64,-1232.71 117.64,-1224.11"/>
<polygon fill="black" stroke="black" points="121.14,-1224.1 117.64,-1214.1 114.14,-1224.1 121.14,-1224.1"/>
</g>
<!-- Chemical bond -->
<g id="node57" class="node">
<title>Chemical bond</title>
<g id="a_node57"><a xlink:href="https://en.wikipedia.org/wiki/Chemical_bond" xlink:title="Chemical bond">
<ellipse fill="lightskyblue" stroke="lightskyblue" cx="117.64" cy="-1124" rx="65.79" ry="18"/>
<text text-anchor="middle" x="117.64" y="-1120.3" font-family="Times New Roman,serif" font-size="14.00">Chemical bond</text>
</a>
</g>
</g>
<!-- Covalent bond&#45;&gt;Chemical bond -->
<g id="edge55" class="edge">
<title>Covalent bond&#45;&gt;Chemical bond</title>
<path fill="none" stroke="black" d="M117.64,-1177.7C117.64,-1169.98 117.64,-1160.71 117.64,-1152.11"/>
<polygon fill="black" stroke="black" points="121.14,-1152.1 117.64,-1142.1 114.14,-1152.1 121.14,-1152.1"/>
</g>
<!-- Atom -->
<g id="node58" class="node">
<title>Atom</title>
<g id="a_node58"><a xlink:href="https://en.wikipedia.org/wiki/Atom" xlink:title="Atom">
<ellipse fill="lightskyblue" stroke="lightskyblue" cx="122.64" cy="-1052" rx="31.4" ry="18"/>
<text text-anchor="middle" x="122.64" y="-1048.3" font-family="Times New Roman,serif" font-size="14.00">Atom</text>
</a>
</g>
</g>
<!-- Chemical bond&#45;&gt;Atom -->
<g id="edge56" class="edge">
<title>Chemical bond&#45;&gt;Atom</title>
<path fill="none" stroke="black" d="M118.88,-1105.7C119.43,-1097.98 120.09,-1088.71 120.7,-1080.11"/>
<polygon fill="black" stroke="black" points="124.2,-1080.33 121.42,-1070.1 117.21,-1079.83 124.2,-1080.33"/>
</g>
<!-- Matter -->
<g id="node59" class="node">
<title>Matter</title>
<g id="a_node59"><a xlink:href="https://en.wikipedia.org/wiki/Matter" xlink:title="Matter">
<ellipse fill="lightskyblue" stroke="lightskyblue" cx="126.64" cy="-980" rx="34.39" ry="18"/>
<text text-anchor="middle" x="126.64" y="-976.3" font-family="Times New Roman,serif" font-size="14.00">Matter</text>
</a>
</g>
</g>
<!-- Atom&#45;&gt;Matter -->
<g id="edge57" class="edge">
<title>Atom&#45;&gt;Matter</title>
<path fill="none" stroke="black" d="M123.63,-1033.7C124.07,-1025.98 124.6,-1016.71 125.09,-1008.11"/>
<polygon fill="black" stroke="black" points="128.59,-1008.29 125.66,-998.1 121.6,-1007.89 128.59,-1008.29"/>
</g>
<!-- Classical physics -->
<g id="node60" class="node">
<title>Classical physics</title>
<g id="a_node60"><a xlink:href="https://en.wikipedia.org/wiki/Classical_physics" xlink:title="Classical physics">
<ellipse fill="lightskyblue" stroke="lightskyblue" cx="128.64" cy="-908" rx="73.39" ry="18"/>
<text text-anchor="middle" x="128.64" y="-904.3" font-family="Times New Roman,serif" font-size="14.00">Classical physics</text>
</a>
</g>
</g>
<!-- Matter&#45;&gt;Classical physics -->
<g id="edge58" class="edge">
<title>Matter&#45;&gt;Classical physics</title>
<path fill="none" stroke="black" d="M127.13,-961.7C127.35,-953.98 127.62,-944.71 127.86,-936.11"/>
<polygon fill="black" stroke="black" points="131.36,-936.2 128.15,-926.1 124.37,-936 131.36,-936.2"/>
</g>
<!-- Physics -->
<g id="node61" class="node">
<title>Physics</title>
<g id="a_node61"><a xlink:href="https://en.wikipedia.org/wiki/Physics" xlink:title="Physics">
<ellipse fill="lightskyblue" stroke="lightskyblue" cx="162.64" cy="-836" rx="38.99" ry="18"/>
<text text-anchor="middle" x="162.64" y="-832.3" font-family="Times New Roman,serif" font-size="14.00">Physics</text>
</a>
</g>
</g>
<!-- Classical physics&#45;&gt;Physics -->
<g id="edge59" class="edge">
<title>Classical physics&#45;&gt;Physics</title>
<path fill="none" stroke="black" d="M136.87,-890.05C140.84,-881.89 145.68,-871.91 150.1,-862.82"/>
<polygon fill="black" stroke="black" points="153.26,-864.31 154.48,-853.79 146.97,-861.25 153.26,-864.31"/>
</g>
<!-- Natural science -->
<g id="node62" class="node">
<title>Natural science</title>
<g id="a_node62"><a xlink:href="https://en.wikipedia.org/wiki/Natural_science" xlink:title="Natural science">
<ellipse fill="lightskyblue" stroke="lightskyblue" cx="207.64" cy="-764" rx="65.79" ry="18"/>
<text text-anchor="middle" x="207.64" y="-760.3" font-family="Times New Roman,serif" font-size="14.00">Natural science</text>
</a>
</g>
</g>
<!-- Physics&#45;&gt;Natural science -->
<g id="edge60" class="edge">
<title>Physics&#45;&gt;Natural science</title>
<path fill="none" stroke="black" d="M173.3,-818.41C178.66,-810.08 185.27,-799.8 191.25,-790.49"/>
<polygon fill="black" stroke="black" points="194.28,-792.26 196.74,-781.96 188.39,-788.48 194.28,-792.26"/>
</g>
<!-- Natural science&#45;&gt;Branches of science -->
<g id="edge61" class="edge">
<title>Natural science&#45;&gt;Branches of science</title>
<path fill="none" stroke="black" d="M224.94,-746.41C234.15,-737.58 245.63,-726.57 255.77,-716.84"/>
<polygon fill="black" stroke="black" points="258.42,-719.16 263.21,-709.71 253.57,-714.11 258.42,-719.16"/>
</g>
</g>
</svg>
