<?xml version="1.0" encoding="UTF-8" standalone="no"?>
<!DOCTYPE svg PUBLIC "-//W3C//DTD SVG 1.1//EN"
 "http://www.w3.org/Graphics/SVG/1.1/DTD/svg11.dtd">
<!-- Generated by graphviz version 2.46.0 (20210118.1747)
 -->
<!-- Title: unix Pages: 1 -->
<svg width="899pt" height="1870pt"
 viewBox="0.00 0.00 899.48 1870.00" xmlns="http://www.w3.org/2000/svg" xmlns:xlink="http://www.w3.org/1999/xlink">
<g id="graph0" class="graph" transform="scale(1 1) rotate(0) translate(4 1866)">
<title>unix</title>
<polygon fill="white" stroke="transparent" points="-4,4 -4,-1866 895.48,-1866 895.48,4 -4,4"/>
<text text-anchor="start" x="269.74" y="-54" font-family="Times New Roman,serif" font-size="20.00">Graph generated on 09/05/2021 14:58:09.</text>
<text text-anchor="start" x="269.74" y="-32" font-family="Times New Roman,serif" font-size="20.00">Checked 5 pages. Time took: 1.04 minutes.</text>
<text text-anchor="middle" x="445.74" y="-10" font-family="Times New Roman,serif" font-size="20.00">Number of pages drawn: 66</text>
<!-- E.J. White -->
<g id="node1" class="node">
<title>E.J. White</title>
<g id="a_node1"><a xlink:href="https://en.wikipedia.org/wiki/E.J._White" xlink:title="E.J. White">
<ellipse fill="#b0e2ff" stroke="#b0e2ff" cx="96.84" cy="-1268" rx="48.19" ry="18"/>
<text text-anchor="middle" x="96.84" y="-1264.3" font-family="Times New Roman,serif" font-size="14.00">E.J. White</text>
</a>
</g>
</g>
<!-- Stony Brook University -->
<g id="node2" class="node">
<title>Stony Brook University</title>
<g id="a_node2"><a xlink:href="https://en.wikipedia.org/wiki/Stony_Brook_University" xlink:title="Stony Brook University">
<ellipse fill="lightskyblue" stroke="lightskyblue" cx="96.84" cy="-1196" rx="96.68" ry="18"/>
<text text-anchor="middle" x="96.84" y="-1192.3" font-family="Times New Roman,serif" font-size="14.00">Stony Brook University</text>
</a>
</g>
</g>
<!-- E.J. White&#45;&gt;Stony Brook University -->
<g id="edge1" class="edge">
<title>E.J. White&#45;&gt;Stony Brook University</title>
<path fill="none" stroke="black" d="M96.84,-1249.7C96.84,-1241.98 96.84,-1232.71 96.84,-1224.11"/>
<polygon fill="black" stroke="black" points="100.34,-1224.1 96.84,-1214.1 93.34,-1224.1 100.34,-1224.1"/>
</g>
<!-- Public university -->
<g id="node3" class="node">
<title>Public university</title>
<g id="a_node3"><a xlink:href="https://en.wikipedia.org/wiki/Public_university" xlink:title="Public university">
<ellipse fill="lightskyblue" stroke="lightskyblue" cx="96.84" cy="-1124" rx="70.69" ry="18"/>
<text text-anchor="middle" x="96.84" y="-1120.3" font-family="Times New Roman,serif" font-size="14.00">Public university</text>
</a>
</g>
</g>
<!-- Stony Brook University&#45;&gt;Public university -->
<g id="edge2" class="edge">
<title>Stony Brook University&#45;&gt;Public university</title>
<path fill="none" stroke="black" d="M96.84,-1177.7C96.84,-1169.98 96.84,-1160.71 96.84,-1152.11"/>
<polygon fill="black" stroke="black" points="100.34,-1152.1 96.84,-1142.1 93.34,-1152.1 100.34,-1152.1"/>
</g>
<!-- University -->
<g id="node4" class="node">
<title>University</title>
<g id="a_node4"><a xlink:href="https://en.wikipedia.org/wiki/University" xlink:title="University">
<ellipse fill="lightskyblue" stroke="lightskyblue" cx="106.84" cy="-1052" rx="47.39" ry="18"/>
<text text-anchor="middle" x="106.84" y="-1048.3" font-family="Times New Roman,serif" font-size="14.00">University</text>
</a>
</g>
</g>
<!-- Public university&#45;&gt;University -->
<g id="edge3" class="edge">
<title>Public university&#45;&gt;University</title>
<path fill="none" stroke="black" d="M99.31,-1105.7C100.42,-1097.98 101.74,-1088.71 102.97,-1080.11"/>
<polygon fill="black" stroke="black" points="106.45,-1080.5 104.4,-1070.1 99.52,-1079.51 106.45,-1080.5"/>
</g>
<!-- Educational institution -->
<g id="node5" class="node">
<title>Educational institution</title>
<g id="a_node5"><a xlink:href="https://en.wikipedia.org/wiki/Educational_institution" xlink:title="Educational institution">
<ellipse fill="lightskyblue" stroke="lightskyblue" cx="113.84" cy="-980" rx="90.98" ry="18"/>
<text text-anchor="middle" x="113.84" y="-976.3" font-family="Times New Roman,serif" font-size="14.00">Educational institution</text>
</a>
</g>
</g>
<!-- University&#45;&gt;Educational institution -->
<g id="edge4" class="edge">
<title>University&#45;&gt;Educational institution</title>
<path fill="none" stroke="black" d="M108.57,-1033.7C109.34,-1025.98 110.27,-1016.71 111.13,-1008.11"/>
<polygon fill="black" stroke="black" points="114.62,-1008.4 112.13,-998.1 107.65,-1007.71 114.62,-1008.4"/>
</g>
<!-- Education -->
<g id="node6" class="node">
<title>Education</title>
<g id="a_node6"><a xlink:href="https://en.wikipedia.org/wiki/Education" xlink:title="Education">
<ellipse fill="lightskyblue" stroke="lightskyblue" cx="114.84" cy="-908" rx="47.39" ry="18"/>
<text text-anchor="middle" x="114.84" y="-904.3" font-family="Times New Roman,serif" font-size="14.00">Education</text>
</a>
</g>
</g>
<!-- Educational institution&#45;&gt;Education -->
<g id="edge5" class="edge">
<title>Educational institution&#45;&gt;Education</title>
<path fill="none" stroke="black" d="M114.09,-961.7C114.2,-953.98 114.33,-944.71 114.45,-936.11"/>
<polygon fill="black" stroke="black" points="117.95,-936.15 114.6,-926.1 110.95,-936.05 117.95,-936.15"/>
</g>
<!-- Learning -->
<g id="node7" class="node">
<title>Learning</title>
<g id="a_node7"><a xlink:href="https://en.wikipedia.org/wiki/Learning" xlink:title="Learning">
<ellipse fill="lightskyblue" stroke="lightskyblue" cx="117.84" cy="-836" rx="42.49" ry="18"/>
<text text-anchor="middle" x="117.84" y="-832.3" font-family="Times New Roman,serif" font-size="14.00">Learning</text>
</a>
</g>
</g>
<!-- Education&#45;&gt;Learning -->
<g id="edge6" class="edge">
<title>Education&#45;&gt;Learning</title>
<path fill="none" stroke="black" d="M115.58,-889.7C115.91,-881.98 116.31,-872.71 116.68,-864.11"/>
<polygon fill="black" stroke="black" points="120.18,-864.25 117.11,-854.1 113.18,-863.95 120.18,-864.25"/>
</g>
<!-- Understanding -->
<g id="node8" class="node">
<title>Understanding</title>
<g id="a_node8"><a xlink:href="https://en.wikipedia.org/wiki/Understanding" xlink:title="Understanding">
<ellipse fill="lightskyblue" stroke="lightskyblue" cx="122.84" cy="-764" rx="63.89" ry="18"/>
<text text-anchor="middle" x="122.84" y="-760.3" font-family="Times New Roman,serif" font-size="14.00">Understanding</text>
</a>
</g>
</g>
<!-- Learning&#45;&gt;Understanding -->
<g id="edge7" class="edge">
<title>Learning&#45;&gt;Understanding</title>
<path fill="none" stroke="black" d="M119.08,-817.7C119.63,-809.98 120.29,-800.71 120.9,-792.11"/>
<polygon fill="black" stroke="black" points="124.4,-792.33 121.62,-782.1 117.42,-791.83 124.4,-792.33"/>
</g>
<!-- Psychological -->
<g id="node9" class="node">
<title>Psychological</title>
<g id="a_node9"><a xlink:href="https://en.wikipedia.org/wiki/Psychological" xlink:title="Psychological">
<ellipse fill="lightskyblue" stroke="lightskyblue" cx="126.84" cy="-692" rx="61.99" ry="18"/>
<text text-anchor="middle" x="126.84" y="-688.3" font-family="Times New Roman,serif" font-size="14.00">Psychological</text>
</a>
</g>
</g>
<!-- Understanding&#45;&gt;Psychological -->
<g id="edge8" class="edge">
<title>Understanding&#45;&gt;Psychological</title>
<path fill="none" stroke="black" d="M123.83,-745.7C124.27,-737.98 124.8,-728.71 125.29,-720.11"/>
<polygon fill="black" stroke="black" points="128.79,-720.29 125.86,-710.1 121.8,-719.89 128.79,-720.29"/>
</g>
<!-- Science -->
<g id="node10" class="node">
<title>Science</title>
<g id="a_node10"><a xlink:href="https://en.wikipedia.org/wiki/Science" xlink:title="Science">
<ellipse fill="lightskyblue" stroke="lightskyblue" cx="291.84" cy="-620" rx="38.99" ry="18"/>
<text text-anchor="middle" x="291.84" y="-616.3" font-family="Times New Roman,serif" font-size="14.00">Science</text>
</a>
</g>
</g>
<!-- Psychological&#45;&gt;Science -->
<g id="edge9" class="edge">
<title>Psychological&#45;&gt;Science</title>
<path fill="none" stroke="black" d="M160.23,-676.83C187.52,-665.26 226.09,-648.89 254.42,-636.88"/>
<polygon fill="black" stroke="black" points="256.14,-639.95 263.98,-632.82 253.41,-633.5 256.14,-639.95"/>
</g>
<!-- Scientific method -->
<g id="node11" class="node">
<title>Scientific method</title>
<g id="a_node11"><a xlink:href="https://en.wikipedia.org/wiki/Scientific_method" xlink:title="Scientific method">
<ellipse fill="lightskyblue" stroke="lightskyblue" cx="291.84" cy="-548" rx="74.19" ry="18"/>
<text text-anchor="middle" x="291.84" y="-544.3" font-family="Times New Roman,serif" font-size="14.00">Scientific method</text>
</a>
</g>
</g>
<!-- Science&#45;&gt;Scientific method -->
<g id="edge10" class="edge">
<title>Science&#45;&gt;Scientific method</title>
<path fill="none" stroke="black" d="M291.84,-601.7C291.84,-593.98 291.84,-584.71 291.84,-576.11"/>
<polygon fill="black" stroke="black" points="295.34,-576.1 291.84,-566.1 288.34,-576.1 295.34,-576.1"/>
</g>
<!-- Empirical evidence -->
<g id="node12" class="node">
<title>Empirical evidence</title>
<g id="a_node12"><a xlink:href="https://en.wikipedia.org/wiki/Empirical_evidence" xlink:title="Empirical evidence">
<ellipse fill="lightskyblue" stroke="lightskyblue" cx="291.84" cy="-476" rx="79.09" ry="18"/>
<text text-anchor="middle" x="291.84" y="-472.3" font-family="Times New Roman,serif" font-size="14.00">Empirical evidence</text>
</a>
</g>
</g>
<!-- Scientific method&#45;&gt;Empirical evidence -->
<g id="edge11" class="edge">
<title>Scientific method&#45;&gt;Empirical evidence</title>
<path fill="none" stroke="black" d="M291.84,-529.7C291.84,-521.98 291.84,-512.71 291.84,-504.11"/>
<polygon fill="black" stroke="black" points="295.34,-504.1 291.84,-494.1 288.34,-504.1 295.34,-504.1"/>
</g>
<!-- Information -->
<g id="node13" class="node">
<title>Information</title>
<g id="a_node13"><a xlink:href="https://en.wikipedia.org/wiki/Information" xlink:title="Information">
<ellipse fill="lightskyblue" stroke="lightskyblue" cx="291.84" cy="-404" rx="53.09" ry="18"/>
<text text-anchor="middle" x="291.84" y="-400.3" font-family="Times New Roman,serif" font-size="14.00">Information</text>
</a>
</g>
</g>
<!-- Empirical evidence&#45;&gt;Information -->
<g id="edge12" class="edge">
<title>Empirical evidence&#45;&gt;Information</title>
<path fill="none" stroke="black" d="M291.84,-457.7C291.84,-449.98 291.84,-440.71 291.84,-432.11"/>
<polygon fill="black" stroke="black" points="295.34,-432.1 291.84,-422.1 288.34,-432.1 295.34,-432.1"/>
</g>
<!-- Uncertainty -->
<g id="node14" class="node">
<title>Uncertainty</title>
<g id="a_node14"><a xlink:href="https://en.wikipedia.org/wiki/Uncertainty" xlink:title="Uncertainty">
<ellipse fill="lightskyblue" stroke="lightskyblue" cx="291.84" cy="-332" rx="51.99" ry="18"/>
<text text-anchor="middle" x="291.84" y="-328.3" font-family="Times New Roman,serif" font-size="14.00">Uncertainty</text>
</a>
</g>
</g>
<!-- Information&#45;&gt;Uncertainty -->
<g id="edge13" class="edge">
<title>Information&#45;&gt;Uncertainty</title>
<path fill="none" stroke="black" d="M291.84,-385.7C291.84,-377.98 291.84,-368.71 291.84,-360.11"/>
<polygon fill="black" stroke="black" points="295.34,-360.1 291.84,-350.1 288.34,-360.1 295.34,-360.1"/>
</g>
<!-- Epistemology -->
<g id="node15" class="node">
<title>Epistemology</title>
<g id="a_node15"><a xlink:href="https://en.wikipedia.org/wiki/Epistemology" xlink:title="Epistemology">
<ellipse fill="lightskyblue" stroke="lightskyblue" cx="291.84" cy="-260" rx="60.39" ry="18"/>
<text text-anchor="middle" x="291.84" y="-256.3" font-family="Times New Roman,serif" font-size="14.00">Epistemology</text>
</a>
</g>
</g>
<!-- Uncertainty&#45;&gt;Epistemology -->
<g id="edge14" class="edge">
<title>Uncertainty&#45;&gt;Epistemology</title>
<path fill="none" stroke="black" d="M291.84,-313.7C291.84,-305.98 291.84,-296.71 291.84,-288.11"/>
<polygon fill="black" stroke="black" points="295.34,-288.1 291.84,-278.1 288.34,-288.1 295.34,-288.1"/>
</g>
<!-- Outline of philosophy -->
<g id="node16" class="node">
<title>Outline of philosophy</title>
<g id="a_node16"><a xlink:href="https://en.wikipedia.org/wiki/Outline_of_philosophy" xlink:title="Outline of philosophy">
<ellipse fill="lightskyblue" stroke="lightskyblue" cx="291.84" cy="-188" rx="89.88" ry="18"/>
<text text-anchor="middle" x="291.84" y="-184.3" font-family="Times New Roman,serif" font-size="14.00">Outline of philosophy</text>
</a>
</g>
</g>
<!-- Epistemology&#45;&gt;Outline of philosophy -->
<g id="edge15" class="edge">
<title>Epistemology&#45;&gt;Outline of philosophy</title>
<path fill="none" stroke="black" d="M291.84,-241.7C291.84,-233.98 291.84,-224.71 291.84,-216.11"/>
<polygon fill="black" stroke="black" points="295.34,-216.1 291.84,-206.1 288.34,-216.1 295.34,-216.1"/>
</g>
<!-- Philosophy -->
<g id="node17" class="node">
<title>Philosophy</title>
<g id="a_node17"><a xlink:href="https://en.wikipedia.org/wiki/Philosophy" xlink:title="Philosophy">
<ellipse fill="lightskyblue" stroke="lightskyblue" cx="291.84" cy="-116" rx="51.99" ry="18"/>
<text text-anchor="middle" x="291.84" y="-112.3" font-family="Times New Roman,serif" font-size="14.00">Philosophy</text>
</a>
</g>
</g>
<!-- Outline of philosophy&#45;&gt;Philosophy -->
<g id="edge16" class="edge">
<title>Outline of philosophy&#45;&gt;Philosophy</title>
<path fill="none" stroke="black" d="M291.84,-169.7C291.84,-161.98 291.84,-152.71 291.84,-144.11"/>
<polygon fill="black" stroke="black" points="295.34,-144.1 291.84,-134.1 288.34,-144.1 295.34,-144.1"/>
</g>
<!-- Hills Creek (West Virginia) -->
<g id="node18" class="node">
<title>Hills Creek (West Virginia)</title>
<g id="a_node18"><a xlink:href="https://en.wikipedia.org/wiki/Hills_Creek_(West_Virginia)" xlink:title="Hills Creek (West Virginia)">
<ellipse fill="#b0e2ff" stroke="#b0e2ff" cx="293.84" cy="-1124" rx="108.58" ry="18"/>
<text text-anchor="middle" x="293.84" y="-1120.3" font-family="Times New Roman,serif" font-size="14.00">Hills Creek (West Virginia)</text>
</a>
</g>
</g>
<!-- Stream -->
<g id="node19" class="node">
<title>Stream</title>
<g id="a_node19"><a xlink:href="https://en.wikipedia.org/wiki/Stream" xlink:title="Stream">
<ellipse fill="lightskyblue" stroke="lightskyblue" cx="292.84" cy="-1052" rx="36.29" ry="18"/>
<text text-anchor="middle" x="292.84" y="-1048.3" font-family="Times New Roman,serif" font-size="14.00">Stream</text>
</a>
</g>
</g>
<!-- Hills Creek (West Virginia)&#45;&gt;Stream -->
<g id="edge17" class="edge">
<title>Hills Creek (West Virginia)&#45;&gt;Stream</title>
<path fill="none" stroke="black" d="M293.59,-1105.7C293.48,-1097.98 293.35,-1088.71 293.23,-1080.11"/>
<polygon fill="black" stroke="black" points="296.73,-1080.05 293.09,-1070.1 289.73,-1080.15 296.73,-1080.05"/>
</g>
<!-- Body of water -->
<g id="node20" class="node">
<title>Body of water</title>
<g id="a_node20"><a xlink:href="https://en.wikipedia.org/wiki/Body_of_water" xlink:title="Body of water">
<ellipse fill="lightskyblue" stroke="lightskyblue" cx="291.84" cy="-980" rx="63.09" ry="18"/>
<text text-anchor="middle" x="291.84" y="-976.3" font-family="Times New Roman,serif" font-size="14.00">Body of water</text>
</a>
</g>
</g>
<!-- Stream&#45;&gt;Body of water -->
<g id="edge18" class="edge">
<title>Stream&#45;&gt;Body of water</title>
<path fill="none" stroke="black" d="M292.59,-1033.7C292.48,-1025.98 292.35,-1016.71 292.23,-1008.11"/>
<polygon fill="black" stroke="black" points="295.73,-1008.05 292.09,-998.1 288.73,-1008.15 295.73,-1008.05"/>
</g>
<!-- Water -->
<g id="node21" class="node">
<title>Water</title>
<g id="a_node21"><a xlink:href="https://en.wikipedia.org/wiki/Water" xlink:title="Water">
<ellipse fill="lightskyblue" stroke="lightskyblue" cx="291.84" cy="-908" rx="32.49" ry="18"/>
<text text-anchor="middle" x="291.84" y="-904.3" font-family="Times New Roman,serif" font-size="14.00">Water</text>
</a>
</g>
</g>
<!-- Body of water&#45;&gt;Water -->
<g id="edge19" class="edge">
<title>Body of water&#45;&gt;Water</title>
<path fill="none" stroke="black" d="M291.84,-961.7C291.84,-953.98 291.84,-944.71 291.84,-936.11"/>
<polygon fill="black" stroke="black" points="295.34,-936.1 291.84,-926.1 288.34,-936.1 295.34,-936.1"/>
</g>
<!-- Inorganic compound -->
<g id="node22" class="node">
<title>Inorganic compound</title>
<g id="a_node22"><a xlink:href="https://en.wikipedia.org/wiki/Inorganic_compound" xlink:title="Inorganic compound">
<ellipse fill="lightskyblue" stroke="lightskyblue" cx="291.84" cy="-836" rx="87.18" ry="18"/>
<text text-anchor="middle" x="291.84" y="-832.3" font-family="Times New Roman,serif" font-size="14.00">Inorganic compound</text>
</a>
</g>
</g>
<!-- Water&#45;&gt;Inorganic compound -->
<g id="edge20" class="edge">
<title>Water&#45;&gt;Inorganic compound</title>
<path fill="none" stroke="black" d="M291.84,-889.7C291.84,-881.98 291.84,-872.71 291.84,-864.11"/>
<polygon fill="black" stroke="black" points="295.34,-864.1 291.84,-854.1 288.34,-864.1 295.34,-864.1"/>
</g>
<!-- Chemistry -->
<g id="node23" class="node">
<title>Chemistry</title>
<g id="a_node23"><a xlink:href="https://en.wikipedia.org/wiki/Chemistry" xlink:title="Chemistry">
<ellipse fill="lightskyblue" stroke="lightskyblue" cx="291.84" cy="-764" rx="48.19" ry="18"/>
<text text-anchor="middle" x="291.84" y="-760.3" font-family="Times New Roman,serif" font-size="14.00">Chemistry</text>
</a>
</g>
</g>
<!-- Inorganic compound&#45;&gt;Chemistry -->
<g id="edge21" class="edge">
<title>Inorganic compound&#45;&gt;Chemistry</title>
<path fill="none" stroke="black" d="M291.84,-817.7C291.84,-809.98 291.84,-800.71 291.84,-792.11"/>
<polygon fill="black" stroke="black" points="295.34,-792.1 291.84,-782.1 288.34,-792.1 295.34,-792.1"/>
</g>
<!-- Scientific discipline -->
<g id="node24" class="node">
<title>Scientific discipline</title>
<g id="a_node24"><a xlink:href="https://en.wikipedia.org/wiki/Scientific_discipline" xlink:title="Scientific discipline">
<ellipse fill="lightskyblue" stroke="lightskyblue" cx="291.84" cy="-692" rx="81.49" ry="18"/>
<text text-anchor="middle" x="291.84" y="-688.3" font-family="Times New Roman,serif" font-size="14.00">Scientific discipline</text>
</a>
</g>
</g>
<!-- Chemistry&#45;&gt;Scientific discipline -->
<g id="edge22" class="edge">
<title>Chemistry&#45;&gt;Scientific discipline</title>
<path fill="none" stroke="black" d="M291.84,-745.7C291.84,-737.98 291.84,-728.71 291.84,-720.11"/>
<polygon fill="black" stroke="black" points="295.34,-720.1 291.84,-710.1 288.34,-720.1 295.34,-720.1"/>
</g>
<!-- Scientific discipline&#45;&gt;Science -->
<g id="edge23" class="edge">
<title>Scientific discipline&#45;&gt;Science</title>
<path fill="none" stroke="black" d="M291.84,-673.7C291.84,-665.98 291.84,-656.71 291.84,-648.11"/>
<polygon fill="black" stroke="black" points="295.34,-648.1 291.84,-638.1 288.34,-648.1 295.34,-648.1"/>
</g>
<!-- Kuweires Military Aviation Institute -->
<g id="node25" class="node">
<title>Kuweires Military Aviation Institute</title>
<g id="a_node25"><a xlink:href="https://en.wikipedia.org/wiki/Kuweires_Military_Aviation_Institute" xlink:title="Kuweires Military Aviation Institute">
<ellipse fill="#b0e2ff" stroke="#b0e2ff" cx="455.84" cy="-1844" rx="137.58" ry="18"/>
<text text-anchor="middle" x="455.84" y="-1840.3" font-family="Times New Roman,serif" font-size="14.00">Kuweires Military Aviation Institute</text>
</a>
</g>
</g>
<!-- Airbase -->
<g id="node26" class="node">
<title>Airbase</title>
<g id="a_node26"><a xlink:href="https://en.wikipedia.org/wiki/Airbase" xlink:title="Airbase">
<ellipse fill="lightskyblue" stroke="lightskyblue" cx="455.84" cy="-1772" rx="38.19" ry="18"/>
<text text-anchor="middle" x="455.84" y="-1768.3" font-family="Times New Roman,serif" font-size="14.00">Airbase</text>
</a>
</g>
</g>
<!-- Kuweires Military Aviation Institute&#45;&gt;Airbase -->
<g id="edge24" class="edge">
<title>Kuweires Military Aviation Institute&#45;&gt;Airbase</title>
<path fill="none" stroke="black" d="M455.84,-1825.7C455.84,-1817.98 455.84,-1808.71 455.84,-1800.11"/>
<polygon fill="black" stroke="black" points="459.34,-1800.1 455.84,-1790.1 452.34,-1800.1 459.34,-1800.1"/>
</g>
<!-- Aerodrome -->
<g id="node27" class="node">
<title>Aerodrome</title>
<g id="a_node27"><a xlink:href="https://en.wikipedia.org/wiki/Aerodrome" xlink:title="Aerodrome">
<ellipse fill="lightskyblue" stroke="lightskyblue" cx="455.84" cy="-1700" rx="51.99" ry="18"/>
<text text-anchor="middle" x="455.84" y="-1696.3" font-family="Times New Roman,serif" font-size="14.00">Aerodrome</text>
</a>
</g>
</g>
<!-- Airbase&#45;&gt;Aerodrome -->
<g id="edge25" class="edge">
<title>Airbase&#45;&gt;Aerodrome</title>
<path fill="none" stroke="black" d="M455.84,-1753.7C455.84,-1745.98 455.84,-1736.71 455.84,-1728.11"/>
<polygon fill="black" stroke="black" points="459.34,-1728.1 455.84,-1718.1 452.34,-1728.1 459.34,-1728.1"/>
</g>
<!-- Air cargo -->
<g id="node28" class="node">
<title>Air cargo</title>
<g id="a_node28"><a xlink:href="https://en.wikipedia.org/wiki/Air_cargo" xlink:title="Air cargo">
<ellipse fill="lightskyblue" stroke="lightskyblue" cx="455.84" cy="-1628" rx="44.69" ry="18"/>
<text text-anchor="middle" x="455.84" y="-1624.3" font-family="Times New Roman,serif" font-size="14.00">Air cargo</text>
</a>
</g>
</g>
<!-- Aerodrome&#45;&gt;Air cargo -->
<g id="edge26" class="edge">
<title>Aerodrome&#45;&gt;Air cargo</title>
<path fill="none" stroke="black" d="M455.84,-1681.7C455.84,-1673.98 455.84,-1664.71 455.84,-1656.11"/>
<polygon fill="black" stroke="black" points="459.34,-1656.1 455.84,-1646.1 452.34,-1656.1 459.34,-1656.1"/>
</g>
<!-- Aircraft -->
<g id="node29" class="node">
<title>Aircraft</title>
<g id="a_node29"><a xlink:href="https://en.wikipedia.org/wiki/Aircraft" xlink:title="Aircraft">
<ellipse fill="lightskyblue" stroke="lightskyblue" cx="455.84" cy="-1556" rx="38.19" ry="18"/>
<text text-anchor="middle" x="455.84" y="-1552.3" font-family="Times New Roman,serif" font-size="14.00">Aircraft</text>
</a>
</g>
</g>
<!-- Air cargo&#45;&gt;Aircraft -->
<g id="edge27" class="edge">
<title>Air cargo&#45;&gt;Aircraft</title>
<path fill="none" stroke="black" d="M455.84,-1609.7C455.84,-1601.98 455.84,-1592.71 455.84,-1584.11"/>
<polygon fill="black" stroke="black" points="459.34,-1584.1 455.84,-1574.1 452.34,-1584.1 459.34,-1584.1"/>
</g>
<!-- Vehicle -->
<g id="node30" class="node">
<title>Vehicle</title>
<g id="a_node30"><a xlink:href="https://en.wikipedia.org/wiki/Vehicle" xlink:title="Vehicle">
<ellipse fill="lightskyblue" stroke="lightskyblue" cx="455.84" cy="-1484" rx="37.89" ry="18"/>
<text text-anchor="middle" x="455.84" y="-1480.3" font-family="Times New Roman,serif" font-size="14.00">Vehicle</text>
</a>
</g>
</g>
<!-- Aircraft&#45;&gt;Vehicle -->
<g id="edge28" class="edge">
<title>Aircraft&#45;&gt;Vehicle</title>
<path fill="none" stroke="black" d="M455.84,-1537.7C455.84,-1529.98 455.84,-1520.71 455.84,-1512.11"/>
<polygon fill="black" stroke="black" points="459.34,-1512.1 455.84,-1502.1 452.34,-1512.1 459.34,-1512.1"/>
</g>
<!-- Machine -->
<g id="node31" class="node">
<title>Machine</title>
<g id="a_node31"><a xlink:href="https://en.wikipedia.org/wiki/Machine" xlink:title="Machine">
<ellipse fill="lightskyblue" stroke="lightskyblue" cx="455.84" cy="-1412" rx="41.69" ry="18"/>
<text text-anchor="middle" x="455.84" y="-1408.3" font-family="Times New Roman,serif" font-size="14.00">Machine</text>
</a>
</g>
</g>
<!-- Vehicle&#45;&gt;Machine -->
<g id="edge29" class="edge">
<title>Vehicle&#45;&gt;Machine</title>
<path fill="none" stroke="black" d="M455.84,-1465.7C455.84,-1457.98 455.84,-1448.71 455.84,-1440.11"/>
<polygon fill="black" stroke="black" points="459.34,-1440.1 455.84,-1430.1 452.34,-1440.1 459.34,-1440.1"/>
</g>
<!-- Human&#45;made -->
<g id="node32" class="node">
<title>Human&#45;made</title>
<g id="a_node32"><a xlink:href="https://en.wikipedia.org/wiki/Human-made" xlink:title="Human&#45;made">
<ellipse fill="lightskyblue" stroke="lightskyblue" cx="455.84" cy="-1340" rx="59.29" ry="18"/>
<text text-anchor="middle" x="455.84" y="-1336.3" font-family="Times New Roman,serif" font-size="14.00">Human&#45;made</text>
</a>
</g>
</g>
<!-- Machine&#45;&gt;Human&#45;made -->
<g id="edge30" class="edge">
<title>Machine&#45;&gt;Human&#45;made</title>
<path fill="none" stroke="black" d="M455.84,-1393.7C455.84,-1385.98 455.84,-1376.71 455.84,-1368.11"/>
<polygon fill="black" stroke="black" points="459.34,-1368.1 455.84,-1358.1 452.34,-1368.1 459.34,-1368.1"/>
</g>
<!-- Nature -->
<g id="node33" class="node">
<title>Nature</title>
<g id="a_node33"><a xlink:href="https://en.wikipedia.org/wiki/Nature" xlink:title="Nature">
<ellipse fill="lightskyblue" stroke="lightskyblue" cx="455.84" cy="-1268" rx="34.39" ry="18"/>
<text text-anchor="middle" x="455.84" y="-1264.3" font-family="Times New Roman,serif" font-size="14.00">Nature</text>
</a>
</g>
</g>
<!-- Human&#45;made&#45;&gt;Nature -->
<g id="edge31" class="edge">
<title>Human&#45;made&#45;&gt;Nature</title>
<path fill="none" stroke="black" d="M455.84,-1321.7C455.84,-1313.98 455.84,-1304.71 455.84,-1296.11"/>
<polygon fill="black" stroke="black" points="459.34,-1296.1 455.84,-1286.1 452.34,-1296.1 459.34,-1296.1"/>
</g>
<!-- Universe -->
<g id="node34" class="node">
<title>Universe</title>
<g id="a_node34"><a xlink:href="https://en.wikipedia.org/wiki/Universe" xlink:title="Universe">
<ellipse fill="lightskyblue" stroke="lightskyblue" cx="455.84" cy="-1196" rx="42.49" ry="18"/>
<text text-anchor="middle" x="455.84" y="-1192.3" font-family="Times New Roman,serif" font-size="14.00">Universe</text>
</a>
</g>
</g>
<!-- Nature&#45;&gt;Universe -->
<g id="edge32" class="edge">
<title>Nature&#45;&gt;Universe</title>
<path fill="none" stroke="black" d="M455.84,-1249.7C455.84,-1241.98 455.84,-1232.71 455.84,-1224.11"/>
<polygon fill="black" stroke="black" points="459.34,-1224.1 455.84,-1214.1 452.34,-1224.1 459.34,-1224.1"/>
</g>
<!-- Space -->
<g id="node35" class="node">
<title>Space</title>
<g id="a_node35"><a xlink:href="https://en.wikipedia.org/wiki/Space" xlink:title="Space">
<ellipse fill="lightskyblue" stroke="lightskyblue" cx="455.84" cy="-1124" rx="33.29" ry="18"/>
<text text-anchor="middle" x="455.84" y="-1120.3" font-family="Times New Roman,serif" font-size="14.00">Space</text>
</a>
</g>
</g>
<!-- Universe&#45;&gt;Space -->
<g id="edge33" class="edge">
<title>Universe&#45;&gt;Space</title>
<path fill="none" stroke="black" d="M455.84,-1177.7C455.84,-1169.98 455.84,-1160.71 455.84,-1152.11"/>
<polygon fill="black" stroke="black" points="459.34,-1152.1 455.84,-1142.1 452.34,-1152.1 459.34,-1152.1"/>
</g>
<!-- Physical body -->
<g id="node36" class="node">
<title>Physical body</title>
<g id="a_node36"><a xlink:href="https://en.wikipedia.org/wiki/Physical_body" xlink:title="Physical body">
<ellipse fill="lightskyblue" stroke="lightskyblue" cx="455.84" cy="-1052" rx="62.29" ry="18"/>
<text text-anchor="middle" x="455.84" y="-1048.3" font-family="Times New Roman,serif" font-size="14.00">Physical body</text>
</a>
</g>
</g>
<!-- Space&#45;&gt;Physical body -->
<g id="edge34" class="edge">
<title>Space&#45;&gt;Physical body</title>
<path fill="none" stroke="black" d="M455.84,-1105.7C455.84,-1097.98 455.84,-1088.71 455.84,-1080.11"/>
<polygon fill="black" stroke="black" points="459.34,-1080.1 455.84,-1070.1 452.34,-1080.1 459.34,-1080.1"/>
</g>
<!-- Classical mechanics -->
<g id="node37" class="node">
<title>Classical mechanics</title>
<g id="a_node37"><a xlink:href="https://en.wikipedia.org/wiki/Classical_mechanics" xlink:title="Classical mechanics">
<ellipse fill="lightskyblue" stroke="lightskyblue" cx="455.84" cy="-980" rx="83.39" ry="18"/>
<text text-anchor="middle" x="455.84" y="-976.3" font-family="Times New Roman,serif" font-size="14.00">Classical mechanics</text>
</a>
</g>
</g>
<!-- Physical body&#45;&gt;Classical mechanics -->
<g id="edge35" class="edge">
<title>Physical body&#45;&gt;Classical mechanics</title>
<path fill="none" stroke="black" d="M455.84,-1033.7C455.84,-1025.98 455.84,-1016.71 455.84,-1008.11"/>
<polygon fill="black" stroke="black" points="459.34,-1008.1 455.84,-998.1 452.34,-1008.1 459.34,-1008.1"/>
</g>
<!-- Physical theory -->
<g id="node38" class="node">
<title>Physical theory</title>
<g id="a_node38"><a xlink:href="https://en.wikipedia.org/wiki/Physical_theory" xlink:title="Physical theory">
<ellipse fill="lightskyblue" stroke="lightskyblue" cx="451.84" cy="-908" rx="66.09" ry="18"/>
<text text-anchor="middle" x="451.84" y="-904.3" font-family="Times New Roman,serif" font-size="14.00">Physical theory</text>
</a>
</g>
</g>
<!-- Classical mechanics&#45;&gt;Physical theory -->
<g id="edge36" class="edge">
<title>Classical mechanics&#45;&gt;Physical theory</title>
<path fill="none" stroke="black" d="M454.85,-961.7C454.41,-953.98 453.88,-944.71 453.39,-936.11"/>
<polygon fill="black" stroke="black" points="456.88,-935.89 452.82,-926.1 449.9,-936.29 456.88,-935.89"/>
</g>
<!-- Physics -->
<g id="node39" class="node">
<title>Physics</title>
<g id="a_node39"><a xlink:href="https://en.wikipedia.org/wiki/Physics" xlink:title="Physics">
<ellipse fill="lightskyblue" stroke="lightskyblue" cx="470.84" cy="-836" rx="38.99" ry="18"/>
<text text-anchor="middle" x="470.84" y="-832.3" font-family="Times New Roman,serif" font-size="14.00">Physics</text>
</a>
</g>
</g>
<!-- Physical theory&#45;&gt;Physics -->
<g id="edge37" class="edge">
<title>Physical theory&#45;&gt;Physics</title>
<path fill="none" stroke="black" d="M456.54,-889.7C458.65,-881.9 461.2,-872.51 463.56,-863.83"/>
<polygon fill="black" stroke="black" points="466.96,-864.67 466.2,-854.1 460.2,-862.84 466.96,-864.67"/>
</g>
<!-- Natural science -->
<g id="node40" class="node">
<title>Natural science</title>
<g id="a_node40"><a xlink:href="https://en.wikipedia.org/wiki/Natural_science" xlink:title="Natural science">
<ellipse fill="lightskyblue" stroke="lightskyblue" cx="489.84" cy="-764" rx="65.79" ry="18"/>
<text text-anchor="middle" x="489.84" y="-760.3" font-family="Times New Roman,serif" font-size="14.00">Natural science</text>
</a>
</g>
</g>
<!-- Physics&#45;&gt;Natural science -->
<g id="edge38" class="edge">
<title>Physics&#45;&gt;Natural science</title>
<path fill="none" stroke="black" d="M475.44,-818.05C477.56,-810.26 480.12,-800.82 482.49,-792.08"/>
<polygon fill="black" stroke="black" points="485.91,-792.84 485.15,-782.28 479.16,-791.01 485.91,-792.84"/>
</g>
<!-- Branches of science -->
<g id="node41" class="node">
<title>Branches of science</title>
<g id="a_node41"><a xlink:href="https://en.wikipedia.org/wiki/Branches_of_science" xlink:title="Branches of science">
<ellipse fill="lightskyblue" stroke="lightskyblue" cx="489.84" cy="-692" rx="83.69" ry="18"/>
<text text-anchor="middle" x="489.84" y="-688.3" font-family="Times New Roman,serif" font-size="14.00">Branches of science</text>
</a>
</g>
</g>
<!-- Natural science&#45;&gt;Branches of science -->
<g id="edge39" class="edge">
<title>Natural science&#45;&gt;Branches of science</title>
<path fill="none" stroke="black" d="M489.84,-745.7C489.84,-737.98 489.84,-728.71 489.84,-720.11"/>
<polygon fill="black" stroke="black" points="493.34,-720.1 489.84,-710.1 486.34,-720.1 493.34,-720.1"/>
</g>
<!-- Branches of science&#45;&gt;Science -->
<g id="edge40" class="edge">
<title>Branches of science&#45;&gt;Science</title>
<path fill="none" stroke="black" d="M448.33,-676.33C413.97,-664.18 365.45,-647.02 331.58,-635.05"/>
<polygon fill="black" stroke="black" points="332.6,-631.7 322,-631.66 330.26,-638.3 332.6,-631.7"/>
</g>
<!-- Fati Jamali -->
<g id="node42" class="node">
<title>Fati Jamali</title>
<g id="a_node42"><a xlink:href="https://en.wikipedia.org/wiki/Fati_Jamali" xlink:title="Fati Jamali">
<ellipse fill="#b0e2ff" stroke="#b0e2ff" cx="786.84" cy="-1484" rx="48.99" ry="18"/>
<text text-anchor="middle" x="786.84" y="-1480.3" font-family="Times New Roman,serif" font-size="14.00">Fati Jamali</text>
</a>
</g>
</g>
<!-- Moroccans -->
<g id="node43" class="node">
<title>Moroccans</title>
<g id="a_node43"><a xlink:href="https://en.wikipedia.org/wiki/Moroccans" xlink:title="Moroccans">
<ellipse fill="lightskyblue" stroke="lightskyblue" cx="786.84" cy="-1412" rx="51.99" ry="18"/>
<text text-anchor="middle" x="786.84" y="-1408.3" font-family="Times New Roman,serif" font-size="14.00">Moroccans</text>
</a>
</g>
</g>
<!-- Fati Jamali&#45;&gt;Moroccans -->
<g id="edge41" class="edge">
<title>Fati Jamali&#45;&gt;Moroccans</title>
<path fill="none" stroke="black" d="M786.84,-1465.7C786.84,-1457.98 786.84,-1448.71 786.84,-1440.11"/>
<polygon fill="black" stroke="black" points="790.34,-1440.1 786.84,-1430.1 783.34,-1440.1 790.34,-1440.1"/>
</g>
<!-- Spanish language -->
<g id="node44" class="node">
<title>Spanish language</title>
<g id="a_node44"><a xlink:href="https://en.wikipedia.org/wiki/Spanish_language" xlink:title="Spanish language">
<ellipse fill="lightskyblue" stroke="lightskyblue" cx="786.84" cy="-1340" rx="73.39" ry="18"/>
<text text-anchor="middle" x="786.84" y="-1336.3" font-family="Times New Roman,serif" font-size="14.00">Spanish language</text>
</a>
</g>
</g>
<!-- Moroccans&#45;&gt;Spanish language -->
<g id="edge42" class="edge">
<title>Moroccans&#45;&gt;Spanish language</title>
<path fill="none" stroke="black" d="M786.84,-1393.7C786.84,-1385.98 786.84,-1376.71 786.84,-1368.11"/>
<polygon fill="black" stroke="black" points="790.34,-1368.1 786.84,-1358.1 783.34,-1368.1 790.34,-1368.1"/>
</g>
<!-- Romance languages -->
<g id="node45" class="node">
<title>Romance languages</title>
<g id="a_node45"><a xlink:href="https://en.wikipedia.org/wiki/Romance_languages" xlink:title="Romance languages">
<ellipse fill="lightskyblue" stroke="lightskyblue" cx="786.84" cy="-1268" rx="83.39" ry="18"/>
<text text-anchor="middle" x="786.84" y="-1264.3" font-family="Times New Roman,serif" font-size="14.00">Romance languages</text>
</a>
</g>
</g>
<!-- Spanish language&#45;&gt;Romance languages -->
<g id="edge43" class="edge">
<title>Spanish language&#45;&gt;Romance languages</title>
<path fill="none" stroke="black" d="M786.84,-1321.7C786.84,-1313.98 786.84,-1304.71 786.84,-1296.11"/>
<polygon fill="black" stroke="black" points="790.34,-1296.1 786.84,-1286.1 783.34,-1296.1 790.34,-1296.1"/>
</g>
<!-- Vulgar Latin -->
<g id="node46" class="node">
<title>Vulgar Latin</title>
<g id="a_node46"><a xlink:href="https://en.wikipedia.org/wiki/Vulgar_Latin" xlink:title="Vulgar Latin">
<ellipse fill="lightskyblue" stroke="lightskyblue" cx="786.84" cy="-1196" rx="55.49" ry="18"/>
<text text-anchor="middle" x="786.84" y="-1192.3" font-family="Times New Roman,serif" font-size="14.00">Vulgar Latin</text>
</a>
</g>
</g>
<!-- Romance languages&#45;&gt;Vulgar Latin -->
<g id="edge44" class="edge">
<title>Romance languages&#45;&gt;Vulgar Latin</title>
<path fill="none" stroke="black" d="M786.84,-1249.7C786.84,-1241.98 786.84,-1232.71 786.84,-1224.11"/>
<polygon fill="black" stroke="black" points="790.34,-1224.1 786.84,-1214.1 783.34,-1224.1 790.34,-1224.1"/>
</g>
<!-- Literary language -->
<g id="node47" class="node">
<title>Literary language</title>
<g id="a_node47"><a xlink:href="https://en.wikipedia.org/wiki/Literary_language" xlink:title="Literary language">
<ellipse fill="lightskyblue" stroke="lightskyblue" cx="786.84" cy="-1124" rx="72.29" ry="18"/>
<text text-anchor="middle" x="786.84" y="-1120.3" font-family="Times New Roman,serif" font-size="14.00">Literary language</text>
</a>
</g>
</g>
<!-- Vulgar Latin&#45;&gt;Literary language -->
<g id="edge45" class="edge">
<title>Vulgar Latin&#45;&gt;Literary language</title>
<path fill="none" stroke="black" d="M786.84,-1177.7C786.84,-1169.98 786.84,-1160.71 786.84,-1152.11"/>
<polygon fill="black" stroke="black" points="790.34,-1152.1 786.84,-1142.1 783.34,-1152.1 790.34,-1152.1"/>
</g>
<!-- Register (sociolinguistics) -->
<g id="node48" class="node">
<title>Register (sociolinguistics)</title>
<g id="a_node48"><a xlink:href="https://en.wikipedia.org/wiki/Register_(sociolinguistics)" xlink:title="Register (sociolinguistics)">
<ellipse fill="lightskyblue" stroke="lightskyblue" cx="786.84" cy="-1052" rx="104.78" ry="18"/>
<text text-anchor="middle" x="786.84" y="-1048.3" font-family="Times New Roman,serif" font-size="14.00">Register (sociolinguistics)</text>
</a>
</g>
</g>
<!-- Literary language&#45;&gt;Register (sociolinguistics) -->
<g id="edge46" class="edge">
<title>Literary language&#45;&gt;Register (sociolinguistics)</title>
<path fill="none" stroke="black" d="M786.84,-1105.7C786.84,-1097.98 786.84,-1088.71 786.84,-1080.11"/>
<polygon fill="black" stroke="black" points="790.34,-1080.1 786.84,-1070.1 783.34,-1080.1 790.34,-1080.1"/>
</g>
<!-- Sociolinguistics -->
<g id="node49" class="node">
<title>Sociolinguistics</title>
<g id="a_node49"><a xlink:href="https://en.wikipedia.org/wiki/Sociolinguistics" xlink:title="Sociolinguistics">
<ellipse fill="lightskyblue" stroke="lightskyblue" cx="786.84" cy="-980" rx="67.69" ry="18"/>
<text text-anchor="middle" x="786.84" y="-976.3" font-family="Times New Roman,serif" font-size="14.00">Sociolinguistics</text>
</a>
</g>
</g>
<!-- Register (sociolinguistics)&#45;&gt;Sociolinguistics -->
<g id="edge47" class="edge">
<title>Register (sociolinguistics)&#45;&gt;Sociolinguistics</title>
<path fill="none" stroke="black" d="M786.84,-1033.7C786.84,-1025.98 786.84,-1016.71 786.84,-1008.11"/>
<polygon fill="black" stroke="black" points="790.34,-1008.1 786.84,-998.1 783.34,-1008.1 790.34,-1008.1"/>
</g>
<!-- Society -->
<g id="node50" class="node">
<title>Society</title>
<g id="a_node50"><a xlink:href="https://en.wikipedia.org/wiki/Society" xlink:title="Society">
<ellipse fill="lightskyblue" stroke="lightskyblue" cx="785.84" cy="-908" rx="38.19" ry="18"/>
<text text-anchor="middle" x="785.84" y="-904.3" font-family="Times New Roman,serif" font-size="14.00">Society</text>
</a>
</g>
</g>
<!-- Sociolinguistics&#45;&gt;Society -->
<g id="edge48" class="edge">
<title>Sociolinguistics&#45;&gt;Society</title>
<path fill="none" stroke="black" d="M786.59,-961.7C786.48,-953.98 786.35,-944.71 786.23,-936.11"/>
<polygon fill="black" stroke="black" points="789.73,-936.05 786.09,-926.1 782.73,-936.15 789.73,-936.05"/>
</g>
<!-- Social group -->
<g id="node51" class="node">
<title>Social group</title>
<g id="a_node51"><a xlink:href="https://en.wikipedia.org/wiki/Social_group" xlink:title="Social group">
<ellipse fill="lightskyblue" stroke="lightskyblue" cx="745.84" cy="-836" rx="57.39" ry="18"/>
<text text-anchor="middle" x="745.84" y="-832.3" font-family="Times New Roman,serif" font-size="14.00">Social group</text>
</a>
</g>
</g>
<!-- Society&#45;&gt;Social group -->
<g id="edge49" class="edge">
<title>Society&#45;&gt;Social group</title>
<path fill="none" stroke="black" d="M776.36,-890.41C771.65,-882.16 765.85,-872.01 760.57,-862.78"/>
<polygon fill="black" stroke="black" points="763.53,-860.9 755.53,-853.96 757.45,-864.38 763.53,-860.9"/>
</g>
<!-- Social science -->
<g id="node52" class="node">
<title>Social science</title>
<g id="a_node52"><a xlink:href="https://en.wikipedia.org/wiki/Social_science" xlink:title="Social science">
<ellipse fill="lightskyblue" stroke="lightskyblue" cx="699.84" cy="-764" rx="62.29" ry="18"/>
<text text-anchor="middle" x="699.84" y="-760.3" font-family="Times New Roman,serif" font-size="14.00">Social science</text>
</a>
</g>
</g>
<!-- Social group&#45;&gt;Social science -->
<g id="edge50" class="edge">
<title>Social group&#45;&gt;Social science</title>
<path fill="none" stroke="black" d="M734.71,-818.05C729.23,-809.71 722.51,-799.49 716.44,-790.25"/>
<polygon fill="black" stroke="black" points="719.29,-788.22 710.87,-781.79 713.44,-792.07 719.29,-788.22"/>
</g>
<!-- Social science&#45;&gt;Branches of science -->
<g id="edge51" class="edge">
<title>Social science&#45;&gt;Branches of science</title>
<path fill="none" stroke="black" d="M660.34,-749.83C627.08,-738.75 579.21,-722.79 542.65,-710.6"/>
<polygon fill="black" stroke="black" points="543.74,-707.28 533.14,-707.43 541.52,-713.92 543.74,-707.28"/>
</g>
<!-- Cold&#45;hardy citrus -->
<g id="node53" class="node">
<title>Cold&#45;hardy citrus</title>
<g id="a_node53"><a xlink:href="https://en.wikipedia.org/wiki/Cold-hardy_citrus" xlink:title="Cold&#45;hardy citrus">
<ellipse fill="#b0e2ff" stroke="#b0e2ff" cx="629.84" cy="-1196" rx="74.99" ry="18"/>
<text text-anchor="middle" x="629.84" y="-1192.3" font-family="Times New Roman,serif" font-size="14.00">Cold&#45;hardy citrus</text>
</a>
</g>
</g>
<!-- Citrus -->
<g id="node54" class="node">
<title>Citrus</title>
<g id="a_node54"><a xlink:href="https://en.wikipedia.org/wiki/Citrus" xlink:title="Citrus">
<ellipse fill="lightskyblue" stroke="lightskyblue" cx="629.84" cy="-1124" rx="32.49" ry="18"/>
<text text-anchor="middle" x="629.84" y="-1120.3" font-family="Times New Roman,serif" font-size="14.00">Citrus</text>
</a>
</g>
</g>
<!-- Cold&#45;hardy citrus&#45;&gt;Citrus -->
<g id="edge52" class="edge">
<title>Cold&#45;hardy citrus&#45;&gt;Citrus</title>
<path fill="none" stroke="black" d="M629.84,-1177.7C629.84,-1169.98 629.84,-1160.71 629.84,-1152.11"/>
<polygon fill="black" stroke="black" points="633.34,-1152.1 629.84,-1142.1 626.34,-1152.1 633.34,-1152.1"/>
</g>
<!-- Genus -->
<g id="node55" class="node">
<title>Genus</title>
<g id="a_node55"><a xlink:href="https://en.wikipedia.org/wiki/Genus" xlink:title="Genus">
<ellipse fill="lightskyblue" stroke="lightskyblue" cx="629.84" cy="-1052" rx="34.39" ry="18"/>
<text text-anchor="middle" x="629.84" y="-1048.3" font-family="Times New Roman,serif" font-size="14.00">Genus</text>
</a>
</g>
</g>
<!-- Citrus&#45;&gt;Genus -->
<g id="edge53" class="edge">
<title>Citrus&#45;&gt;Genus</title>
<path fill="none" stroke="black" d="M629.84,-1105.7C629.84,-1097.98 629.84,-1088.71 629.84,-1080.11"/>
<polygon fill="black" stroke="black" points="633.34,-1080.1 629.84,-1070.1 626.34,-1080.1 633.34,-1080.1"/>
</g>
<!-- Taxonomic rank -->
<g id="node56" class="node">
<title>Taxonomic rank</title>
<g id="a_node56"><a xlink:href="https://en.wikipedia.org/wiki/Taxonomic_rank" xlink:title="Taxonomic rank">
<ellipse fill="lightskyblue" stroke="lightskyblue" cx="630.84" cy="-980" rx="70.39" ry="18"/>
<text text-anchor="middle" x="630.84" y="-976.3" font-family="Times New Roman,serif" font-size="14.00">Taxonomic rank</text>
</a>
</g>
</g>
<!-- Genus&#45;&gt;Taxonomic rank -->
<g id="edge54" class="edge">
<title>Genus&#45;&gt;Taxonomic rank</title>
<path fill="none" stroke="black" d="M630.09,-1033.7C630.2,-1025.98 630.33,-1016.71 630.45,-1008.11"/>
<polygon fill="black" stroke="black" points="633.95,-1008.15 630.6,-998.1 626.95,-1008.05 633.95,-1008.15"/>
</g>
<!-- Biological classification -->
<g id="node57" class="node">
<title>Biological classification</title>
<g id="a_node57"><a xlink:href="https://en.wikipedia.org/wiki/Biological_classification" xlink:title="Biological classification">
<ellipse fill="lightskyblue" stroke="lightskyblue" cx="631.84" cy="-908" rx="96.38" ry="18"/>
<text text-anchor="middle" x="631.84" y="-904.3" font-family="Times New Roman,serif" font-size="14.00">Biological classification</text>
</a>
</g>
</g>
<!-- Taxonomic rank&#45;&gt;Biological classification -->
<g id="edge55" class="edge">
<title>Taxonomic rank&#45;&gt;Biological classification</title>
<path fill="none" stroke="black" d="M631.09,-961.7C631.2,-953.98 631.33,-944.71 631.45,-936.11"/>
<polygon fill="black" stroke="black" points="634.95,-936.15 631.6,-926.1 627.95,-936.05 634.95,-936.15"/>
</g>
<!-- Biology -->
<g id="node58" class="node">
<title>Biology</title>
<g id="a_node58"><a xlink:href="https://en.wikipedia.org/wiki/Biology" xlink:title="Biology">
<ellipse fill="lightskyblue" stroke="lightskyblue" cx="596.84" cy="-836" rx="38.99" ry="18"/>
<text text-anchor="middle" x="596.84" y="-832.3" font-family="Times New Roman,serif" font-size="14.00">Biology</text>
</a>
</g>
</g>
<!-- Biological classification&#45;&gt;Biology -->
<g id="edge56" class="edge">
<title>Biological classification&#45;&gt;Biology</title>
<path fill="none" stroke="black" d="M623.37,-890.05C619.28,-881.89 614.3,-871.91 609.75,-862.82"/>
<polygon fill="black" stroke="black" points="612.84,-861.17 605.24,-853.79 606.58,-864.3 612.84,-861.17"/>
</g>
<!-- Biology&#45;&gt;Natural science -->
<g id="edge57" class="edge">
<title>Biology&#45;&gt;Natural science</title>
<path fill="none" stroke="black" d="M575.19,-820.83C560.11,-810.97 539.72,-797.63 522.65,-786.47"/>
<polygon fill="black" stroke="black" points="524.36,-783.4 514.08,-780.85 520.53,-789.26 524.36,-783.4"/>
</g>
</g>
</svg>
