<?xml version="1.0" encoding="UTF-8" standalone="no"?>
<!DOCTYPE svg PUBLIC "-//W3C//DTD SVG 1.1//EN"
 "http://www.w3.org/Graphics/SVG/1.1/DTD/svg11.dtd">
<!-- Generated by graphviz version 2.46.0 (20210118.1747)
 -->
<!-- Title: unix Pages: 1 -->
<svg width="557pt" height="989pt"
 viewBox="0.00 0.00 557.19 989.00" xmlns="http://www.w3.org/2000/svg" xmlns:xlink="http://www.w3.org/1999/xlink">
<g id="graph0" class="graph" transform="scale(1 1) rotate(0) translate(4 985)">
<title>unix</title>
<polygon fill="white" stroke="transparent" points="-4,4 -4,-985 553.19,-985 553.19,4 -4,4"/>
<text text-anchor="start" x="139.59" y="-45.2" font-family="Times New Roman,serif" font-size="16.00">Graph generated on 11/05/2021 11:34:19.</text>
<text text-anchor="start" x="139.59" y="-27.2" font-family="Times New Roman,serif" font-size="16.00">Checked 6 pages. Time took: 0.73 minutes.</text>
<text text-anchor="middle" x="274.59" y="-9.2" font-family="Times New Roman,serif" font-size="16.00">Number of pages drawn: 40</text>
<!-- Formula One -->
<g id="node1" class="node">
<title>Formula One</title>
<g id="a_node1"><a xlink:href="https://en.wikipedia.org/wiki/Formula_One" xlink:title="Formula One">
<ellipse fill="#b0e2ff" stroke="#b0e2ff" cx="501.79" cy="-603" rx="47.3" ry="18"/>
<text text-anchor="middle" x="501.79" y="-599.9" font-family="Times New Roman,serif" font-size="12.00">Formula One</text>
</a>
</g>
</g>
<!-- Auto racing -->
<g id="node2" class="node">
<title>Auto racing</title>
<g id="a_node2"><a xlink:href="https://en.wikipedia.org/wiki/Auto_racing" xlink:title="Auto racing">
<ellipse fill="lightskyblue" stroke="lightskyblue" cx="501.79" cy="-531" rx="42.45" ry="18"/>
<text text-anchor="middle" x="501.79" y="-527.9" font-family="Times New Roman,serif" font-size="12.00">Auto racing</text>
</a>
</g>
</g>
<!-- Formula One&#45;&gt;Auto racing -->
<g id="edge1" class="edge">
<title>Formula One&#45;&gt;Auto racing</title>
<path fill="none" stroke="black" d="M501.79,-584.7C501.79,-576.98 501.79,-567.71 501.79,-559.11"/>
<polygon fill="black" stroke="black" points="505.29,-559.1 501.79,-549.1 498.29,-559.1 505.29,-559.1"/>
</g>
<!-- Motorsport -->
<g id="node3" class="node">
<title>Motorsport</title>
<g id="a_node3"><a xlink:href="https://en.wikipedia.org/wiki/Motorsport" xlink:title="Motorsport">
<ellipse fill="lightskyblue" stroke="lightskyblue" cx="496.79" cy="-459" rx="42.45" ry="18"/>
<text text-anchor="middle" x="496.79" y="-455.9" font-family="Times New Roman,serif" font-size="12.00">Motorsport</text>
</a>
</g>
</g>
<!-- Auto racing&#45;&gt;Motorsport -->
<g id="edge2" class="edge">
<title>Auto racing&#45;&gt;Motorsport</title>
<path fill="none" stroke="black" d="M500.55,-512.7C500,-504.98 499.34,-495.71 498.72,-487.11"/>
<polygon fill="black" stroke="black" points="502.21,-486.83 498.01,-477.1 495.23,-487.33 502.21,-486.83"/>
</g>
<!-- Sports -->
<g id="node4" class="node">
<title>Sports</title>
<g id="a_node4"><a xlink:href="https://en.wikipedia.org/wiki/Sports" xlink:title="Sports">
<ellipse fill="lightskyblue" stroke="lightskyblue" cx="471.79" cy="-387" rx="28.87" ry="18"/>
<text text-anchor="middle" x="471.79" y="-383.9" font-family="Times New Roman,serif" font-size="12.00">Sports</text>
</a>
</g>
</g>
<!-- Motorsport&#45;&gt;Sports -->
<g id="edge3" class="edge">
<title>Motorsport&#45;&gt;Sports</title>
<path fill="none" stroke="black" d="M490.74,-441.05C487.88,-433.06 484.41,-423.33 481.22,-414.4"/>
<polygon fill="black" stroke="black" points="484.44,-413.03 477.78,-404.79 477.85,-415.38 484.44,-413.03"/>
</g>
<!-- Competition -->
<g id="node5" class="node">
<title>Competition</title>
<g id="a_node5"><a xlink:href="https://en.wikipedia.org/wiki/Competition" xlink:title="Competition">
<ellipse fill="lightskyblue" stroke="lightskyblue" cx="350.79" cy="-315" rx="44.15" ry="18"/>
<text text-anchor="middle" x="350.79" y="-311.9" font-family="Times New Roman,serif" font-size="12.00">Competition</text>
</a>
</g>
</g>
<!-- Sports&#45;&gt;Competition -->
<g id="edge4" class="edge">
<title>Sports&#45;&gt;Competition</title>
<path fill="none" stroke="black" d="M451.26,-374.13C432.85,-363.48 405.51,-347.66 383.99,-335.21"/>
<polygon fill="black" stroke="black" points="385.58,-332.09 375.17,-330.11 382.08,-338.14 385.58,-332.09"/>
</g>
<!-- Goal -->
<g id="node6" class="node">
<title>Goal</title>
<g id="a_node6"><a xlink:href="https://en.wikipedia.org/wiki/Goal" xlink:title="Goal">
<ellipse fill="lightskyblue" stroke="lightskyblue" cx="348.79" cy="-243" rx="27" ry="18"/>
<text text-anchor="middle" x="348.79" y="-239.9" font-family="Times New Roman,serif" font-size="12.00">Goal</text>
</a>
</g>
</g>
<!-- Competition&#45;&gt;Goal -->
<g id="edge5" class="edge">
<title>Competition&#45;&gt;Goal</title>
<path fill="none" stroke="black" d="M350.29,-296.7C350.07,-288.98 349.81,-279.71 349.56,-271.11"/>
<polygon fill="black" stroke="black" points="353.06,-271 349.28,-261.1 346.06,-271.2 353.06,-271"/>
</g>
<!-- Idea -->
<g id="node7" class="node">
<title>Idea</title>
<g id="a_node7"><a xlink:href="https://en.wikipedia.org/wiki/Idea" xlink:title="Idea">
<ellipse fill="lightskyblue" stroke="lightskyblue" cx="326.79" cy="-171" rx="27" ry="18"/>
<text text-anchor="middle" x="326.79" y="-167.9" font-family="Times New Roman,serif" font-size="12.00">Idea</text>
</a>
</g>
</g>
<!-- Goal&#45;&gt;Idea -->
<g id="edge6" class="edge">
<title>Goal&#45;&gt;Idea</title>
<path fill="none" stroke="black" d="M343.46,-225.05C340.95,-217.06 337.89,-207.33 335.08,-198.4"/>
<polygon fill="black" stroke="black" points="338.4,-197.28 332.06,-188.79 331.72,-199.38 338.4,-197.28"/>
</g>
<!-- Philosophy -->
<g id="node8" class="node">
<title>Philosophy</title>
<g id="a_node8"><a xlink:href="https://en.wikipedia.org/wiki/Philosophy" xlink:title="Philosophy">
<ellipse fill="lightskyblue" stroke="lightskyblue" cx="263.79" cy="-99" rx="40.76" ry="18"/>
<text text-anchor="middle" x="263.79" y="-95.9" font-family="Times New Roman,serif" font-size="12.00">Philosophy</text>
</a>
</g>
</g>
<!-- Idea&#45;&gt;Philosophy -->
<g id="edge7" class="edge">
<title>Idea&#45;&gt;Philosophy</title>
<path fill="none" stroke="black" d="M313.43,-155.15C305.25,-146.07 294.61,-134.24 285.27,-123.87"/>
<polygon fill="black" stroke="black" points="287.74,-121.38 278.45,-116.29 282.54,-126.06 287.74,-121.38"/>
</g>
<!-- Nervous system -->
<g id="node9" class="node">
<title>Nervous system</title>
<g id="a_node9"><a xlink:href="https://en.wikipedia.org/wiki/Nervous_system" xlink:title="Nervous system">
<ellipse fill="#b0e2ff" stroke="#b0e2ff" cx="54.79" cy="-891" rx="54.58" ry="18"/>
<text text-anchor="middle" x="54.79" y="-887.9" font-family="Times New Roman,serif" font-size="12.00">Nervous system</text>
</a>
</g>
</g>
<!-- Biology -->
<g id="node10" class="node">
<title>Biology</title>
<g id="a_node10"><a xlink:href="https://en.wikipedia.org/wiki/Biology" xlink:title="Biology">
<ellipse fill="lightskyblue" stroke="lightskyblue" cx="59.79" cy="-819" rx="31.29" ry="18"/>
<text text-anchor="middle" x="59.79" y="-815.9" font-family="Times New Roman,serif" font-size="12.00">Biology</text>
</a>
</g>
</g>
<!-- Nervous system&#45;&gt;Biology -->
<g id="edge8" class="edge">
<title>Nervous system&#45;&gt;Biology</title>
<path fill="none" stroke="black" d="M56.02,-872.7C56.57,-864.98 57.24,-855.71 57.85,-847.11"/>
<polygon fill="black" stroke="black" points="61.34,-847.33 58.57,-837.1 54.36,-846.83 61.34,-847.33"/>
</g>
<!-- Natural science -->
<g id="node11" class="node">
<title>Natural science</title>
<g id="a_node11"><a xlink:href="https://en.wikipedia.org/wiki/Natural_science" xlink:title="Natural science">
<ellipse fill="lightskyblue" stroke="lightskyblue" cx="110.79" cy="-747" rx="52.88" ry="18"/>
<text text-anchor="middle" x="110.79" y="-743.9" font-family="Times New Roman,serif" font-size="12.00">Natural science</text>
</a>
</g>
</g>
<!-- Biology&#45;&gt;Natural science -->
<g id="edge9" class="edge">
<title>Biology&#45;&gt;Natural science</title>
<path fill="none" stroke="black" d="M71.36,-802.12C77.63,-793.51 85.53,-782.67 92.6,-772.96"/>
<polygon fill="black" stroke="black" points="95.49,-774.94 98.55,-764.8 89.83,-770.82 95.49,-774.94"/>
</g>
<!-- Branches of science -->
<g id="node12" class="node">
<title>Branches of science</title>
<g id="a_node12"><a xlink:href="https://en.wikipedia.org/wiki/Branches_of_science" xlink:title="Branches of science">
<ellipse fill="lightskyblue" stroke="lightskyblue" cx="110.79" cy="-675" rx="65.74" ry="18"/>
<text text-anchor="middle" x="110.79" y="-671.9" font-family="Times New Roman,serif" font-size="12.00">Branches of science</text>
</a>
</g>
</g>
<!-- Natural science&#45;&gt;Branches of science -->
<g id="edge10" class="edge">
<title>Natural science&#45;&gt;Branches of science</title>
<path fill="none" stroke="black" d="M110.79,-728.7C110.79,-720.98 110.79,-711.71 110.79,-703.11"/>
<polygon fill="black" stroke="black" points="114.29,-703.1 110.79,-693.1 107.29,-703.1 114.29,-703.1"/>
</g>
<!-- Science -->
<g id="node13" class="node">
<title>Science</title>
<g id="a_node13"><a xlink:href="https://en.wikipedia.org/wiki/Science" xlink:title="Science">
<ellipse fill="lightskyblue" stroke="lightskyblue" cx="110.79" cy="-603" rx="32.02" ry="18"/>
<text text-anchor="middle" x="110.79" y="-599.9" font-family="Times New Roman,serif" font-size="12.00">Science</text>
</a>
</g>
</g>
<!-- Branches of science&#45;&gt;Science -->
<g id="edge11" class="edge">
<title>Branches of science&#45;&gt;Science</title>
<path fill="none" stroke="black" d="M110.79,-656.7C110.79,-648.98 110.79,-639.71 110.79,-631.11"/>
<polygon fill="black" stroke="black" points="114.29,-631.1 110.79,-621.1 107.29,-631.1 114.29,-631.1"/>
</g>
<!-- Scientific method -->
<g id="node14" class="node">
<title>Scientific method</title>
<g id="a_node14"><a xlink:href="https://en.wikipedia.org/wiki/Scientific_method" xlink:title="Scientific method">
<ellipse fill="lightskyblue" stroke="lightskyblue" cx="110.79" cy="-531" rx="57.73" ry="18"/>
<text text-anchor="middle" x="110.79" y="-527.9" font-family="Times New Roman,serif" font-size="12.00">Scientific method</text>
</a>
</g>
</g>
<!-- Science&#45;&gt;Scientific method -->
<g id="edge12" class="edge">
<title>Science&#45;&gt;Scientific method</title>
<path fill="none" stroke="black" d="M110.79,-584.7C110.79,-576.98 110.79,-567.71 110.79,-559.11"/>
<polygon fill="black" stroke="black" points="114.29,-559.1 110.79,-549.1 107.29,-559.1 114.29,-559.1"/>
</g>
<!-- Empirical evidence -->
<g id="node15" class="node">
<title>Empirical evidence</title>
<g id="a_node15"><a xlink:href="https://en.wikipedia.org/wiki/Empirical_evidence" xlink:title="Empirical evidence">
<ellipse fill="lightskyblue" stroke="lightskyblue" cx="110.79" cy="-459" rx="62.35" ry="18"/>
<text text-anchor="middle" x="110.79" y="-455.9" font-family="Times New Roman,serif" font-size="12.00">Empirical evidence</text>
</a>
</g>
</g>
<!-- Scientific method&#45;&gt;Empirical evidence -->
<g id="edge13" class="edge">
<title>Scientific method&#45;&gt;Empirical evidence</title>
<path fill="none" stroke="black" d="M110.79,-512.7C110.79,-504.98 110.79,-495.71 110.79,-487.11"/>
<polygon fill="black" stroke="black" points="114.29,-487.1 110.79,-477.1 107.29,-487.1 114.29,-487.1"/>
</g>
<!-- Information -->
<g id="node16" class="node">
<title>Information</title>
<g id="a_node16"><a xlink:href="https://en.wikipedia.org/wiki/Information" xlink:title="Information">
<ellipse fill="lightskyblue" stroke="lightskyblue" cx="142.79" cy="-387" rx="41.72" ry="18"/>
<text text-anchor="middle" x="142.79" y="-383.9" font-family="Times New Roman,serif" font-size="12.00">Information</text>
</a>
</g>
</g>
<!-- Empirical evidence&#45;&gt;Information -->
<g id="edge14" class="edge">
<title>Empirical evidence&#45;&gt;Information</title>
<path fill="none" stroke="black" d="M118.53,-441.05C122.23,-432.97 126.73,-423.12 130.85,-414.11"/>
<polygon fill="black" stroke="black" points="134.14,-415.34 135.11,-404.79 127.77,-412.43 134.14,-415.34"/>
</g>
<!-- Uncertainty -->
<g id="node17" class="node">
<title>Uncertainty</title>
<g id="a_node17"><a xlink:href="https://en.wikipedia.org/wiki/Uncertainty" xlink:title="Uncertainty">
<ellipse fill="lightskyblue" stroke="lightskyblue" cx="179.79" cy="-315" rx="41.72" ry="18"/>
<text text-anchor="middle" x="179.79" y="-311.9" font-family="Times New Roman,serif" font-size="12.00">Uncertainty</text>
</a>
</g>
</g>
<!-- Information&#45;&gt;Uncertainty -->
<g id="edge15" class="edge">
<title>Information&#45;&gt;Uncertainty</title>
<path fill="none" stroke="black" d="M151.74,-369.05C156.06,-360.89 161.33,-350.91 166.14,-341.82"/>
<polygon fill="black" stroke="black" points="169.33,-343.27 170.91,-332.79 163.15,-339.99 169.33,-343.27"/>
</g>
<!-- Epistemology -->
<g id="node18" class="node">
<title>Epistemology</title>
<g id="a_node18"><a xlink:href="https://en.wikipedia.org/wiki/Epistemology" xlink:title="Epistemology">
<ellipse fill="lightskyblue" stroke="lightskyblue" cx="197.79" cy="-243" rx="47.3" ry="18"/>
<text text-anchor="middle" x="197.79" y="-239.9" font-family="Times New Roman,serif" font-size="12.00">Epistemology</text>
</a>
</g>
</g>
<!-- Uncertainty&#45;&gt;Epistemology -->
<g id="edge16" class="edge">
<title>Uncertainty&#45;&gt;Epistemology</title>
<path fill="none" stroke="black" d="M184.14,-297.05C186.15,-289.26 188.58,-279.82 190.82,-271.08"/>
<polygon fill="black" stroke="black" points="194.24,-271.83 193.35,-261.28 187.46,-270.09 194.24,-271.83"/>
</g>
<!-- Outline of philosophy -->
<g id="node19" class="node">
<title>Outline of philosophy</title>
<g id="a_node19"><a xlink:href="https://en.wikipedia.org/wiki/Outline_of_philosophy" xlink:title="Outline of philosophy">
<ellipse fill="lightskyblue" stroke="lightskyblue" cx="206.79" cy="-171" rx="69.62" ry="18"/>
<text text-anchor="middle" x="206.79" y="-167.9" font-family="Times New Roman,serif" font-size="12.00">Outline of philosophy</text>
</a>
</g>
</g>
<!-- Epistemology&#45;&gt;Outline of philosophy -->
<g id="edge17" class="edge">
<title>Epistemology&#45;&gt;Outline of philosophy</title>
<path fill="none" stroke="black" d="M200.01,-224.7C201,-216.98 202.2,-207.71 203.3,-199.11"/>
<polygon fill="black" stroke="black" points="206.78,-199.47 204.59,-189.1 199.84,-198.58 206.78,-199.47"/>
</g>
<!-- Outline of philosophy&#45;&gt;Philosophy -->
<g id="edge18" class="edge">
<title>Outline of philosophy&#45;&gt;Philosophy</title>
<path fill="none" stroke="black" d="M220.59,-153.05C227.62,-144.42 236.3,-133.76 244.03,-124.27"/>
<polygon fill="black" stroke="black" points="246.91,-126.27 250.51,-116.31 241.48,-121.85 246.91,-126.27"/>
</g>
<!-- Road bicycle racing -->
<g id="node20" class="node">
<title>Road bicycle racing</title>
<g id="a_node20"><a xlink:href="https://en.wikipedia.org/wiki/Road_bicycle_racing" xlink:title="Road bicycle racing">
<ellipse fill="#b0e2ff" stroke="#b0e2ff" cx="255.79" cy="-459" rx="65.01" ry="18"/>
<text text-anchor="middle" x="255.79" y="-455.9" font-family="Times New Roman,serif" font-size="12.00">Road bicycle racing</text>
</a>
</g>
</g>
<!-- Cycle sport -->
<g id="node21" class="node">
<title>Cycle sport</title>
<g id="a_node21"><a xlink:href="https://en.wikipedia.org/wiki/Cycle_sport" xlink:title="Cycle sport">
<ellipse fill="lightskyblue" stroke="lightskyblue" cx="265.79" cy="-387" rx="42.45" ry="18"/>
<text text-anchor="middle" x="265.79" y="-383.9" font-family="Times New Roman,serif" font-size="12.00">Cycle sport</text>
</a>
</g>
</g>
<!-- Road bicycle racing&#45;&gt;Cycle sport -->
<g id="edge19" class="edge">
<title>Road bicycle racing&#45;&gt;Cycle sport</title>
<path fill="none" stroke="black" d="M258.26,-440.7C259.36,-432.98 260.69,-423.71 261.91,-415.11"/>
<polygon fill="black" stroke="black" points="265.39,-415.5 263.34,-405.1 258.46,-414.51 265.39,-415.5"/>
</g>
<!-- Cycle sport&#45;&gt;Competition -->
<g id="edge20" class="edge">
<title>Cycle sport&#45;&gt;Competition</title>
<path fill="none" stroke="black" d="M284.65,-370.46C296.21,-360.95 311.18,-348.62 323.96,-338.1"/>
<polygon fill="black" stroke="black" points="326.48,-340.55 331.98,-331.49 322.03,-335.15 326.48,-340.55"/>
</g>
<!-- Mineral -->
<g id="node22" class="node">
<title>Mineral</title>
<g id="a_node22"><a xlink:href="https://en.wikipedia.org/wiki/Mineral" xlink:title="Mineral">
<ellipse fill="#b0e2ff" stroke="#b0e2ff" cx="161.79" cy="-963" rx="31.29" ry="18"/>
<text text-anchor="middle" x="161.79" y="-959.9" font-family="Times New Roman,serif" font-size="12.00">Mineral</text>
</a>
</g>
</g>
<!-- Geology -->
<g id="node23" class="node">
<title>Geology</title>
<g id="a_node23"><a xlink:href="https://en.wikipedia.org/wiki/Geology" xlink:title="Geology">
<ellipse fill="lightskyblue" stroke="lightskyblue" cx="161.79" cy="-891" rx="33.72" ry="18"/>
<text text-anchor="middle" x="161.79" y="-887.9" font-family="Times New Roman,serif" font-size="12.00">Geology</text>
</a>
</g>
</g>
<!-- Mineral&#45;&gt;Geology -->
<g id="edge21" class="edge">
<title>Mineral&#45;&gt;Geology</title>
<path fill="none" stroke="black" d="M161.79,-944.7C161.79,-936.98 161.79,-927.71 161.79,-919.11"/>
<polygon fill="black" stroke="black" points="165.29,-919.1 161.79,-909.1 158.29,-919.1 165.29,-919.1"/>
</g>
<!-- Earth science -->
<g id="node24" class="node">
<title>Earth science</title>
<g id="a_node24"><a xlink:href="https://en.wikipedia.org/wiki/Earth_science" xlink:title="Earth science">
<ellipse fill="lightskyblue" stroke="lightskyblue" cx="158.79" cy="-819" rx="47.3" ry="18"/>
<text text-anchor="middle" x="158.79" y="-815.9" font-family="Times New Roman,serif" font-size="12.00">Earth science</text>
</a>
</g>
</g>
<!-- Geology&#45;&gt;Earth science -->
<g id="edge22" class="edge">
<title>Geology&#45;&gt;Earth science</title>
<path fill="none" stroke="black" d="M161.05,-872.7C160.72,-864.98 160.32,-855.71 159.95,-847.11"/>
<polygon fill="black" stroke="black" points="163.45,-846.95 159.52,-837.1 156.45,-847.25 163.45,-846.95"/>
</g>
<!-- Earth science&#45;&gt;Natural science -->
<g id="edge23" class="edge">
<title>Earth science&#45;&gt;Natural science</title>
<path fill="none" stroke="black" d="M147.41,-801.41C141.7,-793.08 134.65,-782.8 128.26,-773.49"/>
<polygon fill="black" stroke="black" points="130.96,-771.22 122.41,-764.96 125.18,-775.18 130.96,-771.22"/>
</g>
<!-- Baseball -->
<g id="node25" class="node">
<title>Baseball</title>
<g id="a_node25"><a xlink:href="https://en.wikipedia.org/wiki/Baseball" xlink:title="Baseball">
<ellipse fill="#b0e2ff" stroke="#b0e2ff" cx="376.79" cy="-603" rx="33.72" ry="18"/>
<text text-anchor="middle" x="376.79" y="-599.9" font-family="Times New Roman,serif" font-size="12.00">Baseball</text>
</a>
</g>
</g>
<!-- Bat&#45;and&#45;ball games -->
<g id="node26" class="node">
<title>Bat&#45;and&#45;ball games</title>
<g id="a_node26"><a xlink:href="https://en.wikipedia.org/wiki/Bat-and-ball_games" xlink:title="Bat&#45;and&#45;ball games">
<ellipse fill="lightskyblue" stroke="lightskyblue" cx="376.79" cy="-531" rx="64.77" ry="18"/>
<text text-anchor="middle" x="376.79" y="-527.9" font-family="Times New Roman,serif" font-size="12.00">Bat&#45;and&#45;ball games</text>
</a>
</g>
</g>
<!-- Baseball&#45;&gt;Bat&#45;and&#45;ball games -->
<g id="edge24" class="edge">
<title>Baseball&#45;&gt;Bat&#45;and&#45;ball games</title>
<path fill="none" stroke="black" d="M376.79,-584.7C376.79,-576.98 376.79,-567.71 376.79,-559.11"/>
<polygon fill="black" stroke="black" points="380.29,-559.1 376.79,-549.1 373.29,-559.1 380.29,-559.1"/>
</g>
<!-- Playing field -->
<g id="node27" class="node">
<title>Playing field</title>
<g id="a_node27"><a xlink:href="https://en.wikipedia.org/wiki/Playing_field" xlink:title="Playing field">
<ellipse fill="lightskyblue" stroke="lightskyblue" cx="382.79" cy="-459" rx="43.91" ry="18"/>
<text text-anchor="middle" x="382.79" y="-455.9" font-family="Times New Roman,serif" font-size="12.00">Playing field</text>
</a>
</g>
</g>
<!-- Bat&#45;and&#45;ball games&#45;&gt;Playing field -->
<g id="edge25" class="edge">
<title>Bat&#45;and&#45;ball games&#45;&gt;Playing field</title>
<path fill="none" stroke="black" d="M378.27,-512.7C378.93,-504.98 379.73,-495.71 380.46,-487.11"/>
<polygon fill="black" stroke="black" points="383.95,-487.37 381.32,-477.1 376.98,-486.77 383.95,-487.37"/>
</g>
<!-- Sport -->
<g id="node28" class="node">
<title>Sport</title>
<g id="a_node28"><a xlink:href="https://en.wikipedia.org/wiki/Sport" xlink:title="Sport">
<ellipse fill="lightskyblue" stroke="lightskyblue" cx="372.79" cy="-387" rx="27" ry="18"/>
<text text-anchor="middle" x="372.79" y="-383.9" font-family="Times New Roman,serif" font-size="12.00">Sport</text>
</a>
</g>
</g>
<!-- Playing field&#45;&gt;Sport -->
<g id="edge26" class="edge">
<title>Playing field&#45;&gt;Sport</title>
<path fill="none" stroke="black" d="M380.32,-440.7C379.21,-432.98 377.89,-423.71 376.66,-415.11"/>
<polygon fill="black" stroke="black" points="380.11,-414.51 375.23,-405.1 373.18,-415.5 380.11,-414.51"/>
</g>
<!-- Sport&#45;&gt;Competition -->
<g id="edge27" class="edge">
<title>Sport&#45;&gt;Competition</title>
<path fill="none" stroke="black" d="M367.46,-369.05C365.01,-361.26 362.05,-351.82 359.3,-343.08"/>
<polygon fill="black" stroke="black" points="362.55,-341.77 356.22,-333.28 355.88,-343.86 362.55,-341.77"/>
</g>
<!-- Coffeehouse -->
<g id="node29" class="node">
<title>Coffeehouse</title>
<g id="a_node29"><a xlink:href="https://en.wikipedia.org/wiki/Coffeehouse" xlink:title="Coffeehouse">
<ellipse fill="#b0e2ff" stroke="#b0e2ff" cx="331.79" cy="-963" rx="45.61" ry="18"/>
<text text-anchor="middle" x="331.79" y="-959.9" font-family="Times New Roman,serif" font-size="12.00">Coffeehouse</text>
</a>
</g>
</g>
<!-- Coffee -->
<g id="node30" class="node">
<title>Coffee</title>
<g id="a_node30"><a xlink:href="https://en.wikipedia.org/wiki/Coffee" xlink:title="Coffee">
<ellipse fill="lightskyblue" stroke="lightskyblue" cx="331.79" cy="-891" rx="28.87" ry="18"/>
<text text-anchor="middle" x="331.79" y="-887.9" font-family="Times New Roman,serif" font-size="12.00">Coffee</text>
</a>
</g>
</g>
<!-- Coffeehouse&#45;&gt;Coffee -->
<g id="edge28" class="edge">
<title>Coffeehouse&#45;&gt;Coffee</title>
<path fill="none" stroke="black" d="M331.79,-944.7C331.79,-936.98 331.79,-927.71 331.79,-919.11"/>
<polygon fill="black" stroke="black" points="335.29,-919.1 331.79,-909.1 328.29,-919.1 335.29,-919.1"/>
</g>
<!-- Coffee preparation -->
<g id="node31" class="node">
<title>Coffee preparation</title>
<g id="a_node31"><a xlink:href="https://en.wikipedia.org/wiki/Coffee_preparation" xlink:title="Coffee preparation">
<ellipse fill="lightskyblue" stroke="lightskyblue" cx="286.79" cy="-819" rx="62.58" ry="18"/>
<text text-anchor="middle" x="286.79" y="-815.9" font-family="Times New Roman,serif" font-size="12.00">Coffee preparation</text>
</a>
</g>
</g>
<!-- Coffee&#45;&gt;Coffee preparation -->
<g id="edge29" class="edge">
<title>Coffee&#45;&gt;Coffee preparation</title>
<path fill="none" stroke="black" d="M321.58,-874.12C316.1,-865.59 309.21,-854.89 303.02,-845.25"/>
<polygon fill="black" stroke="black" points="305.94,-843.32 297.59,-836.8 300.05,-847.1 305.94,-843.32"/>
</g>
<!-- Coffee beans -->
<g id="node32" class="node">
<title>Coffee beans</title>
<g id="a_node32"><a xlink:href="https://en.wikipedia.org/wiki/Coffee_beans" xlink:title="Coffee beans">
<ellipse fill="lightskyblue" stroke="lightskyblue" cx="331.79" cy="-747" rx="47.3" ry="18"/>
<text text-anchor="middle" x="331.79" y="-743.9" font-family="Times New Roman,serif" font-size="12.00">Coffee beans</text>
</a>
</g>
</g>
<!-- Coffee preparation&#45;&gt;Coffee beans -->
<g id="edge30" class="edge">
<title>Coffee preparation&#45;&gt;Coffee beans</title>
<path fill="none" stroke="black" d="M297.68,-801.05C303.04,-792.71 309.61,-782.49 315.55,-773.25"/>
<polygon fill="black" stroke="black" points="318.53,-775.09 320.99,-764.79 312.64,-771.31 318.53,-775.09"/>
</g>
<!-- Coffee beans&#45;&gt;Coffee -->
<g id="edge31" class="edge">
<title>Coffee beans&#45;&gt;Coffee</title>
<path fill="none" stroke="black" d="M342.97,-764.86C348.95,-774.9 355.7,-788.15 358.79,-801 362.52,-816.56 362.52,-821.44 358.79,-837 356.45,-846.73 352.01,-856.7 347.4,-865.32"/>
<polygon fill="black" stroke="black" points="344.32,-863.65 342.42,-874.07 350.4,-867.11 344.32,-863.65"/>
</g>
</g>
</svg>
